<svg xmlns="http://www.w3.org/2000/svg" xmlns:xlink="http://www.w3.org/1999/xlink" contentStyleType="text/css" data-diagram-type="DESCRIPTION" height="564px" preserveAspectRatio="none" style="width:770px;height:564px;background:#FFFFFF;" version="1.1" viewBox="0 0 770 564" width="770px" zoomAndPan="magnify"><title>[Project Name] &#8212; Component Architecture</title><defs/><g><g class="title" data-source-line="5"><text fill="#000000" font-family="sans-serif" font-size="14" font-weight="bold" lengthAdjust="spacing" textLength="336.1982" x="210.2584" y="22.9951">[Project Name] &#8212; Component Architecture</text></g><!--cluster Client Layer--><g class="cluster" data-entity="Client Layer" data-source-line="7" data-uid="ent0002" id="cluster_Client Layer"><path d="M18.0617,59.4908 C21.746,53.6549 28.3129,54.0053 31.8,59.7252 C35.5341,52.7097 40.3926,52.3285 45.4142,58.3842 C49.2342,50.4579 54.2348,48.8335 60.4394,56.0123 C63.4487,48.757 70.1596,47.745 75.056,53.9654 C79.5327,47.0416 84.6466,45.9235 90.1739,52.8158 C93.4467,46.3612 100.1553,45.6607 104.4665,51.6202 C108.5759,44.6238 112.6866,44.0975 117.6956,50.7483 C123.6059,43.2969 128.7214,45.3559 133.1092,52.3706 C137.7853,45.9193 143.7359,45.0463 148.1603,52.6403 C152.8526,47.7961 158.5656,48.3727 160.4514,55.5176 C165.4563,48.1007 169.9409,49.4847 174.585,55.8867 C180.1831,49.9053 186.447,49.6982 190.2706,57.8552 C195.6321,52.4458 200.4681,53.7397 203.9324,60.0641 C208.0538,53.5569 214.1317,53.8055 218.5388,59.7284 C227.1885,62.6834 229.9121,70.2615 223.1356,77.261 C231.9027,77.2623 235.4355,83.9015 230.4179,91.1372 C237.0677,98.6884 234.7359,106.6654 224.4518,108.346 C231.1507,115.1812 229.6272,122.4209 219.8988,124.6761 C216.402,132.8229 209.5708,132.0044 204.9801,125.8144 C199.9443,131.7876 195.2006,131.6663 190.8832,125.0125 C188.3431,133.255 181.1939,133.9203 176.2217,127.4333 C171.3693,135.0929 165.2059,133.2531 161.1151,126.628 C157.8724,135.1571 153.5093,135.553 147.2569,129.4854 C141.1955,136.1919 136.4141,135.4987 131.3376,128.3534 C128.0373,136.3401 123.0158,136.0541 117.5588,130.5573 C112.5248,136.6365 106.6687,137.1972 102.5499,129.5562 C97.9857,134.1119 93.3579,134.4451 90.0274,128.1346 C85.4206,135.5483 80.9766,136.2229 75.363,129.154 C69.3225,135.5857 63.5225,135.692 59.7376,126.847 C55.7292,132.0346 50.4675,131.9249 47.1306,126.0797 C40.5989,132.5839 35.5916,132.8816 31.1153,123.9474 C27.5398,130.1599 21.2384,129.9509 17.3594,124.2992 C10.0793,120.4566 9.8166,113.6742 16.3505,108.9251 C8.0228,104.7274 6,97.0286 15.1322,91.6029 C9.4657,87.543 8.6846,82.2012 14.721,77.7929 C8.2178,71.0218 8.361,63.3042 18.0617,59.4908" fill="none" style="stroke:#181818;stroke-width:1;"/><text fill="#000000" font-family="sans-serif" font-size="11" font-weight="bold" lengthAdjust="spacing" textLength="74.481" x="79.4746" y="74.3996">Client Layer</text></g><!--cluster API Layer--><g class="cluster" data-entity="API Layer" data-source-line="12" data-uid="ent0005" id="cluster_API Layer"><polygon fill="none" points="18.715,164.9891,28.715,154.9891,152.715,154.9891,152.715,322.5991,142.715,332.5991,18.715,332.5991,18.715,164.9891" style="stroke:#181818;stroke-width:1;"/><line style="stroke:#181818;stroke-width:1;" x1="142.715" x2="152.715" y1="164.9891" y2="154.9891"/><line style="stroke:#181818;stroke-width:1;" x1="18.715" x2="142.715" y1="164.9891" y2="164.9891"/><line style="stroke:#181818;stroke-width:1;" x1="142.715" x2="142.715" y1="164.9891" y2="332.5991"/><text fill="#000000" font-family="sans-serif" font-size="11" font-weight="bold" lengthAdjust="spacing" textLength="58.9854" x="52.2224" y="178.1996">API Layer</text></g><!--cluster Business Logic--><g class="cluster" data-entity="Business Logic" data-source-line="17" data-uid="ent0008" id="cluster_Business Logic"><polygon fill="none" points="176.715,257.7991,186.715,247.7991,387.715,247.7991,387.715,435.9091,377.715,445.9091,176.715,445.9091,176.715,257.7991" style="stroke:#181818;stroke-width:1;"/><line style="stroke:#181818;stroke-width:1;" x1="377.715" x2="387.715" y1="257.7991" y2="247.7991"/><line style="stroke:#181818;stroke-width:1;" x1="176.715" x2="377.715" y1="257.7991" y2="257.7991"/><line style="stroke:#181818;stroke-width:1;" x1="377.715" x2="377.715" y1="257.7991" y2="445.9091"/><text fill="#000000" font-family="sans-serif" font-size="11" font-weight="bold" lengthAdjust="spacing" textLength="91.4805" x="232.4748" y="271.0096">Business Logic</text></g><!--cluster Data Layer--><g class="cluster" data-entity="Data Layer" data-source-line="23" data-uid="ent0012" id="cluster_Data Layer"><polygon fill="none" points="411.715,366.5991,421.715,356.5991,753.715,356.5991,753.715,440.4091,743.715,450.4091,411.715,450.4091,411.715,366.5991" style="stroke:#181818;stroke-width:1;"/><line style="stroke:#181818;stroke-width:1;" x1="743.715" x2="753.715" y1="366.5991" y2="356.5991"/><line style="stroke:#181818;stroke-width:1;" x1="411.715" x2="743.715" y1="366.5991" y2="366.5991"/><line style="stroke:#181818;stroke-width:1;" x1="743.715" x2="743.715" y1="366.5991" y2="450.4091"/><text fill="#000000" font-family="sans-serif" font-size="11" font-weight="bold" lengthAdjust="spacing" textLength="67.5522" x="544.9389" y="379.8096">Data Layer</text></g><!--cluster External--><g class="cluster" data-entity="External" data-source-line="29" data-uid="ent0016" id="cluster_External"><path d="M191.7272,484.1253 C194.5467,475.3663 199.823,473.9164 206.241,480.7829 C209.0783,474.7455 215.2997,474.9446 218.7375,480.1133 C221.3305,473.7467 227.6027,470.9958 232.3512,477.9026 C235.4366,469.6942 242.3501,469.7333 247.7065,475.3868 C252.5428,470.4023 257.0834,472.0855 259.5252,477.9865 C264.8958,472.7316 269.4011,473.1758 272.7563,480.1644 C277.5007,473.4126 283.5397,475.2545 286.5758,481.9235 C291.3904,475.0086 296.3083,477.0336 300.0629,483.0307 C306.7059,485.5061 308.1325,489.7981 303.011,495.138 C308.8139,496.1044 310.7237,498.6158 307.5025,504.1033 C314.2188,507.0658 313.9152,511.2987 309.5627,516.1536 C313.3713,521.1695 312.1221,524.1017 306.2065,525.6982 C309.5483,529.7057 309.5572,534.0381 303.7595,535.8406 C307.5877,540.1273 307.4663,543.8951 301.8007,546.4246 C298.141,554.6591 293.2784,554.3822 287.837,548.1436 C284.3328,553.6548 279.0031,555.1909 274.8687,548.832 C271.8875,557.0128 265.0069,557.6412 260.0568,550.7694 C255.5901,557.8063 250.3276,556.3923 246.3094,550.2998 C243.1376,557.0655 237.2513,556.1837 233.5605,550.8465 C228.4925,556.1028 223.0603,555.0986 219.5807,548.9069 C216.2133,555.5751 210.266,556.1227 206.4728,549.3213 C201.6507,556.199 195.8426,553.7305 192.6435,547.5963 C184.1117,544.6302 183.1397,538.3276 189.7204,532.4457 C179.7992,529.5173 177.7648,523.2842 184.8088,515.4524 C178.2407,507.3769 178.8533,502.083 189.4538,498.7952 C182.3152,493.8976 183.3993,486.6261 191.7272,484.1253" fill="none" style="stroke:#181818;stroke-width:1;"/><text fill="#000000" font-family="sans-serif" font-size="11" font-weight="bold" lengthAdjust="spacing" textLength="51.7773" x="219.8264" y="497.6196">External</text></g><!--entity mobile--><g class="entity" data-entity="mobile" data-source-line="8" data-uid="ent0003" id="entity_mobile"><rect fill="#F1F1F1" height="32.8047" rx="2.5" ry="2.5" style="stroke:#181818;stroke-width:0.5;" width="81.0693" x="128.185" y="82.1891"/><text fill="#000000" font-family="sans-serif" font-size="11" lengthAdjust="spacing" textLength="61.0693" x="138.185" y="102.3996">Mobile App</text></g><!--entity web--><g class="entity" data-entity="web" data-source-line="9" data-uid="ent0004" id="entity_web"><rect fill="#F1F1F1" height="32.8047" rx="2.5" ry="2.5" style="stroke:#181818;stroke-width:0.5;" width="69.6128" x="23.905" y="82.1891"/><text fill="#000000" font-family="sans-serif" font-size="11" lengthAdjust="spacing" textLength="49.6128" x="33.905" y="102.3996">Web App</text></g><!--entity gw--><g class="entity" data-entity="gw" data-source-line="13" data-uid="ent0006" id="entity_gw"><rect fill="#F1F1F1" height="32.8047" rx="2.5" ry="2.5" style="stroke:#181818;stroke-width:0.5;" width="89.4912" x="46.965" y="190.9891"/><text fill="#000000" font-family="sans-serif" font-size="11" lengthAdjust="spacing" textLength="69.4912" x="56.965" y="211.1996">API Gateway</text></g><!--entity auth--><g class="entity" data-entity="auth" data-source-line="14" data-uid="ent0007" id="entity_auth"><rect fill="#F1F1F1" height="32.8047" rx="2.5" ry="2.5" style="stroke:#181818;stroke-width:0.5;" width="89.9316" x="46.745" y="283.7991"/><text fill="#000000" font-family="sans-serif" font-size="11" lengthAdjust="spacing" textLength="69.9316" x="56.745" y="304.0096">Auth Service</text></g><!--entity svcA--><g class="entity" data-entity="svcA" data-source-line="18" data-uid="ent0009" id="entity_svcA"><rect fill="#F1F1F1" height="32.8047" rx="2.5" ry="2.5" style="stroke:#181818;stroke-width:0.5;" width="71.6753" x="192.875" y="283.7991"/><text fill="#000000" font-family="sans-serif" font-size="11" lengthAdjust="spacing" textLength="51.6753" x="202.875" y="304.0096">Service A</text></g><!--entity svcB--><g class="entity" data-entity="svcB" data-source-line="19" data-uid="ent0010" id="entity_svcB"><rect fill="#F1F1F1" height="32.8047" rx="2.5" ry="2.5" style="stroke:#181818;stroke-width:0.5;" width="71.6968" x="299.865" y="283.7991"/><text fill="#000000" font-family="sans-serif" font-size="11" lengthAdjust="spacing" textLength="51.6968" x="309.865" y="304.0096">Service B</text></g><!--entity worker--><g class="entity" data-entity="worker" data-source-line="20" data-uid="ent0011" id="entity_worker"><rect fill="#F1F1F1" height="32.8047" rx="2.5" ry="2.5" style="stroke:#181818;stroke-width:0.5;" width="106.625" x="192.405" y="397.0991"/><text fill="#000000" font-family="sans-serif" font-size="11" lengthAdjust="spacing" textLength="86.625" x="202.405" y="417.3096">Worker / Queue</text></g><!--entity db--><g class="entity" data-entity="db" data-source-line="24" data-uid="ent0013" id="entity_db"><path d="M550.995,402.5991 C550.995,392.5991 592.7194,392.5991 592.7194,392.5991 C592.7194,392.5991 634.4438,392.5991 634.4438,402.5991 L634.4438,424.4038 C634.4438,434.4038 592.7194,434.4038 592.7194,434.4038 C592.7194,434.4038 550.995,434.4038 550.995,424.4038 L550.995,402.5991" fill="#F1F1F1" style="stroke:#181818;stroke-width:0.5;"/><path d="M550.995,402.5991 C550.995,412.5991 592.7194,412.5991 592.7194,412.5991 C592.7194,412.5991 634.4438,412.5991 634.4438,402.5991" fill="none" style="stroke:#181818;stroke-width:0.5;"/><text fill="#000000" font-family="sans-serif" font-size="11" lengthAdjust="spacing" textLength="63.4487" x="560.995" y="426.8096">PostgreSQL</text></g><!--entity cache--><g class="entity" data-entity="cache" data-source-line="25" data-uid="ent0014" id="entity_cache"><path d="M427.775,402.5991 C427.775,392.5991 471.7177,392.5991 471.7177,392.5991 C471.7177,392.5991 515.6603,392.5991 515.6603,402.5991 L515.6603,424.4038 C515.6603,434.4038 471.7177,434.4038 471.7177,434.4038 C471.7177,434.4038 427.775,434.4038 427.775,424.4038 L427.775,402.5991" fill="#F1F1F1" style="stroke:#181818;stroke-width:0.5;"/><path d="M427.775,402.5991 C427.775,412.5991 471.7177,412.5991 471.7177,412.5991 C471.7177,412.5991 515.6603,412.5991 515.6603,402.5991" fill="none" style="stroke:#181818;stroke-width:0.5;"/><text fill="#000000" font-family="sans-serif" font-size="11" lengthAdjust="spacing" textLength="67.8853" x="437.775" y="426.8096">Redis Cache</text></g><!--entity storage--><g class="entity" data-entity="storage" data-source-line="26" data-uid="ent0015" id="entity_storage"><rect fill="#F1F1F1" height="32.8047" rx="35" ry="35" style="stroke:#181818;stroke-width:0.5;" width="68.9951" x="669.215" y="397.0991"/><text fill="#000000" font-family="sans-serif" font-size="11" lengthAdjust="spacing" textLength="48.9951" x="679.215" y="417.3096">S3 / Blob</text></g><!--entity ext--><g class="entity" data-entity="ext" data-source-line="30" data-uid="ent0017" id="entity_ext"><rect fill="#F1F1F1" height="32.8047" rx="2.5" ry="2.5" style="stroke:#181818;stroke-width:0.5;" width="91.6182" x="199.905" y="505.4091"/><text fill="#000000" font-family="sans-serif" font-size="11" lengthAdjust="spacing" textLength="71.6182" x="209.905" y="525.6196">3rd Party API</text></g><!--link mobile to gw--><g class="link" data-entity-1="mobile" data-entity-2="gw" data-source-line="33" data-uid="lnk18" id="link_mobile_gw"><path d="M157.355,115.3491 C142.795,135.5391 121.2143,165.4824 106.6343,185.7024" fill="none" id="mobile-to-gw" style="stroke:#181818;stroke-width:1;"/><polygon fill="#181818" points="103.125,190.5691,111.6334,185.6085,106.0494,186.5135,105.1444,180.9295,103.125,190.5691" style="stroke:#181818;stroke-width:1;"/></g><!--link web to gw--><g class="link" data-entity-1="web" data-entity-2="gw" data-source-line="34" data-uid="lnk19" id="link_web_gw"><path d="M63.585,115.3491 C69.825,135.5391 78.8032,164.6167 85.0532,184.8367" fill="none" id="web-to-gw" style="stroke:#181818;stroke-width:1;"/><polygon fill="#181818" points="86.825,190.5691,87.9888,180.7892,85.3485,185.7921,80.3456,183.1518,86.825,190.5691" style="stroke:#181818;stroke-width:1;"/></g><!--link gw to auth--><g class="link" data-entity-1="gw" data-entity-2="auth" data-source-line="35" data-uid="lnk20" id="link_gw_auth"><path d="M91.715,224.2091 C91.715,240.8791 91.715,260.9591 91.715,277.5591" fill="none" id="gw-to-auth" style="stroke:#181818;stroke-width:1;"/><polygon fill="#181818" points="91.715,283.5591,95.715,274.5591,91.715,278.5591,87.715,274.5591,91.715,283.5591" style="stroke:#181818;stroke-width:1;"/></g><!--link gw to svcA--><g class="link" data-entity-1="gw" data-entity-2="svcA" data-source-line="36" data-uid="lnk21" id="link_gw_svcA"><path d="M125.275,224.2391 C134.375,228.9191 144.085,234.2691 152.715,239.7991 C173.585,253.1591 191.1376,267.0518 206.1076,279.6718" fill="none" id="gw-to-svcA" style="stroke:#181818;stroke-width:1;"/><polygon fill="#181818" points="210.695,283.5391,206.3921,274.6799,206.8722,280.3164,201.2358,280.7965,210.695,283.5391" style="stroke:#181818;stroke-width:1;"/></g><!--link gw to svcB--><g class="link" data-entity-1="gw" data-entity-2="svcB" data-source-line="37" data-uid="lnk22" id="link_gw_svcB"><path d="M136.625,207.6491 C176.925,208.8191 236.495,215.1791 281.715,239.7991 C300.565,250.0591 312.8722,264.5274 322.4022,278.3674" fill="none" id="gw-to-svcB" style="stroke:#181818;stroke-width:1;"/><polygon fill="#181818" points="325.805,283.3091,323.9953,273.6279,322.9694,279.191,317.4063,278.165,325.805,283.3091" style="stroke:#181818;stroke-width:1;"/></g><!--link svcA to db--><g class="link" data-entity-1="svcA" data-entity-2="db" data-source-line="38" data-uid="lnk23" id="link_svcA_db"><path d="M244.715,316.8691 C254.745,325.6091 268.445,335.6891 282.715,340.5991 C308.995,349.6391 507.385,337.1591 532.715,348.5991 C552.965,357.7491 566.186,372.3395 576.766,387.3995" fill="none" id="svcA-to-db" style="stroke:#181818;stroke-width:1;"/><polygon fill="#181818" points="580.215,392.3091,578.3145,382.6454,577.3408,388.2178,571.7684,387.2441,580.215,392.3091" style="stroke:#181818;stroke-width:1;"/></g><!--link svcA to cache--><g class="link" data-entity-1="svcA" data-entity-2="cache" data-source-line="39" data-uid="lnk24" id="link_svcA_cache"><path d="M245.265,317.0491 C255.275,325.6091 268.775,335.4591 282.715,340.5991 C326.625,356.7891 343.965,331.9691 387.715,348.5991 C412.555,358.0391 431.8361,373.1767 447.6761,388.0867" fill="none" id="svcA-to-cache" style="stroke:#181818;stroke-width:1;"/><polygon fill="#181818" points="452.045,392.1991,448.2332,383.1178,448.4042,388.7721,442.75,388.9431,452.045,392.1991" style="stroke:#181818;stroke-width:1;"/></g><!--link svcB to db--><g class="link" data-entity-1="svcB" data-entity-2="db" data-source-line="40" data-uid="lnk25" id="link_svcB_db"><path d="M371.805,303.6591 C413.155,307.8391 481.775,318.9891 532.715,348.5991 C551.395,359.4591 564.1736,373.1605 575.0936,387.4605" fill="none" id="svcB-to-db" style="stroke:#181818;stroke-width:1;"/><polygon fill="#181818" points="578.735,392.2291,576.4519,382.6485,575.7005,388.2553,570.0937,387.5038,578.735,392.2291" style="stroke:#181818;stroke-width:1;"/></g><!--link svcB to storage--><g class="link" data-entity-1="svcB" data-entity-2="storage" data-source-line="41" data-uid="lnk26" id="link_svcB_storage"><path d="M371.875,303.3491 C444.345,308.1891 604.495,321.6691 651.715,348.5991 C671.475,359.8691 683.7229,376.6058 692.4629,391.5958" fill="none" id="svcB-to-storage" style="stroke:#181818;stroke-width:1;"/><polygon fill="#181818" points="695.485,396.7791,694.4073,386.9894,692.9666,392.4597,687.4963,391.0189,695.485,396.7791" style="stroke:#181818;stroke-width:1;"/></g><!--link svcA to worker--><g class="link" data-entity-1="svcA" data-entity-2="worker" data-source-line="42" data-uid="lnk27" id="link_svcA_worker"><path d="M231.075,316.6691 C234.305,337.8191 239.1584,369.608 242.4084,390.868" fill="none" id="svcA-to-worker" style="stroke:#181818;stroke-width:1;"/><polygon fill="#181818" points="243.315,396.7991,245.9091,387.298,242.5595,391.8565,238.001,388.5069,243.315,396.7991" style="stroke:#181818;stroke-width:1;"/></g><!--link worker to ext--><g class="link" data-entity-1="worker" data-entity-2="ext" data-source-line="43" data-uid="lnk28" id="link_worker_ext"><path d="M245.715,430.1891 C245.715,450.2891 245.715,478.9291 245.715,499.0591" fill="none" id="worker-to-ext" style="stroke:#181818;stroke-width:1;"/><polygon fill="#181818" points="245.715,505.0591,249.715,496.0591,245.715,500.0591,241.715,496.0591,245.715,505.0591" style="stroke:#181818;stroke-width:1;"/></g><!--SRC=[LL3BReCm4BpxArRSeohAlHBGXogb5Ic77g8S5hCbRW0ZsuJGgb8_eb_OBwbj224dPcV6kyFeWwWRL5X1XlnGADdMUInBgQ3R2qDCJpgNLIDhgarg-f904JTO5-NSajCxjgLvaDOaFWcMIyQCCDQzJPJyi2_W1IlQmT_FByJdVH0gxcvnqofYZ9UopI68I-6qDVQa0lXY0DjdcGcxAsoQ7Q26oezEUADiOZlAs3TZjSm9WZ1vkjhWvaSqr67lpKNdsTRi8ILr59myZPQuB8bQBMhI6jQo47pSDDeXz0_qaOTpDZgpaOydrO4KtC2cfNQuq7dgSkCE3SwJvdREK5ibaTeKYjBDEd0Fy-nAVQLSQ8YHxydBt27hq4OgBAmXNTcxKIapBu-qkplMV7yof6einzzQgHmILAO7MvLFIYVZx4FPi5ZSkj9ioMTOT1xvoaRisxZWY3d2JpRzX8UeJfz90px7dBnZNSF7CpRMFm00]--></g></svg>