<?xml version="1.0" encoding="UTF-8" standalone="no"?>
<!DOCTYPE svg PUBLIC "-//W3C//DTD SVG 1.1//EN"
 "http://www.w3.org/Graphics/SVG/1.1/DTD/svg11.dtd">
<!-- Generated by graphviz version 9.0.0 (20230911.1827)
 -->
<!-- Pages: 1 -->
<svg width="1217pt" height="498pt"
 viewBox="0.00 0.00 1216.75 498.00" xmlns="http://www.w3.org/2000/svg" xmlns:xlink="http://www.w3.org/1999/xlink">
<g id="graph0" class="graph" transform="scale(1 1) rotate(0) translate(4 494)">
<polygon fill="white" stroke="none" points="-4,4 -4,-494 1212.75,-494 1212.75,4 -4,4"/>
<text text-anchor="start" x="8" y="-467" font-family="Times,serif" font-size="20.00">[Project Name] — Data Model</text>
<!-- User -->
<g id="node1" class="node">
<title>User</title>
<polygon fill="none" stroke="black" points="8,-336.75 8,-366.25 249,-366.25 249,-336.75 8,-336.75"/>
<text text-anchor="start" x="107.88" y="-347.05" font-family="Helvetica,sans-Serif" font-weight="bold" font-size="16.00">User</text>
<polygon fill="none" stroke="black" points="8,-309.5 8,-336.75 249,-336.75 249,-309.5 8,-309.5"/>
<text text-anchor="start" x="13" y="-319.45" font-family="Helvetica,sans-Serif" text-decoration="underline" font-size="14.00">id</text>
<text text-anchor="start" x="25.75" y="-319.45" font-family="Helvetica,sans-Serif" font-size="14.00"> [bigint, PK]</text>
<polygon fill="none" stroke="black" points="8,-282.25 8,-309.5 249,-309.5 249,-282.25 8,-282.25"/>
<text text-anchor="start" x="13" y="-292.2" font-family="Helvetica,sans-Serif" font-size="14.00">username</text>
<text text-anchor="start" x="82" y="-292.2" font-family="Helvetica,sans-Serif" font-size="14.00"> [varchar(255), unique]</text>
<polygon fill="none" stroke="black" points="8,-255 8,-282.25 249,-282.25 249,-255 8,-255"/>
<text text-anchor="start" x="13" y="-264.95" font-family="Helvetica,sans-Serif" font-size="14.00">email</text>
<text text-anchor="start" x="50.5" y="-264.95" font-family="Helvetica,sans-Serif" font-size="14.00"> [varchar(255), unique]</text>
<polygon fill="none" stroke="black" points="8,-227.75 8,-255 249,-255 249,-227.75 8,-227.75"/>
<text text-anchor="start" x="13" y="-237.7" font-family="Helvetica,sans-Serif" font-size="14.00">password_hash</text>
<text text-anchor="start" x="119.5" y="-237.7" font-family="Helvetica,sans-Serif" font-size="14.00"> [varchar(255)]</text>
<polygon fill="none" stroke="black" points="8,-200.5 8,-227.75 249,-227.75 249,-200.5 8,-200.5"/>
<text text-anchor="start" x="13" y="-210.45" font-family="Helvetica,sans-Serif" font-size="14.00">role</text>
<text text-anchor="start" x="38.5" y="-210.45" font-family="Helvetica,sans-Serif" font-size="14.00"> [enum(admin, user)]</text>
<polygon fill="none" stroke="black" points="8,-173.25 8,-200.5 249,-200.5 249,-173.25 8,-173.25"/>
<text text-anchor="start" x="13" y="-183.2" font-family="Helvetica,sans-Serif" font-size="14.00">created_at</text>
<text text-anchor="start" x="85" y="-183.2" font-family="Helvetica,sans-Serif" font-size="14.00"> [timestamp]</text>
<polygon fill="none" stroke="black" points="8,-146 8,-173.25 249,-173.25 249,-146 8,-146"/>
<text text-anchor="start" x="13" y="-155.95" font-family="Helvetica,sans-Serif" font-size="14.00">updated_at</text>
<text text-anchor="start" x="91" y="-155.95" font-family="Helvetica,sans-Serif" font-size="14.00"> [timestamp]</text>
</g>
<!-- Organization -->
<g id="node2" class="node">
<title>Organization</title>
<polygon fill="none" stroke="black" points="338,-403.88 338,-433.38 582,-433.38 582,-403.88 338,-403.88"/>
<text text-anchor="start" x="402.62" y="-414.18" font-family="Helvetica,sans-Serif" font-weight="bold" font-size="16.00">Organization</text>
<polygon fill="none" stroke="black" points="338,-376.62 338,-403.88 582,-403.88 582,-376.62 338,-376.62"/>
<text text-anchor="start" x="343" y="-386.57" font-family="Helvetica,sans-Serif" text-decoration="underline" font-size="14.00">id</text>
<text text-anchor="start" x="355.75" y="-386.57" font-family="Helvetica,sans-Serif" font-size="14.00"> [bigint, PK]</text>
<polygon fill="none" stroke="black" points="338,-349.38 338,-376.62 582,-376.62 582,-349.38 338,-349.38"/>
<text text-anchor="start" x="343" y="-359.32" font-family="Helvetica,sans-Serif" font-size="14.00">name</text>
<text text-anchor="start" x="382" y="-359.32" font-family="Helvetica,sans-Serif" font-size="14.00"> [varchar(255)]</text>
<polygon fill="none" stroke="black" points="338,-322.12 338,-349.38 582,-349.38 582,-322.12 338,-322.12"/>
<text text-anchor="start" x="343" y="-332.07" font-family="Helvetica,sans-Serif" font-size="14.00">plan</text>
<text text-anchor="start" x="373" y="-332.07" font-family="Helvetica,sans-Serif" font-size="14.00"> [enum(free, pro, enterprise)]</text>
<polygon fill="none" stroke="black" points="338,-294.88 338,-322.12 582,-322.12 582,-294.88 338,-294.88"/>
<text text-anchor="start" x="343" y="-304.82" font-family="Helvetica,sans-Serif" font-size="14.00">created_at</text>
<text text-anchor="start" x="415" y="-304.82" font-family="Helvetica,sans-Serif" font-size="14.00"> [timestamp]</text>
</g>
<!-- User&#45;&#45;Organization -->
<g id="edge1" class="edge">
<title>User&#45;&#45;Organization</title>
<path fill="none" stroke="#7f7f7f" stroke-dasharray="5,2" d="M256.89,-297.88C280.89,-305.75 306,-313.98 330.04,-321.86"/>
<text text-anchor="start" x="321.04" y="-308.56" font-family="Times,serif" font-size="14.00">1</text>
<text text-anchor="start" x="256.89" y="-284.58" font-family="Times,serif" font-size="14.00">0..N</text>
</g>
<!-- Resource -->
<g id="node4" class="node">
<title>Resource</title>
<polygon fill="none" stroke="black" points="1029.5,-342.12 1029.5,-371.62 1200.75,-371.62 1200.75,-342.12 1029.5,-342.12"/>
<text text-anchor="start" x="1073.5" y="-352.43" font-family="Helvetica,sans-Serif" font-weight="bold" font-size="16.00">Resource</text>
<polygon fill="none" stroke="black" points="1029.5,-314.88 1029.5,-342.12 1200.75,-342.12 1200.75,-314.88 1029.5,-314.88"/>
<text text-anchor="start" x="1034.5" y="-324.82" font-family="Helvetica,sans-Serif" text-decoration="underline" font-size="14.00">id</text>
<text text-anchor="start" x="1047.25" y="-324.82" font-family="Helvetica,sans-Serif" font-size="14.00"> [bigint, PK]</text>
<polygon fill="none" stroke="black" points="1029.5,-287.62 1029.5,-314.88 1200.75,-314.88 1200.75,-287.62 1029.5,-287.62"/>
<text text-anchor="start" x="1034.5" y="-297.57" font-family="Helvetica,sans-Serif" font-style="italic" font-size="14.00">project_id</text>
<text text-anchor="start" x="1101.25" y="-297.57" font-family="Helvetica,sans-Serif" font-size="14.00"> [bigint, FK]</text>
<polygon fill="none" stroke="black" points="1029.5,-260.38 1029.5,-287.62 1200.75,-287.62 1200.75,-260.38 1029.5,-260.38"/>
<text text-anchor="start" x="1034.5" y="-270.32" font-family="Helvetica,sans-Serif" font-style="italic" font-size="14.00">created_by</text>
<text text-anchor="start" x="1110.25" y="-270.32" font-family="Helvetica,sans-Serif" font-size="14.00"> [bigint, FK]</text>
<polygon fill="none" stroke="black" points="1029.5,-233.12 1029.5,-260.38 1200.75,-260.38 1200.75,-233.12 1029.5,-233.12"/>
<text text-anchor="start" x="1034.5" y="-243.07" font-family="Helvetica,sans-Serif" font-size="14.00">type</text>
<text text-anchor="start" x="1065.25" y="-243.07" font-family="Helvetica,sans-Serif" font-size="14.00"> [varchar(100)]</text>
<polygon fill="none" stroke="black" points="1029.5,-205.88 1029.5,-233.12 1200.75,-233.12 1200.75,-205.88 1029.5,-205.88"/>
<text text-anchor="start" x="1034.5" y="-215.82" font-family="Helvetica,sans-Serif" font-size="14.00">content</text>
<text text-anchor="start" x="1087" y="-215.82" font-family="Helvetica,sans-Serif" font-size="14.00"> [jsonb]</text>
<polygon fill="none" stroke="black" points="1029.5,-178.62 1029.5,-205.88 1200.75,-205.88 1200.75,-178.62 1029.5,-178.62"/>
<text text-anchor="start" x="1034.5" y="-188.57" font-family="Helvetica,sans-Serif" font-size="14.00">created_at</text>
<text text-anchor="start" x="1106.5" y="-188.57" font-family="Helvetica,sans-Serif" font-size="14.00"> [timestamp]</text>
</g>
<!-- User&#45;&#45;Resource -->
<g id="edge4" class="edge">
<title>User&#45;&#45;Resource</title>
<path fill="none" stroke="#7f7f7f" stroke-dasharray="5,2" d="M256.63,-256.12C317.81,-256.12 392.21,-256.12 459,-256.12 459,-256.12 459,-256.12 806.75,-256.12 879.06,-256.12 960.76,-261.43 1021.75,-266.43"/>
<text text-anchor="start" x="991.75" y="-253.13" font-family="Times,serif" font-size="14.00">0..N</text>
<text text-anchor="start" x="256.63" y="-260.07" font-family="Times,serif" font-size="14.00">1</text>
</g>
<!-- AuditLog -->
<g id="node5" class="node">
<title>AuditLog</title>
<polygon fill="none" stroke="black" points="363.88,-194.75 363.88,-224.25 556.12,-224.25 556.12,-194.75 363.88,-194.75"/>
<text text-anchor="start" x="419.5" y="-205.05" font-family="Helvetica,sans-Serif" font-weight="bold" font-size="16.00">AuditLog</text>
<polygon fill="none" stroke="black" points="363.88,-167.5 363.88,-194.75 556.12,-194.75 556.12,-167.5 363.88,-167.5"/>
<text text-anchor="start" x="368.88" y="-177.45" font-family="Helvetica,sans-Serif" text-decoration="underline" font-size="14.00">id</text>
<text text-anchor="start" x="381.62" y="-177.45" font-family="Helvetica,sans-Serif" font-size="14.00"> [bigint, PK]</text>
<polygon fill="none" stroke="black" points="363.88,-140.25 363.88,-167.5 556.12,-167.5 556.12,-140.25 363.88,-140.25"/>
<text text-anchor="start" x="368.88" y="-150.2" font-family="Helvetica,sans-Serif" font-style="italic" font-size="14.00">user_id</text>
<text text-anchor="start" x="419.12" y="-150.2" font-family="Helvetica,sans-Serif" font-size="14.00"> [bigint, FK]</text>
<polygon fill="none" stroke="black" points="363.88,-113 363.88,-140.25 556.12,-140.25 556.12,-113 363.88,-113"/>
<text text-anchor="start" x="368.88" y="-122.95" font-family="Helvetica,sans-Serif" font-size="14.00">action</text>
<text text-anchor="start" x="410.88" y="-122.95" font-family="Helvetica,sans-Serif" font-size="14.00"> [varchar(100)]</text>
<polygon fill="none" stroke="black" points="363.88,-85.75 363.88,-113 556.12,-113 556.12,-85.75 363.88,-85.75"/>
<text text-anchor="start" x="368.88" y="-95.7" font-family="Helvetica,sans-Serif" font-size="14.00">entity_type</text>
<text text-anchor="start" x="446.12" y="-95.7" font-family="Helvetica,sans-Serif" font-size="14.00"> [varchar(100)]</text>
<polygon fill="none" stroke="black" points="363.88,-58.5 363.88,-85.75 556.12,-85.75 556.12,-58.5 363.88,-58.5"/>
<text text-anchor="start" x="368.88" y="-68.45" font-family="Helvetica,sans-Serif" font-size="14.00">entity_id</text>
<text text-anchor="start" x="428.12" y="-68.45" font-family="Helvetica,sans-Serif" font-size="14.00"> [bigint]</text>
<polygon fill="none" stroke="black" points="363.88,-31.25 363.88,-58.5 556.12,-58.5 556.12,-31.25 363.88,-31.25"/>
<text text-anchor="start" x="368.88" y="-41.2" font-family="Helvetica,sans-Serif" font-size="14.00">metadata</text>
<text text-anchor="start" x="434.88" y="-41.2" font-family="Helvetica,sans-Serif" font-size="14.00"> [jsonb]</text>
<polygon fill="none" stroke="black" points="363.88,-4 363.88,-31.25 556.12,-31.25 556.12,-4 363.88,-4"/>
<text text-anchor="start" x="368.88" y="-13.95" font-family="Helvetica,sans-Serif" font-size="14.00">created_at</text>
<text text-anchor="start" x="440.88" y="-13.95" font-family="Helvetica,sans-Serif" font-size="14.00"> [timestamp]</text>
</g>
<!-- User&#45;&#45;AuditLog -->
<g id="edge5" class="edge">
<title>User&#45;&#45;AuditLog</title>
<path fill="none" stroke="#7f7f7f" stroke-dasharray="5,2" d="M256.89,-201.22C289.67,-187.1 324.53,-172.07 355.91,-158.55"/>
<text text-anchor="start" x="325.91" y="-145.25" font-family="Times,serif" font-size="14.00">0..N</text>
<text text-anchor="start" x="256.89" y="-187.92" font-family="Times,serif" font-size="14.00">1</text>
</g>
<!-- Project -->
<g id="node3" class="node">
<title>Project</title>
<polygon fill="none" stroke="black" points="671,-424.5 671,-454 940.5,-454 940.5,-424.5 671,-424.5"/>
<text text-anchor="start" x="773.5" y="-434.8" font-family="Helvetica,sans-Serif" font-weight="bold" font-size="16.00">Project</text>
<polygon fill="none" stroke="black" points="671,-397.25 671,-424.5 940.5,-424.5 940.5,-397.25 671,-397.25"/>
<text text-anchor="start" x="676" y="-407.2" font-family="Helvetica,sans-Serif" text-decoration="underline" font-size="14.00">id</text>
<text text-anchor="start" x="688.75" y="-407.2" font-family="Helvetica,sans-Serif" font-size="14.00"> [bigint, PK]</text>
<polygon fill="none" stroke="black" points="671,-370 671,-397.25 940.5,-397.25 940.5,-370 671,-370"/>
<text text-anchor="start" x="676" y="-379.95" font-family="Helvetica,sans-Serif" font-style="italic" font-size="14.00">organization_id</text>
<text text-anchor="start" x="781" y="-379.95" font-family="Helvetica,sans-Serif" font-size="14.00"> [bigint, FK]</text>
<polygon fill="none" stroke="black" points="671,-342.75 671,-370 940.5,-370 940.5,-342.75 671,-342.75"/>
<text text-anchor="start" x="676" y="-352.7" font-family="Helvetica,sans-Serif" font-size="14.00">name</text>
<text text-anchor="start" x="715" y="-352.7" font-family="Helvetica,sans-Serif" font-size="14.00"> [varchar(255)]</text>
<polygon fill="none" stroke="black" points="671,-315.5 671,-342.75 940.5,-342.75 940.5,-315.5 671,-315.5"/>
<text text-anchor="start" x="676" y="-325.45" font-family="Helvetica,sans-Serif" font-size="14.00">status</text>
<text text-anchor="start" x="718.75" y="-325.45" font-family="Helvetica,sans-Serif" font-size="14.00"> [enum(draft, active, archived)]</text>
<polygon fill="none" stroke="black" points="671,-288.25 671,-315.5 940.5,-315.5 940.5,-288.25 671,-288.25"/>
<text text-anchor="start" x="676" y="-298.2" font-family="Helvetica,sans-Serif" font-size="14.00">created_at</text>
<text text-anchor="start" x="748" y="-298.2" font-family="Helvetica,sans-Serif" font-size="14.00"> [timestamp]</text>
</g>
<!-- Organization&#45;&#45;Project -->
<g id="edge2" class="edge">
<title>Organization&#45;&#45;Project</title>
<path fill="none" stroke="#7f7f7f" stroke-dasharray="5,2" d="M589.98,-366.75C613.89,-367.24 638.98,-367.75 663.24,-368.24"/>
<text text-anchor="start" x="633.24" y="-354.94" font-family="Times,serif" font-size="14.00">0..N</text>
<text text-anchor="start" x="589.98" y="-353.45" font-family="Times,serif" font-size="14.00">1</text>
</g>
<!-- Project&#45;&#45;Resource -->
<g id="edge3" class="edge">
<title>Project&#45;&#45;Resource</title>
<path fill="none" stroke="#7f7f7f" stroke-dasharray="5,2" d="M948.29,-326.92C973.19,-319.14 998.51,-311.23 1021.62,-304.02"/>
<text text-anchor="start" x="991.62" y="-290.72" font-family="Times,serif" font-size="14.00">0..N</text>
<text text-anchor="start" x="948.29" y="-313.62" font-family="Times,serif" font-size="14.00">1</text>
</g>
</g>
</svg>
