<svg xmlns="http://www.w3.org/2000/svg" xmlns:xlink="http://www.w3.org/1999/xlink" contentStyleType="text/css" data-diagram-type="SEQUENCE" height="605px" preserveAspectRatio="none" style="width:933px;height:605px;background:#FFFFFF;" version="1.1" viewBox="0 0 933 605" width="933px" zoomAndPan="magnify"><title>[Use Case] &#8212; Sequence Flow</title><defs/><g><text fill="#000000" font-family="sans-serif" font-size="14" font-weight="bold" lengthAdjust="spacing" textLength="226.7754" x="351.8035" y="27.9951">[Use Case] &#8212; Sequence Flow</text><g><title>User</title><rect fill="#000000" fill-opacity="0.00000" height="405.8594" width="8" x="19.9551" y="118.5938"/><line style="stroke:#181818;stroke-width:0.5;stroke-dasharray:5,5;" x1="23" x2="23" y1="118.5938" y2="524.4531"/></g><g><title>Mobile App</title><rect fill="#000000" fill-opacity="0.00000" height="405.8594" width="8" x="165.5698" y="118.5938"/><line style="stroke:#181818;stroke-width:0.5;stroke-dasharray:5,5;" x1="168.7075" x2="168.7075" y1="118.5938" y2="524.4531"/></g><g><title>API Gateway</title><rect fill="#000000" fill-opacity="0.00000" height="405.8594" width="8" x="296.5723" y="118.5938"/><line style="stroke:#181818;stroke-width:0.5;stroke-dasharray:5,5;" x1="300.3506" x2="300.3506" y1="118.5938" y2="524.4531"/></g><g><title>Auth Service</title><rect fill="#000000" fill-opacity="0.00000" height="405.8594" width="8" x="414.9175" y="118.5938"/><line style="stroke:#181818;stroke-width:0.5;stroke-dasharray:5,5;" x1="418.4155" x2="418.4155" y1="118.5938" y2="524.4531"/></g><g><title>Service A</title><rect fill="#000000" fill-opacity="0.00000" height="405.8594" width="8" x="516.3037" y="118.5938"/><line style="stroke:#181818;stroke-width:0.5;stroke-dasharray:5,5;" x1="519.4194" x2="519.4194" y1="118.5938" y2="524.4531"/></g><g><title>PostgreSQL</title><rect fill="#000000" fill-opacity="0.00000" height="405.8594" width="8" x="627.3618" y="118.5938"/><line style="stroke:#181818;stroke-width:0.5;stroke-dasharray:5,5;" x1="630.9854" x2="630.9854" y1="118.5938" y2="524.4531"/></g><g><title>Message Queue</title><rect fill="#000000" fill-opacity="0.00000" height="405.8594" width="8" x="746.6392" y="118.5938"/><line style="stroke:#181818;stroke-width:0.5;stroke-dasharray:5,5;" x1="749.7383" x2="749.7383" y1="118.5938" y2="524.4531"/></g><g class="participant participant-head" data-participant="User"><text fill="#000000" font-family="sans-serif" font-size="14" lengthAdjust="spacing" textLength="31.9102" x="5" y="115.292">User</text><ellipse cx="23.9551" cy="50.7969" fill="#E2E2F0" rx="8" ry="8" style="stroke:#181818;stroke-width:0.5;"/><path d="M23.9551,58.7969 L23.9551,85.7969 M10.9551,66.7969 L36.9551,66.7969 M23.9551,85.7969 L10.9551,100.7969 M23.9551,85.7969 L36.9551,100.7969" fill="none" style="stroke:#181818;stroke-width:0.5;"/></g><g class="participant participant-tail" data-participant="User"><text fill="#000000" font-family="sans-serif" font-size="14" lengthAdjust="spacing" textLength="31.9102" x="5" y="536.4482">User</text><ellipse cx="23.9551" cy="548.25" fill="#E2E2F0" rx="8" ry="8" style="stroke:#181818;stroke-width:0.5;"/><path d="M23.9551,556.25 L23.9551,583.25 M10.9551,564.25 L36.9551,564.25 M23.9551,583.25 L10.9551,598.25 M23.9551,583.25 L36.9551,598.25" fill="none" style="stroke:#181818;stroke-width:0.5;"/></g><g class="participant participant-head" data-participant="app"><rect fill="#E2E2F0" height="30.2969" rx="2.5" ry="2.5" style="stroke:#181818;stroke-width:0.5;" width="91.7246" x="123.7075" y="87.2969"/><text fill="#000000" font-family="sans-serif" font-size="14" lengthAdjust="spacing" textLength="77.7246" x="130.7075" y="107.292">Mobile App</text></g><g class="participant participant-tail" data-participant="app"><rect fill="#E2E2F0" height="30.2969" rx="2.5" ry="2.5" style="stroke:#181818;stroke-width:0.5;" width="91.7246" x="123.7075" y="523.4531"/><text fill="#000000" font-family="sans-serif" font-size="14" lengthAdjust="spacing" textLength="77.7246" x="130.7075" y="543.4482">Mobile App</text></g><g class="participant participant-head" data-participant="gw"><rect fill="#E2E2F0" height="30.2969" rx="2.5" ry="2.5" style="stroke:#181818;stroke-width:0.5;" width="102.4434" x="249.3506" y="87.2969"/><text fill="#000000" font-family="sans-serif" font-size="14" lengthAdjust="spacing" textLength="88.4434" x="256.3506" y="107.292">API Gateway</text></g><g class="participant participant-tail" data-participant="gw"><rect fill="#E2E2F0" height="30.2969" rx="2.5" ry="2.5" style="stroke:#181818;stroke-width:0.5;" width="102.4434" x="249.3506" y="523.4531"/><text fill="#000000" font-family="sans-serif" font-size="14" lengthAdjust="spacing" textLength="88.4434" x="256.3506" y="543.4482">API Gateway</text></g><g class="participant participant-head" data-participant="auth"><rect fill="#E2E2F0" height="30.2969" rx="2.5" ry="2.5" style="stroke:#181818;stroke-width:0.5;" width="103.0039" x="367.4155" y="87.2969"/><text fill="#000000" font-family="sans-serif" font-size="14" lengthAdjust="spacing" textLength="89.0039" x="374.4155" y="107.292">Auth Service</text></g><g class="participant participant-tail" data-participant="auth"><rect fill="#E2E2F0" height="30.2969" rx="2.5" ry="2.5" style="stroke:#181818;stroke-width:0.5;" width="103.0039" x="367.4155" y="523.4531"/><text fill="#000000" font-family="sans-serif" font-size="14" lengthAdjust="spacing" textLength="89.0039" x="374.4155" y="543.4482">Auth Service</text></g><g class="participant participant-head" data-participant="svc"><rect fill="#E2E2F0" height="30.2969" rx="2.5" ry="2.5" style="stroke:#181818;stroke-width:0.5;" width="79.7686" x="480.4194" y="87.2969"/><text fill="#000000" font-family="sans-serif" font-size="14" lengthAdjust="spacing" textLength="65.7686" x="487.4194" y="107.292">Service A</text></g><g class="participant participant-tail" data-participant="svc"><rect fill="#E2E2F0" height="30.2969" rx="2.5" ry="2.5" style="stroke:#181818;stroke-width:0.5;" width="79.7686" x="480.4194" y="523.4531"/><text fill="#000000" font-family="sans-serif" font-size="14" lengthAdjust="spacing" textLength="65.7686" x="487.4194" y="543.4482">Service A</text></g><g class="participant participant-head" data-participant="db"><text fill="#000000" font-family="sans-serif" font-size="14" lengthAdjust="spacing" textLength="80.7529" x="587.9854" y="115.292">PostgreSQL</text><path d="M613.3618,66.2969 C613.3618,56.2969 631.3618,56.2969 631.3618,56.2969 C631.3618,56.2969 649.3618,56.2969 649.3618,66.2969 L649.3618,92.2969 C649.3618,102.2969 631.3618,102.2969 631.3618,102.2969 C631.3618,102.2969 613.3618,102.2969 613.3618,92.2969 L613.3618,66.2969" fill="#E2E2F0" style="stroke:#181818;stroke-width:0.5;"/><path d="M613.3618,66.2969 C613.3618,76.2969 631.3618,76.2969 631.3618,76.2969 C631.3618,76.2969 649.3618,76.2969 649.3618,66.2969" fill="none" style="stroke:#181818;stroke-width:0.5;"/></g><g class="participant participant-tail" data-participant="db"><text fill="#000000" font-family="sans-serif" font-size="14" lengthAdjust="spacing" textLength="80.7529" x="587.9854" y="536.4482">PostgreSQL</text><path d="M613.3618,549.75 C613.3618,539.75 631.3618,539.75 631.3618,539.75 C631.3618,539.75 649.3618,539.75 649.3618,549.75 L649.3618,575.75 C649.3618,585.75 631.3618,585.75 631.3618,585.75 C631.3618,585.75 613.3618,585.75 613.3618,575.75 L613.3618,549.75" fill="#E2E2F0" style="stroke:#181818;stroke-width:0.5;"/><path d="M613.3618,549.75 C613.3618,559.75 631.3618,559.75 631.3618,559.75 C631.3618,559.75 649.3618,559.75 649.3618,549.75" fill="none" style="stroke:#181818;stroke-width:0.5;"/></g><g class="participant participant-head" data-participant="queue"><path d="M689.7383,92.2969 L811.54,92.2969 C816.54,92.2969 816.54,105.4453 816.54,105.4453 C816.54,105.4453 816.54,118.5938 811.54,118.5938 L689.7383,118.5938 C684.7383,118.5938 684.7383,105.4453 684.7383,105.4453 C684.7383,105.4453 684.7383,92.2969 689.7383,92.2969" fill="#E2E2F0" style="stroke:#181818;stroke-width:0.5;"/><path d="M811.54,92.2969 C806.54,92.2969 806.54,105.4453 806.54,105.4453 C806.54,118.5938 811.54,118.5938 811.54,118.5938" fill="none" style="stroke:#181818;stroke-width:0.5;"/><text fill="#000000" font-family="sans-serif" font-size="14" lengthAdjust="spacing" textLength="111.8018" x="689.7383" y="110.292">Message Queue</text></g><g class="participant participant-tail" data-participant="queue"><path d="M689.7383,523.4531 L811.54,523.4531 C816.54,523.4531 816.54,536.6016 816.54,536.6016 C816.54,536.6016 816.54,549.75 811.54,549.75 L689.7383,549.75 C684.7383,549.75 684.7383,536.6016 684.7383,536.6016 C684.7383,536.6016 684.7383,523.4531 689.7383,523.4531" fill="#E2E2F0" style="stroke:#181818;stroke-width:0.5;"/><path d="M811.54,523.4531 C806.54,523.4531 806.54,536.6016 806.54,536.6016 C806.54,549.75 811.54,549.75 811.54,549.75" fill="none" style="stroke:#181818;stroke-width:0.5;"/><text fill="#000000" font-family="sans-serif" font-size="14" lengthAdjust="spacing" textLength="111.8018" x="689.7383" y="541.4482">Message Queue</text></g><g class="message" data-participant-1="User" data-participant-2="app"><polygon fill="#181818" points="157.5698,145.7266,167.5698,149.7266,157.5698,153.7266,161.5698,149.7266" style="stroke:#181818;stroke-width:1;"/><line style="stroke:#181818;stroke-width:1;" x1="23.9551" x2="163.5698" y1="149.7266" y2="149.7266"/><text fill="#000000" font-family="sans-serif" font-size="13" lengthAdjust="spacing" textLength="96.3765" x="48.5742" y="144.6606">Initiates action</text></g><g class="message" data-participant-1="app" data-participant-2="gw"><polygon fill="#181818" points="288.5723,174.8594,298.5723,178.8594,288.5723,182.8594,292.5723,178.8594" style="stroke:#181818;stroke-width:1;"/><line style="stroke:#181818;stroke-width:1;" x1="169.5698" x2="294.5723" y1="178.8594" y2="178.8594"/><text fill="#000000" font-family="sans-serif" font-size="13" lengthAdjust="spacing" textLength="107.0024" x="181.5698" y="173.7935">POST /api/action</text></g><g class="message" data-participant-1="gw" data-participant-2="auth"><polygon fill="#181818" points="406.9175,203.9922,416.9175,207.9922,406.9175,211.9922,410.9175,207.9922" style="stroke:#181818;stroke-width:1;"/><line style="stroke:#181818;stroke-width:1;" x1="300.5723" x2="412.9175" y1="207.9922" y2="207.9922"/><text fill="#000000" font-family="sans-serif" font-size="13" lengthAdjust="spacing" textLength="94.3452" x="312.5723" y="202.9263">Validate token</text></g><g class="message" data-participant-1="auth" data-participant-2="gw"><polygon fill="#181818" points="311.5723,233.125,301.5723,237.125,311.5723,241.125,307.5723,237.125" style="stroke:#181818;stroke-width:1;"/><line style="stroke:#181818;stroke-width:1;stroke-dasharray:2,2;" x1="305.5723" x2="417.9175" y1="237.125" y2="237.125"/><text fill="#000000" font-family="sans-serif" font-size="13" lengthAdjust="spacing" textLength="47.7026" x="335.8936" y="232.0591">200 OK</text></g><g class="message" data-participant-1="gw" data-participant-2="svc"><polygon fill="#181818" points="508.3037,262.2578,518.3037,266.2578,508.3037,270.2578,512.3037,266.2578" style="stroke:#181818;stroke-width:1;"/><line style="stroke:#181818;stroke-width:1;" x1="300.5723" x2="514.3037" y1="266.2578" y2="266.2578"/><text fill="#000000" font-family="sans-serif" font-size="13" lengthAdjust="spacing" textLength="103.6636" x="358.6062" y="261.1919">Process request</text></g><g class="message" data-participant-1="svc" data-participant-2="db"><polygon fill="#181818" points="619.3618,291.3906,629.3618,295.3906,619.3618,299.3906,623.3618,295.3906" style="stroke:#181818;stroke-width:1;"/><line style="stroke:#181818;stroke-width:1;" x1="520.3037" x2="625.3618" y1="295.3906" y2="295.3906"/><text fill="#000000" font-family="sans-serif" font-size="13" lengthAdjust="spacing" textLength="87.0581" x="532.3037" y="290.3247">Query / Write</text></g><g class="message" data-participant-1="db" data-participant-2="svc"><polygon fill="#181818" points="531.3037,320.5234,521.3037,324.5234,531.3037,328.5234,527.3037,324.5234" style="stroke:#181818;stroke-width:1;"/><line style="stroke:#181818;stroke-width:1;stroke-dasharray:2,2;" x1="525.3037" x2="630.3618" y1="324.5234" y2="324.5234"/><text fill="#000000" font-family="sans-serif" font-size="13" lengthAdjust="spacing" textLength="40.752" x="555.4568" y="319.4575">Result</text></g><g class="message" data-participant-1="svc" data-participant-2="queue"><polygon fill="#181818" points="738.6392,349.6563,748.6392,353.6563,738.6392,357.6563,742.6392,353.6563" style="stroke:#181818;stroke-width:1;"/><line style="stroke:#181818;stroke-width:1;" x1="520.3037" x2="744.6392" y1="353.6563" y2="353.6563"/><text fill="#000000" font-family="sans-serif" font-size="13" lengthAdjust="spacing" textLength="122.8398" x="574.0515" y="348.5903">Emit event (async)</text></g><g class="message" data-participant-1="svc" data-participant-2="gw"><polygon fill="#181818" points="311.5723,378.7891,301.5723,382.7891,311.5723,386.7891,307.5723,382.7891" style="stroke:#181818;stroke-width:1;"/><line style="stroke:#181818;stroke-width:1;stroke-dasharray:2,2;" x1="305.5723" x2="519.3037" y1="382.7891" y2="382.7891"/><text fill="#000000" font-family="sans-serif" font-size="13" lengthAdjust="spacing" textLength="91.9648" x="364.4556" y="377.7231">200 Response</text></g><g class="message" data-participant-1="gw" data-participant-2="app"><polygon fill="#181818" points="180.5698,407.9219,170.5698,411.9219,180.5698,415.9219,176.5698,411.9219" style="stroke:#181818;stroke-width:1;"/><line style="stroke:#181818;stroke-width:1;stroke-dasharray:2,2;" x1="174.5698" x2="299.5723" y1="411.9219" y2="411.9219"/><text fill="#000000" font-family="sans-serif" font-size="13" lengthAdjust="spacing" textLength="73.2393" x="198.4514" y="406.856">JSON result</text></g><g class="message" data-participant-1="app" data-participant-2="User"><polygon fill="#181818" points="34.9551,437.0547,24.9551,441.0547,34.9551,445.0547,30.9551,441.0547" style="stroke:#181818;stroke-width:1;"/><line style="stroke:#181818;stroke-width:1;stroke-dasharray:2,2;" x1="28.9551" x2="168.5698" y1="441.0547" y2="441.0547"/><text fill="#000000" font-family="sans-serif" font-size="13" lengthAdjust="spacing" textLength="121.6147" x="35.9551" y="435.9888">Show confirmation</text></g><path d="M755,454.0547 L755,509.0547 L926,509.0547 L926,464.0547 L916,454.0547 L755,454.0547" fill="#FEFFDD" style="stroke:#181818;stroke-width:0.5;"/><path d="M916,454.0547 L916,464.0547 L926,464.0547 L916,454.0547" fill="#FEFFDD" style="stroke:#181818;stroke-width:0.5;"/><text fill="#000000" font-family="sans-serif" font-size="13" lengthAdjust="spacing" textLength="117.603" x="761" y="471.1216">Async processing:</text><text fill="#000000" font-family="sans-serif" font-size="13" lengthAdjust="spacing" textLength="150.3823" x="761" y="486.2544">notifications, analytics,</text><text fill="#000000" font-family="sans-serif" font-size="13" lengthAdjust="spacing" textLength="94.8975" x="761" y="501.3872">3rd-party sync</text><!--SRC=[NL7DZjCm4BxxAKOzWRHLLt3B0IbQ0LfWQPV0Sa0S9iuq7JMrZJrfb1iFmHFo98pTB68vUhwV-JvFEh8B6F44BTfZ7_tekXi_-0ZJWOLC-eid-Z6IitH7AM5FzS2z0qjEA1eZB0F1jo-9u0OJVOVVFtz1ioZWpU0dOz2AsYeb6dKKjXpG2QpkVCighaDO0IR049xYzUuMtgBGX7CXzDD_-2W7tHNFREdYe8Edb0M5kk3fR4s7WgqcXTNE9-aZDVSV2jYrHbEF2Yn5uJu_2rO0Ot85MB_AIIkuTIoiwNIj5VREw3I3_LJ1RjjyXWq6tYnOFnMTvglW0GVM50JYZwIot6Az25zSNyFslLducbUzehSQ26B-r2H6XndhsYe7Z3Diu6lC5-lQObD4doYDWvX7SibVmUiJ2z1PJmVFCCtEFhyG_bckmk1TefBWiUgxPljHznVBqbA1_1SLD0S_WVLkp_64fQbnNgj5xWy2Vh_y742Trq6uT67NLpfJ9k_P5bsw0dGup7gwTANOozYjyoLdo493hijq-WC0]--></g></svg>