<svg xmlns="http://www.w3.org/2000/svg" xmlns:xlink="http://www.w3.org/1999/xlink" contentStyleType="text/css" data-diagram-type="DESCRIPTION" height="379px" preserveAspectRatio="none" style="width:1169px;height:379px;background:#FFFFFF;" version="1.1" viewBox="0 0 1169 379" width="1169px" zoomAndPan="magnify"><defs/><g><!--cluster sources--><g class="cluster" data-entity="sources" data-source-line="6" data-uid="ent0002" id="cluster_sources"><rect fill="#E8F4FD" height="263.53" rx="4" ry="4" style="stroke:#181818;stroke-width:1;" width="344" x="7" y="109.53"/><text fill="#000000" font-family="Arial" font-size="13" font-weight="bold" lengthAdjust="spacing" textLength="97.2969" x="130.3516" y="123.5969">Data Sources</text></g><!--cluster channels--><g class="cluster" data-entity="channels" data-source-line="14" data-uid="ent0007" id="cluster_channels"><rect fill="#FFF2CC" height="164.26" rx="4" ry="4" style="stroke:#181818;stroke-width:1;" width="316" x="617" y="79.53"/><text fill="#000000" font-family="Arial" font-size="13" font-weight="bold" lengthAdjust="spacing" textLength="94.2246" x="727.8877" y="93.5969">Personalised</text><text fill="#000000" font-family="Arial" font-size="13" font-weight="bold" lengthAdjust="spacing" textLength="67.0884" x="741.4558" y="108.7297">Channels</text></g><!--cluster outcome--><g class="cluster" data-entity="outcome" data-source-line="19" data-uid="ent0010" id="cluster_outcome"><rect fill="#F8CECC" height="164.26" rx="4" ry="4" style="stroke:#181818;stroke-width:1;" width="190" x="973" y="79.53"/><text fill="#000000" font-family="Arial" font-size="13" font-weight="bold" lengthAdjust="spacing" textLength="64.9048" x="1035.5476" y="93.5969">Business</text><text fill="#000000" font-family="Arial" font-size="13" font-weight="bold" lengthAdjust="spacing" textLength="65.5205" x="1035.2397" y="108.7297">Outcome</text></g><!--entity web--><g class="entity" data-entity="web" data-source-line="7" data-uid="ent0003" id="entity_web"><rect fill="#F1F1F1" height="50.2656" rx="4" ry="4" style="stroke:#181818;stroke-width:0.5;" width="149.0542" x="50.47" y="169.53"/><text fill="#000000" font-family="Arial" font-size="13" lengthAdjust="spacing" textLength="65.9331" x="60.47" y="191.5969">Web Shop</text><text fill="#000000" font-family="Arial" font-size="13" lengthAdjust="spacing" textLength="129.0542" x="60.47" y="206.7297">(15 years of orders)</text></g><!--entity mobile--><g class="entity" data-entity="mobile" data-source-line="8" data-uid="ent0004" id="entity_mobile"><rect fill="#F1F1F1" height="50.2656" rx="4" ry="4" style="stroke:#181818;stroke-width:0.5;" width="92.1729" x="234.91" y="169.53"/><text fill="#000000" font-family="Arial" font-size="13" lengthAdjust="spacing" textLength="72.1729" x="244.91" y="191.5969">Mobile App</text><text fill="#000000" font-family="Arial" font-size="13" lengthAdjust="spacing" textLength="68.8911" x="244.91" y="206.7297">(2M users)</text></g><!--entity suppliers--><g class="entity" data-entity="suppliers" data-source-line="9" data-uid="ent0005" id="entity_suppliers"><rect fill="#F1F1F1" height="50.2656" rx="4" ry="4" style="stroke:#181818;stroke-width:0.5;" width="92.9346" x="78.53" y="298.79"/><text fill="#000000" font-family="Arial" font-size="13" lengthAdjust="spacing" textLength="72.3506" x="88.53" y="320.8569">Wholesaler</text><text fill="#000000" font-family="Arial" font-size="13" lengthAdjust="spacing" textLength="72.9346" x="88.53" y="335.9897">Catalogues</text></g><!--entity email--><g class="entity" data-entity="email" data-source-line="15" data-uid="ent0008" id="entity_email"><rect fill="#F1F1F1" height="50.2656" rx="4" ry="4" style="stroke:#181818;stroke-width:0.5;" width="115.291" x="793.35" y="169.53"/><text fill="#000000" font-family="Arial" font-size="13" lengthAdjust="spacing" textLength="87.8833" x="803.35" y="191.5969">Weekly Email</text><text fill="#000000" font-family="Arial" font-size="13" lengthAdjust="spacing" textLength="95.291" x="803.35" y="206.7297">(existing infra)</text></g><!--entity push--><g class="entity" data-entity="push" data-source-line="16" data-uid="ent0009" id="entity_push"><rect fill="#F1F1F1" height="50.2656" rx="4" ry="4" style="stroke:#181818;stroke-width:0.5;" width="97.8667" x="660.07" y="169.53"/><text fill="#000000" font-family="Arial" font-size="13" lengthAdjust="spacing" textLength="77.8667" x="670.07" y="191.5969">Mobile Push</text><text fill="#000000" font-family="Arial" font-size="13" lengthAdjust="spacing" textLength="61.3628" x="670.07" y="206.7297">(Phase 3)</text></g><!--entity turnover--><g class="entity" data-entity="turnover" data-source-line="20" data-uid="ent0011" id="entity_turnover"><rect fill="#F1F1F1" height="50.2656" rx="4" ry="4" style="stroke:#181818;stroke-width:0.5;" width="122.6733" x="1016.66" y="169.53"/><text fill="#000000" font-family="Arial" font-size="13" lengthAdjust="spacing" textLength="102.6733" x="1026.66" y="191.5969">+20% Turnover</text><text fill="#000000" font-family="Arial" font-size="13" lengthAdjust="spacing" textLength="42.5991" x="1026.66" y="206.7297">Target</text></g><!--entity platform--><g class="entity" data-entity="platform" data-source-line="12" data-uid="ent0006" id="entity_platform"><rect fill="#D5E8D4" height="65.3984" rx="4" ry="4" style="stroke:#181818;stroke-width:0.5;" width="95.6387" x="375.18" y="161.96"/><text fill="#000000" font-family="Arial" font-size="13" lengthAdjust="spacing" textLength="63.1465" x="385.18" y="184.0269">Customer</text><text fill="#000000" font-family="Arial" font-size="13" lengthAdjust="spacing" textLength="75.6387" x="385.18" y="199.1597">Intelligence</text><text fill="#000000" font-family="Arial" font-size="13" lengthAdjust="spacing" textLength="55.0532" x="385.18" y="214.2925">Platform</text></g><!--link sources to platform--><g class="link" data-entity-1="sources" data-entity-2="platform" data-source-line="23" data-uid="lnk12" id="link_sources_platform"><path d="M10.4194,109.3631 C10.4602,109.1477 10.5014,108.9325 10.5433,108.7174 C11.2129,105.276 12.0282,101.8693 13.0091,98.528 C16.9325,85.1625 23.505,72.8425 34,63.53 C98.83,6 142.33,59.19 229,60.38 C279.68,61.08 299.15,38.11 343,63.53 C379.69,84.79 399.6129,124.59 411.0029,155.97" fill="none" id="sources-to-platform" style="stroke:#555555;stroke-width:1;"/><polygon fill="#555555" points="413.05,161.61,413.7393,151.7853,411.3441,156.91,406.2193,154.5148,413.05,161.61" style="stroke:#555555;stroke-width:1;"/><text fill="#000000" font-family="Arial" font-size="13" lengthAdjust="spacing" textLength="45.8047" x="172.1118" y="36.5969">Unified</text><text fill="#000000" font-family="Arial" font-size="13" lengthAdjust="spacing" textLength="66.0283" x="162" y="51.7297">data layer</text></g><!--link platform to channels--><g class="link" data-entity-1="platform" data-entity-2="channels" data-source-line="24" data-uid="lnk13" id="link_platform_channels"><path d="M471.13,194.66 C499.6,194.66 535.88,194.66 566.06,194.66 C581.15,194.66 594.715,194.66 605.0163,194.66 C607.5916,194.66 609.9629,194.66 612.1031,194.66 C613.1732,194.66 614.1855,194.66 615.1366,194.66 C615.6121,194.66 616.0724,194.66 616.5169,194.66 C616.6281,194.66 610.7382,194.66 610.8474,194.66" fill="none" id="platform-to-channels" style="stroke:#555555;stroke-width:1;"/><polygon fill="#555555" points="616.8474,194.66,607.8474,190.66,611.8474,194.66,607.8474,198.66,616.8474,194.66" style="stroke:#555555;stroke-width:1;"/><text fill="#000000" font-family="Arial" font-size="13" lengthAdjust="spacing" textLength="47.6836" x="524.3389" y="172.7269">Weekly</text><text fill="#000000" font-family="Arial" font-size="13" lengthAdjust="spacing" textLength="117.9014" x="489.23" y="187.8597">recommendations</text></g><!--link channels to outcome--><g class="link" data-entity-1="channels" data-entity-2="outcome" data-source-line="25" data-uid="lnk14" id="link_channels_outcome"><path d="M631.0578,79.5292 C634.4989,73.6097 638.76,68.195 644,63.53 C681.53,30.12 706.76,61.08 757,60.38 C831.67,59.35 863.54,21.1 925,63.53 C949.855,80.69 963.7375,111.275 971.4613,138.5925 C971.944,140.2998 970.8942,136.1871 971.33,137.8649" fill="none" id="channels-to-outcome" style="stroke:#555555;stroke-width:1;"/><polygon fill="#555555" points="972.8385,143.6722,974.4473,133.9556,971.5814,138.8328,966.7043,135.9669,972.8385,143.6722" style="stroke:#555555;stroke-width:1;"/><text fill="#000000" font-family="Arial" font-size="13" lengthAdjust="spacing" textLength="90.9683" x="758" y="36.5969">Higher basket</text><text fill="#000000" font-family="Arial" font-size="13" lengthAdjust="spacing" textLength="52.5142" x="777.2271" y="51.7297">per visit</text></g><!--SRC=[RLB1Rjim3BtxAuW60pOC1TQq0O8S1cHEZEtGBLWwxE8Bup2s49aqHAbTDkpV9zk9bxJrHHGV7_duBDqRRj1X3LlQOR0-4_PhyvlWvZRHry2lM1FCdK5xXi-TawTKh3WOJRhl3FmkWRUfE2O7qoHnL7ZaqX9SBT0Zh2MuWlGAK47x64RBQNQNBU1F0d1M_vCsiAwaoVdjpGGEX4v1TY1kIqxVTHsUQ7F9kPUDYUUyQLdZUmWwrDOTz6n49POKBRcSqoZFIXbEuaBJM1FPoT-BBTAWNkgMy8KzMMjAue9oNbdqEt5rHswE5nWj9ilfukwYmoes5KPhbBPnR8NCPFkXnV42eopBncdwqXBQsmCiQpGsBaY_Z7h39HZUEUpNf1PxrPHLq2gILXKgmMrVtSJSimK_1JLCgZb_2xw8gtQ5qiTHs3HTlXJsVlpX3Jm4n_BOMlE0hYJV4VqnsKuv_V1hPyhANt_yxzCCVh3PcTQGRVjCB1uYPO07mc3G37elSeugfAwfvHbXJOQIWNJIFeFFCHFVvGPrJpxd9iQFHet_1m00]--></g></svg>