<svg xmlns="http://www.w3.org/2000/svg" xmlns:xlink="http://www.w3.org/1999/xlink" contentStyleType="text/css" data-diagram-type="GANTT" height="926px" preserveAspectRatio="none" style="width:1832px;height:926px;background:#FFFFFF;" version="1.1" viewBox="0 0 1832 926" width="1832px" zoomAndPan="magnify"><title>Data-Driven Customer Engagement Platform &#8212; 7 months, 5 devs</title><defs/><g><g class="title" data-source-line="1"><text fill="#000000" font-family="sans-serif" font-size="14" font-weight="bold" lengthAdjust="spacing" textLength="512.3945" x="591.3027" y="22.9951">Data-Driven Customer Engagement Platform &#8212; 7 months, 5 devs</text></g><text fill="#000000" font-family="sans-serif" font-size="10" lengthAdjust="spacing" textLength="12.7246" x="37" y="62.5791">41</text><text fill="#000000" font-family="sans-serif" font-size="10" lengthAdjust="spacing" textLength="12.7246" x="93" y="62.5791">42</text><text fill="#000000" font-family="sans-serif" font-size="10" lengthAdjust="spacing" textLength="12.7246" x="149" y="62.5791">43</text><text fill="#000000" font-family="sans-serif" font-size="10" lengthAdjust="spacing" textLength="12.7246" x="205" y="62.5791">44</text><text fill="#000000" font-family="sans-serif" font-size="10" lengthAdjust="spacing" textLength="12.7246" x="261" y="62.5791">45</text><text fill="#000000" font-family="sans-serif" font-size="10" lengthAdjust="spacing" textLength="12.7246" x="317" y="62.5791">46</text><text fill="#000000" font-family="sans-serif" font-size="10" lengthAdjust="spacing" textLength="12.7246" x="373" y="62.5791">47</text><text fill="#000000" font-family="sans-serif" font-size="10" lengthAdjust="spacing" textLength="12.7246" x="429" y="62.5791">48</text><text fill="#000000" font-family="sans-serif" font-size="10" lengthAdjust="spacing" textLength="12.7246" x="485" y="62.5791">49</text><text fill="#000000" font-family="sans-serif" font-size="10" lengthAdjust="spacing" textLength="12.7246" x="541" y="62.5791">50</text><text fill="#000000" font-family="sans-serif" font-size="10" lengthAdjust="spacing" textLength="12.7246" x="597" y="62.5791">51</text><text fill="#000000" font-family="sans-serif" font-size="10" lengthAdjust="spacing" textLength="12.7246" x="653" y="62.5791">52</text><text fill="#000000" font-family="sans-serif" font-size="10" lengthAdjust="spacing" textLength="12.7246" x="709" y="62.5791">53</text><text fill="#000000" font-family="sans-serif" font-size="10" lengthAdjust="spacing" textLength="6.3623" x="765" y="62.5791">1</text><text fill="#000000" font-family="sans-serif" font-size="10" lengthAdjust="spacing" textLength="6.3623" x="821" y="62.5791">2</text><text fill="#000000" font-family="sans-serif" font-size="10" lengthAdjust="spacing" textLength="6.3623" x="877" y="62.5791">3</text><text fill="#000000" font-family="sans-serif" font-size="10" lengthAdjust="spacing" textLength="6.3623" x="933" y="62.5791">4</text><text fill="#000000" font-family="sans-serif" font-size="10" lengthAdjust="spacing" textLength="6.3623" x="989" y="62.5791">5</text><text fill="#000000" font-family="sans-serif" font-size="10" lengthAdjust="spacing" textLength="6.3623" x="1045" y="62.5791">6</text><text fill="#000000" font-family="sans-serif" font-size="10" lengthAdjust="spacing" textLength="6.3623" x="1101" y="62.5791">7</text><text fill="#000000" font-family="sans-serif" font-size="10" lengthAdjust="spacing" textLength="6.3623" x="1157" y="62.5791">8</text><text fill="#000000" font-family="sans-serif" font-size="10" lengthAdjust="spacing" textLength="6.3623" x="1213" y="62.5791">9</text><text fill="#000000" font-family="sans-serif" font-size="10" lengthAdjust="spacing" textLength="12.7246" x="1269" y="62.5791">10</text><text fill="#000000" font-family="sans-serif" font-size="10" lengthAdjust="spacing" textLength="12.7246" x="1325" y="62.5791">11</text><text fill="#000000" font-family="sans-serif" font-size="10" lengthAdjust="spacing" textLength="12.7246" x="1381" y="62.5791">12</text><text fill="#000000" font-family="sans-serif" font-size="10" lengthAdjust="spacing" textLength="12.7246" x="1437" y="62.5791">13</text><text fill="#000000" font-family="sans-serif" font-size="10" lengthAdjust="spacing" textLength="12.7246" x="1493" y="62.5791">14</text><text fill="#000000" font-family="sans-serif" font-size="10" lengthAdjust="spacing" textLength="12.7246" x="1549" y="62.5791">15</text><text fill="#000000" font-family="sans-serif" font-size="10" lengthAdjust="spacing" textLength="12.7246" x="1605" y="62.5791">16</text><text fill="#000000" font-family="sans-serif" font-size="10" lengthAdjust="spacing" textLength="12.7246" x="1661" y="62.5791">17</text><line style="stroke:#C0C0C0;stroke-width:1;" x1="32" x2="32" y1="53.2969" y2="706.4688"/><line style="stroke:#C0C0C0;stroke-width:1;" x1="88" x2="88" y1="53.2969" y2="706.4688"/><line style="stroke:#C0C0C0;stroke-width:1;" x1="144" x2="144" y1="53.2969" y2="706.4688"/><line style="stroke:#C0C0C0;stroke-width:1;" x1="200" x2="200" y1="53.2969" y2="706.4688"/><line style="stroke:#C0C0C0;stroke-width:1;" x1="256" x2="256" y1="53.2969" y2="706.4688"/><line style="stroke:#C0C0C0;stroke-width:1;" x1="312" x2="312" y1="53.2969" y2="706.4688"/><line style="stroke:#C0C0C0;stroke-width:1;" x1="368" x2="368" y1="53.2969" y2="706.4688"/><line style="stroke:#C0C0C0;stroke-width:1;" x1="424" x2="424" y1="53.2969" y2="706.4688"/><line style="stroke:#C0C0C0;stroke-width:1;" x1="480" x2="480" y1="53.2969" y2="706.4688"/><line style="stroke:#C0C0C0;stroke-width:1;" x1="536" x2="536" y1="53.2969" y2="706.4688"/><line style="stroke:#C0C0C0;stroke-width:1;" x1="592" x2="592" y1="53.2969" y2="706.4688"/><line style="stroke:#C0C0C0;stroke-width:1;" x1="648" x2="648" y1="53.2969" y2="706.4688"/><line style="stroke:#C0C0C0;stroke-width:1;" x1="704" x2="704" y1="53.2969" y2="706.4688"/><line style="stroke:#C0C0C0;stroke-width:1;" x1="760" x2="760" y1="53.2969" y2="706.4688"/><line style="stroke:#C0C0C0;stroke-width:1;" x1="816" x2="816" y1="53.2969" y2="706.4688"/><line style="stroke:#C0C0C0;stroke-width:1;" x1="872" x2="872" y1="53.2969" y2="706.4688"/><line style="stroke:#C0C0C0;stroke-width:1;" x1="928" x2="928" y1="53.2969" y2="706.4688"/><line style="stroke:#C0C0C0;stroke-width:1;" x1="984" x2="984" y1="53.2969" y2="706.4688"/><line style="stroke:#C0C0C0;stroke-width:1;" x1="1040" x2="1040" y1="53.2969" y2="706.4688"/><line style="stroke:#C0C0C0;stroke-width:1;" x1="1096" x2="1096" y1="53.2969" y2="706.4688"/><line style="stroke:#C0C0C0;stroke-width:1;" x1="1152" x2="1152" y1="53.2969" y2="706.4688"/><line style="stroke:#C0C0C0;stroke-width:1;" x1="1208" x2="1208" y1="53.2969" y2="706.4688"/><line style="stroke:#C0C0C0;stroke-width:1;" x1="1264" x2="1264" y1="53.2969" y2="706.4688"/><line style="stroke:#C0C0C0;stroke-width:1;" x1="1320" x2="1320" y1="53.2969" y2="706.4688"/><line style="stroke:#C0C0C0;stroke-width:1;" x1="1376" x2="1376" y1="53.2969" y2="706.4688"/><line style="stroke:#C0C0C0;stroke-width:1;" x1="1432" x2="1432" y1="53.2969" y2="706.4688"/><line style="stroke:#C0C0C0;stroke-width:1;" x1="1488" x2="1488" y1="53.2969" y2="706.4688"/><line style="stroke:#C0C0C0;stroke-width:1;" x1="1544" x2="1544" y1="53.2969" y2="706.4688"/><line style="stroke:#C0C0C0;stroke-width:1;" x1="1600" x2="1600" y1="53.2969" y2="706.4688"/><line style="stroke:#C0C0C0;stroke-width:1;" x1="1656" x2="1656" y1="53.2969" y2="706.4688"/><line style="stroke:#C0C0C0;stroke-width:1;" x1="1696" x2="1696" y1="53.2969" y2="706.4688"/><line style="stroke:#C0C0C0;stroke-width:1;" x1="0" x2="0" y1="37.2969" y2="53.2969"/><line style="stroke:#C0C0C0;stroke-width:1;" x1="248" x2="248" y1="37.2969" y2="53.2969"/><text fill="#000000" font-family="sans-serif" font-size="12" font-weight="bold" lengthAdjust="spacing" textLength="60.627" x="93.6865" y="48.4355">Oct 2026</text><line style="stroke:#C0C0C0;stroke-width:1;" x1="488" x2="488" y1="37.2969" y2="53.2969"/><text fill="#000000" font-family="sans-serif" font-size="12" font-weight="bold" lengthAdjust="spacing" textLength="63.6855" x="336.1572" y="48.4355">Nov 2026</text><line style="stroke:#C0C0C0;stroke-width:1;" x1="736" x2="736" y1="37.2969" y2="53.2969"/><text fill="#000000" font-family="sans-serif" font-size="12" font-weight="bold" lengthAdjust="spacing" textLength="62.7891" x="580.6055" y="48.4355">Dec 2026</text><line style="stroke:#C0C0C0;stroke-width:1;" x1="984" x2="984" y1="37.2969" y2="53.2969"/><text fill="#000000" font-family="sans-serif" font-size="12" font-weight="bold" lengthAdjust="spacing" textLength="58.6816" x="830.6592" y="48.4355">Jan 2027</text><line style="stroke:#C0C0C0;stroke-width:1;" x1="1208" x2="1208" y1="37.2969" y2="53.2969"/><text fill="#000000" font-family="sans-serif" font-size="12" font-weight="bold" lengthAdjust="spacing" textLength="62.502" x="1064.749" y="48.4355">Feb 2027</text><line style="stroke:#C0C0C0;stroke-width:1;" x1="1456" x2="1456" y1="37.2969" y2="53.2969"/><text fill="#000000" font-family="sans-serif" font-size="12" font-weight="bold" lengthAdjust="spacing" textLength="63.5332" x="1300.2334" y="48.4355">Mar 2027</text><line style="stroke:#C0C0C0;stroke-width:1;" x1="1696" x2="1696" y1="37.2969" y2="53.2969"/><text fill="#000000" font-family="sans-serif" font-size="12" font-weight="bold" lengthAdjust="spacing" textLength="61.3711" x="1545.3145" y="48.4355">Apr 2027</text><line style="stroke:#C0C0C0;stroke-width:1;" x1="0" x2="1696" y1="37.2969" y2="37.2969"/><line style="stroke:#C0C0C0;stroke-width:1;" x1="0" x2="1696" y1="53.2969" y2="53.2969"/><line style="stroke:#C0C0C0;stroke-width:1;" x1="0" x2="1696" y1="64.2969" y2="64.2969"/><rect fill="#F0F0F0" height="23.9688" style="stroke:none;stroke-width:1;" width="1696" x="0" y="69.2969"/><line style="stroke:#181818;stroke-width:1;" x1="0" x2="5" y1="81.2813" y2="81.2813"/><line style="stroke:#181818;stroke-width:1;" x1="81.2754" x2="1695" y1="81.2813" y2="81.2813"/><rect fill="#E0E0E0" height="12.8047" style="stroke:none;stroke-width:1;" width="116" x="2" y="100.2656"/><rect fill="none" height="12.8047" style="stroke:#616161;stroke-width:1;" width="116" x="2" y="100.2656"/><rect fill="#F0F0F0" height="23.9688" style="stroke:none;stroke-width:1;" width="1696" x="0" y="120.0703"/><line style="stroke:#181818;stroke-width:1;" x1="0" x2="5" y1="132.0547" y2="132.0547"/><line style="stroke:#181818;stroke-width:1;" x1="187.4824" x2="1695" y1="132.0547" y2="132.0547"/><rect fill="#BBDEFB" height="12.8047" style="stroke:none;stroke-width:1;" width="188" x="58" y="151.0391"/><rect fill="none" height="12.8047" style="stroke:#1565C0;stroke-width:1;" width="188" x="58" y="151.0391"/><rect fill="#F0F0F0" height="23.9688" style="stroke:none;stroke-width:1;" width="1696" x="0" y="170.8438"/><line style="stroke:#181818;stroke-width:1;" x1="0" x2="5" y1="182.8281" y2="182.8281"/><line style="stroke:#181818;stroke-width:1;" x1="182.918" x2="1695" y1="182.8281" y2="182.8281"/><rect fill="#B3E5FC" height="12.8047" style="stroke:none;stroke-width:1;" width="252" x="114" y="201.8125"/><rect fill="none" height="12.8047" style="stroke:#0277BD;stroke-width:1;" width="252" x="114" y="201.8125"/><rect fill="#B3E5FC" height="12.8047" style="stroke:none;stroke-width:1;" width="244" x="250" y="218.6172"/><rect fill="none" height="12.8047" style="stroke:#0277BD;stroke-width:1;" width="244" x="250" y="218.6172"/><rect fill="#F0F0F0" height="23.9688" style="stroke:none;stroke-width:1;" width="1696" x="0" y="238.4219"/><line style="stroke:#181818;stroke-width:1;" x1="0" x2="5" y1="250.4063" y2="250.4063"/><line style="stroke:#181818;stroke-width:1;" x1="99.6973" x2="1695" y1="250.4063" y2="250.4063"/><rect fill="#B2EBF2" height="12.8047" style="stroke:none;stroke-width:1;" width="244" x="362" y="269.3906"/><rect fill="none" height="12.8047" style="stroke:#00838F;stroke-width:1;" width="244" x="362" y="269.3906"/><rect fill="#F0F0F0" height="23.9688" style="stroke:none;stroke-width:1;" width="1696" x="0" y="289.1953"/><line style="stroke:#181818;stroke-width:1;" x1="0" x2="5" y1="301.1797" y2="301.1797"/><line style="stroke:#181818;stroke-width:1;" x1="136.5469" x2="1695" y1="301.1797" y2="301.1797"/><rect fill="#C8E6C9" height="12.8047" style="stroke:none;stroke-width:1;" width="364" x="490" y="320.1641"/><rect fill="none" height="12.8047" style="stroke:#2E7D32;stroke-width:1;" width="364" x="490" y="320.1641"/><rect fill="#C8E6C9" height="12.8047" style="stroke:none;stroke-width:1;" width="364" x="602" y="336.9688"/><rect fill="none" height="12.8047" style="stroke:#2E7D32;stroke-width:1;" width="364" x="602" y="336.9688"/><rect fill="#F0F0F0" height="23.9688" style="stroke:none;stroke-width:1;" width="1696" x="0" y="356.7734"/><line style="stroke:#181818;stroke-width:1;" x1="0" x2="5" y1="368.7578" y2="368.7578"/><line style="stroke:#181818;stroke-width:1;" x1="110.9883" x2="1695" y1="368.7578" y2="368.7578"/><rect fill="#FFF9C4" height="12.8047" style="stroke:none;stroke-width:1;" width="348" x="738" y="387.7422"/><rect fill="none" height="12.8047" style="stroke:#F57F17;stroke-width:1;" width="348" x="738" y="387.7422"/><rect fill="#FFF9C4" height="12.8047" style="stroke:none;stroke-width:1;" width="164" x="986" y="404.5469"/><rect fill="none" height="12.8047" style="stroke:#F57F17;stroke-width:1;" width="164" x="986" y="404.5469"/><rect fill="#F0F0F0" height="23.9688" style="stroke:none;stroke-width:1;" width="1696" x="0" y="424.3516"/><line style="stroke:#181818;stroke-width:1;" x1="0" x2="5" y1="436.3359" y2="436.3359"/><line style="stroke:#181818;stroke-width:1;" x1="154.3301" x2="1695" y1="436.3359" y2="436.3359"/><rect fill="#FFE0B2" height="12.8047" style="stroke:none;stroke-width:1;" width="364" x="738" y="455.3203"/><rect fill="none" height="12.8047" style="stroke:#E65100;stroke-width:1;" width="364" x="738" y="455.3203"/><rect fill="#F0F0F0" height="23.9688" style="stroke:none;stroke-width:1;" width="1696" x="0" y="475.125"/><line style="stroke:#181818;stroke-width:1;" x1="0" x2="5" y1="487.1094" y2="487.1094"/><line style="stroke:#181818;stroke-width:1;" x1="154.6465" x2="1695" y1="487.1094" y2="487.1094"/><rect fill="#F8BBD0" height="12.8047" style="stroke:none;stroke-width:1;" width="228" x="1098" y="506.0938"/><rect fill="none" height="12.8047" style="stroke:#AD1457;stroke-width:1;" width="228" x="1098" y="506.0938"/><rect fill="#F8BBD0" height="12.8047" style="stroke:none;stroke-width:1;" width="228" x="1210" y="522.8984"/><rect fill="none" height="12.8047" style="stroke:#AD1457;stroke-width:1;" width="228" x="1210" y="522.8984"/><rect fill="#F8BBD0" height="12.8047" style="stroke:none;stroke-width:1;" width="228" x="1322" y="539.7031"/><rect fill="none" height="12.8047" style="stroke:#AD1457;stroke-width:1;" width="228" x="1322" y="539.7031"/><rect fill="#F0F0F0" height="23.9688" style="stroke:none;stroke-width:1;" width="1696" x="0" y="559.5078"/><line style="stroke:#181818;stroke-width:1;" x1="0" x2="5" y1="571.4922" y2="571.4922"/><line style="stroke:#181818;stroke-width:1;" x1="80.5254" x2="1695" y1="571.4922" y2="571.4922"/><rect fill="#E1BEE7" height="12.8047" style="stroke:none;stroke-width:1;" width="236" x="1458" y="590.4766"/><rect fill="none" height="12.8047" style="stroke:#6A1B9A;stroke-width:1;" width="236" x="1458" y="590.4766"/><rect fill="#F0F0F0" height="23.9688" style="stroke:none;stroke-width:1;" width="1696" x="0" y="610.2813"/><line style="stroke:#181818;stroke-width:1;" x1="0" x2="5" y1="622.2656" y2="622.2656"/><line style="stroke:#181818;stroke-width:1;" x1="88.2539" x2="1695" y1="622.2656" y2="622.2656"/><polygon fill="#FF4500" points="116,641.25,121,646.25,116,651.25,111,646.25" style="stroke:#FF4500;stroke-width:1;"/><polygon fill="#FF4500" points="492,658.0547,497,663.0547,492,668.0547,487,663.0547" style="stroke:#FF4500;stroke-width:1;"/><polygon fill="#FF4500" points="1204,674.8594,1209,679.8594,1204,684.8594,1199,679.8594" style="stroke:#FF4500;stroke-width:1;"/><polygon fill="#FF4500" points="1692,691.6641,1697,696.6641,1692,701.6641,1687,696.6641" style="stroke:#FF4500;stroke-width:1;"/><text fill="#000000" font-family="sans-serif" font-size="12" font-weight="bold" lengthAdjust="spacing" textLength="66.2754" x="10" y="85.4355">Discovery</text><text fill="#000000" font-family="sans-serif" font-size="11" lengthAdjust="spacing" textLength="128.5249" x="122" y="110.4761">Discovery &amp; Data Audit</text><text fill="#000000" font-family="sans-serif" font-size="12" font-weight="bold" lengthAdjust="spacing" textLength="172.4824" x="10" y="136.209">Platform &amp; Infrastructure</text><text fill="#000000" font-family="sans-serif" font-size="11" lengthAdjust="spacing" textLength="132.9238" x="62" y="161.2495">Snowflake Setup &amp; Infra</text><text fill="#000000" font-family="sans-serif" font-size="12" font-weight="bold" lengthAdjust="spacing" textLength="167.918" x="10" y="186.9824">WordPress Data Pipeline</text><text fill="#000000" font-family="sans-serif" font-size="11" lengthAdjust="spacing" textLength="184.4487" x="118" y="212.0229">WordPress DB Extraction Pipeline</text><text fill="#000000" font-family="sans-serif" font-size="11" lengthAdjust="spacing" textLength="142.6885" x="254" y="228.8276">ETL Pipeline &amp; dbt Models</text><text fill="#000000" font-family="sans-serif" font-size="12" font-weight="bold" lengthAdjust="spacing" textLength="84.6973" x="10" y="254.5605">Data Quality</text><text fill="#000000" font-family="sans-serif" font-size="11" lengthAdjust="spacing" textLength="130.3833" x="366" y="279.6011">Email Validation Engine</text><text fill="#000000" font-family="sans-serif" font-size="12" font-weight="bold" lengthAdjust="spacing" textLength="121.5469" x="10" y="305.334">Intelligence Layer</text><text fill="#000000" font-family="sans-serif" font-size="11" lengthAdjust="spacing" textLength="170.7632" x="494" y="330.3745">Customer Segmentation Model</text><text fill="#000000" font-family="sans-serif" font-size="11" lengthAdjust="spacing" textLength="138.3486" x="606" y="347.1792">Recommendation Engine</text><text fill="#000000" font-family="sans-serif" font-size="12" font-weight="bold" lengthAdjust="spacing" textLength="95.9883" x="10" y="372.9121">Email Channel</text><text fill="#000000" font-family="sans-serif" font-size="11" lengthAdjust="spacing" textLength="153.9946" x="742" y="397.9526">Email Campaign Integration</text><text fill="#000000" font-family="sans-serif" font-size="11" lengthAdjust="spacing" textLength="183.7129" x="1154" y="414.7573">Campaign Testing &amp; Launch Prep</text><text fill="#000000" font-family="sans-serif" font-size="12" font-weight="bold" lengthAdjust="spacing" textLength="139.3301" x="10" y="440.4902">Analytics Dashboard</text><text fill="#000000" font-family="sans-serif" font-size="11" lengthAdjust="spacing" textLength="178.9326" x="742" y="465.5308">Analytics Dashboard (Metabase)</text><text fill="#000000" font-family="sans-serif" font-size="12" font-weight="bold" lengthAdjust="spacing" textLength="139.6465" x="10" y="491.2637">Mobile &amp; Wholesaler</text><text fill="#000000" font-family="sans-serif" font-size="11" lengthAdjust="spacing" textLength="172.9492" x="1102" y="516.3042">Mobile Vendor Data Integration</text><text fill="#000000" font-family="sans-serif" font-size="11" lengthAdjust="spacing" textLength="240.2866" x="1442" y="533.1089">Wholesaler Data Connectors (1-2 suppliers)</text><text fill="#000000" font-family="sans-serif" font-size="11" lengthAdjust="spacing" textLength="138.2305" x="1326" y="549.9136">Mobile Push Notifications</text><text fill="#000000" font-family="sans-serif" font-size="12" font-weight="bold" lengthAdjust="spacing" textLength="65.5254" x="10" y="575.6465">QA &amp; UAT</text><text fill="#000000" font-family="sans-serif" font-size="11" lengthAdjust="spacing" textLength="108.1899" x="1462" y="600.687">UAT &amp; Optimisation</text><text fill="#000000" font-family="sans-serif" font-size="12" font-weight="bold" lengthAdjust="spacing" textLength="73.2539" x="10" y="626.4199">Milestones</text><text fill="#000000" font-family="sans-serif" font-size="11" font-weight="bold" lengthAdjust="spacing" textLength="129.0566" x="124" y="651.4604">Data Audit Complete</text><text fill="#000000" font-family="sans-serif" font-size="11" font-weight="bold" lengthAdjust="spacing" textLength="150.1006" x="500" y="668.2651">WordPress Pipeline Live</text><text fill="#000000" font-family="sans-serif" font-size="11" font-weight="bold" lengthAdjust="spacing" textLength="164.146" x="1212" y="685.0698">First Email Campaign Sent</text><text fill="#000000" font-family="sans-serif" font-size="11" font-weight="bold" lengthAdjust="spacing" textLength="130.8506" x="1700" y="701.8745">Full Platform Go-Live</text><line style="stroke:#C0C0C0;stroke-width:1;" x1="0" x2="1696" y1="706.4688" y2="706.4688"/><line style="stroke:#C0C0C0;stroke-width:1;" x1="0" x2="0" y1="706.4688" y2="722.4688"/><line style="stroke:#C0C0C0;stroke-width:1;" x1="248" x2="248" y1="706.4688" y2="722.4688"/><text fill="#000000" font-family="sans-serif" font-size="12" font-weight="bold" lengthAdjust="spacing" textLength="60.627" x="93.6865" y="717.6074">Oct 2026</text><line style="stroke:#C0C0C0;stroke-width:1;" x1="488" x2="488" y1="706.4688" y2="722.4688"/><text fill="#000000" font-family="sans-serif" font-size="12" font-weight="bold" lengthAdjust="spacing" textLength="63.6855" x="336.1572" y="717.6074">Nov 2026</text><line style="stroke:#C0C0C0;stroke-width:1;" x1="736" x2="736" y1="706.4688" y2="722.4688"/><text fill="#000000" font-family="sans-serif" font-size="12" font-weight="bold" lengthAdjust="spacing" textLength="62.7891" x="580.6055" y="717.6074">Dec 2026</text><line style="stroke:#C0C0C0;stroke-width:1;" x1="984" x2="984" y1="706.4688" y2="722.4688"/><text fill="#000000" font-family="sans-serif" font-size="12" font-weight="bold" lengthAdjust="spacing" textLength="58.6816" x="830.6592" y="717.6074">Jan 2027</text><line style="stroke:#C0C0C0;stroke-width:1;" x1="1208" x2="1208" y1="706.4688" y2="722.4688"/><text fill="#000000" font-family="sans-serif" font-size="12" font-weight="bold" lengthAdjust="spacing" textLength="62.502" x="1064.749" y="717.6074">Feb 2027</text><line style="stroke:#C0C0C0;stroke-width:1;" x1="1456" x2="1456" y1="706.4688" y2="722.4688"/><text fill="#000000" font-family="sans-serif" font-size="12" font-weight="bold" lengthAdjust="spacing" textLength="63.5332" x="1300.2334" y="717.6074">Mar 2027</text><line style="stroke:#C0C0C0;stroke-width:1;" x1="1696" x2="1696" y1="706.4688" y2="722.4688"/><text fill="#000000" font-family="sans-serif" font-size="12" font-weight="bold" lengthAdjust="spacing" textLength="61.3711" x="1545.3145" y="717.6074">Apr 2027</text><line style="stroke:#C0C0C0;stroke-width:1;" x1="0" x2="1696" y1="722.4688" y2="722.4688"/><g class="legend" data-source-line="76"><rect fill="#DDDDDD" height="176.9688" rx="7.5" ry="7.5" style="stroke:#000000;stroke-width:1;" width="163.125" x="1519.875" y="734.4688"/><rect fill="#E0E0E0" height="16.2969" style="stroke:none;stroke-width:1;" width="153.125" x="1524.875" y="741.4688"/><text fill="#000000" font-family="sans-serif" font-size="14" lengthAdjust="spacing" textLength="69.166" x="1529.3252" y="754.4639">Discovery</text><rect fill="#BBDEFB" height="16.2969" style="stroke:none;stroke-width:1;" width="153.125" x="1524.875" y="757.7656"/><text fill="#000000" font-family="sans-serif" font-size="14" lengthAdjust="spacing" textLength="111.3711" x="1529.3252" y="770.7607">Platform &amp; Infra</text><rect fill="#B3E5FC" height="16.2969" style="stroke:none;stroke-width:1;" width="153.125" x="1524.875" y="774.0625"/><text fill="#000000" font-family="sans-serif" font-size="14" lengthAdjust="spacing" textLength="133.998" x="1529.3252" y="787.0576">WordPress Pipeline</text><rect fill="#B2EBF2" height="16.2969" style="stroke:none;stroke-width:1;" width="153.125" x="1524.875" y="790.3594"/><text fill="#000000" font-family="sans-serif" font-size="14" lengthAdjust="spacing" textLength="87.9033" x="1529.3252" y="803.3545">Data Quality</text><rect fill="#C8E6C9" height="16.2969" style="stroke:none;stroke-width:1;" width="153.125" x="1524.875" y="806.6563"/><text fill="#000000" font-family="sans-serif" font-size="14" lengthAdjust="spacing" textLength="124.9404" x="1529.3252" y="819.6514">Intelligence Layer</text><rect fill="#FFF9C4" height="16.2969" style="stroke:none;stroke-width:1;" width="153.125" x="1524.875" y="822.9531"/><text fill="#000000" font-family="sans-serif" font-size="14" lengthAdjust="spacing" textLength="100.7686" x="1529.3252" y="835.9482">Email Channel</text><rect fill="#FFE0B2" height="16.2969" style="stroke:none;stroke-width:1;" width="153.125" x="1524.875" y="839.25"/><text fill="#000000" font-family="sans-serif" font-size="14" lengthAdjust="spacing" textLength="144.2246" x="1529.3252" y="852.2451">Analytics Dashboard</text><rect fill="#F8BBD0" height="16.2969" style="stroke:none;stroke-width:1;" width="153.125" x="1524.875" y="855.5469"/><text fill="#000000" font-family="sans-serif" font-size="14" lengthAdjust="spacing" textLength="143.6572" x="1529.3252" y="868.542">Mobile &amp; Wholesaler</text><rect fill="#E1BEE7" height="16.2969" style="stroke:none;stroke-width:1;" width="153.125" x="1524.875" y="871.8438"/><text fill="#000000" font-family="sans-serif" font-size="14" lengthAdjust="spacing" textLength="68.79" x="1529.3252" y="884.8389">QA &amp; UAT</text><rect fill="#FF4500" height="16.2969" style="stroke:none;stroke-width:1;" width="153.125" x="1524.875" y="888.1406"/><text fill="#000000" font-family="sans-serif" font-size="14" lengthAdjust="spacing" textLength="67.3066" x="1529.3252" y="901.1357">Milestone</text><line style="stroke:#000000;stroke-width:1;" x1="1524.875" x2="1678" y1="741.4688" y2="741.4688"/><line style="stroke:#000000;stroke-width:1;" x1="1524.875" x2="1678" y1="757.7656" y2="757.7656"/><line style="stroke:#000000;stroke-width:1;" x1="1524.875" x2="1678" y1="774.0625" y2="774.0625"/><line style="stroke:#000000;stroke-width:1;" x1="1524.875" x2="1678" y1="790.3594" y2="790.3594"/><line style="stroke:#000000;stroke-width:1;" x1="1524.875" x2="1678" y1="806.6563" y2="806.6563"/><line style="stroke:#000000;stroke-width:1;" x1="1524.875" x2="1678" y1="822.9531" y2="822.9531"/><line style="stroke:#000000;stroke-width:1;" x1="1524.875" x2="1678" y1="839.25" y2="839.25"/><line style="stroke:#000000;stroke-width:1;" x1="1524.875" x2="1678" y1="855.5469" y2="855.5469"/><line style="stroke:#000000;stroke-width:1;" x1="1524.875" x2="1678" y1="871.8438" y2="871.8438"/><line style="stroke:#000000;stroke-width:1;" x1="1524.875" x2="1678" y1="888.1406" y2="888.1406"/><line style="stroke:#000000;stroke-width:1;" x1="1524.875" x2="1678" y1="904.4375" y2="904.4375"/><line style="stroke:#000000;stroke-width:1;" x1="1524.875" x2="1524.875" y1="741.4688" y2="904.4375"/><line style="stroke:#000000;stroke-width:1;" x1="1678" x2="1678" y1="741.4688" y2="904.4375"/></g><!--SRC=[bLRRRjiu47tNLmnW84Y0TIt9LkmOWL5Rbe8MzZQDa_GXs0TQOcnk9D8WARVkji1-n7xXVicEA5yIIN6w47mHEPmvSsOuC- -L9b8l2DVQqamd5CP4a-POiZNbu6TAYvHA2FY2B6XAkORhXEX78LFuz-z_e0kfu7gfVWCFOhfMraeohbL4KD5NIf-I3NmN8WKNDyIVDD9Wx2bmRVUywTXDsx6iIwKt2HrO1iMOaOKaAVnb0MYYdimVW13DpDXt2ew3xp_naxA48ZfEQoMsxxbYc8iaDaiZ4ZrTIP7ns1U9aF194hwWDxJOdJ1Eg-kvAKLNH1ADEsLJxg-QQeHs_XY5FwtBrjPbgzc4CLEHM5EvWMRJUZYydPXGm32BcVwZoXiG7WFbyM7DyLu_pXH4EH0Q0-FG2EpyQJNEdVmnCFPnFO4F_54IfMKMwKnI0sl6nTV7X3nHc56ThNP2LLozAgwsS-Hy2TXeD0x2KQlXUEUURnjWNuIChoLLgd3ecgreWg4oi9xjZI3ufYM9D1DyBrJ1vtXbV8xXxMr5PQ3jm0lzLiDskztHs7e8RYS7Q2SGppLCHKmJLOBWr8JEpQ_1CGt7RPiaogdvd964wIAFWfIm1Evn8IR64xp2LKAS6a9SGyYhvyjOt60KkeZ5xhLxeS7oWMkQ96n1UKHXGZPOFt94-s8oeukyaXHgZOibL6wPeouk65H7TPIG-RtWtBzeDToWEswxriCDZKIAXuxnuPRvC9RTYrTF7xUPir4GwIy9vpHv5XgVf2l25jpGXIKlL_iSZR5SvG4Hje-hA44Am_32xxGQeTSDdIvIk3jqY-MJyGMcseHaF5e2vl-gXC2jHU0wRwivZY8dPiX9ij4iok-rMiu5aR6XfsxzT4ercHD5ptwD8kzjDHM0WJt2F0xEFSSk2izKpB77e6DVbW9x3VQq8f6tw_Te4YkxkNclnx0keze6u5jgoW1xM1knP0_7JiV3E3u3PSxw0XCimYQbu1HJ5bIsMYMCIbMch5r3MTla-FzH-GQwhNFNcLh2xqApHnOPjrG5J9MU3jx3engEsyv3ztc8ORiRtffuvRydy6cbMSfKNOmwDOnqccsx_cYvbJgZ8EXYAnqweujXaJYxqKGLBNtVXv7HT9LGZOLZILOhobysxqCJslU12SvXPU6YNOHCAWsbGZ33clX2lBYlFHJFakJGuwz4iw9vvxILK2pTCKYsM6eSM7vSRiU5mRDHvKUnKRJhGMLusE-RJZM06izs4gP_35usiErUKKq7TGrbAr6KbK6foEutyoizg2qqEn6JEeFQgxuLAU8xEAJKTdq_90uEySQzdBc2GEizVXMJjONyS7qtdG2If_B-uRn3nhrtZdrwcr7CxpNO7N2wVTVkToxWxjRF8-ATMQTNrnDG8fFeUSnm9cFpB4_3C-iZMHEuoJYc9kt3bIGakP_k5h0_hPaKFE-HriVxQHzcsHnF4uq5PsgDwIF94imU7eaOYtSVBORDdZL1bp8SzFl0CLqi7-TNBJV5sty0]--></g></svg>