<?plantuml 1.2026.1?><svg xmlns="http://www.w3.org/2000/svg" xmlns:xlink="http://www.w3.org/1999/xlink" contentStyleType="text/css" data-diagram-type="GANTT" height="608px" preserveAspectRatio="none" style="width:1720px;height:608px;background:#FFFFFF;" version="1.1" viewBox="0 0 1720 608" width="1720px" zoomAndPan="magnify"><title>Data-Driven Customer Engagement Platform &#8212; 7 months, 5 devs</title><defs/><g><g class="title" data-source-line="1"><text fill="#000000" font-family="sans-serif" font-size="14" font-weight="bold" lengthAdjust="spacing" textLength="512.3945" x="535.3027" y="22.9951">Data-Driven Customer Engagement Platform &#8212; 7 months, 5 devs</text></g><text fill="#000000" font-family="sans-serif" font-size="10" lengthAdjust="spacing" textLength="12.7246" x="45" y="62.5791">15</text><text fill="#000000" font-family="sans-serif" font-size="10" lengthAdjust="spacing" textLength="12.7246" x="101" y="62.5791">16</text><text fill="#000000" font-family="sans-serif" font-size="10" lengthAdjust="spacing" textLength="12.7246" x="157" y="62.5791">17</text><text fill="#000000" font-family="sans-serif" font-size="10" lengthAdjust="spacing" textLength="12.7246" x="213" y="62.5791">18</text><text fill="#000000" font-family="sans-serif" font-size="10" lengthAdjust="spacing" textLength="12.7246" x="269" y="62.5791">19</text><text fill="#000000" font-family="sans-serif" font-size="10" lengthAdjust="spacing" textLength="12.7246" x="325" y="62.5791">20</text><text fill="#000000" font-family="sans-serif" font-size="10" lengthAdjust="spacing" textLength="12.7246" x="381" y="62.5791">21</text><text fill="#000000" font-family="sans-serif" font-size="10" lengthAdjust="spacing" textLength="12.7246" x="437" y="62.5791">22</text><text fill="#000000" font-family="sans-serif" font-size="10" lengthAdjust="spacing" textLength="12.7246" x="493" y="62.5791">23</text><text fill="#000000" font-family="sans-serif" font-size="10" lengthAdjust="spacing" textLength="12.7246" x="549" y="62.5791">24</text><text fill="#000000" font-family="sans-serif" font-size="10" lengthAdjust="spacing" textLength="12.7246" x="605" y="62.5791">25</text><text fill="#000000" font-family="sans-serif" font-size="10" lengthAdjust="spacing" textLength="12.7246" x="661" y="62.5791">26</text><text fill="#000000" font-family="sans-serif" font-size="10" lengthAdjust="spacing" textLength="12.7246" x="717" y="62.5791">27</text><text fill="#000000" font-family="sans-serif" font-size="10" lengthAdjust="spacing" textLength="12.7246" x="773" y="62.5791">28</text><text fill="#000000" font-family="sans-serif" font-size="10" lengthAdjust="spacing" textLength="12.7246" x="829" y="62.5791">29</text><text fill="#000000" font-family="sans-serif" font-size="10" lengthAdjust="spacing" textLength="12.7246" x="885" y="62.5791">30</text><text fill="#000000" font-family="sans-serif" font-size="10" lengthAdjust="spacing" textLength="12.7246" x="941" y="62.5791">31</text><text fill="#000000" font-family="sans-serif" font-size="10" lengthAdjust="spacing" textLength="12.7246" x="997" y="62.5791">32</text><text fill="#000000" font-family="sans-serif" font-size="10" lengthAdjust="spacing" textLength="12.7246" x="1053" y="62.5791">33</text><text fill="#000000" font-family="sans-serif" font-size="10" lengthAdjust="spacing" textLength="12.7246" x="1109" y="62.5791">34</text><text fill="#000000" font-family="sans-serif" font-size="10" lengthAdjust="spacing" textLength="12.7246" x="1165" y="62.5791">35</text><text fill="#000000" font-family="sans-serif" font-size="10" lengthAdjust="spacing" textLength="12.7246" x="1221" y="62.5791">36</text><text fill="#000000" font-family="sans-serif" font-size="10" lengthAdjust="spacing" textLength="12.7246" x="1277" y="62.5791">37</text><text fill="#000000" font-family="sans-serif" font-size="10" lengthAdjust="spacing" textLength="12.7246" x="1333" y="62.5791">38</text><text fill="#000000" font-family="sans-serif" font-size="10" lengthAdjust="spacing" textLength="12.7246" x="1389" y="62.5791">39</text><text fill="#000000" font-family="sans-serif" font-size="10" lengthAdjust="spacing" textLength="12.7246" x="1445" y="62.5791">40</text><text fill="#000000" font-family="sans-serif" font-size="10" lengthAdjust="spacing" textLength="12.7246" x="1501" y="62.5791">41</text><text fill="#000000" font-family="sans-serif" font-size="10" lengthAdjust="spacing" textLength="12.7246" x="1557" y="62.5791">42</text><line style="stroke:#C0C0C0;stroke-width:1;" x1="40" x2="40" y1="53.2969" y2="485.8516"/><line style="stroke:#C0C0C0;stroke-width:1;" x1="96" x2="96" y1="53.2969" y2="485.8516"/><line style="stroke:#C0C0C0;stroke-width:1;" x1="152" x2="152" y1="53.2969" y2="485.8516"/><line style="stroke:#C0C0C0;stroke-width:1;" x1="208" x2="208" y1="53.2969" y2="485.8516"/><line style="stroke:#C0C0C0;stroke-width:1;" x1="264" x2="264" y1="53.2969" y2="485.8516"/><line style="stroke:#C0C0C0;stroke-width:1;" x1="320" x2="320" y1="53.2969" y2="485.8516"/><line style="stroke:#C0C0C0;stroke-width:1;" x1="376" x2="376" y1="53.2969" y2="485.8516"/><line style="stroke:#C0C0C0;stroke-width:1;" x1="432" x2="432" y1="53.2969" y2="485.8516"/><line style="stroke:#C0C0C0;stroke-width:1;" x1="488" x2="488" y1="53.2969" y2="485.8516"/><line style="stroke:#C0C0C0;stroke-width:1;" x1="544" x2="544" y1="53.2969" y2="485.8516"/><line style="stroke:#C0C0C0;stroke-width:1;" x1="600" x2="600" y1="53.2969" y2="485.8516"/><line style="stroke:#C0C0C0;stroke-width:1;" x1="656" x2="656" y1="53.2969" y2="485.8516"/><line style="stroke:#C0C0C0;stroke-width:1;" x1="712" x2="712" y1="53.2969" y2="485.8516"/><line style="stroke:#C0C0C0;stroke-width:1;" x1="768" x2="768" y1="53.2969" y2="485.8516"/><line style="stroke:#C0C0C0;stroke-width:1;" x1="824" x2="824" y1="53.2969" y2="485.8516"/><line style="stroke:#C0C0C0;stroke-width:1;" x1="880" x2="880" y1="53.2969" y2="485.8516"/><line style="stroke:#C0C0C0;stroke-width:1;" x1="936" x2="936" y1="53.2969" y2="485.8516"/><line style="stroke:#C0C0C0;stroke-width:1;" x1="992" x2="992" y1="53.2969" y2="485.8516"/><line style="stroke:#C0C0C0;stroke-width:1;" x1="1048" x2="1048" y1="53.2969" y2="485.8516"/><line style="stroke:#C0C0C0;stroke-width:1;" x1="1104" x2="1104" y1="53.2969" y2="485.8516"/><line style="stroke:#C0C0C0;stroke-width:1;" x1="1160" x2="1160" y1="53.2969" y2="485.8516"/><line style="stroke:#C0C0C0;stroke-width:1;" x1="1216" x2="1216" y1="53.2969" y2="485.8516"/><line style="stroke:#C0C0C0;stroke-width:1;" x1="1272" x2="1272" y1="53.2969" y2="485.8516"/><line style="stroke:#C0C0C0;stroke-width:1;" x1="1328" x2="1328" y1="53.2969" y2="485.8516"/><line style="stroke:#C0C0C0;stroke-width:1;" x1="1384" x2="1384" y1="53.2969" y2="485.8516"/><line style="stroke:#C0C0C0;stroke-width:1;" x1="1440" x2="1440" y1="53.2969" y2="485.8516"/><line style="stroke:#C0C0C0;stroke-width:1;" x1="1496" x2="1496" y1="53.2969" y2="485.8516"/><line style="stroke:#C0C0C0;stroke-width:1;" x1="1552" x2="1552" y1="53.2969" y2="485.8516"/><line style="stroke:#C0C0C0;stroke-width:1;" x1="1584" x2="1584" y1="53.2969" y2="485.8516"/><line style="stroke:#C0C0C0;stroke-width:1;" x1="0" x2="0" y1="37.2969" y2="53.2969"/><line style="stroke:#C0C0C0;stroke-width:1;" x1="240" x2="240" y1="37.2969" y2="53.2969"/><text fill="#000000" font-family="sans-serif" font-size="12" font-weight="bold" lengthAdjust="spacing" textLength="61.3711" x="89.3145" y="48.4355">Apr 2026</text><line style="stroke:#C0C0C0;stroke-width:1;" x1="488" x2="488" y1="37.2969" y2="53.2969"/><text fill="#000000" font-family="sans-serif" font-size="12" font-weight="bold" lengthAdjust="spacing" textLength="65.4375" x="331.2813" y="48.4355">May 2026</text><line style="stroke:#C0C0C0;stroke-width:1;" x1="728" x2="728" y1="37.2969" y2="53.2969"/><text fill="#000000" font-family="sans-serif" font-size="12" font-weight="bold" lengthAdjust="spacing" textLength="59.127" x="578.4365" y="48.4355">Jun 2026</text><line style="stroke:#C0C0C0;stroke-width:1;" x1="976" x2="976" y1="37.2969" y2="53.2969"/><text fill="#000000" font-family="sans-serif" font-size="12" font-weight="bold" lengthAdjust="spacing" textLength="54.6973" x="824.6514" y="48.4355">Jul 2026</text><line style="stroke:#C0C0C0;stroke-width:1;" x1="1224" x2="1224" y1="37.2969" y2="53.2969"/><text fill="#000000" font-family="sans-serif" font-size="12" font-weight="bold" lengthAdjust="spacing" textLength="63.9961" x="1068.002" y="48.4355">Aug 2026</text><line style="stroke:#C0C0C0;stroke-width:1;" x1="1464" x2="1464" y1="37.2969" y2="53.2969"/><text fill="#000000" font-family="sans-serif" font-size="12" font-weight="bold" lengthAdjust="spacing" textLength="62.9473" x="1312.5264" y="48.4355">Sep 2026</text><line style="stroke:#C0C0C0;stroke-width:1;" x1="1584" x2="1584" y1="37.2969" y2="53.2969"/><text fill="#000000" font-family="sans-serif" font-size="12" font-weight="bold" lengthAdjust="spacing" textLength="60.627" x="1493.6865" y="48.4355">Oct 2026</text><line style="stroke:#C0C0C0;stroke-width:1;" x1="0" x2="1584" y1="37.2969" y2="37.2969"/><line style="stroke:#C0C0C0;stroke-width:1;" x1="0" x2="1584" y1="53.2969" y2="53.2969"/><line style="stroke:#C0C0C0;stroke-width:1;" x1="0" x2="1584" y1="64.2969" y2="64.2969"/><rect fill="#F0F0F0" height="23.9688" style="stroke:none;stroke-width:1;" width="1584" x="0" y="69.2969"/><line style="stroke:#181818;stroke-width:1;" x1="0" x2="5" y1="81.2813" y2="81.2813"/><line style="stroke:#181818;stroke-width:1;" x1="304.7402" x2="1583" y1="81.2813" y2="81.2813"/><rect fill="#BBDEFB" height="12.8047" style="stroke:none;stroke-width:1;" width="116" x="2" y="100.2656"/><rect fill="none" height="12.8047" style="stroke:#1976D2;stroke-width:1;" width="116" x="2" y="100.2656"/><rect fill="#BBDEFB" height="12.8047" style="stroke:none;stroke-width:1;" width="180" x="58" y="117.0703"/><rect fill="none" height="12.8047" style="stroke:#1976D2;stroke-width:1;" width="180" x="58" y="117.0703"/><rect fill="#BBDEFB" height="12.8047" style="stroke:none;stroke-width:1;" width="244" x="114" y="133.875"/><rect fill="none" height="12.8047" style="stroke:#1976D2;stroke-width:1;" width="244" x="114" y="133.875"/><rect fill="#BBDEFB" height="12.8047" style="stroke:none;stroke-width:1;" width="252" x="242" y="150.6797"/><rect fill="none" height="12.8047" style="stroke:#1976D2;stroke-width:1;" width="252" x="242" y="150.6797"/><rect fill="#BBDEFB" height="12.8047" style="stroke:none;stroke-width:1;" width="252" x="354" y="167.4844"/><rect fill="none" height="12.8047" style="stroke:#1976D2;stroke-width:1;" width="252" x="354" y="167.4844"/><rect fill="#F0F0F0" height="23.9688" style="stroke:none;stroke-width:1;" width="1584" x="0" y="187.2891"/><line style="stroke:#181818;stroke-width:1;" x1="0" x2="5" y1="199.2734" y2="199.2734"/><line style="stroke:#181818;stroke-width:1;" x1="318.6152" x2="1583" y1="199.2734" y2="199.2734"/><rect fill="#C8E6C9" height="12.8047" style="stroke:none;stroke-width:1;" width="244" x="490" y="218.2578"/><rect fill="none" height="12.8047" style="stroke:#388E3C;stroke-width:1;" width="244" x="490" y="218.2578"/><rect fill="#C8E6C9" height="12.8047" style="stroke:none;stroke-width:1;" width="244" x="602" y="235.0625"/><rect fill="none" height="12.8047" style="stroke:#388E3C;stroke-width:1;" width="244" x="602" y="235.0625"/><rect fill="#C8E6C9" height="12.8047" style="stroke:none;stroke-width:1;" width="236" x="730" y="251.8672"/><rect fill="none" height="12.8047" style="stroke:#388E3C;stroke-width:1;" width="236" x="730" y="251.8672"/><rect fill="#C8E6C9" height="12.8047" style="stroke:none;stroke-width:1;" width="252" x="730" y="268.6719"/><rect fill="none" height="12.8047" style="stroke:#388E3C;stroke-width:1;" width="252" x="730" y="268.6719"/><rect fill="#F0F0F0" height="23.9688" style="stroke:none;stroke-width:1;" width="1584" x="0" y="288.4766"/><line style="stroke:#181818;stroke-width:1;" x1="0" x2="5" y1="300.4609" y2="300.4609"/><line style="stroke:#181818;stroke-width:1;" x1="290.2559" x2="1583" y1="300.4609" y2="300.4609"/><rect fill="#FFE0B2" height="12.8047" style="stroke:none;stroke-width:1;" width="252" x="978" y="319.4453"/><rect fill="none" height="12.8047" style="stroke:#E65100;stroke-width:1;" width="252" x="978" y="319.4453"/><rect fill="#FFE0B2" height="12.8047" style="stroke:none;stroke-width:1;" width="252" x="1090" y="336.25"/><rect fill="none" height="12.8047" style="stroke:#E65100;stroke-width:1;" width="252" x="1090" y="336.25"/><rect fill="#FFE0B2" height="12.8047" style="stroke:none;stroke-width:1;" width="236" x="1226" y="353.0547"/><rect fill="none" height="12.8047" style="stroke:#E65100;stroke-width:1;" width="236" x="1226" y="353.0547"/><rect fill="#FFE0B2" height="12.8047" style="stroke:none;stroke-width:1;" width="244" x="1338" y="369.8594"/><rect fill="none" height="12.8047" style="stroke:#E65100;stroke-width:1;" width="244" x="1338" y="369.8594"/><rect fill="#F0F0F0" height="23.9688" style="stroke:none;stroke-width:1;" width="1584" x="0" y="389.6641"/><line style="stroke:#181818;stroke-width:1;" x1="0" x2="5" y1="401.6484" y2="401.6484"/><line style="stroke:#181818;stroke-width:1;" x1="88.2539" x2="1583" y1="401.6484" y2="401.6484"/><polygon fill="#FF4500" points="116,420.6328,121,425.6328,116,430.6328,111,425.6328" style="stroke:#FF4500;stroke-width:1;"/><polygon fill="#FF4500" points="492,437.4375,497,442.4375,492,447.4375,487,442.4375" style="stroke:#FF4500;stroke-width:1;"/><polygon fill="#FF4500" points="980,454.2422,985,459.2422,980,464.2422,975,459.2422" style="stroke:#FF4500;stroke-width:1;"/><polygon fill="#FF4500" points="1580,471.0469,1585,476.0469,1580,481.0469,1575,476.0469" style="stroke:#FF4500;stroke-width:1;"/><text fill="#000000" font-family="sans-serif" font-size="12" font-weight="bold" lengthAdjust="spacing" textLength="289.7402" x="10" y="85.4355">Phase 1: Foundation &amp; WordPress Pipeline</text><text fill="#000000" font-family="sans-serif" font-size="11" lengthAdjust="spacing" textLength="128.5249" x="122" y="110.4761">Discovery &amp; Data Audit</text><text fill="#000000" font-family="sans-serif" font-size="11" lengthAdjust="spacing" textLength="132.9238" x="62" y="127.2808">Snowflake Setup &amp; Infra</text><text fill="#000000" font-family="sans-serif" font-size="11" lengthAdjust="spacing" textLength="184.4487" x="118" y="144.0854">WordPress DB Extraction Pipeline</text><text fill="#000000" font-family="sans-serif" font-size="11" lengthAdjust="spacing" textLength="137.1616" x="246" y="160.8901">ETL Pipeline (WordPress)</text><text fill="#000000" font-family="sans-serif" font-size="11" lengthAdjust="spacing" textLength="130.3833" x="358" y="177.6948">Email Validation Engine</text><text fill="#000000" font-family="sans-serif" font-size="12" font-weight="bold" lengthAdjust="spacing" textLength="303.6152" x="10" y="203.4277">Phase 2: Suggestion Engine &amp; Email Channel</text><text fill="#000000" font-family="sans-serif" font-size="11" lengthAdjust="spacing" textLength="170.7632" x="494" y="228.4683">Customer Segmentation Model</text><text fill="#000000" font-family="sans-serif" font-size="11" lengthAdjust="spacing" textLength="138.3486" x="606" y="245.2729">Recommendation Engine</text><text fill="#000000" font-family="sans-serif" font-size="11" lengthAdjust="spacing" textLength="153.9946" x="734" y="262.0776">Email Campaign Integration</text><text fill="#000000" font-family="sans-serif" font-size="11" lengthAdjust="spacing" textLength="113.3193" x="734" y="278.8823">Analytics Dashboard</text><text fill="#000000" font-family="sans-serif" font-size="12" font-weight="bold" lengthAdjust="spacing" textLength="275.2559" x="10" y="304.6152">Phase 3: Mobile &amp; Wholesaler Expansion</text><text fill="#000000" font-family="sans-serif" font-size="11" lengthAdjust="spacing" textLength="172.9492" x="982" y="329.6558">Mobile Vendor Data Integration</text><text fill="#000000" font-family="sans-serif" font-size="11" lengthAdjust="spacing" textLength="156.9434" x="1094" y="346.4604">Wholesaler Data Connectors</text><text fill="#000000" font-family="sans-serif" font-size="11" lengthAdjust="spacing" textLength="138.2305" x="1230" y="363.2651">Mobile Push Notifications</text><text fill="#000000" font-family="sans-serif" font-size="11" lengthAdjust="spacing" textLength="108.2329" x="1342" y="380.0698">UAT &amp; Optimization</text><text fill="#000000" font-family="sans-serif" font-size="12" font-weight="bold" lengthAdjust="spacing" textLength="73.2539" x="10" y="405.8027">Milestones</text><text fill="#000000" font-family="sans-serif" font-size="11" font-weight="bold" lengthAdjust="spacing" textLength="129.0566" x="124" y="430.8433">Data Audit Complete</text><text fill="#000000" font-family="sans-serif" font-size="11" font-weight="bold" lengthAdjust="spacing" textLength="150.1006" x="500" y="447.6479">WordPress Pipeline Live</text><text fill="#000000" font-family="sans-serif" font-size="11" font-weight="bold" lengthAdjust="spacing" textLength="164.146" x="988" y="464.4526">First Email Campaign Sent</text><text fill="#000000" font-family="sans-serif" font-size="11" font-weight="bold" lengthAdjust="spacing" textLength="130.8506" x="1588" y="481.2573">Full Platform Go-Live</text><line style="stroke:#C0C0C0;stroke-width:1;" x1="0" x2="1584" y1="485.8516" y2="485.8516"/><line style="stroke:#C0C0C0;stroke-width:1;" x1="0" x2="0" y1="485.8516" y2="501.8516"/><line style="stroke:#C0C0C0;stroke-width:1;" x1="240" x2="240" y1="485.8516" y2="501.8516"/><text fill="#000000" font-family="sans-serif" font-size="12" font-weight="bold" lengthAdjust="spacing" textLength="61.3711" x="89.3145" y="496.9902">Apr 2026</text><line style="stroke:#C0C0C0;stroke-width:1;" x1="488" x2="488" y1="485.8516" y2="501.8516"/><text fill="#000000" font-family="sans-serif" font-size="12" font-weight="bold" lengthAdjust="spacing" textLength="65.4375" x="331.2813" y="496.9902">May 2026</text><line style="stroke:#C0C0C0;stroke-width:1;" x1="728" x2="728" y1="485.8516" y2="501.8516"/><text fill="#000000" font-family="sans-serif" font-size="12" font-weight="bold" lengthAdjust="spacing" textLength="59.127" x="578.4365" y="496.9902">Jun 2026</text><line style="stroke:#C0C0C0;stroke-width:1;" x1="976" x2="976" y1="485.8516" y2="501.8516"/><text fill="#000000" font-family="sans-serif" font-size="12" font-weight="bold" lengthAdjust="spacing" textLength="54.6973" x="824.6514" y="496.9902">Jul 2026</text><line style="stroke:#C0C0C0;stroke-width:1;" x1="1224" x2="1224" y1="485.8516" y2="501.8516"/><text fill="#000000" font-family="sans-serif" font-size="12" font-weight="bold" lengthAdjust="spacing" textLength="63.9961" x="1068.002" y="496.9902">Aug 2026</text><line style="stroke:#C0C0C0;stroke-width:1;" x1="1464" x2="1464" y1="485.8516" y2="501.8516"/><text fill="#000000" font-family="sans-serif" font-size="12" font-weight="bold" lengthAdjust="spacing" textLength="62.9473" x="1312.5264" y="496.9902">Sep 2026</text><line style="stroke:#C0C0C0;stroke-width:1;" x1="1584" x2="1584" y1="485.8516" y2="501.8516"/><text fill="#000000" font-family="sans-serif" font-size="12" font-weight="bold" lengthAdjust="spacing" textLength="60.627" x="1493.6865" y="496.9902">Oct 2026</text><line style="stroke:#C0C0C0;stroke-width:1;" x1="0" x2="1584" y1="501.8516" y2="501.8516"/><g class="legend" data-source-line="62"><rect fill="#DDDDDD" height="79.1875" rx="7.5" ry="7.5" style="stroke:#000000;stroke-width:1;" width="164.6836" x="1406.3164" y="513.8516"/><rect fill="#BBDEFB" height="16.2969" style="stroke:none;stroke-width:1;" width="154.6836" x="1411.3164" y="520.8516"/><text fill="#000000" font-family="sans-serif" font-size="14" lengthAdjust="spacing" textLength="142.9736" x="1415.7666" y="533.8467">Phase 1: Foundation</text><rect fill="#C8E6C9" height="16.2969" style="stroke:none;stroke-width:1;" width="154.6836" x="1411.3164" y="537.1484"/><text fill="#000000" font-family="sans-serif" font-size="14" lengthAdjust="spacing" textLength="145.7832" x="1415.7666" y="550.1436">Phase 2: Intelligence</text><rect fill="#FFE0B2" height="16.2969" style="stroke:none;stroke-width:1;" width="154.6836" x="1411.3164" y="553.4453"/><text fill="#000000" font-family="sans-serif" font-size="14" lengthAdjust="spacing" textLength="136.418" x="1415.7666" y="566.4404">Phase 3: Expansion</text><rect fill="#FF4500" height="16.2969" style="stroke:none;stroke-width:1;" width="154.6836" x="1411.3164" y="569.7422"/><text fill="#000000" font-family="sans-serif" font-size="14" lengthAdjust="spacing" textLength="67.3066" x="1415.7666" y="582.7373">Milestone</text><line style="stroke:#000000;stroke-width:1;" x1="1411.3164" x2="1566" y1="520.8516" y2="520.8516"/><line style="stroke:#000000;stroke-width:1;" x1="1411.3164" x2="1566" y1="537.1484" y2="537.1484"/><line style="stroke:#000000;stroke-width:1;" x1="1411.3164" x2="1566" y1="553.4453" y2="553.4453"/><line style="stroke:#000000;stroke-width:1;" x1="1411.3164" x2="1566" y1="569.7422" y2="569.7422"/><line style="stroke:#000000;stroke-width:1;" x1="1411.3164" x2="1566" y1="586.0391" y2="586.0391"/><line style="stroke:#000000;stroke-width:1;" x1="1411.3164" x2="1411.3164" y1="520.8516" y2="586.0391"/><line style="stroke:#000000;stroke-width:1;" x1="1566" x2="1566" y1="520.8516" y2="586.0391"/></g><?plantuml-src ZLRRRjD047ttLumK2O54sZWXjwgAQ6u8gOM857YeUDZQKsVfUjVQtVH6A_4HV25VmdYTrc2xDeeInVRCEMVEpixwhR5CsuX9QptBhK2OCylQSyslKC9iQwoAKSD2HYp26AM5bM3sGkaOVl_y1KE8bRGRynhw4EALyHBDfJK18w1hn4jn2tTAnT2b1-ex1XOSdu5kfpjeTzwqExxd7HfxAt3YEHLppYBDOlZX0LXcBjqVW2NHhFaTWk_JzGDzOowGr4ciZDXTfy1mhaJeRarPSFbEgwqCPqee3Hyran5-mkpfCPTOlfzI6KoOPfQU5Acw_qlLMdRIZmDyy0xtToLxxJQiDimGr071K3YpN4bu0L-L3bSQZO4LJr2GDcYtlRCvDu6wGdrB8UbAmT4svFPRsLPWCWIKONxFxp-VpWq4gKuCWKjeJQVpnNAwt_B7my6ywvsjfRg-4EmIOOrscr3oUtcXMPbsLARjTMho6tXp4-PJMDnOpG9dpwCb9G5-loYWx-fk1cfGiZWzpXVYvHFSguA2VeNpWxJ9Qm2Qc6F61NnXWkzwW_PYkVH-HUa3L_gp-VMyUMTs3s2zZIBQR7ashM26EzimAL6utdoQ5ckCqb6HqPse44L1xQ32fg6pgHQZe7WsMWncu_rMRpHQz6RUsISCL4n9TJuDAdmQEf-UoMxWtBd0ueJnI59RMwJnbI8KY8UL9QURemwYWVr8Cd5hUK1jpSpcN34T_WVjo3bTcLlFb_T4xu3Mv9mcS3gfDeecCKryEYPk4YPDQb_Q3xk8BqHD4z2Dc-Vz6LK87JkXJJ05pSlbeZFjxhSMWxxV8Nl_akToPueQDg1XRaeAogqnpgP73KG3-qxyQcisy45PVi439xj8FguilrUFqC3z-UYKbkTZOddCxwey7vShzZkkughKUhQqDquUZsIJdLLF1mmv5YS2BUsd3KiIbF-UIXLdtJ6zVnI3iq6wvDfOA6oQDOsAOdZMvikj4FaxoplLha3EYlO4HcG4Q1vjB1tKzuUxcJYfFABliv1iYqpoMPdsfX2Se09y3CgyckIR9zyekuYdLuv9xY8zI_Laihotz9Ezftd-NYfxp_y3?></g></svg>