<?plantuml 1.2026.1?><svg xmlns="http://www.w3.org/2000/svg" xmlns:xlink="http://www.w3.org/1999/xlink" contentStyleType="text/css" data-diagram-type="DESCRIPTION" height="379px" preserveAspectRatio="none" style="width:1195px;height:379px;background:#FFFFFF;" version="1.1" viewBox="0 0 1195 379" width="1195px" zoomAndPan="magnify"><defs/><g><!--cluster sources--><g class="cluster" data-qualified-name="sources" data-source-line="6" id="ent0002"><rect fill="#E8F4FD" height="263.53" rx="4" ry="4" style="stroke:#181818;stroke-width:1;" width="344" x="7" y="109.53"/><text fill="#000000" font-family="Arial" font-size="13" font-weight="bold" lengthAdjust="spacing" textLength="97.2969" x="130.3516" y="123.5969">Data Sources</text></g><!--cluster channels--><g class="cluster" data-qualified-name="channels" data-source-line="14" id="ent0007"><rect fill="#FFF2CC" height="164.26" rx="4" ry="4" style="stroke:#181818;stroke-width:1;" width="342" x="617" y="79.53"/><text fill="#000000" font-family="Arial" font-size="13" font-weight="bold" lengthAdjust="spacing" textLength="94.2246" x="740.8877" y="93.5969">Personalised</text><text fill="#000000" font-family="Arial" font-size="13" font-weight="bold" lengthAdjust="spacing" textLength="67.0884" x="754.4558" y="108.7297">Channels</text></g><!--cluster outcome--><g class="cluster" data-qualified-name="outcome" data-source-line="19" id="ent0010"><rect fill="#F8CECC" height="164.26" rx="4" ry="4" style="stroke:#181818;stroke-width:1;" width="190" x="999" y="79.53"/><text fill="#000000" font-family="Arial" font-size="13" font-weight="bold" lengthAdjust="spacing" textLength="64.9048" x="1061.5476" y="93.5969">Business</text><text fill="#000000" font-family="Arial" font-size="13" font-weight="bold" lengthAdjust="spacing" textLength="65.5205" x="1061.2397" y="108.7297">Outcome</text></g><!--entity web--><g class="entity" data-qualified-name="sources.web" data-source-line="7" id="ent0003"><rect fill="#F1F1F1" height="50.2656" rx="4" ry="4" style="stroke:#181818;stroke-width:0.5;" width="149.0542" x="50.47" y="169.53"/><text fill="#000000" font-family="Arial" font-size="13" lengthAdjust="spacing" textLength="65.9331" x="60.47" y="191.5969">Web Shop</text><text fill="#000000" font-family="Arial" font-size="13" lengthAdjust="spacing" textLength="129.0542" x="60.47" y="206.7297">(15 years of orders)</text></g><!--entity mobile--><g class="entity" data-qualified-name="sources.mobile" data-source-line="8" id="ent0004"><rect fill="#F1F1F1" height="50.2656" rx="4" ry="4" style="stroke:#181818;stroke-width:0.5;" width="92.1729" x="234.91" y="169.53"/><text fill="#000000" font-family="Arial" font-size="13" lengthAdjust="spacing" textLength="72.1729" x="244.91" y="191.5969">Mobile App</text><text fill="#000000" font-family="Arial" font-size="13" lengthAdjust="spacing" textLength="68.8911" x="244.91" y="206.7297">(2M users)</text></g><!--entity suppliers--><g class="entity" data-qualified-name="sources.suppliers" data-source-line="9" id="ent0005"><rect fill="#F1F1F1" height="50.2656" rx="4" ry="4" style="stroke:#181818;stroke-width:0.5;" width="92.9346" x="78.53" y="298.79"/><text fill="#000000" font-family="Arial" font-size="13" lengthAdjust="spacing" textLength="72.3506" x="88.53" y="320.8569">Wholesaler</text><text fill="#000000" font-family="Arial" font-size="13" lengthAdjust="spacing" textLength="72.9346" x="88.53" y="335.9897">Catalogues</text></g><!--entity email--><g class="entity" data-qualified-name="channels.email" data-source-line="15" id="ent0008"><rect fill="#F1F1F1" height="50.2656" rx="4" ry="4" style="stroke:#181818;stroke-width:0.5;" width="142.5605" x="792.72" y="169.53"/><text fill="#000000" font-family="Arial" font-size="13" lengthAdjust="spacing" textLength="122.5605" x="802.72" y="191.5969">Personalised Email</text><text fill="#000000" font-family="Arial" font-size="13" lengthAdjust="spacing" textLength="96.605" x="802.72" y="206.7297">(daily capable)</text></g><!--entity push--><g class="entity" data-qualified-name="channels.push" data-source-line="16" id="ent0009"><rect fill="#F1F1F1" height="50.2656" rx="4" ry="4" style="stroke:#181818;stroke-width:0.5;" width="97.8667" x="660.07" y="169.53"/><text fill="#000000" font-family="Arial" font-size="13" lengthAdjust="spacing" textLength="77.8667" x="670.07" y="191.5969">Mobile Push</text><text fill="#000000" font-family="Arial" font-size="13" lengthAdjust="spacing" textLength="61.3628" x="670.07" y="206.7297">(Phase 3)</text></g><!--entity turnover--><g class="entity" data-qualified-name="outcome.turnover" data-source-line="20" id="ent0011"><rect fill="#F1F1F1" height="50.2656" rx="4" ry="4" style="stroke:#181818;stroke-width:0.5;" width="122.6733" x="1042.66" y="169.53"/><text fill="#000000" font-family="Arial" font-size="13" lengthAdjust="spacing" textLength="102.6733" x="1052.66" y="191.5969">+20% Turnover</text><text fill="#000000" font-family="Arial" font-size="13" lengthAdjust="spacing" textLength="42.5991" x="1052.66" y="206.7297">Target</text></g><!--entity platform--><g class="entity" data-qualified-name="platform" data-source-line="12" id="ent0006"><rect fill="#D5E8D4" height="65.3984" rx="4" ry="4" style="stroke:#181818;stroke-width:0.5;" width="95.6387" x="375.18" y="161.96"/><text fill="#000000" font-family="Arial" font-size="13" lengthAdjust="spacing" textLength="63.1465" x="385.18" y="184.0269">Customer</text><text fill="#000000" font-family="Arial" font-size="13" lengthAdjust="spacing" textLength="75.6387" x="385.18" y="199.1597">Intelligence</text><text fill="#000000" font-family="Arial" font-size="13" lengthAdjust="spacing" textLength="55.0532" x="385.18" y="214.2925">Platform</text></g><!--link sources to platform--><g class="link" data-entity-1="ent0002" data-entity-2="ent0006" data-link-type="dependency" data-source-line="23" id="lnk12"><path d="M10.4194,109.3631 C10.4602,109.1477 10.5014,108.9325 10.5433,108.7174 C11.2129,105.276 12.0282,101.8693 13.0091,98.528 C16.9325,85.1625 23.505,72.8425 34,63.53 C98.83,6 142.33,59.19 229,60.38 C279.68,61.08 299.15,38.11 343,63.53 C379.69,84.79 399.6129,124.59 411.0029,155.97" fill="none" id="sources-to-platform" style="stroke:#555555;stroke-width:1;"/><polygon fill="#555555" points="413.05,161.61,413.7393,151.7853,411.3441,156.91,406.2193,154.5148,413.05,161.61" style="stroke:#555555;stroke-width:1;"/><text fill="#000000" font-family="Arial" font-size="13" lengthAdjust="spacing" textLength="45.8047" x="172.1118" y="36.5969">Unified</text><text fill="#000000" font-family="Arial" font-size="13" lengthAdjust="spacing" textLength="66.0283" x="162" y="51.7297">data layer</text></g><!--link platform to channels--><g class="link" data-entity-1="ent0006" data-entity-2="ent0007" data-link-type="dependency" data-source-line="24" id="lnk13"><path d="M471.13,194.66 C499.6,194.66 535.88,194.66 566.06,194.66 C581.15,194.66 594.715,194.66 605.0163,194.66 C607.5916,194.66 609.9629,194.66 612.1031,194.66 C613.1732,194.66 614.1855,194.66 615.1366,194.66 C615.6121,194.66 616.0724,194.66 616.5169,194.66 C616.6281,194.66 610.7382,194.66 610.8474,194.66" fill="none" id="platform-to-channels" style="stroke:#555555;stroke-width:1;"/><polygon fill="#555555" points="616.8474,194.66,607.8474,190.66,611.8474,194.66,607.8474,198.66,616.8474,194.66" style="stroke:#555555;stroke-width:1;"/><text fill="#000000" font-family="Arial" font-size="13" lengthAdjust="spacing" textLength="82.3608" x="507.0003" y="172.7269">Personalised</text><text fill="#000000" font-family="Arial" font-size="13" lengthAdjust="spacing" textLength="117.9014" x="489.23" y="187.8597">recommendations</text></g><!--link channels to outcome--><g class="link" data-entity-1="ent0007" data-entity-2="ent0010" data-link-type="dependency" data-source-line="25" id="lnk14"><path d="M631.0402,79.512 C634.4856,73.5966 638.7525,68.1875 644,63.53 C685.89,26.34 713.99,61.08 770,60.38 C850.45,59.38 884.65,18.02 951,63.53 C975.905,80.615 989.79,111.1975 997.5025,138.5325 C997.9845,140.2409 996.9376,136.1285 997.3726,137.8074" fill="none" id="channels-to-outcome" style="stroke:#555555;stroke-width:1;"/><polygon fill="#555555" points="998.8774,143.6157,1000.4924,133.9001,997.6234,138.7755,992.7481,135.9065,998.8774,143.6157" style="stroke:#555555;stroke-width:1;"/><text fill="#000000" font-family="Arial" font-size="13" lengthAdjust="spacing" textLength="90.9683" x="771" y="36.5969">Higher basket</text><text fill="#000000" font-family="Arial" font-size="13" lengthAdjust="spacing" textLength="52.5142" x="790.2271" y="51.7297">per visit</text></g><?plantuml-src RL9DQzj04BthLmmnXPOII9mOZ0y5HxPe3sbDdTABBYDfB2rPpIpxaU2M_lUk95krtUYoi_FcpSnxMlUisA355YhQOT0-4_PRzOlWzYvnRu5ViILOMeNw15zQAw-fQB4mcVNV2VXT0bUfM2OByoInL7haMXDShT0ZR2NOajmLe0Ctn31PpxFxR0M_4u2J-fzKmBOHa_Fxsndi2Qq3sO7OYgpxq7TufUASyoY5YkVITApf8mGtrhOzT36Y4KqEDTcSqxYUbZeSbml6Q1NPoPyp5MbmNjgEy8KzQQrguf9otcZqEx5jJpQ72qnMi_LyTN_MOHER2gDMZgeuja5cqiFGyd21IPPbqpIzjEIK2kiMbOuogtZieKI3XQP1AtNGcyviWciYPzEW8xWRgatCNQXy24unEPVpj-3BgBSlb26EsytJzV_RVPpUl8EdO5bUEd-UqDRaUw8_9Bifnxz-RLNT-EjF_ynQm0zMEzMvKdLlHUC-KaPu98mkBU3SoxYBj2rrR2Niah5mf1uLBE1ppCGdMg1x9f-pYV6BSih_1G00?></g></svg>