<svg xmlns="http://www.w3.org/2000/svg" xmlns:xlink="http://www.w3.org/1999/xlink" contentStyleType="text/css" data-diagram-type="GANTT" height="608px" preserveAspectRatio="none" style="width:1832px;height:608px;background:#FFFFFF;" version="1.1" viewBox="0 0 1832 608" width="1832px" zoomAndPan="magnify"><title>Data-Driven Customer Engagement Platform &#8212; 7 months, 5 devs</title><defs/><g><g class="title" data-source-line="1"><text fill="#000000" font-family="sans-serif" font-size="14" font-weight="bold" lengthAdjust="spacing" textLength="512.3945" x="591.3027" y="22.9951">Data-Driven Customer Engagement Platform &#8212; 7 months, 5 devs</text></g><text fill="#000000" font-family="sans-serif" font-size="10" lengthAdjust="spacing" textLength="12.7246" x="37" y="62.5791">41</text><text fill="#000000" font-family="sans-serif" font-size="10" lengthAdjust="spacing" textLength="12.7246" x="93" y="62.5791">42</text><text fill="#000000" font-family="sans-serif" font-size="10" lengthAdjust="spacing" textLength="12.7246" x="149" y="62.5791">43</text><text fill="#000000" font-family="sans-serif" font-size="10" lengthAdjust="spacing" textLength="12.7246" x="205" y="62.5791">44</text><text fill="#000000" font-family="sans-serif" font-size="10" lengthAdjust="spacing" textLength="12.7246" x="261" y="62.5791">45</text><text fill="#000000" font-family="sans-serif" font-size="10" lengthAdjust="spacing" textLength="12.7246" x="317" y="62.5791">46</text><text fill="#000000" font-family="sans-serif" font-size="10" lengthAdjust="spacing" textLength="12.7246" x="373" y="62.5791">47</text><text fill="#000000" font-family="sans-serif" font-size="10" lengthAdjust="spacing" textLength="12.7246" x="429" y="62.5791">48</text><text fill="#000000" font-family="sans-serif" font-size="10" lengthAdjust="spacing" textLength="12.7246" x="485" y="62.5791">49</text><text fill="#000000" font-family="sans-serif" font-size="10" lengthAdjust="spacing" textLength="12.7246" x="541" y="62.5791">50</text><text fill="#000000" font-family="sans-serif" font-size="10" lengthAdjust="spacing" textLength="12.7246" x="597" y="62.5791">51</text><text fill="#000000" font-family="sans-serif" font-size="10" lengthAdjust="spacing" textLength="12.7246" x="653" y="62.5791">52</text><text fill="#000000" font-family="sans-serif" font-size="10" lengthAdjust="spacing" textLength="12.7246" x="709" y="62.5791">53</text><text fill="#000000" font-family="sans-serif" font-size="10" lengthAdjust="spacing" textLength="6.3623" x="765" y="62.5791">1</text><text fill="#000000" font-family="sans-serif" font-size="10" lengthAdjust="spacing" textLength="6.3623" x="821" y="62.5791">2</text><text fill="#000000" font-family="sans-serif" font-size="10" lengthAdjust="spacing" textLength="6.3623" x="877" y="62.5791">3</text><text fill="#000000" font-family="sans-serif" font-size="10" lengthAdjust="spacing" textLength="6.3623" x="933" y="62.5791">4</text><text fill="#000000" font-family="sans-serif" font-size="10" lengthAdjust="spacing" textLength="6.3623" x="989" y="62.5791">5</text><text fill="#000000" font-family="sans-serif" font-size="10" lengthAdjust="spacing" textLength="6.3623" x="1045" y="62.5791">6</text><text fill="#000000" font-family="sans-serif" font-size="10" lengthAdjust="spacing" textLength="6.3623" x="1101" y="62.5791">7</text><text fill="#000000" font-family="sans-serif" font-size="10" lengthAdjust="spacing" textLength="6.3623" x="1157" y="62.5791">8</text><text fill="#000000" font-family="sans-serif" font-size="10" lengthAdjust="spacing" textLength="6.3623" x="1213" y="62.5791">9</text><text fill="#000000" font-family="sans-serif" font-size="10" lengthAdjust="spacing" textLength="12.7246" x="1269" y="62.5791">10</text><text fill="#000000" font-family="sans-serif" font-size="10" lengthAdjust="spacing" textLength="12.7246" x="1325" y="62.5791">11</text><text fill="#000000" font-family="sans-serif" font-size="10" lengthAdjust="spacing" textLength="12.7246" x="1381" y="62.5791">12</text><text fill="#000000" font-family="sans-serif" font-size="10" lengthAdjust="spacing" textLength="12.7246" x="1437" y="62.5791">13</text><text fill="#000000" font-family="sans-serif" font-size="10" lengthAdjust="spacing" textLength="12.7246" x="1493" y="62.5791">14</text><text fill="#000000" font-family="sans-serif" font-size="10" lengthAdjust="spacing" textLength="12.7246" x="1549" y="62.5791">15</text><text fill="#000000" font-family="sans-serif" font-size="10" lengthAdjust="spacing" textLength="12.7246" x="1605" y="62.5791">16</text><text fill="#000000" font-family="sans-serif" font-size="10" lengthAdjust="spacing" textLength="12.7246" x="1661" y="62.5791">17</text><line style="stroke:#C0C0C0;stroke-width:1;" x1="32" x2="32" y1="53.2969" y2="485.8516"/><line style="stroke:#C0C0C0;stroke-width:1;" x1="88" x2="88" y1="53.2969" y2="485.8516"/><line style="stroke:#C0C0C0;stroke-width:1;" x1="144" x2="144" y1="53.2969" y2="485.8516"/><line style="stroke:#C0C0C0;stroke-width:1;" x1="200" x2="200" y1="53.2969" y2="485.8516"/><line style="stroke:#C0C0C0;stroke-width:1;" x1="256" x2="256" y1="53.2969" y2="485.8516"/><line style="stroke:#C0C0C0;stroke-width:1;" x1="312" x2="312" y1="53.2969" y2="485.8516"/><line style="stroke:#C0C0C0;stroke-width:1;" x1="368" x2="368" y1="53.2969" y2="485.8516"/><line style="stroke:#C0C0C0;stroke-width:1;" x1="424" x2="424" y1="53.2969" y2="485.8516"/><line style="stroke:#C0C0C0;stroke-width:1;" x1="480" x2="480" y1="53.2969" y2="485.8516"/><line style="stroke:#C0C0C0;stroke-width:1;" x1="536" x2="536" y1="53.2969" y2="485.8516"/><line style="stroke:#C0C0C0;stroke-width:1;" x1="592" x2="592" y1="53.2969" y2="485.8516"/><line style="stroke:#C0C0C0;stroke-width:1;" x1="648" x2="648" y1="53.2969" y2="485.8516"/><line style="stroke:#C0C0C0;stroke-width:1;" x1="704" x2="704" y1="53.2969" y2="485.8516"/><line style="stroke:#C0C0C0;stroke-width:1;" x1="760" x2="760" y1="53.2969" y2="485.8516"/><line style="stroke:#C0C0C0;stroke-width:1;" x1="816" x2="816" y1="53.2969" y2="485.8516"/><line style="stroke:#C0C0C0;stroke-width:1;" x1="872" x2="872" y1="53.2969" y2="485.8516"/><line style="stroke:#C0C0C0;stroke-width:1;" x1="928" x2="928" y1="53.2969" y2="485.8516"/><line style="stroke:#C0C0C0;stroke-width:1;" x1="984" x2="984" y1="53.2969" y2="485.8516"/><line style="stroke:#C0C0C0;stroke-width:1;" x1="1040" x2="1040" y1="53.2969" y2="485.8516"/><line style="stroke:#C0C0C0;stroke-width:1;" x1="1096" x2="1096" y1="53.2969" y2="485.8516"/><line style="stroke:#C0C0C0;stroke-width:1;" x1="1152" x2="1152" y1="53.2969" y2="485.8516"/><line style="stroke:#C0C0C0;stroke-width:1;" x1="1208" x2="1208" y1="53.2969" y2="485.8516"/><line style="stroke:#C0C0C0;stroke-width:1;" x1="1264" x2="1264" y1="53.2969" y2="485.8516"/><line style="stroke:#C0C0C0;stroke-width:1;" x1="1320" x2="1320" y1="53.2969" y2="485.8516"/><line style="stroke:#C0C0C0;stroke-width:1;" x1="1376" x2="1376" y1="53.2969" y2="485.8516"/><line style="stroke:#C0C0C0;stroke-width:1;" x1="1432" x2="1432" y1="53.2969" y2="485.8516"/><line style="stroke:#C0C0C0;stroke-width:1;" x1="1488" x2="1488" y1="53.2969" y2="485.8516"/><line style="stroke:#C0C0C0;stroke-width:1;" x1="1544" x2="1544" y1="53.2969" y2="485.8516"/><line style="stroke:#C0C0C0;stroke-width:1;" x1="1600" x2="1600" y1="53.2969" y2="485.8516"/><line style="stroke:#C0C0C0;stroke-width:1;" x1="1656" x2="1656" y1="53.2969" y2="485.8516"/><line style="stroke:#C0C0C0;stroke-width:1;" x1="1696" x2="1696" y1="53.2969" y2="485.8516"/><line style="stroke:#C0C0C0;stroke-width:1;" x1="0" x2="0" y1="37.2969" y2="53.2969"/><line style="stroke:#C0C0C0;stroke-width:1;" x1="248" x2="248" y1="37.2969" y2="53.2969"/><text fill="#000000" font-family="sans-serif" font-size="12" font-weight="bold" lengthAdjust="spacing" textLength="60.627" x="93.6865" y="48.4355">Oct 2026</text><line style="stroke:#C0C0C0;stroke-width:1;" x1="488" x2="488" y1="37.2969" y2="53.2969"/><text fill="#000000" font-family="sans-serif" font-size="12" font-weight="bold" lengthAdjust="spacing" textLength="63.6855" x="336.1572" y="48.4355">Nov 2026</text><line style="stroke:#C0C0C0;stroke-width:1;" x1="736" x2="736" y1="37.2969" y2="53.2969"/><text fill="#000000" font-family="sans-serif" font-size="12" font-weight="bold" lengthAdjust="spacing" textLength="62.7891" x="580.6055" y="48.4355">Dec 2026</text><line style="stroke:#C0C0C0;stroke-width:1;" x1="984" x2="984" y1="37.2969" y2="53.2969"/><text fill="#000000" font-family="sans-serif" font-size="12" font-weight="bold" lengthAdjust="spacing" textLength="58.6816" x="830.6592" y="48.4355">Jan 2027</text><line style="stroke:#C0C0C0;stroke-width:1;" x1="1208" x2="1208" y1="37.2969" y2="53.2969"/><text fill="#000000" font-family="sans-serif" font-size="12" font-weight="bold" lengthAdjust="spacing" textLength="62.502" x="1064.749" y="48.4355">Feb 2027</text><line style="stroke:#C0C0C0;stroke-width:1;" x1="1456" x2="1456" y1="37.2969" y2="53.2969"/><text fill="#000000" font-family="sans-serif" font-size="12" font-weight="bold" lengthAdjust="spacing" textLength="63.5332" x="1300.2334" y="48.4355">Mar 2027</text><line style="stroke:#C0C0C0;stroke-width:1;" x1="1696" x2="1696" y1="37.2969" y2="53.2969"/><text fill="#000000" font-family="sans-serif" font-size="12" font-weight="bold" lengthAdjust="spacing" textLength="61.3711" x="1545.3145" y="48.4355">Apr 2027</text><line style="stroke:#C0C0C0;stroke-width:1;" x1="0" x2="1696" y1="37.2969" y2="37.2969"/><line style="stroke:#C0C0C0;stroke-width:1;" x1="0" x2="1696" y1="53.2969" y2="53.2969"/><line style="stroke:#C0C0C0;stroke-width:1;" x1="0" x2="1696" y1="64.2969" y2="64.2969"/><rect fill="#F0F0F0" height="23.9688" style="stroke:none;stroke-width:1;" width="1696" x="0" y="69.2969"/><line style="stroke:#181818;stroke-width:1;" x1="0" x2="5" y1="81.2813" y2="81.2813"/><line style="stroke:#181818;stroke-width:1;" x1="304.7402" x2="1695" y1="81.2813" y2="81.2813"/><rect fill="#BBDEFB" height="12.8047" style="stroke:none;stroke-width:1;" width="116" x="2" y="100.2656"/><rect fill="none" height="12.8047" style="stroke:#1976D2;stroke-width:1;" width="116" x="2" y="100.2656"/><rect fill="#BBDEFB" height="12.8047" style="stroke:none;stroke-width:1;" width="188" x="58" y="117.0703"/><rect fill="none" height="12.8047" style="stroke:#1976D2;stroke-width:1;" width="188" x="58" y="117.0703"/><rect fill="#BBDEFB" height="12.8047" style="stroke:none;stroke-width:1;" width="252" x="114" y="133.875"/><rect fill="none" height="12.8047" style="stroke:#1976D2;stroke-width:1;" width="252" x="114" y="133.875"/><rect fill="#BBDEFB" height="12.8047" style="stroke:none;stroke-width:1;" width="244" x="250" y="150.6797"/><rect fill="none" height="12.8047" style="stroke:#1976D2;stroke-width:1;" width="244" x="250" y="150.6797"/><rect fill="#BBDEFB" height="12.8047" style="stroke:none;stroke-width:1;" width="244" x="362" y="167.4844"/><rect fill="none" height="12.8047" style="stroke:#1976D2;stroke-width:1;" width="244" x="362" y="167.4844"/><rect fill="#F0F0F0" height="23.9688" style="stroke:none;stroke-width:1;" width="1696" x="0" y="187.2891"/><line style="stroke:#181818;stroke-width:1;" x1="0" x2="5" y1="199.2734" y2="199.2734"/><line style="stroke:#181818;stroke-width:1;" x1="318.6152" x2="1695" y1="199.2734" y2="199.2734"/><rect fill="#C8E6C9" height="12.8047" style="stroke:none;stroke-width:1;" width="364" x="490" y="218.2578"/><rect fill="none" height="12.8047" style="stroke:#388E3C;stroke-width:1;" width="364" x="490" y="218.2578"/><rect fill="#C8E6C9" height="12.8047" style="stroke:none;stroke-width:1;" width="364" x="602" y="235.0625"/><rect fill="none" height="12.8047" style="stroke:#388E3C;stroke-width:1;" width="364" x="602" y="235.0625"/><rect fill="#C8E6C9" height="12.8047" style="stroke:none;stroke-width:1;" width="348" x="738" y="251.8672"/><rect fill="none" height="12.8047" style="stroke:#388E3C;stroke-width:1;" width="348" x="738" y="251.8672"/><rect fill="#C8E6C9" height="12.8047" style="stroke:none;stroke-width:1;" width="364" x="738" y="268.6719"/><rect fill="none" height="12.8047" style="stroke:#388E3C;stroke-width:1;" width="364" x="738" y="268.6719"/><rect fill="#F0F0F0" height="23.9688" style="stroke:none;stroke-width:1;" width="1696" x="0" y="288.4766"/><line style="stroke:#181818;stroke-width:1;" x1="0" x2="5" y1="300.4609" y2="300.4609"/><line style="stroke:#181818;stroke-width:1;" x1="290.2559" x2="1695" y1="300.4609" y2="300.4609"/><rect fill="#FFE0B2" height="12.8047" style="stroke:none;stroke-width:1;" width="228" x="1098" y="319.4453"/><rect fill="none" height="12.8047" style="stroke:#E65100;stroke-width:1;" width="228" x="1098" y="319.4453"/><rect fill="#FFE0B2" height="12.8047" style="stroke:none;stroke-width:1;" width="228" x="1210" y="336.25"/><rect fill="none" height="12.8047" style="stroke:#E65100;stroke-width:1;" width="228" x="1210" y="336.25"/><rect fill="#FFE0B2" height="12.8047" style="stroke:none;stroke-width:1;" width="228" x="1322" y="353.0547"/><rect fill="none" height="12.8047" style="stroke:#E65100;stroke-width:1;" width="228" x="1322" y="353.0547"/><rect fill="#FFE0B2" height="12.8047" style="stroke:none;stroke-width:1;" width="236" x="1458" y="369.8594"/><rect fill="none" height="12.8047" style="stroke:#E65100;stroke-width:1;" width="236" x="1458" y="369.8594"/><rect fill="#F0F0F0" height="23.9688" style="stroke:none;stroke-width:1;" width="1696" x="0" y="389.6641"/><line style="stroke:#181818;stroke-width:1;" x1="0" x2="5" y1="401.6484" y2="401.6484"/><line style="stroke:#181818;stroke-width:1;" x1="88.2539" x2="1695" y1="401.6484" y2="401.6484"/><polygon fill="#FF4500" points="116,420.6328,121,425.6328,116,430.6328,111,425.6328" style="stroke:#FF4500;stroke-width:1;"/><polygon fill="#FF4500" points="492,437.4375,497,442.4375,492,447.4375,487,442.4375" style="stroke:#FF4500;stroke-width:1;"/><polygon fill="#FF4500" points="1100,454.2422,1105,459.2422,1100,464.2422,1095,459.2422" style="stroke:#FF4500;stroke-width:1;"/><polygon fill="#FF4500" points="1692,471.0469,1697,476.0469,1692,481.0469,1687,476.0469" style="stroke:#FF4500;stroke-width:1;"/><text fill="#000000" font-family="sans-serif" font-size="12" font-weight="bold" lengthAdjust="spacing" textLength="289.7402" x="10" y="85.4355">Phase 1: Foundation &amp; WordPress Pipeline</text><text fill="#000000" font-family="sans-serif" font-size="11" lengthAdjust="spacing" textLength="128.5249" x="122" y="110.4761">Discovery &amp; Data Audit</text><text fill="#000000" font-family="sans-serif" font-size="11" lengthAdjust="spacing" textLength="132.9238" x="62" y="127.2808">Snowflake Setup &amp; Infra</text><text fill="#000000" font-family="sans-serif" font-size="11" lengthAdjust="spacing" textLength="184.4487" x="118" y="144.0854">WordPress DB Extraction Pipeline</text><text fill="#000000" font-family="sans-serif" font-size="11" lengthAdjust="spacing" textLength="137.1616" x="254" y="160.8901">ETL Pipeline (WordPress)</text><text fill="#000000" font-family="sans-serif" font-size="11" lengthAdjust="spacing" textLength="130.3833" x="366" y="177.6948">Email Validation Engine</text><text fill="#000000" font-family="sans-serif" font-size="12" font-weight="bold" lengthAdjust="spacing" textLength="303.6152" x="10" y="203.4277">Phase 2: Suggestion Engine &amp; Email Channel</text><text fill="#000000" font-family="sans-serif" font-size="11" lengthAdjust="spacing" textLength="170.7632" x="494" y="228.4683">Customer Segmentation Model</text><text fill="#000000" font-family="sans-serif" font-size="11" lengthAdjust="spacing" textLength="138.3486" x="606" y="245.2729">Recommendation Engine</text><text fill="#000000" font-family="sans-serif" font-size="11" lengthAdjust="spacing" textLength="153.9946" x="742" y="262.0776">Email Campaign Integration</text><text fill="#000000" font-family="sans-serif" font-size="11" lengthAdjust="spacing" textLength="113.3193" x="742" y="278.8823">Analytics Dashboard</text><text fill="#000000" font-family="sans-serif" font-size="12" font-weight="bold" lengthAdjust="spacing" textLength="275.2559" x="10" y="304.6152">Phase 3: Mobile &amp; Wholesaler Expansion</text><text fill="#000000" font-family="sans-serif" font-size="11" lengthAdjust="spacing" textLength="172.9492" x="1102" y="329.6558">Mobile Vendor Data Integration</text><text fill="#000000" font-family="sans-serif" font-size="11" lengthAdjust="spacing" textLength="156.9434" x="1214" y="346.4604">Wholesaler Data Connectors</text><text fill="#000000" font-family="sans-serif" font-size="11" lengthAdjust="spacing" textLength="138.2305" x="1326" y="363.2651">Mobile Push Notifications</text><text fill="#000000" font-family="sans-serif" font-size="11" lengthAdjust="spacing" textLength="108.1899" x="1462" y="380.0698">UAT &amp; Optimisation</text><text fill="#000000" font-family="sans-serif" font-size="12" font-weight="bold" lengthAdjust="spacing" textLength="73.2539" x="10" y="405.8027">Milestones</text><text fill="#000000" font-family="sans-serif" font-size="11" font-weight="bold" lengthAdjust="spacing" textLength="129.0566" x="124" y="430.8433">Data Audit Complete</text><text fill="#000000" font-family="sans-serif" font-size="11" font-weight="bold" lengthAdjust="spacing" textLength="150.1006" x="500" y="447.6479">WordPress Pipeline Live</text><text fill="#000000" font-family="sans-serif" font-size="11" font-weight="bold" lengthAdjust="spacing" textLength="164.146" x="1108" y="464.4526">First Email Campaign Sent</text><text fill="#000000" font-family="sans-serif" font-size="11" font-weight="bold" lengthAdjust="spacing" textLength="130.8506" x="1700" y="481.2573">Full Platform Go-Live</text><line style="stroke:#C0C0C0;stroke-width:1;" x1="0" x2="1696" y1="485.8516" y2="485.8516"/><line style="stroke:#C0C0C0;stroke-width:1;" x1="0" x2="0" y1="485.8516" y2="501.8516"/><line style="stroke:#C0C0C0;stroke-width:1;" x1="248" x2="248" y1="485.8516" y2="501.8516"/><text fill="#000000" font-family="sans-serif" font-size="12" font-weight="bold" lengthAdjust="spacing" textLength="60.627" x="93.6865" y="496.9902">Oct 2026</text><line style="stroke:#C0C0C0;stroke-width:1;" x1="488" x2="488" y1="485.8516" y2="501.8516"/><text fill="#000000" font-family="sans-serif" font-size="12" font-weight="bold" lengthAdjust="spacing" textLength="63.6855" x="336.1572" y="496.9902">Nov 2026</text><line style="stroke:#C0C0C0;stroke-width:1;" x1="736" x2="736" y1="485.8516" y2="501.8516"/><text fill="#000000" font-family="sans-serif" font-size="12" font-weight="bold" lengthAdjust="spacing" textLength="62.7891" x="580.6055" y="496.9902">Dec 2026</text><line style="stroke:#C0C0C0;stroke-width:1;" x1="984" x2="984" y1="485.8516" y2="501.8516"/><text fill="#000000" font-family="sans-serif" font-size="12" font-weight="bold" lengthAdjust="spacing" textLength="58.6816" x="830.6592" y="496.9902">Jan 2027</text><line style="stroke:#C0C0C0;stroke-width:1;" x1="1208" x2="1208" y1="485.8516" y2="501.8516"/><text fill="#000000" font-family="sans-serif" font-size="12" font-weight="bold" lengthAdjust="spacing" textLength="62.502" x="1064.749" y="496.9902">Feb 2027</text><line style="stroke:#C0C0C0;stroke-width:1;" x1="1456" x2="1456" y1="485.8516" y2="501.8516"/><text fill="#000000" font-family="sans-serif" font-size="12" font-weight="bold" lengthAdjust="spacing" textLength="63.5332" x="1300.2334" y="496.9902">Mar 2027</text><line style="stroke:#C0C0C0;stroke-width:1;" x1="1696" x2="1696" y1="485.8516" y2="501.8516"/><text fill="#000000" font-family="sans-serif" font-size="12" font-weight="bold" lengthAdjust="spacing" textLength="61.3711" x="1545.3145" y="496.9902">Apr 2027</text><line style="stroke:#C0C0C0;stroke-width:1;" x1="0" x2="1696" y1="501.8516" y2="501.8516"/><g class="legend" data-source-line="62"><rect fill="#DDDDDD" height="79.1875" rx="7.5" ry="7.5" style="stroke:#000000;stroke-width:1;" width="164.6836" x="1518.3164" y="513.8516"/><rect fill="#BBDEFB" height="16.2969" style="stroke:none;stroke-width:1;" width="154.6836" x="1523.3164" y="520.8516"/><text fill="#000000" font-family="sans-serif" font-size="14" lengthAdjust="spacing" textLength="142.9736" x="1527.7666" y="533.8467">Phase 1: Foundation</text><rect fill="#C8E6C9" height="16.2969" style="stroke:none;stroke-width:1;" width="154.6836" x="1523.3164" y="537.1484"/><text fill="#000000" font-family="sans-serif" font-size="14" lengthAdjust="spacing" textLength="145.7832" x="1527.7666" y="550.1436">Phase 2: Intelligence</text><rect fill="#FFE0B2" height="16.2969" style="stroke:none;stroke-width:1;" width="154.6836" x="1523.3164" y="553.4453"/><text fill="#000000" font-family="sans-serif" font-size="14" lengthAdjust="spacing" textLength="136.418" x="1527.7666" y="566.4404">Phase 3: Expansion</text><rect fill="#FF4500" height="16.2969" style="stroke:none;stroke-width:1;" width="154.6836" x="1523.3164" y="569.7422"/><text fill="#000000" font-family="sans-serif" font-size="14" lengthAdjust="spacing" textLength="67.3066" x="1527.7666" y="582.7373">Milestone</text><line style="stroke:#000000;stroke-width:1;" x1="1523.3164" x2="1678" y1="520.8516" y2="520.8516"/><line style="stroke:#000000;stroke-width:1;" x1="1523.3164" x2="1678" y1="537.1484" y2="537.1484"/><line style="stroke:#000000;stroke-width:1;" x1="1523.3164" x2="1678" y1="553.4453" y2="553.4453"/><line style="stroke:#000000;stroke-width:1;" x1="1523.3164" x2="1678" y1="569.7422" y2="569.7422"/><line style="stroke:#000000;stroke-width:1;" x1="1523.3164" x2="1678" y1="586.0391" y2="586.0391"/><line style="stroke:#000000;stroke-width:1;" x1="1523.3164" x2="1523.3164" y1="520.8516" y2="586.0391"/><line style="stroke:#000000;stroke-width:1;" x1="1678" x2="1678" y1="520.8516" y2="586.0391"/></g><!--SRC=[ZLRTRjf85BwVfpWIqYgHrerj824eGWr_KIlOef1aBwAz6Ep1p6OyWsR6j7HRQHzYdt2VP8zjm5iRJ8L0U7pE-RxpF- -DfTf6L5fBBBU2mP1QwWmrtp09WyHO5JCD8ndHYCLCMfW9QfTAn_3lt__03SHAsfNv5TeGieqXQysbDG55GvyPUnDR-AfK33w-K7-om4A6Py1t_Ml7SntN8-JEsArWFPAn678QQHh3NmJ0KlEM_G4O8yoSVsNWUVZy7Ryn5mpPINPKOlUS6eQ54c5srAV1suDMYGm7IYWDdpIL4Nja-Ti9bwnwda8PjgQQMdnJXl9_5genTjDFPl0xkRlQkKmS1sOhQj1K5ysWEBLSIVW5VbSwd6bc3CpucWda1ev3NeVS16h3z1P5qap1VH9o-qSrh41b24o6nPdNFgtE3GGfJnO2bz3ezuUZSV-guTtUN0zzyZgNwlDIq3S6SsQJDIf_a4jDgx2TAcpJgz4_Wri4OTY7qHUhQP25Pn-I2W6lNIRWPNwVDtI6oUXfKYJYuc3kiiJ0En9vFoto6WFda6FA1RnGmNUrWRrOTTqxuhgVkNvIlnwtg4o_2_CaYh3P2ctCO6vtiA9ICf7Lvc5Qp5cKZeeSRgf29afi_NAORl0WOrjheyHuq1bT3swl6irEPzGSaDT75gWObUhYv9VZb27xjoUrps3kea3ZDUMHnBAs3CTNQk7_m1b8rMKaqwmtSGRzNbAnjJp0igPcjL1KXpy7spwXMuzNr4IpYpbPu0HE9zLAuIJ6YOzhuikQIfE6Bws7dSGBGkC4pCRDwVWSIqmp8thEJ8dpU3no-_vLOtJTzbmNMx-Wb-aE51PiWCFSb1WqZuIgcPL6dOapw3loiyIiu3Tb-P876UqgUDNz5fPhhOKpsC_tJvYUJslBOswEnRnrnEEMqpoXMe-MriPqlv9DlgiE2mOZ5gy5izXFAxfUC_dZLZgowoPu_oWBvuDqpBMnK6gQEOwA7yGFPJvEX2ZkB0_AgLZUEqq4Yp0Ge7cqihYelztjPcBlw8h-belaBT8hPcLQcq9mD1MmlL0UgrxHF4MZx2GELuvU4KLyb_B9QP7t-9FVqmYw8-tpT0AuoJCZtZlqe_tESo-U4ePLiW6t1TvDrtUxhLjuVXgaVhOloSN3R0969HgfXTnOpHT9wimb-KWt51uJYGbdNNZGb8gNwVu0X-66QoNJWKm-lapJXR10RMgnBQTao9Oq4PWJ6QYGowYBY6EdGoReKeBNnYv8J08POEoitkPF_m40]--></g></svg>