<svg xmlns="http://www.w3.org/2000/svg" xmlns:xlink="http://www.w3.org/1999/xlink" contentStyleType="text/css" data-diagram-type="GANTT" height="892px" preserveAspectRatio="none" style="width:1832px;height:892px;background:#FFFFFF;" version="1.1" viewBox="0 0 1832 892" width="1832px" zoomAndPan="magnify"><title>Data-Driven Customer Engagement Platform &#8212; Work Streams (7 months, 5 devs)</title><defs/><g><g class="title" data-source-line="1"><text fill="#000000" font-family="sans-serif" font-size="14" font-weight="bold" lengthAdjust="spacing" textLength="641.7578" x="526.6211" y="22.9951">Data-Driven Customer Engagement Platform &#8212; Work Streams (7 months, 5 devs)</text></g><text fill="#000000" font-family="sans-serif" font-size="10" lengthAdjust="spacing" textLength="12.7246" x="37" y="62.5791">41</text><text fill="#000000" font-family="sans-serif" font-size="10" lengthAdjust="spacing" textLength="12.7246" x="93" y="62.5791">42</text><text fill="#000000" font-family="sans-serif" font-size="10" lengthAdjust="spacing" textLength="12.7246" x="149" y="62.5791">43</text><text fill="#000000" font-family="sans-serif" font-size="10" lengthAdjust="spacing" textLength="12.7246" x="205" y="62.5791">44</text><text fill="#000000" font-family="sans-serif" font-size="10" lengthAdjust="spacing" textLength="12.7246" x="261" y="62.5791">45</text><text fill="#000000" font-family="sans-serif" font-size="10" lengthAdjust="spacing" textLength="12.7246" x="317" y="62.5791">46</text><text fill="#000000" font-family="sans-serif" font-size="10" lengthAdjust="spacing" textLength="12.7246" x="373" y="62.5791">47</text><text fill="#000000" font-family="sans-serif" font-size="10" lengthAdjust="spacing" textLength="12.7246" x="429" y="62.5791">48</text><text fill="#000000" font-family="sans-serif" font-size="10" lengthAdjust="spacing" textLength="12.7246" x="485" y="62.5791">49</text><text fill="#000000" font-family="sans-serif" font-size="10" lengthAdjust="spacing" textLength="12.7246" x="541" y="62.5791">50</text><text fill="#000000" font-family="sans-serif" font-size="10" lengthAdjust="spacing" textLength="12.7246" x="597" y="62.5791">51</text><text fill="#000000" font-family="sans-serif" font-size="10" lengthAdjust="spacing" textLength="12.7246" x="653" y="62.5791">52</text><text fill="#000000" font-family="sans-serif" font-size="10" lengthAdjust="spacing" textLength="12.7246" x="709" y="62.5791">53</text><text fill="#000000" font-family="sans-serif" font-size="10" lengthAdjust="spacing" textLength="6.3623" x="765" y="62.5791">1</text><text fill="#000000" font-family="sans-serif" font-size="10" lengthAdjust="spacing" textLength="6.3623" x="821" y="62.5791">2</text><text fill="#000000" font-family="sans-serif" font-size="10" lengthAdjust="spacing" textLength="6.3623" x="877" y="62.5791">3</text><text fill="#000000" font-family="sans-serif" font-size="10" lengthAdjust="spacing" textLength="6.3623" x="933" y="62.5791">4</text><text fill="#000000" font-family="sans-serif" font-size="10" lengthAdjust="spacing" textLength="6.3623" x="989" y="62.5791">5</text><text fill="#000000" font-family="sans-serif" font-size="10" lengthAdjust="spacing" textLength="6.3623" x="1045" y="62.5791">6</text><text fill="#000000" font-family="sans-serif" font-size="10" lengthAdjust="spacing" textLength="6.3623" x="1101" y="62.5791">7</text><text fill="#000000" font-family="sans-serif" font-size="10" lengthAdjust="spacing" textLength="6.3623" x="1157" y="62.5791">8</text><text fill="#000000" font-family="sans-serif" font-size="10" lengthAdjust="spacing" textLength="6.3623" x="1213" y="62.5791">9</text><text fill="#000000" font-family="sans-serif" font-size="10" lengthAdjust="spacing" textLength="12.7246" x="1269" y="62.5791">10</text><text fill="#000000" font-family="sans-serif" font-size="10" lengthAdjust="spacing" textLength="12.7246" x="1325" y="62.5791">11</text><text fill="#000000" font-family="sans-serif" font-size="10" lengthAdjust="spacing" textLength="12.7246" x="1381" y="62.5791">12</text><text fill="#000000" font-family="sans-serif" font-size="10" lengthAdjust="spacing" textLength="12.7246" x="1437" y="62.5791">13</text><text fill="#000000" font-family="sans-serif" font-size="10" lengthAdjust="spacing" textLength="12.7246" x="1493" y="62.5791">14</text><text fill="#000000" font-family="sans-serif" font-size="10" lengthAdjust="spacing" textLength="12.7246" x="1549" y="62.5791">15</text><text fill="#000000" font-family="sans-serif" font-size="10" lengthAdjust="spacing" textLength="12.7246" x="1605" y="62.5791">16</text><text fill="#000000" font-family="sans-serif" font-size="10" lengthAdjust="spacing" textLength="12.7246" x="1661" y="62.5791">17</text><line style="stroke:#C0C0C0;stroke-width:1;" x1="32" x2="32" y1="53.2969" y2="672.5"/><line style="stroke:#C0C0C0;stroke-width:1;" x1="88" x2="88" y1="53.2969" y2="672.5"/><line style="stroke:#C0C0C0;stroke-width:1;" x1="144" x2="144" y1="53.2969" y2="672.5"/><line style="stroke:#C0C0C0;stroke-width:1;" x1="200" x2="200" y1="53.2969" y2="672.5"/><line style="stroke:#C0C0C0;stroke-width:1;" x1="256" x2="256" y1="53.2969" y2="672.5"/><line style="stroke:#C0C0C0;stroke-width:1;" x1="312" x2="312" y1="53.2969" y2="672.5"/><line style="stroke:#C0C0C0;stroke-width:1;" x1="368" x2="368" y1="53.2969" y2="672.5"/><line style="stroke:#C0C0C0;stroke-width:1;" x1="424" x2="424" y1="53.2969" y2="672.5"/><line style="stroke:#C0C0C0;stroke-width:1;" x1="480" x2="480" y1="53.2969" y2="672.5"/><line style="stroke:#C0C0C0;stroke-width:1;" x1="536" x2="536" y1="53.2969" y2="672.5"/><line style="stroke:#C0C0C0;stroke-width:1;" x1="592" x2="592" y1="53.2969" y2="672.5"/><line style="stroke:#C0C0C0;stroke-width:1;" x1="648" x2="648" y1="53.2969" y2="672.5"/><line style="stroke:#C0C0C0;stroke-width:1;" x1="704" x2="704" y1="53.2969" y2="672.5"/><line style="stroke:#C0C0C0;stroke-width:1;" x1="760" x2="760" y1="53.2969" y2="672.5"/><line style="stroke:#C0C0C0;stroke-width:1;" x1="816" x2="816" y1="53.2969" y2="672.5"/><line style="stroke:#C0C0C0;stroke-width:1;" x1="872" x2="872" y1="53.2969" y2="672.5"/><line style="stroke:#C0C0C0;stroke-width:1;" x1="928" x2="928" y1="53.2969" y2="672.5"/><line style="stroke:#C0C0C0;stroke-width:1;" x1="984" x2="984" y1="53.2969" y2="672.5"/><line style="stroke:#C0C0C0;stroke-width:1;" x1="1040" x2="1040" y1="53.2969" y2="672.5"/><line style="stroke:#C0C0C0;stroke-width:1;" x1="1096" x2="1096" y1="53.2969" y2="672.5"/><line style="stroke:#C0C0C0;stroke-width:1;" x1="1152" x2="1152" y1="53.2969" y2="672.5"/><line style="stroke:#C0C0C0;stroke-width:1;" x1="1208" x2="1208" y1="53.2969" y2="672.5"/><line style="stroke:#C0C0C0;stroke-width:1;" x1="1264" x2="1264" y1="53.2969" y2="672.5"/><line style="stroke:#C0C0C0;stroke-width:1;" x1="1320" x2="1320" y1="53.2969" y2="672.5"/><line style="stroke:#C0C0C0;stroke-width:1;" x1="1376" x2="1376" y1="53.2969" y2="672.5"/><line style="stroke:#C0C0C0;stroke-width:1;" x1="1432" x2="1432" y1="53.2969" y2="672.5"/><line style="stroke:#C0C0C0;stroke-width:1;" x1="1488" x2="1488" y1="53.2969" y2="672.5"/><line style="stroke:#C0C0C0;stroke-width:1;" x1="1544" x2="1544" y1="53.2969" y2="672.5"/><line style="stroke:#C0C0C0;stroke-width:1;" x1="1600" x2="1600" y1="53.2969" y2="672.5"/><line style="stroke:#C0C0C0;stroke-width:1;" x1="1656" x2="1656" y1="53.2969" y2="672.5"/><line style="stroke:#C0C0C0;stroke-width:1;" x1="1696" x2="1696" y1="53.2969" y2="672.5"/><line style="stroke:#C0C0C0;stroke-width:1;" x1="0" x2="0" y1="37.2969" y2="53.2969"/><line style="stroke:#C0C0C0;stroke-width:1;" x1="248" x2="248" y1="37.2969" y2="53.2969"/><text fill="#000000" font-family="sans-serif" font-size="12" font-weight="bold" lengthAdjust="spacing" textLength="60.627" x="93.6865" y="48.4355">Oct 2026</text><line style="stroke:#C0C0C0;stroke-width:1;" x1="488" x2="488" y1="37.2969" y2="53.2969"/><text fill="#000000" font-family="sans-serif" font-size="12" font-weight="bold" lengthAdjust="spacing" textLength="63.6855" x="336.1572" y="48.4355">Nov 2026</text><line style="stroke:#C0C0C0;stroke-width:1;" x1="736" x2="736" y1="37.2969" y2="53.2969"/><text fill="#000000" font-family="sans-serif" font-size="12" font-weight="bold" lengthAdjust="spacing" textLength="62.7891" x="580.6055" y="48.4355">Dec 2026</text><line style="stroke:#C0C0C0;stroke-width:1;" x1="984" x2="984" y1="37.2969" y2="53.2969"/><text fill="#000000" font-family="sans-serif" font-size="12" font-weight="bold" lengthAdjust="spacing" textLength="58.6816" x="830.6592" y="48.4355">Jan 2027</text><line style="stroke:#C0C0C0;stroke-width:1;" x1="1208" x2="1208" y1="37.2969" y2="53.2969"/><text fill="#000000" font-family="sans-serif" font-size="12" font-weight="bold" lengthAdjust="spacing" textLength="62.502" x="1064.749" y="48.4355">Feb 2027</text><line style="stroke:#C0C0C0;stroke-width:1;" x1="1456" x2="1456" y1="37.2969" y2="53.2969"/><text fill="#000000" font-family="sans-serif" font-size="12" font-weight="bold" lengthAdjust="spacing" textLength="63.5332" x="1300.2334" y="48.4355">Mar 2027</text><line style="stroke:#C0C0C0;stroke-width:1;" x1="1696" x2="1696" y1="37.2969" y2="53.2969"/><text fill="#000000" font-family="sans-serif" font-size="12" font-weight="bold" lengthAdjust="spacing" textLength="61.3711" x="1545.3145" y="48.4355">Apr 2027</text><line style="stroke:#C0C0C0;stroke-width:1;" x1="0" x2="1696" y1="37.2969" y2="37.2969"/><line style="stroke:#C0C0C0;stroke-width:1;" x1="0" x2="1696" y1="53.2969" y2="53.2969"/><line style="stroke:#C0C0C0;stroke-width:1;" x1="0" x2="1696" y1="64.2969" y2="64.2969"/><rect fill="#F0F0F0" height="23.9688" style="stroke:none;stroke-width:1;" width="1696" x="0" y="69.2969"/><line style="stroke:#181818;stroke-width:1;" x1="0" x2="5" y1="81.2813" y2="81.2813"/><line style="stroke:#181818;stroke-width:1;" x1="154.0723" x2="1695" y1="81.2813" y2="81.2813"/><rect fill="#E0E0E0" height="12.8047" style="stroke:none;stroke-width:1;" width="116" x="2" y="100.2656"/><rect fill="none" height="12.8047" style="stroke:#616161;stroke-width:1;" width="116" x="2" y="100.2656"/><rect fill="#BBDEFB" height="12.8047" style="stroke:none;stroke-width:1;" width="188" x="58" y="117.0703"/><rect fill="none" height="12.8047" style="stroke:#1565C0;stroke-width:1;" width="188" x="58" y="117.0703"/><rect fill="#F0F0F0" height="23.9688" style="stroke:none;stroke-width:1;" width="1696" x="0" y="136.875"/><line style="stroke:#181818;stroke-width:1;" x1="0" x2="5" y1="148.8594" y2="148.8594"/><line style="stroke:#181818;stroke-width:1;" x1="308.2969" x2="1695" y1="148.8594" y2="148.8594"/><rect fill="#B3E5FC" height="12.8047" style="stroke:none;stroke-width:1;" width="252" x="114" y="167.8438"/><rect fill="none" height="12.8047" style="stroke:#0277BD;stroke-width:1;" width="252" x="114" y="167.8438"/><rect fill="#B3E5FC" height="12.8047" style="stroke:none;stroke-width:1;" width="244" x="250" y="184.6484"/><rect fill="none" height="12.8047" style="stroke:#0277BD;stroke-width:1;" width="244" x="250" y="184.6484"/><rect fill="#B2EBF2" height="12.8047" style="stroke:none;stroke-width:1;" width="244" x="362" y="201.4531"/><rect fill="none" height="12.8047" style="stroke:#00838F;stroke-width:1;" width="244" x="362" y="201.4531"/><rect fill="#F0F0F0" height="23.9688" style="stroke:none;stroke-width:1;" width="1696" x="0" y="221.2578"/><line style="stroke:#181818;stroke-width:1;" x1="0" x2="5" y1="233.2422" y2="233.2422"/><line style="stroke:#181818;stroke-width:1;" x1="261.9258" x2="1695" y1="233.2422" y2="233.2422"/><rect fill="#C8E6C9" height="12.8047" style="stroke:none;stroke-width:1;" width="364" x="490" y="252.2266"/><rect fill="none" height="12.8047" style="stroke:#2E7D32;stroke-width:1;" width="364" x="490" y="252.2266"/><rect fill="#C8E6C9" height="12.8047" style="stroke:none;stroke-width:1;" width="364" x="602" y="269.0313"/><rect fill="none" height="12.8047" style="stroke:#2E7D32;stroke-width:1;" width="364" x="602" y="269.0313"/><rect fill="#F0F0F0" height="23.9688" style="stroke:none;stroke-width:1;" width="1696" x="0" y="288.8359"/><line style="stroke:#181818;stroke-width:1;" x1="0" x2="5" y1="300.8203" y2="300.8203"/><line style="stroke:#181818;stroke-width:1;" x1="237.6094" x2="1695" y1="300.8203" y2="300.8203"/><rect fill="#FFF9C4" height="12.8047" style="stroke:none;stroke-width:1;" width="348" x="738" y="319.8047"/><rect fill="none" height="12.8047" style="stroke:#F57F17;stroke-width:1;" width="348" x="738" y="319.8047"/><rect fill="#FFF9C4" height="12.8047" style="stroke:none;stroke-width:1;" width="164" x="986" y="336.6094"/><rect fill="none" height="12.8047" style="stroke:#F57F17;stroke-width:1;" width="164" x="986" y="336.6094"/><rect fill="#F0F0F0" height="23.9688" style="stroke:none;stroke-width:1;" width="1696" x="0" y="356.4141"/><line style="stroke:#181818;stroke-width:1;" x1="0" x2="5" y1="368.3984" y2="368.3984"/><line style="stroke:#181818;stroke-width:1;" x1="283.084" x2="1695" y1="368.3984" y2="368.3984"/><rect fill="#FFE0B2" height="12.8047" style="stroke:none;stroke-width:1;" width="364" x="738" y="387.3828"/><rect fill="none" height="12.8047" style="stroke:#E65100;stroke-width:1;" width="364" x="738" y="387.3828"/><rect fill="#F0F0F0" height="23.9688" style="stroke:none;stroke-width:1;" width="1696" x="0" y="407.1875"/><line style="stroke:#181818;stroke-width:1;" x1="0" x2="5" y1="419.1719" y2="419.1719"/><line style="stroke:#181818;stroke-width:1;" x1="202.6641" x2="1695" y1="419.1719" y2="419.1719"/><rect fill="#F8BBD0" height="12.8047" style="stroke:none;stroke-width:1;" width="228" x="1098" y="438.1563"/><rect fill="none" height="12.8047" style="stroke:#AD1457;stroke-width:1;" width="228" x="1098" y="438.1563"/><rect fill="#F8BBD0" height="12.8047" style="stroke:none;stroke-width:1;" width="228" x="1322" y="454.9609"/><rect fill="none" height="12.8047" style="stroke:#AD1457;stroke-width:1;" width="228" x="1322" y="454.9609"/><rect fill="#F0F0F0" height="23.9688" style="stroke:none;stroke-width:1;" width="1696" x="0" y="474.7656"/><line style="stroke:#181818;stroke-width:1;" x1="0" x2="5" y1="486.75" y2="486.75"/><line style="stroke:#181818;stroke-width:1;" x1="299.7422" x2="1695" y1="486.75" y2="486.75"/><rect fill="#F8BBD0" height="12.8047" style="stroke:none;stroke-width:1;" width="228" x="1210" y="505.7344"/><rect fill="none" height="12.8047" style="stroke:#AD1457;stroke-width:1;" width="228" x="1210" y="505.7344"/><rect fill="#F0F0F0" height="23.9688" style="stroke:none;stroke-width:1;" width="1696" x="0" y="525.5391"/><line style="stroke:#181818;stroke-width:1;" x1="0" x2="5" y1="537.5234" y2="537.5234"/><line style="stroke:#181818;stroke-width:1;" x1="188.8184" x2="1695" y1="537.5234" y2="537.5234"/><rect fill="#E1BEE7" height="12.8047" style="stroke:none;stroke-width:1;" width="236" x="1458" y="556.5078"/><rect fill="none" height="12.8047" style="stroke:#6A1B9A;stroke-width:1;" width="236" x="1458" y="556.5078"/><rect fill="#F0F0F0" height="23.9688" style="stroke:none;stroke-width:1;" width="1696" x="0" y="576.3125"/><line style="stroke:#181818;stroke-width:1;" x1="0" x2="5" y1="588.2969" y2="588.2969"/><line style="stroke:#181818;stroke-width:1;" x1="88.2539" x2="1695" y1="588.2969" y2="588.2969"/><polygon fill="#FF4500" points="116,607.2813,121,612.2813,116,617.2813,111,612.2813" style="stroke:#FF4500;stroke-width:1;"/><polygon fill="#FF4500" points="492,624.0859,497,629.0859,492,634.0859,487,629.0859" style="stroke:#FF4500;stroke-width:1;"/><polygon fill="#FF4500" points="1204,640.8906,1209,645.8906,1204,650.8906,1199,645.8906" style="stroke:#FF4500;stroke-width:1;"/><polygon fill="#FF4500" points="1692,657.6953,1697,662.6953,1692,667.6953,1687,662.6953" style="stroke:#FF4500;stroke-width:1;"/><text fill="#000000" font-family="sans-serif" font-size="12" font-weight="bold" lengthAdjust="spacing" textLength="139.0723" x="10" y="85.4355">Phase 1: Foundation</text><text fill="#000000" font-family="sans-serif" font-size="11" lengthAdjust="spacing" textLength="140.6421" x="122" y="110.4761">Discovery and Data Audit</text><text fill="#000000" font-family="sans-serif" font-size="11" lengthAdjust="spacing" textLength="145.041" x="62" y="127.2808">Snowflake Setup and Infra</text><text fill="#000000" font-family="sans-serif" font-size="12" font-weight="bold" lengthAdjust="spacing" textLength="293.2969" x="10" y="153.0137">Phase 1: WordPress Data Pipeline (Critical)</text><text fill="#000000" font-family="sans-serif" font-size="11" lengthAdjust="spacing" textLength="137.6611" x="118" y="178.0542">WordPress DB Extraction</text><text fill="#000000" font-family="sans-serif" font-size="11" lengthAdjust="spacing" textLength="112.5513" x="254" y="194.8589">ETL Pipeline and dbt</text><text fill="#000000" font-family="sans-serif" font-size="11" lengthAdjust="spacing" textLength="130.3833" x="366" y="211.6636">Email Validation Engine</text><text fill="#000000" font-family="sans-serif" font-size="12" font-weight="bold" lengthAdjust="spacing" textLength="246.9258" x="10" y="237.3965">Phase 2: Intelligence Layer (Critical)</text><text fill="#000000" font-family="sans-serif" font-size="11" lengthAdjust="spacing" textLength="134.2397" x="494" y="262.437">Customer Segmentation</text><text fill="#000000" font-family="sans-serif" font-size="11" lengthAdjust="spacing" textLength="138.3486" x="606" y="279.2417">Recommendation Engine</text><text fill="#000000" font-family="sans-serif" font-size="12" font-weight="bold" lengthAdjust="spacing" textLength="222.6094" x="10" y="304.9746">Phase 2: Email Delivery (Critical)</text><text fill="#000000" font-family="sans-serif" font-size="11" lengthAdjust="spacing" textLength="153.9946" x="742" y="330.0151">Email Campaign Integration</text><text fill="#000000" font-family="sans-serif" font-size="11" lengthAdjust="spacing" textLength="167.4277" x="1154" y="346.8198">Campaign Testing and Launch</text><text fill="#000000" font-family="sans-serif" font-size="12" font-weight="bold" lengthAdjust="spacing" textLength="268.084" x="10" y="372.5527">Phase 2: Analytics Dashboard (Parallel)</text><text fill="#000000" font-family="sans-serif" font-size="11" lengthAdjust="spacing" textLength="170.3496" x="742" y="397.5933">Analytics Dashboard Metabase</text><text fill="#000000" font-family="sans-serif" font-size="12" font-weight="bold" lengthAdjust="spacing" textLength="187.6641" x="10" y="423.3262">Phase 3: Mobile Integration</text><text fill="#000000" font-family="sans-serif" font-size="11" lengthAdjust="spacing" textLength="143.188" x="1102" y="448.3667">Mobile Vendor Integration</text><text fill="#000000" font-family="sans-serif" font-size="11" lengthAdjust="spacing" textLength="138.2305" x="1326" y="465.1714">Mobile Push Notifications</text><text fill="#000000" font-family="sans-serif" font-size="12" font-weight="bold" lengthAdjust="spacing" textLength="284.7422" x="10" y="490.9043">Phase 3: Wholesaler Integration (Parallel)</text><text fill="#000000" font-family="sans-serif" font-size="11" lengthAdjust="spacing" textLength="156.9434" x="1214" y="515.9448">Wholesaler Data Connectors</text><text fill="#000000" font-family="sans-serif" font-size="12" font-weight="bold" lengthAdjust="spacing" textLength="173.8184" x="10" y="541.6777">Phase 3: UAT and Go-Live</text><text fill="#000000" font-family="sans-serif" font-size="11" lengthAdjust="spacing" textLength="120.3071" x="1462" y="566.7183">UAT and Optimisation</text><text fill="#000000" font-family="sans-serif" font-size="12" font-weight="bold" lengthAdjust="spacing" textLength="73.2539" x="10" y="592.4512">Milestones</text><text fill="#000000" font-family="sans-serif" font-size="11" font-weight="bold" lengthAdjust="spacing" textLength="129.0566" x="124" y="617.4917">Data Audit Complete</text><text fill="#000000" font-family="sans-serif" font-size="11" font-weight="bold" lengthAdjust="spacing" textLength="150.1006" x="500" y="634.2964">WordPress Pipeline Live</text><text fill="#000000" font-family="sans-serif" font-size="11" font-weight="bold" lengthAdjust="spacing" textLength="164.146" x="1212" y="651.1011">First Email Campaign Sent</text><text fill="#000000" font-family="sans-serif" font-size="11" font-weight="bold" lengthAdjust="spacing" textLength="130.8506" x="1700" y="667.9058">Full Platform Go-Live</text><line style="stroke:#C0C0C0;stroke-width:1;" x1="0" x2="1696" y1="672.5" y2="672.5"/><line style="stroke:#C0C0C0;stroke-width:1;" x1="0" x2="0" y1="672.5" y2="688.5"/><line style="stroke:#C0C0C0;stroke-width:1;" x1="248" x2="248" y1="672.5" y2="688.5"/><text fill="#000000" font-family="sans-serif" font-size="12" font-weight="bold" lengthAdjust="spacing" textLength="60.627" x="93.6865" y="683.6387">Oct 2026</text><line style="stroke:#C0C0C0;stroke-width:1;" x1="488" x2="488" y1="672.5" y2="688.5"/><text fill="#000000" font-family="sans-serif" font-size="12" font-weight="bold" lengthAdjust="spacing" textLength="63.6855" x="336.1572" y="683.6387">Nov 2026</text><line style="stroke:#C0C0C0;stroke-width:1;" x1="736" x2="736" y1="672.5" y2="688.5"/><text fill="#000000" font-family="sans-serif" font-size="12" font-weight="bold" lengthAdjust="spacing" textLength="62.7891" x="580.6055" y="683.6387">Dec 2026</text><line style="stroke:#C0C0C0;stroke-width:1;" x1="984" x2="984" y1="672.5" y2="688.5"/><text fill="#000000" font-family="sans-serif" font-size="12" font-weight="bold" lengthAdjust="spacing" textLength="58.6816" x="830.6592" y="683.6387">Jan 2027</text><line style="stroke:#C0C0C0;stroke-width:1;" x1="1208" x2="1208" y1="672.5" y2="688.5"/><text fill="#000000" font-family="sans-serif" font-size="12" font-weight="bold" lengthAdjust="spacing" textLength="62.502" x="1064.749" y="683.6387">Feb 2027</text><line style="stroke:#C0C0C0;stroke-width:1;" x1="1456" x2="1456" y1="672.5" y2="688.5"/><text fill="#000000" font-family="sans-serif" font-size="12" font-weight="bold" lengthAdjust="spacing" textLength="63.5332" x="1300.2334" y="683.6387">Mar 2027</text><line style="stroke:#C0C0C0;stroke-width:1;" x1="1696" x2="1696" y1="672.5" y2="688.5"/><text fill="#000000" font-family="sans-serif" font-size="12" font-weight="bold" lengthAdjust="spacing" textLength="61.3711" x="1545.3145" y="683.6387">Apr 2027</text><line style="stroke:#C0C0C0;stroke-width:1;" x1="0" x2="1696" y1="688.5" y2="688.5"/><g class="legend" data-source-line="74"><rect fill="#DDDDDD" height="176.9688" rx="7.5" ry="7.5" style="stroke:#000000;stroke-width:1;" width="177.9795" x="1505.0205" y="700.5"/><rect fill="#E0E0E0" height="16.2969" style="stroke:none;stroke-width:1;" width="167.9795" x="1510.0205" y="707.5"/><text fill="#000000" font-family="sans-serif" font-size="14" lengthAdjust="spacing" textLength="69.166" x="1514.4707" y="720.4951">Discovery</text><rect fill="#BBDEFB" height="16.2969" style="stroke:none;stroke-width:1;" width="167.9795" x="1510.0205" y="723.7969"/><text fill="#000000" font-family="sans-serif" font-size="14" lengthAdjust="spacing" textLength="126.793" x="1514.4707" y="736.792">Platform and Infra</text><rect fill="#B3E5FC" height="16.2969" style="stroke:none;stroke-width:1;" width="167.9795" x="1510.0205" y="740.0938"/><text fill="#000000" font-family="sans-serif" font-size="14" lengthAdjust="spacing" textLength="133.998" x="1514.4707" y="753.0889">WordPress Pipeline</text><rect fill="#B2EBF2" height="16.2969" style="stroke:none;stroke-width:1;" width="167.9795" x="1510.0205" y="756.3906"/><text fill="#000000" font-family="sans-serif" font-size="14" lengthAdjust="spacing" textLength="87.9033" x="1514.4707" y="769.3857">Data Quality</text><rect fill="#C8E6C9" height="16.2969" style="stroke:none;stroke-width:1;" width="167.9795" x="1510.0205" y="772.6875"/><text fill="#000000" font-family="sans-serif" font-size="14" lengthAdjust="spacing" textLength="124.9404" x="1514.4707" y="785.6826">Intelligence Layer</text><rect fill="#FFF9C4" height="16.2969" style="stroke:none;stroke-width:1;" width="167.9795" x="1510.0205" y="788.9844"/><text fill="#000000" font-family="sans-serif" font-size="14" lengthAdjust="spacing" textLength="100.7686" x="1514.4707" y="801.9795">Email Channel</text><rect fill="#FFE0B2" height="16.2969" style="stroke:none;stroke-width:1;" width="167.9795" x="1510.0205" y="805.2813"/><text fill="#000000" font-family="sans-serif" font-size="14" lengthAdjust="spacing" textLength="144.2246" x="1514.4707" y="818.2764">Analytics Dashboard</text><rect fill="#F8BBD0" height="16.2969" style="stroke:none;stroke-width:1;" width="167.9795" x="1510.0205" y="821.5781"/><text fill="#000000" font-family="sans-serif" font-size="14" lengthAdjust="spacing" textLength="159.0791" x="1514.4707" y="834.5732">Mobile and Wholesaler</text><rect fill="#E1BEE7" height="16.2969" style="stroke:none;stroke-width:1;" width="167.9795" x="1510.0205" y="837.875"/><text fill="#000000" font-family="sans-serif" font-size="14" lengthAdjust="spacing" textLength="84.2119" x="1514.4707" y="850.8701">QA and UAT</text><rect fill="#FF4500" height="16.2969" style="stroke:none;stroke-width:1;" width="167.9795" x="1510.0205" y="854.1719"/><text fill="#000000" font-family="sans-serif" font-size="14" lengthAdjust="spacing" textLength="67.3066" x="1514.4707" y="867.167">Milestone</text><line style="stroke:#000000;stroke-width:1;" x1="1510.0205" x2="1678" y1="707.5" y2="707.5"/><line style="stroke:#000000;stroke-width:1;" x1="1510.0205" x2="1678" y1="723.7969" y2="723.7969"/><line style="stroke:#000000;stroke-width:1;" x1="1510.0205" x2="1678" y1="740.0938" y2="740.0938"/><line style="stroke:#000000;stroke-width:1;" x1="1510.0205" x2="1678" y1="756.3906" y2="756.3906"/><line style="stroke:#000000;stroke-width:1;" x1="1510.0205" x2="1678" y1="772.6875" y2="772.6875"/><line style="stroke:#000000;stroke-width:1;" x1="1510.0205" x2="1678" y1="788.9844" y2="788.9844"/><line style="stroke:#000000;stroke-width:1;" x1="1510.0205" x2="1678" y1="805.2813" y2="805.2813"/><line style="stroke:#000000;stroke-width:1;" x1="1510.0205" x2="1678" y1="821.5781" y2="821.5781"/><line style="stroke:#000000;stroke-width:1;" x1="1510.0205" x2="1678" y1="837.875" y2="837.875"/><line style="stroke:#000000;stroke-width:1;" x1="1510.0205" x2="1678" y1="854.1719" y2="854.1719"/><line style="stroke:#000000;stroke-width:1;" x1="1510.0205" x2="1678" y1="870.4688" y2="870.4688"/><line style="stroke:#000000;stroke-width:1;" x1="1510.0205" x2="1510.0205" y1="707.5" y2="870.4688"/><line style="stroke:#000000;stroke-width:1;" x1="1678" x2="1678" y1="707.5" y2="870.4688"/></g><!--SRC=[bLTjR-8u4FwUNp4INrhfM9902aKLMWX9TIkuPGljVgZkWo4k-9hOo7ROOszNkX-nlt1_oKqSNaEWUqAjYZqpp-DdnZFkUwM9r7F2jROqqp65Fj6asfTiHJdugT8YeH82FYTpcb2kOHGJ_I9a0Z___G6VXNo5iPQK90gkcf08hXVgD_0WeYjrRIqburhD2CRzGkbhl8QlGYJWueRuYyuq67W5hktUL1sxQZkMTQVqEgOTov3gCpAN985_B01DrAlv0o14d37xIi5nyFjt_4bOJ94ifwKMc-zPO9YAE39BFJ9xlPSYvP4lOY7XeoHyJXzelZjWd9wkPr2ABeaa6dUAKEwlGbL2E_kOWD-jkzhco5Qr2gC5KHYgZM7Gd6WcE5IhrdEVgPbOKRa6mYEJ9UYc4TD_dcfeB2YFzckEToa0Kp3BQD4868TAO6UVMkN6oJxMyvYBBoynUQKmfZfT6lVV-Oiafz2jK-ZwvGW5x5wl7uIzMiNnRZpVFXO4YoqQIQfKJdx4bZJ69C6LBvbcM6JNHgW3inu4Vsj9Pfc89sGThqZMCJgTzIzIhGTUwDSgjjjizlhMSp0Px3bbaQDfCJbEINBShEZFEB-5c10MmnE9sQPEy9gY_mdewKbTSzAp_aLSD-Y5BkBQhNehF4YAsyOqQXh7R4xvZCA0hB5P5FAnQo9ZEiyw22d9XbiKfeaBXkCPxm93lnNS-BUrYXiq-tNNUdwWCv6W-ILTtA8k1jEzFUjz6VD8bLpPFgRJNBY28lckJv8bONDk9CGcLvJ5q3cL1MdNBuSey0p3yDPlr2gXrmoT9YgwTPfWmsHyRW069EMpHG7UBOLtdJTYNCO_qgdBIRn6PR8hhHPJGMG4LoFihd5CDsALcGof9bCCyMjoUMy5EI4Ss3qiz-36S-p37bHlmr1CST0Swcr8RfQV41Yx-_c4bjLStJ2y4A58huLD4jjpj-yqlERESvIg1VmXD7l1GiiSLG6xNeBTm6jmCS9bx2DfFYy4Zc0SzKVqY-ayi39Tt1USuqD0o5Ewfycic-jvASJ_uFlOdPZuzw8wm6jgs6tNFYurIvWgIs6ZX5UZMhVFEHU7gzCBWYOErwxJk-qQHiFjqqNbWtutcV5aoJAc6ajqGPPBoey7-dvGxIP7Tf2YSJvWGYQLXaBR66D3FJBFBtWBpTCutZ_rDX8LJSsnhPXYyuz0ilb2uuFcsztc0T61_OlZMxwHJ_VEFl3k8R2pC2Ek0oLdsrgOOTJ9K_yfnU6bT_7pbjmf6qeRYxmPTRP2B0YMJhpVp2v-fxGhRKrCGNMsVI3ZVr2E6wCynntur3K6MLriTdPFoSu-wxYNwPVBQBt7N_bpt4ALk7uS3W0bLDbLSjwXxjuxnxwQf1HlwWhi1ZZDjckt6xVmEF6pl7ZNrjNzQ01Af19F7p6b9PkcMJ5UMn_8Yi13oh50QHlk9I7nqt2xW8DknQJWsPYrFZmDsp1Ef-XDDFQbeTMdBoIDiORuJ4JOy_46JS9gonhWaLByxw0D78l6yl7PgkKw__OV]--></g></svg>