<?plantuml 1.2026.1?><svg xmlns="http://www.w3.org/2000/svg" xmlns:xlink="http://www.w3.org/1999/xlink" contentStyleType="text/css" data-diagram-type="GANTT" height="955px" preserveAspectRatio="none" style="width:2703px;height:955px;background:#FFFFFF;" version="1.1" viewBox="0 0 2703 955" width="2703px" zoomAndPan="magnify"><title>Data-Driven Customer Engagement Platform &#8212; Work Streams (7 months, 5 devs)</title><defs/><g><g class="title" data-source-line="1"><text fill="#000000" font-family="sans-serif" font-size="14" font-weight="bold" lengthAdjust="spacing" textLength="641.7578" x="950.6211" y="22.9951">Data-Driven Customer Engagement Platform &#8212; Work Streams (7 months, 5 devs)</text></g><text fill="#000000" font-family="sans-serif" font-size="10" lengthAdjust="spacing" textLength="12.7246" x="53" y="62.5791">41</text><text fill="#000000" font-family="sans-serif" font-size="10" lengthAdjust="spacing" textLength="12.7246" x="137" y="62.5791">42</text><text fill="#000000" font-family="sans-serif" font-size="10" lengthAdjust="spacing" textLength="12.7246" x="221" y="62.5791">43</text><text fill="#000000" font-family="sans-serif" font-size="10" lengthAdjust="spacing" textLength="12.7246" x="305" y="62.5791">44</text><text fill="#000000" font-family="sans-serif" font-size="10" lengthAdjust="spacing" textLength="12.7246" x="389" y="62.5791">45</text><text fill="#000000" font-family="sans-serif" font-size="10" lengthAdjust="spacing" textLength="12.7246" x="473" y="62.5791">46</text><text fill="#000000" font-family="sans-serif" font-size="10" lengthAdjust="spacing" textLength="12.7246" x="557" y="62.5791">47</text><text fill="#000000" font-family="sans-serif" font-size="10" lengthAdjust="spacing" textLength="12.7246" x="641" y="62.5791">48</text><text fill="#000000" font-family="sans-serif" font-size="10" lengthAdjust="spacing" textLength="12.7246" x="725" y="62.5791">49</text><text fill="#000000" font-family="sans-serif" font-size="10" lengthAdjust="spacing" textLength="12.7246" x="809" y="62.5791">50</text><text fill="#000000" font-family="sans-serif" font-size="10" lengthAdjust="spacing" textLength="12.7246" x="893" y="62.5791">51</text><text fill="#000000" font-family="sans-serif" font-size="10" lengthAdjust="spacing" textLength="12.7246" x="977" y="62.5791">52</text><text fill="#000000" font-family="sans-serif" font-size="10" lengthAdjust="spacing" textLength="12.7246" x="1061" y="62.5791">53</text><text fill="#000000" font-family="sans-serif" font-size="10" lengthAdjust="spacing" textLength="6.3623" x="1145" y="62.5791">1</text><text fill="#000000" font-family="sans-serif" font-size="10" lengthAdjust="spacing" textLength="6.3623" x="1229" y="62.5791">2</text><text fill="#000000" font-family="sans-serif" font-size="10" lengthAdjust="spacing" textLength="6.3623" x="1313" y="62.5791">3</text><text fill="#000000" font-family="sans-serif" font-size="10" lengthAdjust="spacing" textLength="6.3623" x="1397" y="62.5791">4</text><text fill="#000000" font-family="sans-serif" font-size="10" lengthAdjust="spacing" textLength="6.3623" x="1481" y="62.5791">5</text><text fill="#000000" font-family="sans-serif" font-size="10" lengthAdjust="spacing" textLength="6.3623" x="1565" y="62.5791">6</text><text fill="#000000" font-family="sans-serif" font-size="10" lengthAdjust="spacing" textLength="6.3623" x="1649" y="62.5791">7</text><text fill="#000000" font-family="sans-serif" font-size="10" lengthAdjust="spacing" textLength="6.3623" x="1733" y="62.5791">8</text><text fill="#000000" font-family="sans-serif" font-size="10" lengthAdjust="spacing" textLength="6.3623" x="1817" y="62.5791">9</text><text fill="#000000" font-family="sans-serif" font-size="10" lengthAdjust="spacing" textLength="12.7246" x="1901" y="62.5791">10</text><text fill="#000000" font-family="sans-serif" font-size="10" lengthAdjust="spacing" textLength="12.7246" x="1985" y="62.5791">11</text><text fill="#000000" font-family="sans-serif" font-size="10" lengthAdjust="spacing" textLength="12.7246" x="2069" y="62.5791">12</text><text fill="#000000" font-family="sans-serif" font-size="10" lengthAdjust="spacing" textLength="12.7246" x="2153" y="62.5791">13</text><text fill="#000000" font-family="sans-serif" font-size="10" lengthAdjust="spacing" textLength="12.7246" x="2237" y="62.5791">14</text><text fill="#000000" font-family="sans-serif" font-size="10" lengthAdjust="spacing" textLength="12.7246" x="2321" y="62.5791">15</text><text fill="#000000" font-family="sans-serif" font-size="10" lengthAdjust="spacing" textLength="12.7246" x="2405" y="62.5791">16</text><text fill="#000000" font-family="sans-serif" font-size="10" lengthAdjust="spacing" textLength="12.7246" x="2489" y="62.5791">17</text><line style="stroke:#C0C0C0;stroke-width:1;" x1="48" x2="48" y1="53.2969" y2="735.3594"/><line style="stroke:#C0C0C0;stroke-width:1;" x1="132" x2="132" y1="53.2969" y2="735.3594"/><line style="stroke:#C0C0C0;stroke-width:1;" x1="216" x2="216" y1="53.2969" y2="735.3594"/><line style="stroke:#C0C0C0;stroke-width:1;" x1="300" x2="300" y1="53.2969" y2="735.3594"/><line style="stroke:#C0C0C0;stroke-width:1;" x1="384" x2="384" y1="53.2969" y2="735.3594"/><line style="stroke:#C0C0C0;stroke-width:1;" x1="468" x2="468" y1="53.2969" y2="735.3594"/><line style="stroke:#C0C0C0;stroke-width:1;" x1="552" x2="552" y1="53.2969" y2="735.3594"/><line style="stroke:#C0C0C0;stroke-width:1;" x1="636" x2="636" y1="53.2969" y2="735.3594"/><line style="stroke:#C0C0C0;stroke-width:1;" x1="720" x2="720" y1="53.2969" y2="735.3594"/><line style="stroke:#C0C0C0;stroke-width:1;" x1="804" x2="804" y1="53.2969" y2="735.3594"/><line style="stroke:#C0C0C0;stroke-width:1;" x1="888" x2="888" y1="53.2969" y2="735.3594"/><line style="stroke:#C0C0C0;stroke-width:1;" x1="972" x2="972" y1="53.2969" y2="735.3594"/><line style="stroke:#C0C0C0;stroke-width:1;" x1="1056" x2="1056" y1="53.2969" y2="735.3594"/><line style="stroke:#C0C0C0;stroke-width:1;" x1="1140" x2="1140" y1="53.2969" y2="735.3594"/><line style="stroke:#C0C0C0;stroke-width:1;" x1="1224" x2="1224" y1="53.2969" y2="735.3594"/><line style="stroke:#C0C0C0;stroke-width:1;" x1="1308" x2="1308" y1="53.2969" y2="735.3594"/><line style="stroke:#C0C0C0;stroke-width:1;" x1="1392" x2="1392" y1="53.2969" y2="735.3594"/><line style="stroke:#C0C0C0;stroke-width:1;" x1="1476" x2="1476" y1="53.2969" y2="735.3594"/><line style="stroke:#C0C0C0;stroke-width:1;" x1="1560" x2="1560" y1="53.2969" y2="735.3594"/><line style="stroke:#C0C0C0;stroke-width:1;" x1="1644" x2="1644" y1="53.2969" y2="735.3594"/><line style="stroke:#C0C0C0;stroke-width:1;" x1="1728" x2="1728" y1="53.2969" y2="735.3594"/><line style="stroke:#C0C0C0;stroke-width:1;" x1="1812" x2="1812" y1="53.2969" y2="735.3594"/><line style="stroke:#C0C0C0;stroke-width:1;" x1="1896" x2="1896" y1="53.2969" y2="735.3594"/><line style="stroke:#C0C0C0;stroke-width:1;" x1="1980" x2="1980" y1="53.2969" y2="735.3594"/><line style="stroke:#C0C0C0;stroke-width:1;" x1="2064" x2="2064" y1="53.2969" y2="735.3594"/><line style="stroke:#C0C0C0;stroke-width:1;" x1="2148" x2="2148" y1="53.2969" y2="735.3594"/><line style="stroke:#C0C0C0;stroke-width:1;" x1="2232" x2="2232" y1="53.2969" y2="735.3594"/><line style="stroke:#C0C0C0;stroke-width:1;" x1="2316" x2="2316" y1="53.2969" y2="735.3594"/><line style="stroke:#C0C0C0;stroke-width:1;" x1="2400" x2="2400" y1="53.2969" y2="735.3594"/><line style="stroke:#C0C0C0;stroke-width:1;" x1="2484" x2="2484" y1="53.2969" y2="735.3594"/><line style="stroke:#C0C0C0;stroke-width:1;" x1="2544" x2="2544" y1="53.2969" y2="735.3594"/><line style="stroke:#C0C0C0;stroke-width:1;" x1="0" x2="0" y1="37.2969" y2="53.2969"/><line style="stroke:#C0C0C0;stroke-width:1;" x1="372" x2="372" y1="37.2969" y2="53.2969"/><text fill="#000000" font-family="sans-serif" font-size="12" font-weight="bold" lengthAdjust="spacing" textLength="60.627" x="155.6865" y="48.4355">Oct 2026</text><line style="stroke:#C0C0C0;stroke-width:1;" x1="732" x2="732" y1="37.2969" y2="53.2969"/><text fill="#000000" font-family="sans-serif" font-size="12" font-weight="bold" lengthAdjust="spacing" textLength="63.6855" x="520.1572" y="48.4355">Nov 2026</text><line style="stroke:#C0C0C0;stroke-width:1;" x1="1104" x2="1104" y1="37.2969" y2="53.2969"/><text fill="#000000" font-family="sans-serif" font-size="12" font-weight="bold" lengthAdjust="spacing" textLength="62.7891" x="886.6055" y="48.4355">Dec 2026</text><line style="stroke:#C0C0C0;stroke-width:1;" x1="1476" x2="1476" y1="37.2969" y2="53.2969"/><text fill="#000000" font-family="sans-serif" font-size="12" font-weight="bold" lengthAdjust="spacing" textLength="58.6816" x="1260.6592" y="48.4355">Jan 2027</text><line style="stroke:#C0C0C0;stroke-width:1;" x1="1812" x2="1812" y1="37.2969" y2="53.2969"/><text fill="#000000" font-family="sans-serif" font-size="12" font-weight="bold" lengthAdjust="spacing" textLength="62.502" x="1612.749" y="48.4355">Feb 2027</text><line style="stroke:#C0C0C0;stroke-width:1;" x1="2184" x2="2184" y1="37.2969" y2="53.2969"/><text fill="#000000" font-family="sans-serif" font-size="12" font-weight="bold" lengthAdjust="spacing" textLength="63.5332" x="1966.2334" y="48.4355">Mar 2027</text><line style="stroke:#C0C0C0;stroke-width:1;" x1="2544" x2="2544" y1="37.2969" y2="53.2969"/><text fill="#000000" font-family="sans-serif" font-size="12" font-weight="bold" lengthAdjust="spacing" textLength="61.3711" x="2333.3145" y="48.4355">Apr 2027</text><line style="stroke:#C0C0C0;stroke-width:1;" x1="0" x2="2544" y1="37.2969" y2="37.2969"/><line style="stroke:#C0C0C0;stroke-width:1;" x1="0" x2="2544" y1="53.2969" y2="53.2969"/><line style="stroke:#C0C0C0;stroke-width:1;" x1="0" x2="2544" y1="64.2969" y2="64.2969"/><rect fill="#F0F0F0" height="26.2969" style="stroke:none;stroke-width:1;" width="2544" x="0" y="69.2969"/><line style="stroke:#181818;stroke-width:1;" x1="0" x2="5" y1="82.4453" y2="82.4453"/><line style="stroke:#181818;stroke-width:1;" x1="177.251" x2="2543" y1="82.4453" y2="82.4453"/><rect fill="#E0E0E0" height="15.1328" style="stroke:none;stroke-width:1;" width="176" x="2" y="102.5938"/><rect fill="none" height="15.1328" style="stroke:#616161;stroke-width:1;" width="176" x="2" y="102.5938"/><rect fill="#BBDEFB" height="15.1328" style="stroke:none;stroke-width:1;" width="284" x="86" y="121.7266"/><rect fill="none" height="15.1328" style="stroke:#1565C0;stroke-width:1;" width="284" x="86" y="121.7266"/><rect fill="#F0F0F0" height="26.2969" style="stroke:none;stroke-width:1;" width="2544" x="0" y="143.8594"/><line style="stroke:#181818;stroke-width:1;" x1="0" x2="5" y1="157.0078" y2="157.0078"/><line style="stroke:#181818;stroke-width:1;" x1="357.1797" x2="2543" y1="157.0078" y2="157.0078"/><rect fill="#B3E5FC" height="15.1328" style="stroke:none;stroke-width:1;" width="380" x="170" y="177.1563"/><rect fill="none" height="15.1328" style="stroke:#0277BD;stroke-width:1;" width="380" x="170" y="177.1563"/><rect fill="#B3E5FC" height="15.1328" style="stroke:none;stroke-width:1;" width="368" x="374" y="196.2891"/><rect fill="none" height="15.1328" style="stroke:#0277BD;stroke-width:1;" width="368" x="374" y="196.2891"/><rect fill="#B2EBF2" height="15.1328" style="stroke:none;stroke-width:1;" width="368" x="542" y="215.4219"/><rect fill="none" height="15.1328" style="stroke:#00838F;stroke-width:1;" width="368" x="542" y="215.4219"/><rect fill="#F0F0F0" height="26.2969" style="stroke:none;stroke-width:1;" width="2544" x="0" y="237.5547"/><line style="stroke:#181818;stroke-width:1;" x1="0" x2="5" y1="250.7031" y2="250.7031"/><line style="stroke:#181818;stroke-width:1;" x1="303.0801" x2="2543" y1="250.7031" y2="250.7031"/><rect fill="#C8E6C9" height="15.1328" style="stroke:none;stroke-width:1;" width="548" x="734" y="270.8516"/><rect fill="none" height="15.1328" style="stroke:#2E7D32;stroke-width:1;" width="548" x="734" y="270.8516"/><rect fill="#C8E6C9" height="15.1328" style="stroke:none;stroke-width:1;" width="548" x="902" y="289.9844"/><rect fill="none" height="15.1328" style="stroke:#2E7D32;stroke-width:1;" width="548" x="902" y="289.9844"/><rect fill="#F0F0F0" height="26.2969" style="stroke:none;stroke-width:1;" width="2544" x="0" y="312.1172"/><line style="stroke:#181818;stroke-width:1;" x1="0" x2="5" y1="325.2656" y2="325.2656"/><line style="stroke:#181818;stroke-width:1;" x1="274.7109" x2="2543" y1="325.2656" y2="325.2656"/><rect fill="#FFF9C4" height="15.1328" style="stroke:none;stroke-width:1;" width="524" x="1106" y="345.4141"/><rect fill="none" height="15.1328" style="stroke:#F57F17;stroke-width:1;" width="524" x="1106" y="345.4141"/><rect fill="#FFF9C4" height="15.1328" style="stroke:none;stroke-width:1;" width="248" x="1478" y="364.5469"/><rect fill="none" height="15.1328" style="stroke:#F57F17;stroke-width:1;" width="248" x="1478" y="364.5469"/><rect fill="#F0F0F0" height="26.2969" style="stroke:none;stroke-width:1;" width="2544" x="0" y="386.6797"/><line style="stroke:#181818;stroke-width:1;" x1="0" x2="5" y1="399.8281" y2="399.8281"/><line style="stroke:#181818;stroke-width:1;" x1="327.7646" x2="2543" y1="399.8281" y2="399.8281"/><rect fill="#FFE0B2" height="15.1328" style="stroke:none;stroke-width:1;" width="548" x="1106" y="419.9766"/><rect fill="none" height="15.1328" style="stroke:#E65100;stroke-width:1;" width="548" x="1106" y="419.9766"/><rect fill="#F0F0F0" height="26.2969" style="stroke:none;stroke-width:1;" width="2544" x="0" y="442.1094"/><line style="stroke:#181818;stroke-width:1;" x1="0" x2="5" y1="455.2578" y2="455.2578"/><line style="stroke:#181818;stroke-width:1;" x1="233.9414" x2="2543" y1="455.2578" y2="455.2578"/><rect fill="#F8BBD0" height="15.1328" style="stroke:none;stroke-width:1;" width="344" x="1646" y="475.4063"/><rect fill="none" height="15.1328" style="stroke:#AD1457;stroke-width:1;" width="344" x="1646" y="475.4063"/><rect fill="#F8BBD0" height="15.1328" style="stroke:none;stroke-width:1;" width="344" x="1982" y="494.5391"/><rect fill="none" height="15.1328" style="stroke:#AD1457;stroke-width:1;" width="344" x="1982" y="494.5391"/><rect fill="#F0F0F0" height="26.2969" style="stroke:none;stroke-width:1;" width="2544" x="0" y="516.6719"/><line style="stroke:#181818;stroke-width:1;" x1="0" x2="5" y1="529.8203" y2="529.8203"/><line style="stroke:#181818;stroke-width:1;" x1="347.1992" x2="2543" y1="529.8203" y2="529.8203"/><rect fill="#F8BBD0" height="15.1328" style="stroke:none;stroke-width:1;" width="344" x="1814" y="549.9688"/><rect fill="none" height="15.1328" style="stroke:#AD1457;stroke-width:1;" width="344" x="1814" y="549.9688"/><rect fill="#F0F0F0" height="26.2969" style="stroke:none;stroke-width:1;" width="2544" x="0" y="572.1016"/><line style="stroke:#181818;stroke-width:1;" x1="0" x2="5" y1="585.25" y2="585.25"/><line style="stroke:#181818;stroke-width:1;" x1="217.7881" x2="2543" y1="585.25" y2="585.25"/><rect fill="#E1BEE7" height="15.1328" style="stroke:none;stroke-width:1;" width="356" x="2186" y="605.3984"/><rect fill="none" height="15.1328" style="stroke:#6A1B9A;stroke-width:1;" width="356" x="2186" y="605.3984"/><rect fill="#F0F0F0" height="26.2969" style="stroke:none;stroke-width:1;" width="2544" x="0" y="627.5313"/><line style="stroke:#181818;stroke-width:1;" x1="0" x2="5" y1="640.6797" y2="640.6797"/><line style="stroke:#181818;stroke-width:1;" x1="100.4629" x2="2543" y1="640.6797" y2="640.6797"/><polygon fill="#FF4500" points="174,660.8281,180,666.8281,174,672.8281,168,666.8281" style="stroke:#FF4500;stroke-width:1;"/><polygon fill="#FF4500" points="738,679.9609,744,685.9609,738,691.9609,732,685.9609" style="stroke:#FF4500;stroke-width:1;"/><polygon fill="#FF4500" points="1806,699.0938,1812,705.0938,1806,711.0938,1800,705.0938" style="stroke:#FF4500;stroke-width:1;"/><polygon fill="#FF4500" points="2538,718.2266,2544,724.2266,2538,730.2266,2532,724.2266" style="stroke:#FF4500;stroke-width:1;"/><text fill="#000000" font-family="sans-serif" font-size="14" font-weight="bold" lengthAdjust="spacing" textLength="162.251" x="10" y="87.292">Phase 1: Foundation</text><text fill="#000000" font-family="sans-serif" font-size="13" lengthAdjust="spacing" textLength="166.2134" x="6" y="114.6606">Discovery and Data Audit</text><text fill="#000000" font-family="sans-serif" font-size="13" lengthAdjust="spacing" textLength="171.4121" x="90" y="133.7935">Snowflake Setup and Infra</text><text fill="#000000" font-family="sans-serif" font-size="14" font-weight="bold" lengthAdjust="spacing" textLength="342.1797" x="10" y="161.8545">Phase 1: WordPress Data Pipeline (Critical)</text><text fill="#000000" font-family="sans-serif" font-size="13" lengthAdjust="spacing" textLength="162.6904" x="174" y="189.2231">WordPress DB Extraction</text><text fill="#000000" font-family="sans-serif" font-size="13" lengthAdjust="spacing" textLength="133.0151" x="378" y="208.356">ETL Pipeline and dbt</text><text fill="#000000" font-family="sans-serif" font-size="13" lengthAdjust="spacing" textLength="154.0894" x="546" y="227.4888">Email Validation Engine</text><text fill="#000000" font-family="sans-serif" font-size="14" font-weight="bold" lengthAdjust="spacing" textLength="288.0801" x="10" y="255.5498">Phase 2: Intelligence Layer (Critical)</text><text fill="#000000" font-family="sans-serif" font-size="13" lengthAdjust="spacing" textLength="158.647" x="738" y="282.9185">Customer Segmentation</text><text fill="#000000" font-family="sans-serif" font-size="13" lengthAdjust="spacing" textLength="163.5029" x="906" y="302.0513">Recommendation Engine</text><text fill="#000000" font-family="sans-serif" font-size="14" font-weight="bold" lengthAdjust="spacing" textLength="259.7109" x="10" y="330.1123">Phase 2: Email Delivery (Critical)</text><text fill="#000000" font-family="sans-serif" font-size="13" lengthAdjust="spacing" textLength="181.9937" x="1110" y="357.481">Email Campaign Integration</text><text fill="#000000" font-family="sans-serif" font-size="13" lengthAdjust="spacing" textLength="197.8691" x="1482" y="376.6138">Campaign Testing and Launch</text><text fill="#000000" font-family="sans-serif" font-size="14" font-weight="bold" lengthAdjust="spacing" textLength="312.7646" x="10" y="404.6748">Phase 2: Analytics Dashboard (Parallel)</text><text fill="#000000" font-family="sans-serif" font-size="13" lengthAdjust="spacing" textLength="201.3223" x="1110" y="432.0435">Analytics Dashboard Metabase</text><text fill="#000000" font-family="sans-serif" font-size="14" font-weight="bold" lengthAdjust="spacing" textLength="218.9414" x="10" y="460.1045">Phase 3: Mobile Integration</text><text fill="#000000" font-family="sans-serif" font-size="13" lengthAdjust="spacing" textLength="169.2222" x="1650" y="487.4731">Mobile Vendor Integration</text><text fill="#000000" font-family="sans-serif" font-size="13" lengthAdjust="spacing" textLength="163.3633" x="1986" y="506.606">Mobile Push Notifications</text><text fill="#000000" font-family="sans-serif" font-size="14" font-weight="bold" lengthAdjust="spacing" textLength="332.1992" x="10" y="534.667">Phase 3: Wholesaler Integration (Parallel)</text><text fill="#000000" font-family="sans-serif" font-size="13" lengthAdjust="spacing" textLength="185.4785" x="1818" y="562.0356">Wholesaler Data Connectors</text><text fill="#000000" font-family="sans-serif" font-size="14" font-weight="bold" lengthAdjust="spacing" textLength="202.7881" x="10" y="590.0967">Phase 3: UAT and Go-Live</text><text fill="#000000" font-family="sans-serif" font-size="13" lengthAdjust="spacing" textLength="142.1812" x="2190" y="617.4653">UAT and Optimisation</text><text fill="#000000" font-family="sans-serif" font-size="14" font-weight="bold" lengthAdjust="spacing" textLength="85.4629" x="10" y="645.5264">Milestones</text><text fill="#000000" font-family="sans-serif" font-size="13" font-weight="bold" lengthAdjust="spacing" textLength="152.5215" x="183" y="672.895">Data Audit Complete</text><text fill="#000000" font-family="sans-serif" font-size="13" font-weight="bold" lengthAdjust="spacing" textLength="177.3916" x="747" y="692.0278">WordPress Pipeline Live</text><text fill="#000000" font-family="sans-serif" font-size="13" font-weight="bold" lengthAdjust="spacing" textLength="193.9907" x="1815" y="711.1606">First Email Campaign Sent</text><text fill="#000000" font-family="sans-serif" font-size="13" font-weight="bold" lengthAdjust="spacing" textLength="154.6416" x="2547" y="730.2935">Full Platform Go-Live</text><line style="stroke:#C0C0C0;stroke-width:1;" x1="0" x2="2544" y1="735.3594" y2="735.3594"/><line style="stroke:#C0C0C0;stroke-width:1;" x1="0" x2="0" y1="735.3594" y2="751.3594"/><line style="stroke:#C0C0C0;stroke-width:1;" x1="372" x2="372" y1="735.3594" y2="751.3594"/><text fill="#000000" font-family="sans-serif" font-size="12" font-weight="bold" lengthAdjust="spacing" textLength="60.627" x="155.6865" y="746.498">Oct 2026</text><line style="stroke:#C0C0C0;stroke-width:1;" x1="732" x2="732" y1="735.3594" y2="751.3594"/><text fill="#000000" font-family="sans-serif" font-size="12" font-weight="bold" lengthAdjust="spacing" textLength="63.6855" x="520.1572" y="746.498">Nov 2026</text><line style="stroke:#C0C0C0;stroke-width:1;" x1="1104" x2="1104" y1="735.3594" y2="751.3594"/><text fill="#000000" font-family="sans-serif" font-size="12" font-weight="bold" lengthAdjust="spacing" textLength="62.7891" x="886.6055" y="746.498">Dec 2026</text><line style="stroke:#C0C0C0;stroke-width:1;" x1="1476" x2="1476" y1="735.3594" y2="751.3594"/><text fill="#000000" font-family="sans-serif" font-size="12" font-weight="bold" lengthAdjust="spacing" textLength="58.6816" x="1260.6592" y="746.498">Jan 2027</text><line style="stroke:#C0C0C0;stroke-width:1;" x1="1812" x2="1812" y1="735.3594" y2="751.3594"/><text fill="#000000" font-family="sans-serif" font-size="12" font-weight="bold" lengthAdjust="spacing" textLength="62.502" x="1612.749" y="746.498">Feb 2027</text><line style="stroke:#C0C0C0;stroke-width:1;" x1="2184" x2="2184" y1="735.3594" y2="751.3594"/><text fill="#000000" font-family="sans-serif" font-size="12" font-weight="bold" lengthAdjust="spacing" textLength="63.5332" x="1966.2334" y="746.498">Mar 2027</text><line style="stroke:#C0C0C0;stroke-width:1;" x1="2544" x2="2544" y1="735.3594" y2="751.3594"/><text fill="#000000" font-family="sans-serif" font-size="12" font-weight="bold" lengthAdjust="spacing" textLength="61.3711" x="2333.3145" y="746.498">Apr 2027</text><line style="stroke:#C0C0C0;stroke-width:1;" x1="0" x2="2544" y1="751.3594" y2="751.3594"/><g class="legend" data-source-line="74"><rect fill="#DDDDDD" height="176.9688" rx="7.5" ry="7.5" style="stroke:#000000;stroke-width:1;" width="177.9795" x="2353.0205" y="763.3594"/><rect fill="#E0E0E0" height="16.2969" style="stroke:none;stroke-width:1;" width="167.9795" x="2358.0205" y="770.3594"/><text fill="#000000" font-family="sans-serif" font-size="14" lengthAdjust="spacing" textLength="69.166" x="2362.4707" y="783.3545">Discovery</text><rect fill="#BBDEFB" height="16.2969" style="stroke:none;stroke-width:1;" width="167.9795" x="2358.0205" y="786.6563"/><text fill="#000000" font-family="sans-serif" font-size="14" lengthAdjust="spacing" textLength="126.793" x="2362.4707" y="799.6514">Platform and Infra</text><rect fill="#B3E5FC" height="16.2969" style="stroke:none;stroke-width:1;" width="167.9795" x="2358.0205" y="802.9531"/><text fill="#000000" font-family="sans-serif" font-size="14" lengthAdjust="spacing" textLength="133.998" x="2362.4707" y="815.9482">WordPress Pipeline</text><rect fill="#B2EBF2" height="16.2969" style="stroke:none;stroke-width:1;" width="167.9795" x="2358.0205" y="819.25"/><text fill="#000000" font-family="sans-serif" font-size="14" lengthAdjust="spacing" textLength="87.9033" x="2362.4707" y="832.2451">Data Quality</text><rect fill="#C8E6C9" height="16.2969" style="stroke:none;stroke-width:1;" width="167.9795" x="2358.0205" y="835.5469"/><text fill="#000000" font-family="sans-serif" font-size="14" lengthAdjust="spacing" textLength="124.9404" x="2362.4707" y="848.542">Intelligence Layer</text><rect fill="#FFF9C4" height="16.2969" style="stroke:none;stroke-width:1;" width="167.9795" x="2358.0205" y="851.8438"/><text fill="#000000" font-family="sans-serif" font-size="14" lengthAdjust="spacing" textLength="100.7686" x="2362.4707" y="864.8389">Email Channel</text><rect fill="#FFE0B2" height="16.2969" style="stroke:none;stroke-width:1;" width="167.9795" x="2358.0205" y="868.1406"/><text fill="#000000" font-family="sans-serif" font-size="14" lengthAdjust="spacing" textLength="144.2246" x="2362.4707" y="881.1357">Analytics Dashboard</text><rect fill="#F8BBD0" height="16.2969" style="stroke:none;stroke-width:1;" width="167.9795" x="2358.0205" y="884.4375"/><text fill="#000000" font-family="sans-serif" font-size="14" lengthAdjust="spacing" textLength="159.0791" x="2362.4707" y="897.4326">Mobile and Wholesaler</text><rect fill="#E1BEE7" height="16.2969" style="stroke:none;stroke-width:1;" width="167.9795" x="2358.0205" y="900.7344"/><text fill="#000000" font-family="sans-serif" font-size="14" lengthAdjust="spacing" textLength="84.2119" x="2362.4707" y="913.7295">QA and UAT</text><rect fill="#FF4500" height="16.2969" style="stroke:none;stroke-width:1;" width="167.9795" x="2358.0205" y="917.0313"/><text fill="#000000" font-family="sans-serif" font-size="14" lengthAdjust="spacing" textLength="67.3066" x="2362.4707" y="930.0264">Milestone</text><line style="stroke:#000000;stroke-width:1;" x1="2358.0205" x2="2526" y1="770.3594" y2="770.3594"/><line style="stroke:#000000;stroke-width:1;" x1="2358.0205" x2="2526" y1="786.6563" y2="786.6563"/><line style="stroke:#000000;stroke-width:1;" x1="2358.0205" x2="2526" y1="802.9531" y2="802.9531"/><line style="stroke:#000000;stroke-width:1;" x1="2358.0205" x2="2526" y1="819.25" y2="819.25"/><line style="stroke:#000000;stroke-width:1;" x1="2358.0205" x2="2526" y1="835.5469" y2="835.5469"/><line style="stroke:#000000;stroke-width:1;" x1="2358.0205" x2="2526" y1="851.8438" y2="851.8438"/><line style="stroke:#000000;stroke-width:1;" x1="2358.0205" x2="2526" y1="868.1406" y2="868.1406"/><line style="stroke:#000000;stroke-width:1;" x1="2358.0205" x2="2526" y1="884.4375" y2="884.4375"/><line style="stroke:#000000;stroke-width:1;" x1="2358.0205" x2="2526" y1="900.7344" y2="900.7344"/><line style="stroke:#000000;stroke-width:1;" x1="2358.0205" x2="2526" y1="917.0313" y2="917.0313"/><line style="stroke:#000000;stroke-width:1;" x1="2358.0205" x2="2526" y1="933.3281" y2="933.3281"/><line style="stroke:#000000;stroke-width:1;" x1="2358.0205" x2="2358.0205" y1="770.3594" y2="933.3281"/><line style="stroke:#000000;stroke-width:1;" x1="2526" x2="2526" y1="770.3594" y2="933.3281"/></g><?plantuml-src bLRRRjiu47tNLmpWbnHOrxhOiHC4GdsHYWMIhLjdsuTW7sYBiRcXI8EaqxhR0liH-uNzaeueNodPwS98O9CpSmxF36VuHXkYp9m8Opp33ASm8eOqHuezKm73bJOofmeICITpcbDXOCo9UPGgXn___WUVf7g2YL6Kv1ekkf1BOHRwD-X0Hf_rAs-fc31wHZ3kPqgV-1g-Ifb3X1loRpepOE4rX7vusGpyfXzuteqsQqvZpv8QCJ9N98T_F013z9Fz0f0YpeHzfH14-Fix_kMCKoGhQAt5vdSH6AQIPtPfG6PFRvLSYMmekLJmJX4nfnzekNlB1Ask5r2QBeaY1dTSgFQlGZLIl_ZOWD-zczRco5wp2UC5qHZg6iEWEJ5C2cWslOSHqpFvJDKQYCXibg2_ofZvgwgXjQ0Yswy5dNC1c8PPGOjcm0Gq4h_uj1gNGV7n7YP2Vdxav8d2X9hLqhh_BXuLgKBtgj3H-GWEzc0mIj91gn5qBZj3_rWGBBPihAZM9VanMrAEIOABeMA6OP6zia8Tc0qW-M8KcHKYLiW67PTiO7KwwUzIZP9EEcmr_B3R7OoyX-J-Ti-fY9nDtUG4DSa9Yw8_uVmIOauOXu-4iqsTu3L5_mfezQIXFUb9VnStJ0PfYBX-B-gb1qa9hp6DXdBEvbJCADoIDJOB9n-x9ZAXywA3a9fiXAumNLom74zuEmo7lUHoUDLgX4bt58NUmmSwapcQdzCbT7MncE7LIU_pc4UgbCgEC9tsmZcAbBj3aYy9cmih8JOvLnPBfoeBqexEXt1ufcbwDMot6ccdcmPTL7JhT8yDaucv1RWbAp5REF1XBNmOl13ZFFwHJdr1-1gLAQwqNambKHbSZB6xSautOjMPt553fXZYr-Jgl1IaGZZn1rZkoMKdy0zxK7GDTtAAW-PGRqjoi_mHWR6xdqveNSr5bk6P22wz7ZP9RC_zKT3kT7UUuvLUm1_Ii4SijC9HEzXH3NORhy7P2EUnZwJvj90uWd7K7z5tqtbWPRluK0g13m6fgdIhoOpizJmNud_m_RD_R-E_bSrRlAQMtNRjtTAmdEcw5BPhUBMRaN_AsHskmI19kZXS-y7WgcyPtMsVBheSzBl9Z2VBbvmQBD45MIwfE1xe-q6rcnp5GLpZSi2aJ6a3JjkOO4CzCYylU0_DLvpldteRYLnJUsoFKsp-6IWsNnXyq7oxsJmWOjY_EBwL6-LqZ_U1Tm-1dOKTSJ7Kd6rhOOTHNAR-_Gg7bzd5BrjoN3UKDXPbCugtGYm8bWxVRnONFwxjIbiJMr3njWyK_0_ASMDKvZY6ztrhKDJ5PcVtb8ptMSUzGhzIHkyD_YkVurxmkaZWw-0d?></g></svg>