<svg xmlns="http://www.w3.org/2000/svg" xmlns:xlink="http://www.w3.org/1999/xlink" contentStyleType="text/css" data-diagram-type="GANTT" height="624px" preserveAspectRatio="none" style="width:1832px;height:624px;background:#FFFFFF;" version="1.1" viewBox="0 0 1832 624" width="1832px" zoomAndPan="magnify"><title>Data-Driven Customer Engagement Platform &#8212; 7 months, 5 devs</title><defs/><g><g class="title" data-source-line="1"><text fill="#000000" font-family="sans-serif" font-size="14" font-weight="bold" lengthAdjust="spacing" textLength="512.3945" x="591.3027" y="22.9951">Data-Driven Customer Engagement Platform &#8212; 7 months, 5 devs</text></g><text fill="#000000" font-family="sans-serif" font-size="10" lengthAdjust="spacing" textLength="12.7246" x="37" y="62.5791">41</text><text fill="#000000" font-family="sans-serif" font-size="10" lengthAdjust="spacing" textLength="12.7246" x="93" y="62.5791">42</text><text fill="#000000" font-family="sans-serif" font-size="10" lengthAdjust="spacing" textLength="12.7246" x="149" y="62.5791">43</text><text fill="#000000" font-family="sans-serif" font-size="10" lengthAdjust="spacing" textLength="12.7246" x="205" y="62.5791">44</text><text fill="#000000" font-family="sans-serif" font-size="10" lengthAdjust="spacing" textLength="12.7246" x="261" y="62.5791">45</text><text fill="#000000" font-family="sans-serif" font-size="10" lengthAdjust="spacing" textLength="12.7246" x="317" y="62.5791">46</text><text fill="#000000" font-family="sans-serif" font-size="10" lengthAdjust="spacing" textLength="12.7246" x="373" y="62.5791">47</text><text fill="#000000" font-family="sans-serif" font-size="10" lengthAdjust="spacing" textLength="12.7246" x="429" y="62.5791">48</text><text fill="#000000" font-family="sans-serif" font-size="10" lengthAdjust="spacing" textLength="12.7246" x="485" y="62.5791">49</text><text fill="#000000" font-family="sans-serif" font-size="10" lengthAdjust="spacing" textLength="12.7246" x="541" y="62.5791">50</text><text fill="#000000" font-family="sans-serif" font-size="10" lengthAdjust="spacing" textLength="12.7246" x="597" y="62.5791">51</text><text fill="#000000" font-family="sans-serif" font-size="10" lengthAdjust="spacing" textLength="12.7246" x="653" y="62.5791">52</text><text fill="#000000" font-family="sans-serif" font-size="10" lengthAdjust="spacing" textLength="12.7246" x="709" y="62.5791">53</text><text fill="#000000" font-family="sans-serif" font-size="10" lengthAdjust="spacing" textLength="6.3623" x="765" y="62.5791">1</text><text fill="#000000" font-family="sans-serif" font-size="10" lengthAdjust="spacing" textLength="6.3623" x="821" y="62.5791">2</text><text fill="#000000" font-family="sans-serif" font-size="10" lengthAdjust="spacing" textLength="6.3623" x="877" y="62.5791">3</text><text fill="#000000" font-family="sans-serif" font-size="10" lengthAdjust="spacing" textLength="6.3623" x="933" y="62.5791">4</text><text fill="#000000" font-family="sans-serif" font-size="10" lengthAdjust="spacing" textLength="6.3623" x="989" y="62.5791">5</text><text fill="#000000" font-family="sans-serif" font-size="10" lengthAdjust="spacing" textLength="6.3623" x="1045" y="62.5791">6</text><text fill="#000000" font-family="sans-serif" font-size="10" lengthAdjust="spacing" textLength="6.3623" x="1101" y="62.5791">7</text><text fill="#000000" font-family="sans-serif" font-size="10" lengthAdjust="spacing" textLength="6.3623" x="1157" y="62.5791">8</text><text fill="#000000" font-family="sans-serif" font-size="10" lengthAdjust="spacing" textLength="6.3623" x="1213" y="62.5791">9</text><text fill="#000000" font-family="sans-serif" font-size="10" lengthAdjust="spacing" textLength="12.7246" x="1269" y="62.5791">10</text><text fill="#000000" font-family="sans-serif" font-size="10" lengthAdjust="spacing" textLength="12.7246" x="1325" y="62.5791">11</text><text fill="#000000" font-family="sans-serif" font-size="10" lengthAdjust="spacing" textLength="12.7246" x="1381" y="62.5791">12</text><text fill="#000000" font-family="sans-serif" font-size="10" lengthAdjust="spacing" textLength="12.7246" x="1437" y="62.5791">13</text><text fill="#000000" font-family="sans-serif" font-size="10" lengthAdjust="spacing" textLength="12.7246" x="1493" y="62.5791">14</text><text fill="#000000" font-family="sans-serif" font-size="10" lengthAdjust="spacing" textLength="12.7246" x="1549" y="62.5791">15</text><text fill="#000000" font-family="sans-serif" font-size="10" lengthAdjust="spacing" textLength="12.7246" x="1605" y="62.5791">16</text><text fill="#000000" font-family="sans-serif" font-size="10" lengthAdjust="spacing" textLength="12.7246" x="1661" y="62.5791">17</text><line style="stroke:#C0C0C0;stroke-width:1;" x1="32" x2="32" y1="53.2969" y2="502.6563"/><line style="stroke:#C0C0C0;stroke-width:1;" x1="88" x2="88" y1="53.2969" y2="502.6563"/><line style="stroke:#C0C0C0;stroke-width:1;" x1="144" x2="144" y1="53.2969" y2="502.6563"/><line style="stroke:#C0C0C0;stroke-width:1;" x1="200" x2="200" y1="53.2969" y2="502.6563"/><line style="stroke:#C0C0C0;stroke-width:1;" x1="256" x2="256" y1="53.2969" y2="502.6563"/><line style="stroke:#C0C0C0;stroke-width:1;" x1="312" x2="312" y1="53.2969" y2="502.6563"/><line style="stroke:#C0C0C0;stroke-width:1;" x1="368" x2="368" y1="53.2969" y2="502.6563"/><line style="stroke:#C0C0C0;stroke-width:1;" x1="424" x2="424" y1="53.2969" y2="502.6563"/><line style="stroke:#C0C0C0;stroke-width:1;" x1="480" x2="480" y1="53.2969" y2="502.6563"/><line style="stroke:#C0C0C0;stroke-width:1;" x1="536" x2="536" y1="53.2969" y2="502.6563"/><line style="stroke:#C0C0C0;stroke-width:1;" x1="592" x2="592" y1="53.2969" y2="502.6563"/><line style="stroke:#C0C0C0;stroke-width:1;" x1="648" x2="648" y1="53.2969" y2="502.6563"/><line style="stroke:#C0C0C0;stroke-width:1;" x1="704" x2="704" y1="53.2969" y2="502.6563"/><line style="stroke:#C0C0C0;stroke-width:1;" x1="760" x2="760" y1="53.2969" y2="502.6563"/><line style="stroke:#C0C0C0;stroke-width:1;" x1="816" x2="816" y1="53.2969" y2="502.6563"/><line style="stroke:#C0C0C0;stroke-width:1;" x1="872" x2="872" y1="53.2969" y2="502.6563"/><line style="stroke:#C0C0C0;stroke-width:1;" x1="928" x2="928" y1="53.2969" y2="502.6563"/><line style="stroke:#C0C0C0;stroke-width:1;" x1="984" x2="984" y1="53.2969" y2="502.6563"/><line style="stroke:#C0C0C0;stroke-width:1;" x1="1040" x2="1040" y1="53.2969" y2="502.6563"/><line style="stroke:#C0C0C0;stroke-width:1;" x1="1096" x2="1096" y1="53.2969" y2="502.6563"/><line style="stroke:#C0C0C0;stroke-width:1;" x1="1152" x2="1152" y1="53.2969" y2="502.6563"/><line style="stroke:#C0C0C0;stroke-width:1;" x1="1208" x2="1208" y1="53.2969" y2="502.6563"/><line style="stroke:#C0C0C0;stroke-width:1;" x1="1264" x2="1264" y1="53.2969" y2="502.6563"/><line style="stroke:#C0C0C0;stroke-width:1;" x1="1320" x2="1320" y1="53.2969" y2="502.6563"/><line style="stroke:#C0C0C0;stroke-width:1;" x1="1376" x2="1376" y1="53.2969" y2="502.6563"/><line style="stroke:#C0C0C0;stroke-width:1;" x1="1432" x2="1432" y1="53.2969" y2="502.6563"/><line style="stroke:#C0C0C0;stroke-width:1;" x1="1488" x2="1488" y1="53.2969" y2="502.6563"/><line style="stroke:#C0C0C0;stroke-width:1;" x1="1544" x2="1544" y1="53.2969" y2="502.6563"/><line style="stroke:#C0C0C0;stroke-width:1;" x1="1600" x2="1600" y1="53.2969" y2="502.6563"/><line style="stroke:#C0C0C0;stroke-width:1;" x1="1656" x2="1656" y1="53.2969" y2="502.6563"/><line style="stroke:#C0C0C0;stroke-width:1;" x1="1696" x2="1696" y1="53.2969" y2="502.6563"/><line style="stroke:#C0C0C0;stroke-width:1;" x1="0" x2="0" y1="37.2969" y2="53.2969"/><line style="stroke:#C0C0C0;stroke-width:1;" x1="248" x2="248" y1="37.2969" y2="53.2969"/><text fill="#000000" font-family="sans-serif" font-size="12" font-weight="bold" lengthAdjust="spacing" textLength="60.627" x="93.6865" y="48.4355">Oct 2026</text><line style="stroke:#C0C0C0;stroke-width:1;" x1="488" x2="488" y1="37.2969" y2="53.2969"/><text fill="#000000" font-family="sans-serif" font-size="12" font-weight="bold" lengthAdjust="spacing" textLength="63.6855" x="336.1572" y="48.4355">Nov 2026</text><line style="stroke:#C0C0C0;stroke-width:1;" x1="736" x2="736" y1="37.2969" y2="53.2969"/><text fill="#000000" font-family="sans-serif" font-size="12" font-weight="bold" lengthAdjust="spacing" textLength="62.7891" x="580.6055" y="48.4355">Dec 2026</text><line style="stroke:#C0C0C0;stroke-width:1;" x1="984" x2="984" y1="37.2969" y2="53.2969"/><text fill="#000000" font-family="sans-serif" font-size="12" font-weight="bold" lengthAdjust="spacing" textLength="58.6816" x="830.6592" y="48.4355">Jan 2027</text><line style="stroke:#C0C0C0;stroke-width:1;" x1="1208" x2="1208" y1="37.2969" y2="53.2969"/><text fill="#000000" font-family="sans-serif" font-size="12" font-weight="bold" lengthAdjust="spacing" textLength="62.502" x="1064.749" y="48.4355">Feb 2027</text><line style="stroke:#C0C0C0;stroke-width:1;" x1="1456" x2="1456" y1="37.2969" y2="53.2969"/><text fill="#000000" font-family="sans-serif" font-size="12" font-weight="bold" lengthAdjust="spacing" textLength="63.5332" x="1300.2334" y="48.4355">Mar 2027</text><line style="stroke:#C0C0C0;stroke-width:1;" x1="1696" x2="1696" y1="37.2969" y2="53.2969"/><text fill="#000000" font-family="sans-serif" font-size="12" font-weight="bold" lengthAdjust="spacing" textLength="61.3711" x="1545.3145" y="48.4355">Apr 2027</text><line style="stroke:#C0C0C0;stroke-width:1;" x1="0" x2="1696" y1="37.2969" y2="37.2969"/><line style="stroke:#C0C0C0;stroke-width:1;" x1="0" x2="1696" y1="53.2969" y2="53.2969"/><line style="stroke:#C0C0C0;stroke-width:1;" x1="0" x2="1696" y1="64.2969" y2="64.2969"/><rect fill="#F0F0F0" height="23.9688" style="stroke:none;stroke-width:1;" width="1696" x="0" y="69.2969"/><line style="stroke:#181818;stroke-width:1;" x1="0" x2="5" y1="81.2813" y2="81.2813"/><line style="stroke:#181818;stroke-width:1;" x1="304.7402" x2="1695" y1="81.2813" y2="81.2813"/><rect fill="#BBDEFB" height="12.8047" style="stroke:none;stroke-width:1;" width="116" x="2" y="100.2656"/><rect fill="none" height="12.8047" style="stroke:#1976D2;stroke-width:1;" width="116" x="2" y="100.2656"/><rect fill="#BBDEFB" height="12.8047" style="stroke:none;stroke-width:1;" width="188" x="58" y="117.0703"/><rect fill="none" height="12.8047" style="stroke:#1976D2;stroke-width:1;" width="188" x="58" y="117.0703"/><rect fill="#BBDEFB" height="12.8047" style="stroke:none;stroke-width:1;" width="252" x="114" y="133.875"/><rect fill="none" height="12.8047" style="stroke:#1976D2;stroke-width:1;" width="252" x="114" y="133.875"/><rect fill="#BBDEFB" height="12.8047" style="stroke:none;stroke-width:1;" width="244" x="250" y="150.6797"/><rect fill="none" height="12.8047" style="stroke:#1976D2;stroke-width:1;" width="244" x="250" y="150.6797"/><rect fill="#BBDEFB" height="12.8047" style="stroke:none;stroke-width:1;" width="244" x="362" y="167.4844"/><rect fill="none" height="12.8047" style="stroke:#1976D2;stroke-width:1;" width="244" x="362" y="167.4844"/><rect fill="#F0F0F0" height="23.9688" style="stroke:none;stroke-width:1;" width="1696" x="0" y="187.2891"/><line style="stroke:#181818;stroke-width:1;" x1="0" x2="5" y1="199.2734" y2="199.2734"/><line style="stroke:#181818;stroke-width:1;" x1="318.6152" x2="1695" y1="199.2734" y2="199.2734"/><rect fill="#C8E6C9" height="12.8047" style="stroke:none;stroke-width:1;" width="364" x="490" y="218.2578"/><rect fill="none" height="12.8047" style="stroke:#388E3C;stroke-width:1;" width="364" x="490" y="218.2578"/><rect fill="#C8E6C9" height="12.8047" style="stroke:none;stroke-width:1;" width="364" x="602" y="235.0625"/><rect fill="none" height="12.8047" style="stroke:#388E3C;stroke-width:1;" width="364" x="602" y="235.0625"/><rect fill="#C8E6C9" height="12.8047" style="stroke:none;stroke-width:1;" width="348" x="738" y="251.8672"/><rect fill="none" height="12.8047" style="stroke:#388E3C;stroke-width:1;" width="348" x="738" y="251.8672"/><rect fill="#C8E6C9" height="12.8047" style="stroke:none;stroke-width:1;" width="364" x="738" y="268.6719"/><rect fill="none" height="12.8047" style="stroke:#388E3C;stroke-width:1;" width="364" x="738" y="268.6719"/><rect fill="#C8E6C9" height="12.8047" style="stroke:none;stroke-width:1;" width="164" x="986" y="285.4766"/><rect fill="none" height="12.8047" style="stroke:#388E3C;stroke-width:1;" width="164" x="986" y="285.4766"/><rect fill="#F0F0F0" height="23.9688" style="stroke:none;stroke-width:1;" width="1696" x="0" y="305.2813"/><line style="stroke:#181818;stroke-width:1;" x1="0" x2="5" y1="317.2656" y2="317.2656"/><line style="stroke:#181818;stroke-width:1;" x1="290.2559" x2="1695" y1="317.2656" y2="317.2656"/><rect fill="#FFE0B2" height="12.8047" style="stroke:none;stroke-width:1;" width="228" x="1098" y="336.25"/><rect fill="none" height="12.8047" style="stroke:#E65100;stroke-width:1;" width="228" x="1098" y="336.25"/><rect fill="#FFE0B2" height="12.8047" style="stroke:none;stroke-width:1;" width="228" x="1210" y="353.0547"/><rect fill="none" height="12.8047" style="stroke:#E65100;stroke-width:1;" width="228" x="1210" y="353.0547"/><rect fill="#FFE0B2" height="12.8047" style="stroke:none;stroke-width:1;" width="228" x="1322" y="369.8594"/><rect fill="none" height="12.8047" style="stroke:#E65100;stroke-width:1;" width="228" x="1322" y="369.8594"/><rect fill="#FFE0B2" height="12.8047" style="stroke:none;stroke-width:1;" width="236" x="1458" y="386.6641"/><rect fill="none" height="12.8047" style="stroke:#E65100;stroke-width:1;" width="236" x="1458" y="386.6641"/><rect fill="#F0F0F0" height="23.9688" style="stroke:none;stroke-width:1;" width="1696" x="0" y="406.4688"/><line style="stroke:#181818;stroke-width:1;" x1="0" x2="5" y1="418.4531" y2="418.4531"/><line style="stroke:#181818;stroke-width:1;" x1="88.2539" x2="1695" y1="418.4531" y2="418.4531"/><polygon fill="#FF4500" points="116,437.4375,121,442.4375,116,447.4375,111,442.4375" style="stroke:#FF4500;stroke-width:1;"/><polygon fill="#FF4500" points="492,454.2422,497,459.2422,492,464.2422,487,459.2422" style="stroke:#FF4500;stroke-width:1;"/><polygon fill="#FF4500" points="1204,471.0469,1209,476.0469,1204,481.0469,1199,476.0469" style="stroke:#FF4500;stroke-width:1;"/><polygon fill="#FF4500" points="1692,487.8516,1697,492.8516,1692,497.8516,1687,492.8516" style="stroke:#FF4500;stroke-width:1;"/><text fill="#000000" font-family="sans-serif" font-size="12" font-weight="bold" lengthAdjust="spacing" textLength="289.7402" x="10" y="85.4355">Phase 1: Foundation &amp; WordPress Pipeline</text><text fill="#000000" font-family="sans-serif" font-size="11" lengthAdjust="spacing" textLength="128.5249" x="122" y="110.4761">Discovery &amp; Data Audit</text><text fill="#000000" font-family="sans-serif" font-size="11" lengthAdjust="spacing" textLength="132.9238" x="62" y="127.2808">Snowflake Setup &amp; Infra</text><text fill="#000000" font-family="sans-serif" font-size="11" lengthAdjust="spacing" textLength="184.4487" x="118" y="144.0854">WordPress DB Extraction Pipeline</text><text fill="#000000" font-family="sans-serif" font-size="11" lengthAdjust="spacing" textLength="137.1616" x="254" y="160.8901">ETL Pipeline (WordPress)</text><text fill="#000000" font-family="sans-serif" font-size="11" lengthAdjust="spacing" textLength="130.3833" x="366" y="177.6948">Email Validation Engine</text><text fill="#000000" font-family="sans-serif" font-size="12" font-weight="bold" lengthAdjust="spacing" textLength="303.6152" x="10" y="203.4277">Phase 2: Suggestion Engine &amp; Email Channel</text><text fill="#000000" font-family="sans-serif" font-size="11" lengthAdjust="spacing" textLength="170.7632" x="494" y="228.4683">Customer Segmentation Model</text><text fill="#000000" font-family="sans-serif" font-size="11" lengthAdjust="spacing" textLength="138.3486" x="606" y="245.2729">Recommendation Engine</text><text fill="#000000" font-family="sans-serif" font-size="11" lengthAdjust="spacing" textLength="153.9946" x="742" y="262.0776">Email Campaign Integration</text><text fill="#000000" font-family="sans-serif" font-size="11" lengthAdjust="spacing" textLength="113.3193" x="742" y="278.8823">Analytics Dashboard</text><text fill="#000000" font-family="sans-serif" font-size="11" lengthAdjust="spacing" textLength="183.7129" x="1154" y="295.687">Campaign Testing &amp; Launch Prep</text><text fill="#000000" font-family="sans-serif" font-size="12" font-weight="bold" lengthAdjust="spacing" textLength="275.2559" x="10" y="321.4199">Phase 3: Mobile &amp; Wholesaler Expansion</text><text fill="#000000" font-family="sans-serif" font-size="11" lengthAdjust="spacing" textLength="172.9492" x="1102" y="346.4604">Mobile Vendor Data Integration</text><text fill="#000000" font-family="sans-serif" font-size="11" lengthAdjust="spacing" textLength="156.9434" x="1214" y="363.2651">Wholesaler Data Connectors</text><text fill="#000000" font-family="sans-serif" font-size="11" lengthAdjust="spacing" textLength="138.2305" x="1326" y="380.0698">Mobile Push Notifications</text><text fill="#000000" font-family="sans-serif" font-size="11" lengthAdjust="spacing" textLength="108.1899" x="1462" y="396.8745">UAT &amp; Optimisation</text><text fill="#000000" font-family="sans-serif" font-size="12" font-weight="bold" lengthAdjust="spacing" textLength="73.2539" x="10" y="422.6074">Milestones</text><text fill="#000000" font-family="sans-serif" font-size="11" font-weight="bold" lengthAdjust="spacing" textLength="129.0566" x="124" y="447.6479">Data Audit Complete</text><text fill="#000000" font-family="sans-serif" font-size="11" font-weight="bold" lengthAdjust="spacing" textLength="150.1006" x="500" y="464.4526">WordPress Pipeline Live</text><text fill="#000000" font-family="sans-serif" font-size="11" font-weight="bold" lengthAdjust="spacing" textLength="164.146" x="1212" y="481.2573">First Email Campaign Sent</text><text fill="#000000" font-family="sans-serif" font-size="11" font-weight="bold" lengthAdjust="spacing" textLength="130.8506" x="1700" y="498.062">Full Platform Go-Live</text><line style="stroke:#C0C0C0;stroke-width:1;" x1="0" x2="1696" y1="502.6563" y2="502.6563"/><line style="stroke:#C0C0C0;stroke-width:1;" x1="0" x2="0" y1="502.6563" y2="518.6563"/><line style="stroke:#C0C0C0;stroke-width:1;" x1="248" x2="248" y1="502.6563" y2="518.6563"/><text fill="#000000" font-family="sans-serif" font-size="12" font-weight="bold" lengthAdjust="spacing" textLength="60.627" x="93.6865" y="513.7949">Oct 2026</text><line style="stroke:#C0C0C0;stroke-width:1;" x1="488" x2="488" y1="502.6563" y2="518.6563"/><text fill="#000000" font-family="sans-serif" font-size="12" font-weight="bold" lengthAdjust="spacing" textLength="63.6855" x="336.1572" y="513.7949">Nov 2026</text><line style="stroke:#C0C0C0;stroke-width:1;" x1="736" x2="736" y1="502.6563" y2="518.6563"/><text fill="#000000" font-family="sans-serif" font-size="12" font-weight="bold" lengthAdjust="spacing" textLength="62.7891" x="580.6055" y="513.7949">Dec 2026</text><line style="stroke:#C0C0C0;stroke-width:1;" x1="984" x2="984" y1="502.6563" y2="518.6563"/><text fill="#000000" font-family="sans-serif" font-size="12" font-weight="bold" lengthAdjust="spacing" textLength="58.6816" x="830.6592" y="513.7949">Jan 2027</text><line style="stroke:#C0C0C0;stroke-width:1;" x1="1208" x2="1208" y1="502.6563" y2="518.6563"/><text fill="#000000" font-family="sans-serif" font-size="12" font-weight="bold" lengthAdjust="spacing" textLength="62.502" x="1064.749" y="513.7949">Feb 2027</text><line style="stroke:#C0C0C0;stroke-width:1;" x1="1456" x2="1456" y1="502.6563" y2="518.6563"/><text fill="#000000" font-family="sans-serif" font-size="12" font-weight="bold" lengthAdjust="spacing" textLength="63.5332" x="1300.2334" y="513.7949">Mar 2027</text><line style="stroke:#C0C0C0;stroke-width:1;" x1="1696" x2="1696" y1="502.6563" y2="518.6563"/><text fill="#000000" font-family="sans-serif" font-size="12" font-weight="bold" lengthAdjust="spacing" textLength="61.3711" x="1545.3145" y="513.7949">Apr 2027</text><line style="stroke:#C0C0C0;stroke-width:1;" x1="0" x2="1696" y1="518.6563" y2="518.6563"/><g class="legend" data-source-line="64"><rect fill="#DDDDDD" height="79.1875" rx="7.5" ry="7.5" style="stroke:#000000;stroke-width:1;" width="164.6836" x="1518.3164" y="530.6563"/><rect fill="#BBDEFB" height="16.2969" style="stroke:none;stroke-width:1;" width="154.6836" x="1523.3164" y="537.6563"/><text fill="#000000" font-family="sans-serif" font-size="14" lengthAdjust="spacing" textLength="142.9736" x="1527.7666" y="550.6514">Phase 1: Foundation</text><rect fill="#C8E6C9" height="16.2969" style="stroke:none;stroke-width:1;" width="154.6836" x="1523.3164" y="553.9531"/><text fill="#000000" font-family="sans-serif" font-size="14" lengthAdjust="spacing" textLength="145.7832" x="1527.7666" y="566.9482">Phase 2: Intelligence</text><rect fill="#FFE0B2" height="16.2969" style="stroke:none;stroke-width:1;" width="154.6836" x="1523.3164" y="570.25"/><text fill="#000000" font-family="sans-serif" font-size="14" lengthAdjust="spacing" textLength="136.418" x="1527.7666" y="583.2451">Phase 3: Expansion</text><rect fill="#FF4500" height="16.2969" style="stroke:none;stroke-width:1;" width="154.6836" x="1523.3164" y="586.5469"/><text fill="#000000" font-family="sans-serif" font-size="14" lengthAdjust="spacing" textLength="67.3066" x="1527.7666" y="599.542">Milestone</text><line style="stroke:#000000;stroke-width:1;" x1="1523.3164" x2="1678" y1="537.6563" y2="537.6563"/><line style="stroke:#000000;stroke-width:1;" x1="1523.3164" x2="1678" y1="553.9531" y2="553.9531"/><line style="stroke:#000000;stroke-width:1;" x1="1523.3164" x2="1678" y1="570.25" y2="570.25"/><line style="stroke:#000000;stroke-width:1;" x1="1523.3164" x2="1678" y1="586.5469" y2="586.5469"/><line style="stroke:#000000;stroke-width:1;" x1="1523.3164" x2="1678" y1="602.8438" y2="602.8438"/><line style="stroke:#000000;stroke-width:1;" x1="1523.3164" x2="1523.3164" y1="537.6563" y2="602.8438"/><line style="stroke:#000000;stroke-width:1;" x1="1678" x2="1678" y1="537.6563" y2="602.8438"/></g><!--SRC=[ZLRRRjj647tdLmmWeB21CYOfovO5GuXrCn98ZM39xeFHXnMvehPUxXAxIoLA4w0VqI_ibtH8Ic93Kc9Ws339cNFEpCvbtsj3b0c9CCOop70A8sA8FL9iImKC4sraH1MCHKX26b5XOCw9MKiLmRz__mEt44bXDlfNw410jzgA5HD6-mI1FbFwndVmLSe8FFmW_wI-WOnFW-TuDxRhs8vhMVVQx3ZjMvcA4IEX8X7yPG4Oej-oVm0cIBDWNocuBZv_nz-8SOhg1Asrs3-dmB2IFCXU3OZ_zgXa8eAXv5B19qL4I9ze_dNA1As-JwaqZOaY1h-KgRoVfMfDdFGd0_nktL_jGxPi6-OReX6gXp1eJWoJ0dw1twKAvefg3NCMKuxQmBQjrn7JljnIjKEJzAJW8GcO-QEQLY0Y02g2uftREUtEDFYfJXe04z0Q34RZoU2gvTxTtemywtKXvESr9syK5jGaCJf_46j5ghJTActRFUFVm5iaOJI0yHUZY9-bvv2IYW2tKnRWPd4t0pKe6I-dnK5S7E4kImhScinxQP6V0MXYZWZZy48uszS6zc8rTBScT2yB_QJ_UTwYChqUB98mn6OhlF44SzpXXWX1ULQRnscne64wAdAwcGmeBwdroccwnHUPshCO9SN3xlXcU7VLQdUxu_RGUdsYlepGwLoUl7AUCcRlxgHt0-S-2oIA2Gi5bhMXEBvIXFyJPoJLa55C-pn40_k387ndc8zbJVHc9OaAVewsSyAtWUyeSfbMWmYn3AOa4Vu6i9ZZ4hLNI-svpJ3dLHILsUvXPQnm3wJpSYDn7-3UmMNr9IP2fuUOLkNUuWLLu1pEXjxfKwehZtQMhYQOakR9PEmClAlM-ARZEWuEe49UvZkKs3O-hXHTKj2koLexAz1p40tiU_7pH6_WDsdOclcPx2fvDVnhR9gp20tSpmzBF9vFiM4HqtKvlww9-Dfkdt0zpvRMnknmCT3vnZokESnO57DgiAit98wf-74trcpSATw2oiRvE9ymfGsKMdU10-i7yxpYksYUS5xSd1wbNK4-16rn6c8YGB5mO_2wyEr-FvdxjHU5Rxb9tYBzOcAdjSavGoYV7epoNFMBvYaQPMznlFZqYopYjrHFBijwZt_oswA5uGZpF9i2tYSo4FSTnj5vvpeNouHYbMp1kGRtjkSvlUixU5uEqpWxbzR5utmAMYOAfGLC6yLMIHhCfVMHR0ay9G8FdFRWKH72NsQ75pYIjqn9aQu5w-FBB5rBA_Gc1jjoPetecYGSpqJuCi2XqaF6YTsrfXXIWfVN7WWy16k8kJDgbp_z1m00]--></g></svg>