<svg xmlns="http://www.w3.org/2000/svg" xmlns:xlink="http://www.w3.org/1999/xlink" contentStyleType="text/css" data-diagram-type="MINDMAP" height="875px" preserveAspectRatio="none" style="width:702px;height:875px;background:#FFFFFF;" version="1.1" viewBox="0 0 702 875" width="702px" zoomAndPan="magnify"><title>[Project Name] &#8212; Feature Areas</title><defs/><g><g class="title" data-source-line="1"><text fill="#000000" font-family="sans-serif" font-size="14" font-weight="bold" lengthAdjust="spacing" textLength="254.1875" x="222.7837" y="32.9951">[Project Name] &#8212; Feature Areas</text></g><rect fill="#F1F1F1" height="36.2969" rx="12.5" ry="12.5" style="stroke:#181818;stroke-width:1.5;" width="125.1299" x="10" y="437.3008"/><text fill="#000000" font-family="sans-serif" font-size="14" lengthAdjust="spacing" textLength="105.1299" x="20" y="460.2959">[Project Name]</text><rect fill="#F1F1F1" height="36.2969" rx="12.5" ry="12.5" style="stroke:#181818;stroke-width:1.5;" width="118.4307" x="185.1299" y="127.668"/><text fill="#000000" font-family="sans-serif" font-size="14" lengthAdjust="spacing" textLength="98.4307" x="195.1299" y="150.6631">Core Features</text><rect fill="#F1F1F1" height="36.2969" rx="12.5" ry="12.5" style="stroke:#181818;stroke-width:1.5;" width="88.0039" x="353.5605" y="85.4453"/><text fill="#000000" font-family="sans-serif" font-size="14" lengthAdjust="spacing" textLength="68.0039" x="363.5605" y="108.4404">Feature A</text><rect fill="#F1F1F1" height="36.2969" rx="12.5" ry="12.5" style="stroke:#181818;stroke-width:1.5;" width="125.4854" x="491.5645" y="57.2969"/><text fill="#000000" font-family="sans-serif" font-size="14" lengthAdjust="spacing" textLength="105.4854" x="501.5645" y="80.292">Sub-feature A1</text><path d="M441.5645,103.5938 L451.5645,103.5938 C466.5645,103.5938 466.5645,75.4453 481.5645,75.4453 L491.5645,75.4453" fill="none" style="stroke:#181818;stroke-width:1;"/><rect fill="#F1F1F1" height="36.2969" rx="12.5" ry="12.5" style="stroke:#181818;stroke-width:1.5;" width="125.4854" x="491.5645" y="113.5938"/><text fill="#000000" font-family="sans-serif" font-size="14" lengthAdjust="spacing" textLength="105.4854" x="501.5645" y="136.5889">Sub-feature A2</text><path d="M441.5645,103.5938 L451.5645,103.5938 C466.5645,103.5938 466.5645,131.7422 481.5645,131.7422 L491.5645,131.7422" fill="none" style="stroke:#181818;stroke-width:1;"/><path d="M303.5605,145.8164 L313.5605,145.8164 C328.5605,145.8164 328.5605,103.5938 343.5605,103.5938 L353.5605,103.5938" fill="none" style="stroke:#181818;stroke-width:1;"/><rect fill="#F1F1F1" height="36.2969" rx="12.5" ry="12.5" style="stroke:#181818;stroke-width:1.5;" width="88.0313" x="353.5605" y="141.7422"/><text fill="#000000" font-family="sans-serif" font-size="14" lengthAdjust="spacing" textLength="68.0313" x="363.5605" y="164.7373">Feature B</text><path d="M303.5605,145.8164 L313.5605,145.8164 C328.5605,145.8164 328.5605,159.8906 343.5605,159.8906 L353.5605,159.8906" fill="none" style="stroke:#181818;stroke-width:1;"/><rect fill="#F1F1F1" height="36.2969" rx="12.5" ry="12.5" style="stroke:#181818;stroke-width:1.5;" width="88.2021" x="353.5605" y="198.0391"/><text fill="#000000" font-family="sans-serif" font-size="14" lengthAdjust="spacing" textLength="68.2021" x="363.5605" y="221.0342">Feature C</text><path d="M303.5605,145.8164 L313.5605,145.8164 C328.5605,145.8164 328.5605,216.1875 343.5605,216.1875 L353.5605,216.1875" fill="none" style="stroke:#181818;stroke-width:1;"/><path d="M135.1299,455.4492 L145.1299,455.4492 C160.1299,455.4492 160.1299,145.8164 175.1299,145.8164 L185.1299,145.8164" fill="none" style="stroke:#181818;stroke-width:1;"/><rect fill="#F1F1F1" height="36.2969" rx="12.5" ry="12.5" style="stroke:#181818;stroke-width:1.5;" width="104.4375" x="185.1299" y="310.6328"/><text fill="#000000" font-family="sans-serif" font-size="14" lengthAdjust="spacing" textLength="84.4375" x="195.1299" y="333.6279">Integrations</text><rect fill="#F1F1F1" height="36.2969" rx="12.5" ry="12.5" style="stroke:#181818;stroke-width:1.5;" width="115.457" x="339.5674" y="254.3359"/><text fill="#000000" font-family="sans-serif" font-size="14" lengthAdjust="spacing" textLength="95.457" x="349.5674" y="277.3311">Auth Provider</text><path d="M289.5674,328.7813 L299.5674,328.7813 C314.5674,328.7813 314.5674,272.4844 329.5674,272.4844 L339.5674,272.4844" fill="none" style="stroke:#181818;stroke-width:1;"/><rect fill="#F1F1F1" height="36.2969" rx="12.5" ry="12.5" style="stroke:#181818;stroke-width:1.5;" width="148.2148" x="339.5674" y="310.6328"/><text fill="#000000" font-family="sans-serif" font-size="14" lengthAdjust="spacing" textLength="128.2148" x="349.5674" y="333.6279">Payment Gateway</text><path d="M289.5674,328.7813 L299.5674,328.7813 C314.5674,328.7813 314.5674,328.7813 329.5674,328.7813 L339.5674,328.7813" fill="none" style="stroke:#181818;stroke-width:1;"/><rect fill="#F1F1F1" height="36.2969" rx="12.5" ry="12.5" style="stroke:#181818;stroke-width:1.5;" width="83.5742" x="339.5674" y="366.9297"/><text fill="#000000" font-family="sans-serif" font-size="14" lengthAdjust="spacing" textLength="63.5742" x="349.5674" y="389.9248">Analytics</text><path d="M289.5674,328.7813 L299.5674,328.7813 C314.5674,328.7813 314.5674,385.0781 329.5674,385.0781 L339.5674,385.0781" fill="none" style="stroke:#181818;stroke-width:1;"/><path d="M135.1299,455.4492 L145.1299,455.4492 C160.1299,455.4492 160.1299,328.7813 175.1299,328.7813 L185.1299,328.7813" fill="none" style="stroke:#181818;stroke-width:1;"/><rect fill="#F1F1F1" height="36.2969" rx="12.5" ry="12.5" style="stroke:#181818;stroke-width:1.5;" width="125.7451" x="185.1299" y="563.9688"/><text fill="#000000" font-family="sans-serif" font-size="14" lengthAdjust="spacing" textLength="105.7451" x="195.1299" y="586.9639">Non-Functional</text><rect fill="#F1F1F1" height="36.2969" rx="12.5" ry="12.5" style="stroke:#181818;stroke-width:1.5;" width="109.4619" x="360.875" y="451.375"/><text fill="#000000" font-family="sans-serif" font-size="14" lengthAdjust="spacing" textLength="89.4619" x="370.875" y="474.3701">Performance</text><rect fill="#F1F1F1" height="36.2969" rx="12.5" ry="12.5" style="stroke:#181818;stroke-width:1.5;" width="170.418" x="520.3369" y="423.2266"/><text fill="#000000" font-family="sans-serif" font-size="14" lengthAdjust="spacing" textLength="150.418" x="530.3369" y="446.2217">&lt; 200ms P95 latency</text><path d="M470.3369,469.5234 L480.3369,469.5234 C495.3369,469.5234 495.3369,441.375 510.3369,441.375 L520.3369,441.375" fill="none" style="stroke:#181818;stroke-width:1;"/><rect fill="#F1F1F1" height="36.2969" rx="12.5" ry="12.5" style="stroke:#181818;stroke-width:1.5;" width="158.8994" x="520.3369" y="479.5234"/><text fill="#000000" font-family="sans-serif" font-size="14" lengthAdjust="spacing" textLength="138.8994" x="530.3369" y="502.5186">1000 req/s capacity</text><path d="M470.3369,469.5234 L480.3369,469.5234 C495.3369,469.5234 495.3369,497.6719 510.3369,497.6719 L520.3369,497.6719" fill="none" style="stroke:#181818;stroke-width:1;"/><path d="M310.875,582.1172 L320.875,582.1172 C335.875,582.1172 335.875,469.5234 350.875,469.5234 L360.875,469.5234" fill="none" style="stroke:#181818;stroke-width:1;"/><rect fill="#F1F1F1" height="36.2969" rx="12.5" ry="12.5" style="stroke:#181818;stroke-width:1.5;" width="77.4902" x="360.875" y="563.9688"/><text fill="#000000" font-family="sans-serif" font-size="14" lengthAdjust="spacing" textLength="57.4902" x="370.875" y="586.9639">Security</text><rect fill="#F1F1F1" height="36.2969" rx="12.5" ry="12.5" style="stroke:#181818;stroke-width:1.5;" width="123.0791" x="488.3652" y="535.8203"/><text fill="#000000" font-family="sans-serif" font-size="14" lengthAdjust="spacing" textLength="103.0791" x="498.3652" y="558.8154">OAuth2 + MFA</text><path d="M438.3652,582.1172 L448.3652,582.1172 C463.3652,582.1172 463.3652,553.9688 478.3652,553.9688 L488.3652,553.9688" fill="none" style="stroke:#181818;stroke-width:1;"/><rect fill="#F1F1F1" height="36.2969" rx="12.5" ry="12.5" style="stroke:#181818;stroke-width:1.5;" width="145.2822" x="488.3652" y="592.1172"/><text fill="#000000" font-family="sans-serif" font-size="14" lengthAdjust="spacing" textLength="125.2822" x="498.3652" y="615.1123">Encryption at rest</text><path d="M438.3652,582.1172 L448.3652,582.1172 C463.3652,582.1172 463.3652,610.2656 478.3652,610.2656 L488.3652,610.2656" fill="none" style="stroke:#181818;stroke-width:1;"/><path d="M310.875,582.1172 L320.875,582.1172 C335.875,582.1172 335.875,582.1172 350.875,582.1172 L360.875,582.1172" fill="none" style="stroke:#181818;stroke-width:1;"/><rect fill="#F1F1F1" height="36.2969" rx="12.5" ry="12.5" style="stroke:#181818;stroke-width:1.5;" width="89.0293" x="360.875" y="676.5625"/><text fill="#000000" font-family="sans-serif" font-size="14" lengthAdjust="spacing" textLength="69.0293" x="370.875" y="699.5576">Reliability</text><rect fill="#F1F1F1" height="36.2969" rx="12.5" ry="12.5" style="stroke:#181818;stroke-width:1.5;" width="95.1885" x="499.9043" y="648.4141"/><text fill="#000000" font-family="sans-serif" font-size="14" lengthAdjust="spacing" textLength="75.1885" x="509.9043" y="671.4092">99.9% SLA</text><path d="M449.9043,694.7109 L459.9043,694.7109 C474.9043,694.7109 474.9043,666.5625 489.9043,666.5625 L499.9043,666.5625" fill="none" style="stroke:#181818;stroke-width:1;"/><rect fill="#F1F1F1" height="36.2969" rx="12.5" ry="12.5" style="stroke:#181818;stroke-width:1.5;" width="166.6309" x="499.9043" y="704.7109"/><text fill="#000000" font-family="sans-serif" font-size="14" lengthAdjust="spacing" textLength="146.6309" x="509.9043" y="727.7061">Multi-AZ deployment</text><path d="M449.9043,694.7109 L459.9043,694.7109 C474.9043,694.7109 474.9043,722.8594 489.9043,722.8594 L499.9043,722.8594" fill="none" style="stroke:#181818;stroke-width:1;"/><path d="M310.875,582.1172 L320.875,582.1172 C335.875,582.1172 335.875,694.7109 350.875,694.7109 L360.875,694.7109" fill="none" style="stroke:#181818;stroke-width:1;"/><path d="M135.1299,455.4492 L145.1299,455.4492 C160.1299,455.4492 160.1299,582.1172 175.1299,582.1172 L185.1299,582.1172" fill="none" style="stroke:#181818;stroke-width:1;"/><rect fill="#F1F1F1" height="36.2969" rx="12.5" ry="12.5" style="stroke:#181818;stroke-width:1.5;" width="134.4336" x="185.1299" y="789.1563"/><text fill="#000000" font-family="sans-serif" font-size="14" lengthAdjust="spacing" textLength="114.4336" x="195.1299" y="812.1514">Future / Phase 2</text><rect fill="#F1F1F1" height="36.2969" rx="12.5" ry="12.5" style="stroke:#181818;stroke-width:1.5;" width="89.207" x="369.5635" y="761.0078"/><text fill="#000000" font-family="sans-serif" font-size="14" lengthAdjust="spacing" textLength="69.207" x="379.5635" y="784.0029">Feature D</text><path d="M319.5635,807.3047 L329.5635,807.3047 C344.5635,807.3047 344.5635,779.1563 359.5635,779.1563 L369.5635,779.1563" fill="none" style="stroke:#181818;stroke-width:1;"/><rect fill="#F1F1F1" height="36.2969" rx="12.5" ry="12.5" style="stroke:#181818;stroke-width:1.5;" width="87.2725" x="369.5635" y="817.3047"/><text fill="#000000" font-family="sans-serif" font-size="14" lengthAdjust="spacing" textLength="67.2725" x="379.5635" y="840.2998">Feature E</text><path d="M319.5635,807.3047 L329.5635,807.3047 C344.5635,807.3047 344.5635,835.4531 359.5635,835.4531 L369.5635,835.4531" fill="none" style="stroke:#181818;stroke-width:1;"/><path d="M135.1299,455.4492 L145.1299,455.4492 C160.1299,455.4492 160.1299,807.3047 175.1299,807.3047 L185.1299,807.3047" fill="none" style="stroke:#181818;stroke-width:1;"/><!--SRC=[RL5DRzD04BtlhvWBKckKrBPQWIqE3MaTKSN5QjeSG1mcwqcwQBqE-s7a6p-2NyWlOTTsGK4SvysycVVUN1kBsZP2rGqUcHLM4dokTFkLk8LxREWB_Fhn4mf2wpJ1GXCQng9_PbWKmRBr_MdEU23wImfL11ktc-rVeEG_M7h2UdzIBSE93yhIGQCLhHelB9nz1g-a4pNf0QcmRqXPMA6bxzYFKmfbRmKF7BXlrQnmYeSbA4SEwNsh6rISHbNl88tZna2LNO7qYnJlnqOInp5e-dPXWECHkR3ZXGrnfwSYWez1LWgleImcwxUAw_uOJW9Qly3OWVP0Kk1Eo3_CB9jdhs2pdcYbarRC5f-WfgDi1sF1Gk66I2wWUaP3S1hRpKbrowx9ltPwBwiaAljKhg4ZROAQP9x6wTKyYSyU7VbiEeWl8NcJft5-cS7Jun92_voThQercDPfJb0BOxNOkM3ddDrXX_3Wb1KDvR3IY79RlW3UU2TqgmRbTzio3m_tR9yfR4jsGtlq5aCyRItK8VSNYzbRjaPrS7Zm-vIJaYrRlqttO_KR]--></g></svg>