<?plantuml 1.2026.1?><svg xmlns="http://www.w3.org/2000/svg" xmlns:xlink="http://www.w3.org/1999/xlink" contentStyleType="text/css" data-diagram-type="GANTT" height="439px" preserveAspectRatio="none" style="width:649px;height:439px;background:#FFFFFF;" version="1.1" viewBox="0 0 649 439" width="649px" zoomAndPan="magnify"><title>Option [N]: [Name] &#8212; [duration], [team] devs</title><defs/><g><g class="title" data-source-line="1"><text fill="#000000" font-family="sans-serif" font-size="14" font-weight="bold" lengthAdjust="spacing" textLength="359.9258" x="103.5371" y="22.9951">Option [N]: [Name] &#8212; [duration], [team] devs</text></g><text fill="#000000" font-family="sans-serif" font-size="10" lengthAdjust="spacing" textLength="12.7246" x="13" y="62.5791">10</text><text fill="#000000" font-family="sans-serif" font-size="10" lengthAdjust="spacing" textLength="12.7246" x="69" y="62.5791">11</text><text fill="#000000" font-family="sans-serif" font-size="10" lengthAdjust="spacing" textLength="12.7246" x="125" y="62.5791">12</text><text fill="#000000" font-family="sans-serif" font-size="10" lengthAdjust="spacing" textLength="12.7246" x="181" y="62.5791">13</text><text fill="#000000" font-family="sans-serif" font-size="10" lengthAdjust="spacing" textLength="12.7246" x="237" y="62.5791">14</text><text fill="#000000" font-family="sans-serif" font-size="10" lengthAdjust="spacing" textLength="12.7246" x="293" y="62.5791">15</text><text fill="#000000" font-family="sans-serif" font-size="10" lengthAdjust="spacing" textLength="12.7246" x="349" y="62.5791">16</text><text fill="#000000" font-family="sans-serif" font-size="10" lengthAdjust="spacing" textLength="12.7246" x="405" y="62.5791">17</text><text fill="#000000" font-family="sans-serif" font-size="10" lengthAdjust="spacing" textLength="12.7246" x="461" y="62.5791">18</text><text fill="#000000" font-family="sans-serif" font-size="10" lengthAdjust="spacing" textLength="12.7246" x="517" y="62.5791">19</text><line style="stroke:#C0C0C0;stroke-width:1;" x1="8" x2="8" y1="53.2969" y2="317.4453"/><line style="stroke:#C0C0C0;stroke-width:1;" x1="64" x2="64" y1="53.2969" y2="317.4453"/><line style="stroke:#C0C0C0;stroke-width:1;" x1="120" x2="120" y1="53.2969" y2="317.4453"/><line style="stroke:#C0C0C0;stroke-width:1;" x1="176" x2="176" y1="53.2969" y2="317.4453"/><line style="stroke:#C0C0C0;stroke-width:1;" x1="232" x2="232" y1="53.2969" y2="317.4453"/><line style="stroke:#C0C0C0;stroke-width:1;" x1="288" x2="288" y1="53.2969" y2="317.4453"/><line style="stroke:#C0C0C0;stroke-width:1;" x1="344" x2="344" y1="53.2969" y2="317.4453"/><line style="stroke:#C0C0C0;stroke-width:1;" x1="400" x2="400" y1="53.2969" y2="317.4453"/><line style="stroke:#C0C0C0;stroke-width:1;" x1="456" x2="456" y1="53.2969" y2="317.4453"/><line style="stroke:#C0C0C0;stroke-width:1;" x1="512" x2="512" y1="53.2969" y2="317.4453"/><line style="stroke:#C0C0C0;stroke-width:1;" x1="568" x2="568" y1="53.2969" y2="317.4453"/><line style="stroke:#C0C0C0;stroke-width:1;" x1="0" x2="0" y1="37.2969" y2="53.2969"/><line style="stroke:#C0C0C0;stroke-width:1;" x1="248" x2="248" y1="37.2969" y2="53.2969"/><text fill="#000000" font-family="sans-serif" font-size="12" font-weight="bold" lengthAdjust="spacing" textLength="63.5332" x="92.2334" y="48.4355">Mar 2026</text><line style="stroke:#C0C0C0;stroke-width:1;" x1="488" x2="488" y1="37.2969" y2="53.2969"/><text fill="#000000" font-family="sans-serif" font-size="12" font-weight="bold" lengthAdjust="spacing" textLength="61.3711" x="337.3145" y="48.4355">Apr 2026</text><line style="stroke:#C0C0C0;stroke-width:1;" x1="568" x2="568" y1="37.2969" y2="53.2969"/><text fill="#000000" font-family="sans-serif" font-size="12" font-weight="bold" lengthAdjust="spacing" textLength="65.4375" x="495.2813" y="48.4355">May 2026</text><line style="stroke:#C0C0C0;stroke-width:1;" x1="0" x2="568" y1="37.2969" y2="37.2969"/><line style="stroke:#C0C0C0;stroke-width:1;" x1="0" x2="568" y1="53.2969" y2="53.2969"/><line style="stroke:#C0C0C0;stroke-width:1;" x1="0" x2="568" y1="64.2969" y2="64.2969"/><rect fill="#F0F0F0" height="23.9688" style="stroke:none;stroke-width:1;" width="568" x="0" y="69.2969"/><line style="stroke:#181818;stroke-width:1;" x1="0" x2="5" y1="81.2813" y2="81.2813"/><line style="stroke:#181818;stroke-width:1;" x1="72.6094" x2="567" y1="81.2813" y2="81.2813"/><rect fill="#BBDEFB" height="12.8047" style="stroke:none;stroke-width:1;" width="116" x="2" y="100.2656"/><rect fill="none" height="12.8047" style="stroke:#1976D2;stroke-width:1;" width="116" x="2" y="100.2656"/><rect fill="#BBDEFB" height="12.8047" style="stroke:none;stroke-width:1;" width="180" x="74" y="117.0703"/><rect fill="none" height="12.8047" style="stroke:#1976D2;stroke-width:1;" width="180" x="74" y="117.0703"/><rect fill="#C8E6C9" height="12.8047" style="stroke:none;stroke-width:1;" width="156" x="250" y="133.875"/><rect fill="none" height="12.8047" style="stroke:#388E3C;stroke-width:1;" width="156" x="250" y="133.875"/><rect fill="#FFE0B2" height="12.8047" style="stroke:none;stroke-width:1;" width="132" x="362" y="150.6797"/><rect fill="none" height="12.8047" style="stroke:#E65100;stroke-width:1;" width="132" x="362" y="150.6797"/><rect fill="#F0F0F0" height="23.9688" style="stroke:none;stroke-width:1;" width="568" x="0" y="170.4844"/><line style="stroke:#181818;stroke-width:1;" x1="0" x2="5" y1="182.4688" y2="182.4688"/><line style="stroke:#181818;stroke-width:1;" x1="76.9102" x2="567" y1="182.4688" y2="182.4688"/><rect fill="#BBDEFB" height="12.8047" style="stroke:none;stroke-width:1;" width="156" x="2" y="201.4531"/><rect fill="none" height="12.8047" style="stroke:#1976D2;stroke-width:1;" width="156" x="2" y="201.4531"/><rect fill="#C8E6C9" height="12.8047" style="stroke:none;stroke-width:1;" width="172" x="154" y="218.2578"/><rect fill="none" height="12.8047" style="stroke:#388E3C;stroke-width:1;" width="172" x="154" y="218.2578"/><rect fill="#FFE0B2" height="12.8047" style="stroke:none;stroke-width:1;" width="164" x="402" y="235.0625"/><rect fill="none" height="12.8047" style="stroke:#E65100;stroke-width:1;" width="164" x="402" y="235.0625"/><rect fill="#F0F0F0" height="23.9688" style="stroke:none;stroke-width:1;" width="568" x="0" y="254.8672"/><line style="stroke:#181818;stroke-width:1;" x1="0" x2="5" y1="266.8516" y2="266.8516"/><line style="stroke:#181818;stroke-width:1;" x1="88.2539" x2="567" y1="266.8516" y2="266.8516"/><polygon fill="#FF4500" points="196,285.8359,201,290.8359,196,295.8359,191,290.8359" style="stroke:#FF4500;stroke-width:1;"/><polygon fill="#FF4500" points="564,302.6406,569,307.6406,564,312.6406,559,307.6406" style="stroke:#FF4500;stroke-width:1;"/><text fill="#000000" font-family="sans-serif" font-size="12" font-weight="bold" lengthAdjust="spacing" textLength="57.6094" x="10" y="85.4355">Backend</text><text fill="#000000" font-family="sans-serif" font-size="11" lengthAdjust="spacing" textLength="79.0356" x="6" y="110.4761">Task 1 - Setup</text><text fill="#000000" font-family="sans-serif" font-size="11" lengthAdjust="spacing" textLength="93.6182" x="78" y="127.2808">Task 2 - Core API</text><text fill="#000000" font-family="sans-serif" font-size="11" lengthAdjust="spacing" textLength="107.6313" x="254" y="144.0854">Task 3 - Integration</text><text fill="#000000" font-family="sans-serif" font-size="11" lengthAdjust="spacing" textLength="79.1968" x="366" y="160.8901">Task 4 - Polish</text><text fill="#000000" font-family="sans-serif" font-size="12" font-weight="bold" lengthAdjust="spacing" textLength="61.9102" x="10" y="186.623">Frontend</text><text fill="#000000" font-family="sans-serif" font-size="11" lengthAdjust="spacing" textLength="88.6445" x="6" y="211.6636">Task 5 - UI Shell</text><text fill="#000000" font-family="sans-serif" font-size="11" lengthAdjust="spacing" textLength="120.0063" x="158" y="228.4683">Task 6 - Core Screens</text><text fill="#000000" font-family="sans-serif" font-size="11" lengthAdjust="spacing" textLength="92.8501" x="406" y="245.2729">Task 7 - Final QA</text><text fill="#000000" font-family="sans-serif" font-size="12" font-weight="bold" lengthAdjust="spacing" textLength="73.2539" x="10" y="271.0059">Milestones</text><text fill="#000000" font-family="sans-serif" font-size="11" font-weight="bold" lengthAdjust="spacing" textLength="64.9258" x="204" y="296.0464">POC Demo</text><text fill="#000000" font-family="sans-serif" font-size="11" font-weight="bold" lengthAdjust="spacing" textLength="75.7969" x="572" y="312.8511">MVP Launch</text><line style="stroke:#C0C0C0;stroke-width:1;" x1="0" x2="568" y1="317.4453" y2="317.4453"/><line style="stroke:#C0C0C0;stroke-width:1;" x1="0" x2="0" y1="317.4453" y2="333.4453"/><line style="stroke:#C0C0C0;stroke-width:1;" x1="248" x2="248" y1="317.4453" y2="333.4453"/><text fill="#000000" font-family="sans-serif" font-size="12" font-weight="bold" lengthAdjust="spacing" textLength="63.5332" x="92.2334" y="328.584">Mar 2026</text><line style="stroke:#C0C0C0;stroke-width:1;" x1="488" x2="488" y1="317.4453" y2="333.4453"/><text fill="#000000" font-family="sans-serif" font-size="12" font-weight="bold" lengthAdjust="spacing" textLength="61.3711" x="337.3145" y="328.584">Apr 2026</text><line style="stroke:#C0C0C0;stroke-width:1;" x1="568" x2="568" y1="317.4453" y2="333.4453"/><text fill="#000000" font-family="sans-serif" font-size="12" font-weight="bold" lengthAdjust="spacing" textLength="65.4375" x="495.2813" y="328.584">May 2026</text><line style="stroke:#C0C0C0;stroke-width:1;" x1="0" x2="568" y1="333.4453" y2="333.4453"/><g class="legend" data-source-line="46"><rect fill="#DDDDDD" height="79.1875" rx="7.5" ry="7.5" style="stroke:#000000;stroke-width:1;" width="95.251" x="459.749" y="345.4453"/><rect fill="#BBDEFB" height="16.2969" style="stroke:none;stroke-width:1;" width="85.251" x="464.749" y="352.4453"/><text fill="#000000" font-family="sans-serif" font-size="14" lengthAdjust="spacing" textLength="75.4893" x="469.1992" y="365.4404">POC Phase</text><rect fill="#C8E6C9" height="16.2969" style="stroke:none;stroke-width:1;" width="85.251" x="464.749" y="368.7422"/><text fill="#000000" font-family="sans-serif" font-size="14" lengthAdjust="spacing" textLength="76.3506" x="469.1992" y="381.7373">MVP Phase</text><rect fill="#FFE0B2" height="16.2969" style="stroke:none;stroke-width:1;" width="85.251" x="464.749" y="385.0391"/><text fill="#000000" font-family="sans-serif" font-size="14" lengthAdjust="spacing" textLength="70.957" x="469.1992" y="398.0342">Full Phase</text><rect fill="#FF4500" height="16.2969" style="stroke:none;stroke-width:1;" width="85.251" x="464.749" y="401.3359"/><text fill="#000000" font-family="sans-serif" font-size="14" lengthAdjust="spacing" textLength="67.3066" x="469.1992" y="414.3311">Milestone</text><line style="stroke:#000000;stroke-width:1;" x1="464.749" x2="550" y1="352.4453" y2="352.4453"/><line style="stroke:#000000;stroke-width:1;" x1="464.749" x2="550" y1="368.7422" y2="368.7422"/><line style="stroke:#000000;stroke-width:1;" x1="464.749" x2="550" y1="385.0391" y2="385.0391"/><line style="stroke:#000000;stroke-width:1;" x1="464.749" x2="550" y1="401.3359" y2="401.3359"/><line style="stroke:#000000;stroke-width:1;" x1="464.749" x2="550" y1="417.6328" y2="417.6328"/><line style="stroke:#000000;stroke-width:1;" x1="464.749" x2="464.749" y1="352.4453" y2="417.6328"/><line style="stroke:#000000;stroke-width:1;" x1="550" x2="550" y1="352.4453" y2="417.6328"/></g><?plantuml-src ZPJVRfim5CRl_HH7okreW8GqdQAe3GbJf7R9bcqtKIuyE08MOoFiR6hNIdk8FU6UP3RGPa2gHGWK_9tFl_CdvbegMgYOSgM8IXL3MEKg5HosxtTlzODck8C_ltx3DZeKr2YxDx1LIBCTHFXTahn8kP8XrSuVY7js3mz2PE1gGNp3K449aE3QxiYo1vRj43AHwfxXb9JOUKhZWcRmam0eAlVb3u10SBL97n0SHxy_wJjB6KebE9wCgD_Dnl1LiAXScj5m_wuG1nxvWea2LWNbCNx4IhrDENRN3KfYJdMrMccZt7DHlS0sLxdX4vdqwvA9PPMXo2EmBBBzP2fsm88DgaE-wtOBg8xKqSSrn-lQKWcXmM84AOVUR3PV1BD-pxcw7CtTEjpLuRuEWPlriWDox3PeQ4ProdaEQw0TIwumhlypJTpmH5r3oxLVCxU8_dWnyg_wlS5ul1ZujMceJMl1KfbqO8xNXdd7slxrjJX1iB1dRh-t67cERPUZ2mez-SRiFEt_l8HDWeoTDRwNCflESxewUfx39YmGkUpmt1DJTEnNtUVqzLAxWfHJ1XzkEftjyhmZh-dyVs_ldi-tBBkxNlamnqpi8A5vhlCzLgaFmDsNDTpI0m-JjbvcG1Z6Pan56YTAdy77ITtHAPXzrmcL28-LK9Kz1RDbGwXod49mOAofl7mlfiUijMQ85PXSwqVrLINEXKdimlaB?></g></svg>