<svg xmlns="http://www.w3.org/2000/svg" xmlns:xlink="http://www.w3.org/1999/xlink" contentStyleType="text/css" data-diagram-type="WBS" height="851px" preserveAspectRatio="none" style="width:773px;height:851px;background:#FFFFFF;" version="1.1" viewBox="0 0 773 851" width="773px" zoomAndPan="magnify"><title>[Project Name] &#8212; WBS</title><defs/><g><g class="title" data-source-line="1"><text fill="#000000" font-family="sans-serif" font-size="14" font-weight="bold" lengthAdjust="spacing" textLength="178.9307" x="276.5244" y="32.9951">[Project Name] &#8212; WBS</text></g><line style="stroke:#181818;stroke-width:1.5;" x1="81.2744" x2="81.2744" y1="101.2656" y2="121.2656"/><rect fill="#F1F1F1" height="33.9688" style="stroke:#181818;stroke-width:1.5;" width="142.5488" x="10" y="121.2656"/><text fill="#000000" font-family="sans-serif" font-size="12" lengthAdjust="spacing" textLength="122.5488" x="20" y="142.4043">Phase 1: Foundation</text><line style="stroke:#181818;stroke-width:1.5;" x1="81.2744" x2="91.2744" y1="187.2188" y2="187.2188"/><rect fill="#F1F1F1" height="33.9688" style="stroke:#181818;stroke-width:1.5;" width="141.1191" x="91.2744" y="170.2344"/><text fill="#000000" font-family="sans-serif" font-size="12" lengthAdjust="spacing" textLength="121.1191" x="101.2744" y="191.373">Infrastructure Setup</text><line style="stroke:#181818;stroke-width:1.5;" x1="81.2744" x2="91.2744" y1="236.1875" y2="236.1875"/><rect fill="#F1F1F1" height="33.9688" style="stroke:#181818;stroke-width:1.5;" width="104.6211" x="91.2744" y="219.2031"/><text fill="#000000" font-family="sans-serif" font-size="12" lengthAdjust="spacing" textLength="84.6211" x="101.2744" y="240.3418">CI/CD Pipeline</text><line style="stroke:#181818;stroke-width:1.5;" x1="81.2744" x2="91.2744" y1="285.1563" y2="285.1563"/><rect fill="#F1F1F1" height="33.9688" style="stroke:#181818;stroke-width:1.5;" width="118.0625" x="91.2744" y="268.1719"/><text fill="#000000" font-family="sans-serif" font-size="12" lengthAdjust="spacing" textLength="98.0625" x="101.2744" y="289.3105">Auth Integration</text><line style="stroke:#181818;stroke-width:1.5;" x1="81.2744" x2="91.2744" y1="334.125" y2="334.125"/><rect fill="#F1F1F1" height="33.9688" style="stroke:#181818;stroke-width:1.5;" width="173.7383" x="91.2744" y="317.1406"/><text fill="#000000" font-family="sans-serif" font-size="12" lengthAdjust="spacing" textLength="153.7383" x="101.2744" y="338.2793">Environment Provisioning</text><line style="stroke:#181818;stroke-width:1.5;" x1="81.2744" x2="81.2744" y1="155.2344" y2="334.125"/><line style="stroke:#181818;stroke-width:1.5;" x1="336.5996" x2="336.5996" y1="101.2656" y2="121.2656"/><rect fill="#F1F1F1" height="33.9688" style="stroke:#181818;stroke-width:1.5;" width="103.1738" x="285.0127" y="121.2656"/><text fill="#000000" font-family="sans-serif" font-size="12" lengthAdjust="spacing" textLength="83.1738" x="295.0127" y="142.4043">Phase 2: Core</text><line style="stroke:#181818;stroke-width:1.5;" x1="336.5996" x2="346.5996" y1="187.2188" y2="187.2188"/><rect fill="#F1F1F1" height="33.9688" style="stroke:#181818;stroke-width:1.5;" width="76.373" x="346.5996" y="170.2344"/><text fill="#000000" font-family="sans-serif" font-size="12" lengthAdjust="spacing" textLength="56.373" x="356.5996" y="191.373">Service A</text><line style="stroke:#181818;stroke-width:1.5;" x1="384.7861" x2="394.7861" y1="236.1875" y2="236.1875"/><rect fill="#F1F1F1" height="33.9688" style="stroke:#181818;stroke-width:1.5;" width="84.2305" x="394.7861" y="219.2031"/><text fill="#000000" font-family="sans-serif" font-size="12" lengthAdjust="spacing" textLength="64.2305" x="404.7861" y="240.3418">API Design</text><line style="stroke:#181818;stroke-width:1.5;" x1="384.7861" x2="394.7861" y1="285.1563" y2="285.1563"/><rect fill="#F1F1F1" height="33.9688" style="stroke:#181818;stroke-width:1.5;" width="115.2852" x="394.7861" y="268.1719"/><text fill="#000000" font-family="sans-serif" font-size="12" lengthAdjust="spacing" textLength="95.2852" x="404.7861" y="289.3105">Implementation</text><line style="stroke:#181818;stroke-width:1.5;" x1="384.7861" x2="394.7861" y1="334.125" y2="334.125"/><rect fill="#F1F1F1" height="33.9688" style="stroke:#181818;stroke-width:1.5;" width="64.2266" x="394.7861" y="317.1406"/><text fill="#000000" font-family="sans-serif" font-size="12" lengthAdjust="spacing" textLength="44.2266" x="404.7861" y="338.2793">Testing</text><line style="stroke:#181818;stroke-width:1.5;" x1="384.7861" x2="394.7861" y1="383.0938" y2="383.0938"/><rect fill="#F1F1F1" height="33.9688" style="stroke:#181818;stroke-width:1.5;" width="134.1641" x="394.7861" y="366.1094"/><text fill="#000000" font-family="sans-serif" font-size="12" lengthAdjust="spacing" textLength="114.1641" x="404.7861" y="387.248">Integration Testing</text><line style="stroke:#181818;stroke-width:1.5;" x1="384.7861" x2="384.7861" y1="204.2031" y2="383.0938"/><line style="stroke:#181818;stroke-width:1.5;" x1="336.5996" x2="346.5996" y1="432.0625" y2="432.0625"/><rect fill="#F1F1F1" height="33.9688" style="stroke:#181818;stroke-width:1.5;" width="76.3965" x="346.5996" y="415.0781"/><text fill="#000000" font-family="sans-serif" font-size="12" lengthAdjust="spacing" textLength="56.3965" x="356.5996" y="436.2168">Service B</text><line style="stroke:#181818;stroke-width:1.5;" x1="384.7979" x2="394.7979" y1="481.0313" y2="481.0313"/><rect fill="#F1F1F1" height="33.9688" style="stroke:#181818;stroke-width:1.5;" width="84.2305" x="394.7979" y="464.0469"/><text fill="#000000" font-family="sans-serif" font-size="12" lengthAdjust="spacing" textLength="64.2305" x="404.7979" y="485.1855">API Design</text><line style="stroke:#181818;stroke-width:1.5;" x1="384.7979" x2="394.7979" y1="530" y2="530"/><rect fill="#F1F1F1" height="33.9688" style="stroke:#181818;stroke-width:1.5;" width="115.2852" x="394.7979" y="513.0156"/><text fill="#000000" font-family="sans-serif" font-size="12" lengthAdjust="spacing" textLength="95.2852" x="404.7979" y="534.1543">Implementation</text><line style="stroke:#181818;stroke-width:1.5;" x1="384.7979" x2="394.7979" y1="578.9688" y2="578.9688"/><rect fill="#F1F1F1" height="33.9688" style="stroke:#181818;stroke-width:1.5;" width="64.2266" x="394.7979" y="561.9844"/><text fill="#000000" font-family="sans-serif" font-size="12" lengthAdjust="spacing" textLength="44.2266" x="404.7979" y="583.123">Testing</text><line style="stroke:#181818;stroke-width:1.5;" x1="384.7979" x2="394.7979" y1="627.9375" y2="627.9375"/><rect fill="#F1F1F1" height="33.9688" style="stroke:#181818;stroke-width:1.5;" width="134.1641" x="394.7979" y="610.9531"/><text fill="#000000" font-family="sans-serif" font-size="12" lengthAdjust="spacing" textLength="114.1641" x="404.7979" y="632.0918">Integration Testing</text><line style="stroke:#181818;stroke-width:1.5;" x1="384.7979" x2="384.7979" y1="449.0469" y2="627.9375"/><line style="stroke:#181818;stroke-width:1.5;" x1="336.5996" x2="346.5996" y1="676.9063" y2="676.9063"/><rect fill="#F1F1F1" height="33.9688" style="stroke:#181818;stroke-width:1.5;" width="86.6211" x="346.5996" y="659.9219"/><text fill="#000000" font-family="sans-serif" font-size="12" lengthAdjust="spacing" textLength="66.6211" x="356.5996" y="681.0605">Mobile App</text><line style="stroke:#181818;stroke-width:1.5;" x1="389.9102" x2="399.9102" y1="725.875" y2="725.875"/><rect fill="#F1F1F1" height="33.9688" style="stroke:#181818;stroke-width:1.5;" width="65.4102" x="399.9102" y="708.8906"/><text fill="#000000" font-family="sans-serif" font-size="12" lengthAdjust="spacing" textLength="45.4102" x="409.9102" y="730.0293">UI Shell</text><line style="stroke:#181818;stroke-width:1.5;" x1="389.9102" x2="399.9102" y1="774.8438" y2="774.8438"/><rect fill="#F1F1F1" height="33.9688" style="stroke:#181818;stroke-width:1.5;" width="99.623" x="399.9102" y="757.8594"/><text fill="#000000" font-family="sans-serif" font-size="12" lengthAdjust="spacing" textLength="79.623" x="409.9102" y="778.998">Core Screens</text><line style="stroke:#181818;stroke-width:1.5;" x1="389.9102" x2="399.9102" y1="823.8125" y2="823.8125"/><rect fill="#F1F1F1" height="33.9688" style="stroke:#181818;stroke-width:1.5;" width="110.8027" x="399.9102" y="806.8281"/><text fill="#000000" font-family="sans-serif" font-size="12" lengthAdjust="spacing" textLength="90.8027" x="409.9102" y="827.9668">Offline Support</text><line style="stroke:#181818;stroke-width:1.5;" x1="389.9102" x2="389.9102" y1="693.8906" y2="823.8125"/><line style="stroke:#181818;stroke-width:1.5;" x1="336.5996" x2="336.5996" y1="155.2344" y2="676.9063"/><line style="stroke:#181818;stroke-width:1.5;" x1="608.2568" x2="608.2568" y1="101.2656" y2="121.2656"/><rect fill="#F1F1F1" height="33.9688" style="stroke:#181818;stroke-width:1.5;" width="118.5898" x="548.9619" y="121.2656"/><text fill="#000000" font-family="sans-serif" font-size="12" lengthAdjust="spacing" textLength="98.5898" x="558.9619" y="142.4043">Phase 3: Launch</text><line style="stroke:#181818;stroke-width:1.5;" x1="608.2568" x2="618.2568" y1="187.2188" y2="187.2188"/><rect fill="#F1F1F1" height="33.9688" style="stroke:#181818;stroke-width:1.5;" width="144.7227" x="618.2568" y="170.2344"/><text fill="#000000" font-family="sans-serif" font-size="12" lengthAdjust="spacing" textLength="124.7227" x="628.2568" y="191.373">Performance Testing</text><line style="stroke:#181818;stroke-width:1.5;" x1="608.2568" x2="618.2568" y1="236.1875" y2="236.1875"/><rect fill="#F1F1F1" height="33.9688" style="stroke:#181818;stroke-width:1.5;" width="104.5625" x="618.2568" y="219.2031"/><text fill="#000000" font-family="sans-serif" font-size="12" lengthAdjust="spacing" textLength="84.5625" x="628.2568" y="240.3418">Security Audit</text><line style="stroke:#181818;stroke-width:1.5;" x1="608.2568" x2="618.2568" y1="285.1563" y2="285.1563"/><rect fill="#F1F1F1" height="33.9688" style="stroke:#181818;stroke-width:1.5;" width="119.5508" x="618.2568" y="268.1719"/><text fill="#000000" font-family="sans-serif" font-size="12" lengthAdjust="spacing" textLength="99.5508" x="628.2568" y="289.3105">UAT &amp; Bug Fixes</text><line style="stroke:#181818;stroke-width:1.5;" x1="608.2568" x2="618.2568" y1="334.125" y2="334.125"/><rect fill="#F1F1F1" height="33.9688" style="stroke:#181818;stroke-width:1.5;" width="108.1074" x="618.2568" y="317.1406"/><text fill="#000000" font-family="sans-serif" font-size="12" lengthAdjust="spacing" textLength="88.1074" x="628.2568" y="338.2793">Staged Rollout</text><line style="stroke:#181818;stroke-width:1.5;" x1="608.2568" x2="618.2568" y1="383.0938" y2="383.0938"/><rect fill="#F1F1F1" height="33.9688" style="stroke:#181818;stroke-width:1.5;" width="139.7949" x="618.2568" y="366.1094"/><text fill="#000000" font-family="sans-serif" font-size="12" lengthAdjust="spacing" textLength="119.7949" x="628.2568" y="387.248">Knowledge Transfer</text><line style="stroke:#181818;stroke-width:1.5;" x1="608.2568" x2="618.2568" y1="432.0625" y2="432.0625"/><rect fill="#F1F1F1" height="33.9688" style="stroke:#181818;stroke-width:1.5;" width="112.5078" x="618.2568" y="415.0781"/><text fill="#000000" font-family="sans-serif" font-size="12" lengthAdjust="spacing" textLength="92.5078" x="628.2568" y="436.2168">Documentation</text><line style="stroke:#181818;stroke-width:1.5;" x1="608.2568" x2="608.2568" y1="155.2344" y2="432.0625"/><line style="stroke:#181818;stroke-width:1.5;" x1="81.2744" x2="608.2568" y1="101.2656" y2="101.2656"/><rect fill="#F1F1F1" height="33.9688" style="stroke:#181818;stroke-width:1.5;" width="115.1563" x="287.1875" y="47.2969"/><text fill="#000000" font-family="sans-serif" font-size="12" lengthAdjust="spacing" textLength="95.1563" x="297.1875" y="68.4355">Project Delivery</text><line style="stroke:#181818;stroke-width:1.5;" x1="344.7656" x2="344.7656" y1="81.2656" y2="101.2656"/><!--SRC=[hPB1Rjim38RlUWgUXZR0kYJhiCsd9ivIf8jReqwomx23OjEE1bao9CfTRdk8FM6VPBID9jrzH_waFfA_UED9EdhQUq6ADCBtrDcVc1FSonf_mFFlF_1jdWanWfV40hLgqHt5YBM3z0YJ29Osc4AIieRb4QnCwQGd5t8A3Y532asVY5VluWMagc68mLwQ1Jhm0yBAdG5VJAkSDJKQwXgtodD6cUhST1f1RDs0oD2rAaUOTH4JqnLFwLLbXdXLDnexr8a_WWrw6dZzkAVkhnCdxlm_SnExL-prh6c6kkqAiWDgFKJTMf3b3j7uGNaeoyuko4BJM4Td4zv7i9R1v8SUcw8hhQkbuP7_NICFJj6HhIuKzT9sje4tC0yLBDKlz4CPoGeBUBHQsp2KVJNsIMDHCSz9uqjqlRomUJZlVOEcw0v8f5eQsYPhuFFe_WicLzFnzCFLP7on2GZtjeNnDKm-HjDnTFqPjfiOklobkBXDr-1jS3nueVXkr3vqw4jn9ri9Zy6GgZ62MoUbtYKlmkih4NUx96A3zlnQ4i8k4GiiPT34LRajs8k8EoxVVX9hQQh0gqPW0diUy-cIEmxHNm00]--></g></svg>