<?plantuml 1.2026.1?><svg xmlns="http://www.w3.org/2000/svg" xmlns:xlink="http://www.w3.org/1999/xlink" contentStyleType="text/css" data-diagram-type="DESCRIPTION" height="1280px" preserveAspectRatio="none" style="width:2614px;height:1280px;background:#FFFFFF;" version="1.1" viewBox="0 0 2614 1280" width="2614px" zoomAndPan="magnify"><title>Option 2: Multi-Region &#8212; US + China (Terraform-deployed)</title><defs/><g><g class="title" data-source-line="1"><text fill="#000000" font-family="sans-serif" font-size="14" font-weight="bold" lengthAdjust="spacing" textLength="465.4795" x="1067.2603" y="22.9951">Option 2: Multi-Region &#8212; US + China (Terraform-deployed)</text></g><!--cluster us_region--><g class="cluster" data-qualified-name="us_region" data-source-line="21" id="ent0007"><rect fill="#E8F5E9" height="443.38" rx="5" ry="5" style="stroke:#DEE2E6;stroke-width:1;" width="967" x="7" y="445.8769"/><text fill="#000000" font-family="sans-serif" font-size="14" font-weight="bold" lengthAdjust="spacing" textLength="203.7793" x="388.6104" y="460.872">AWS US-EAST-1 (Primary)</text></g><!--cluster Compute--><g class="cluster" data-qualified-name="us_region.Compute" data-source-line="24" id="ent0009"><path d="M33.5,585.4669 L105.1563,585.4669 A3.75,3.75 0 0 1 107.6563,587.9669 L114.6563,607.7638 L311.5,607.7638 A2.5,2.5 0 0 1 314,610.2638 L314,850.1069 A2.5,2.5 0 0 1 311.5,852.6069 L33.5,852.6069 A2.5,2.5 0 0 1 31,850.1069 L31,587.9669 A2.5,2.5 0 0 1 33.5,585.4669" fill="#F8F9FA" style="stroke:#DEE2E6;stroke-width:1.5;"/><line style="stroke:#DEE2E6;stroke-width:1.5;" x1="31" x2="114.6563" y1="607.7638" y2="607.7638"/><text fill="#000000" font-family="sans-serif" font-size="14" font-weight="bold" lengthAdjust="spacing" textLength="70.6563" x="35" y="600.462">Compute</text></g><!--cluster Data--><g class="cluster" data-qualified-name="us_region.Data" data-source-line="30" id="ent0013"><path d="M397.5,752.6569 L435.708,752.6569 A3.75,3.75 0 0 1 438.208,755.1569 L445.208,774.9538 L947.5,774.9538 A2.5,2.5 0 0 1 950,777.4538 L950,862.7569 A2.5,2.5 0 0 1 947.5,865.2569 L397.5,865.2569 A2.5,2.5 0 0 1 395,862.7569 L395,755.1569 A2.5,2.5 0 0 1 397.5,752.6569" fill="#F8F9FA" style="stroke:#DEE2E6;stroke-width:1.5;"/><line style="stroke:#DEE2E6;stroke-width:1.5;" x1="395" x2="445.208" y1="774.9538" y2="774.9538"/><text fill="#000000" font-family="sans-serif" font-size="14" font-weight="bold" lengthAdjust="spacing" textLength="37.208" x="399" y="767.652">Data</text></g><!--cluster cn_region--><g class="cluster" data-qualified-name="cn_region" data-source-line="41" id="ent0020"><rect fill="#FFF3E0" height="496.23" rx="5" ry="5" style="stroke:#DEE2E6;stroke-width:1;" width="1041" x="1567" y="609.9169"/><text fill="#000000" font-family="sans-serif" font-size="14" font-weight="bold" lengthAdjust="spacing" textLength="262.3428" x="1956.3286" y="624.912">AWS CN-NORTHWEST-1 (Ningxia)</text></g><!--cluster Compute --><g class="cluster" data-qualified-name="cn_region.Compute " data-source-line="44" id="ent0022"><path d="M1593.5,757.1569 L1670.0303,757.1569 A3.75,3.75 0 0 1 1672.5303,759.6569 L1679.5303,779.4538 L1897.5,779.4538 A2.5,2.5 0 0 1 1900,781.9538 L1900,1058.8469 A2.5,2.5 0 0 1 1897.5,1061.3469 L1593.5,1061.3469 A2.5,2.5 0 0 1 1591,1058.8469 L1591,759.6569 A2.5,2.5 0 0 1 1593.5,757.1569" fill="#F8F9FA" style="stroke:#DEE2E6;stroke-width:1.5;"/><line style="stroke:#DEE2E6;stroke-width:1.5;" x1="1591" x2="1679.5303" y1="779.4538" y2="779.4538"/><text fill="#000000" font-family="sans-serif" font-size="14" font-weight="bold" lengthAdjust="spacing" textLength="70.6563" x="1595" y="772.152">Compute</text></g><!--cluster Data --><g class="cluster" data-qualified-name="cn_region.Data " data-source-line="50" id="ent0026"><path d="M1983.5,953.2569 L2026.582,953.2569 A3.75,3.75 0 0 1 2029.082,955.7569 L2036.082,975.5538 L2581.5,975.5538 A2.5,2.5 0 0 1 2584,978.0538 L2584,1079.6469 A2.5,2.5 0 0 1 2581.5,1082.1469 L1983.5,1082.1469 A2.5,2.5 0 0 1 1981,1079.6469 L1981,955.7569 A2.5,2.5 0 0 1 1983.5,953.2569" fill="#F8F9FA" style="stroke:#DEE2E6;stroke-width:1.5;"/><line style="stroke:#DEE2E6;stroke-width:1.5;" x1="1981" x2="2036.082" y1="975.5538" y2="975.5538"/><text fill="#000000" font-family="sans-serif" font-size="14" font-weight="bold" lengthAdjust="spacing" textLength="37.208" x="1985" y="968.252">Data</text></g><!--cluster AI Services--><g class="cluster" data-qualified-name="AI Services" data-source-line="63" id="ent0034"><path d="M124.5,1170.1469 L212.9521,1170.1469 A3.75,3.75 0 0 1 215.4521,1172.6469 L222.4521,1192.4438 L614.5,1192.4438 A2.5,2.5 0 0 1 617,1194.9438 L617,1271.2369 A2.5,2.5 0 0 1 614.5,1273.7369 L124.5,1273.7369 A2.5,2.5 0 0 1 122,1271.2369 L122,1172.6469 A2.5,2.5 0 0 1 124.5,1170.1469" fill="#E8F5E9" style="stroke:#DEE2E6;stroke-width:1.5;"/><line style="stroke:#DEE2E6;stroke-width:1.5;" x1="122" x2="222.4521" y1="1192.4438" y2="1192.4438"/><text fill="#000000" font-family="sans-serif" font-size="14" font-weight="bold" lengthAdjust="spacing" textLength="87.4521" x="126" y="1185.142">AI Services</text></g><!--cluster 3rd Party--><g class="cluster" data-qualified-name="3rd Party" data-source-line="69" id="ent0038"><path d="M1000.5,765.3069 L1075.4717,765.3069 A3.75,3.75 0 0 1 1077.9717,767.8069 L1084.9717,787.6038 L1261.5,787.6038 A2.5,2.5 0 0 1 1264,790.1038 L1264,850.1069 A2.5,2.5 0 0 1 1261.5,852.6069 L1000.5,852.6069 A2.5,2.5 0 0 1 998,850.1069 L998,767.8069 A2.5,2.5 0 0 1 1000.5,765.3069" fill="#FFF3E0" style="stroke:#DEE2E6;stroke-width:1.5;"/><line style="stroke:#DEE2E6;stroke-width:1.5;" x1="998" x2="1084.9717" y1="787.6038" y2="787.6038"/><text fill="#000000" font-family="sans-serif" font-size="14" font-weight="bold" lengthAdjust="spacing" textLength="73.9717" x="1002" y="780.302">3rd Party</text></g><!--entity alb_us--><g class="entity" data-qualified-name="us_region.alb_us" data-source-line="22" id="ent0008"><rect fill="#ED7100" height="36.2969" rx="2.5" ry="2.5" style="stroke:#181818;stroke-width:0.5;" width="46.9814" x="911.51" y="480.8769"/><text fill="#000000" font-family="sans-serif" font-size="14" lengthAdjust="spacing" textLength="26.9814" x="921.51" y="503.872">ALB</text></g><!--entity ses_us--><g class="entity" data-qualified-name="us_region.ses_us" data-source-line="37" id="ent0018"><rect fill="#FF4F8B" height="36.2969" rx="2.5" ry="2.5" style="stroke:#181818;stroke-width:0.5;" width="46.6191" x="329.69" y="800.3069"/><text fill="#000000" font-family="sans-serif" font-size="14" lengthAdjust="spacing" textLength="26.6191" x="339.69" y="823.302">SES</text></g><!--entity cw_us--><g class="entity" data-qualified-name="us_region.cw_us" data-source-line="38" id="ent0019"><rect fill="#FF4F8B" height="36.2969" rx="2.5" ry="2.5" style="stroke:#181818;stroke-width:0.5;" width="104.4717" x="771.76" y="480.8769"/><text fill="#000000" font-family="sans-serif" font-size="14" lengthAdjust="spacing" textLength="84.4717" x="781.76" y="503.872">CloudWatch</text></g><!--entity ecs_us--><g class="entity" data-qualified-name="us_region.Compute.ecs_us" data-source-line="25" id="ent0010"><rect fill="#FF9900" height="85.1875" rx="2.5" ry="2.5" style="stroke:#181818;stroke-width:0.5;" width="167.123" x="130.44" y="620.4669"/><text fill="#000000" font-family="sans-serif" font-size="14" lengthAdjust="spacing" textLength="96.8994" x="165.5518" y="643.462">ECS: Monolith</text><text fill="#000000" font-family="sans-serif" font-size="14" lengthAdjust="spacing" textLength="134.8184" x="146.5923" y="659.7589">Users + Partners +</text><text fill="#000000" font-family="sans-serif" font-size="14" lengthAdjust="spacing" textLength="147.123" x="140.44" y="676.0557">Recommendations +</text><text fill="#000000" font-family="sans-serif" font-size="14" lengthAdjust="spacing" textLength="140.7383" x="143.6324" y="692.3526">Payments + Loyalty</text></g><!--entity sqs_us--><g class="entity" data-qualified-name="us_region.Compute.sqs_us" data-source-line="26" id="ent0011"><path d="M51.6,649.9169 L90.393,649.9169 C95.393,649.9169 95.393,663.0653 95.393,663.0653 C95.393,663.0653 95.393,676.2138 90.393,676.2138 L51.6,676.2138 C46.6,676.2138 46.6,663.0653 46.6,663.0653 C46.6,663.0653 46.6,649.9169 51.6,649.9169" fill="#FF4F8B" style="stroke:#181818;stroke-width:0.5;"/><path d="M90.393,649.9169 C85.393,649.9169 85.393,663.0653 85.393,663.0653 C85.393,676.2138 90.393,676.2138 90.393,676.2138" fill="none" style="stroke:#181818;stroke-width:0.5;"/><text fill="#000000" font-family="sans-serif" font-size="14" lengthAdjust="spacing" textLength="28.793" x="51.6" y="667.912">SQS</text></g><!--entity ar_us--><g class="entity" data-qualified-name="us_region.Compute.ar_us" data-source-line="27" id="ent0012"><rect fill="#FF9900" height="36.2969" rx="2.5" ry="2.5" style="stroke:#181818;stroke-width:0.5;" width="186.7627" x="107.62" y="800.3069"/><text fill="#000000" font-family="sans-serif" font-size="14" lengthAdjust="spacing" textLength="166.7627" x="117.62" y="823.302">Lambda: AI Recognition</text></g><!--entity db_us--><g class="entity" data-qualified-name="us_region.Data.db_us" data-source-line="31" id="ent0014"><path d="M658.92,797.6569 C658.92,787.6569 733.0001,787.6569 733.0001,787.6569 C733.0001,787.6569 807.0802,787.6569 807.0802,797.6569 L807.0802,839.2506 C807.0802,849.2506 733.0001,849.2506 733.0001,849.2506 C733.0001,849.2506 658.92,849.2506 658.92,839.2506 L658.92,797.6569" fill="#3B48CC" style="stroke:#181818;stroke-width:0.5;"/><path d="M658.92,797.6569 C658.92,807.6569 733.0001,807.6569 733.0001,807.6569 C733.0001,807.6569 807.0802,807.6569 807.0802,797.6569" fill="none" style="stroke:#181818;stroke-width:0.5;"/><text fill="#000000" font-family="sans-serif" font-size="14" lengthAdjust="spacing" textLength="80.7529" x="692.6236" y="824.652">PostgreSQL</text><text fill="#000000" font-family="sans-serif" font-size="14" lengthAdjust="spacing" textLength="128.1602" x="668.92" y="840.9489">Multi-AZ (Primary)</text></g><!--entity cache_us--><g class="entity" data-qualified-name="us_region.Data.cache_us" data-source-line="32" id="ent0015"><path d="M841.89,805.8069 C841.89,795.8069 888.0008,795.8069 888.0008,795.8069 C888.0008,795.8069 934.1117,795.8069 934.1117,805.8069 L934.1117,831.1038 C934.1117,841.1038 888.0008,841.1038 888.0008,841.1038 C888.0008,841.1038 841.89,841.1038 841.89,831.1038 L841.89,805.8069" fill="#3B48CC" style="stroke:#181818;stroke-width:0.5;"/><path d="M841.89,805.8069 C841.89,815.8069 888.0008,815.8069 888.0008,815.8069 C888.0008,815.8069 934.1117,815.8069 934.1117,805.8069" fill="none" style="stroke:#181818;stroke-width:0.5;"/><text fill="#000000" font-family="sans-serif" font-size="14" lengthAdjust="spacing" textLength="72.2217" x="851.89" y="832.802">Redis 5GB</text></g><!--entity s3p_us--><g class="entity" data-qualified-name="us_region.Data.s3p_us" data-source-line="33" id="ent0016"><rect fill="#3F8624" height="36.2969" rx="35" ry="35" style="stroke:#181818;stroke-width:0.5;" width="89.4736" x="534.26" y="800.3069"/><text fill="#000000" font-family="sans-serif" font-size="14" lengthAdjust="spacing" textLength="69.4736" x="544.26" y="823.302">S3 Photos</text></g><!--entity s3a_us--><g class="entity" data-qualified-name="us_region.Data.s3a_us" data-source-line="34" id="ent0017"><rect fill="#3F8624" height="36.2969" rx="35" ry="35" style="stroke:#181818;stroke-width:0.5;" width="87.8057" x="411.1" y="800.3069"/><text fill="#000000" font-family="sans-serif" font-size="14" lengthAdjust="spacing" textLength="67.8057" x="421.1" y="823.302">S3 Assets</text></g><!--entity alb_cn--><g class="entity" data-qualified-name="cn_region.alb_cn" data-source-line="42" id="ent0021"><rect fill="#ED7100" height="36.2969" rx="2.5" ry="2.5" style="stroke:#181818;stroke-width:0.5;" width="46.9814" x="1722.51" y="644.9169"/><text fill="#000000" font-family="sans-serif" font-size="14" lengthAdjust="spacing" textLength="26.9814" x="1732.51" y="667.912">ALB</text></g><!--entity ses_cn--><g class="entity" data-qualified-name="cn_region.ses_cn" data-source-line="57" id="ent0031"><rect fill="#FF4F8B" height="36.2969" rx="2.5" ry="2.5" style="stroke:#181818;stroke-width:0.5;" width="46.6191" x="1915.69" y="1009.0469"/><text fill="#000000" font-family="sans-serif" font-size="14" lengthAdjust="spacing" textLength="26.6191" x="1925.69" y="1032.042">SES</text></g><!--entity cw_cn--><g class="entity" data-qualified-name="cn_region.cw_cn" data-source-line="58" id="ent0032"><rect fill="#FF4F8B" height="36.2969" rx="2.5" ry="2.5" style="stroke:#181818;stroke-width:0.5;" width="104.4717" x="1582.76" y="644.9169"/><text fill="#000000" font-family="sans-serif" font-size="14" lengthAdjust="spacing" textLength="84.4717" x="1592.76" y="667.912">CloudWatch</text></g><!--entity ecs_cn--><g class="entity" data-qualified-name="cn_region.Compute .ecs_cn" data-source-line="45" id="ent0023"><rect fill="#FF9900" height="52.5938" rx="2.5" ry="2.5" style="stroke:#181818;stroke-width:0.5;" width="193.5439" x="1690.23" y="792.1569"/><text fill="#000000" font-family="sans-serif" font-size="14" lengthAdjust="spacing" textLength="96.8994" x="1738.5523" y="815.152">ECS: Monolith</text><text fill="#000000" font-family="sans-serif" font-size="14" lengthAdjust="spacing" textLength="173.5439" x="1700.23" y="831.4489">(same image, CN config)</text></g><!--entity sqs_cn--><g class="entity" data-qualified-name="cn_region.Compute .sqs_cn" data-source-line="46" id="ent0024"><path d="M1611.6,805.3069 L1650.393,805.3069 C1655.393,805.3069 1655.393,818.4553 1655.393,818.4553 C1655.393,818.4553 1655.393,831.6038 1650.393,831.6038 L1611.6,831.6038 C1606.6,831.6038 1606.6,818.4553 1606.6,818.4553 C1606.6,818.4553 1606.6,805.3069 1611.6,805.3069" fill="#FF4F8B" style="stroke:#181818;stroke-width:0.5;"/><path d="M1650.393,805.3069 C1645.393,805.3069 1645.393,818.4553 1645.393,818.4553 C1645.393,831.6038 1650.393,831.6038 1650.393,831.6038" fill="none" style="stroke:#181818;stroke-width:0.5;"/><text fill="#000000" font-family="sans-serif" font-size="14" lengthAdjust="spacing" textLength="28.793" x="1611.6" y="823.302">SQS</text></g><!--entity ar_cn--><g class="entity" data-qualified-name="cn_region.Compute .ar_cn" data-source-line="47" id="ent0025"><rect fill="#FF9900" height="36.2969" rx="2.5" ry="2.5" style="stroke:#181818;stroke-width:0.5;" width="186.7627" x="1606.62" y="1009.0469"/><text fill="#000000" font-family="sans-serif" font-size="14" lengthAdjust="spacing" textLength="166.7627" x="1616.62" y="1032.042">Lambda: AI Recognition</text></g><!--entity db_cn--><g class="entity" data-qualified-name="cn_region.Data .db_cn" data-source-line="51" id="ent0027"><path d="M2244.82,998.2569 C2244.82,988.2569 2343.0036,988.2569 2343.0036,988.2569 C2343.0036,988.2569 2441.1872,988.2569 2441.1872,998.2569 L2441.1872,1056.1475 C2441.1872,1066.1475 2343.0036,1066.1475 2343.0036,1066.1475 C2343.0036,1066.1475 2244.82,1066.1475 2244.82,1056.1475 L2244.82,998.2569" fill="#3B48CC" style="stroke:#181818;stroke-width:0.5;"/><path d="M2244.82,998.2569 C2244.82,1008.2569 2343.0036,1008.2569 2343.0036,1008.2569 C2343.0036,1008.2569 2441.1872,1008.2569 2441.1872,998.2569" fill="none" style="stroke:#181818;stroke-width:0.5;"/><text fill="#000000" font-family="sans-serif" font-size="14" lengthAdjust="spacing" textLength="80.7529" x="2302.6271" y="1025.252">PostgreSQL</text><text fill="#000000" font-family="sans-serif" font-size="14" lengthAdjust="spacing" textLength="125.0977" x="2280.4548" y="1041.5489">Multi-AZ (Replica)</text><text fill="#000000" font-family="sans-serif" font-size="14" lengthAdjust="spacing" textLength="176.3672" x="2254.82" y="1057.8457">Cross-region read replica</text></g><!--entity cache_cn--><g class="entity" data-qualified-name="cn_region.Data .cache_cn" data-source-line="52" id="ent0028"><path d="M2475.89,1014.5469 C2475.89,1004.5469 2522.0008,1004.5469 2522.0008,1004.5469 C2522.0008,1004.5469 2568.1117,1004.5469 2568.1117,1014.5469 L2568.1117,1039.8438 C2568.1117,1049.8438 2522.0008,1049.8438 2522.0008,1049.8438 C2522.0008,1049.8438 2475.89,1049.8438 2475.89,1039.8438 L2475.89,1014.5469" fill="#3B48CC" style="stroke:#181818;stroke-width:0.5;"/><path d="M2475.89,1014.5469 C2475.89,1024.5469 2522.0008,1024.5469 2522.0008,1024.5469 C2522.0008,1024.5469 2568.1117,1024.5469 2568.1117,1014.5469" fill="none" style="stroke:#181818;stroke-width:0.5;"/><text fill="#000000" font-family="sans-serif" font-size="14" lengthAdjust="spacing" textLength="72.2217" x="2485.89" y="1041.542">Redis 5GB</text></g><!--entity s3p_cn--><g class="entity" data-qualified-name="cn_region.Data .s3p_cn" data-source-line="53" id="ent0029"><rect fill="#3F8624" height="36.2969" rx="35" ry="35" style="stroke:#181818;stroke-width:0.5;" width="89.4736" x="2120.26" y="1009.0469"/><text fill="#000000" font-family="sans-serif" font-size="14" lengthAdjust="spacing" textLength="69.4736" x="2130.26" y="1032.042">S3 Photos</text></g><!--entity s3a_cn--><g class="entity" data-qualified-name="cn_region.Data .s3a_cn" data-source-line="54" id="ent0030"><rect fill="#3F8624" height="36.2969" rx="35" ry="35" style="stroke:#181818;stroke-width:0.5;" width="87.8057" x="1997.1" y="1009.0469"/><text fill="#000000" font-family="sans-serif" font-size="14" lengthAdjust="spacing" textLength="67.8057" x="2007.1" y="1032.042">S3 Assets</text></g><!--entity gv--><g class="entity" data-qualified-name="AI Services.gv" data-source-line="64" id="ent0035"><rect fill="#4285F4" height="36.2969" rx="2.5" ry="2.5" style="stroke:#181818;stroke-width:0.5;" width="142.5068" x="299.75" y="1213.2869"/><text fill="#000000" font-family="sans-serif" font-size="14" lengthAdjust="spacing" textLength="122.5068" x="309.75" y="1236.282">Google Vision API</text></g><!--entity openai--><g class="entity" data-qualified-name="AI Services.openai" data-source-line="65" id="ent0036"><rect fill="#00A67E" height="52.5938" rx="2.5" ry="2.5" style="stroke:#181818;stroke-width:0.5;" width="126.9277" x="137.54" y="1205.1469"/><text fill="#000000" font-family="sans-serif" font-size="14" lengthAdjust="spacing" textLength="106.9277" x="147.54" y="1228.142">OpenAI GPT-4V</text><text fill="#000000" font-family="sans-serif" font-size="14" lengthAdjust="spacing" textLength="64.1211" x="168.9433" y="1244.4389">(US only)</text></g><!--entity gemini--><g class="entity" data-qualified-name="AI Services.gemini" data-source-line="66" id="ent0037"><rect fill="#4285F4" height="52.5938" rx="2.5" ry="2.5" style="stroke:#181818;stroke-width:0.5;" width="123.5713" x="477.21" y="1205.1469"/><text fill="#000000" font-family="sans-serif" font-size="14" lengthAdjust="spacing" textLength="103.5713" x="487.21" y="1228.142">Google Gemini</text><text fill="#000000" font-family="sans-serif" font-size="14" lengthAdjust="spacing" textLength="90.1797" x="493.9058" y="1244.4389">(CN fallback)</text></g><!--entity stripe--><g class="entity" data-qualified-name="3rd Party.stripe" data-source-line="70" id="ent0039"><rect fill="#635BFF" height="36.2969" rx="2.5" ry="2.5" style="stroke:#181818;stroke-width:0.5;" width="61.5215" x="1186.24" y="800.3069"/><text fill="#000000" font-family="sans-serif" font-size="14" lengthAdjust="spacing" textLength="41.5215" x="1196.24" y="823.302">Stripe</text></g><!--entity maps--><g class="entity" data-qualified-name="3rd Party.maps" data-source-line="71" id="ent0040"><rect fill="#4285F4" height="36.2969" rx="2.5" ry="2.5" style="stroke:#181818;stroke-width:0.5;" width="137.2568" x="1014.37" y="800.3069"/><text fill="#000000" font-family="sans-serif" font-size="14" lengthAdjust="spacing" textLength="117.2568" x="1024.37" y="823.302">Google Maps API</text></g><!--entity us_users--><g class="entity" data-qualified-name="us_users" data-source-line="14" id="ent0002"><ellipse cx="1213.9955" cy="51.2969" fill="#F1F1F1" rx="8" ry="8" style="stroke:#181818;stroke-width:0.5;"/><path d="M1213.9955,59.2969 L1213.9955,86.2969 M1200.9955,67.2969 L1226.9955,67.2969 M1213.9955,86.2969 L1200.9955,101.2969 M1213.9955,86.2969 L1226.9955,101.2969" fill="none" style="stroke:#181818;stroke-width:0.5;"/><text fill="#000000" font-family="sans-serif" font-size="14" lengthAdjust="spacing" textLength="62.7881" x="1182.6015" y="115.792">US Users</text><text fill="#000000" font-family="sans-serif" font-size="14" lengthAdjust="spacing" textLength="93.8711" x="1167.06" y="132.0889">(iOS/Android)</text></g><!--entity cn_users--><g class="entity" data-qualified-name="cn_users" data-source-line="15" id="ent0003"><ellipse cx="1342.9955" cy="51.2969" fill="#F1F1F1" rx="8" ry="8" style="stroke:#181818;stroke-width:0.5;"/><path d="M1342.9955,59.2969 L1342.9955,86.2969 M1329.9955,67.2969 L1355.9955,67.2969 M1342.9955,86.2969 L1329.9955,101.2969 M1342.9955,86.2969 L1355.9955,101.2969" fill="none" style="stroke:#181818;stroke-width:0.5;"/><text fill="#000000" font-family="sans-serif" font-size="14" lengthAdjust="spacing" textLength="83.6445" x="1301.1733" y="115.792">China Users</text><text fill="#000000" font-family="sans-serif" font-size="14" lengthAdjust="spacing" textLength="93.8711" x="1296.06" y="132.0889">(iOS/Android)</text></g><!--entity dns--><g class="entity" data-qualified-name="dns" data-source-line="17" id="ent0004"><path d="M1194.0472,205.8944 C1197.0226,200.4046 1201.5349,200.7493 1204.8629,205.5229 C1209.0836,199.3685 1214.8714,200.2404 1218.4601,206.2305 C1220.6257,201.2146 1225.7801,199.8111 1229.5695,204.3407 C1233.2995,199.349 1238.3898,198.0327 1241.7027,204.7721 C1245.8984,198.944 1250.7104,198.5 1254.5602,205.1291 C1256.8298,199.2063 1262.1732,198.8063 1266.0804,203.3217 C1270.5421,197.2134 1275.692,196.7903 1279.8424,203.6519 C1284.45,198.308 1288.7653,198.4022 1292.4802,204.6271 C1295.7543,198.8365 1301.0764,199.2966 1303.9553,205.0209 C1307.3516,198.4248 1313.394,198.6514 1316.2981,205.4738 C1320.455,200.1424 1325.3087,199.6629 1329.2267,205.7444 C1331.3277,199.6725 1336.028,199.3875 1339.5907,204.3745 C1342.8631,198.727 1348.7127,198.4752 1352.0514,204.3026 C1356.6983,198.7472 1362.5296,200.1535 1365.0956,206.5699 C1372.4321,207.7535 1373.7708,211.9787 1369.5905,217.7801 C1375.2133,219.122 1378.3319,223.1583 1374.0067,228.5712 C1378.4708,234.5097 1376.4919,239.8987 1368.7578,240.4447 C1374.0794,245.8081 1370.8747,251.465 1364.5524,252.8956 C1362.1342,259.5553 1357.2794,258.8961 1353.2282,254.5805 C1349.9356,261.003 1344.7625,260.7268 1340.4374,255.7379 C1337.3727,260.857 1332.1089,261.1862 1328.9868,255.8006 C1325.4699,263.3091 1320.5009,262.4926 1315.797,257.0053 C1312.7711,263.8574 1308.1941,264.5561 1303.0731,259.1863 C1299.6423,264.4452 1295.7741,265.7474 1291.1531,260.5421 C1288.8231,266.1457 1284.7553,267.5827 1280.3188,262.7233 C1275.6055,269.2694 1269.2725,267.9776 1266.1328,261.0647 C1261.0011,265.5012 1256.6929,265.6249 1254.0443,258.4742 C1250.2901,263.9197 1246.6273,264.6299 1242.5154,258.8412 C1237.5461,263.7404 1233.4547,264.0995 1229.7205,257.4704 C1225.2339,262.6042 1219.8758,262.0069 1217.6538,255.1848 C1211.9865,261.3095 1208.248,259.0587 1204.9263,252.7782 C1201.0422,257.2797 1195.6633,257.5302 1193.3207,251.1362 C1187.6433,247.9131 1187.5633,243.9304 1192.2585,239.7405 C1185.5444,237.9247 1184.8072,232.2693 1189.6368,227.898 C1184.0925,223.3366 1185.9181,218.1647 1192.3137,216.3777 C1187.0517,212.4914 1187.8638,207.8882 1194.0472,205.8944" fill="#F1F1F1" style="stroke:#181818;stroke-width:0.5;"/><text fill="#000000" font-family="sans-serif" font-size="14" lengthAdjust="spacing" textLength="63.5332" x="1246.2292" y="224.392">Route 53</text><text fill="#000000" font-family="sans-serif" font-size="14" lengthAdjust="spacing" textLength="157.4316" x="1199.28" y="240.6889">Latency-based routing</text></g><!--entity cdn_us--><g class="entity" data-qualified-name="cdn_us" data-source-line="18" id="ent0005"><path d="M1120.0569,345.7984 C1123.3049,339.2685 1128.5125,339.1849 1132.6397,344.8947 C1137.3752,339.5768 1141.4383,339.7325 1145.6844,345.4721 C1150.0198,339.3925 1155.2926,338.9653 1159.8368,345.2328 C1163.9188,339.9292 1168.119,338.9259 1172.4772,344.9239 C1176.0188,337.9489 1182.0619,338.0793 1186.4741,343.9772 C1190.345,337.4536 1194.5726,337.7006 1199.296,343.057 C1204.2837,337.7564 1209.081,336.7214 1213.2696,343.9482 C1218.1715,338.0983 1222.1841,338.6768 1226.1735,344.9218 C1229.696,340.3218 1235.0349,340.3968 1237.8985,345.7017 C1241.4007,337.7915 1248.5877,338.2963 1252.5002,345.3 C1257.4157,349.1146 1259.2407,352.7693 1252.9685,357.0306 C1259.5663,358.7177 1261.4906,363.8165 1255.9764,368.6414 C1259.9009,372.8798 1259.3412,376.2809 1254.5653,379.3755 C1260.2733,384.5171 1259.5419,388.4748 1252.5095,391.4467 C1249.9532,397.2855 1245.9532,398.4364 1241.0979,394.0001 C1237.1775,399.2002 1232.7244,398.9433 1229.1276,393.6316 C1226.0806,399.4636 1222.6219,398.8889 1218.3704,394.9588 C1215.926,399.7428 1212.7767,401.0831 1208.5446,396.9226 C1205.5797,403.8205 1201.858,405.335 1196.2035,399.5371 C1193.7083,404.5658 1188.8717,405.0906 1185.2948,400.8038 C1182.0402,404.7153 1178.2753,404.1522 1175.8084,399.8896 C1171.1441,404.7858 1165.9459,403.2648 1164.9535,396.478 C1161.6147,400.7296 1157.4547,401.7077 1154.2364,396.3436 C1149.076,401.4744 1144.5306,401.1448 1141.8665,393.8571 C1138.4917,398.4332 1134.0805,397.3045 1131.6216,392.8212 C1127.7828,397.9392 1122.9726,396.7206 1121.2576,390.823 C1116.412,388.698 1114.3077,385.5397 1118.5455,380.9256 C1111.8419,378.7543 1109.5516,373.6759 1115.0571,368.1666 C1110.1734,363.4298 1110.5994,358.8886 1117.5647,356.7557 C1112.9317,352.6326 1114.0209,347.495 1120.0569,345.7984" fill="#F1F1F1" style="stroke:#181818;stroke-width:0.5;"/><text fill="#000000" font-family="sans-serif" font-size="14" lengthAdjust="spacing" textLength="112.2051" x="1128.8926" y="363.982">CloudFront CDN</text><text fill="#000000" font-family="sans-serif" font-size="14" lengthAdjust="spacing" textLength="117.5303" x="1126.23" y="380.2789">US edge caching</text></g><!--entity cdn_cn--><g class="entity" data-qualified-name="cdn_cn" data-source-line="19" id="ent0006"><path d="M1628.5987,468.4886 C1632.3327,462.1246 1637.2781,461.7605 1641.2889,468.2147 C1644.3708,461.5688 1650.2752,461.1949 1654.7841,466.6193 C1658.6098,461.3956 1663.2849,460.3945 1666.9115,466.8265 C1670.7196,459.8886 1675.4965,458.5439 1680.5214,465.6471 C1683.1835,460.0125 1688.3815,458.2453 1692.8293,463.6575 C1695.4652,457.3457 1700.5769,456.8784 1704.2362,462.695 C1708.9312,455.8568 1714.1126,456.1149 1718.0367,463.4459 C1722.1502,458.1203 1727.4938,459.882 1730.0767,465.1804 C1734.8148,459.8974 1739.8816,460.8086 1743.3546,466.6855 C1747.0678,459.7047 1751.9565,460.3304 1756.2444,466.1048 C1760.868,460.2172 1765.0353,461.3367 1768.4793,467.3205 C1773.0001,462.4789 1777.4494,461.5301 1781.1243,468.246 C1788.563,471.4219 1792.0038,479.1675 1783.6625,484.7677 C1791.0271,487.8655 1791.7576,495.124 1785.4384,499.8347 C1792.6703,506.73 1789.78,511.1407 1782.4125,515.1519 C1788.7458,521.2315 1788.7936,527.7522 1780.5174,532.2086 C1777.4526,538.5541 1772.3707,537.6014 1768.8232,532.711 C1764.1465,539.3802 1758.9301,538.9229 1755.3083,531.6857 C1752.5799,537.2188 1747.2225,537.4798 1743.5851,532.7213 C1739.6827,538.9256 1734.1567,538.844 1730.8988,532.0903 C1726.3878,538.7527 1722.0115,539.6931 1716.7281,532.904 C1712.9303,537.8959 1708.9635,536.9798 1705.979,532.0251 C1702.4948,538.6431 1696.0334,540.1723 1691.4283,533.2275 C1687.8756,537.3359 1683.5857,538.0445 1680.7064,532.481 C1676.2158,537.6568 1672.1003,538.1395 1668.0652,531.9734 C1664.948,538.415 1658.6379,537.9237 1655.2067,532.3082 C1650.4157,539.0948 1646.1454,537.3053 1642.2124,531.4279 C1638.7807,537.68 1632.0022,538.2238 1628.374,531.6397 C1620.5489,527.1296 1621.1687,519.9696 1628.1454,515.2531 C1620.0777,513.0075 1620.5291,505.8019 1625.6443,501.2086 C1617.5131,495.1352 1618.9829,487.8132 1627.4474,483.4221 C1620.2162,478.7291 1621.7627,472.0971 1628.5987,468.4886" fill="#F1F1F1" style="stroke:#181818;stroke-width:0.5;"/><text fill="#000000" font-family="sans-serif" font-size="14" lengthAdjust="spacing" textLength="112.2051" x="1647.9008" y="487.572">CloudFront CDN</text><text fill="#000000" font-family="sans-serif" font-size="14" lengthAdjust="spacing" textLength="138.3867" x="1634.81" y="503.8689">China edge caching</text><text fill="#000000" font-family="sans-serif" font-size="14" lengthAdjust="spacing" textLength="111.7949" x="1648.1059" y="520.1657">(via ICP license)</text></g><!--entity auth--><g class="entity" data-qualified-name="auth" data-source-line="61" id="ent0033"><rect fill="#DD344C" height="52.5938" rx="2.5" ry="2.5" style="stroke:#181818;stroke-width:0.5;" width="130.9678" x="1420.52" y="792.1569"/><text fill="#000000" font-family="sans-serif" font-size="14" lengthAdjust="spacing" textLength="54.0449" x="1458.9814" y="815.152">Cognito</text><text fill="#000000" font-family="sans-serif" font-size="14" lengthAdjust="spacing" textLength="110.9678" x="1430.52" y="831.4489">OAuth 2.0/OIDC</text></g><!--entity slack--><g class="entity" data-qualified-name="slack" data-source-line="74" id="ent0041"><rect fill="#611F69" height="36.2969" rx="2.5" ry="2.5" style="stroke:#181818;stroke-width:0.5;" width="102.2295" x="1282.89" y="800.3069"/><text fill="#000000" font-family="sans-serif" font-size="14" lengthAdjust="spacing" textLength="82.2295" x="1292.89" y="823.302">Slack Alerts</text></g><!--link us_users to dns--><g class="link" data-entity-1="ent0002" data-entity-2="ent0004" data-link-type="dependency" data-source-line="77" id="lnk42"><path d="M1235.31,135.5769 C1244.62,155.4469 1252.743,172.7943 1261.093,190.6043" fill="none" id="us_users-to-dns" style="stroke:#181818;stroke-width:1;"/><polygon fill="#181818" points="1263.64,196.0369,1263.4412,186.19,1261.5175,191.5097,1256.1978,189.586,1263.64,196.0369" style="stroke:#181818;stroke-width:1;"/></g><!--link dns to cdn_us--><g class="link" data-entity-1="ent0004" data-entity-2="ent0005" data-link-type="dependency" data-source-line="78" id="lnk43"><path d="M1257.36,259.2269 C1241.95,282.0269 1224.3393,308.0755 1208.9393,330.8655" fill="none" id="dns-to-cdn_us" style="stroke:#181818;stroke-width:1;"/><polygon fill="#181818" points="1205.58,335.8369,1213.9333,330.6193,1208.3795,331.694,1207.3048,326.1402,1205.58,335.8369" style="stroke:#181818;stroke-width:1;"/><text fill="#000000" font-family="sans-serif" font-size="13" lengthAdjust="spacing" textLength="69.6528" x="1238" y="302.0538">US latency</text></g><!--link cdn_us to alb_us--><g class="link" data-entity-1="ent0005" data-entity-2="ent0008" data-link-type="dependency" data-source-line="79" id="lnk44"><path d="M1125.75,399.0269 C1072.47,426.6769 1002.2354,463.1327 964.1854,482.8827" fill="none" id="cdn_us-to-alb_us" style="stroke:#181818;stroke-width:1;"/><polygon fill="#181818" points="958.86,485.6469,968.6908,485.0509,963.2978,483.3434,965.0053,477.9504,958.86,485.6469" style="stroke:#181818;stroke-width:1;"/></g><!--link alb_us to ecs_us--><g class="link" data-entity-1="ent0008" data-entity-2="ent0010" data-link-type="dependency" data-source-line="80" id="lnk45"><path d="M920.7,517.3769 C913.48,525.0069 904.11,533.3769 894,538.4669 C696.68,637.8469 437.4278,658.045 304.0478,661.645" fill="none" id="alb_us-to-ecs_us" style="stroke:#181818;stroke-width:1;"/><polygon fill="#181818" points="298.05,661.8069,307.1546,665.5626,303.0482,661.672,306.9388,657.5655,298.05,661.8069" style="stroke:#181818;stroke-width:1;"/></g><!--link ecs_us to db_us--><g class="link" data-entity-1="ent0010" data-entity-2="ent0014" data-link-type="dependency" data-source-line="81" id="lnk46"><path d="M297.6,704.3469 C299.07,704.7969 300.54,705.2369 302,705.6569 C447.84,747.2869 500.84,686.7269 641,744.6569 C664.53,754.3869 682.5864,767.9132 699.4464,783.3632" fill="none" id="ecs_us-to-db_us" style="stroke:#181818;stroke-width:1;"/><polygon fill="#181818" points="703.87,787.4169,699.9371,778.3874,700.1837,784.0388,694.5322,784.2855,703.87,787.4169" style="stroke:#181818;stroke-width:1;"/></g><!--link ecs_us to cache_us--><g class="link" data-entity-1="ent0010" data-entity-2="ent0015" data-link-type="dependency" data-source-line="82" id="lnk47"><path d="M297.58,704.4169 C299.06,704.8469 300.53,705.2669 302,705.6569 C467.85,749.9469 515.75,724.7969 687,736.6569 C702.32,737.7169 811.22,737.8769 825,744.6569 C847.19,755.5869 861.5637,773.1417 872.4537,790.2917" fill="none" id="ecs_us-to-cache_us" style="stroke:#181818;stroke-width:1;"/><polygon fill="#181818" points="875.67,795.3569,874.2223,785.615,872.9898,791.1359,867.4688,789.9034,875.67,795.3569" style="stroke:#181818;stroke-width:1;"/></g><!--link ecs_us to s3p_us--><g class="link" data-entity-1="ent0010" data-entity-2="ent0016" data-link-type="dependency" data-source-line="83" id="lnk48"><path d="M297.64,704.2069 C299.1,704.7069 300.55,705.1969 302,705.6569 C394.04,735.2369 432.05,696.7169 516,744.6569 C539.22,757.9169 554.8035,777.9782 565.6335,794.9582" fill="none" id="ecs_us-to-s3p_us" style="stroke:#181818;stroke-width:1;"/><polygon fill="#181818" points="568.86,800.0169,567.3928,790.2779,566.1713,795.8013,560.6479,794.5799,568.86,800.0169" style="stroke:#181818;stroke-width:1;"/></g><!--link s3p_us to sqs_us--><g class="link" data-entity-1="ent0016" data-entity-2="ent0011" data-link-type="dependency" data-source-line="84" id="lnk49"><path d="M569.29,799.9269 C558.66,782.6169 539.91,757.0169 516,744.6569 C476.03,724.0069 153.73,724.7569 113,705.6569 C99.25,699.2069 91.0473,691.0501 83.4673,681.3201" fill="none" id="s3p_us-to-sqs_us" style="stroke:#181818;stroke-width:1;"/><polygon fill="#181818" points="79.78,676.5869,82.1555,686.145,82.8528,680.5312,88.4665,681.2285,79.78,676.5869" style="stroke:#181818;stroke-width:1;"/></g><!--link sqs_us to ar_us--><g class="link" data-entity-1="ent0011" data-entity-2="ent0012" data-link-type="dependency" data-source-line="85" id="lnk50"><path d="M81.64,676.6169 C104.8,703.9469 155.9715,764.3189 182.4215,795.5389" fill="none" id="sqs_us-to-ar_us" style="stroke:#181818;stroke-width:1;"/><polygon fill="#181818" points="186.3,800.1169,183.5342,790.6643,183.0679,796.3019,177.4303,795.8356,186.3,800.1169" style="stroke:#181818;stroke-width:1;"/></g><!--link ar_us to gv--><g class="link" data-entity-1="ent0012" data-entity-2="ent0035" data-link-type="dependency" data-source-line="86" id="lnk51"><path d="M208.2,836.8569 C235.94,903.9269 333.5065,1139.7925 361.4165,1207.2625" fill="none" id="ar_us-to-gv" style="stroke:#181818;stroke-width:1;"/><polygon fill="#181818" points="363.71,1212.8069,363.966,1202.9613,361.7987,1208.1866,356.5735,1206.0194,363.71,1212.8069" style="stroke:#181818;stroke-width:1;"/></g><!--link ar_us to openai--><g class="link" data-entity-1="ent0012" data-entity-2="ent0036" data-link-type="dependency" data-source-line="87" id="lnk52"><path d="M201,836.8569 C201,901.4769 201,1121.9669 201,1198.7569" fill="none" id="ar_us-to-openai" style="stroke:#181818;stroke-width:1;"/><polygon fill="#181818" points="201,1204.7569,205,1195.7569,201,1199.7569,197,1195.7569,201,1204.7569" style="stroke:#181818;stroke-width:1;"/></g><!--link ar_us to gemini--><g class="link" data-entity-1="ent0012" data-entity-2="ent0037" data-link-type="dependency" data-source-line="88" id="lnk53"><path d="M217.46,837.0569 C239.79,861.0969 280.72,905.7269 314,945.2569 C392.81,1038.8369 477.7641,1149.5764 516.0441,1200.0464" fill="none" id="ar_us-to-gemini" style="stroke:#181818;stroke-width:1;"/><polygon fill="#181818" points="519.67,1204.8269,517.4182,1195.2389,516.6484,1200.8431,511.0442,1200.0734,519.67,1204.8269" style="stroke:#181818;stroke-width:1;"/></g><!--link ecs_us to ses_us--><g class="link" data-entity-1="ent0010" data-entity-2="ent0018" data-link-type="dependency" data-source-line="89" id="lnk54"><path d="M274.14,706.0669 C288.23,717.5769 302.47,730.7569 314,744.6569 C328.09,761.6569 336.9555,779.041 343.6855,794.581" fill="none" id="ecs_us-to-ses_us" style="stroke:#181818;stroke-width:1;"/><polygon fill="#181818" points="346.07,800.0869,346.1639,790.2385,344.083,795.4987,338.8228,793.4177,346.07,800.0869" style="stroke:#181818;stroke-width:1;"/></g><!--link ecs_us to stripe--><g class="link" data-entity-1="ent0010" data-entity-2="ent0039" data-link-type="dependency" data-source-line="90" id="lnk55"><path d="M297.57,704.4469 C299.05,704.8769 300.53,705.2769 302,705.6569 C408.3,733.0469 685.33,732.0369 795,736.6569 C815.76,737.5369 1150.81,734.6069 1169,744.6569 C1190.47,756.5169 1201.7534,776.9493 1208.7834,794.4493" fill="none" id="ecs_us-to-stripe" style="stroke:#181818;stroke-width:1;"/><polygon fill="#181818" points="1211.02,800.0169,1211.3769,790.1745,1209.1562,795.3772,1203.9534,793.1566,1211.02,800.0169" style="stroke:#181818;stroke-width:1;"/></g><!--link ecs_us to maps--><g class="link" data-entity-1="ent0010" data-entity-2="ent0040" data-link-type="dependency" data-source-line="91" id="lnk56"><path d="M297.57,704.4369 C299.05,704.8669 300.53,705.2769 302,705.6569 C397.91,730.7169 648.02,731.2669 747,736.6569 C792.08,739.1169 906.49,732.6169 950,744.6569 C991.1,756.0369 1028.5027,778.7575 1054.0627,796.4075" fill="none" id="ecs_us-to-maps" style="stroke:#181818;stroke-width:1;"/><polygon fill="#181818" points="1059,799.8169,1053.867,791.4114,1054.8856,796.9758,1049.3212,797.9944,1059,799.8169" style="stroke:#181818;stroke-width:1;"/></g><!--link cw_us to slack--><g class="link" data-entity-1="ent0019" data-entity-2="ent0041" data-link-type="dependency" data-source-line="92" id="lnk57"><path d="M836.35,517.4169 C870.24,563.4869 970.07,688.4469 1088,736.6569 C1124.24,751.4769 1228.33,728.5069 1264,744.6569 C1289.87,756.3769 1307.6325,777.4715 1319.6825,795.0115" fill="none" id="cw_us-to-slack" style="stroke:#181818;stroke-width:1;"/><polygon fill="#181818" points="1323.08,799.9569,1321.2807,790.2738,1320.2488,795.8357,1314.6868,794.8038,1323.08,799.9569" style="stroke:#181818;stroke-width:1;"/></g><!--link cn_users to dns--><g class="link" data-entity-1="ent0003" data-entity-2="ent0004" data-link-type="dependency" data-source-line="95" id="lnk58"><path d="M1321.36,135.5769 C1311.9,155.4469 1303.6369,172.8084 1295.1669,190.6184" fill="none" id="cn_users-to-dns" style="stroke:#181818;stroke-width:1;"/><polygon fill="#181818" points="1292.59,196.0369,1300.0676,189.6271,1294.7374,191.5215,1292.843,186.1913,1292.59,196.0369" style="stroke:#181818;stroke-width:1;"/></g><!--link dns to cdn_cn--><g class="link" data-entity-1="ent0004" data-entity-2="ent0006" data-link-type="dependency" data-source-line="96" id="lnk59"><path d="M1326.45,259.3269 C1404.31,308.5469 1552.0788,401.9702 1637.4788,455.9702" fill="none" id="dns-to-cdn_cn" style="stroke:#181818;stroke-width:1;"/><polygon fill="#181818" points="1642.55,459.1769,1637.0809,450.9861,1638.324,456.5047,1632.8054,457.7477,1642.55,459.1769" style="stroke:#181818;stroke-width:1;"/><text fill="#000000" font-family="sans-serif" font-size="13" lengthAdjust="spacing" textLength="70.6875" x="1546" y="371.8538">CN latency</text></g><!--link cdn_cn to alb_cn--><g class="link" data-entity-1="ent0006" data-entity-2="ent0021" data-link-type="dependency" data-source-line="97" id="lnk60"><path d="M1714.06,538.8369 C1722.75,572.3569 1733.3938,613.439 1739.9238,638.619" fill="none" id="cdn_cn-to-alb_cn" style="stroke:#181818;stroke-width:1;"/><polygon fill="#181818" points="1741.43,644.4269,1743.0427,634.7109,1740.1749,639.587,1735.2988,636.7192,1741.43,644.4269" style="stroke:#181818;stroke-width:1;"/></g><!--link alb_cn to ecs_cn--><g class="link" data-entity-1="ent0021" data-entity-2="ent0023" data-link-type="dependency" data-source-line="98" id="lnk61"><path d="M1750.7,681.6569 C1757.92,708.6569 1770.2102,754.6305 1778.5602,785.8605" fill="none" id="alb_cn-to-ecs_cn" style="stroke:#181818;stroke-width:1;"/><polygon fill="#181818" points="1780.11,791.6569,1781.6496,781.9291,1778.8185,786.8265,1773.9211,783.9955,1780.11,791.6569" style="stroke:#181818;stroke-width:1;"/></g><!--link ecs_cn to db_cn--><g class="link" data-entity-1="ent0023" data-entity-2="ent0027" data-link-type="dependency" data-source-line="99" id="lnk62"><path d="M1883.85,837.4969 C1975.27,856.7369 2114.71,891.8569 2227,945.2569 C2251.06,956.6969 2270.7461,969.409 2290.9861,984.379" fill="none" id="ecs_cn-to-db_cn" style="stroke:#181818;stroke-width:1;"/><polygon fill="#181818" points="2295.81,987.9469,2290.9527,979.3791,2291.7901,984.9736,2286.1955,985.811,2295.81,987.9469" style="stroke:#181818;stroke-width:1;"/></g><!--link ecs_cn to cache_cn--><g class="link" data-entity-1="ent0023" data-entity-2="ent0028" data-link-type="dependency" data-source-line="100" id="lnk63"><path d="M1884.21,829.1169 C2046.39,846.6269 2363.79,887.2369 2459,945.2569 C2482.27,959.4269 2497.2592,980.364 2507.9392,999.104" fill="none" id="ecs_cn-to-cache_cn" style="stroke:#181818;stroke-width:1;"/><polygon fill="#181818" points="2510.91,1004.3169,2509.929,994.517,2508.4343,999.9728,2502.9785,998.4781,2510.91,1004.3169" style="stroke:#181818;stroke-width:1;"/></g><!--link ecs_cn to s3p_cn--><g class="link" data-entity-1="ent0023" data-entity-2="ent0029" data-link-type="dependency" data-source-line="101" id="lnk64"><path d="M1884.21,842.6269 C1935.25,856.8869 1997.86,877.7369 2050,905.2569 C2097.15,930.1269 2132.5954,976.7388 2150.6854,1003.7988" fill="none" id="ecs_cn-to-s3p_cn" style="stroke:#181818;stroke-width:1;"/><polygon fill="#181818" points="2154.02,1008.7869,2152.3435,999.0818,2151.2412,1004.6302,2145.6928,1003.5279,2154.02,1008.7869" style="stroke:#181818;stroke-width:1;"/></g><!--link s3p_cn to sqs_cn--><g class="link" data-entity-1="ent0029" data-entity-2="ent0024" data-link-type="dependency" data-source-line="102" id="lnk65"><path d="M2156.68,1008.5769 C2146.63,989.4469 2127.79,959.6969 2102,945.2569 C2091.54,939.3969 1682.94,903.9569 1673,897.2569 C1650.1,881.7969 1640.2032,855.4097 1635.4132,837.6597" fill="none" id="s3p_cn-to-sqs_cn" style="stroke:#181818;stroke-width:1;"/><polygon fill="#181818" points="1633.85,831.8669,1632.333,841.5982,1635.1527,836.6942,1640.0567,839.5139,1633.85,831.8669" style="stroke:#181818;stroke-width:1;"/></g><!--link sqs_cn to ar_cn--><g class="link" data-entity-1="ent0024" data-entity-2="ent0025" data-link-type="dependency" data-source-line="103" id="lnk66"><path d="M1635.21,832.0769 C1647.03,867.4969 1678.6401,962.1956 1692.2501,1002.9656" fill="none" id="sqs_cn-to-ar_cn" style="stroke:#181818;stroke-width:1;"/><polygon fill="#181818" points="1694.15,1008.6569,1695.0944,998.8534,1692.5668,1003.9142,1687.506,1001.3866,1694.15,1008.6569" style="stroke:#181818;stroke-width:1;"/></g><!--link ar_cn to gv--><g class="link" data-entity-1="ent0025" data-entity-2="ent0035" data-link-type="dependency" data-source-line="104" id="lnk67"><path d="M1606.25,1031.7869 C1354.5,1042.4369 668.66,1078.5469 460,1162.1469 C431.62,1173.5169 408.8767,1192.4493 392.2067,1208.6193" fill="none" id="ar_cn-to-gv" style="stroke:#181818;stroke-width:1;"/><polygon fill="#181818" points="387.9,1212.7969,397.1451,1209.4017,391.4889,1209.3156,391.5751,1203.6594,387.9,1212.7969" style="stroke:#181818;stroke-width:1;"/></g><!--link ar_cn to gemini--><g class="link" data-entity-1="ent0025" data-entity-2="ent0037" data-link-type="dependency" data-source-line="105" id="lnk68"><path d="M1606.46,1044.4869 C1377.41,1084.3969 799.021,1185.1472 607.061,1218.5872" fill="none" id="ar_cn-to-gemini" style="stroke:#181818;stroke-width:1;"/><polygon fill="#181818" points="601.15,1219.6169,610.7029,1222.013,606.0758,1218.7588,609.33,1214.1317,601.15,1219.6169" style="stroke:#181818;stroke-width:1;"/><text fill="#000000" font-family="sans-serif" font-size="13" lengthAdjust="spacing" textLength="103.0479" x="1159.71" y="1135.2138">CN uses Gemini</text><text fill="#000000" font-family="sans-serif" font-size="13" lengthAdjust="spacing" textLength="112.4678" x="1155" y="1150.3466">(OpenAI blocked)</text></g><!--link ecs_cn to ses_cn--><g class="link" data-entity-1="ent0023" data-entity-2="ent0031" data-link-type="dependency" data-source-line="106" id="lnk69"><path d="M1814.06,845.0969 C1838.59,869.3069 1874.67,907.4569 1900,945.2569 C1913.72,965.7269 1923.0966,986.2002 1929.9966,1003.1402" fill="none" id="ecs_cn-to-ses_cn" style="stroke:#181818;stroke-width:1;"/><polygon fill="#181818" points="1932.26,1008.6969,1932.5694,998.8529,1930.3739,1004.0663,1925.1605,1001.8707,1932.26,1008.6969" style="stroke:#181818;stroke-width:1;"/></g><!--link cw_cn to slack--><g class="link" data-entity-1="ent0032" data-entity-2="ent0041" data-link-type="dependency" data-source-line="107" id="lnk70"><path d="M1582.51,674.7269 C1533.28,686.4069 1459.06,708.4669 1403,744.6569 C1380.03,759.4869 1362.9429,778.7547 1350.3329,795.1147" fill="none" id="cw_cn-to-slack" style="stroke:#181818;stroke-width:1;"/><polygon fill="#181818" points="1346.67,799.8669,1355.3325,795.1805,1349.7224,795.9067,1348.9962,790.2967,1346.67,799.8669" style="stroke:#181818;stroke-width:1;"/></g><!--link db_us to db_cn--><g class="link" data-entity-1="ent0014" data-entity-2="ent0027" data-link-type="dependency" data-source-line="110" id="lnk71"><path d="M758.37,849.5369 C775.03,866.9469 798.42,887.3169 824,897.2569 C848.77,906.8669 1036.44,904.3469 1063,905.2569 C1067.04,905.3869 2223.16,943.9769 2227,945.2569 C2253.91,954.2269 2275.4405,967.8593 2296.1405,984.1993" fill="none" id="db_us-to-db_cn" style="stroke:#E65100;stroke-width:1;stroke-dasharray:7,7;"/><polygon fill="#E65100" points="2300.85,987.9169,2296.2641,979.2008,2296.9254,984.8189,2291.3073,985.4802,2300.85,987.9169" style="stroke:#E65100;stroke-width:1;"/><text fill="#000000" font-family="sans-serif" font-size="13" lengthAdjust="spacing" textLength="82.0117" x="2014.2578" y="918.3238">Cross-region</text><text fill="#000000" font-family="sans-serif" font-size="13" lengthAdjust="spacing" textLength="102.5273" x="2004" y="933.4566">read replication</text></g><!--link s3p_us to s3p_cn--><g class="link" data-entity-1="ent0016" data-entity-2="ent0029" data-link-type="dependency" data-source-line="111" id="lnk72"><path d="M587.71,836.9869 C597.82,855.3269 616.32,883.3469 641,897.2569 C762.03,965.4469 812.4,927.8669 951,937.2569 C966.95,938.3369 2087.66,938.1769 2102,945.2569 C2128.83,958.4869 2144.9099,983.8337 2154.6299,1003.3937" fill="none" id="s3p_us-to-s3p_cn" style="stroke:#E65100;stroke-width:1;stroke-dasharray:7,7;"/><polygon fill="#E65100" points="2157.3,1008.7669,2156.877,998.9271,2155.0749,1004.2893,2149.7128,1002.4872,2157.3,1008.7669" style="stroke:#E65100;stroke-width:1;"/><text fill="#000000" font-family="sans-serif" font-size="13" lengthAdjust="spacing" textLength="106.355" x="952" y="918.3238">S3 Cross-Region</text><text fill="#000000" font-family="sans-serif" font-size="13" lengthAdjust="spacing" textLength="72.522" x="968.9165" y="933.4566">Replication</text></g><!--link alb_cn to auth--><g class="link" data-entity-1="ent0021" data-entity-2="ent0033" data-link-type="dependency" data-source-line="112" id="lnk73"><path d="M1732.3,681.3269 C1724.95,689.6369 1715.3,699.1869 1705,705.6569 C1659.66,734.1569 1638.79,720.5069 1591,744.6569 C1565.07,757.7669 1542.9651,772.8971 1522.8851,788.0871" fill="none" id="alb_cn-to-auth" style="stroke:#181818;stroke-width:1;"/><polygon fill="#181818" points="1518.1,791.7069,1527.6908,789.4672,1522.0876,788.6904,1522.8644,783.0871,1518.1,791.7069" style="stroke:#181818;stroke-width:1;"/></g><!--link alb_us to auth--><g class="link" data-entity-1="ent0008" data-entity-2="ent0033" data-link-type="dependency" data-source-line="113" id="lnk74"><path d="M958.76,510.0169 C1029.48,540.2469 1243.62,635.4269 1403,744.6569 C1423.4,758.6369 1439.9388,772.9069 1455.6688,787.6969" fill="none" id="alb_us-to-auth" style="stroke:#181818;stroke-width:1;"/><polygon fill="#181818" points="1460.04,791.8069,1456.2232,782.7277,1456.3973,788.3819,1450.7431,788.556,1460.04,791.8069" style="stroke:#181818;stroke-width:1;"/></g><?plantuml-src bLRRRkCs47tdLn3sGnDqtNNYopfvAA38KZP0DlPQsGtGkYXeYPQ9bKc7f9CrYW3zY7vXlwH3Kb8evxBfGnnfU3YNmyCPQQOBYYSRpGJ7nwVuqxRGh3EZkNd_z-z_y9S4_up35UC47rnJASbIo7Kdevj2x6XsY93wnlY6IBB62v9-owNOyYmKXP3uViKqzTPJiTu8JhbEz0w2IffgmlF2XsHqII23Q_fT1mNB-HhGE8KVAZrKlHF_XJ0k8qfE9JxgeWSFk86CIEvWPtlPjUDHV187PaN8ZChIEewYusW8NX19DHXQGC0NHQMQymCsITu7F9E2POSjJ1JUgZ-tPgt2EfvUXAUyXAEq4DiCjsPYgoaUzERyacZAqrrdGHJDJ4cQyTnkohYguA7v5qi1d8JZgpc7r6W6vQKaNLNmD3D1NjhX4lGtGPvtZE2BS8eB1amhUbZxIJb2ZrotWXkW8kb4GNBTES87KydMHEvg9gGJJJiQnOFen79UdpXilZopG58i83z0ZJySTRi8GDKXjK900nyjkxMnEGeJaARWec1w1NKR4a6MKo8rjuzpFgE01xban4ZPcgPaP_HZa9TYHmgzindGLDaCulZa138meMwtT0i999yJYr2t5Q8VZyxsaxaawqL6Jd5mWKtGd3CJqHKdcvuV6lMDYIPLSP0cCMUDMrEXT2vfylbopjtj2txR8pTpbFNE-gCmtDi-enbJU73ks3M7IlV12hHf4qXwUBeIMYXNPM_ZaF5eUDn_WWoKehf2aYRIrkLHaaGbSNIFE0zZfNX3TBfocTxxo8SdGWklEbUJsVN7cyYfxGgq-fsH-Y9LQelZk1TrNrDRobzJ6_wnt0uKMLCCvv7JTv0N8FcIvOUrc5B-8p4vnFyNKyFpKp7Xjwff1ksQfUGG6e0KIdLAyYGbq6lSMYKq4_BDGji3lo8qYtoJq1h8ruJM8FLLeNb8SEX3BU5YpYV1Lg_myI_TzvEBSUZeDvRsUDphzqE4QjxXe18gxw1LGielzBfp8OoElp9bM0wc5zPXVeVR_UFH8EutqPCDvU3rV7hTwNy5jK5N5xmehxw0HS9mkziDXX-YPyESqpNZ33Q2D9UaACmOTfjpkr97VV3AwCdCjazeYIzSeKHBjg6ERVk8syFUu2oEdqtY4zcekjArUV6Y-buBo0071PNLaLj3UtXqj1oU8FIJ-U1O5k8ULRCLTpg_sY48V_RPJJXyQf256vkej9bbDs1GEMUCnJLyLFPzwswnPwZwfczp_H6LRT9Qx5n0vNYmmQID9Qlt_CvxSMVdhzhpQCIW-wavhdsBOHEvTca1XZ13b3bkGrJrLV4iKI3zKuFqYG9RHHHC-B95LaI1fUnf9L5DGtNlVPkxtwYyvXLHnd9ROsmpGwwbFH9LlJYTsaIX5FKewV9kB0gHVZDVctvKsmAGkzvDOhmUXzpixFpUZeO3607lCg9MDFkZgiq4zU1pxlT4quhhyt_6GrdnAOOkvhpCIYyppu57iEaflZBD-ty0?></g></svg>