<?plantuml 1.2026.1?><svg xmlns="http://www.w3.org/2000/svg" xmlns:xlink="http://www.w3.org/1999/xlink" contentStyleType="text/css" data-diagram-type="GANTT" height="860px" preserveAspectRatio="none" style="width:1799px;height:860px;background:#FFFFFF;" version="1.1" viewBox="0 0 1799 860" width="1799px" zoomAndPan="magnify"><title>Option 2: Progressive Build &#8212; 7 months, 4 to 6 devs, US+China (RECOMMENDED)</title><defs/><g><g class="title" data-source-line="1"><text fill="#000000" font-family="sans-serif" font-size="14" font-weight="bold" lengthAdjust="spacing" textLength="641.5869" x="494.7065" y="22.9951">Option 2: Progressive Build &#8212; 7 months, 4 to 6 devs, US+China (RECOMMENDED)</text></g><text fill="#000000" font-family="sans-serif" font-size="10" lengthAdjust="spacing" textLength="12.7246" x="13" y="62.5791">10</text><text fill="#000000" font-family="sans-serif" font-size="10" lengthAdjust="spacing" textLength="12.7246" x="69" y="62.5791">11</text><text fill="#000000" font-family="sans-serif" font-size="10" lengthAdjust="spacing" textLength="12.7246" x="125" y="62.5791">12</text><text fill="#000000" font-family="sans-serif" font-size="10" lengthAdjust="spacing" textLength="12.7246" x="181" y="62.5791">13</text><text fill="#000000" font-family="sans-serif" font-size="10" lengthAdjust="spacing" textLength="12.7246" x="237" y="62.5791">14</text><text fill="#000000" font-family="sans-serif" font-size="10" lengthAdjust="spacing" textLength="12.7246" x="293" y="62.5791">15</text><text fill="#000000" font-family="sans-serif" font-size="10" lengthAdjust="spacing" textLength="12.7246" x="349" y="62.5791">16</text><text fill="#000000" font-family="sans-serif" font-size="10" lengthAdjust="spacing" textLength="12.7246" x="405" y="62.5791">17</text><text fill="#000000" font-family="sans-serif" font-size="10" lengthAdjust="spacing" textLength="12.7246" x="461" y="62.5791">18</text><text fill="#000000" font-family="sans-serif" font-size="10" lengthAdjust="spacing" textLength="12.7246" x="517" y="62.5791">19</text><text fill="#000000" font-family="sans-serif" font-size="10" lengthAdjust="spacing" textLength="12.7246" x="573" y="62.5791">20</text><text fill="#000000" font-family="sans-serif" font-size="10" lengthAdjust="spacing" textLength="12.7246" x="629" y="62.5791">21</text><text fill="#000000" font-family="sans-serif" font-size="10" lengthAdjust="spacing" textLength="12.7246" x="685" y="62.5791">22</text><text fill="#000000" font-family="sans-serif" font-size="10" lengthAdjust="spacing" textLength="12.7246" x="741" y="62.5791">23</text><text fill="#000000" font-family="sans-serif" font-size="10" lengthAdjust="spacing" textLength="12.7246" x="797" y="62.5791">24</text><text fill="#000000" font-family="sans-serif" font-size="10" lengthAdjust="spacing" textLength="12.7246" x="853" y="62.5791">25</text><text fill="#000000" font-family="sans-serif" font-size="10" lengthAdjust="spacing" textLength="12.7246" x="909" y="62.5791">26</text><text fill="#000000" font-family="sans-serif" font-size="10" lengthAdjust="spacing" textLength="12.7246" x="965" y="62.5791">27</text><text fill="#000000" font-family="sans-serif" font-size="10" lengthAdjust="spacing" textLength="12.7246" x="1021" y="62.5791">28</text><text fill="#000000" font-family="sans-serif" font-size="10" lengthAdjust="spacing" textLength="12.7246" x="1077" y="62.5791">29</text><text fill="#000000" font-family="sans-serif" font-size="10" lengthAdjust="spacing" textLength="12.7246" x="1133" y="62.5791">30</text><text fill="#000000" font-family="sans-serif" font-size="10" lengthAdjust="spacing" textLength="12.7246" x="1189" y="62.5791">31</text><text fill="#000000" font-family="sans-serif" font-size="10" lengthAdjust="spacing" textLength="12.7246" x="1245" y="62.5791">32</text><text fill="#000000" font-family="sans-serif" font-size="10" lengthAdjust="spacing" textLength="12.7246" x="1301" y="62.5791">33</text><text fill="#000000" font-family="sans-serif" font-size="10" lengthAdjust="spacing" textLength="12.7246" x="1357" y="62.5791">34</text><text fill="#000000" font-family="sans-serif" font-size="10" lengthAdjust="spacing" textLength="12.7246" x="1413" y="62.5791">35</text><text fill="#000000" font-family="sans-serif" font-size="10" lengthAdjust="spacing" textLength="12.7246" x="1469" y="62.5791">36</text><text fill="#000000" font-family="sans-serif" font-size="10" lengthAdjust="spacing" textLength="12.7246" x="1525" y="62.5791">37</text><text fill="#000000" font-family="sans-serif" font-size="10" lengthAdjust="spacing" textLength="12.7246" x="1581" y="62.5791">38</text><line style="stroke:#C0C0C0;stroke-width:1;" x1="8" x2="8" y1="53.2969" y2="738.2813"/><line style="stroke:#C0C0C0;stroke-width:1;" x1="64" x2="64" y1="53.2969" y2="738.2813"/><line style="stroke:#C0C0C0;stroke-width:1;" x1="120" x2="120" y1="53.2969" y2="738.2813"/><line style="stroke:#C0C0C0;stroke-width:1;" x1="176" x2="176" y1="53.2969" y2="738.2813"/><line style="stroke:#C0C0C0;stroke-width:1;" x1="232" x2="232" y1="53.2969" y2="738.2813"/><line style="stroke:#C0C0C0;stroke-width:1;" x1="288" x2="288" y1="53.2969" y2="738.2813"/><line style="stroke:#C0C0C0;stroke-width:1;" x1="344" x2="344" y1="53.2969" y2="738.2813"/><line style="stroke:#C0C0C0;stroke-width:1;" x1="400" x2="400" y1="53.2969" y2="738.2813"/><line style="stroke:#C0C0C0;stroke-width:1;" x1="456" x2="456" y1="53.2969" y2="738.2813"/><line style="stroke:#C0C0C0;stroke-width:1;" x1="512" x2="512" y1="53.2969" y2="738.2813"/><line style="stroke:#C0C0C0;stroke-width:1;" x1="568" x2="568" y1="53.2969" y2="738.2813"/><line style="stroke:#C0C0C0;stroke-width:1;" x1="624" x2="624" y1="53.2969" y2="738.2813"/><line style="stroke:#C0C0C0;stroke-width:1;" x1="680" x2="680" y1="53.2969" y2="738.2813"/><line style="stroke:#C0C0C0;stroke-width:1;" x1="736" x2="736" y1="53.2969" y2="738.2813"/><line style="stroke:#C0C0C0;stroke-width:1;" x1="792" x2="792" y1="53.2969" y2="738.2813"/><line style="stroke:#C0C0C0;stroke-width:1;" x1="848" x2="848" y1="53.2969" y2="738.2813"/><line style="stroke:#C0C0C0;stroke-width:1;" x1="904" x2="904" y1="53.2969" y2="738.2813"/><line style="stroke:#C0C0C0;stroke-width:1;" x1="960" x2="960" y1="53.2969" y2="738.2813"/><line style="stroke:#C0C0C0;stroke-width:1;" x1="1016" x2="1016" y1="53.2969" y2="738.2813"/><line style="stroke:#C0C0C0;stroke-width:1;" x1="1072" x2="1072" y1="53.2969" y2="738.2813"/><line style="stroke:#C0C0C0;stroke-width:1;" x1="1128" x2="1128" y1="53.2969" y2="738.2813"/><line style="stroke:#C0C0C0;stroke-width:1;" x1="1184" x2="1184" y1="53.2969" y2="738.2813"/><line style="stroke:#C0C0C0;stroke-width:1;" x1="1240" x2="1240" y1="53.2969" y2="738.2813"/><line style="stroke:#C0C0C0;stroke-width:1;" x1="1296" x2="1296" y1="53.2969" y2="738.2813"/><line style="stroke:#C0C0C0;stroke-width:1;" x1="1352" x2="1352" y1="53.2969" y2="738.2813"/><line style="stroke:#C0C0C0;stroke-width:1;" x1="1408" x2="1408" y1="53.2969" y2="738.2813"/><line style="stroke:#C0C0C0;stroke-width:1;" x1="1464" x2="1464" y1="53.2969" y2="738.2813"/><line style="stroke:#C0C0C0;stroke-width:1;" x1="1520" x2="1520" y1="53.2969" y2="738.2813"/><line style="stroke:#C0C0C0;stroke-width:1;" x1="1576" x2="1576" y1="53.2969" y2="738.2813"/><line style="stroke:#C0C0C0;stroke-width:1;" x1="1632" x2="1632" y1="53.2969" y2="738.2813"/><line style="stroke:#C0C0C0;stroke-width:1;" x1="0" x2="0" y1="37.2969" y2="53.2969"/><line style="stroke:#C0C0C0;stroke-width:1;" x1="248" x2="248" y1="37.2969" y2="53.2969"/><text fill="#000000" font-family="sans-serif" font-size="12" font-weight="bold" lengthAdjust="spacing" textLength="63.5332" x="92.2334" y="48.4355">Mar 2026</text><line style="stroke:#C0C0C0;stroke-width:1;" x1="488" x2="488" y1="37.2969" y2="53.2969"/><text fill="#000000" font-family="sans-serif" font-size="12" font-weight="bold" lengthAdjust="spacing" textLength="61.3711" x="337.3145" y="48.4355">Apr 2026</text><line style="stroke:#C0C0C0;stroke-width:1;" x1="736" x2="736" y1="37.2969" y2="53.2969"/><text fill="#000000" font-family="sans-serif" font-size="12" font-weight="bold" lengthAdjust="spacing" textLength="65.4375" x="579.2813" y="48.4355">May 2026</text><line style="stroke:#C0C0C0;stroke-width:1;" x1="976" x2="976" y1="37.2969" y2="53.2969"/><text fill="#000000" font-family="sans-serif" font-size="12" font-weight="bold" lengthAdjust="spacing" textLength="59.127" x="826.4365" y="48.4355">Jun 2026</text><line style="stroke:#C0C0C0;stroke-width:1;" x1="1224" x2="1224" y1="37.2969" y2="53.2969"/><text fill="#000000" font-family="sans-serif" font-size="12" font-weight="bold" lengthAdjust="spacing" textLength="54.6973" x="1072.6514" y="48.4355">Jul 2026</text><line style="stroke:#C0C0C0;stroke-width:1;" x1="1472" x2="1472" y1="37.2969" y2="53.2969"/><text fill="#000000" font-family="sans-serif" font-size="12" font-weight="bold" lengthAdjust="spacing" textLength="63.9961" x="1316.002" y="48.4355">Aug 2026</text><line style="stroke:#C0C0C0;stroke-width:1;" x1="1632" x2="1632" y1="37.2969" y2="53.2969"/><text fill="#000000" font-family="sans-serif" font-size="12" font-weight="bold" lengthAdjust="spacing" textLength="62.9473" x="1520.5264" y="48.4355">Sep 2026</text><line style="stroke:#C0C0C0;stroke-width:1;" x1="0" x2="1632" y1="37.2969" y2="37.2969"/><line style="stroke:#C0C0C0;stroke-width:1;" x1="0" x2="1632" y1="53.2969" y2="53.2969"/><line style="stroke:#C0C0C0;stroke-width:1;" x1="0" x2="1632" y1="64.2969" y2="64.2969"/><rect fill="#F0F0F0" height="23.9688" style="stroke:none;stroke-width:1;" width="1632" x="0" y="69.2969"/><line style="stroke:#181818;stroke-width:1;" x1="0" x2="5" y1="81.2813" y2="81.2813"/><line style="stroke:#181818;stroke-width:1;" x1="131.9766" x2="1631" y1="81.2813" y2="81.2813"/><rect fill="#BBDEFB" height="12.8047" style="stroke:none;stroke-width:1;" width="116" x="2" y="100.2656"/><rect fill="none" height="12.8047" style="stroke:#1976D2;stroke-width:1;" width="116" x="2" y="100.2656"/><rect fill="#BBDEFB" height="12.8047" style="stroke:none;stroke-width:1;" width="220" x="2" y="117.0703"/><rect fill="none" height="12.8047" style="stroke:#1976D2;stroke-width:1;" width="220" x="2" y="117.0703"/><rect fill="#BBDEFB" height="12.8047" style="stroke:none;stroke-width:1;" width="172" x="114" y="133.875"/><rect fill="none" height="12.8047" style="stroke:#1976D2;stroke-width:1;" width="172" x="114" y="133.875"/><rect fill="#BBDEFB" height="12.8047" style="stroke:none;stroke-width:1;" width="252" x="154" y="150.6797"/><rect fill="none" height="12.8047" style="stroke:#1976D2;stroke-width:1;" width="252" x="154" y="150.6797"/><rect fill="#C8E6C9" height="12.8047" style="stroke:none;stroke-width:1;" width="196" x="490" y="167.4844"/><rect fill="none" height="12.8047" style="stroke:#388E3C;stroke-width:1;" width="196" x="490" y="167.4844"/><rect fill="#C8E6C9" height="12.8047" style="stroke:none;stroke-width:1;" width="212" x="562" y="184.2891"/><rect fill="none" height="12.8047" style="stroke:#388E3C;stroke-width:1;" width="212" x="562" y="184.2891"/><rect fill="#C8E6C9" height="12.8047" style="stroke:none;stroke-width:1;" width="172" x="682" y="201.0938"/><rect fill="none" height="12.8047" style="stroke:#388E3C;stroke-width:1;" width="172" x="682" y="201.0938"/><rect fill="#FFE0B2" height="12.8047" style="stroke:none;stroke-width:1;" width="236" x="978" y="217.8984"/><rect fill="none" height="12.8047" style="stroke:#E65100;stroke-width:1;" width="236" x="978" y="217.8984"/><rect fill="#FFE0B2" height="12.8047" style="stroke:none;stroke-width:1;" width="252" x="1090" y="234.7031"/><rect fill="none" height="12.8047" style="stroke:#E65100;stroke-width:1;" width="252" x="1090" y="234.7031"/><rect fill="#FFE0B2" height="12.8047" style="stroke:none;stroke-width:1;" width="196" x="1226" y="251.5078"/><rect fill="none" height="12.8047" style="stroke:#E65100;stroke-width:1;" width="196" x="1226" y="251.5078"/><rect fill="#F0F0F0" height="23.9688" style="stroke:none;stroke-width:1;" width="1632" x="0" y="271.3125"/><line style="stroke:#181818;stroke-width:1;" x1="0" x2="5" y1="283.2969" y2="283.2969"/><line style="stroke:#181818;stroke-width:1;" x1="119.5078" x2="1631" y1="283.2969" y2="283.2969"/><rect fill="#BBDEFB" height="12.8047" style="stroke:none;stroke-width:1;" width="156" x="2" y="302.2813"/><rect fill="none" height="12.8047" style="stroke:#1976D2;stroke-width:1;" width="156" x="2" y="302.2813"/><rect fill="#BBDEFB" height="12.8047" style="stroke:none;stroke-width:1;" width="172" x="114" y="319.0859"/><rect fill="none" height="12.8047" style="stroke:#1976D2;stroke-width:1;" width="172" x="114" y="319.0859"/><rect fill="#BBDEFB" height="12.8047" style="stroke:none;stroke-width:1;" width="212" x="194" y="335.8906"/><rect fill="none" height="12.8047" style="stroke:#1976D2;stroke-width:1;" width="212" x="194" y="335.8906"/><rect fill="#C8E6C9" height="12.8047" style="stroke:none;stroke-width:1;" width="196" x="490" y="352.6953"/><rect fill="none" height="12.8047" style="stroke:#388E3C;stroke-width:1;" width="196" x="490" y="352.6953"/><rect fill="#C8E6C9" height="12.8047" style="stroke:none;stroke-width:1;" width="172" x="642" y="369.5"/><rect fill="none" height="12.8047" style="stroke:#388E3C;stroke-width:1;" width="172" x="642" y="369.5"/><rect fill="#C8E6C9" height="12.8047" style="stroke:none;stroke-width:1;" width="156" x="738" y="386.3047"/><rect fill="none" height="12.8047" style="stroke:#388E3C;stroke-width:1;" width="156" x="738" y="386.3047"/><rect fill="#FFE0B2" height="12.8047" style="stroke:none;stroke-width:1;" width="220" x="978" y="403.1094"/><rect fill="none" height="12.8047" style="stroke:#E65100;stroke-width:1;" width="220" x="978" y="403.1094"/><rect fill="#FFE0B2" height="12.8047" style="stroke:none;stroke-width:1;" width="212" x="1130" y="419.9141"/><rect fill="none" height="12.8047" style="stroke:#E65100;stroke-width:1;" width="212" x="1130" y="419.9141"/><rect fill="#FFE0B2" height="12.8047" style="stroke:none;stroke-width:1;" width="180" x="1298" y="436.7188"/><rect fill="none" height="12.8047" style="stroke:#E65100;stroke-width:1;" width="180" x="1298" y="436.7188"/><rect fill="#F0F0F0" height="23.9688" style="stroke:none;stroke-width:1;" width="1632" x="0" y="456.5234"/><line style="stroke:#181818;stroke-width:1;" x1="0" x2="5" y1="468.5078" y2="468.5078"/><line style="stroke:#181818;stroke-width:1;" x1="249.791" x2="1631" y1="468.5078" y2="468.5078"/><rect fill="#FFE0B2" height="12.8047" style="stroke:none;stroke-width:1;" width="196" x="978" y="487.4922"/><rect fill="none" height="12.8047" style="stroke:#E65100;stroke-width:1;" width="196" x="978" y="487.4922"/><rect fill="#FFE0B2" height="12.8047" style="stroke:none;stroke-width:1;" width="212" x="1130" y="504.2969"/><rect fill="none" height="12.8047" style="stroke:#E65100;stroke-width:1;" width="212" x="1130" y="504.2969"/><rect fill="#FFE0B2" height="12.8047" style="stroke:none;stroke-width:1;" width="212" x="1298" y="521.1016"/><rect fill="none" height="12.8047" style="stroke:#E65100;stroke-width:1;" width="212" x="1298" y="521.1016"/><rect fill="#F0F0F0" height="23.9688" style="stroke:none;stroke-width:1;" width="1632" x="0" y="540.9063"/><line style="stroke:#181818;stroke-width:1;" x1="0" x2="5" y1="552.8906" y2="552.8906"/><line style="stroke:#181818;stroke-width:1;" x1="128.4316" x2="1631" y1="552.8906" y2="552.8906"/><rect fill="#BBDEFB" height="12.8047" style="stroke:none;stroke-width:1;" width="220" x="2" y="571.875"/><rect fill="none" height="12.8047" style="stroke:#1976D2;stroke-width:1;" width="220" x="2" y="571.875"/><rect fill="#C8E6C9" height="12.8047" style="stroke:none;stroke-width:1;" width="212" x="602" y="588.6797"/><rect fill="none" height="12.8047" style="stroke:#388E3C;stroke-width:1;" width="212" x="602" y="588.6797"/><rect fill="#F0F0F0" height="23.9688" style="stroke:none;stroke-width:1;" width="1632" x="0" y="608.4844"/><line style="stroke:#181818;stroke-width:1;" x1="0" x2="5" y1="620.4688" y2="620.4688"/><line style="stroke:#181818;stroke-width:1;" x1="91.125" x2="1631" y1="620.4688" y2="620.4688"/><rect fill="#BBDEFB" height="12.8047" style="stroke:none;stroke-width:1;" width="124" x="362" y="639.4531"/><rect fill="none" height="12.8047" style="stroke:#1976D2;stroke-width:1;" width="124" x="362" y="639.4531"/><rect fill="#C8E6C9" height="12.8047" style="stroke:none;stroke-width:1;" width="124" x="850" y="656.2578"/><rect fill="none" height="12.8047" style="stroke:#388E3C;stroke-width:1;" width="124" x="850" y="656.2578"/><rect fill="#FFE0B2" height="12.8047" style="stroke:none;stroke-width:1;" width="156" x="1474" y="673.0625"/><rect fill="none" height="12.8047" style="stroke:#E65100;stroke-width:1;" width="156" x="1474" y="673.0625"/><polygon fill="#FF4500" points="484,689.8672,489,694.8672,484,699.8672,479,694.8672" style="stroke:#FF4500;stroke-width:1;"/><polygon fill="#FF4500" points="972,706.6719,977,711.6719,972,716.6719,967,711.6719" style="stroke:#FF4500;stroke-width:1;"/><polygon fill="#FF4500" points="1628,723.4766,1633,728.4766,1628,733.4766,1623,728.4766" style="stroke:#FF4500;stroke-width:1;"/><text fill="#000000" font-family="sans-serif" font-size="12" font-weight="bold" lengthAdjust="spacing" textLength="116.9766" x="10" y="85.4355">Backend (2 devs)</text><text fill="#000000" font-family="sans-serif" font-size="11" lengthAdjust="spacing" textLength="195.9106" x="122" y="110.4761">DB Schema + PostGIS + Migrations</text><text fill="#000000" font-family="sans-serif" font-size="11" lengthAdjust="spacing" textLength="168.502" x="6" y="127.2808">Core API - Auth, Users, Profiles</text><text fill="#000000" font-family="sans-serif" font-size="11" lengthAdjust="spacing" textLength="189.229" x="290" y="144.0854">Photo Upload + SQS + S3 Pipeline</text><text fill="#000000" font-family="sans-serif" font-size="11" lengthAdjust="spacing" textLength="190.8887" x="158" y="160.8901">AI Recognition Lambda - Multi-LLM</text><text fill="#000000" font-family="sans-serif" font-size="11" lengthAdjust="spacing" textLength="180.9146" x="494" y="177.6948">Partner CRUD + Geo Queries API</text><text fill="#000000" font-family="sans-serif" font-size="11" lengthAdjust="spacing" textLength="188.7671" x="566" y="194.4995">Recommendation Engine + Cache</text><text fill="#000000" font-family="sans-serif" font-size="11" lengthAdjust="spacing" textLength="144.2622" x="686" y="211.3042">QR Code Discount System</text><text fill="#000000" font-family="sans-serif" font-size="11" lengthAdjust="spacing" textLength="148.8813" x="982" y="228.1089">Stripe Payment Integration</text><text fill="#000000" font-family="sans-serif" font-size="11" lengthAdjust="spacing" textLength="118.1157" x="1094" y="244.9136">Loyalty Points Engine</text><text fill="#000000" font-family="sans-serif" font-size="11" lengthAdjust="spacing" textLength="96.8623" x="1230" y="261.7183">Partner Portal API</text><text fill="#000000" font-family="sans-serif" font-size="12" font-weight="bold" lengthAdjust="spacing" textLength="104.5078" x="10" y="287.4512">Mobile (2 devs)</text><text fill="#000000" font-family="sans-serif" font-size="11" lengthAdjust="spacing" textLength="172.3047" x="162" y="312.4917">Native iOS/Android Shell + Nav</text><text fill="#000000" font-family="sans-serif" font-size="11" lengthAdjust="spacing" textLength="161.4014" x="118" y="329.2964">Camera + Photo Upload Flow</text><text fill="#000000" font-family="sans-serif" font-size="11" lengthAdjust="spacing" textLength="168.1528" x="198" y="346.1011">Attraction Description + Audio</text><text fill="#000000" font-family="sans-serif" font-size="11" lengthAdjust="spacing" textLength="168.7598" x="494" y="362.9058">Partner Venues UI + Map View</text><text fill="#000000" font-family="sans-serif" font-size="11" lengthAdjust="spacing" textLength="159.7471" x="646" y="379.7104">QR Code + Discount Screens</text><text fill="#000000" font-family="sans-serif" font-size="11" lengthAdjust="spacing" textLength="161.729" x="898" y="396.5151">Offline Cache Mode - Phase 1</text><text fill="#000000" font-family="sans-serif" font-size="11" lengthAdjust="spacing" textLength="145.3203" x="982" y="413.3198">Payment + Checkout Flow</text><text fill="#000000" font-family="sans-serif" font-size="11" lengthAdjust="spacing" textLength="118.1479" x="1134" y="430.1245">Loyalty Dashboard UI</text><text fill="#000000" font-family="sans-serif" font-size="11" lengthAdjust="spacing" textLength="129.0513" x="1302" y="446.9292">Multi-language Support</text><text fill="#000000" font-family="sans-serif" font-size="12" font-weight="bold" lengthAdjust="spacing" textLength="234.791" x="10" y="472.6621">China Infra (2 devs, from month 5)</text><text fill="#000000" font-family="sans-serif" font-size="11" lengthAdjust="spacing" textLength="174.4907" x="982" y="497.7026">China Region Infra - CN-North-1</text><text fill="#000000" font-family="sans-serif" font-size="11" lengthAdjust="spacing" textLength="171.4077" x="1134" y="514.5073">Alibaba CDN + Data Residency</text><text fill="#000000" font-family="sans-serif" font-size="11" lengthAdjust="spacing" textLength="137.3765" x="1302" y="531.312">Cross-Region Replication</text><text fill="#000000" font-family="sans-serif" font-size="12" font-weight="bold" lengthAdjust="spacing" textLength="113.4316" x="10" y="557.0449">DevOps (shared)</text><text fill="#000000" font-family="sans-serif" font-size="11" lengthAdjust="spacing" textLength="130.7324" x="6" y="582.0854">CI/CD + IaC - Terraform</text><text fill="#000000" font-family="sans-serif" font-size="11" lengthAdjust="spacing" textLength="120.5596" x="606" y="598.8901">US Region Prod Setup</text><text fill="#000000" font-family="sans-serif" font-size="12" font-weight="bold" lengthAdjust="spacing" textLength="76.125" x="10" y="624.623">Integration</text><text fill="#000000" font-family="sans-serif" font-size="11" lengthAdjust="spacing" textLength="123.4063" x="490" y="649.6636">POC Integration Sprint</text><text fill="#000000" font-family="sans-serif" font-size="11" lengthAdjust="spacing" textLength="175.3823" x="978" y="666.4683">MVP Integration + QA + Submit</text><text fill="#000000" font-family="sans-serif" font-size="11" lengthAdjust="spacing" textLength="163.1738" x="1634" y="683.2729">Full Release QA + Regression</text><text fill="#000000" font-family="sans-serif" font-size="11" font-weight="bold" lengthAdjust="spacing" textLength="64.9258" x="492" y="700.0776">POC Demo</text><text fill="#000000" font-family="sans-serif" font-size="11" font-weight="bold" lengthAdjust="spacing" textLength="104.876" x="980" y="716.8823">MVP Launch - US</text><text fill="#000000" font-family="sans-serif" font-size="11" font-weight="bold" lengthAdjust="spacing" textLength="75.3081" x="1636" y="733.687">Full Release</text><line style="stroke:#C0C0C0;stroke-width:1;" x1="0" x2="1632" y1="738.2813" y2="738.2813"/><line style="stroke:#C0C0C0;stroke-width:1;" x1="0" x2="0" y1="738.2813" y2="754.2813"/><line style="stroke:#C0C0C0;stroke-width:1;" x1="248" x2="248" y1="738.2813" y2="754.2813"/><text fill="#000000" font-family="sans-serif" font-size="12" font-weight="bold" lengthAdjust="spacing" textLength="63.5332" x="92.2334" y="749.4199">Mar 2026</text><line style="stroke:#C0C0C0;stroke-width:1;" x1="488" x2="488" y1="738.2813" y2="754.2813"/><text fill="#000000" font-family="sans-serif" font-size="12" font-weight="bold" lengthAdjust="spacing" textLength="61.3711" x="337.3145" y="749.4199">Apr 2026</text><line style="stroke:#C0C0C0;stroke-width:1;" x1="736" x2="736" y1="738.2813" y2="754.2813"/><text fill="#000000" font-family="sans-serif" font-size="12" font-weight="bold" lengthAdjust="spacing" textLength="65.4375" x="579.2813" y="749.4199">May 2026</text><line style="stroke:#C0C0C0;stroke-width:1;" x1="976" x2="976" y1="738.2813" y2="754.2813"/><text fill="#000000" font-family="sans-serif" font-size="12" font-weight="bold" lengthAdjust="spacing" textLength="59.127" x="826.4365" y="749.4199">Jun 2026</text><line style="stroke:#C0C0C0;stroke-width:1;" x1="1224" x2="1224" y1="738.2813" y2="754.2813"/><text fill="#000000" font-family="sans-serif" font-size="12" font-weight="bold" lengthAdjust="spacing" textLength="54.6973" x="1072.6514" y="749.4199">Jul 2026</text><line style="stroke:#C0C0C0;stroke-width:1;" x1="1472" x2="1472" y1="738.2813" y2="754.2813"/><text fill="#000000" font-family="sans-serif" font-size="12" font-weight="bold" lengthAdjust="spacing" textLength="63.9961" x="1316.002" y="749.4199">Aug 2026</text><line style="stroke:#C0C0C0;stroke-width:1;" x1="1632" x2="1632" y1="738.2813" y2="754.2813"/><text fill="#000000" font-family="sans-serif" font-size="12" font-weight="bold" lengthAdjust="spacing" textLength="62.9473" x="1520.5264" y="749.4199">Sep 2026</text><line style="stroke:#C0C0C0;stroke-width:1;" x1="0" x2="1632" y1="754.2813" y2="754.2813"/><g class="legend" data-source-line="92"><rect fill="#DDDDDD" height="79.1875" rx="7.5" ry="7.5" style="stroke:#000000;stroke-width:1;" width="95.251" x="1523.749" y="766.2813"/><rect fill="#BBDEFB" height="16.2969" style="stroke:none;stroke-width:1;" width="85.251" x="1528.749" y="773.2813"/><text fill="#000000" font-family="sans-serif" font-size="14" lengthAdjust="spacing" textLength="75.4893" x="1533.1992" y="786.2764">POC Phase</text><rect fill="#C8E6C9" height="16.2969" style="stroke:none;stroke-width:1;" width="85.251" x="1528.749" y="789.5781"/><text fill="#000000" font-family="sans-serif" font-size="14" lengthAdjust="spacing" textLength="76.3506" x="1533.1992" y="802.5732">MVP Phase</text><rect fill="#FFE0B2" height="16.2969" style="stroke:none;stroke-width:1;" width="85.251" x="1528.749" y="805.875"/><text fill="#000000" font-family="sans-serif" font-size="14" lengthAdjust="spacing" textLength="70.957" x="1533.1992" y="818.8701">Full Phase</text><rect fill="#FF4500" height="16.2969" style="stroke:none;stroke-width:1;" width="85.251" x="1528.749" y="822.1719"/><text fill="#000000" font-family="sans-serif" font-size="14" lengthAdjust="spacing" textLength="67.3066" x="1533.1992" y="835.167">Milestone</text><line style="stroke:#000000;stroke-width:1;" x1="1528.749" x2="1614" y1="773.2813" y2="773.2813"/><line style="stroke:#000000;stroke-width:1;" x1="1528.749" x2="1614" y1="789.5781" y2="789.5781"/><line style="stroke:#000000;stroke-width:1;" x1="1528.749" x2="1614" y1="805.875" y2="805.875"/><line style="stroke:#000000;stroke-width:1;" x1="1528.749" x2="1614" y1="822.1719" y2="822.1719"/><line style="stroke:#000000;stroke-width:1;" x1="1528.749" x2="1614" y1="838.4688" y2="838.4688"/><line style="stroke:#000000;stroke-width:1;" x1="1528.749" x2="1528.749" y1="773.2813" y2="838.4688"/><line style="stroke:#000000;stroke-width:1;" x1="1614" x2="1614" y1="773.2813" y2="838.4688"/></g><?plantuml-src bLZTRgCu5BxdAOxKcuuwJ18wfEcgggQ1f8gKluPDRwgzSC09tW96jccLcOwq3x5Fk4-onv3EDe44LbKhm3xV-VLtZljDAYBKXYHA6OgfYC8iLOmdOFq6Sy4tWah9NYZqCnO5yCzVVyCLn3nHeVmCNq5nw490N_1bwLqu8Ki8d2y6pcmo6KpTWVl9I0LBbFG90hzI-XnjuJldCLYumF-ale9SlmIhRNNDzgNPxXZ6ZLJRYDuQkLKk8nj1OlXX02WYd_C7W27QuB7l53eTVF-9lp6Bg5GyePKxTkyQ65Oy2l9FVU8_tmkU9O738ovW9aYoeGjQh8vPGilVjIf9KoA8mfL3LLPJLMV3jlx90NyQDwsTouPfvbjf4i2vbOVs4vYcyUJsmVD36XEuW3cNwdxauTE4OMnqkkGVvK02GH04-kzRnsu2n2JusaOQ04lWhDzt1yD-wwnpVTLrBUF9mHMucu_0XBjCXPXvIGKM05RBMgUWaILMhmbGZINpa6C1BjE8am1zy1wq9zubp5bA8qnUoPAEVMZ9LxDjDm6giUHk10lgyqt2yhCp9l4g8EZN98iKCyVZISaKgrqsnMetGggB2kf9g01diNJHZNlAuI6ZWb6fWtrWY5sH7Tkqx7gO0okStg3hNBVEBdkzmQLZF6aduXXHywg2GRB1E2AEGx3uIaPqIj7evecfGQcnuM413Wyek4pwUF8KU5kfQ5pIRjbbxVge79MlqUifWOK3Sx95qnMC4aLtf-j0zLL5zA_Co_PfY0Fjm-6WtRTQPuEktMcZw9XlIQIsUBWry-vYLb9SFWgztESZqZKwtujbpeKYKKMTzIeyxUtLsKVHqzeqHqxu2YbYdoAd61_iL6pcjUwIG70MW1VIAC9wcPANPhJKheUfeqSIKv6JwqTI6KRyjJ4TdOAe8oAb1F7pm-9IwMCHvSyNoB01usKMie-mK0rCGmfwf4c6VB4SwGv3KdXazFL_4r0rICEZV_7XyFg2qbAZj2kO64z_-pH4ZVRPUgtRHa5JMAk8Oc8oYSG9uK1_jyB_Rfw3qo0r5hmJ1r9bIFrddgcg4gpc7zsRZyet91-No735YGWmRoMbvOZlSy--S8t6eZ56EA1bP4F1oz8KcQH4F-KESwrdpQFYzHHKJBkZP8r7TST3ds4jSBZDvsEm2rOgjYteHX-WOZVAJiqfgWdDJhECs0rmQk9q5x4LMH5mtAakQQ8qc6G1JVnjumoT1gcnm15SIdFdmOAc4VEhckAHNDcd0EgpvTANMIhXN8O4T-rICsevUhOP4GTZ-JiLWgovY9iFiCVaQ-XnwRtd4KTTx2vKPMbv9BAhQQbQ-3GTw01y625ov-SpP--Rbz_K3ipuMjcZz81oJBp6zSdZV4_i0XxkzAoThMAcIjHO5GEjl0QbXXk76JRp1Osefj9S40EQttDBjNXTaVlhd9rFWzJKOnuzbyROIKEIfjXIzcAhtHkJBF53BAkbTxYfYC570mvtv2OQ4TteQwHWcr3XFVFjPfUDMz3gYqxoLYmK8Re5hNbleR3y5d9jUok_xiGezUlc_MPeZOLYunl-AVwnO7I-QCE-TFu5?></g></svg>