<?plantuml 1.2026.1?><svg xmlns="http://www.w3.org/2000/svg" xmlns:xlink="http://www.w3.org/1999/xlink" contentStyleType="text/css" data-diagram-type="GANTT" height="625px" preserveAspectRatio="none" style="width:1186px;height:625px;background:#FFFFFF;" version="1.1" viewBox="0 0 1186 625" width="1186px" zoomAndPan="magnify"><title>Option 1: MVP Timeline &#8212; 4 months, 4 devs, US only</title><defs/><g><g class="title" data-source-line="1"><text fill="#000000" font-family="sans-serif" font-size="14" font-weight="bold" lengthAdjust="spacing" textLength="414.8184" x="288.0908" y="22.9951">Option 1: MVP Timeline &#8212; 4 months, 4 devs, US only</text></g><text fill="#000000" font-family="sans-serif" font-size="10" lengthAdjust="spacing" textLength="12.7246" x="13" y="62.5791">10</text><text fill="#000000" font-family="sans-serif" font-size="10" lengthAdjust="spacing" textLength="12.7246" x="69" y="62.5791">11</text><text fill="#000000" font-family="sans-serif" font-size="10" lengthAdjust="spacing" textLength="12.7246" x="125" y="62.5791">12</text><text fill="#000000" font-family="sans-serif" font-size="10" lengthAdjust="spacing" textLength="12.7246" x="181" y="62.5791">13</text><text fill="#000000" font-family="sans-serif" font-size="10" lengthAdjust="spacing" textLength="12.7246" x="237" y="62.5791">14</text><text fill="#000000" font-family="sans-serif" font-size="10" lengthAdjust="spacing" textLength="12.7246" x="293" y="62.5791">15</text><text fill="#000000" font-family="sans-serif" font-size="10" lengthAdjust="spacing" textLength="12.7246" x="349" y="62.5791">16</text><text fill="#000000" font-family="sans-serif" font-size="10" lengthAdjust="spacing" textLength="12.7246" x="405" y="62.5791">17</text><text fill="#000000" font-family="sans-serif" font-size="10" lengthAdjust="spacing" textLength="12.7246" x="461" y="62.5791">18</text><text fill="#000000" font-family="sans-serif" font-size="10" lengthAdjust="spacing" textLength="12.7246" x="517" y="62.5791">19</text><text fill="#000000" font-family="sans-serif" font-size="10" lengthAdjust="spacing" textLength="12.7246" x="573" y="62.5791">20</text><text fill="#000000" font-family="sans-serif" font-size="10" lengthAdjust="spacing" textLength="12.7246" x="629" y="62.5791">21</text><text fill="#000000" font-family="sans-serif" font-size="10" lengthAdjust="spacing" textLength="12.7246" x="685" y="62.5791">22</text><text fill="#000000" font-family="sans-serif" font-size="10" lengthAdjust="spacing" textLength="12.7246" x="741" y="62.5791">23</text><text fill="#000000" font-family="sans-serif" font-size="10" lengthAdjust="spacing" textLength="12.7246" x="797" y="62.5791">24</text><text fill="#000000" font-family="sans-serif" font-size="10" lengthAdjust="spacing" textLength="12.7246" x="853" y="62.5791">25</text><text fill="#000000" font-family="sans-serif" font-size="10" lengthAdjust="spacing" textLength="12.7246" x="909" y="62.5791">26</text><text fill="#000000" font-family="sans-serif" font-size="10" lengthAdjust="spacing" textLength="12.7246" x="965" y="62.5791">27</text><line style="stroke:#C0C0C0;stroke-width:1;" x1="8" x2="8" y1="53.2969" y2="519.4609"/><line style="stroke:#C0C0C0;stroke-width:1;" x1="64" x2="64" y1="53.2969" y2="519.4609"/><line style="stroke:#C0C0C0;stroke-width:1;" x1="120" x2="120" y1="53.2969" y2="519.4609"/><line style="stroke:#C0C0C0;stroke-width:1;" x1="176" x2="176" y1="53.2969" y2="519.4609"/><line style="stroke:#C0C0C0;stroke-width:1;" x1="232" x2="232" y1="53.2969" y2="519.4609"/><line style="stroke:#C0C0C0;stroke-width:1;" x1="288" x2="288" y1="53.2969" y2="519.4609"/><line style="stroke:#C0C0C0;stroke-width:1;" x1="344" x2="344" y1="53.2969" y2="519.4609"/><line style="stroke:#C0C0C0;stroke-width:1;" x1="400" x2="400" y1="53.2969" y2="519.4609"/><line style="stroke:#C0C0C0;stroke-width:1;" x1="456" x2="456" y1="53.2969" y2="519.4609"/><line style="stroke:#C0C0C0;stroke-width:1;" x1="512" x2="512" y1="53.2969" y2="519.4609"/><line style="stroke:#C0C0C0;stroke-width:1;" x1="568" x2="568" y1="53.2969" y2="519.4609"/><line style="stroke:#C0C0C0;stroke-width:1;" x1="624" x2="624" y1="53.2969" y2="519.4609"/><line style="stroke:#C0C0C0;stroke-width:1;" x1="680" x2="680" y1="53.2969" y2="519.4609"/><line style="stroke:#C0C0C0;stroke-width:1;" x1="736" x2="736" y1="53.2969" y2="519.4609"/><line style="stroke:#C0C0C0;stroke-width:1;" x1="792" x2="792" y1="53.2969" y2="519.4609"/><line style="stroke:#C0C0C0;stroke-width:1;" x1="848" x2="848" y1="53.2969" y2="519.4609"/><line style="stroke:#C0C0C0;stroke-width:1;" x1="904" x2="904" y1="53.2969" y2="519.4609"/><line style="stroke:#C0C0C0;stroke-width:1;" x1="960" x2="960" y1="53.2969" y2="519.4609"/><line style="stroke:#C0C0C0;stroke-width:1;" x1="992" x2="992" y1="53.2969" y2="519.4609"/><line style="stroke:#C0C0C0;stroke-width:1;" x1="0" x2="0" y1="37.2969" y2="53.2969"/><line style="stroke:#C0C0C0;stroke-width:1;" x1="248" x2="248" y1="37.2969" y2="53.2969"/><text fill="#000000" font-family="sans-serif" font-size="12" font-weight="bold" lengthAdjust="spacing" textLength="63.5332" x="92.2334" y="48.4355">Mar 2026</text><line style="stroke:#C0C0C0;stroke-width:1;" x1="488" x2="488" y1="37.2969" y2="53.2969"/><text fill="#000000" font-family="sans-serif" font-size="12" font-weight="bold" lengthAdjust="spacing" textLength="61.3711" x="337.3145" y="48.4355">Apr 2026</text><line style="stroke:#C0C0C0;stroke-width:1;" x1="736" x2="736" y1="37.2969" y2="53.2969"/><text fill="#000000" font-family="sans-serif" font-size="12" font-weight="bold" lengthAdjust="spacing" textLength="65.4375" x="579.2813" y="48.4355">May 2026</text><line style="stroke:#C0C0C0;stroke-width:1;" x1="976" x2="976" y1="37.2969" y2="53.2969"/><text fill="#000000" font-family="sans-serif" font-size="12" font-weight="bold" lengthAdjust="spacing" textLength="59.127" x="826.4365" y="48.4355">Jun 2026</text><line style="stroke:#C0C0C0;stroke-width:1;" x1="992" x2="992" y1="37.2969" y2="53.2969"/><text fill="#000000" font-family="sans-serif" font-size="12" font-weight="bold" lengthAdjust="spacing" textLength="17.1211" x="976" y="48.4355">Jul</text><line style="stroke:#C0C0C0;stroke-width:1;" x1="0" x2="992" y1="37.2969" y2="37.2969"/><line style="stroke:#C0C0C0;stroke-width:1;" x1="0" x2="992" y1="53.2969" y2="53.2969"/><line style="stroke:#C0C0C0;stroke-width:1;" x1="0" x2="992" y1="64.2969" y2="64.2969"/><rect fill="#F0F0F0" height="23.9688" style="stroke:none;stroke-width:1;" width="992" x="0" y="69.2969"/><line style="stroke:#181818;stroke-width:1;" x1="0" x2="5" y1="81.2813" y2="81.2813"/><line style="stroke:#181818;stroke-width:1;" x1="131.9766" x2="991" y1="81.2813" y2="81.2813"/><rect fill="#BBDEFB" height="12.8047" style="stroke:none;stroke-width:1;" width="116" x="2" y="100.2656"/><rect fill="none" height="12.8047" style="stroke:#1976D2;stroke-width:1;" width="116" x="2" y="100.2656"/><rect fill="#BBDEFB" height="12.8047" style="stroke:none;stroke-width:1;" width="196" x="2" y="117.0703"/><rect fill="none" height="12.8047" style="stroke:#1976D2;stroke-width:1;" width="196" x="2" y="117.0703"/><rect fill="#BBDEFB" height="12.8047" style="stroke:none;stroke-width:1;" width="140" x="114" y="133.875"/><rect fill="none" height="12.8047" style="stroke:#1976D2;stroke-width:1;" width="140" x="114" y="133.875"/><rect fill="#BBDEFB" height="12.8047" style="stroke:none;stroke-width:1;" width="212" x="154" y="150.6797"/><rect fill="none" height="12.8047" style="stroke:#1976D2;stroke-width:1;" width="212" x="154" y="150.6797"/><rect fill="#C8E6C9" height="12.8047" style="stroke:none;stroke-width:1;" width="204" x="498" y="167.4844"/><rect fill="none" height="12.8047" style="stroke:#388E3C;stroke-width:1;" width="204" x="498" y="167.4844"/><rect fill="#C8E6C9" height="12.8047" style="stroke:none;stroke-width:1;" width="196" x="546" y="184.2891"/><rect fill="none" height="12.8047" style="stroke:#388E3C;stroke-width:1;" width="196" x="546" y="184.2891"/><rect fill="#C8E6C9" height="12.8047" style="stroke:none;stroke-width:1;" width="132" x="698" y="201.0938"/><rect fill="none" height="12.8047" style="stroke:#388E3C;stroke-width:1;" width="132" x="698" y="201.0938"/><rect fill="#F0F0F0" height="23.9688" style="stroke:none;stroke-width:1;" width="992" x="0" y="220.8984"/><line style="stroke:#181818;stroke-width:1;" x1="0" x2="5" y1="232.8828" y2="232.8828"/><line style="stroke:#181818;stroke-width:1;" x1="119.5078" x2="991" y1="232.8828" y2="232.8828"/><rect fill="#BBDEFB" height="12.8047" style="stroke:none;stroke-width:1;" width="156" x="2" y="251.8672"/><rect fill="none" height="12.8047" style="stroke:#1976D2;stroke-width:1;" width="156" x="2" y="251.8672"/><rect fill="#BBDEFB" height="12.8047" style="stroke:none;stroke-width:1;" width="172" x="114" y="268.6719"/><rect fill="none" height="12.8047" style="stroke:#1976D2;stroke-width:1;" width="172" x="114" y="268.6719"/><rect fill="#BBDEFB" height="12.8047" style="stroke:none;stroke-width:1;" width="172" x="194" y="285.4766"/><rect fill="none" height="12.8047" style="stroke:#1976D2;stroke-width:1;" width="172" x="194" y="285.4766"/><rect fill="#C8E6C9" height="12.8047" style="stroke:none;stroke-width:1;" width="204" x="498" y="302.2813"/><rect fill="none" height="12.8047" style="stroke:#388E3C;stroke-width:1;" width="204" x="498" y="302.2813"/><rect fill="#C8E6C9" height="12.8047" style="stroke:none;stroke-width:1;" width="164" x="618" y="319.0859"/><rect fill="none" height="12.8047" style="stroke:#388E3C;stroke-width:1;" width="164" x="618" y="319.0859"/><rect fill="#C8E6C9" height="12.8047" style="stroke:none;stroke-width:1;" width="140" x="658" y="335.8906"/><rect fill="none" height="12.8047" style="stroke:#388E3C;stroke-width:1;" width="140" x="658" y="335.8906"/><rect fill="#F0F0F0" height="23.9688" style="stroke:none;stroke-width:1;" width="992" x="0" y="355.6953"/><line style="stroke:#181818;stroke-width:1;" x1="0" x2="5" y1="367.6797" y2="367.6797"/><line style="stroke:#181818;stroke-width:1;" x1="128.4316" x2="991" y1="367.6797" y2="367.6797"/><rect fill="#BBDEFB" height="12.8047" style="stroke:none;stroke-width:1;" width="196" x="2" y="386.6641"/><rect fill="none" height="12.8047" style="stroke:#1976D2;stroke-width:1;" width="196" x="2" y="386.6641"/><rect fill="#C8E6C9" height="12.8047" style="stroke:none;stroke-width:1;" width="172" x="658" y="403.4688"/><rect fill="none" height="12.8047" style="stroke:#388E3C;stroke-width:1;" width="172" x="658" y="403.4688"/><rect fill="#F0F0F0" height="23.9688" style="stroke:none;stroke-width:1;" width="992" x="0" y="423.2734"/><line style="stroke:#181818;stroke-width:1;" x1="0" x2="5" y1="435.2578" y2="435.2578"/><line style="stroke:#181818;stroke-width:1;" x1="91.125" x2="991" y1="435.2578" y2="435.2578"/><rect fill="#BBDEFB" height="12.8047" style="stroke:none;stroke-width:1;" width="124" x="322" y="454.2422"/><rect fill="none" height="12.8047" style="stroke:#1976D2;stroke-width:1;" width="124" x="322" y="454.2422"/><rect fill="#C8E6C9" height="12.8047" style="stroke:none;stroke-width:1;" width="196" x="794" y="471.0469"/><rect fill="none" height="12.8047" style="stroke:#388E3C;stroke-width:1;" width="196" x="794" y="471.0469"/><polygon fill="#FF4500" points="444,487.8516,449,492.8516,444,497.8516,439,492.8516" style="stroke:#FF4500;stroke-width:1;"/><polygon fill="#FF4500" points="988,504.6563,993,509.6563,988,514.6563,983,509.6563" style="stroke:#FF4500;stroke-width:1;"/><text fill="#000000" font-family="sans-serif" font-size="12" font-weight="bold" lengthAdjust="spacing" textLength="116.9766" x="10" y="85.4355">Backend (2 devs)</text><text fill="#000000" font-family="sans-serif" font-size="11" lengthAdjust="spacing" textLength="157.6201" x="122" y="110.4761">DB Schema + PostGIS Setup</text><text fill="#000000" font-family="sans-serif" font-size="11" lengthAdjust="spacing" textLength="121.1396" x="6" y="127.2808">Core API - Auth, Users</text><text fill="#000000" font-family="sans-serif" font-size="11" lengthAdjust="spacing" textLength="167.7178" x="258" y="144.0854">Photo Upload + S3 Integration</text><text fill="#000000" font-family="sans-serif" font-size="11" lengthAdjust="spacing" textLength="127.3218" x="158" y="160.8901">AI Recognition Lambda</text><text fill="#000000" font-family="sans-serif" font-size="11" lengthAdjust="spacing" textLength="177.4878" x="502" y="177.6948">Partner API - CRUD, Geo queries</text><text fill="#000000" font-family="sans-serif" font-size="11" lengthAdjust="spacing" textLength="138.3486" x="550" y="194.4995">Recommendation Engine</text><text fill="#000000" font-family="sans-serif" font-size="11" lengthAdjust="spacing" textLength="102.0508" x="702" y="211.3042">Redis Cache Layer</text><text fill="#000000" font-family="sans-serif" font-size="12" font-weight="bold" lengthAdjust="spacing" textLength="104.5078" x="10" y="237.0371">Mobile (2 devs)</text><text fill="#000000" font-family="sans-serif" font-size="11" lengthAdjust="spacing" textLength="172.3047" x="162" y="262.0776">Native iOS/Android Shell + Nav</text><text fill="#000000" font-family="sans-serif" font-size="11" lengthAdjust="spacing" textLength="147.5869" x="118" y="278.8823">Camera + Photo Upload UI</text><text fill="#000000" font-family="sans-serif" font-size="11" lengthAdjust="spacing" textLength="162.2339" x="198" y="295.687">Attraction Description Screen</text><text fill="#000000" font-family="sans-serif" font-size="11" lengthAdjust="spacing" textLength="161.772" x="502" y="312.4917">Partner Venues List + Details</text><text fill="#000000" font-family="sans-serif" font-size="11" lengthAdjust="spacing" textLength="164.6079" x="786" y="329.2964">QR Code Discount Generation</text><text fill="#000000" font-family="sans-serif" font-size="11" lengthAdjust="spacing" textLength="120.4736" x="662" y="346.1011">Audio Playback + TTS</text><text fill="#000000" font-family="sans-serif" font-size="12" font-weight="bold" lengthAdjust="spacing" textLength="113.4316" x="10" y="371.834">DevOps (shared)</text><text fill="#000000" font-family="sans-serif" font-size="11" lengthAdjust="spacing" textLength="141.3296" x="6" y="396.8745">CI/CD + Monitoring Setup</text><text fill="#000000" font-family="sans-serif" font-size="11" lengthAdjust="spacing" textLength="183.5947" x="834" y="413.6792">CloudWatch Alerts + Dashboards</text><text fill="#000000" font-family="sans-serif" font-size="12" font-weight="bold" lengthAdjust="spacing" textLength="76.125" x="10" y="439.4121">Integration</text><text fill="#000000" font-family="sans-serif" font-size="11" lengthAdjust="spacing" textLength="143.8325" x="450" y="464.4526">POC Integration + Testing</text><text fill="#000000" font-family="sans-serif" font-size="11" lengthAdjust="spacing" textLength="190.6631" x="994" y="481.2573">MVP Integration + QA + App Store</text><text fill="#000000" font-family="sans-serif" font-size="11" font-weight="bold" lengthAdjust="spacing" textLength="64.9258" x="452" y="498.062">POC Demo</text><text fill="#000000" font-family="sans-serif" font-size="11" font-weight="bold" lengthAdjust="spacing" textLength="75.7969" x="996" y="514.8667">MVP Launch</text><line style="stroke:#C0C0C0;stroke-width:1;" x1="0" x2="992" y1="519.4609" y2="519.4609"/><line style="stroke:#C0C0C0;stroke-width:1;" x1="0" x2="0" y1="519.4609" y2="535.4609"/><line style="stroke:#C0C0C0;stroke-width:1;" x1="248" x2="248" y1="519.4609" y2="535.4609"/><text fill="#000000" font-family="sans-serif" font-size="12" font-weight="bold" lengthAdjust="spacing" textLength="63.5332" x="92.2334" y="530.5996">Mar 2026</text><line style="stroke:#C0C0C0;stroke-width:1;" x1="488" x2="488" y1="519.4609" y2="535.4609"/><text fill="#000000" font-family="sans-serif" font-size="12" font-weight="bold" lengthAdjust="spacing" textLength="61.3711" x="337.3145" y="530.5996">Apr 2026</text><line style="stroke:#C0C0C0;stroke-width:1;" x1="736" x2="736" y1="519.4609" y2="535.4609"/><text fill="#000000" font-family="sans-serif" font-size="12" font-weight="bold" lengthAdjust="spacing" textLength="65.4375" x="579.2813" y="530.5996">May 2026</text><line style="stroke:#C0C0C0;stroke-width:1;" x1="976" x2="976" y1="519.4609" y2="535.4609"/><text fill="#000000" font-family="sans-serif" font-size="12" font-weight="bold" lengthAdjust="spacing" textLength="59.127" x="826.4365" y="530.5996">Jun 2026</text><line style="stroke:#C0C0C0;stroke-width:1;" x1="992" x2="992" y1="519.4609" y2="535.4609"/><text fill="#000000" font-family="sans-serif" font-size="12" font-weight="bold" lengthAdjust="spacing" textLength="17.1211" x="976" y="530.5996">Jul</text><line style="stroke:#C0C0C0;stroke-width:1;" x1="0" x2="992" y1="535.4609" y2="535.4609"/><g class="legend" data-source-line="69"><rect fill="#DDDDDD" height="62.8906" rx="7.5" ry="7.5" style="stroke:#000000;stroke-width:1;" width="95.251" x="883.749" y="547.4609"/><rect fill="#BBDEFB" height="16.2969" style="stroke:none;stroke-width:1;" width="85.251" x="888.749" y="554.4609"/><text fill="#000000" font-family="sans-serif" font-size="14" lengthAdjust="spacing" textLength="75.4893" x="893.1992" y="567.4561">POC Phase</text><rect fill="#C8E6C9" height="16.2969" style="stroke:none;stroke-width:1;" width="85.251" x="888.749" y="570.7578"/><text fill="#000000" font-family="sans-serif" font-size="14" lengthAdjust="spacing" textLength="76.3506" x="893.1992" y="583.7529">MVP Phase</text><rect fill="#FF4500" height="16.2969" style="stroke:none;stroke-width:1;" width="85.251" x="888.749" y="587.0547"/><text fill="#000000" font-family="sans-serif" font-size="14" lengthAdjust="spacing" textLength="67.3066" x="893.1992" y="600.0498">Milestone</text><line style="stroke:#000000;stroke-width:1;" x1="888.749" x2="974" y1="554.4609" y2="554.4609"/><line style="stroke:#000000;stroke-width:1;" x1="888.749" x2="974" y1="570.7578" y2="570.7578"/><line style="stroke:#000000;stroke-width:1;" x1="888.749" x2="974" y1="587.0547" y2="587.0547"/><line style="stroke:#000000;stroke-width:1;" x1="888.749" x2="974" y1="603.3516" y2="603.3516"/><line style="stroke:#000000;stroke-width:1;" x1="888.749" x2="888.749" y1="554.4609" y2="603.3516"/><line style="stroke:#000000;stroke-width:1;" x1="974" x2="974" y1="554.4609" y2="603.3516"/></g><?plantuml-src bLR1Rjiu4BthAmR8fOjMjQNKZhi8WjfI4XX8QZTAkeUW1reQMDn8f4hIATocG3zYlt2_P8TqqAqbsr9Xs9OqdFU6JpF3UQSDKsR9X36UuQP0c5M6Im71dt3zSGwtlCI22uH_V_m3Rw2KmkJw5Lrb-4Z_Tmb8KQozId5XTCh8_mlYGx66hrAM4991_esf0KUZ8Uo7Gxz_xFS3pplLPbtWcUV8OywMYfNmpGCmJ3-u2u0BualuLuGWeFllz2rvWTf8YcZNYkTx2mmBMMJkqOIb3vTAhaGMoK8gc2acbdY36-iLxQxvt59fh9XYXYnrgh0hrT55ttuSu7VljFUyPS_ttL8K6Rm8dPP_WEzxz_44aZJ7ai5Bc4jjBgS996XMrQUcWi38cn3-VnOC3Y9m3QcD2ZFW0euca_ZyOj8x2jwU3EFGku_80kFv57mOhqnEBrUZqfs8my5-znRMUIwDXBkga2oZa9DZc0g3b0is2nlamQ1E_iRcKXjAImpZATnWAfU2kzI_OkKYOmtkiD_ajehlyMxRDs4BLC-AHJTtyIkuH0cVLwWurcKV-FsmpZxmmvCEEBKuej7vC7hREpeUZSwF8-_UXbwM1EkaWdEnf7feie_gx4Ed-nxlLiwCLaICyfJaMgDgy8KdJJwgkbsUXxbifLtB1JMDxK9xJm4_8l1PqXkBJ4cUGP9ZKL3ol6UFtPA-tmxJLdAiHEKgzTVylPjso_l18O2sb3T6iTIzj1XrglYcwoUfGcoMNJZOa_g7KJgMm4SKAzJKYBMXdSHe62z-lm3seBIaueSRY6I647ETKjisL3i4jglv3FnWHrBsXoqOBVpZLSObp0ksNj1vG87VtYRDQWXt48_sERSNH8oFiqh32vqpMhKfY6ZQYsA2k9RKnoGTvylVE7XS_zyBq5O4XLnbVp6JvZ0kq5BHwsCwNqYcCjr9ZA03JBiilnmPJfBvBDfwHlhIw44RgyL4jR3ZQB2Q741e4SNENjkU7yRqCwugI4ZTUeSUxkZG9rGoNO1QX76RYB6Kdo1dLOLYUuiM_ugjH9hNxOxVAt1ffnp5bxcXCUZfz7chPs1nvpdJ24yRmuRvpCsTMuQVWndPVev_Jvx5tS1xx-XdCyHwmMjB_phu3m00?></g></svg>