<?plantuml 1.2026.1?><svg xmlns="http://www.w3.org/2000/svg" xmlns:xlink="http://www.w3.org/1999/xlink" contentStyleType="text/css" data-diagram-type="DESCRIPTION" height="1312px" preserveAspectRatio="none" style="width:2573px;height:1312px;background:#FFFFFF;" version="1.1" viewBox="0 0 2573 1312" width="2573px" zoomAndPan="magnify"><title>Option 2: Multi-Region &#8212; US + China (Terraform-deployed)</title><defs/><g><g class="title" data-source-line="1"><text fill="#000000" font-family="sans-serif" font-size="14" font-weight="bold" lengthAdjust="spacing" textLength="465.4795" x="1046.7603" y="22.9951">Option 2: Multi-Region &#8212; US + China (Terraform-deployed)</text></g><!--cluster us_region--><g class="cluster" data-qualified-name="us_region" data-source-line="21" id="ent0007"><rect fill="#E8F5E9" height="459.68" rx="5" ry="5" style="stroke:#DEE2E6;stroke-width:1;" width="970" x="7" y="445.8669"/><text fill="#000000" font-family="sans-serif" font-size="14" font-weight="bold" lengthAdjust="spacing" textLength="203.7793" x="390.1104" y="460.862">AWS US-EAST-1 (Primary)</text></g><!--cluster Compute--><g class="cluster" data-qualified-name="us_region.Compute" data-source-line="24" id="ent0009"><path d="M33.5,585.4669 L105.1563,585.4669 A3.75,3.75 0 0 1 107.6563,587.9669 L114.6563,607.7638 L311.5,607.7638 A2.5,2.5 0 0 1 314,610.2638 L314,858.2469 A2.5,2.5 0 0 1 311.5,860.7469 L33.5,860.7469 A2.5,2.5 0 0 1 31,858.2469 L31,587.9669 A2.5,2.5 0 0 1 33.5,585.4669" fill="#F8F9FA" style="stroke:#DEE2E6;stroke-width:1.5;"/><line style="stroke:#DEE2E6;stroke-width:1.5;" x1="31" x2="114.6563" y1="607.7638" y2="607.7638"/><text fill="#000000" font-family="sans-serif" font-size="14" font-weight="bold" lengthAdjust="spacing" textLength="70.6563" x="35" y="600.462">Compute</text></g><!--cluster Data--><g class="cluster" data-qualified-name="us_region.Data" data-source-line="30" id="ent0013"><path d="M397.5,752.6569 L435.708,752.6569 A3.75,3.75 0 0 1 438.208,755.1569 L445.208,774.9538 L950.5,774.9538 A2.5,2.5 0 0 1 953,777.4538 L953,879.0469 A2.5,2.5 0 0 1 950.5,881.5469 L397.5,881.5469 A2.5,2.5 0 0 1 395,879.0469 L395,755.1569 A2.5,2.5 0 0 1 397.5,752.6569" fill="#F8F9FA" style="stroke:#DEE2E6;stroke-width:1.5;"/><line style="stroke:#DEE2E6;stroke-width:1.5;" x1="395" x2="445.208" y1="774.9538" y2="774.9538"/><text fill="#000000" font-family="sans-serif" font-size="14" font-weight="bold" lengthAdjust="spacing" textLength="37.208" x="399" y="767.652">Data</text></g><!--cluster cn_region--><g class="cluster" data-qualified-name="cn_region" data-source-line="41" id="ent0020"><rect fill="#FFF3E0" height="527.53" rx="5" ry="5" style="stroke:#DEE2E6;stroke-width:1;" width="997" x="1570" y="609.9069"/><text fill="#000000" font-family="sans-serif" font-size="14" font-weight="bold" lengthAdjust="spacing" textLength="262.3428" x="1937.3286" y="624.902">AWS CN-NORTHWEST-1 (Ningxia)</text></g><!--cluster Compute --><g class="cluster" data-qualified-name="cn_region.Compute " data-source-line="44" id="ent0022"><path d="M1596.5,765.2969 L1673.0303,765.2969 A3.75,3.75 0 0 1 1675.5303,767.7969 L1682.5303,787.5938 L1900.5,787.5938 A2.5,2.5 0 0 1 1903,790.0938 L1903,1090.1369 A2.5,2.5 0 0 1 1900.5,1092.6369 L1596.5,1092.6369 A2.5,2.5 0 0 1 1594,1090.1369 L1594,767.7969 A2.5,2.5 0 0 1 1596.5,765.2969" fill="#F8F9FA" style="stroke:#DEE2E6;stroke-width:1.5;"/><line style="stroke:#DEE2E6;stroke-width:1.5;" x1="1594" x2="1682.5303" y1="787.5938" y2="787.5938"/><text fill="#000000" font-family="sans-serif" font-size="14" font-weight="bold" lengthAdjust="spacing" textLength="70.6563" x="1598" y="780.292">Compute</text></g><!--cluster Data --><g class="cluster" data-qualified-name="cn_region.Data " data-source-line="50" id="ent0026"><path d="M1986.5,984.5469 L2029.582,984.5469 A3.75,3.75 0 0 1 2032.082,987.0469 L2039.082,1006.8438 L2540.5,1006.8438 A2.5,2.5 0 0 1 2543,1009.3438 L2543,1110.9369 A2.5,2.5 0 0 1 2540.5,1113.4369 L1986.5,1113.4369 A2.5,2.5 0 0 1 1984,1110.9369 L1984,987.0469 A2.5,2.5 0 0 1 1986.5,984.5469" fill="#F8F9FA" style="stroke:#DEE2E6;stroke-width:1.5;"/><line style="stroke:#DEE2E6;stroke-width:1.5;" x1="1984" x2="2039.082" y1="1006.8438" y2="1006.8438"/><text fill="#000000" font-family="sans-serif" font-size="14" font-weight="bold" lengthAdjust="spacing" textLength="37.208" x="1988" y="999.542">Data</text></g><!--cluster AI Services--><g class="cluster" data-qualified-name="AI Services" data-source-line="63" id="ent0034"><path d="M124.5,1201.4369 L212.9521,1201.4369 A3.75,3.75 0 0 1 215.4521,1203.9369 L222.4521,1223.7338 L614.5,1223.7338 A2.5,2.5 0 0 1 617,1226.2338 L617,1302.5269 A2.5,2.5 0 0 1 614.5,1305.0269 L124.5,1305.0269 A2.5,2.5 0 0 1 122,1302.5269 L122,1203.9369 A2.5,2.5 0 0 1 124.5,1201.4369" fill="#E8F5E9" style="stroke:#DEE2E6;stroke-width:1.5;"/><line style="stroke:#DEE2E6;stroke-width:1.5;" x1="122" x2="222.4521" y1="1223.7338" y2="1223.7338"/><text fill="#000000" font-family="sans-serif" font-size="14" font-weight="bold" lengthAdjust="spacing" textLength="87.4521" x="126" y="1216.432">AI Services</text></g><!--cluster 3rd Party--><g class="cluster" data-qualified-name="3rd Party" data-source-line="69" id="ent0038"><path d="M1003.5,773.4469 L1078.4717,773.4469 A3.75,3.75 0 0 1 1080.9717,775.9469 L1087.9717,795.7438 L1264.5,795.7438 A2.5,2.5 0 0 1 1267,798.2438 L1267,858.2469 A2.5,2.5 0 0 1 1264.5,860.7469 L1003.5,860.7469 A2.5,2.5 0 0 1 1001,858.2469 L1001,775.9469 A2.5,2.5 0 0 1 1003.5,773.4469" fill="#FFF3E0" style="stroke:#DEE2E6;stroke-width:1.5;"/><line style="stroke:#DEE2E6;stroke-width:1.5;" x1="1001" x2="1087.9717" y1="795.7438" y2="795.7438"/><text fill="#000000" font-family="sans-serif" font-size="14" font-weight="bold" lengthAdjust="spacing" textLength="73.9717" x="1005" y="788.442">3rd Party</text></g><!--entity alb_us--><g class="entity" data-qualified-name="us_region.alb_us" data-source-line="22" id="ent0008"><rect fill="#ED7100" height="36.2969" rx="2.5" ry="2.5" style="stroke:#181818;stroke-width:0.5;" width="46.9814" x="914.51" y="480.8669"/><text fill="#000000" font-family="sans-serif" font-size="14" lengthAdjust="spacing" textLength="26.9814" x="924.51" y="503.862">ALB</text></g><!--entity ses_us--><g class="entity" data-qualified-name="us_region.ses_us" data-source-line="37" id="ent0018"><rect fill="#FF4F8B" height="36.2969" rx="2.5" ry="2.5" style="stroke:#181818;stroke-width:0.5;" width="46.6191" x="329.69" y="808.4469"/><text fill="#000000" font-family="sans-serif" font-size="14" lengthAdjust="spacing" textLength="26.6191" x="339.69" y="831.442">SES</text></g><!--entity cw_us--><g class="entity" data-qualified-name="us_region.cw_us" data-source-line="38" id="ent0019"><rect fill="#FF4F8B" height="36.2969" rx="2.5" ry="2.5" style="stroke:#181818;stroke-width:0.5;" width="104.4717" x="774.76" y="480.8669"/><text fill="#000000" font-family="sans-serif" font-size="14" lengthAdjust="spacing" textLength="84.4717" x="784.76" y="503.862">CloudWatch</text></g><!--entity ecs_us--><g class="entity" data-qualified-name="us_region.Compute.ecs_us" data-source-line="25" id="ent0010"><rect fill="#FF9900" height="85.1875" rx="2.5" ry="2.5" style="stroke:#181818;stroke-width:0.5;" width="167.123" x="130.44" y="620.4669"/><text fill="#000000" font-family="sans-serif" font-size="14" lengthAdjust="spacing" textLength="96.8994" x="165.5518" y="643.462">ECS: Monolith</text><text fill="#000000" font-family="sans-serif" font-size="14" lengthAdjust="spacing" textLength="134.8184" x="146.5923" y="659.7589">Users + Partners +</text><text fill="#000000" font-family="sans-serif" font-size="14" lengthAdjust="spacing" textLength="147.123" x="140.44" y="676.0557">Recommendations +</text><text fill="#000000" font-family="sans-serif" font-size="14" lengthAdjust="spacing" textLength="140.7383" x="143.6324" y="692.3526">Payments + Loyalty</text></g><!--entity sqs_us--><g class="entity" data-qualified-name="us_region.Compute.sqs_us" data-source-line="26" id="ent0011"><path d="M51.6,649.9069 L90.393,649.9069 C95.393,649.9069 95.393,663.0553 95.393,663.0553 C95.393,663.0553 95.393,676.2038 90.393,676.2038 L51.6,676.2038 C46.6,676.2038 46.6,663.0553 46.6,663.0553 C46.6,663.0553 46.6,649.9069 51.6,649.9069" fill="#FF4F8B" style="stroke:#181818;stroke-width:0.5;"/><path d="M90.393,649.9069 C85.393,649.9069 85.393,663.0553 85.393,663.0553 C85.393,676.2038 90.393,676.2038 90.393,676.2038" fill="none" style="stroke:#181818;stroke-width:0.5;"/><text fill="#000000" font-family="sans-serif" font-size="14" lengthAdjust="spacing" textLength="28.793" x="51.6" y="667.902">SQS</text></g><!--entity ar_us--><g class="entity" data-qualified-name="us_region.Compute.ar_us" data-source-line="27" id="ent0012"><rect fill="#FF9900" height="36.2969" rx="2.5" ry="2.5" style="stroke:#181818;stroke-width:0.5;" width="186.7627" x="107.62" y="808.4469"/><text fill="#000000" font-family="sans-serif" font-size="14" lengthAdjust="spacing" textLength="166.7627" x="117.62" y="831.442">Lambda: AI Recognition</text></g><!--entity db_us--><g class="entity" data-qualified-name="us_region.Data.db_us" data-source-line="31" id="ent0014"><path d="M658.43,797.6569 C658.43,787.6569 733.9969,787.6569 733.9969,787.6569 C733.9969,787.6569 809.5638,787.6569 809.5638,797.6569 L809.5638,855.5475 C809.5638,865.5475 733.9969,865.5475 733.9969,865.5475 C733.9969,865.5475 658.43,865.5475 658.43,855.5475 L658.43,797.6569" fill="#3B48CC" style="stroke:#181818;stroke-width:0.5;"/><path d="M658.43,797.6569 C658.43,807.6569 733.9969,807.6569 733.9969,807.6569 C733.9969,807.6569 809.5638,807.6569 809.5638,797.6569" fill="none" style="stroke:#181818;stroke-width:0.5;"/><text fill="#000000" font-family="sans-serif" font-size="14" lengthAdjust="spacing" textLength="80.7529" x="693.6204" y="824.652">PostgreSQL</text><text fill="#000000" font-family="sans-serif" font-size="14" lengthAdjust="spacing" textLength="58.4404" x="704.7767" y="840.9489">Multi-AZ</text><text fill="#000000" font-family="sans-serif" font-size="14" lengthAdjust="spacing" textLength="131.1338" x="668.43" y="857.2457">Primary (US users)</text></g><!--entity cache_us--><g class="entity" data-qualified-name="us_region.Data.cache_us" data-source-line="32" id="ent0015"><path d="M844.89,813.9469 C844.89,803.9469 891.0008,803.9469 891.0008,803.9469 C891.0008,803.9469 937.1117,803.9469 937.1117,813.9469 L937.1117,839.2438 C937.1117,849.2438 891.0008,849.2438 891.0008,849.2438 C891.0008,849.2438 844.89,849.2438 844.89,839.2438 L844.89,813.9469" fill="#3B48CC" style="stroke:#181818;stroke-width:0.5;"/><path d="M844.89,813.9469 C844.89,823.9469 891.0008,823.9469 891.0008,823.9469 C891.0008,823.9469 937.1117,823.9469 937.1117,813.9469" fill="none" style="stroke:#181818;stroke-width:0.5;"/><text fill="#000000" font-family="sans-serif" font-size="14" lengthAdjust="spacing" textLength="72.2217" x="854.89" y="840.942">Redis 5GB</text></g><!--entity s3p_us--><g class="entity" data-qualified-name="us_region.Data.s3p_us" data-source-line="33" id="ent0016"><rect fill="#3F8624" height="36.2969" rx="35" ry="35" style="stroke:#181818;stroke-width:0.5;" width="89.4736" x="534.26" y="808.4469"/><text fill="#000000" font-family="sans-serif" font-size="14" lengthAdjust="spacing" textLength="69.4736" x="544.26" y="831.442">S3 Photos</text></g><!--entity s3a_us--><g class="entity" data-qualified-name="us_region.Data.s3a_us" data-source-line="34" id="ent0017"><rect fill="#3F8624" height="36.2969" rx="35" ry="35" style="stroke:#181818;stroke-width:0.5;" width="87.8057" x="411.1" y="808.4469"/><text fill="#000000" font-family="sans-serif" font-size="14" lengthAdjust="spacing" textLength="67.8057" x="421.1" y="831.442">S3 Assets</text></g><!--entity alb_cn--><g class="entity" data-qualified-name="cn_region.alb_cn" data-source-line="42" id="ent0021"><rect fill="#ED7100" height="36.2969" rx="2.5" ry="2.5" style="stroke:#181818;stroke-width:0.5;" width="46.9814" x="1725.51" y="644.9069"/><text fill="#000000" font-family="sans-serif" font-size="14" lengthAdjust="spacing" textLength="26.9814" x="1735.51" y="667.902">ALB</text></g><!--entity ses_cn--><g class="entity" data-qualified-name="cn_region.ses_cn" data-source-line="57" id="ent0031"><rect fill="#FF4F8B" height="36.2969" rx="2.5" ry="2.5" style="stroke:#181818;stroke-width:0.5;" width="46.6191" x="1918.69" y="1040.3369"/><text fill="#000000" font-family="sans-serif" font-size="14" lengthAdjust="spacing" textLength="26.6191" x="1928.69" y="1063.332">SES</text></g><!--entity cw_cn--><g class="entity" data-qualified-name="cn_region.cw_cn" data-source-line="58" id="ent0032"><rect fill="#FF4F8B" height="36.2969" rx="2.5" ry="2.5" style="stroke:#181818;stroke-width:0.5;" width="104.4717" x="1585.76" y="644.9069"/><text fill="#000000" font-family="sans-serif" font-size="14" lengthAdjust="spacing" textLength="84.4717" x="1595.76" y="667.902">CloudWatch</text></g><!--entity ecs_cn--><g class="entity" data-qualified-name="cn_region.Compute .ecs_cn" data-source-line="45" id="ent0023"><rect fill="#FF9900" height="52.5938" rx="2.5" ry="2.5" style="stroke:#181818;stroke-width:0.5;" width="193.5439" x="1693.23" y="800.2969"/><text fill="#000000" font-family="sans-serif" font-size="14" lengthAdjust="spacing" textLength="96.8994" x="1741.5523" y="823.292">ECS: Monolith</text><text fill="#000000" font-family="sans-serif" font-size="14" lengthAdjust="spacing" textLength="173.5439" x="1703.23" y="839.5889">(same image, CN config)</text></g><!--entity sqs_cn--><g class="entity" data-qualified-name="cn_region.Compute .sqs_cn" data-source-line="46" id="ent0024"><path d="M1614.6,813.4469 L1653.393,813.4469 C1658.393,813.4469 1658.393,826.5953 1658.393,826.5953 C1658.393,826.5953 1658.393,839.7438 1653.393,839.7438 L1614.6,839.7438 C1609.6,839.7438 1609.6,826.5953 1609.6,826.5953 C1609.6,826.5953 1609.6,813.4469 1614.6,813.4469" fill="#FF4F8B" style="stroke:#181818;stroke-width:0.5;"/><path d="M1653.393,813.4469 C1648.393,813.4469 1648.393,826.5953 1648.393,826.5953 C1648.393,839.7438 1653.393,839.7438 1653.393,839.7438" fill="none" style="stroke:#181818;stroke-width:0.5;"/><text fill="#000000" font-family="sans-serif" font-size="14" lengthAdjust="spacing" textLength="28.793" x="1614.6" y="831.442">SQS</text></g><!--entity ar_cn--><g class="entity" data-qualified-name="cn_region.Compute .ar_cn" data-source-line="47" id="ent0025"><rect fill="#FF9900" height="36.2969" rx="2.5" ry="2.5" style="stroke:#181818;stroke-width:0.5;" width="186.7627" x="1609.62" y="1040.3369"/><text fill="#000000" font-family="sans-serif" font-size="14" lengthAdjust="spacing" textLength="166.7627" x="1619.62" y="1063.332">Lambda: AI Recognition</text></g><!--entity db_cn--><g class="entity" data-qualified-name="cn_region.Data .db_cn" data-source-line="51" id="ent0027"><path d="M2247.88,1029.5469 C2247.88,1019.5469 2324.004,1019.5469 2324.004,1019.5469 C2324.004,1019.5469 2400.128,1019.5469 2400.128,1029.5469 L2400.128,1087.4375 C2400.128,1097.4375 2324.004,1097.4375 2324.004,1097.4375 C2324.004,1097.4375 2247.88,1097.4375 2247.88,1087.4375 L2247.88,1029.5469" fill="#3B48CC" style="stroke:#181818;stroke-width:0.5;"/><path d="M2247.88,1029.5469 C2247.88,1039.5469 2324.004,1039.5469 2324.004,1039.5469 C2324.004,1039.5469 2400.128,1039.5469 2400.128,1029.5469" fill="none" style="stroke:#181818;stroke-width:0.5;"/><text fill="#000000" font-family="sans-serif" font-size="14" lengthAdjust="spacing" textLength="80.7529" x="2283.6276" y="1056.542">PostgreSQL</text><text fill="#000000" font-family="sans-serif" font-size="14" lengthAdjust="spacing" textLength="58.4404" x="2294.7838" y="1072.8389">Multi-AZ</text><text fill="#000000" font-family="sans-serif" font-size="14" lengthAdjust="spacing" textLength="132.248" x="2257.88" y="1089.1357">Primary (CN users)</text></g><!--entity cache_cn--><g class="entity" data-qualified-name="cn_region.Data .cache_cn" data-source-line="52" id="ent0028"><path d="M2434.89,1045.8369 C2434.89,1035.8369 2481.0008,1035.8369 2481.0008,1035.8369 C2481.0008,1035.8369 2527.1117,1035.8369 2527.1117,1045.8369 L2527.1117,1071.1338 C2527.1117,1081.1338 2481.0008,1081.1338 2481.0008,1081.1338 C2481.0008,1081.1338 2434.89,1081.1338 2434.89,1071.1338 L2434.89,1045.8369" fill="#3B48CC" style="stroke:#181818;stroke-width:0.5;"/><path d="M2434.89,1045.8369 C2434.89,1055.8369 2481.0008,1055.8369 2481.0008,1055.8369 C2481.0008,1055.8369 2527.1117,1055.8369 2527.1117,1045.8369" fill="none" style="stroke:#181818;stroke-width:0.5;"/><text fill="#000000" font-family="sans-serif" font-size="14" lengthAdjust="spacing" textLength="72.2217" x="2444.89" y="1072.832">Redis 5GB</text></g><!--entity s3p_cn--><g class="entity" data-qualified-name="cn_region.Data .s3p_cn" data-source-line="53" id="ent0029"><rect fill="#3F8624" height="36.2969" rx="35" ry="35" style="stroke:#181818;stroke-width:0.5;" width="89.4736" x="2123.26" y="1040.3369"/><text fill="#000000" font-family="sans-serif" font-size="14" lengthAdjust="spacing" textLength="69.4736" x="2133.26" y="1063.332">S3 Photos</text></g><!--entity s3a_cn--><g class="entity" data-qualified-name="cn_region.Data .s3a_cn" data-source-line="54" id="ent0030"><rect fill="#3F8624" height="36.2969" rx="35" ry="35" style="stroke:#181818;stroke-width:0.5;" width="87.8057" x="2000.1" y="1040.3369"/><text fill="#000000" font-family="sans-serif" font-size="14" lengthAdjust="spacing" textLength="67.8057" x="2010.1" y="1063.332">S3 Assets</text></g><!--entity gv--><g class="entity" data-qualified-name="AI Services.gv" data-source-line="64" id="ent0035"><rect fill="#4285F4" height="36.2969" rx="2.5" ry="2.5" style="stroke:#181818;stroke-width:0.5;" width="142.5068" x="299.75" y="1244.5769"/><text fill="#000000" font-family="sans-serif" font-size="14" lengthAdjust="spacing" textLength="122.5068" x="309.75" y="1267.572">Google Vision API</text></g><!--entity openai--><g class="entity" data-qualified-name="AI Services.openai" data-source-line="65" id="ent0036"><rect fill="#00A67E" height="52.5938" rx="2.5" ry="2.5" style="stroke:#181818;stroke-width:0.5;" width="126.9277" x="137.54" y="1236.4369"/><text fill="#000000" font-family="sans-serif" font-size="14" lengthAdjust="spacing" textLength="106.9277" x="147.54" y="1259.432">OpenAI GPT-4V</text><text fill="#000000" font-family="sans-serif" font-size="14" lengthAdjust="spacing" textLength="64.1211" x="168.9433" y="1275.7289">(US only)</text></g><!--entity gemini--><g class="entity" data-qualified-name="AI Services.gemini" data-source-line="66" id="ent0037"><rect fill="#4285F4" height="52.5938" rx="2.5" ry="2.5" style="stroke:#181818;stroke-width:0.5;" width="123.5713" x="477.21" y="1236.4369"/><text fill="#000000" font-family="sans-serif" font-size="14" lengthAdjust="spacing" textLength="103.5713" x="487.21" y="1259.432">Google Gemini</text><text fill="#000000" font-family="sans-serif" font-size="14" lengthAdjust="spacing" textLength="90.1797" x="493.9058" y="1275.7289">(CN fallback)</text></g><!--entity stripe--><g class="entity" data-qualified-name="3rd Party.stripe" data-source-line="70" id="ent0039"><rect fill="#635BFF" height="36.2969" rx="2.5" ry="2.5" style="stroke:#181818;stroke-width:0.5;" width="61.5215" x="1189.24" y="808.4469"/><text fill="#000000" font-family="sans-serif" font-size="14" lengthAdjust="spacing" textLength="41.5215" x="1199.24" y="831.442">Stripe</text></g><!--entity maps--><g class="entity" data-qualified-name="3rd Party.maps" data-source-line="71" id="ent0040"><rect fill="#4285F4" height="36.2969" rx="2.5" ry="2.5" style="stroke:#181818;stroke-width:0.5;" width="137.2568" x="1017.37" y="808.4469"/><text fill="#000000" font-family="sans-serif" font-size="14" lengthAdjust="spacing" textLength="117.2568" x="1027.37" y="831.442">Google Maps API</text></g><!--entity us_users--><g class="entity" data-qualified-name="us_users" data-source-line="14" id="ent0002"><ellipse cx="1216.9955" cy="51.2969" fill="#F1F1F1" rx="8" ry="8" style="stroke:#181818;stroke-width:0.5;"/><path d="M1216.9955,59.2969 L1216.9955,86.2969 M1203.9955,67.2969 L1229.9955,67.2969 M1216.9955,86.2969 L1203.9955,101.2969 M1216.9955,86.2969 L1229.9955,101.2969" fill="none" style="stroke:#181818;stroke-width:0.5;"/><text fill="#000000" font-family="sans-serif" font-size="14" lengthAdjust="spacing" textLength="62.7881" x="1185.6015" y="115.792">US Users</text><text fill="#000000" font-family="sans-serif" font-size="14" lengthAdjust="spacing" textLength="93.8711" x="1170.06" y="132.0889">(iOS/Android)</text></g><!--entity cn_users--><g class="entity" data-qualified-name="cn_users" data-source-line="15" id="ent0003"><ellipse cx="1345.9955" cy="51.2969" fill="#F1F1F1" rx="8" ry="8" style="stroke:#181818;stroke-width:0.5;"/><path d="M1345.9955,59.2969 L1345.9955,86.2969 M1332.9955,67.2969 L1358.9955,67.2969 M1345.9955,86.2969 L1332.9955,101.2969 M1345.9955,86.2969 L1358.9955,101.2969" fill="none" style="stroke:#181818;stroke-width:0.5;"/><text fill="#000000" font-family="sans-serif" font-size="14" lengthAdjust="spacing" textLength="83.6445" x="1304.1733" y="115.792">China Users</text><text fill="#000000" font-family="sans-serif" font-size="14" lengthAdjust="spacing" textLength="93.8711" x="1299.06" y="132.0889">(iOS/Android)</text></g><!--entity dns--><g class="entity" data-qualified-name="dns" data-source-line="17" id="ent0004"><path d="M1197.0472,205.8844 C1200.0226,200.3946 1204.5349,200.7393 1207.8629,205.5129 C1212.0836,199.3585 1217.8714,200.2304 1221.4601,206.2205 C1223.6257,201.2046 1228.7801,199.8011 1232.5695,204.3307 C1236.2995,199.339 1241.3898,198.0227 1244.7027,204.7621 C1248.8984,198.934 1253.7104,198.49 1257.5602,205.1191 C1259.8298,199.1963 1265.1732,198.7963 1269.0804,203.3117 C1273.5421,197.2034 1278.692,196.7803 1282.8424,203.6419 C1287.45,198.298 1291.7653,198.3922 1295.4802,204.6171 C1298.7543,198.8265 1304.0764,199.2866 1306.9553,205.0109 C1310.3516,198.4148 1316.394,198.6414 1319.2981,205.4638 C1323.455,200.1324 1328.3087,199.6529 1332.2267,205.7344 C1334.3277,199.6625 1339.028,199.3775 1342.5907,204.3645 C1345.8631,198.717 1351.7127,198.4652 1355.0514,204.2926 C1359.6983,198.7372 1365.5296,200.1435 1368.0956,206.5599 C1375.4321,207.7435 1376.7708,211.9687 1372.5905,217.7701 C1378.2133,219.112 1381.3319,223.1483 1377.0067,228.5612 C1381.4708,234.4997 1379.4919,239.8887 1371.7578,240.4347 C1377.0794,245.7981 1373.8747,251.455 1367.5524,252.8856 C1365.1342,259.5453 1360.2794,258.8861 1356.2282,254.5705 C1352.9356,260.993 1347.7625,260.7168 1343.4374,255.7279 C1340.3727,260.847 1335.1089,261.1762 1331.9868,255.7906 C1328.4699,263.2991 1323.5009,262.4826 1318.797,256.9953 C1315.7711,263.8474 1311.1941,264.5461 1306.0731,259.1763 C1302.6423,264.4352 1298.7741,265.7374 1294.1531,260.5321 C1291.8231,266.1357 1287.7553,267.5727 1283.3188,262.7133 C1278.6055,269.2594 1272.2725,267.9676 1269.1328,261.0547 C1264.0011,265.4912 1259.6929,265.6149 1257.0443,258.4642 C1253.2901,263.9097 1249.6273,264.6199 1245.5154,258.8312 C1240.5461,263.7304 1236.4547,264.0895 1232.7205,257.4604 C1228.2339,262.5942 1222.8758,261.9969 1220.6538,255.1748 C1214.9865,261.2995 1211.248,259.0487 1207.9263,252.7682 C1204.0422,257.2697 1198.6633,257.5202 1196.3207,251.1262 C1190.6433,247.9031 1190.5633,243.9204 1195.2585,239.7305 C1188.5444,237.9147 1187.8072,232.2593 1192.6368,227.888 C1187.0925,223.3266 1188.9181,218.1547 1195.3137,216.3677 C1190.0517,212.4814 1190.8638,207.8782 1197.0472,205.8844" fill="#F1F1F1" style="stroke:#181818;stroke-width:0.5;"/><text fill="#000000" font-family="sans-serif" font-size="14" lengthAdjust="spacing" textLength="63.5332" x="1249.2292" y="224.382">Route 53</text><text fill="#000000" font-family="sans-serif" font-size="14" lengthAdjust="spacing" textLength="157.4316" x="1202.28" y="240.6789">Latency-based routing</text></g><!--entity cdn_us--><g class="entity" data-qualified-name="cdn_us" data-source-line="18" id="ent0005"><path d="M1123.0569,345.7884 C1126.3049,339.2585 1131.5125,339.1749 1135.6397,344.8847 C1140.3752,339.5668 1144.4383,339.7225 1148.6844,345.4621 C1153.0198,339.3825 1158.2926,338.9553 1162.8368,345.2228 C1166.9188,339.9192 1171.119,338.9159 1175.4772,344.9139 C1179.0188,337.9389 1185.0619,338.0693 1189.4741,343.9672 C1193.345,337.4436 1197.5726,337.6906 1202.296,343.047 C1207.2837,337.7464 1212.081,336.7114 1216.2696,343.9382 C1221.1715,338.0883 1225.1841,338.6668 1229.1735,344.9118 C1232.696,340.3118 1238.0349,340.3868 1240.8985,345.6917 C1244.4007,337.7815 1251.5877,338.2863 1255.5002,345.29 C1260.4157,349.1046 1262.2407,352.7593 1255.9685,357.0206 C1262.5663,358.7077 1264.4906,363.8065 1258.9764,368.6314 C1262.9009,372.8698 1262.3412,376.2709 1257.5653,379.3655 C1263.2733,384.5071 1262.5419,388.4648 1255.5095,391.4367 C1252.9532,397.2755 1248.9532,398.4264 1244.0979,393.9901 C1240.1775,399.1902 1235.7244,398.9333 1232.1276,393.6216 C1229.0806,399.4536 1225.6219,398.8789 1221.3704,394.9488 C1218.926,399.7328 1215.7767,401.0731 1211.5446,396.9126 C1208.5797,403.8105 1204.858,405.325 1199.2035,399.5271 C1196.7083,404.5558 1191.8717,405.0806 1188.2948,400.7938 C1185.0402,404.7053 1181.2753,404.1422 1178.8084,399.8796 C1174.1441,404.7758 1168.9459,403.2548 1167.9535,396.468 C1164.6147,400.7196 1160.4547,401.6977 1157.2364,396.3336 C1152.076,401.4644 1147.5306,401.1348 1144.8665,393.8471 C1141.4917,398.4232 1137.0805,397.2945 1134.6216,392.8112 C1130.7828,397.9292 1125.9726,396.7106 1124.2576,390.813 C1119.412,388.688 1117.3077,385.5297 1121.5455,380.9156 C1114.8419,378.7443 1112.5516,373.6659 1118.0571,368.1566 C1113.1734,363.4198 1113.5994,358.8786 1120.5647,356.7457 C1115.9317,352.6226 1117.0209,347.485 1123.0569,345.7884" fill="#F1F1F1" style="stroke:#181818;stroke-width:0.5;"/><text fill="#000000" font-family="sans-serif" font-size="14" lengthAdjust="spacing" textLength="112.2051" x="1131.8926" y="363.972">CloudFront CDN</text><text fill="#000000" font-family="sans-serif" font-size="14" lengthAdjust="spacing" textLength="117.5303" x="1129.23" y="380.2689">US edge caching</text></g><!--entity cdn_cn--><g class="entity" data-qualified-name="cdn_cn" data-source-line="19" id="ent0006"><path d="M1631.5987,468.4886 C1635.3327,462.1246 1640.2781,461.7605 1644.2889,468.2147 C1647.3708,461.5688 1653.2752,461.1949 1657.7841,466.6193 C1661.6098,461.3956 1666.2849,460.3945 1669.9115,466.8265 C1673.7196,459.8886 1678.4965,458.5439 1683.5214,465.6471 C1686.1835,460.0125 1691.3815,458.2453 1695.8293,463.6575 C1698.4652,457.3457 1703.5769,456.8784 1707.2362,462.695 C1711.9312,455.8568 1717.1126,456.1149 1721.0367,463.4459 C1725.1502,458.1203 1730.4938,459.882 1733.0767,465.1804 C1737.8148,459.8974 1742.8816,460.8086 1746.3546,466.6855 C1750.0678,459.7047 1754.9565,460.3304 1759.2444,466.1048 C1763.868,460.2172 1768.0353,461.3367 1771.4793,467.3205 C1776.0001,462.4789 1780.4494,461.5301 1784.1243,468.246 C1791.563,471.4219 1795.0038,479.1675 1786.6625,484.7677 C1794.0271,487.8655 1794.7576,495.124 1788.4384,499.8347 C1795.6703,506.73 1792.78,511.1407 1785.4125,515.1519 C1791.7458,521.2315 1791.7936,527.7522 1783.5174,532.2086 C1780.4526,538.5541 1775.3707,537.6014 1771.8232,532.711 C1767.1465,539.3802 1761.9301,538.9229 1758.3083,531.6857 C1755.5799,537.2188 1750.2225,537.4798 1746.5851,532.7213 C1742.6827,538.9256 1737.1567,538.844 1733.8988,532.0903 C1729.3878,538.7527 1725.0115,539.6931 1719.7281,532.904 C1715.9303,537.8959 1711.9635,536.9798 1708.979,532.0251 C1705.4948,538.6431 1699.0334,540.1723 1694.4283,533.2275 C1690.8756,537.3359 1686.5857,538.0445 1683.7064,532.481 C1679.2158,537.6568 1675.1003,538.1395 1671.0652,531.9734 C1667.948,538.415 1661.6379,537.9237 1658.2067,532.3082 C1653.4157,539.0948 1649.1454,537.3053 1645.2124,531.4279 C1641.7807,537.68 1635.0022,538.2238 1631.374,531.6397 C1623.5489,527.1296 1624.1687,519.9696 1631.1454,515.2531 C1623.0777,513.0075 1623.5291,505.8019 1628.6443,501.2086 C1620.5131,495.1352 1621.9829,487.8132 1630.4474,483.4221 C1623.2162,478.7291 1624.7627,472.0971 1631.5987,468.4886" fill="#F1F1F1" style="stroke:#181818;stroke-width:0.5;"/><text fill="#000000" font-family="sans-serif" font-size="14" lengthAdjust="spacing" textLength="112.2051" x="1650.9008" y="487.572">CloudFront CDN</text><text fill="#000000" font-family="sans-serif" font-size="14" lengthAdjust="spacing" textLength="138.3867" x="1637.81" y="503.8689">China edge caching</text><text fill="#000000" font-family="sans-serif" font-size="14" lengthAdjust="spacing" textLength="111.7949" x="1651.1059" y="520.1657">(via ICP license)</text></g><!--entity auth--><g class="entity" data-qualified-name="auth" data-source-line="61" id="ent0033"><rect fill="#DD344C" height="52.5938" rx="2.5" ry="2.5" style="stroke:#181818;stroke-width:0.5;" width="130.9678" x="1423.52" y="800.2969"/><text fill="#000000" font-family="sans-serif" font-size="14" lengthAdjust="spacing" textLength="54.0449" x="1461.9814" y="823.292">Cognito</text><text fill="#000000" font-family="sans-serif" font-size="14" lengthAdjust="spacing" textLength="110.9678" x="1433.52" y="839.5889">OAuth 2.0/OIDC</text></g><!--entity slack--><g class="entity" data-qualified-name="slack" data-source-line="74" id="ent0041"><rect fill="#611F69" height="36.2969" rx="2.5" ry="2.5" style="stroke:#181818;stroke-width:0.5;" width="102.2295" x="1285.89" y="808.4469"/><text fill="#000000" font-family="sans-serif" font-size="14" lengthAdjust="spacing" textLength="82.2295" x="1295.89" y="831.442">Slack Alerts</text></g><!--link us_users to dns--><g class="link" data-entity-1="ent0002" data-entity-2="ent0004" data-link-type="dependency" data-source-line="77" id="lnk42"><path d="M1238.31,135.5769 C1247.62,155.4369 1255.743,172.7843 1264.093,190.5943" fill="none" id="us_users-to-dns" style="stroke:#181818;stroke-width:1;"/><polygon fill="#181818" points="1266.64,196.0269,1266.4412,186.18,1264.5175,191.4997,1259.1978,189.576,1266.64,196.0269" style="stroke:#181818;stroke-width:1;"/></g><!--link dns to cdn_us--><g class="link" data-entity-1="ent0004" data-entity-2="ent0005" data-link-type="dependency" data-source-line="78" id="lnk43"><path d="M1260.36,259.2169 C1244.95,282.0169 1227.3404,308.0762 1211.9404,330.8562" fill="none" id="dns-to-cdn_us" style="stroke:#181818;stroke-width:1;"/><polygon fill="#181818" points="1208.58,335.8269,1216.9343,330.611,1211.3803,331.6846,1210.3067,326.1306,1208.58,335.8269" style="stroke:#181818;stroke-width:1;"/><text fill="#000000" font-family="sans-serif" font-size="13" lengthAdjust="spacing" textLength="69.6528" x="1241" y="302.0438">US latency</text></g><!--link cdn_us to alb_us--><g class="link" data-entity-1="ent0005" data-entity-2="ent0008" data-link-type="dependency" data-source-line="79" id="lnk44"><path d="M1128.75,399.0269 C1075.47,426.6769 1005.2354,463.1227 967.1854,482.8727" fill="none" id="cdn_us-to-alb_us" style="stroke:#181818;stroke-width:1;"/><polygon fill="#181818" points="961.86,485.6369,971.6908,485.0409,966.2978,483.3334,968.0053,477.9404,961.86,485.6369" style="stroke:#181818;stroke-width:1;"/></g><!--link alb_us to ecs_us--><g class="link" data-entity-1="ent0008" data-entity-2="ent0010" data-link-type="dependency" data-source-line="80" id="lnk45"><path d="M923.7,517.3769 C916.48,525.0069 907.11,533.3769 897,538.4669 C698.53,638.3169 437.658,658.2922 303.868,661.7422" fill="none" id="alb_us-to-ecs_us" style="stroke:#181818;stroke-width:1;"/><polygon fill="#181818" points="297.87,661.8969,306.9701,665.6635,302.8683,661.768,306.7639,657.6662,297.87,661.8969" style="stroke:#181818;stroke-width:1;"/></g><!--link ecs_us to db_us--><g class="link" data-entity-1="ent0010" data-entity-2="ent0014" data-link-type="dependency" data-source-line="81" id="lnk46"><path d="M297.6,704.3369 C299.07,704.7969 300.54,705.2369 302,705.6569 C447.84,747.2769 502.24,683.4569 641,744.6569 C663.13,754.4169 679.5461,767.1361 695.7861,782.9861" fill="none" id="ecs_us-to-db_us" style="stroke:#181818;stroke-width:1;"/><polygon fill="#181818" points="700.08,787.1769,696.433,778.0281,696.5018,783.6846,690.8453,783.7533,700.08,787.1769" style="stroke:#181818;stroke-width:1;"/></g><!--link ecs_us to cache_us--><g class="link" data-entity-1="ent0010" data-entity-2="ent0015" data-link-type="dependency" data-source-line="82" id="lnk47"><path d="M297.58,704.4069 C299.06,704.8469 300.53,705.2569 302,705.6569 C469.15,750.2269 517.42,724.7169 690,736.6569 C705.21,737.7069 813.48,737.6069 827,744.6569 C851.63,757.4769 867.0135,779.1868 877.5935,798.4668" fill="none" id="ecs_us-to-cache_us" style="stroke:#181818;stroke-width:1;"/><polygon fill="#181818" points="880.48,803.7269,879.657,793.9125,878.0746,799.3435,872.6436,797.7611,880.48,803.7269" style="stroke:#181818;stroke-width:1;"/></g><!--link ecs_us to s3p_us--><g class="link" data-entity-1="ent0010" data-entity-2="ent0016" data-link-type="dependency" data-source-line="83" id="lnk48"><path d="M297.64,704.2069 C299.1,704.7069 300.55,705.1869 302,705.6569 C394.04,735.2269 433.32,694.5469 516,744.6569 C541.13,759.8769 557.1716,783.8369 567.4316,802.6869" fill="none" id="ecs_us-to-s3p_us" style="stroke:#181818;stroke-width:1;"/><polygon fill="#181818" points="570.3,807.9569,569.5107,798.1397,567.9097,803.5653,562.4841,801.9642,570.3,807.9569" style="stroke:#181818;stroke-width:1;"/></g><!--link s3p_us to sqs_us--><g class="link" data-entity-1="ent0016" data-entity-2="ent0011" data-link-type="dependency" data-source-line="84" id="lnk49"><path d="M570.9,808.2469 C560.93,789.0669 542.06,758.9869 516,744.6569 C476.58,722.9669 153.73,724.7569 113,705.6569 C99.25,699.2069 91.0473,691.0401 83.4673,681.3101" fill="none" id="s3p_us-to-sqs_us" style="stroke:#181818;stroke-width:1;"/><polygon fill="#181818" points="79.78,676.5769,82.1555,686.135,82.8528,680.5212,88.4665,681.2185,79.78,676.5769" style="stroke:#181818;stroke-width:1;"/></g><!--link sqs_us to ar_us--><g class="link" data-entity-1="ent0011" data-entity-2="ent0012" data-link-type="dependency" data-source-line="85" id="lnk50"><path d="M80.99,676.4669 C103.93,704.9869 156.7278,770.5929 183.1778,803.4529" fill="none" id="sqs_us-to-ar_us" style="stroke:#181818;stroke-width:1;"/><polygon fill="#181818" points="186.94,808.1269,184.4127,798.6078,183.8048,804.2319,178.1807,803.6241,186.94,808.1269" style="stroke:#181818;stroke-width:1;"/></g><!--link ar_us to gv--><g class="link" data-entity-1="ent0012" data-entity-2="ent0035" data-link-type="dependency" data-source-line="86" id="lnk51"><path d="M207.87,845.1569 C235.33,915.2669 334.7618,1169.1901 362.0418,1238.8401" fill="none" id="ar_us-to-gv" style="stroke:#181818;stroke-width:1;"/><polygon fill="#181818" points="364.23,1244.4269,364.6722,1234.588,362.4065,1239.7712,357.2232,1237.5055,364.23,1244.4269" style="stroke:#181818;stroke-width:1;"/></g><!--link ar_us to openai--><g class="link" data-entity-1="ent0012" data-entity-2="ent0036" data-link-type="dependency" data-source-line="87" id="lnk52"><path d="M201,845.1569 C201,912.7269 201,1150.2369 201,1230.1369" fill="none" id="ar_us-to-openai" style="stroke:#181818;stroke-width:1;"/><polygon fill="#181818" points="201,1236.1369,205,1227.1369,201,1231.1369,197,1227.1369,201,1236.1369" style="stroke:#181818;stroke-width:1;"/></g><!--link ar_us to gemini--><g class="link" data-entity-1="ent0012" data-entity-2="ent0037" data-link-type="dependency" data-source-line="88" id="lnk53"><path d="M214.73,844.9969 C236.62,872.7669 280.78,928.8369 318,976.5469 C392.56,1072.1069 477.0042,1181.3869 515.5842,1231.3769" fill="none" id="ar_us-to-gemini" style="stroke:#181818;stroke-width:1;"/><polygon fill="#181818" points="519.25,1236.1269,516.9179,1226.5581,516.1952,1232.1686,510.5847,1231.4458,519.25,1236.1269" style="stroke:#181818;stroke-width:1;"/></g><!--link ecs_us to ses_us--><g class="link" data-entity-1="ent0010" data-entity-2="ent0018" data-link-type="dependency" data-source-line="89" id="lnk54"><path d="M275.09,706.1469 C288.99,717.5669 302.91,730.6769 314,744.6569 C329.51,764.2069 338.8083,785.3022 345.1383,802.6022" fill="none" id="ecs_us-to-ses_us" style="stroke:#181818;stroke-width:1;"/><polygon fill="#181818" points="347.2,808.2369,347.8639,798.4104,345.4819,803.5413,340.351,801.1594,347.2,808.2369" style="stroke:#181818;stroke-width:1;"/></g><!--link ecs_us to stripe--><g class="link" data-entity-1="ent0010" data-entity-2="ent0039" data-link-type="dependency" data-source-line="90" id="lnk55"><path d="M297.57,704.4469 C299.05,704.8669 300.53,705.2769 302,705.6569 C408.95,733.1869 687.66,732.0269 798,736.6569 C818.76,737.5269 1154.05,734.1769 1172,744.6569 C1195.56,758.4069 1206.9383,782.9663 1213.2983,802.3363" fill="none" id="ecs_us-to-stripe" style="stroke:#181818;stroke-width:1;"/><polygon fill="#181818" points="1215.17,808.0369,1216.1628,798.2382,1213.6102,803.2864,1208.562,800.7338,1215.17,808.0369" style="stroke:#181818;stroke-width:1;"/></g><!--link ecs_us to maps--><g class="link" data-entity-1="ent0010" data-entity-2="ent0040" data-link-type="dependency" data-source-line="91" id="lnk56"><path d="M297.57,704.4269 C299.05,704.8569 300.53,705.2669 302,705.6569 C398.56,730.8569 650.35,731.2469 750,736.6569 C795.08,739.0969 909.78,731.6069 953,744.6569 C996.48,757.7669 1035.4554,784.8158 1060.3554,804.4158" fill="none" id="ecs_us-to-maps" style="stroke:#181818;stroke-width:1;"/><polygon fill="#181818" points="1065.07,808.1269,1060.4721,799.4171,1061.1411,805.0343,1055.524,805.7033,1065.07,808.1269" style="stroke:#181818;stroke-width:1;"/></g><!--link cw_us to slack--><g class="link" data-entity-1="ent0019" data-entity-2="ent0041" data-link-type="dependency" data-source-line="92" id="lnk57"><path d="M839.35,517.4069 C873.24,563.4769 973.07,688.4369 1091,736.6569 C1127.24,751.4669 1231.77,727.5669 1267,744.6569 C1294.92,758.1969 1313.1609,783.3435 1324.5809,802.7835" fill="none" id="cw_us-to-slack" style="stroke:#181818;stroke-width:1;"/><polygon fill="#181818" points="1327.62,807.9569,1326.5103,798.1707,1325.0874,803.6457,1319.6124,802.2229,1327.62,807.9569" style="stroke:#181818;stroke-width:1;"/></g><!--link cn_users to dns--><g class="link" data-entity-1="ent0003" data-entity-2="ent0004" data-link-type="dependency" data-source-line="95" id="lnk58"><path d="M1324.36,135.5769 C1314.9,155.4369 1306.6369,172.7984 1298.1669,190.6084" fill="none" id="cn_users-to-dns" style="stroke:#181818;stroke-width:1;"/><polygon fill="#181818" points="1295.59,196.0269,1303.0676,189.6171,1297.7374,191.5115,1295.843,186.1813,1295.59,196.0269" style="stroke:#181818;stroke-width:1;"/></g><!--link dns to cdn_cn--><g class="link" data-entity-1="ent0004" data-entity-2="ent0006" data-link-type="dependency" data-source-line="96" id="lnk59"><path d="M1329.45,259.3169 C1407.31,308.5369 1555.0788,401.9602 1640.4788,455.9602" fill="none" id="dns-to-cdn_cn" style="stroke:#181818;stroke-width:1;"/><polygon fill="#181818" points="1645.55,459.1669,1640.0809,450.9761,1641.324,456.4947,1635.8054,457.7377,1645.55,459.1669" style="stroke:#181818;stroke-width:1;"/><text fill="#000000" font-family="sans-serif" font-size="13" lengthAdjust="spacing" textLength="70.6875" x="1549" y="371.8438">CN latency</text></g><!--link cdn_cn to alb_cn--><g class="link" data-entity-1="ent0006" data-entity-2="ent0021" data-link-type="dependency" data-source-line="97" id="lnk60"><path d="M1717.06,538.8269 C1725.75,572.3469 1736.3938,613.429 1742.9238,638.609" fill="none" id="cdn_cn-to-alb_cn" style="stroke:#181818;stroke-width:1;"/><polygon fill="#181818" points="1744.43,644.4169,1746.0427,634.7009,1743.1749,639.577,1738.2988,636.7092,1744.43,644.4169" style="stroke:#181818;stroke-width:1;"/></g><!--link alb_cn to ecs_cn--><g class="link" data-entity-1="ent0021" data-entity-2="ent0023" data-link-type="dependency" data-source-line="98" id="lnk61"><path d="M1753.47,681.6569 C1760.73,710.2769 1773.6653,761.2109 1782.0453,794.2609" fill="none" id="alb_cn-to-ecs_cn" style="stroke:#181818;stroke-width:1;"/><polygon fill="#181818" points="1783.52,800.0769,1785.1853,790.3698,1782.2911,795.2302,1777.4307,792.336,1783.52,800.0769" style="stroke:#181818;stroke-width:1;"/></g><!--link ecs_cn to db_cn--><g class="link" data-entity-1="ent0023" data-entity-2="ent0027" data-link-type="dependency" data-source-line="99" id="lnk62"><path d="M1886.88,847.8269 C1979.57,869.9869 2120.99,911.3369 2230,976.5469 C2249.78,988.3669 2264.998,1000.4234 2281.198,1015.1334" fill="none" id="ecs_cn-to-db_cn" style="stroke:#181818;stroke-width:1;"/><polygon fill="#181818" points="2285.64,1019.1669,2281.666,1010.1554,2281.9383,1015.8057,2276.288,1016.078,2285.64,1019.1669" style="stroke:#181818;stroke-width:1;"/></g><!--link ecs_cn to cache_cn--><g class="link" data-entity-1="ent0023" data-entity-2="ent0028" data-link-type="dependency" data-source-line="100" id="lnk63"><path d="M1887.05,830.9069 C2017.48,839.5069 2252.09,869.9269 2418,976.5469 C2440.77,991.1769 2455.6857,1011.7848 2466.5057,1030.3248" fill="none" id="ecs_cn-to-cache_cn" style="stroke:#181818;stroke-width:1;"/><polygon fill="#181818" points="2469.53,1035.5069,2468.4483,1025.7176,2467.0098,1031.1885,2461.5389,1029.75,2469.53,1035.5069" style="stroke:#181818;stroke-width:1;"/></g><!--link ecs_cn to s3p_cn--><g class="link" data-entity-1="ent0023" data-entity-2="ent0029" data-link-type="dependency" data-source-line="101" id="lnk64"><path d="M1887.19,850.4669 C1939.12,865.5169 2002.55,888.6169 2053,921.5469 C2101.41,953.1369 2137.3522,1005.9845 2154.8822,1034.9345" fill="none" id="ecs_cn-to-s3p_cn" style="stroke:#181818;stroke-width:1;"/><polygon fill="#181818" points="2157.99,1040.0669,2156.7499,1030.2964,2155.4002,1035.7899,2149.9067,1034.4401,2157.99,1040.0669" style="stroke:#181818;stroke-width:1;"/></g><!--link s3p_cn to sqs_cn--><g class="link" data-entity-1="ent0029" data-entity-2="ent0024" data-link-type="dependency" data-source-line="102" id="lnk65"><path d="M2159.62,1039.9669 C2149.52,1020.9269 2130.64,991.2569 2105,976.5469 C2081.67,963.1569 2071.64,972.3069 2045,968.5469 C1880.82,945.3669 1809.77,1011.5069 1676,913.5469 C1651.48,895.5869 1641.8416,865.2462 1637.6116,846.0562" fill="none" id="s3p_cn-to-sqs_cn" style="stroke:#181818;stroke-width:1;"/><polygon fill="#181818" points="1636.32,840.1969,1634.3511,849.8469,1637.3963,845.0797,1642.1636,848.1248,1636.32,840.1969" style="stroke:#181818;stroke-width:1;"/></g><!--link sqs_cn to ar_cn--><g class="link" data-entity-1="ent0024" data-entity-2="ent0025" data-link-type="dependency" data-source-line="103" id="lnk66"><path d="M1637.71,839.9569 C1649.21,878.2869 1682.5953,989.5101 1695.9953,1034.1601" fill="none" id="sqs_cn-to-ar_cn" style="stroke:#181818;stroke-width:1;"/><polygon fill="#181818" points="1697.72,1039.9069,1698.9642,1030.1369,1696.2828,1035.1179,1691.3018,1032.4365,1697.72,1039.9069" style="stroke:#181818;stroke-width:1;"/></g><!--link ar_cn to gv--><g class="link" data-entity-1="ent0025" data-entity-2="ent0035" data-link-type="dependency" data-source-line="104" id="lnk67"><path d="M1609.48,1063.0369 C1357.5,1073.6269 669.3,1109.6069 460,1193.4369 C431.61,1204.7969 408.8767,1223.7393 392.2067,1239.9093" fill="none" id="ar_cn-to-gv" style="stroke:#181818;stroke-width:1;"/><polygon fill="#181818" points="387.9,1244.0869,397.1451,1240.6917,391.4889,1240.6056,391.5751,1234.9494,387.9,1244.0869" style="stroke:#181818;stroke-width:1;"/></g><!--link ar_cn to gemini--><g class="link" data-entity-1="ent0025" data-entity-2="ent0037" data-link-type="dependency" data-source-line="105" id="lnk68"><path d="M1609.22,1075.7769 C1379.44,1115.7069 798.9814,1216.5597 606.8814,1249.9397" fill="none" id="ar_cn-to-gemini" style="stroke:#181818;stroke-width:1;"/><polygon fill="#181818" points="600.97,1250.9669,610.5219,1253.367,605.8962,1250.1109,609.1523,1245.4851,600.97,1250.9669" style="stroke:#181818;stroke-width:1;"/><text fill="#000000" font-family="sans-serif" font-size="13" lengthAdjust="spacing" textLength="103.0479" x="1160.71" y="1166.5038">CN uses Gemini</text><text fill="#000000" font-family="sans-serif" font-size="13" lengthAdjust="spacing" textLength="112.4678" x="1156" y="1181.6366">(OpenAI blocked)</text></g><!--link ecs_cn to ses_cn--><g class="link" data-entity-1="ent0023" data-entity-2="ent0031" data-link-type="dependency" data-source-line="106" id="lnk69"><path d="M1812.09,853.3569 C1836.19,882.1869 1875.05,930.8569 1903,976.5469 C1915.78,997.4369 1925.1817,1017.634 1932.3817,1034.394" fill="none" id="ecs_cn-to-ses_cn" style="stroke:#181818;stroke-width:1;"/><polygon fill="#181818" points="1934.75,1039.9069,1934.8728,1030.0588,1932.7764,1035.3129,1927.5224,1033.2165,1934.75,1039.9069" style="stroke:#181818;stroke-width:1;"/></g><!--link cw_cn to slack--><g class="link" data-entity-1="ent0032" data-entity-2="ent0041" data-link-type="dependency" data-source-line="107" id="lnk70"><path d="M1585.54,673.9469 C1536,685.1169 1461.26,706.8769 1406,744.6569 C1381.15,761.6369 1363.29,784.8091 1351.18,803.0391" fill="none" id="cw_cn-to-slack" style="stroke:#181818;stroke-width:1;"/><polygon fill="#181818" points="1347.86,808.0369,1356.1718,802.7535,1350.6266,803.8721,1349.5081,798.3269,1347.86,808.0369" style="stroke:#181818;stroke-width:1;"/></g><!--link db_us to db_cn--><g class="link" data-entity-1="ent0014" data-entity-2="ent0027" data-link-type="dependency" data-source-line="110" id="lnk71"><path d="M763.72,865.8069 C780.2,883.8669 802.32,903.6069 827,913.5469 C848.24,922.0869 1216.13,920.6069 1239,921.5469 C1573.15,935.2369 1655.95,952.5269 1990,968.5469 C2016.65,969.8169 2205.14,966.8369 2230,976.5469 C2253.07,985.5469 2270.1102,998.5815 2286.5902,1014.8515" fill="none" id="db_us-to-db_cn" style="stroke:#E65100;stroke-width:1;stroke-dasharray:7,7;"/><polygon fill="#E65100" points="2290.86,1019.0669,2287.2656,1009.8973,2287.3019,1015.5541,2281.6451,1015.5904,2290.86,1019.0669" style="stroke:#E65100;stroke-width:1;"/><text fill="#000000" font-family="sans-serif" font-size="13" lengthAdjust="spacing" textLength="115.54" x="1997.6396" y="942.1138">Catalog sync only</text><text fill="#000000" font-family="sans-serif" font-size="13" lengthAdjust="spacing" textLength="128.8193" x="1991" y="957.2466">(non-personal data)</text></g><!--link s3p_us to s3p_cn--><g class="link" data-entity-1="ent0016" data-entity-2="ent0029" data-link-type="dependency" data-source-line="111" id="lnk72"><path d="M586.34,845.1369 C595.79,865.3169 614.24,897.6969 641,913.5469 C812.1,1014.8469 886.59,955.5169 1085,968.5469 C1099.14,969.4669 2092.3,970.2669 2105,976.5469 C2131.83,989.7869 2147.8999,1015.1337 2157.6199,1034.6937" fill="none" id="s3p_us-to-s3p_cn" style="stroke:#E65100;stroke-width:1;stroke-dasharray:7,7;"/><polygon fill="#E65100" points="2160.29,1040.0669,2159.867,1030.2271,2158.0649,1035.5893,2152.7028,1033.7872,2160.29,1040.0669" style="stroke:#E65100;stroke-width:1;"/><text fill="#000000" font-family="sans-serif" font-size="13" lengthAdjust="spacing" textLength="106.355" x="1107.252" y="934.6138">S3 Cross-Region</text><text fill="#000000" font-family="sans-serif" font-size="13" lengthAdjust="spacing" textLength="72.522" x="1124.1685" y="949.7466">Replication</text><text fill="#000000" font-family="sans-serif" font-size="13" lengthAdjust="spacing" textLength="148.8589" x="1086" y="964.8794">(landmark assets only)</text></g><!--link alb_cn to auth--><g class="link" data-entity-1="ent0021" data-entity-2="ent0033" data-link-type="dependency" data-source-line="112" id="lnk73"><path d="M1735.3,681.3169 C1727.95,689.6369 1718.3,699.1769 1708,705.6569 C1662.66,734.1469 1641.17,719.2969 1594,744.6569 C1565.82,759.7969 1541.8293,778.4333 1521.6293,795.8933" fill="none" id="alb_cn-to-auth" style="stroke:#181818;stroke-width:1;"/><polygon fill="#181818" points="1517.09,799.8169,1526.5147,796.9577,1520.8728,796.5472,1521.2833,790.9053,1517.09,799.8169" style="stroke:#181818;stroke-width:1;"/></g><!--link alb_us to auth--><g class="link" data-entity-1="ent0008" data-entity-2="ent0033" data-link-type="dependency" data-source-line="113" id="lnk74"><path d="M961.78,509.5169 C1033.01,538.5469 1249.38,631.1169 1406,744.6569 C1428.33,760.8369 1446.4439,778.4832 1462.2539,795.4832" fill="none" id="alb_us-to-auth" style="stroke:#181818;stroke-width:1;"/><polygon fill="#181818" points="1466.34,799.8769,1463.14,790.5624,1462.9349,796.2155,1457.2818,796.0105,1466.34,799.8769" style="stroke:#181818;stroke-width:1;"/></g><?plantuml-src bLRRRkCs47tdLn3sGnDqrNNYopfvAA38KXh06tkZx0PeNHIqHCj4P58XwMID8a0_eb_OB-cGb1J9kUpkGnnnUCYPENCuf6OwftXMQ2OuFZx57xUvPjuLpSpult_-nPzZ_3CEremJV71DfIGh8JTUIejSx6XwY92wPRmWacpmaYItcHHRdWOY5n8_h9ccZVb4R0h1ATUnte5JIHDDU9Ot8IbT4OZWcdxLViuolW4qJk27oWQgNed_HXYN7YMd4X_rq6C3M41497Emixtekj4uEebyCoDaIcLfdOJXSJY2NH19D1WwGC1dHQLQy0CsYz_xF9M2fOSTJ1JUgh-sPgx2EfvUXIUyXACa5ziKTwx4LbCyx2_ub6ZAavst98gc9YNDU6ONfLnLyC3yYwG0JeB9vO93Q3I5z1AIh2juaXedhwrm0JONGPptZE2BO8vp1amhUbZlat24dhZk-3T0HUo5Vdpj7U63kMGR8dSr4zA9fXkEes5uOZclAmwBfsSMIF8bn0UeoOUZNWy1g2fI9m0qyD6nIrkBmo06QGekSgRNaBSX4MGv9r9p-xdWLnJm89UK62bRqvpiZ7uCSYfs9DSx6m5Db8qWYavE80BZwcvBjn10_2cs27LN8GRH-6m_c2dPB5DoYlqBR9ncd1cFBZdPtlcnbT-4Q58b1s4IKslScGkbCqdZJzC5TwVF_nrYT-JY0wYnrOoZENNazSy6uo3Os-YAfapXuRdZsPINxeCLgDI64lVnV2sqK2xVVk6GqNXqF7Y6z9MYkaAIDj9cs20d3aiAwHw53OmLvGtHoTf5-j14FZwJN73fNSwkhd-x2PtkBa6rNncfZrIbkoYA-c7lBTqb_2tTuMyBxq2H3SLGcOo-WxW0oLSiEwnbbV1loSeXVbnMhPsVomh_iAuW-hQkZ8VlrjKU-0rTMUHtwQg5V4jNBGxVr5K32HisePPViU0pVwlN-FYNtllPnIHmR1jBTpBf3mO1GZNDK9UOodleaH3oAqtkN0WZsozC6KNwymkxONQFkuFZyJ0QjD6pWdBOzNn-xGs-WBZWg0kUbmrLm2HXkDlh-QCFuOjkpkc6SGOBePOhakVc_dMBCpjJUtrifD6NgUsRq0jVEJ6nbgoWZctxYRkZ_l0iYbuCuYCfL9tfnWmQNfkxvX01zdCggv9RGtTqTBGQdI3qatbfh7BnWAfB5NlUh_RsWp_xxQusV6gGkRilKMapq-vcGUK5OookqwEouTljbdk6gaqsRQuTeh8hMekz451vBrXdqlgIrJYxRmnSxPgpjXuj7tG_DCTrqsBOHAuxMe0Xp11bocs8gfuJBn85qZyro2PHOAk8Wgkzx8WLKM0fMrX9LDjGdVkcpPrlL1xpYYXZkQinjdSXry6UYAe6JgSsK4X5FKcwF1lBN2ItvfdPz6fR07B7kqsC54fvxZv0xghq_kY6eo5q_7SfKMkQ_bdbPfn2Yyj5XjME9_RaWLykk5S0fuAJtFR0mre7B-nKPdwAePivv-xbR9uZ1Jodx5i4Tiq9Jw7jteBkJSjpnxnP0DDpcieru_y1?></g></svg>