<?plantuml 1.2026.1?><svg xmlns="http://www.w3.org/2000/svg" xmlns:xlink="http://www.w3.org/1999/xlink" contentStyleType="text/css" data-diagram-type="GANTT" height="1078px" preserveAspectRatio="none" style="width:2063px;height:1078px;background:#FFFFFF;" version="1.1" viewBox="0 0 2063 1078" width="2063px" zoomAndPan="magnify"><title>Option 2: Validate + Monetize &#8212; ~8 months, 5 devs, US (RECOMMENDED)</title><defs/><g><g class="title" data-source-line="1"><text fill="#000000" font-family="sans-serif" font-size="14" font-weight="bold" lengthAdjust="spacing" textLength="582.0732" x="644.4634" y="22.9951">Option 2: Validate + Monetize &#8212; ~8 months, 5 devs, US (RECOMMENDED)</text></g><text fill="#000000" font-family="sans-serif" font-size="10" lengthAdjust="spacing" textLength="12.7246" x="13" y="62.5791">10</text><text fill="#000000" font-family="sans-serif" font-size="10" lengthAdjust="spacing" textLength="12.7246" x="69" y="62.5791">11</text><text fill="#000000" font-family="sans-serif" font-size="10" lengthAdjust="spacing" textLength="12.7246" x="125" y="62.5791">12</text><text fill="#000000" font-family="sans-serif" font-size="10" lengthAdjust="spacing" textLength="12.7246" x="181" y="62.5791">13</text><text fill="#000000" font-family="sans-serif" font-size="10" lengthAdjust="spacing" textLength="12.7246" x="237" y="62.5791">14</text><text fill="#000000" font-family="sans-serif" font-size="10" lengthAdjust="spacing" textLength="12.7246" x="293" y="62.5791">15</text><text fill="#000000" font-family="sans-serif" font-size="10" lengthAdjust="spacing" textLength="12.7246" x="349" y="62.5791">16</text><text fill="#000000" font-family="sans-serif" font-size="10" lengthAdjust="spacing" textLength="12.7246" x="405" y="62.5791">17</text><text fill="#000000" font-family="sans-serif" font-size="10" lengthAdjust="spacing" textLength="12.7246" x="461" y="62.5791">18</text><text fill="#000000" font-family="sans-serif" font-size="10" lengthAdjust="spacing" textLength="12.7246" x="517" y="62.5791">19</text><text fill="#000000" font-family="sans-serif" font-size="10" lengthAdjust="spacing" textLength="12.7246" x="573" y="62.5791">20</text><text fill="#000000" font-family="sans-serif" font-size="10" lengthAdjust="spacing" textLength="12.7246" x="629" y="62.5791">21</text><text fill="#000000" font-family="sans-serif" font-size="10" lengthAdjust="spacing" textLength="12.7246" x="685" y="62.5791">22</text><text fill="#000000" font-family="sans-serif" font-size="10" lengthAdjust="spacing" textLength="12.7246" x="741" y="62.5791">23</text><text fill="#000000" font-family="sans-serif" font-size="10" lengthAdjust="spacing" textLength="12.7246" x="797" y="62.5791">24</text><text fill="#000000" font-family="sans-serif" font-size="10" lengthAdjust="spacing" textLength="12.7246" x="853" y="62.5791">25</text><text fill="#000000" font-family="sans-serif" font-size="10" lengthAdjust="spacing" textLength="12.7246" x="909" y="62.5791">26</text><text fill="#000000" font-family="sans-serif" font-size="10" lengthAdjust="spacing" textLength="12.7246" x="965" y="62.5791">27</text><text fill="#000000" font-family="sans-serif" font-size="10" lengthAdjust="spacing" textLength="12.7246" x="1021" y="62.5791">28</text><text fill="#000000" font-family="sans-serif" font-size="10" lengthAdjust="spacing" textLength="12.7246" x="1077" y="62.5791">29</text><text fill="#000000" font-family="sans-serif" font-size="10" lengthAdjust="spacing" textLength="12.7246" x="1133" y="62.5791">30</text><text fill="#000000" font-family="sans-serif" font-size="10" lengthAdjust="spacing" textLength="12.7246" x="1189" y="62.5791">31</text><text fill="#000000" font-family="sans-serif" font-size="10" lengthAdjust="spacing" textLength="12.7246" x="1245" y="62.5791">32</text><text fill="#000000" font-family="sans-serif" font-size="10" lengthAdjust="spacing" textLength="12.7246" x="1301" y="62.5791">33</text><text fill="#000000" font-family="sans-serif" font-size="10" lengthAdjust="spacing" textLength="12.7246" x="1357" y="62.5791">34</text><text fill="#000000" font-family="sans-serif" font-size="10" lengthAdjust="spacing" textLength="12.7246" x="1413" y="62.5791">35</text><text fill="#000000" font-family="sans-serif" font-size="10" lengthAdjust="spacing" textLength="12.7246" x="1469" y="62.5791">36</text><text fill="#000000" font-family="sans-serif" font-size="10" lengthAdjust="spacing" textLength="12.7246" x="1525" y="62.5791">37</text><text fill="#000000" font-family="sans-serif" font-size="10" lengthAdjust="spacing" textLength="12.7246" x="1581" y="62.5791">38</text><text fill="#000000" font-family="sans-serif" font-size="10" lengthAdjust="spacing" textLength="12.7246" x="1637" y="62.5791">39</text><text fill="#000000" font-family="sans-serif" font-size="10" lengthAdjust="spacing" textLength="12.7246" x="1693" y="62.5791">40</text><text fill="#000000" font-family="sans-serif" font-size="10" lengthAdjust="spacing" textLength="12.7246" x="1749" y="62.5791">41</text><text fill="#000000" font-family="sans-serif" font-size="10" lengthAdjust="spacing" textLength="12.7246" x="1805" y="62.5791">42</text><text fill="#000000" font-family="sans-serif" font-size="10" lengthAdjust="spacing" textLength="12.7246" x="1861" y="62.5791">43</text><line style="stroke:#C0C0C0;stroke-width:1;" x1="8" x2="8" y1="53.2969" y2="940.2969"/><line style="stroke:#C0C0C0;stroke-width:1;" x1="64" x2="64" y1="53.2969" y2="940.2969"/><line style="stroke:#C0C0C0;stroke-width:1;" x1="120" x2="120" y1="53.2969" y2="940.2969"/><line style="stroke:#C0C0C0;stroke-width:1;" x1="176" x2="176" y1="53.2969" y2="940.2969"/><line style="stroke:#C0C0C0;stroke-width:1;" x1="232" x2="232" y1="53.2969" y2="940.2969"/><line style="stroke:#C0C0C0;stroke-width:1;" x1="288" x2="288" y1="53.2969" y2="940.2969"/><line style="stroke:#C0C0C0;stroke-width:1;" x1="344" x2="344" y1="53.2969" y2="940.2969"/><line style="stroke:#C0C0C0;stroke-width:1;" x1="400" x2="400" y1="53.2969" y2="940.2969"/><line style="stroke:#C0C0C0;stroke-width:1;" x1="456" x2="456" y1="53.2969" y2="940.2969"/><line style="stroke:#C0C0C0;stroke-width:1;" x1="512" x2="512" y1="53.2969" y2="940.2969"/><line style="stroke:#C0C0C0;stroke-width:1;" x1="568" x2="568" y1="53.2969" y2="940.2969"/><line style="stroke:#C0C0C0;stroke-width:1;" x1="624" x2="624" y1="53.2969" y2="940.2969"/><line style="stroke:#C0C0C0;stroke-width:1;" x1="680" x2="680" y1="53.2969" y2="940.2969"/><line style="stroke:#C0C0C0;stroke-width:1;" x1="736" x2="736" y1="53.2969" y2="940.2969"/><line style="stroke:#C0C0C0;stroke-width:1;" x1="792" x2="792" y1="53.2969" y2="940.2969"/><line style="stroke:#C0C0C0;stroke-width:1;" x1="848" x2="848" y1="53.2969" y2="940.2969"/><line style="stroke:#C0C0C0;stroke-width:1;" x1="904" x2="904" y1="53.2969" y2="940.2969"/><line style="stroke:#C0C0C0;stroke-width:1;" x1="960" x2="960" y1="53.2969" y2="940.2969"/><line style="stroke:#C0C0C0;stroke-width:1;" x1="1016" x2="1016" y1="53.2969" y2="940.2969"/><line style="stroke:#C0C0C0;stroke-width:1;" x1="1072" x2="1072" y1="53.2969" y2="940.2969"/><line style="stroke:#C0C0C0;stroke-width:1;" x1="1128" x2="1128" y1="53.2969" y2="940.2969"/><line style="stroke:#C0C0C0;stroke-width:1;" x1="1184" x2="1184" y1="53.2969" y2="940.2969"/><line style="stroke:#C0C0C0;stroke-width:1;" x1="1240" x2="1240" y1="53.2969" y2="940.2969"/><line style="stroke:#C0C0C0;stroke-width:1;" x1="1296" x2="1296" y1="53.2969" y2="940.2969"/><line style="stroke:#C0C0C0;stroke-width:1;" x1="1352" x2="1352" y1="53.2969" y2="940.2969"/><line style="stroke:#C0C0C0;stroke-width:1;" x1="1408" x2="1408" y1="53.2969" y2="940.2969"/><line style="stroke:#C0C0C0;stroke-width:1;" x1="1464" x2="1464" y1="53.2969" y2="940.2969"/><line style="stroke:#C0C0C0;stroke-width:1;" x1="1520" x2="1520" y1="53.2969" y2="940.2969"/><line style="stroke:#C0C0C0;stroke-width:1;" x1="1576" x2="1576" y1="53.2969" y2="940.2969"/><line style="stroke:#C0C0C0;stroke-width:1;" x1="1632" x2="1632" y1="53.2969" y2="940.2969"/><line style="stroke:#C0C0C0;stroke-width:1;" x1="1688" x2="1688" y1="53.2969" y2="940.2969"/><line style="stroke:#C0C0C0;stroke-width:1;" x1="1744" x2="1744" y1="53.2969" y2="940.2969"/><line style="stroke:#C0C0C0;stroke-width:1;" x1="1800" x2="1800" y1="53.2969" y2="940.2969"/><line style="stroke:#C0C0C0;stroke-width:1;" x1="1856" x2="1856" y1="53.2969" y2="940.2969"/><line style="stroke:#C0C0C0;stroke-width:1;" x1="1872" x2="1872" y1="53.2969" y2="940.2969"/><line style="stroke:#C0C0C0;stroke-width:1;" x1="0" x2="0" y1="37.2969" y2="53.2969"/><line style="stroke:#C0C0C0;stroke-width:1;" x1="248" x2="248" y1="37.2969" y2="53.2969"/><text fill="#000000" font-family="sans-serif" font-size="12" font-weight="bold" lengthAdjust="spacing" textLength="63.5332" x="92.2334" y="48.4355">Mar 2026</text><line style="stroke:#C0C0C0;stroke-width:1;" x1="488" x2="488" y1="37.2969" y2="53.2969"/><text fill="#000000" font-family="sans-serif" font-size="12" font-weight="bold" lengthAdjust="spacing" textLength="61.3711" x="337.3145" y="48.4355">Apr 2026</text><line style="stroke:#C0C0C0;stroke-width:1;" x1="736" x2="736" y1="37.2969" y2="53.2969"/><text fill="#000000" font-family="sans-serif" font-size="12" font-weight="bold" lengthAdjust="spacing" textLength="65.4375" x="579.2813" y="48.4355">May 2026</text><line style="stroke:#C0C0C0;stroke-width:1;" x1="976" x2="976" y1="37.2969" y2="53.2969"/><text fill="#000000" font-family="sans-serif" font-size="12" font-weight="bold" lengthAdjust="spacing" textLength="59.127" x="826.4365" y="48.4355">Jun 2026</text><line style="stroke:#C0C0C0;stroke-width:1;" x1="1224" x2="1224" y1="37.2969" y2="53.2969"/><text fill="#000000" font-family="sans-serif" font-size="12" font-weight="bold" lengthAdjust="spacing" textLength="54.6973" x="1072.6514" y="48.4355">Jul 2026</text><line style="stroke:#C0C0C0;stroke-width:1;" x1="1472" x2="1472" y1="37.2969" y2="53.2969"/><text fill="#000000" font-family="sans-serif" font-size="12" font-weight="bold" lengthAdjust="spacing" textLength="63.9961" x="1316.002" y="48.4355">Aug 2026</text><line style="stroke:#C0C0C0;stroke-width:1;" x1="1712" x2="1712" y1="37.2969" y2="53.2969"/><text fill="#000000" font-family="sans-serif" font-size="12" font-weight="bold" lengthAdjust="spacing" textLength="62.9473" x="1560.5264" y="48.4355">Sep 2026</text><line style="stroke:#C0C0C0;stroke-width:1;" x1="1872" x2="1872" y1="37.2969" y2="53.2969"/><text fill="#000000" font-family="sans-serif" font-size="12" font-weight="bold" lengthAdjust="spacing" textLength="60.627" x="1761.6865" y="48.4355">Oct 2026</text><line style="stroke:#C0C0C0;stroke-width:1;" x1="0" x2="1872" y1="37.2969" y2="37.2969"/><line style="stroke:#C0C0C0;stroke-width:1;" x1="0" x2="1872" y1="53.2969" y2="53.2969"/><line style="stroke:#C0C0C0;stroke-width:1;" x1="0" x2="1872" y1="64.2969" y2="64.2969"/><rect fill="#F0F0F0" height="23.9688" style="stroke:none;stroke-width:1;" width="1872" x="0" y="69.2969"/><line style="stroke:#181818;stroke-width:1;" x1="0" x2="5" y1="81.2813" y2="81.2813"/><line style="stroke:#181818;stroke-width:1;" x1="131.9766" x2="1871" y1="81.2813" y2="81.2813"/><rect fill="#BBDEFB" height="12.8047" style="stroke:none;stroke-width:1;" width="116" x="2" y="100.2656"/><rect fill="none" height="12.8047" style="stroke:#1976D2;stroke-width:1;" width="116" x="2" y="100.2656"/><rect fill="#BBDEFB" height="12.8047" style="stroke:none;stroke-width:1;" width="220" x="2" y="117.0703"/><rect fill="none" height="12.8047" style="stroke:#1976D2;stroke-width:1;" width="220" x="2" y="117.0703"/><rect fill="#BBDEFB" height="12.8047" style="stroke:none;stroke-width:1;" width="172" x="114" y="133.875"/><rect fill="none" height="12.8047" style="stroke:#1976D2;stroke-width:1;" width="172" x="114" y="133.875"/><rect fill="#BBDEFB" height="12.8047" style="stroke:none;stroke-width:1;" width="252" x="154" y="150.6797"/><rect fill="none" height="12.8047" style="stroke:#1976D2;stroke-width:1;" width="252" x="154" y="150.6797"/><rect fill="#C8E6C9" height="12.8047" style="stroke:none;stroke-width:1;" width="196" x="602" y="167.4844"/><rect fill="none" height="12.8047" style="stroke:#388E3C;stroke-width:1;" width="196" x="602" y="167.4844"/><rect fill="#C8E6C9" height="12.8047" style="stroke:none;stroke-width:1;" width="212" x="682" y="184.2891"/><rect fill="none" height="12.8047" style="stroke:#388E3C;stroke-width:1;" width="212" x="682" y="184.2891"/><rect fill="#C8E6C9" height="12.8047" style="stroke:none;stroke-width:1;" width="164" x="810" y="201.0938"/><rect fill="none" height="12.8047" style="stroke:#388E3C;stroke-width:1;" width="164" x="810" y="201.0938"/><rect fill="#FFE0B2" height="12.8047" style="stroke:none;stroke-width:1;" width="236" x="1130" y="217.8984"/><rect fill="none" height="12.8047" style="stroke:#E65100;stroke-width:1;" width="236" x="1130" y="217.8984"/><rect fill="#FFE0B2" height="12.8047" style="stroke:none;stroke-width:1;" width="252" x="1226" y="234.7031"/><rect fill="none" height="12.8047" style="stroke:#E65100;stroke-width:1;" width="252" x="1226" y="234.7031"/><rect fill="#FFE0B2" height="12.8047" style="stroke:none;stroke-width:1;" width="212" x="1338" y="251.5078"/><rect fill="none" height="12.8047" style="stroke:#E65100;stroke-width:1;" width="212" x="1338" y="251.5078"/><rect fill="#F0F0F0" height="23.9688" style="stroke:none;stroke-width:1;" width="1872" x="0" y="271.3125"/><line style="stroke:#181818;stroke-width:1;" x1="0" x2="5" y1="283.2969" y2="283.2969"/><line style="stroke:#181818;stroke-width:1;" x1="90.1816" x2="1871" y1="283.2969" y2="283.2969"/><rect fill="#BBDEFB" height="12.8047" style="stroke:none;stroke-width:1;" width="156" x="2" y="302.2813"/><rect fill="none" height="12.8047" style="stroke:#1976D2;stroke-width:1;" width="156" x="2" y="302.2813"/><rect fill="#BBDEFB" height="12.8047" style="stroke:none;stroke-width:1;" width="172" x="114" y="319.0859"/><rect fill="none" height="12.8047" style="stroke:#1976D2;stroke-width:1;" width="172" x="114" y="319.0859"/><rect fill="#BBDEFB" height="12.8047" style="stroke:none;stroke-width:1;" width="212" x="194" y="335.8906"/><rect fill="none" height="12.8047" style="stroke:#1976D2;stroke-width:1;" width="212" x="194" y="335.8906"/><rect fill="#C8E6C9" height="12.8047" style="stroke:none;stroke-width:1;" width="196" x="602" y="352.6953"/><rect fill="none" height="12.8047" style="stroke:#388E3C;stroke-width:1;" width="196" x="602" y="352.6953"/><rect fill="#C8E6C9" height="12.8047" style="stroke:none;stroke-width:1;" width="156" x="738" y="369.5"/><rect fill="none" height="12.8047" style="stroke:#388E3C;stroke-width:1;" width="156" x="738" y="369.5"/><rect fill="#C8E6C9" height="12.8047" style="stroke:none;stroke-width:1;" width="164" x="850" y="386.3047"/><rect fill="none" height="12.8047" style="stroke:#388E3C;stroke-width:1;" width="164" x="850" y="386.3047"/><rect fill="#FFE0B2" height="12.8047" style="stroke:none;stroke-width:1;" width="212" x="1130" y="403.1094"/><rect fill="none" height="12.8047" style="stroke:#E65100;stroke-width:1;" width="212" x="1130" y="403.1094"/><rect fill="#FFE0B2" height="12.8047" style="stroke:none;stroke-width:1;" width="180" x="1298" y="419.9141"/><rect fill="none" height="12.8047" style="stroke:#E65100;stroke-width:1;" width="180" x="1298" y="419.9141"/><rect fill="#F0F0F0" height="23.9688" style="stroke:none;stroke-width:1;" width="1872" x="0" y="439.7188"/><line style="stroke:#181818;stroke-width:1;" x1="0" x2="5" y1="451.7031" y2="451.7031"/><line style="stroke:#181818;stroke-width:1;" x1="274.6816" x2="1871" y1="451.7031" y2="451.7031"/><rect fill="#BBDEFB" height="12.8047" style="stroke:none;stroke-width:1;" width="156" x="2" y="470.6875"/><rect fill="none" height="12.8047" style="stroke:#1976D2;stroke-width:1;" width="156" x="2" y="470.6875"/><rect fill="#BBDEFB" height="12.8047" style="stroke:none;stroke-width:1;" width="172" x="114" y="487.4922"/><rect fill="none" height="12.8047" style="stroke:#1976D2;stroke-width:1;" width="172" x="114" y="487.4922"/><rect fill="#BBDEFB" height="12.8047" style="stroke:none;stroke-width:1;" width="212" x="194" y="504.2969"/><rect fill="none" height="12.8047" style="stroke:#1976D2;stroke-width:1;" width="212" x="194" y="504.2969"/><rect fill="#C8E6C9" height="12.8047" style="stroke:none;stroke-width:1;" width="196" x="602" y="521.1016"/><rect fill="none" height="12.8047" style="stroke:#388E3C;stroke-width:1;" width="196" x="602" y="521.1016"/><rect fill="#C8E6C9" height="12.8047" style="stroke:none;stroke-width:1;" width="156" x="738" y="537.9063"/><rect fill="none" height="12.8047" style="stroke:#388E3C;stroke-width:1;" width="156" x="738" y="537.9063"/><rect fill="#C8E6C9" height="12.8047" style="stroke:none;stroke-width:1;" width="164" x="850" y="554.7109"/><rect fill="none" height="12.8047" style="stroke:#388E3C;stroke-width:1;" width="164" x="850" y="554.7109"/><rect fill="#FFE0B2" height="12.8047" style="stroke:none;stroke-width:1;" width="212" x="1130" y="571.5156"/><rect fill="none" height="12.8047" style="stroke:#E65100;stroke-width:1;" width="212" x="1130" y="571.5156"/><rect fill="#FFE0B2" height="12.8047" style="stroke:none;stroke-width:1;" width="180" x="1298" y="588.3203"/><rect fill="none" height="12.8047" style="stroke:#E65100;stroke-width:1;" width="180" x="1298" y="588.3203"/><rect fill="#F0F0F0" height="23.9688" style="stroke:none;stroke-width:1;" width="1872" x="0" y="608.125"/><line style="stroke:#181818;stroke-width:1;" x1="0" x2="5" y1="620.1094" y2="620.1094"/><line style="stroke:#181818;stroke-width:1;" x1="291.0059" x2="1871" y1="620.1094" y2="620.1094"/><rect fill="#BBDEFB" height="12.8047" style="stroke:none;stroke-width:1;" width="156" x="2" y="639.0938"/><rect fill="none" height="12.8047" style="stroke:#1976D2;stroke-width:1;" width="156" x="2" y="639.0938"/><rect fill="#BBDEFB" height="12.8047" style="stroke:none;stroke-width:1;" width="252" x="154" y="655.8984"/><rect fill="none" height="12.8047" style="stroke:#1976D2;stroke-width:1;" width="252" x="154" y="655.8984"/><rect fill="#FFE0B2" height="12.8047" style="stroke:none;stroke-width:1;" width="212" x="1378" y="672.7031"/><rect fill="none" height="12.8047" style="stroke:#E65100;stroke-width:1;" width="212" x="1378" y="672.7031"/><rect fill="#FFE0B2" height="12.8047" style="stroke:none;stroke-width:1;" width="116" x="1474" y="689.5078"/><rect fill="none" height="12.8047" style="stroke:#E65100;stroke-width:1;" width="116" x="1474" y="689.5078"/><rect fill="#F0F0F0" height="23.9688" style="stroke:none;stroke-width:1;" width="1872" x="0" y="709.3125"/><line style="stroke:#181818;stroke-width:1;" x1="0" x2="5" y1="721.2969" y2="721.2969"/><line style="stroke:#181818;stroke-width:1;" x1="128.4316" x2="1871" y1="721.2969" y2="721.2969"/><rect fill="#BBDEFB" height="12.8047" style="stroke:none;stroke-width:1;" width="220" x="2" y="740.2813"/><rect fill="none" height="12.8047" style="stroke:#1976D2;stroke-width:1;" width="220" x="2" y="740.2813"/><rect fill="#C8E6C9" height="12.8047" style="stroke:none;stroke-width:1;" width="172" x="682" y="757.0859"/><rect fill="none" height="12.8047" style="stroke:#388E3C;stroke-width:1;" width="172" x="682" y="757.0859"/><rect fill="#F0F0F0" height="23.9688" style="stroke:none;stroke-width:1;" width="1872" x="0" y="776.8906"/><line style="stroke:#181818;stroke-width:1;" x1="0" x2="5" y1="788.875" y2="788.875"/><line style="stroke:#181818;stroke-width:1;" x1="129.4336" x2="1871" y1="788.875" y2="788.875"/><rect fill="#BBDEFB" height="12.8047" style="stroke:none;stroke-width:1;" width="124" x="362" y="807.8594"/><rect fill="none" height="12.8047" style="stroke:#1976D2;stroke-width:1;" width="124" x="362" y="807.8594"/><rect fill="#E0E0E0" height="12.8047" style="stroke:none;stroke-width:1;" width="44" x="1090" y="824.6641"/><rect fill="none" height="12.8047" style="stroke:#9E9E9E;stroke-width:1;" width="44" x="1090" y="824.6641"/><rect fill="#C8E6C9" height="12.8047" style="stroke:none;stroke-width:1;" width="116" x="978" y="841.4688"/><rect fill="none" height="12.8047" style="stroke:#388E3C;stroke-width:1;" width="116" x="978" y="841.4688"/><rect fill="#FFE0B2" height="12.8047" style="stroke:none;stroke-width:1;" width="164" x="1586" y="858.2734"/><rect fill="none" height="12.8047" style="stroke:#E65100;stroke-width:1;" width="164" x="1586" y="858.2734"/><rect fill="#FFE0B2" height="12.8047" style="stroke:none;stroke-width:1;" width="116" x="1754" y="875.0781"/><rect fill="none" height="12.8047" style="stroke:#E65100;stroke-width:1;" width="116" x="1754" y="875.0781"/><polygon fill="#FF4500" points="484,891.8828,489,896.8828,484,901.8828,479,896.8828" style="stroke:#FF4500;stroke-width:1;"/><polygon fill="#FF4500" points="1092,908.6875,1097,913.6875,1092,918.6875,1087,913.6875" style="stroke:#FF4500;stroke-width:1;"/><polygon fill="#FF4500" points="1868,925.4922,1873,930.4922,1868,935.4922,1863,930.4922" style="stroke:#FF4500;stroke-width:1;"/><text fill="#000000" font-family="sans-serif" font-size="12" font-weight="bold" lengthAdjust="spacing" textLength="116.9766" x="10" y="85.4355">Backend (2 devs)</text><text fill="#000000" font-family="sans-serif" font-size="11" lengthAdjust="spacing" textLength="195.9106" x="122" y="110.4761">DB Schema + PostGIS + Migrations</text><text fill="#000000" font-family="sans-serif" font-size="11" lengthAdjust="spacing" textLength="168.502" x="6" y="127.2808">Core API - Auth, Users, Profiles</text><text fill="#000000" font-family="sans-serif" font-size="11" lengthAdjust="spacing" textLength="189.229" x="290" y="144.0854">Photo Upload + SQS + S3 Pipeline</text><text fill="#000000" font-family="sans-serif" font-size="11" lengthAdjust="spacing" textLength="190.8887" x="158" y="160.8901">AI Recognition Lambda - Multi-LLM</text><text fill="#000000" font-family="sans-serif" font-size="11" lengthAdjust="spacing" textLength="180.9146" x="606" y="177.6948">Partner CRUD + Geo Queries API</text><text fill="#000000" font-family="sans-serif" font-size="11" lengthAdjust="spacing" textLength="188.7671" x="686" y="194.4995">Recommendation Engine + Cache</text><text fill="#000000" font-family="sans-serif" font-size="11" lengthAdjust="spacing" textLength="144.2622" x="814" y="211.3042">QR Code Discount System</text><text fill="#000000" font-family="sans-serif" font-size="11" lengthAdjust="spacing" textLength="148.8813" x="1134" y="228.1089">Stripe Payment Integration</text><text fill="#000000" font-family="sans-serif" font-size="11" lengthAdjust="spacing" textLength="118.1157" x="1230" y="244.9136">Loyalty Points Engine</text><text fill="#000000" font-family="sans-serif" font-size="11" lengthAdjust="spacing" textLength="96.8623" x="1342" y="261.7183">Partner Portal API</text><text fill="#000000" font-family="sans-serif" font-size="12" font-weight="bold" lengthAdjust="spacing" textLength="75.1816" x="10" y="287.4512">iOS (1 dev)</text><text fill="#000000" font-family="sans-serif" font-size="11" lengthAdjust="spacing" textLength="124.5664" x="6" y="312.4917">iOS Shell + Navigation</text><text fill="#000000" font-family="sans-serif" font-size="11" lengthAdjust="spacing" textLength="154.9883" x="118" y="329.2964">iOS Camera + Photo Upload</text><text fill="#000000" font-family="sans-serif" font-size="11" lengthAdjust="spacing" textLength="179.502" x="198" y="346.1011">iOS Attraction Description + TTS</text><text fill="#000000" font-family="sans-serif" font-size="11" lengthAdjust="spacing" textLength="176.1611" x="606" y="362.9058">iOS Partner Venues + Map View</text><text fill="#000000" font-family="sans-serif" font-size="11" lengthAdjust="spacing" textLength="134.6533" x="742" y="379.7104">iOS QR Code + Discount</text><text fill="#000000" font-family="sans-serif" font-size="11" lengthAdjust="spacing" textLength="96.1533" x="854" y="396.5151">iOS Offline Cache</text><text fill="#000000" font-family="sans-serif" font-size="11" lengthAdjust="spacing" textLength="138.9072" x="1134" y="413.3198">iOS Payment + Checkout</text><text fill="#000000" font-family="sans-serif" font-size="11" lengthAdjust="spacing" textLength="125.5493" x="1302" y="430.1245">iOS Loyalty Dashboard</text><text fill="#000000" font-family="sans-serif" font-size="12" font-weight="bold" lengthAdjust="spacing" textLength="259.6816" x="10" y="455.8574">Android (1 dev + mobile lead support)</text><text fill="#000000" font-family="sans-serif" font-size="11" lengthAdjust="spacing" textLength="148.6396" x="162" y="480.8979">Android Shell + Navigation</text><text fill="#000000" font-family="sans-serif" font-size="11" lengthAdjust="spacing" textLength="179.0615" x="290" y="497.7026">Android Camera + Photo Upload</text><text fill="#000000" font-family="sans-serif" font-size="11" lengthAdjust="spacing" textLength="203.5752" x="198" y="514.5073">Android Attraction Description + TTS</text><text fill="#000000" font-family="sans-serif" font-size="11" lengthAdjust="spacing" textLength="200.2344" x="802" y="531.312">Android Partner Venues + Map View</text><text fill="#000000" font-family="sans-serif" font-size="11" lengthAdjust="spacing" textLength="158.7266" x="898" y="548.1167">Android QR Code + Discount</text><text fill="#000000" font-family="sans-serif" font-size="11" lengthAdjust="spacing" textLength="120.2266" x="854" y="564.9214">Android Offline Cache</text><text fill="#000000" font-family="sans-serif" font-size="11" lengthAdjust="spacing" textLength="162.9805" x="1134" y="581.7261">Android Payment + Checkout</text><text fill="#000000" font-family="sans-serif" font-size="11" lengthAdjust="spacing" textLength="149.6226" x="1302" y="598.5308">Android Loyalty Dashboard</text><text fill="#000000" font-family="sans-serif" font-size="12" font-weight="bold" lengthAdjust="spacing" textLength="276.0059" x="10" y="624.2637">Mobile Lead (shared across iOS/Android)</text><text fill="#000000" font-family="sans-serif" font-size="11" lengthAdjust="spacing" textLength="242.7788" x="162" y="649.3042">Cross-platform Architecture + API Contracts</text><text fill="#000000" font-family="sans-serif" font-size="11" lengthAdjust="spacing" textLength="197.9893" x="158" y="666.1089">Code Reviews + Integration Testing</text><text fill="#000000" font-family="sans-serif" font-size="11" lengthAdjust="spacing" textLength="129.0513" x="1382" y="682.9136">Multi-language Support</text><text fill="#000000" font-family="sans-serif" font-size="11" lengthAdjust="spacing" textLength="151.3198" x="1594" y="699.7183">China Terraform Templates</text><text fill="#000000" font-family="sans-serif" font-size="12" font-weight="bold" lengthAdjust="spacing" textLength="113.4316" x="10" y="725.4512">DevOps (shared)</text><text fill="#000000" font-family="sans-serif" font-size="11" lengthAdjust="spacing" textLength="130.7324" x="6" y="750.4917">CI/CD + IaC - Terraform</text><text fill="#000000" font-family="sans-serif" font-size="11" lengthAdjust="spacing" textLength="120.5596" x="686" y="767.2964">US Region Prod Setup</text><text fill="#000000" font-family="sans-serif" font-size="12" font-weight="bold" lengthAdjust="spacing" textLength="114.4336" x="10" y="793.0293">Integration &amp; QA</text><text fill="#000000" font-family="sans-serif" font-size="11" lengthAdjust="spacing" textLength="123.4063" x="490" y="818.0698">POC Integration Sprint</text><text fill="#000000" font-family="sans-serif" font-size="11" lengthAdjust="spacing" textLength="69.3301" x="1138" y="834.8745">Phase buffer</text><text fill="#000000" font-family="sans-serif" font-size="11" lengthAdjust="spacing" textLength="120.1514" x="1098" y="851.6792">MVP Integration + QA</text><text fill="#000000" font-family="sans-serif" font-size="11" lengthAdjust="spacing" textLength="163.1738" x="1754" y="868.4839">Full Release QA + Regression</text><text fill="#000000" font-family="sans-serif" font-size="11" lengthAdjust="spacing" textLength="187.2954" x="1874" y="885.2886">App Store Review (iOS + Android)</text><text fill="#000000" font-family="sans-serif" font-size="11" font-weight="bold" lengthAdjust="spacing" textLength="64.9258" x="492" y="902.0933">POC Demo</text><text fill="#000000" font-family="sans-serif" font-size="11" font-weight="bold" lengthAdjust="spacing" textLength="104.876" x="1100" y="918.8979">MVP Launch - US</text><text fill="#000000" font-family="sans-serif" font-size="11" font-weight="bold" lengthAdjust="spacing" textLength="75.3081" x="1876" y="935.7026">Full Release</text><line style="stroke:#C0C0C0;stroke-width:1;" x1="0" x2="1872" y1="940.2969" y2="940.2969"/><line style="stroke:#C0C0C0;stroke-width:1;" x1="0" x2="0" y1="940.2969" y2="956.2969"/><line style="stroke:#C0C0C0;stroke-width:1;" x1="248" x2="248" y1="940.2969" y2="956.2969"/><text fill="#000000" font-family="sans-serif" font-size="12" font-weight="bold" lengthAdjust="spacing" textLength="63.5332" x="92.2334" y="951.4355">Mar 2026</text><line style="stroke:#C0C0C0;stroke-width:1;" x1="488" x2="488" y1="940.2969" y2="956.2969"/><text fill="#000000" font-family="sans-serif" font-size="12" font-weight="bold" lengthAdjust="spacing" textLength="61.3711" x="337.3145" y="951.4355">Apr 2026</text><line style="stroke:#C0C0C0;stroke-width:1;" x1="736" x2="736" y1="940.2969" y2="956.2969"/><text fill="#000000" font-family="sans-serif" font-size="12" font-weight="bold" lengthAdjust="spacing" textLength="65.4375" x="579.2813" y="951.4355">May 2026</text><line style="stroke:#C0C0C0;stroke-width:1;" x1="976" x2="976" y1="940.2969" y2="956.2969"/><text fill="#000000" font-family="sans-serif" font-size="12" font-weight="bold" lengthAdjust="spacing" textLength="59.127" x="826.4365" y="951.4355">Jun 2026</text><line style="stroke:#C0C0C0;stroke-width:1;" x1="1224" x2="1224" y1="940.2969" y2="956.2969"/><text fill="#000000" font-family="sans-serif" font-size="12" font-weight="bold" lengthAdjust="spacing" textLength="54.6973" x="1072.6514" y="951.4355">Jul 2026</text><line style="stroke:#C0C0C0;stroke-width:1;" x1="1472" x2="1472" y1="940.2969" y2="956.2969"/><text fill="#000000" font-family="sans-serif" font-size="12" font-weight="bold" lengthAdjust="spacing" textLength="63.9961" x="1316.002" y="951.4355">Aug 2026</text><line style="stroke:#C0C0C0;stroke-width:1;" x1="1712" x2="1712" y1="940.2969" y2="956.2969"/><text fill="#000000" font-family="sans-serif" font-size="12" font-weight="bold" lengthAdjust="spacing" textLength="62.9473" x="1560.5264" y="951.4355">Sep 2026</text><line style="stroke:#C0C0C0;stroke-width:1;" x1="1872" x2="1872" y1="940.2969" y2="956.2969"/><text fill="#000000" font-family="sans-serif" font-size="12" font-weight="bold" lengthAdjust="spacing" textLength="60.627" x="1761.6865" y="951.4355">Oct 2026</text><line style="stroke:#C0C0C0;stroke-width:1;" x1="0" x2="1872" y1="956.2969" y2="956.2969"/><g class="legend" data-source-line="116"><rect fill="#DDDDDD" height="95.4844" rx="7.5" ry="7.5" style="stroke:#000000;stroke-width:1;" width="107.8564" x="1751.1436" y="968.2969"/><rect fill="#BBDEFB" height="16.2969" style="stroke:none;stroke-width:1;" width="97.8564" x="1756.1436" y="975.2969"/><text fill="#000000" font-family="sans-serif" font-size="14" lengthAdjust="spacing" textLength="75.4893" x="1760.5938" y="988.292">POC Phase</text><rect fill="#C8E6C9" height="16.2969" style="stroke:none;stroke-width:1;" width="97.8564" x="1756.1436" y="991.5938"/><text fill="#000000" font-family="sans-serif" font-size="14" lengthAdjust="spacing" textLength="76.3506" x="1760.5938" y="1004.5889">MVP Phase</text><rect fill="#E0E0E0" height="16.2969" style="stroke:none;stroke-width:1;" width="97.8564" x="1756.1436" y="1007.8906"/><text fill="#000000" font-family="sans-serif" font-size="14" lengthAdjust="spacing" textLength="88.9561" x="1760.5938" y="1020.8857">Phase Buffer</text><rect fill="#FFE0B2" height="16.2969" style="stroke:none;stroke-width:1;" width="97.8564" x="1756.1436" y="1024.1875"/><text fill="#000000" font-family="sans-serif" font-size="14" lengthAdjust="spacing" textLength="70.957" x="1760.5938" y="1037.1826">Full Phase</text><rect fill="#FF4500" height="16.2969" style="stroke:none;stroke-width:1;" width="97.8564" x="1756.1436" y="1040.4844"/><text fill="#000000" font-family="sans-serif" font-size="14" lengthAdjust="spacing" textLength="67.3066" x="1760.5938" y="1053.4795">Milestone</text><line style="stroke:#000000;stroke-width:1;" x1="1756.1436" x2="1854" y1="975.2969" y2="975.2969"/><line style="stroke:#000000;stroke-width:1;" x1="1756.1436" x2="1854" y1="991.5938" y2="991.5938"/><line style="stroke:#000000;stroke-width:1;" x1="1756.1436" x2="1854" y1="1007.8906" y2="1007.8906"/><line style="stroke:#000000;stroke-width:1;" x1="1756.1436" x2="1854" y1="1024.1875" y2="1024.1875"/><line style="stroke:#000000;stroke-width:1;" x1="1756.1436" x2="1854" y1="1040.4844" y2="1040.4844"/><line style="stroke:#000000;stroke-width:1;" x1="1756.1436" x2="1854" y1="1056.7813" y2="1056.7813"/><line style="stroke:#000000;stroke-width:1;" x1="1756.1436" x2="1756.1436" y1="975.2969" y2="1056.7813"/><line style="stroke:#000000;stroke-width:1;" x1="1854" x2="1854" y1="975.2969" y2="1056.7813"/></g><?plantuml-src hLZTJjj85BxtKnm9QKN5fh4D2SaAeIPEG9524sBW1lLYS8ROY-snPiPKTEbg7sAVS9zapzW92xQJcPPLe2MsptU-EJ_VpF4d8GcNAv9AQSb8nXHccOnO2kvlS4FYQ4aaXGEuO2cLqJSA__prD_pPWuIbCXI_GWUMz17_l_PXVp7sPXSNuy-ZyUY3bV4ebI8W2FYLqeVu2Runbe2BDzZlD91G-1NWscwtPH-sRCUoJeHyYkcfLR0PHMJ5IG9_M02IY8VY3u0pTEmh8ew3tx_ZRnB5L4Zar_Z4-hi2XZiMBujBGn8yd7EMfqkFnOp3Z9DqHHUql3kDKbg_hbm9cX5E9Dwfkd9DNUsTsUfJ07wtJjhh9LkjLl4eJPUmxnP1_G2jbdKx6e8VX3GXc8Gv4_9yugjqH1WRbIRnfHv880Y2GFzTSpecG960G76aIuXIs1iEH-EpONlFwHztHwvrw-4T6Cmdq891BaFCkQ0SKp_dx5wbm8Y9spC1qZ2PXqmokCvYHfQu1lzIhSG_X7cKqHYJLsFYTAfCZbfsnmH8msGmWGKDs2gDYfwPakHkIN1T5taiezPqUb6ZujfrAgvjXAIB2lf9AGTlSJt2PPnJ1fSvvH4LAjWL8fs6cE1FJmzJOU7rnbsltzuxxFN6XvvrgnQH98XQL1MCqnN64N4yWiLN8-4sa53HqA1eE5mkm6DB2gD81DXv4lmd8MbIyTvjENRT-w6zmrxZrvSS2mVcv0cfIvYaagwxg-BwkA4CUYsdjnkYultiR6mFtVRUkDjnR6GzPKyaba_Ot4fvrp6hEEurD6LVQUysQutFJR7C6PSaRgYpNaETzJ7mpQQxlIcDZ6QuqJXA7qjvLD_zaCOn5iTdyXYjciAzHOhixUQQLbDc7aaeByJqbOWOAyyE10FV0oav2OhM654HOCaKVn_0rPLVLvnEi-BeWGoORB9uGzCS5G8t59B1JKI_6kkD1aNJSifwqwu7BmrRw_Hw_hilCMWoD_0wkxzNMqIZi7KRLdlyalUAfO6lZHoW08OqU62vD1EKpdPpJMChiuqaZ8W8xnZXotflsyrYiiLQtzw3TCbPj5otE19Es1qU2I2ck46BFCjGBCh6tppvZkRV1Q7RzzUcxnC13OeXX_z53Cp031czNnGCa3Hjiq5uXpZiWZ3q_dCYiSNQqESxn68NX4OmDgO_Bnex4FJ2SL7gn5JfnBu8YNgK19m9eOuCxJLsAHsUkjpAOYBl6KzWm8CmaZYIvbpbM0qc7ivngWs4iPRy4APsqC9YMz17B7DLyg_EW725aswKheod2XCe3Pjo08bn4Cx9Ye9VYd0jgsv3LbL9RJFNb9CNHYb1ZfoJ8g1ND571hKsP_SO3hNAy0q5VJYFwECl4ffBMPJDfUseYcX0Fvx8NOFEnTvkz9W7NFcPmfLA60pBkLbJccT4WfQBGRBnRILG0NbVABt0vA28mdtblRlZ5IvuAbwF6xKwDLTlCjTC-4HJkyljxoclhhWSRDvMZgb75mzXMd_PUVwm-MACtypV43d31DSsiUpek2xpHMAFLEzPqtBWjg6R-eJMTvNYcML0yEA4Dvkz0rG6dGjHFIFswHySkDgBT8BeT8Sl0b-fTJob0iA-EXGURCzw7jooKnswTXMi4f6deel96D65V82HPHjEtTQaoE2Lv6eJObzT-zQ4opQz3KNcYf6d5TANUtl5e5KeBuFbaNScdeDoNoNikRvJbS0hAyviRPHPFrnU7HQetzyfLdKB1v8tLosjAH7nv6VfiAJObAUiJ_bE-uxMSZuhqH-TV?></g></svg>