<?plantuml 1.2026.1?><svg xmlns="http://www.w3.org/2000/svg" xmlns:xlink="http://www.w3.org/1999/xlink" contentStyleType="text/css" data-diagram-type="DESCRIPTION" height="1074px" preserveAspectRatio="none" style="width:2295px;height:1074px;background:#FFFFFF;" version="1.1" viewBox="0 0 2295 1074" width="2295px" zoomAndPan="magnify"><title>Option 2: Multi-Region &#8212; US + China (Terraform-deployed)</title><defs/><g><g class="title" data-source-line="1"><text fill="#000000" font-family="sans-serif" font-size="14" font-weight="bold" lengthAdjust="spacing" textLength="465.4795" x="907.7603" y="22.9951">Option 2: Multi-Region &#8212; US + China (Terraform-deployed)</text></g><!--cluster us_region--><g class="cluster" data-qualified-name="us_region" data-source-line="21" id="ent0007"><rect fill="#E8F5E9" height="438.38" rx="5" ry="5" style="stroke:#DEE2E6;stroke-width:1;" width="971" x="7" y="461.8769"/><text fill="#000000" font-family="sans-serif" font-size="14" font-weight="bold" lengthAdjust="spacing" textLength="203.7793" x="390.6104" y="476.872">AWS US-EAST-1 (Primary)</text></g><!--cluster Compute--><g class="cluster" data-qualified-name="us_region.Compute" data-source-line="24" id="ent0009"><path d="M33.5,580.1769 L105.1563,580.1769 A3.75,3.75 0 0 1 107.6563,582.6769 L114.6563,602.4737 L311.5,602.4737 A2.5,2.5 0 0 1 314,604.9737 L314,852.9569 A2.5,2.5 0 0 1 311.5,855.4569 L33.5,855.4569 A2.5,2.5 0 0 1 31,852.9569 L31,582.6769 A2.5,2.5 0 0 1 33.5,580.1769" fill="#F8F9FA" style="stroke:#DEE2E6;stroke-width:1.5;"/><line style="stroke:#DEE2E6;stroke-width:1.5;" x1="31" x2="114.6563" y1="602.4737" y2="602.4737"/><text fill="#000000" font-family="sans-serif" font-size="14" font-weight="bold" lengthAdjust="spacing" textLength="70.6563" x="35" y="595.172">Compute</text></g><!--cluster Data--><g class="cluster" data-qualified-name="us_region.Data" data-source-line="30" id="ent0013"><path d="M397.5,747.3669 L435.708,747.3669 A3.75,3.75 0 0 1 438.208,749.8669 L445.208,769.6637 L951.5,769.6637 A2.5,2.5 0 0 1 954,772.1637 L954,873.7569 A2.5,2.5 0 0 1 951.5,876.2569 L397.5,876.2569 A2.5,2.5 0 0 1 395,873.7569 L395,749.8669 A2.5,2.5 0 0 1 397.5,747.3669" fill="#F8F9FA" style="stroke:#DEE2E6;stroke-width:1.5;"/><line style="stroke:#DEE2E6;stroke-width:1.5;" x1="395" x2="445.208" y1="769.6637" y2="769.6637"/><text fill="#000000" font-family="sans-serif" font-size="14" font-weight="bold" lengthAdjust="spacing" textLength="37.208" x="399" y="762.362">Data</text></g><!--cluster cn_region--><g class="cluster" data-qualified-name="cn_region" data-source-line="41" id="ent0020"><rect fill="#FFF3E0" height="438.38" rx="5" ry="5" style="stroke:#DEE2E6;stroke-width:1;" width="997" x="1292" y="461.8769"/><text fill="#000000" font-family="sans-serif" font-size="14" font-weight="bold" lengthAdjust="spacing" textLength="262.3428" x="1659.3286" y="476.872">AWS CN-NORTHWEST-1 (Ningxia)</text></g><!--cluster Compute --><g class="cluster" data-qualified-name="cn_region.Compute " data-source-line="44" id="ent0022"><path d="M1318.5,596.4669 L1395.0303,596.4669 A3.75,3.75 0 0 1 1397.5303,598.9669 L1404.5303,618.7638 L1622.5,618.7638 A2.5,2.5 0 0 1 1625,621.2638 L1625,852.9569 A2.5,2.5 0 0 1 1622.5,855.4569 L1318.5,855.4569 A2.5,2.5 0 0 1 1316,852.9569 L1316,598.9669 A2.5,2.5 0 0 1 1318.5,596.4669" fill="#F8F9FA" style="stroke:#DEE2E6;stroke-width:1.5;"/><line style="stroke:#DEE2E6;stroke-width:1.5;" x1="1316" x2="1404.5303" y1="618.7638" y2="618.7638"/><text fill="#000000" font-family="sans-serif" font-size="14" font-weight="bold" lengthAdjust="spacing" textLength="70.6563" x="1320" y="611.462">Compute</text></g><!--cluster Data --><g class="cluster" data-qualified-name="cn_region.Data " data-source-line="50" id="ent0026"><path d="M1708.5,747.3669 L1751.582,747.3669 A3.75,3.75 0 0 1 1754.082,749.8669 L1761.082,769.6637 L2262.5,769.6637 A2.5,2.5 0 0 1 2265,772.1637 L2265,873.7569 A2.5,2.5 0 0 1 2262.5,876.2569 L1708.5,876.2569 A2.5,2.5 0 0 1 1706,873.7569 L1706,749.8669 A2.5,2.5 0 0 1 1708.5,747.3669" fill="#F8F9FA" style="stroke:#DEE2E6;stroke-width:1.5;"/><line style="stroke:#DEE2E6;stroke-width:1.5;" x1="1706" x2="1761.082" y1="769.6637" y2="769.6637"/><text fill="#000000" font-family="sans-serif" font-size="14" font-weight="bold" lengthAdjust="spacing" textLength="37.208" x="1710" y="762.362">Data</text></g><!--cluster AI Services--><g class="cluster" data-qualified-name="AI Services" data-source-line="63" id="ent0034"><path d="M124.5,964.2569 L212.9521,964.2569 A3.75,3.75 0 0 1 215.4521,966.7569 L222.4521,986.5537 L613.5,986.5537 A2.5,2.5 0 0 1 616,989.0537 L616,1065.3469 A2.5,2.5 0 0 1 613.5,1067.8469 L124.5,1067.8469 A2.5,2.5 0 0 1 122,1065.3469 L122,966.7569 A2.5,2.5 0 0 1 124.5,964.2569" fill="#E8F5E9" style="stroke:#DEE2E6;stroke-width:1.5;"/><line style="stroke:#DEE2E6;stroke-width:1.5;" x1="122" x2="222.4521" y1="986.5537" y2="986.5537"/><text fill="#000000" font-family="sans-serif" font-size="14" font-weight="bold" lengthAdjust="spacing" textLength="87.4521" x="126" y="979.252">AI Services</text></g><!--cluster 3rd Party--><g class="cluster" data-qualified-name="3rd Party" data-source-line="69" id="ent0038"><path d="M1004.5,768.1569 L1079.4717,768.1569 A3.75,3.75 0 0 1 1081.9717,770.6569 L1088.9717,790.4537 L1265.5,790.4537 A2.5,2.5 0 0 1 1268,792.9537 L1268,852.9569 A2.5,2.5 0 0 1 1265.5,855.4569 L1004.5,855.4569 A2.5,2.5 0 0 1 1002,852.9569 L1002,770.6569 A2.5,2.5 0 0 1 1004.5,768.1569" fill="#FFF3E0" style="stroke:#DEE2E6;stroke-width:1.5;"/><line style="stroke:#DEE2E6;stroke-width:1.5;" x1="1002" x2="1088.9717" y1="790.4537" y2="790.4537"/><text fill="#000000" font-family="sans-serif" font-size="14" font-weight="bold" lengthAdjust="spacing" textLength="73.9717" x="1006" y="783.152">3rd Party</text></g><!--entity alb_us--><g class="entity" data-qualified-name="us_region.alb_us" data-source-line="22" id="ent0008"><rect fill="#ED7100" height="36.2969" rx="2.5" ry="2.5" style="stroke:#181818;stroke-width:0.5;" width="46.9814" x="775.51" y="496.8769"/><text fill="#000000" font-family="sans-serif" font-size="14" lengthAdjust="spacing" textLength="26.9814" x="785.51" y="519.872">ALB</text></g><!--entity ses_us--><g class="entity" data-qualified-name="us_region.ses_us" data-source-line="37" id="ent0018"><rect fill="#FF4F8B" height="36.2969" rx="2.5" ry="2.5" style="stroke:#181818;stroke-width:0.5;" width="46.6191" x="329.69" y="803.1569"/><text fill="#000000" font-family="sans-serif" font-size="14" lengthAdjust="spacing" textLength="26.6191" x="339.69" y="826.152">SES</text></g><!--entity cw_us--><g class="entity" data-qualified-name="us_region.cw_us" data-source-line="38" id="ent0019"><rect fill="#FF4F8B" height="36.2969" rx="2.5" ry="2.5" style="stroke:#181818;stroke-width:0.5;" width="104.4717" x="857.76" y="496.8769"/><text fill="#000000" font-family="sans-serif" font-size="14" lengthAdjust="spacing" textLength="84.4717" x="867.76" y="519.872">CloudWatch</text></g><!--entity ecs_us--><g class="entity" data-qualified-name="us_region.Compute.ecs_us" data-source-line="25" id="ent0010"><rect fill="#FF9900" height="85.1875" rx="2.5" ry="2.5" style="stroke:#181818;stroke-width:0.5;" width="167.123" x="130.44" y="615.1769"/><text fill="#000000" font-family="sans-serif" font-size="14" lengthAdjust="spacing" textLength="96.8994" x="165.5518" y="638.172">ECS: Monolith</text><text fill="#000000" font-family="sans-serif" font-size="14" lengthAdjust="spacing" textLength="134.8184" x="146.5923" y="654.4689">Users + Partners +</text><text fill="#000000" font-family="sans-serif" font-size="14" lengthAdjust="spacing" textLength="147.123" x="140.44" y="670.7657">Recommendations +</text><text fill="#000000" font-family="sans-serif" font-size="14" lengthAdjust="spacing" textLength="140.7383" x="143.6324" y="687.0626">Payments + Loyalty</text></g><!--entity sqs_us--><g class="entity" data-qualified-name="us_region.Compute.sqs_us" data-source-line="26" id="ent0011"><path d="M51.6,644.6169 L90.393,644.6169 C95.393,644.6169 95.393,657.7653 95.393,657.7653 C95.393,657.7653 95.393,670.9137 90.393,670.9137 L51.6,670.9137 C46.6,670.9137 46.6,657.7653 46.6,657.7653 C46.6,657.7653 46.6,644.6169 51.6,644.6169" fill="#FF4F8B" style="stroke:#181818;stroke-width:0.5;"/><path d="M90.393,644.6169 C85.393,644.6169 85.393,657.7653 85.393,657.7653 C85.393,670.9137 90.393,670.9137 90.393,670.9137" fill="none" style="stroke:#181818;stroke-width:0.5;"/><text fill="#000000" font-family="sans-serif" font-size="14" lengthAdjust="spacing" textLength="28.793" x="51.6" y="662.612">SQS</text></g><!--entity ar_us--><g class="entity" data-qualified-name="us_region.Compute.ar_us" data-source-line="27" id="ent0012"><rect fill="#FF9900" height="36.2969" rx="2.5" ry="2.5" style="stroke:#181818;stroke-width:0.5;" width="186.7627" x="107.62" y="803.1569"/><text fill="#000000" font-family="sans-serif" font-size="14" lengthAdjust="spacing" textLength="166.7627" x="117.62" y="826.152">Lambda: AI Recognition</text></g><!--entity db_us--><g class="entity" data-qualified-name="us_region.Data.db_us" data-source-line="31" id="ent0014"><path d="M786.43,792.3669 C786.43,782.3669 861.9969,782.3669 861.9969,782.3669 C861.9969,782.3669 937.5638,782.3669 937.5638,792.3669 L937.5638,850.2575 C937.5638,860.2575 861.9969,860.2575 861.9969,860.2575 C861.9969,860.2575 786.43,860.2575 786.43,850.2575 L786.43,792.3669" fill="#3B48CC" style="stroke:#181818;stroke-width:0.5;"/><path d="M786.43,792.3669 C786.43,802.3669 861.9969,802.3669 861.9969,802.3669 C861.9969,802.3669 937.5638,802.3669 937.5638,792.3669" fill="none" style="stroke:#181818;stroke-width:0.5;"/><text fill="#000000" font-family="sans-serif" font-size="14" lengthAdjust="spacing" textLength="80.7529" x="821.6204" y="819.362">PostgreSQL</text><text fill="#000000" font-family="sans-serif" font-size="14" lengthAdjust="spacing" textLength="58.4404" x="832.7767" y="835.6589">Multi-AZ</text><text fill="#000000" font-family="sans-serif" font-size="14" lengthAdjust="spacing" textLength="131.1338" x="796.43" y="851.9557">Primary (US users)</text></g><!--entity cache_us--><g class="entity" data-qualified-name="us_region.Data.cache_us" data-source-line="32" id="ent0015"><path d="M658.89,808.6569 C658.89,798.6569 705.0008,798.6569 705.0008,798.6569 C705.0008,798.6569 751.1117,798.6569 751.1117,808.6569 L751.1117,833.9537 C751.1117,843.9537 705.0008,843.9537 705.0008,843.9537 C705.0008,843.9537 658.89,843.9537 658.89,833.9537 L658.89,808.6569" fill="#3B48CC" style="stroke:#181818;stroke-width:0.5;"/><path d="M658.89,808.6569 C658.89,818.6569 705.0008,818.6569 705.0008,818.6569 C705.0008,818.6569 751.1117,818.6569 751.1117,808.6569" fill="none" style="stroke:#181818;stroke-width:0.5;"/><text fill="#000000" font-family="sans-serif" font-size="14" lengthAdjust="spacing" textLength="72.2217" x="668.89" y="835.652">Redis 5GB</text></g><!--entity s3p_us--><g class="entity" data-qualified-name="us_region.Data.s3p_us" data-source-line="33" id="ent0016"><rect fill="#3F8624" height="36.2969" rx="35" ry="35" style="stroke:#181818;stroke-width:0.5;" width="89.4736" x="534.26" y="803.1569"/><text fill="#000000" font-family="sans-serif" font-size="14" lengthAdjust="spacing" textLength="69.4736" x="544.26" y="826.152">S3 Photos</text></g><!--entity s3a_us--><g class="entity" data-qualified-name="us_region.Data.s3a_us" data-source-line="34" id="ent0017"><rect fill="#3F8624" height="36.2969" rx="35" ry="35" style="stroke:#181818;stroke-width:0.5;" width="87.8057" x="411.1" y="803.1569"/><text fill="#000000" font-family="sans-serif" font-size="14" lengthAdjust="spacing" textLength="67.8057" x="421.1" y="826.152">S3 Assets</text></g><!--entity alb_cn--><g class="entity" data-qualified-name="cn_region.alb_cn" data-source-line="42" id="ent0021"><rect fill="#ED7100" height="36.2969" rx="2.5" ry="2.5" style="stroke:#181818;stroke-width:0.5;" width="46.9814" x="1447.51" y="496.8769"/><text fill="#000000" font-family="sans-serif" font-size="14" lengthAdjust="spacing" textLength="26.9814" x="1457.51" y="519.872">ALB</text></g><!--entity ses_cn--><g class="entity" data-qualified-name="cn_region.ses_cn" data-source-line="57" id="ent0031"><rect fill="#FF4F8B" height="36.2969" rx="2.5" ry="2.5" style="stroke:#181818;stroke-width:0.5;" width="46.6191" x="1640.69" y="803.1569"/><text fill="#000000" font-family="sans-serif" font-size="14" lengthAdjust="spacing" textLength="26.6191" x="1650.69" y="826.152">SES</text></g><!--entity cw_cn--><g class="entity" data-qualified-name="cn_region.cw_cn" data-source-line="58" id="ent0032"><rect fill="#FF4F8B" height="36.2969" rx="2.5" ry="2.5" style="stroke:#181818;stroke-width:0.5;" width="104.4717" x="1307.76" y="496.8769"/><text fill="#000000" font-family="sans-serif" font-size="14" lengthAdjust="spacing" textLength="84.4717" x="1317.76" y="519.872">CloudWatch</text></g><!--entity ecs_cn--><g class="entity" data-qualified-name="cn_region.Compute .ecs_cn" data-source-line="45" id="ent0023"><rect fill="#FF9900" height="52.5938" rx="2.5" ry="2.5" style="stroke:#181818;stroke-width:0.5;" width="193.5439" x="1415.23" y="631.4669"/><text fill="#000000" font-family="sans-serif" font-size="14" lengthAdjust="spacing" textLength="96.8994" x="1463.5523" y="654.462">ECS: Monolith</text><text fill="#000000" font-family="sans-serif" font-size="14" lengthAdjust="spacing" textLength="173.5439" x="1425.23" y="670.7589">(same image, CN config)</text></g><!--entity sqs_cn--><g class="entity" data-qualified-name="cn_region.Compute .sqs_cn" data-source-line="46" id="ent0024"><path d="M1336.6,644.6169 L1375.393,644.6169 C1380.393,644.6169 1380.393,657.7653 1380.393,657.7653 C1380.393,657.7653 1380.393,670.9137 1375.393,670.9137 L1336.6,670.9137 C1331.6,670.9137 1331.6,657.7653 1331.6,657.7653 C1331.6,657.7653 1331.6,644.6169 1336.6,644.6169" fill="#FF4F8B" style="stroke:#181818;stroke-width:0.5;"/><path d="M1375.393,644.6169 C1370.393,644.6169 1370.393,657.7653 1370.393,657.7653 C1370.393,670.9137 1375.393,670.9137 1375.393,670.9137" fill="none" style="stroke:#181818;stroke-width:0.5;"/><text fill="#000000" font-family="sans-serif" font-size="14" lengthAdjust="spacing" textLength="28.793" x="1336.6" y="662.612">SQS</text></g><!--entity ar_cn--><g class="entity" data-qualified-name="cn_region.Compute .ar_cn" data-source-line="47" id="ent0025"><rect fill="#FF9900" height="36.2969" rx="2.5" ry="2.5" style="stroke:#181818;stroke-width:0.5;" width="186.7627" x="1331.62" y="803.1569"/><text fill="#000000" font-family="sans-serif" font-size="14" lengthAdjust="spacing" textLength="166.7627" x="1341.62" y="826.152">Lambda: AI Recognition</text></g><!--entity db_cn--><g class="entity" data-qualified-name="cn_region.Data .db_cn" data-source-line="51" id="ent0027"><path d="M2096.88,792.3669 C2096.88,782.3669 2173.004,782.3669 2173.004,782.3669 C2173.004,782.3669 2249.128,782.3669 2249.128,792.3669 L2249.128,850.2575 C2249.128,860.2575 2173.004,860.2575 2173.004,860.2575 C2173.004,860.2575 2096.88,860.2575 2096.88,850.2575 L2096.88,792.3669" fill="#3B48CC" style="stroke:#181818;stroke-width:0.5;"/><path d="M2096.88,792.3669 C2096.88,802.3669 2173.004,802.3669 2173.004,802.3669 C2173.004,802.3669 2249.128,802.3669 2249.128,792.3669" fill="none" style="stroke:#181818;stroke-width:0.5;"/><text fill="#000000" font-family="sans-serif" font-size="14" lengthAdjust="spacing" textLength="80.7529" x="2132.6276" y="819.362">PostgreSQL</text><text fill="#000000" font-family="sans-serif" font-size="14" lengthAdjust="spacing" textLength="58.4404" x="2143.7838" y="835.6589">Multi-AZ</text><text fill="#000000" font-family="sans-serif" font-size="14" lengthAdjust="spacing" textLength="132.248" x="2106.88" y="851.9557">Primary (CN users)</text></g><!--entity cache_cn--><g class="entity" data-qualified-name="cn_region.Data .cache_cn" data-source-line="52" id="ent0028"><path d="M1969.89,808.6569 C1969.89,798.6569 2016.0008,798.6569 2016.0008,798.6569 C2016.0008,798.6569 2062.1117,798.6569 2062.1117,808.6569 L2062.1117,833.9537 C2062.1117,843.9537 2016.0008,843.9537 2016.0008,843.9537 C2016.0008,843.9537 1969.89,843.9537 1969.89,833.9537 L1969.89,808.6569" fill="#3B48CC" style="stroke:#181818;stroke-width:0.5;"/><path d="M1969.89,808.6569 C1969.89,818.6569 2016.0008,818.6569 2016.0008,818.6569 C2016.0008,818.6569 2062.1117,818.6569 2062.1117,808.6569" fill="none" style="stroke:#181818;stroke-width:0.5;"/><text fill="#000000" font-family="sans-serif" font-size="14" lengthAdjust="spacing" textLength="72.2217" x="1979.89" y="835.652">Redis 5GB</text></g><!--entity s3p_cn--><g class="entity" data-qualified-name="cn_region.Data .s3p_cn" data-source-line="53" id="ent0029"><rect fill="#3F8624" height="36.2969" rx="35" ry="35" style="stroke:#181818;stroke-width:0.5;" width="89.4736" x="1845.26" y="803.1569"/><text fill="#000000" font-family="sans-serif" font-size="14" lengthAdjust="spacing" textLength="69.4736" x="1855.26" y="826.152">S3 Photos</text></g><!--entity s3a_cn--><g class="entity" data-qualified-name="cn_region.Data .s3a_cn" data-source-line="54" id="ent0030"><rect fill="#3F8624" height="36.2969" rx="35" ry="35" style="stroke:#181818;stroke-width:0.5;" width="87.8057" x="1722.1" y="803.1569"/><text fill="#000000" font-family="sans-serif" font-size="14" lengthAdjust="spacing" textLength="67.8057" x="1732.1" y="826.152">S3 Assets</text></g><!--entity gv--><g class="entity" data-qualified-name="AI Services.gv" data-source-line="64" id="ent0035"><rect fill="#4285F4" height="36.2969" rx="2.5" ry="2.5" style="stroke:#181818;stroke-width:0.5;" width="142.5068" x="457.75" y="1007.3969"/><text fill="#000000" font-family="sans-serif" font-size="14" lengthAdjust="spacing" textLength="122.5068" x="467.75" y="1030.392">Google Vision API</text></g><!--entity openai--><g class="entity" data-qualified-name="AI Services.openai" data-source-line="65" id="ent0036"><rect fill="#00A67E" height="52.5938" rx="2.5" ry="2.5" style="stroke:#181818;stroke-width:0.5;" width="126.9277" x="137.54" y="999.2569"/><text fill="#000000" font-family="sans-serif" font-size="14" lengthAdjust="spacing" textLength="106.9277" x="147.54" y="1022.252">OpenAI GPT-4V</text><text fill="#000000" font-family="sans-serif" font-size="14" lengthAdjust="spacing" textLength="64.1211" x="168.9433" y="1038.5489">(US only)</text></g><!--entity gemini--><g class="entity" data-qualified-name="AI Services.gemini" data-source-line="66" id="ent0037"><rect fill="#4285F4" height="52.5938" rx="2.5" ry="2.5" style="stroke:#181818;stroke-width:0.5;" width="123.5713" x="299.21" y="999.2569"/><text fill="#000000" font-family="sans-serif" font-size="14" lengthAdjust="spacing" textLength="103.5713" x="309.21" y="1022.252">Google Gemini</text><text fill="#000000" font-family="sans-serif" font-size="14" lengthAdjust="spacing" textLength="90.1797" x="315.9058" y="1038.5489">(CN fallback)</text></g><!--entity stripe--><g class="entity" data-qualified-name="3rd Party.stripe" data-source-line="70" id="ent0039"><rect fill="#635BFF" height="36.2969" rx="2.5" ry="2.5" style="stroke:#181818;stroke-width:0.5;" width="61.5215" x="1190.24" y="803.1569"/><text fill="#000000" font-family="sans-serif" font-size="14" lengthAdjust="spacing" textLength="41.5215" x="1200.24" y="826.152">Stripe</text></g><!--entity maps--><g class="entity" data-qualified-name="3rd Party.maps" data-source-line="71" id="ent0040"><rect fill="#4285F4" height="36.2969" rx="2.5" ry="2.5" style="stroke:#181818;stroke-width:0.5;" width="137.2568" x="1018.37" y="803.1569"/><text fill="#000000" font-family="sans-serif" font-size="14" lengthAdjust="spacing" textLength="117.2568" x="1028.37" y="826.152">Google Maps API</text></g><!--entity us_users--><g class="entity" data-qualified-name="us_users" data-source-line="14" id="ent0002"><ellipse cx="1189.9955" cy="51.2969" fill="#F1F1F1" rx="8" ry="8" style="stroke:#181818;stroke-width:0.5;"/><path d="M1189.9955,59.2969 L1189.9955,86.2969 M1176.9955,67.2969 L1202.9955,67.2969 M1189.9955,86.2969 L1176.9955,101.2969 M1189.9955,86.2969 L1202.9955,101.2969" fill="none" style="stroke:#181818;stroke-width:0.5;"/><text fill="#000000" font-family="sans-serif" font-size="14" lengthAdjust="spacing" textLength="62.7881" x="1158.6015" y="115.792">US Users</text><text fill="#000000" font-family="sans-serif" font-size="14" lengthAdjust="spacing" textLength="93.8711" x="1143.06" y="132.0889">(iOS/Android)</text></g><!--entity cn_users--><g class="entity" data-qualified-name="cn_users" data-source-line="15" id="ent0003"><ellipse cx="1318.9955" cy="51.2969" fill="#F1F1F1" rx="8" ry="8" style="stroke:#181818;stroke-width:0.5;"/><path d="M1318.9955,59.2969 L1318.9955,86.2969 M1305.9955,67.2969 L1331.9955,67.2969 M1318.9955,86.2969 L1305.9955,101.2969 M1318.9955,86.2969 L1331.9955,101.2969" fill="none" style="stroke:#181818;stroke-width:0.5;"/><text fill="#000000" font-family="sans-serif" font-size="14" lengthAdjust="spacing" textLength="83.6445" x="1277.1733" y="115.792">China Users</text><text fill="#000000" font-family="sans-serif" font-size="14" lengthAdjust="spacing" textLength="93.8711" x="1272.06" y="132.0889">(iOS/Android)</text></g><!--entity dns--><g class="entity" data-qualified-name="dns" data-source-line="17" id="ent0004"><path d="M1170.0472,205.8944 C1173.0226,200.4046 1177.5349,200.7493 1180.8629,205.5229 C1185.0836,199.3685 1190.8714,200.2404 1194.4601,206.2305 C1196.6257,201.2146 1201.7801,199.8111 1205.5695,204.3407 C1209.2995,199.349 1214.3898,198.0327 1217.7027,204.7721 C1221.8984,198.944 1226.7104,198.5 1230.5602,205.1291 C1232.8298,199.2063 1238.1732,198.8063 1242.0804,203.3217 C1246.5421,197.2134 1251.692,196.7903 1255.8424,203.6519 C1260.45,198.308 1264.7653,198.4022 1268.4802,204.6271 C1271.7543,198.8365 1277.0764,199.2966 1279.9553,205.0209 C1283.3516,198.4248 1289.394,198.6514 1292.2981,205.4738 C1296.455,200.1424 1301.3087,199.6629 1305.2267,205.7444 C1307.3277,199.6725 1312.028,199.3875 1315.5907,204.3745 C1318.8631,198.727 1324.7127,198.4752 1328.0514,204.3026 C1332.6983,198.7472 1338.5296,200.1535 1341.0956,206.5699 C1348.4321,207.7535 1349.7708,211.9787 1345.5905,217.7801 C1351.2133,219.122 1354.3319,223.1583 1350.0067,228.5712 C1354.4708,234.5097 1352.4919,239.8987 1344.7578,240.4447 C1350.0794,245.8081 1346.8747,251.465 1340.5524,252.8956 C1338.1342,259.5553 1333.2794,258.8961 1329.2282,254.5805 C1325.9356,261.003 1320.7625,260.7268 1316.4374,255.7379 C1313.3727,260.857 1308.1089,261.1862 1304.9868,255.8006 C1301.4699,263.3091 1296.5009,262.4926 1291.797,257.0053 C1288.7711,263.8574 1284.1941,264.5561 1279.0731,259.1863 C1275.6423,264.4452 1271.7741,265.7474 1267.1531,260.5421 C1264.8231,266.1457 1260.7553,267.5827 1256.3188,262.7233 C1251.6055,269.2694 1245.2725,267.9776 1242.1328,261.0647 C1237.0011,265.5012 1232.6929,265.6249 1230.0443,258.4742 C1226.2901,263.9197 1222.6273,264.6299 1218.5154,258.8412 C1213.5461,263.7404 1209.4547,264.0995 1205.7205,257.4704 C1201.2339,262.6042 1195.8758,262.0069 1193.6538,255.1848 C1187.9865,261.3095 1184.248,259.0587 1180.9263,252.7782 C1177.0422,257.2797 1171.6633,257.5302 1169.3207,251.1362 C1163.6433,247.9131 1163.5633,243.9304 1168.2585,239.7405 C1161.5444,237.9247 1160.8072,232.2693 1165.6368,227.898 C1160.0925,223.3366 1161.9181,218.1647 1168.3137,216.3777 C1163.0517,212.4914 1163.8638,207.8882 1170.0472,205.8944" fill="#F1F1F1" style="stroke:#181818;stroke-width:0.5;"/><text fill="#000000" font-family="sans-serif" font-size="14" lengthAdjust="spacing" textLength="63.5332" x="1222.2292" y="224.392">Route 53</text><text fill="#000000" font-family="sans-serif" font-size="14" lengthAdjust="spacing" textLength="157.4316" x="1175.28" y="240.6889">Latency-based routing</text></g><!--entity cdn_us--><g class="entity" data-qualified-name="cdn_us" data-source-line="18" id="ent0005"><path d="M1093.0569,353.9484 C1096.3049,347.4185 1101.5125,347.3349 1105.6397,353.0447 C1110.3752,347.7268 1114.4383,347.8825 1118.6844,353.6221 C1123.0198,347.5425 1128.2926,347.1153 1132.8368,353.3828 C1136.9188,348.0792 1141.119,347.0759 1145.4772,353.0739 C1149.0188,346.0989 1155.0619,346.2293 1159.4741,352.1272 C1163.345,345.6036 1167.5726,345.8506 1172.296,351.207 C1177.2837,345.9064 1182.081,344.8714 1186.2696,352.0982 C1191.1715,346.2483 1195.1841,346.8268 1199.1735,353.0718 C1202.696,348.4718 1208.0349,348.5468 1210.8985,353.8517 C1214.4007,345.9415 1221.5877,346.4463 1225.5002,353.45 C1230.4157,357.2646 1232.2407,360.9193 1225.9685,365.1806 C1232.5663,366.8677 1234.4906,371.9665 1228.9764,376.7914 C1232.9009,381.0298 1232.3412,384.4309 1227.5653,387.5255 C1233.2733,392.6671 1232.5419,396.6248 1225.5095,399.5967 C1222.9532,405.4355 1218.9532,406.5864 1214.0979,402.1501 C1210.1775,407.3502 1205.7244,407.0933 1202.1276,401.7816 C1199.0806,407.6136 1195.6219,407.0389 1191.3704,403.1088 C1188.926,407.8928 1185.7767,409.2331 1181.5446,405.0726 C1178.5797,411.9705 1174.858,413.485 1169.2035,407.6871 C1166.7083,412.7158 1161.8717,413.2406 1158.2948,408.9538 C1155.0402,412.8653 1151.2753,412.3022 1148.8084,408.0396 C1144.1441,412.9358 1138.9459,411.4148 1137.9535,404.628 C1134.6147,408.8796 1130.4547,409.8577 1127.2364,404.4936 C1122.076,409.6244 1117.5306,409.2948 1114.8665,402.0071 C1111.4917,406.5832 1107.0805,405.4545 1104.6216,400.9712 C1100.7828,406.0892 1095.9726,404.8706 1094.2576,398.973 C1089.412,396.848 1087.3077,393.6897 1091.5455,389.0756 C1084.8419,386.9043 1082.5516,381.8259 1088.0571,376.3166 C1083.1734,371.5798 1083.5994,367.0386 1090.5647,364.9057 C1085.9317,360.7826 1087.0209,355.645 1093.0569,353.9484" fill="#F1F1F1" style="stroke:#181818;stroke-width:0.5;"/><text fill="#000000" font-family="sans-serif" font-size="14" lengthAdjust="spacing" textLength="112.2051" x="1101.8926" y="372.132">CloudFront CDN</text><text fill="#000000" font-family="sans-serif" font-size="14" lengthAdjust="spacing" textLength="117.5303" x="1099.23" y="388.4289">US edge caching</text></g><!--entity cdn_cn--><g class="entity" data-qualified-name="cdn_cn" data-source-line="19" id="ent0006"><path d="M1335.5987,344.8986 C1339.3327,338.5346 1344.2781,338.1705 1348.2889,344.6247 C1351.3708,337.9788 1357.2752,337.6049 1361.7841,343.0293 C1365.6098,337.8056 1370.2849,336.8045 1373.9115,343.2365 C1377.7196,336.2986 1382.4965,334.9539 1387.5214,342.0571 C1390.1835,336.4225 1395.3815,334.6553 1399.8293,340.0675 C1402.4652,333.7557 1407.5769,333.2884 1411.2362,339.105 C1415.9312,332.2668 1421.1126,332.5249 1425.0367,339.8559 C1429.1502,334.5303 1434.4938,336.292 1437.0767,341.5904 C1441.8148,336.3074 1446.8816,337.2186 1450.3546,343.0955 C1454.0678,336.1147 1458.9565,336.7404 1463.2444,342.5148 C1467.868,336.6272 1472.0353,337.7467 1475.4793,343.7305 C1480.0001,338.8889 1484.4494,337.9401 1488.1243,344.656 C1495.563,347.8319 1499.0038,355.5775 1490.6625,361.1777 C1498.0271,364.2755 1498.7576,371.534 1492.4384,376.2447 C1499.6703,383.14 1496.78,387.5507 1489.4125,391.5619 C1495.7458,397.6415 1495.7936,404.1622 1487.5174,408.6186 C1484.4526,414.9641 1479.3707,414.0114 1475.8232,409.121 C1471.1465,415.7902 1465.9301,415.3329 1462.3083,408.0957 C1459.5799,413.6288 1454.2225,413.8898 1450.5851,409.1313 C1446.6827,415.3356 1441.1567,415.254 1437.8988,408.5003 C1433.3878,415.1627 1429.0115,416.1031 1423.7281,409.314 C1419.9303,414.3059 1415.9635,413.3898 1412.979,408.4351 C1409.4948,415.0531 1403.0334,416.5823 1398.4283,409.6375 C1394.8756,413.7459 1390.5857,414.4545 1387.7064,408.891 C1383.2158,414.0668 1379.1003,414.5495 1375.0652,408.3834 C1371.948,414.825 1365.6379,414.3337 1362.2067,408.7182 C1357.4157,415.5048 1353.1454,413.7153 1349.2124,407.8379 C1345.7807,414.09 1339.0022,414.6338 1335.374,408.0497 C1327.5489,403.5396 1328.1687,396.3796 1335.1454,391.6631 C1327.0777,389.4175 1327.5291,382.2119 1332.6443,377.6186 C1324.5131,371.5452 1325.9829,364.2232 1334.4474,359.8321 C1327.2162,355.1391 1328.7627,348.5071 1335.5987,344.8986" fill="#F1F1F1" style="stroke:#181818;stroke-width:0.5;"/><text fill="#000000" font-family="sans-serif" font-size="14" lengthAdjust="spacing" textLength="112.2051" x="1354.9008" y="363.982">CloudFront CDN</text><text fill="#000000" font-family="sans-serif" font-size="14" lengthAdjust="spacing" textLength="138.3867" x="1341.81" y="380.2789">China edge caching</text><text fill="#000000" font-family="sans-serif" font-size="14" lengthAdjust="spacing" textLength="111.7949" x="1355.1059" y="396.5757">(via ICP license)</text></g><!--entity auth--><g class="entity" data-qualified-name="auth" data-source-line="61" id="ent0033"><rect fill="#DD344C" height="52.5938" rx="2.5" ry="2.5" style="stroke:#181818;stroke-width:0.5;" width="130.9678" x="1141.52" y="631.4669"/><text fill="#000000" font-family="sans-serif" font-size="14" lengthAdjust="spacing" textLength="54.0449" x="1179.9814" y="654.462">Cognito</text><text fill="#000000" font-family="sans-serif" font-size="14" lengthAdjust="spacing" textLength="110.9678" x="1151.52" y="670.7589">OAuth 2.0/OIDC</text></g><!--entity slack--><g class="entity" data-qualified-name="slack" data-source-line="74" id="ent0041"><rect fill="#611F69" height="36.2969" rx="2.5" ry="2.5" style="stroke:#181818;stroke-width:0.5;" width="102.2295" x="1000.89" y="639.6169"/><text fill="#000000" font-family="sans-serif" font-size="14" lengthAdjust="spacing" textLength="82.2295" x="1010.89" y="662.612">Slack Alerts</text></g><!--link us_users to dns--><g class="link" data-entity-1="ent0002" data-entity-2="ent0004" data-link-type="dependency" data-source-line="77" id="lnk42"><path d="M1211.31,135.5769 C1220.62,155.4469 1228.743,172.7943 1237.093,190.6043" fill="none" id="us_users-to-dns" style="stroke:#181818;stroke-width:1;"/><polygon fill="#181818" points="1239.64,196.0369,1239.4412,186.19,1237.5175,191.5097,1232.1978,189.586,1239.64,196.0369" style="stroke:#181818;stroke-width:1;"/></g><!--link dns to cdn_us--><g class="link" data-entity-1="ent0004" data-entity-2="ent0005" data-link-type="dependency" data-source-line="78" id="lnk43"><path d="M1233.88,259.2469 C1217.49,284.1169 1197.7812,314.0467 1181.4012,338.9067" fill="none" id="dns-to-cdn_us" style="stroke:#181818;stroke-width:1;"/><polygon fill="#181818" points="1178.1,343.9169,1186.3919,338.6023,1180.851,339.7417,1179.7116,334.2008,1178.1,343.9169" style="stroke:#181818;stroke-width:1;"/><text fill="#000000" font-family="sans-serif" font-size="13" lengthAdjust="spacing" textLength="69.6528" x="1212" y="302.0538">US latency</text></g><!--link cdn_us to alb_us--><g class="link" data-entity-1="ent0005" data-entity-2="ent0008" data-link-type="dependency" data-source-line="79" id="lnk44"><path d="M1084.03,379.5169 C1015.35,385.6369 912.99,403.3269 840,453.8769 C824.62,464.5269 815.9938,477.5956 809.1938,491.2556" fill="none" id="cdn_us-to-alb_us" style="stroke:#181818;stroke-width:1;"/><polygon fill="#181818" points="806.52,496.6269,814.1116,490.3525,808.7482,492.1508,806.9499,486.7874,806.52,496.6269" style="stroke:#181818;stroke-width:1;"/></g><!--link alb_us to ecs_us--><g class="link" data-entity-1="ent0008" data-entity-2="ent0010" data-link-type="dependency" data-source-line="80" id="lnk45"><path d="M775.34,521.7169 C695.61,540.8969 439.9635,602.4032 303.8635,635.1532" fill="none" id="alb_us-to-ecs_us" style="stroke:#181818;stroke-width:1;"/><polygon fill="#181818" points="298.03,636.5569,307.716,638.3403,302.8912,635.3871,305.8444,630.5623,298.03,636.5569" style="stroke:#181818;stroke-width:1;"/></g><!--link ecs_us to db_us--><g class="link" data-entity-1="ent0010" data-entity-2="ent0014" data-link-type="dependency" data-source-line="81" id="lnk46"><path d="M297.88,665.1269 C431.7,676.2369 686.81,701.6469 769,739.3669 C790.98,749.4469 807.3756,762.2269 823.6356,778.0169" fill="none" id="ecs_us-to-db_us" style="stroke:#181818;stroke-width:1;"/><polygon fill="#181818" points="827.94,782.1969,824.2701,773.0573,824.353,778.7136,818.6968,778.7965,827.94,782.1969" style="stroke:#181818;stroke-width:1;"/></g><!--link ecs_us to cache_us--><g class="link" data-entity-1="ent0010" data-entity-2="ent0015" data-link-type="dependency" data-source-line="82" id="lnk47"><path d="M297.77,667.5469 C405.21,680.0069 584.44,705.1369 641,739.3669 C664.45,753.5569 679.7112,774.5116 690.6212,793.2516" fill="none" id="ecs_us-to-cache_us" style="stroke:#181818;stroke-width:1;"/><polygon fill="#181818" points="693.64,798.4369,692.5687,788.6465,691.1244,794.1158,685.655,792.6715,693.64,798.4369" style="stroke:#181818;stroke-width:1;"/></g><!--link ecs_us to s3p_us--><g class="link" data-entity-1="ent0010" data-entity-2="ent0016" data-link-type="dependency" data-source-line="83" id="lnk48"><path d="M297.77,666.5269 C361.93,675.7569 450.29,695.8269 516,739.3669 C540.35,755.4969 556.3877,778.9591 566.9077,797.4891" fill="none" id="ecs_us-to-s3p_us" style="stroke:#181818;stroke-width:1;"/><polygon fill="#181818" points="569.87,802.7069,568.9051,792.9054,567.4014,798.3587,561.9481,796.8551,569.87,802.7069" style="stroke:#181818;stroke-width:1;"/></g><!--link s3p_us to sqs_us--><g class="link" data-entity-1="ent0016" data-entity-2="ent0011" data-link-type="dependency" data-source-line="84" id="lnk49"><path d="M570.9,802.9569 C560.93,783.7769 542.06,753.6969 516,739.3669 C476.58,717.6769 153.73,719.4669 113,700.3669 C99.25,693.9169 91.0473,685.7501 83.4673,676.0201" fill="none" id="s3p_us-to-sqs_us" style="stroke:#181818;stroke-width:1;"/><polygon fill="#181818" points="79.78,671.2869,82.1555,680.845,82.8528,675.2312,88.4665,675.9285,79.78,671.2869" style="stroke:#181818;stroke-width:1;"/></g><!--link sqs_us to ar_us--><g class="link" data-entity-1="ent0011" data-entity-2="ent0012" data-link-type="dependency" data-source-line="85" id="lnk50"><path d="M80.99,671.1769 C103.93,699.6969 156.7278,765.3029 183.1778,798.1629" fill="none" id="sqs_us-to-ar_us" style="stroke:#181818;stroke-width:1;"/><polygon fill="#181818" points="186.94,802.8369,184.4127,793.3178,183.8048,798.9419,178.1807,798.3341,186.94,802.8369" style="stroke:#181818;stroke-width:1;"/></g><!--link ar_us to gv--><g class="link" data-entity-1="ent0012" data-entity-2="ent0035" data-link-type="dependency" data-source-line="86" id="lnk51"><path d="M216.56,839.7569 C234.5,858.9369 265.69,889.5169 298,908.2569 C326.82,924.9669 410.61,940.5669 440,956.2569 C466.29,970.2869 488.4388,987.9696 505.6388,1003.1296" fill="none" id="ar_us-to-gv" style="stroke:#181818;stroke-width:1;"/><polygon fill="#181818" points="510.14,1007.0969,506.0331,998.1451,506.389,1003.7908,500.7434,1004.1467,510.14,1007.0969" style="stroke:#181818;stroke-width:1;"/></g><!--link ar_us to openai--><g class="link" data-entity-1="ent0012" data-entity-2="ent0036" data-link-type="dependency" data-source-line="87" id="lnk52"><path d="M201,839.8969 C201,875.7469 201,951.3669 201,993.0369" fill="none" id="ar_us-to-openai" style="stroke:#181818;stroke-width:1;"/><polygon fill="#181818" points="201,999.0369,205,990.0369,201,994.0369,197,990.0369,201,999.0369" style="stroke:#181818;stroke-width:1;"/></g><!--link ar_us to gemini--><g class="link" data-entity-1="ent0012" data-entity-2="ent0037" data-link-type="dependency" data-source-line="88" id="lnk53"><path d="M214.92,839.8969 C243.28,875.7469 304.1271,952.6616 337.0971,994.3316" fill="none" id="ar_us-to-gemini" style="stroke:#181818;stroke-width:1;"/><polygon fill="#181818" points="340.82,999.0369,338.3725,989.497,337.7176,995.1158,332.0988,994.4609,340.82,999.0369" style="stroke:#181818;stroke-width:1;"/></g><!--link ecs_us to ses_us--><g class="link" data-entity-1="ent0010" data-entity-2="ent0018" data-link-type="dependency" data-source-line="89" id="lnk54"><path d="M275.09,700.8569 C288.99,712.2769 302.91,725.3869 314,739.3669 C329.51,758.9169 338.8083,780.0122 345.1383,797.3122" fill="none" id="ecs_us-to-ses_us" style="stroke:#181818;stroke-width:1;"/><polygon fill="#181818" points="347.2,802.9469,347.8639,793.1204,345.4819,798.2513,340.351,795.8694,347.2,802.9469" style="stroke:#181818;stroke-width:1;"/></g><!--link ecs_us to stripe--><g class="link" data-entity-1="ent0010" data-entity-2="ent0039" data-link-type="dependency" data-source-line="90" id="lnk55"><path d="M297.9,661.4469 C517.93,669.0969 1099.73,693.4569 1173,739.3669 C1195.98,753.7569 1207.3947,777.851 1213.9547,796.991" fill="none" id="ecs_us-to-stripe" style="stroke:#181818;stroke-width:1;"/><polygon fill="#181818" points="1215.9,802.6669,1216.7659,792.8562,1214.2789,797.937,1209.1981,795.4499,1215.9,802.6669" style="stroke:#181818;stroke-width:1;"/></g><!--link ecs_us to maps--><g class="link" data-entity-1="ent0010" data-entity-2="ent0040" data-link-type="dependency" data-source-line="91" id="lnk56"><path d="M297.77,663.2969 C464.96,673.0869 834.24,698.6669 954,739.3669 C996.48,753.7969 1035.0112,779.9187 1060.2212,799.0587" fill="none" id="ecs_us-to-maps" style="stroke:#181818;stroke-width:1;"/><polygon fill="#181818" points="1065,802.6869,1060.2506,794.0588,1061.0177,799.6634,1055.4131,800.4305,1065,802.6869" style="stroke:#181818;stroke-width:1;"/></g><!--link cw_us to slack--><g class="link" data-entity-1="ent0019" data-entity-2="ent0041" data-link-type="dependency" data-source-line="92" id="lnk57"><path d="M927.7,533.5669 C955.06,560.6869 1003.0378,608.2438 1030.2678,635.2238" fill="none" id="cw_us-to-slack" style="stroke:#181818;stroke-width:1;"/><polygon fill="#181818" points="1034.53,639.4469,1030.9521,630.2709,1030.9782,635.9277,1025.3214,635.9538,1034.53,639.4469" style="stroke:#181818;stroke-width:1;"/></g><!--link cn_users to dns--><g class="link" data-entity-1="ent0003" data-entity-2="ent0004" data-link-type="dependency" data-source-line="95" id="lnk58"><path d="M1297.36,135.5769 C1287.9,155.4469 1279.6369,172.8084 1271.1669,190.6184" fill="none" id="cn_users-to-dns" style="stroke:#181818;stroke-width:1;"/><polygon fill="#181818" points="1268.59,196.0369,1276.0676,189.6271,1270.7374,191.5215,1268.843,186.1913,1268.59,196.0369" style="stroke:#181818;stroke-width:1;"/></g><!--link dns to cdn_cn--><g class="link" data-entity-1="ent0004" data-entity-2="ent0006" data-link-type="dependency" data-source-line="96" id="lnk59"><path d="M1286.91,259.2469 C1310.83,281.4469 1338.9932,307.5842 1364.7532,331.5042" fill="none" id="dns-to-cdn_cn" style="stroke:#181818;stroke-width:1;"/><polygon fill="#181818" points="1369.15,335.5869,1365.2767,326.5316,1365.486,332.1846,1359.8331,332.394,1369.15,335.5869" style="stroke:#181818;stroke-width:1;"/><text fill="#000000" font-family="sans-serif" font-size="13" lengthAdjust="spacing" textLength="70.6875" x="1338" y="302.0538">CN latency</text></g><!--link cdn_cn to alb_cn--><g class="link" data-entity-1="ent0006" data-entity-2="ent0021" data-link-type="dependency" data-source-line="97" id="lnk60"><path d="M1427.87,415.1269 C1439.52,441.8369 1452.052,470.5769 1460.942,490.9669" fill="none" id="cdn_cn-to-alb_cn" style="stroke:#181818;stroke-width:1;"/><polygon fill="#181818" points="1463.34,496.4669,1463.4097,486.6183,1461.3417,491.8836,1456.0764,489.8156,1463.34,496.4669" style="stroke:#181818;stroke-width:1;"/></g><!--link alb_cn to ecs_cn--><g class="link" data-entity-1="ent0021" data-entity-2="ent0023" data-link-type="dependency" data-source-line="98" id="lnk61"><path d="M1476.11,533.5669 C1483.26,558.1069 1494.6116,597.0764 1502.8516,625.3564" fill="none" id="alb_cn-to-ecs_cn" style="stroke:#181818;stroke-width:1;"/><polygon fill="#181818" points="1504.53,631.1169,1505.8527,621.3572,1503.1313,626.3165,1498.172,623.5951,1504.53,631.1169" style="stroke:#181818;stroke-width:1;"/></g><!--link ecs_cn to db_cn--><g class="link" data-entity-1="ent0023" data-entity-2="ent0027" data-link-type="dependency" data-source-line="99" id="lnk62"><path d="M1609.16,665.8669 C1748.71,677.1969 1998.13,701.9569 2080,739.3669 C2102,749.4169 2118.3969,762.1855 2134.6569,777.9855" fill="none" id="ecs_cn-to-db_cn" style="stroke:#181818;stroke-width:1;"/><polygon fill="#181818" points="2138.96,782.1669,2135.293,773.0262,2135.3741,778.6824,2129.7178,778.7636,2138.96,782.1669" style="stroke:#181818;stroke-width:1;"/></g><!--link ecs_cn to cache_cn--><g class="link" data-entity-1="ent0023" data-entity-2="ent0028" data-link-type="dependency" data-source-line="100" id="lnk63"><path d="M1608.95,668.4769 C1720.48,681.0369 1895.52,705.3869 1952,739.3669 C1975.49,753.4869 1990.7457,774.459 2001.6457,793.219" fill="none" id="ecs_cn-to-cache_cn" style="stroke:#181818;stroke-width:1;"/><polygon fill="#181818" points="2004.66,798.4069,2003.5972,788.6155,2002.1481,794.0836,1996.68,792.6346,2004.66,798.4069" style="stroke:#181818;stroke-width:1;"/></g><!--link ecs_cn to s3p_cn--><g class="link" data-entity-1="ent0023" data-entity-2="ent0029" data-link-type="dependency" data-source-line="101" id="lnk64"><path d="M1609.19,667.0969 C1675.08,676.5169 1761.72,696.5969 1827,739.3669 C1851.43,755.3669 1867.459,778.8628 1877.949,797.4328" fill="none" id="ecs_cn-to-s3p_cn" style="stroke:#181818;stroke-width:1;"/><polygon fill="#181818" points="1880.9,802.6569,1879.9562,792.8533,1878.4408,798.3034,1872.9907,796.7881,1880.9,802.6569" style="stroke:#181818;stroke-width:1;"/></g><!--link s3p_cn to sqs_cn--><g class="link" data-entity-1="ent0029" data-entity-2="ent0024" data-link-type="dependency" data-source-line="102" id="lnk65"><path d="M1881.91,802.9269 C1871.96,783.7269 1853.1,753.6169 1827,739.3669 C1785,716.4169 1441.39,720.5569 1398,700.3669 C1384.23,693.9569 1376.0196,685.7961 1368.4496,676.0461" fill="none" id="s3p_cn-to-sqs_cn" style="stroke:#181818;stroke-width:1;"/><polygon fill="#181818" points="1364.77,671.3069,1367.1299,680.8688,1367.8363,675.2563,1373.4489,675.9627,1364.77,671.3069" style="stroke:#181818;stroke-width:1;"/></g><!--link sqs_cn to ar_cn--><g class="link" data-entity-1="ent0024" data-entity-2="ent0025" data-link-type="dependency" data-source-line="103" id="lnk66"><path d="M1361.3,671.1769 C1373.48,699.6969 1401.1426,764.4594 1415.1826,797.3194" fill="none" id="sqs_cn-to-ar_cn" style="stroke:#181818;stroke-width:1;"/><polygon fill="#181818" points="1417.54,802.8369,1417.6822,792.989,1415.5755,798.239,1410.3255,796.1323,1417.54,802.8369" style="stroke:#181818;stroke-width:1;"/></g><!--link ar_cn to gv--><g class="link" data-entity-1="ent0025" data-entity-2="ent0035" data-link-type="dependency" data-source-line="104" id="lnk67"><path d="M1399.62,839.8269 C1369.59,859.6569 1317.41,891.4169 1268,908.2569 C1032.27,988.5969 741.0604,1013.4875 606.7304,1021.0975" fill="none" id="ar_cn-to-gv" style="stroke:#181818;stroke-width:1;"/><polygon fill="#181818" points="600.74,1021.4369,609.9518,1024.9214,605.732,1021.1541,609.4993,1016.9342,600.74,1021.4369" style="stroke:#181818;stroke-width:1;"/></g><!--link ar_cn to gemini--><g class="link" data-entity-1="ent0025" data-entity-2="ent0037" data-link-type="dependency" data-source-line="105" id="lnk68"><path d="M1401.53,839.8269 C1372.1,860.6369 1319.27,894.2969 1268,908.2569 C1240.11,915.8469 1036.87,914.7969 1008,916.2569 C881.63,922.6469 556.96,907.9569 440,956.2569 C417.71,965.4569 401.3959,979.1801 386.8859,994.4301" fill="none" id="ar_cn-to-gemini" style="stroke:#181818;stroke-width:1;"/><polygon fill="#181818" points="382.75,998.7769,391.8517,995.0139,386.1966,995.1545,386.0559,989.4994,382.75,998.7769" style="stroke:#181818;stroke-width:1;"/><text fill="#000000" font-family="sans-serif" font-size="13" lengthAdjust="spacing" textLength="103.0479" x="1013.71" y="929.3238">CN uses Gemini</text><text fill="#000000" font-family="sans-serif" font-size="13" lengthAdjust="spacing" textLength="112.4678" x="1009" y="944.4566">(OpenAI blocked)</text></g><!--link ecs_cn to ses_cn--><g class="link" data-entity-1="ent0023" data-entity-2="ent0031" data-link-type="dependency" data-source-line="106" id="lnk69"><path d="M1558.58,684.4669 C1580.81,698.4769 1606.52,717.4369 1625,739.3669 C1641.08,758.4469 1650.3085,779.637 1656.4485,797.087" fill="none" id="ecs_cn-to-ses_cn" style="stroke:#181818;stroke-width:1;"/><polygon fill="#181818" points="1658.44,802.7469,1659.226,792.9294,1656.7804,798.0303,1651.6795,795.5848,1658.44,802.7469" style="stroke:#181818;stroke-width:1;"/></g><!--link cw_cn to slack--><g class="link" data-entity-1="ent0032" data-entity-2="ent0041" data-link-type="dependency" data-source-line="107" id="lnk70"><path d="M1307.67,519.1269 C1257.34,524.1769 1180.74,537.4169 1124,572.1769 C1096.54,588.9969 1077.4419,614.7801 1065.2819,634.2201" fill="none" id="cw_cn-to-slack" style="stroke:#181818;stroke-width:1;"/><polygon fill="#181818" points="1062.1,639.3069,1070.264,633.7979,1064.7516,635.0679,1063.4816,629.5554,1062.1,639.3069" style="stroke:#181818;stroke-width:1;"/></g><!--link alb_cn to auth--><g class="link" data-entity-1="ent0021" data-entity-2="ent0033" data-link-type="dependency" data-source-line="112" id="lnk71"><path d="M1447.26,526.2669 C1441.63,528.6169 1435.63,531.0369 1430,533.1769 C1379.94,552.1869 1363.13,546.7469 1316,572.1769 C1286.07,588.3269 1260.3127,608.6327 1239.3027,627.0427" fill="none" id="alb_cn-to-auth" style="stroke:#181818;stroke-width:1;"/><polygon fill="#181818" points="1234.79,630.9969,1244.1951,628.074,1238.5506,627.7017,1238.9229,622.0571,1234.79,630.9969" style="stroke:#181818;stroke-width:1;"/></g><!--link alb_us to auth--><g class="link" data-entity-1="ent0008" data-entity-2="ent0033" data-link-type="dependency" data-source-line="113" id="lnk72"><path d="M822.92,527.2469 C828.43,529.4869 834.34,531.6269 840,533.1769 C961.62,566.4469 1007.88,516.4769 1121,572.1769 C1148.62,585.7769 1169.1327,606.961 1184.7827,626.531" fill="none" id="alb_us-to-auth" style="stroke:#181818;stroke-width:1;"/><polygon fill="#181818" points="1188.53,631.2169,1186.033,621.6898,1185.4073,627.3119,1179.7851,626.6862,1188.53,631.2169" style="stroke:#181818;stroke-width:1;"/></g><?plantuml-src bLRDRjiu4BxpAGZxq0IxtZYnupevBA38KXh0ZTqeRO25WGKjqJ8HcLH8Egcn2B3NlUy3xBFrINP8IWxb_BGzn1677sU6ttmSKZDTK3mfDHCS7vtYZ-j2iyuLpStusz__uiy9_WM7IyO9thkcKfA5aAjEHij2R6YsZv2wPRmaagpmdAItkHHhdeMY418_B9cctdmgLgNWbEj4Ro2efAacF2zyI4ON13AufbzrKB2Shm2DK_YXqaDjL-A_4CPLHCcfn8TTzEW1IyY8v0vsjfDTEnx69t5WPeJCgAoieoWwYWRW1P5KWw4517nMLAePtsEJv23WcHGisszXel1Q_RasSpNMyVGgFEKL7AM5M6UuTINMckBZteoFYQOytNJcHD7CR4apdjj56LSrF3J_OYc0at1qEUEG6irWUob9bpKypKoGrrQu1Fr5aESz8_WYdEA20TEAxc_zf1oX9wvRmGrGaNIY8Bdk7EAzgMGh8ZTR9gGJJJiQniVHYULyMt5OF3wpG5BC8Jz0ZTuVThi8G7MHMY6WWO-MNTfO78K9I5DmKJ2zX7qR4a6MKo8rjvypVaK13tB9Y96oDKt9nkZ78CTYGmgziHdGLDaCulZa138meUxMT0q999yIYr1tDQ8V3yzsancJrJmZfpYum2Pepfc9w3OdcvuV6_iR4KtgpK6QnDGQjwP2wLpIvDDunjtf2_w0t1svU0zgR3NZQCuSURsp_Z0CTnnTqOmfV7pkU3RbfRjW1IgrgIGzF5qABPJRRwzqo7WuEEe_GmPAKLqZIHDfT-YHaqGLXNI7GWzZHNb3TBfqcJxuoCTdaWilEvUJg-iFDv7JtIMezYiZsoDLwowEurxKVKjtANzBT_ZxmjjJP4KnL2Qdlq9UWEGBbkzlPPNoxydA8NvULWtFpsM5VrfNa7rJLoR23-jg1_o6hYpoXtJLGBwbgmQ7R-hAGu937shv5JC-2TPwYOz-wnvCBaQXOzjOsgDHhzyF4ThI37L9gBo77WaflzBapeKmilt2b55aCBsm3lDxtEuV3O_ZVXCzAIa7h-VJwqx_2uWBZhhWHTLG1KmIXjlTRZ1u7xqOvfok66Um46gv84LXxb-tEBSpswYFtZPwChDz4thXAoScqPALrB5jFt5xq3i-Y-CNa_X8IhNTwSeClAY-rm8om451PLroQsWF3WyNWnE4tfcNng8G3wY-L76dyxkz_U3FVhkh3PyQPE7kIrJPpBIxML1rmHYBw_IeQlZMtNp7KBT9t-RQ8QgwehNO2m5Lzu8D9cqiMO_pUs_WQkVFsdeqOj3Tr1pNliMmYLntj013c27AbDiGLJydNYGAf7zga3vHOAk9WgkzweWrKM2fMbX5LDDGdtlVviutgevvJPInt6qnjdSXry6UYAe7JgSsKTYAUf9qTJRcXKXlpJFJZsfR07B7kq7CfS2f54frgYl1z32i9U5g0U_7TtXCU0RTxzPqL0h1HIv9kMGfd9qDLYLDsOAbjZKMM-ItV_vpUgiC--1dLFL6vsUnDiiPXpSnF3-Cs4juYKulfkE3C1aVZ9AnJxNfBhv6pVX_?></g></svg>