<?plantuml 1.2026.1?><svg xmlns="http://www.w3.org/2000/svg" xmlns:xlink="http://www.w3.org/1999/xlink" contentStyleType="text/css" data-diagram-type="GANTT" height="1061px" preserveAspectRatio="none" style="width:2063px;height:1061px;background:#FFFFFF;" version="1.1" viewBox="0 0 2063 1061" width="2063px" zoomAndPan="magnify"><title>Option 2: Validate + Monetize &#8212; ~8 months, 5 devs, US (RECOMMENDED)</title><defs/><g><g class="title" data-source-line="1"><text fill="#000000" font-family="sans-serif" font-size="14" font-weight="bold" lengthAdjust="spacing" textLength="582.0732" x="644.4634" y="22.9951">Option 2: Validate + Monetize &#8212; ~8 months, 5 devs, US (RECOMMENDED)</text></g><text fill="#000000" font-family="sans-serif" font-size="10" lengthAdjust="spacing" textLength="12.7246" x="13" y="62.5791">10</text><text fill="#000000" font-family="sans-serif" font-size="10" lengthAdjust="spacing" textLength="12.7246" x="69" y="62.5791">11</text><text fill="#000000" font-family="sans-serif" font-size="10" lengthAdjust="spacing" textLength="12.7246" x="125" y="62.5791">12</text><text fill="#000000" font-family="sans-serif" font-size="10" lengthAdjust="spacing" textLength="12.7246" x="181" y="62.5791">13</text><text fill="#000000" font-family="sans-serif" font-size="10" lengthAdjust="spacing" textLength="12.7246" x="237" y="62.5791">14</text><text fill="#000000" font-family="sans-serif" font-size="10" lengthAdjust="spacing" textLength="12.7246" x="293" y="62.5791">15</text><text fill="#000000" font-family="sans-serif" font-size="10" lengthAdjust="spacing" textLength="12.7246" x="349" y="62.5791">16</text><text fill="#000000" font-family="sans-serif" font-size="10" lengthAdjust="spacing" textLength="12.7246" x="405" y="62.5791">17</text><text fill="#000000" font-family="sans-serif" font-size="10" lengthAdjust="spacing" textLength="12.7246" x="461" y="62.5791">18</text><text fill="#000000" font-family="sans-serif" font-size="10" lengthAdjust="spacing" textLength="12.7246" x="517" y="62.5791">19</text><text fill="#000000" font-family="sans-serif" font-size="10" lengthAdjust="spacing" textLength="12.7246" x="573" y="62.5791">20</text><text fill="#000000" font-family="sans-serif" font-size="10" lengthAdjust="spacing" textLength="12.7246" x="629" y="62.5791">21</text><text fill="#000000" font-family="sans-serif" font-size="10" lengthAdjust="spacing" textLength="12.7246" x="685" y="62.5791">22</text><text fill="#000000" font-family="sans-serif" font-size="10" lengthAdjust="spacing" textLength="12.7246" x="741" y="62.5791">23</text><text fill="#000000" font-family="sans-serif" font-size="10" lengthAdjust="spacing" textLength="12.7246" x="797" y="62.5791">24</text><text fill="#000000" font-family="sans-serif" font-size="10" lengthAdjust="spacing" textLength="12.7246" x="853" y="62.5791">25</text><text fill="#000000" font-family="sans-serif" font-size="10" lengthAdjust="spacing" textLength="12.7246" x="909" y="62.5791">26</text><text fill="#000000" font-family="sans-serif" font-size="10" lengthAdjust="spacing" textLength="12.7246" x="965" y="62.5791">27</text><text fill="#000000" font-family="sans-serif" font-size="10" lengthAdjust="spacing" textLength="12.7246" x="1021" y="62.5791">28</text><text fill="#000000" font-family="sans-serif" font-size="10" lengthAdjust="spacing" textLength="12.7246" x="1077" y="62.5791">29</text><text fill="#000000" font-family="sans-serif" font-size="10" lengthAdjust="spacing" textLength="12.7246" x="1133" y="62.5791">30</text><text fill="#000000" font-family="sans-serif" font-size="10" lengthAdjust="spacing" textLength="12.7246" x="1189" y="62.5791">31</text><text fill="#000000" font-family="sans-serif" font-size="10" lengthAdjust="spacing" textLength="12.7246" x="1245" y="62.5791">32</text><text fill="#000000" font-family="sans-serif" font-size="10" lengthAdjust="spacing" textLength="12.7246" x="1301" y="62.5791">33</text><text fill="#000000" font-family="sans-serif" font-size="10" lengthAdjust="spacing" textLength="12.7246" x="1357" y="62.5791">34</text><text fill="#000000" font-family="sans-serif" font-size="10" lengthAdjust="spacing" textLength="12.7246" x="1413" y="62.5791">35</text><text fill="#000000" font-family="sans-serif" font-size="10" lengthAdjust="spacing" textLength="12.7246" x="1469" y="62.5791">36</text><text fill="#000000" font-family="sans-serif" font-size="10" lengthAdjust="spacing" textLength="12.7246" x="1525" y="62.5791">37</text><text fill="#000000" font-family="sans-serif" font-size="10" lengthAdjust="spacing" textLength="12.7246" x="1581" y="62.5791">38</text><text fill="#000000" font-family="sans-serif" font-size="10" lengthAdjust="spacing" textLength="12.7246" x="1637" y="62.5791">39</text><text fill="#000000" font-family="sans-serif" font-size="10" lengthAdjust="spacing" textLength="12.7246" x="1693" y="62.5791">40</text><text fill="#000000" font-family="sans-serif" font-size="10" lengthAdjust="spacing" textLength="12.7246" x="1749" y="62.5791">41</text><text fill="#000000" font-family="sans-serif" font-size="10" lengthAdjust="spacing" textLength="12.7246" x="1805" y="62.5791">42</text><text fill="#000000" font-family="sans-serif" font-size="10" lengthAdjust="spacing" textLength="12.7246" x="1861" y="62.5791">43</text><line style="stroke:#C0C0C0;stroke-width:1;" x1="8" x2="8" y1="53.2969" y2="923.4922"/><line style="stroke:#C0C0C0;stroke-width:1;" x1="64" x2="64" y1="53.2969" y2="923.4922"/><line style="stroke:#C0C0C0;stroke-width:1;" x1="120" x2="120" y1="53.2969" y2="923.4922"/><line style="stroke:#C0C0C0;stroke-width:1;" x1="176" x2="176" y1="53.2969" y2="923.4922"/><line style="stroke:#C0C0C0;stroke-width:1;" x1="232" x2="232" y1="53.2969" y2="923.4922"/><line style="stroke:#C0C0C0;stroke-width:1;" x1="288" x2="288" y1="53.2969" y2="923.4922"/><line style="stroke:#C0C0C0;stroke-width:1;" x1="344" x2="344" y1="53.2969" y2="923.4922"/><line style="stroke:#C0C0C0;stroke-width:1;" x1="400" x2="400" y1="53.2969" y2="923.4922"/><line style="stroke:#C0C0C0;stroke-width:1;" x1="456" x2="456" y1="53.2969" y2="923.4922"/><line style="stroke:#C0C0C0;stroke-width:1;" x1="512" x2="512" y1="53.2969" y2="923.4922"/><line style="stroke:#C0C0C0;stroke-width:1;" x1="568" x2="568" y1="53.2969" y2="923.4922"/><line style="stroke:#C0C0C0;stroke-width:1;" x1="624" x2="624" y1="53.2969" y2="923.4922"/><line style="stroke:#C0C0C0;stroke-width:1;" x1="680" x2="680" y1="53.2969" y2="923.4922"/><line style="stroke:#C0C0C0;stroke-width:1;" x1="736" x2="736" y1="53.2969" y2="923.4922"/><line style="stroke:#C0C0C0;stroke-width:1;" x1="792" x2="792" y1="53.2969" y2="923.4922"/><line style="stroke:#C0C0C0;stroke-width:1;" x1="848" x2="848" y1="53.2969" y2="923.4922"/><line style="stroke:#C0C0C0;stroke-width:1;" x1="904" x2="904" y1="53.2969" y2="923.4922"/><line style="stroke:#C0C0C0;stroke-width:1;" x1="960" x2="960" y1="53.2969" y2="923.4922"/><line style="stroke:#C0C0C0;stroke-width:1;" x1="1016" x2="1016" y1="53.2969" y2="923.4922"/><line style="stroke:#C0C0C0;stroke-width:1;" x1="1072" x2="1072" y1="53.2969" y2="923.4922"/><line style="stroke:#C0C0C0;stroke-width:1;" x1="1128" x2="1128" y1="53.2969" y2="923.4922"/><line style="stroke:#C0C0C0;stroke-width:1;" x1="1184" x2="1184" y1="53.2969" y2="923.4922"/><line style="stroke:#C0C0C0;stroke-width:1;" x1="1240" x2="1240" y1="53.2969" y2="923.4922"/><line style="stroke:#C0C0C0;stroke-width:1;" x1="1296" x2="1296" y1="53.2969" y2="923.4922"/><line style="stroke:#C0C0C0;stroke-width:1;" x1="1352" x2="1352" y1="53.2969" y2="923.4922"/><line style="stroke:#C0C0C0;stroke-width:1;" x1="1408" x2="1408" y1="53.2969" y2="923.4922"/><line style="stroke:#C0C0C0;stroke-width:1;" x1="1464" x2="1464" y1="53.2969" y2="923.4922"/><line style="stroke:#C0C0C0;stroke-width:1;" x1="1520" x2="1520" y1="53.2969" y2="923.4922"/><line style="stroke:#C0C0C0;stroke-width:1;" x1="1576" x2="1576" y1="53.2969" y2="923.4922"/><line style="stroke:#C0C0C0;stroke-width:1;" x1="1632" x2="1632" y1="53.2969" y2="923.4922"/><line style="stroke:#C0C0C0;stroke-width:1;" x1="1688" x2="1688" y1="53.2969" y2="923.4922"/><line style="stroke:#C0C0C0;stroke-width:1;" x1="1744" x2="1744" y1="53.2969" y2="923.4922"/><line style="stroke:#C0C0C0;stroke-width:1;" x1="1800" x2="1800" y1="53.2969" y2="923.4922"/><line style="stroke:#C0C0C0;stroke-width:1;" x1="1856" x2="1856" y1="53.2969" y2="923.4922"/><line style="stroke:#C0C0C0;stroke-width:1;" x1="1872" x2="1872" y1="53.2969" y2="923.4922"/><line style="stroke:#C0C0C0;stroke-width:1;" x1="0" x2="0" y1="37.2969" y2="53.2969"/><line style="stroke:#C0C0C0;stroke-width:1;" x1="248" x2="248" y1="37.2969" y2="53.2969"/><text fill="#000000" font-family="sans-serif" font-size="12" font-weight="bold" lengthAdjust="spacing" textLength="63.5332" x="92.2334" y="48.4355">Mar 2026</text><line style="stroke:#C0C0C0;stroke-width:1;" x1="488" x2="488" y1="37.2969" y2="53.2969"/><text fill="#000000" font-family="sans-serif" font-size="12" font-weight="bold" lengthAdjust="spacing" textLength="61.3711" x="337.3145" y="48.4355">Apr 2026</text><line style="stroke:#C0C0C0;stroke-width:1;" x1="736" x2="736" y1="37.2969" y2="53.2969"/><text fill="#000000" font-family="sans-serif" font-size="12" font-weight="bold" lengthAdjust="spacing" textLength="65.4375" x="579.2813" y="48.4355">May 2026</text><line style="stroke:#C0C0C0;stroke-width:1;" x1="976" x2="976" y1="37.2969" y2="53.2969"/><text fill="#000000" font-family="sans-serif" font-size="12" font-weight="bold" lengthAdjust="spacing" textLength="59.127" x="826.4365" y="48.4355">Jun 2026</text><line style="stroke:#C0C0C0;stroke-width:1;" x1="1224" x2="1224" y1="37.2969" y2="53.2969"/><text fill="#000000" font-family="sans-serif" font-size="12" font-weight="bold" lengthAdjust="spacing" textLength="54.6973" x="1072.6514" y="48.4355">Jul 2026</text><line style="stroke:#C0C0C0;stroke-width:1;" x1="1472" x2="1472" y1="37.2969" y2="53.2969"/><text fill="#000000" font-family="sans-serif" font-size="12" font-weight="bold" lengthAdjust="spacing" textLength="63.9961" x="1316.002" y="48.4355">Aug 2026</text><line style="stroke:#C0C0C0;stroke-width:1;" x1="1712" x2="1712" y1="37.2969" y2="53.2969"/><text fill="#000000" font-family="sans-serif" font-size="12" font-weight="bold" lengthAdjust="spacing" textLength="62.9473" x="1560.5264" y="48.4355">Sep 2026</text><line style="stroke:#C0C0C0;stroke-width:1;" x1="1872" x2="1872" y1="37.2969" y2="53.2969"/><text fill="#000000" font-family="sans-serif" font-size="12" font-weight="bold" lengthAdjust="spacing" textLength="60.627" x="1761.6865" y="48.4355">Oct 2026</text><line style="stroke:#C0C0C0;stroke-width:1;" x1="0" x2="1872" y1="37.2969" y2="37.2969"/><line style="stroke:#C0C0C0;stroke-width:1;" x1="0" x2="1872" y1="53.2969" y2="53.2969"/><line style="stroke:#C0C0C0;stroke-width:1;" x1="0" x2="1872" y1="64.2969" y2="64.2969"/><rect fill="#F0F0F0" height="23.9688" style="stroke:none;stroke-width:1;" width="1872" x="0" y="69.2969"/><line style="stroke:#181818;stroke-width:1;" x1="0" x2="5" y1="81.2813" y2="81.2813"/><line style="stroke:#181818;stroke-width:1;" x1="131.9766" x2="1871" y1="81.2813" y2="81.2813"/><rect fill="#BBDEFB" height="12.8047" style="stroke:none;stroke-width:1;" width="116" x="2" y="100.2656"/><rect fill="none" height="12.8047" style="stroke:#1976D2;stroke-width:1;" width="116" x="2" y="100.2656"/><rect fill="#BBDEFB" height="12.8047" style="stroke:none;stroke-width:1;" width="220" x="2" y="117.0703"/><rect fill="none" height="12.8047" style="stroke:#1976D2;stroke-width:1;" width="220" x="2" y="117.0703"/><rect fill="#BBDEFB" height="12.8047" style="stroke:none;stroke-width:1;" width="172" x="114" y="133.875"/><rect fill="none" height="12.8047" style="stroke:#1976D2;stroke-width:1;" width="172" x="114" y="133.875"/><rect fill="#BBDEFB" height="12.8047" style="stroke:none;stroke-width:1;" width="252" x="154" y="150.6797"/><rect fill="none" height="12.8047" style="stroke:#1976D2;stroke-width:1;" width="252" x="154" y="150.6797"/><rect fill="#C8E6C9" height="12.8047" style="stroke:none;stroke-width:1;" width="196" x="602" y="167.4844"/><rect fill="none" height="12.8047" style="stroke:#388E3C;stroke-width:1;" width="196" x="602" y="167.4844"/><rect fill="#C8E6C9" height="12.8047" style="stroke:none;stroke-width:1;" width="212" x="682" y="184.2891"/><rect fill="none" height="12.8047" style="stroke:#388E3C;stroke-width:1;" width="212" x="682" y="184.2891"/><rect fill="#C8E6C9" height="12.8047" style="stroke:none;stroke-width:1;" width="164" x="810" y="201.0938"/><rect fill="none" height="12.8047" style="stroke:#388E3C;stroke-width:1;" width="164" x="810" y="201.0938"/><rect fill="#FFE0B2" height="12.8047" style="stroke:none;stroke-width:1;" width="236" x="1130" y="217.8984"/><rect fill="none" height="12.8047" style="stroke:#E65100;stroke-width:1;" width="236" x="1130" y="217.8984"/><rect fill="#FFE0B2" height="12.8047" style="stroke:none;stroke-width:1;" width="252" x="1226" y="234.7031"/><rect fill="none" height="12.8047" style="stroke:#E65100;stroke-width:1;" width="252" x="1226" y="234.7031"/><rect fill="#FFE0B2" height="12.8047" style="stroke:none;stroke-width:1;" width="212" x="1338" y="251.5078"/><rect fill="none" height="12.8047" style="stroke:#E65100;stroke-width:1;" width="212" x="1338" y="251.5078"/><rect fill="#F0F0F0" height="23.9688" style="stroke:none;stroke-width:1;" width="1872" x="0" y="271.3125"/><line style="stroke:#181818;stroke-width:1;" x1="0" x2="5" y1="283.2969" y2="283.2969"/><line style="stroke:#181818;stroke-width:1;" x1="90.1816" x2="1871" y1="283.2969" y2="283.2969"/><rect fill="#BBDEFB" height="12.8047" style="stroke:none;stroke-width:1;" width="156" x="2" y="302.2813"/><rect fill="none" height="12.8047" style="stroke:#1976D2;stroke-width:1;" width="156" x="2" y="302.2813"/><rect fill="#BBDEFB" height="12.8047" style="stroke:none;stroke-width:1;" width="172" x="114" y="319.0859"/><rect fill="none" height="12.8047" style="stroke:#1976D2;stroke-width:1;" width="172" x="114" y="319.0859"/><rect fill="#BBDEFB" height="12.8047" style="stroke:none;stroke-width:1;" width="212" x="194" y="335.8906"/><rect fill="none" height="12.8047" style="stroke:#1976D2;stroke-width:1;" width="212" x="194" y="335.8906"/><rect fill="#C8E6C9" height="12.8047" style="stroke:none;stroke-width:1;" width="196" x="602" y="352.6953"/><rect fill="none" height="12.8047" style="stroke:#388E3C;stroke-width:1;" width="196" x="602" y="352.6953"/><rect fill="#C8E6C9" height="12.8047" style="stroke:none;stroke-width:1;" width="156" x="738" y="369.5"/><rect fill="none" height="12.8047" style="stroke:#388E3C;stroke-width:1;" width="156" x="738" y="369.5"/><rect fill="#C8E6C9" height="12.8047" style="stroke:none;stroke-width:1;" width="164" x="850" y="386.3047"/><rect fill="none" height="12.8047" style="stroke:#388E3C;stroke-width:1;" width="164" x="850" y="386.3047"/><rect fill="#FFE0B2" height="12.8047" style="stroke:none;stroke-width:1;" width="212" x="1130" y="403.1094"/><rect fill="none" height="12.8047" style="stroke:#E65100;stroke-width:1;" width="212" x="1130" y="403.1094"/><rect fill="#FFE0B2" height="12.8047" style="stroke:none;stroke-width:1;" width="180" x="1298" y="419.9141"/><rect fill="none" height="12.8047" style="stroke:#E65100;stroke-width:1;" width="180" x="1298" y="419.9141"/><rect fill="#F0F0F0" height="23.9688" style="stroke:none;stroke-width:1;" width="1872" x="0" y="439.7188"/><line style="stroke:#181818;stroke-width:1;" x1="0" x2="5" y1="451.7031" y2="451.7031"/><line style="stroke:#181818;stroke-width:1;" x1="274.6816" x2="1871" y1="451.7031" y2="451.7031"/><rect fill="#BBDEFB" height="12.8047" style="stroke:none;stroke-width:1;" width="156" x="2" y="470.6875"/><rect fill="none" height="12.8047" style="stroke:#1976D2;stroke-width:1;" width="156" x="2" y="470.6875"/><rect fill="#BBDEFB" height="12.8047" style="stroke:none;stroke-width:1;" width="172" x="114" y="487.4922"/><rect fill="none" height="12.8047" style="stroke:#1976D2;stroke-width:1;" width="172" x="114" y="487.4922"/><rect fill="#BBDEFB" height="12.8047" style="stroke:none;stroke-width:1;" width="212" x="194" y="504.2969"/><rect fill="none" height="12.8047" style="stroke:#1976D2;stroke-width:1;" width="212" x="194" y="504.2969"/><rect fill="#C8E6C9" height="12.8047" style="stroke:none;stroke-width:1;" width="196" x="602" y="521.1016"/><rect fill="none" height="12.8047" style="stroke:#388E3C;stroke-width:1;" width="196" x="602" y="521.1016"/><rect fill="#C8E6C9" height="12.8047" style="stroke:none;stroke-width:1;" width="156" x="738" y="537.9063"/><rect fill="none" height="12.8047" style="stroke:#388E3C;stroke-width:1;" width="156" x="738" y="537.9063"/><rect fill="#C8E6C9" height="12.8047" style="stroke:none;stroke-width:1;" width="164" x="850" y="554.7109"/><rect fill="none" height="12.8047" style="stroke:#388E3C;stroke-width:1;" width="164" x="850" y="554.7109"/><rect fill="#FFE0B2" height="12.8047" style="stroke:none;stroke-width:1;" width="212" x="1130" y="571.5156"/><rect fill="none" height="12.8047" style="stroke:#E65100;stroke-width:1;" width="212" x="1130" y="571.5156"/><rect fill="#FFE0B2" height="12.8047" style="stroke:none;stroke-width:1;" width="180" x="1298" y="588.3203"/><rect fill="none" height="12.8047" style="stroke:#E65100;stroke-width:1;" width="180" x="1298" y="588.3203"/><rect fill="#F0F0F0" height="23.9688" style="stroke:none;stroke-width:1;" width="1872" x="0" y="608.125"/><line style="stroke:#181818;stroke-width:1;" x1="0" x2="5" y1="620.1094" y2="620.1094"/><line style="stroke:#181818;stroke-width:1;" x1="291.0059" x2="1871" y1="620.1094" y2="620.1094"/><rect fill="#BBDEFB" height="12.8047" style="stroke:none;stroke-width:1;" width="156" x="2" y="639.0938"/><rect fill="none" height="12.8047" style="stroke:#1976D2;stroke-width:1;" width="156" x="2" y="639.0938"/><rect fill="#BBDEFB" height="12.8047" style="stroke:none;stroke-width:1;" width="252" x="154" y="655.8984"/><rect fill="none" height="12.8047" style="stroke:#1976D2;stroke-width:1;" width="252" x="154" y="655.8984"/><rect fill="#FFE0B2" height="12.8047" style="stroke:none;stroke-width:1;" width="212" x="1378" y="672.7031"/><rect fill="none" height="12.8047" style="stroke:#E65100;stroke-width:1;" width="212" x="1378" y="672.7031"/><rect fill="#F0F0F0" height="23.9688" style="stroke:none;stroke-width:1;" width="1872" x="0" y="692.5078"/><line style="stroke:#181818;stroke-width:1;" x1="0" x2="5" y1="704.4922" y2="704.4922"/><line style="stroke:#181818;stroke-width:1;" x1="128.4316" x2="1871" y1="704.4922" y2="704.4922"/><rect fill="#BBDEFB" height="12.8047" style="stroke:none;stroke-width:1;" width="220" x="2" y="723.4766"/><rect fill="none" height="12.8047" style="stroke:#1976D2;stroke-width:1;" width="220" x="2" y="723.4766"/><rect fill="#C8E6C9" height="12.8047" style="stroke:none;stroke-width:1;" width="172" x="682" y="740.2813"/><rect fill="none" height="12.8047" style="stroke:#388E3C;stroke-width:1;" width="172" x="682" y="740.2813"/><rect fill="#F0F0F0" height="23.9688" style="stroke:none;stroke-width:1;" width="1872" x="0" y="760.0859"/><line style="stroke:#181818;stroke-width:1;" x1="0" x2="5" y1="772.0703" y2="772.0703"/><line style="stroke:#181818;stroke-width:1;" x1="129.4336" x2="1871" y1="772.0703" y2="772.0703"/><rect fill="#BBDEFB" height="12.8047" style="stroke:none;stroke-width:1;" width="124" x="362" y="791.0547"/><rect fill="none" height="12.8047" style="stroke:#1976D2;stroke-width:1;" width="124" x="362" y="791.0547"/><rect fill="#E0E0E0" height="12.8047" style="stroke:none;stroke-width:1;" width="44" x="1090" y="807.8594"/><rect fill="none" height="12.8047" style="stroke:#9E9E9E;stroke-width:1;" width="44" x="1090" y="807.8594"/><rect fill="#C8E6C9" height="12.8047" style="stroke:none;stroke-width:1;" width="116" x="978" y="824.6641"/><rect fill="none" height="12.8047" style="stroke:#388E3C;stroke-width:1;" width="116" x="978" y="824.6641"/><rect fill="#FFE0B2" height="12.8047" style="stroke:none;stroke-width:1;" width="164" x="1586" y="841.4688"/><rect fill="none" height="12.8047" style="stroke:#E65100;stroke-width:1;" width="164" x="1586" y="841.4688"/><rect fill="#FFE0B2" height="12.8047" style="stroke:none;stroke-width:1;" width="116" x="1754" y="858.2734"/><rect fill="none" height="12.8047" style="stroke:#E65100;stroke-width:1;" width="116" x="1754" y="858.2734"/><polygon fill="#FF4500" points="484,875.0781,489,880.0781,484,885.0781,479,880.0781" style="stroke:#FF4500;stroke-width:1;"/><polygon fill="#FF4500" points="1092,891.8828,1097,896.8828,1092,901.8828,1087,896.8828" style="stroke:#FF4500;stroke-width:1;"/><polygon fill="#FF4500" points="1868,908.6875,1873,913.6875,1868,918.6875,1863,913.6875" style="stroke:#FF4500;stroke-width:1;"/><text fill="#000000" font-family="sans-serif" font-size="12" font-weight="bold" lengthAdjust="spacing" textLength="116.9766" x="10" y="85.4355">Backend (2 devs)</text><text fill="#000000" font-family="sans-serif" font-size="11" lengthAdjust="spacing" textLength="195.9106" x="122" y="110.4761">DB Schema + PostGIS + Migrations</text><text fill="#000000" font-family="sans-serif" font-size="11" lengthAdjust="spacing" textLength="168.502" x="6" y="127.2808">Core API - Auth, Users, Profiles</text><text fill="#000000" font-family="sans-serif" font-size="11" lengthAdjust="spacing" textLength="189.229" x="290" y="144.0854">Photo Upload + SQS + S3 Pipeline</text><text fill="#000000" font-family="sans-serif" font-size="11" lengthAdjust="spacing" textLength="190.8887" x="158" y="160.8901">AI Recognition Lambda - Multi-LLM</text><text fill="#000000" font-family="sans-serif" font-size="11" lengthAdjust="spacing" textLength="180.9146" x="606" y="177.6948">Partner CRUD + Geo Queries API</text><text fill="#000000" font-family="sans-serif" font-size="11" lengthAdjust="spacing" textLength="188.7671" x="686" y="194.4995">Recommendation Engine + Cache</text><text fill="#000000" font-family="sans-serif" font-size="11" lengthAdjust="spacing" textLength="144.2622" x="814" y="211.3042">QR Code Discount System</text><text fill="#000000" font-family="sans-serif" font-size="11" lengthAdjust="spacing" textLength="148.8813" x="1134" y="228.1089">Stripe Payment Integration</text><text fill="#000000" font-family="sans-serif" font-size="11" lengthAdjust="spacing" textLength="118.1157" x="1230" y="244.9136">Loyalty Points Engine</text><text fill="#000000" font-family="sans-serif" font-size="11" lengthAdjust="spacing" textLength="96.8623" x="1342" y="261.7183">Partner Portal API</text><text fill="#000000" font-family="sans-serif" font-size="12" font-weight="bold" lengthAdjust="spacing" textLength="75.1816" x="10" y="287.4512">iOS (1 dev)</text><text fill="#000000" font-family="sans-serif" font-size="11" lengthAdjust="spacing" textLength="124.5664" x="6" y="312.4917">iOS Shell + Navigation</text><text fill="#000000" font-family="sans-serif" font-size="11" lengthAdjust="spacing" textLength="154.9883" x="118" y="329.2964">iOS Camera + Photo Upload</text><text fill="#000000" font-family="sans-serif" font-size="11" lengthAdjust="spacing" textLength="179.502" x="198" y="346.1011">iOS Attraction Description + TTS</text><text fill="#000000" font-family="sans-serif" font-size="11" lengthAdjust="spacing" textLength="176.1611" x="606" y="362.9058">iOS Partner Venues + Map View</text><text fill="#000000" font-family="sans-serif" font-size="11" lengthAdjust="spacing" textLength="134.6533" x="742" y="379.7104">iOS QR Code + Discount</text><text fill="#000000" font-family="sans-serif" font-size="11" lengthAdjust="spacing" textLength="96.1533" x="854" y="396.5151">iOS Offline Cache</text><text fill="#000000" font-family="sans-serif" font-size="11" lengthAdjust="spacing" textLength="138.9072" x="1134" y="413.3198">iOS Payment + Checkout</text><text fill="#000000" font-family="sans-serif" font-size="11" lengthAdjust="spacing" textLength="125.5493" x="1302" y="430.1245">iOS Loyalty Dashboard</text><text fill="#000000" font-family="sans-serif" font-size="12" font-weight="bold" lengthAdjust="spacing" textLength="259.6816" x="10" y="455.8574">Android (1 dev + mobile lead support)</text><text fill="#000000" font-family="sans-serif" font-size="11" lengthAdjust="spacing" textLength="148.6396" x="162" y="480.8979">Android Shell + Navigation</text><text fill="#000000" font-family="sans-serif" font-size="11" lengthAdjust="spacing" textLength="179.0615" x="290" y="497.7026">Android Camera + Photo Upload</text><text fill="#000000" font-family="sans-serif" font-size="11" lengthAdjust="spacing" textLength="203.5752" x="198" y="514.5073">Android Attraction Description + TTS</text><text fill="#000000" font-family="sans-serif" font-size="11" lengthAdjust="spacing" textLength="200.2344" x="802" y="531.312">Android Partner Venues + Map View</text><text fill="#000000" font-family="sans-serif" font-size="11" lengthAdjust="spacing" textLength="158.7266" x="898" y="548.1167">Android QR Code + Discount</text><text fill="#000000" font-family="sans-serif" font-size="11" lengthAdjust="spacing" textLength="120.2266" x="854" y="564.9214">Android Offline Cache</text><text fill="#000000" font-family="sans-serif" font-size="11" lengthAdjust="spacing" textLength="162.9805" x="1134" y="581.7261">Android Payment + Checkout</text><text fill="#000000" font-family="sans-serif" font-size="11" lengthAdjust="spacing" textLength="149.6226" x="1302" y="598.5308">Android Loyalty Dashboard</text><text fill="#000000" font-family="sans-serif" font-size="12" font-weight="bold" lengthAdjust="spacing" textLength="276.0059" x="10" y="624.2637">Mobile Lead (shared across iOS/Android)</text><text fill="#000000" font-family="sans-serif" font-size="11" lengthAdjust="spacing" textLength="242.7788" x="162" y="649.3042">Cross-platform Architecture + API Contracts</text><text fill="#000000" font-family="sans-serif" font-size="11" lengthAdjust="spacing" textLength="197.9893" x="158" y="666.1089">Code Reviews + Integration Testing</text><text fill="#000000" font-family="sans-serif" font-size="11" lengthAdjust="spacing" textLength="129.0513" x="1382" y="682.9136">Multi-language Support</text><text fill="#000000" font-family="sans-serif" font-size="12" font-weight="bold" lengthAdjust="spacing" textLength="113.4316" x="10" y="708.6465">DevOps (shared)</text><text fill="#000000" font-family="sans-serif" font-size="11" lengthAdjust="spacing" textLength="130.7324" x="6" y="733.687">CI/CD + IaC - Terraform</text><text fill="#000000" font-family="sans-serif" font-size="11" lengthAdjust="spacing" textLength="120.5596" x="686" y="750.4917">US Region Prod Setup</text><text fill="#000000" font-family="sans-serif" font-size="12" font-weight="bold" lengthAdjust="spacing" textLength="114.4336" x="10" y="776.2246">Integration &amp; QA</text><text fill="#000000" font-family="sans-serif" font-size="11" lengthAdjust="spacing" textLength="123.4063" x="490" y="801.2651">POC Integration Sprint</text><text fill="#000000" font-family="sans-serif" font-size="11" lengthAdjust="spacing" textLength="69.3301" x="1138" y="818.0698">Phase buffer</text><text fill="#000000" font-family="sans-serif" font-size="11" lengthAdjust="spacing" textLength="120.1514" x="1098" y="834.8745">MVP Integration + QA</text><text fill="#000000" font-family="sans-serif" font-size="11" lengthAdjust="spacing" textLength="163.1738" x="1754" y="851.6792">Full Release QA + Regression</text><text fill="#000000" font-family="sans-serif" font-size="11" lengthAdjust="spacing" textLength="187.2954" x="1874" y="868.4839">App Store Review (iOS + Android)</text><text fill="#000000" font-family="sans-serif" font-size="11" font-weight="bold" lengthAdjust="spacing" textLength="64.9258" x="492" y="885.2886">POC Demo</text><text fill="#000000" font-family="sans-serif" font-size="11" font-weight="bold" lengthAdjust="spacing" textLength="104.876" x="1100" y="902.0933">MVP Launch - US</text><text fill="#000000" font-family="sans-serif" font-size="11" font-weight="bold" lengthAdjust="spacing" textLength="75.3081" x="1876" y="918.8979">Full Release</text><line style="stroke:#C0C0C0;stroke-width:1;" x1="0" x2="1872" y1="923.4922" y2="923.4922"/><line style="stroke:#C0C0C0;stroke-width:1;" x1="0" x2="0" y1="923.4922" y2="939.4922"/><line style="stroke:#C0C0C0;stroke-width:1;" x1="248" x2="248" y1="923.4922" y2="939.4922"/><text fill="#000000" font-family="sans-serif" font-size="12" font-weight="bold" lengthAdjust="spacing" textLength="63.5332" x="92.2334" y="934.6309">Mar 2026</text><line style="stroke:#C0C0C0;stroke-width:1;" x1="488" x2="488" y1="923.4922" y2="939.4922"/><text fill="#000000" font-family="sans-serif" font-size="12" font-weight="bold" lengthAdjust="spacing" textLength="61.3711" x="337.3145" y="934.6309">Apr 2026</text><line style="stroke:#C0C0C0;stroke-width:1;" x1="736" x2="736" y1="923.4922" y2="939.4922"/><text fill="#000000" font-family="sans-serif" font-size="12" font-weight="bold" lengthAdjust="spacing" textLength="65.4375" x="579.2813" y="934.6309">May 2026</text><line style="stroke:#C0C0C0;stroke-width:1;" x1="976" x2="976" y1="923.4922" y2="939.4922"/><text fill="#000000" font-family="sans-serif" font-size="12" font-weight="bold" lengthAdjust="spacing" textLength="59.127" x="826.4365" y="934.6309">Jun 2026</text><line style="stroke:#C0C0C0;stroke-width:1;" x1="1224" x2="1224" y1="923.4922" y2="939.4922"/><text fill="#000000" font-family="sans-serif" font-size="12" font-weight="bold" lengthAdjust="spacing" textLength="54.6973" x="1072.6514" y="934.6309">Jul 2026</text><line style="stroke:#C0C0C0;stroke-width:1;" x1="1472" x2="1472" y1="923.4922" y2="939.4922"/><text fill="#000000" font-family="sans-serif" font-size="12" font-weight="bold" lengthAdjust="spacing" textLength="63.9961" x="1316.002" y="934.6309">Aug 2026</text><line style="stroke:#C0C0C0;stroke-width:1;" x1="1712" x2="1712" y1="923.4922" y2="939.4922"/><text fill="#000000" font-family="sans-serif" font-size="12" font-weight="bold" lengthAdjust="spacing" textLength="62.9473" x="1560.5264" y="934.6309">Sep 2026</text><line style="stroke:#C0C0C0;stroke-width:1;" x1="1872" x2="1872" y1="923.4922" y2="939.4922"/><text fill="#000000" font-family="sans-serif" font-size="12" font-weight="bold" lengthAdjust="spacing" textLength="60.627" x="1761.6865" y="934.6309">Oct 2026</text><line style="stroke:#C0C0C0;stroke-width:1;" x1="0" x2="1872" y1="939.4922" y2="939.4922"/><g class="legend" data-source-line="114"><rect fill="#DDDDDD" height="95.4844" rx="7.5" ry="7.5" style="stroke:#000000;stroke-width:1;" width="107.8564" x="1751.1436" y="951.4922"/><rect fill="#BBDEFB" height="16.2969" style="stroke:none;stroke-width:1;" width="97.8564" x="1756.1436" y="958.4922"/><text fill="#000000" font-family="sans-serif" font-size="14" lengthAdjust="spacing" textLength="75.4893" x="1760.5938" y="971.4873">POC Phase</text><rect fill="#C8E6C9" height="16.2969" style="stroke:none;stroke-width:1;" width="97.8564" x="1756.1436" y="974.7891"/><text fill="#000000" font-family="sans-serif" font-size="14" lengthAdjust="spacing" textLength="76.3506" x="1760.5938" y="987.7842">MVP Phase</text><rect fill="#E0E0E0" height="16.2969" style="stroke:none;stroke-width:1;" width="97.8564" x="1756.1436" y="991.0859"/><text fill="#000000" font-family="sans-serif" font-size="14" lengthAdjust="spacing" textLength="88.9561" x="1760.5938" y="1004.0811">Phase Buffer</text><rect fill="#FFE0B2" height="16.2969" style="stroke:none;stroke-width:1;" width="97.8564" x="1756.1436" y="1007.3828"/><text fill="#000000" font-family="sans-serif" font-size="14" lengthAdjust="spacing" textLength="70.957" x="1760.5938" y="1020.3779">Full Phase</text><rect fill="#FF4500" height="16.2969" style="stroke:none;stroke-width:1;" width="97.8564" x="1756.1436" y="1023.6797"/><text fill="#000000" font-family="sans-serif" font-size="14" lengthAdjust="spacing" textLength="67.3066" x="1760.5938" y="1036.6748">Milestone</text><line style="stroke:#000000;stroke-width:1;" x1="1756.1436" x2="1854" y1="958.4922" y2="958.4922"/><line style="stroke:#000000;stroke-width:1;" x1="1756.1436" x2="1854" y1="974.7891" y2="974.7891"/><line style="stroke:#000000;stroke-width:1;" x1="1756.1436" x2="1854" y1="991.0859" y2="991.0859"/><line style="stroke:#000000;stroke-width:1;" x1="1756.1436" x2="1854" y1="1007.3828" y2="1007.3828"/><line style="stroke:#000000;stroke-width:1;" x1="1756.1436" x2="1854" y1="1023.6797" y2="1023.6797"/><line style="stroke:#000000;stroke-width:1;" x1="1756.1436" x2="1854" y1="1039.9766" y2="1039.9766"/><line style="stroke:#000000;stroke-width:1;" x1="1756.1436" x2="1756.1436" y1="958.4922" y2="1039.9766"/><line style="stroke:#000000;stroke-width:1;" x1="1854" x2="1854" y1="958.4922" y2="1039.9766"/></g><?plantuml-src hLZTRk8u5BxFKnm9QTKHov2aXT9LLGq4MY7HWPAsDzLSkC65R9CuifsEcEsizY7s2VT9zZY1Rfi4x9ckqX-8Sxxp-VnyjlD9ICBbaYHIMZAK4OLfAaEMWFiRt98eN119eGcNBA4o_4RXdx_-XZzx4BD4hiIlq845VSB_DpuSp4VUzF9oz7au6dwmKXucKWG40RzI-XYjuHjZCRWum7wdWOJShm3NThij-x1bEvPrAkGwecTMpcOOaYKdCVnX0KWY7lCF0EVes5T470U_VyVVE8oeaCYlzedDTmKCzonQvBS697Yyu2nB5XwB68Sf9ycIpcanEWaJMhslN0cQ4auaZfHTkQQk6kUskdB0xzPfUpDbgzNA7wN90WxSFAWVeDMoxeO3y8CLZGacOSQ4l1ZxAXqXnaQbINof1X88WY3GV_USZWbGA21G7Ea2mWGQWy5mT3veDvoJu-xGjUuy787-R0mjw6ToXJaNb6FgPvmzg1GOCN5x9a0Q9hCLamnkqeYH1Sx1lr8pyGzX5gOqmkHLc3YTCfEZbjqn0T8mwOzXJWEsJCAyPoOalbyGdDTb5icmDPbSLgYuTfMAQniXwQA2VXBAmPlV374Q5vJ1LKPvI8KATeb8foOc-DFJmvHOUBrHrpjfDmvxlT6XPzsfISGnekPL1QDaYN5478zWyLL8k3KaL3GqA1eELtFms8B2C1G1Tfu4VoqaZKlUkot7hde_jFVOQ_pwacFXm8oiaRg4SIBffhjAhezhog3NSdhx8KhUpyz7zi1jDqRTZcCZwmbRaqYkiRcLycvYLdBSgsdA4wMzkwmrFhV5CcDSagYcpderTNQ2WQyttUzDQMGunON6KVfOoAFwxgze565nV2PFuR8kt3kaoDvjhcarPUQHcF9SJ5-9YB7ox44myDsNafCWRuqX5G6MJFwv2TVNVbLnElMAemSoOBBDuYrDCbG8N5182hSX_MgiDneKJSifwssxDbyQjjBfrVntNs9GPsxWTVhme9Q8Mc7hrips-2Nl9Ki3NrivG05SqU2HPT9CK3gxpJMDhSosaZ0aOdNF25zKUzkk5vCTrlhsxYSBpiB5fiMHSCpkSKi04SK5McHfYc9HDFxsoNSq_pu8tRg_CNsV26XG33dyBs9W1cR8wFsYO82aQPijmZl4OH-4eVUV4uaTreO-to4M-o0qWh4r_NdHs8EW5uxBGYScIYSEn8geHqd0cH1goz3UO1VIuQdRhJGYye7n6FeyM8KIZwGPLpbM1nCFpt6g3OInblmGflQWXSKsfqzOvghaN-q1uHfFkc6oD3vLc41fs1G7a0WFmXbPKl0B4QvarQt9gYgfNURwb0xfqpGLssnkKZTkU-fKCYOUdeskAUT4nTlywBdBNXE46n-Zk5HXmqCghXXKPgdHOKQ5eDvuVpUh0BpErYzmrSyZC9jwRmRy_4LBYSjHxPAZZZQxpBKdRY8et6SF3vHNvbqDDWhxKTcev65agwlTE1cf2-laTlQ6M1CdND6jggVZeiXgZJLwkMTEnxNIh1hgX-Pqdk6-Oavnyu8scB-cgWDEXQZkKawg7XqxNmpsW-XKEKt1b-fzIo42SA2sPitjFkl3MnRAOxVAmZK2qZHqNdb36hCli29fIfEtTQaoE25P4gomBs_yyaD5cb-7elH4GTEAw5AzGUFXSYKjWEVJJIMVWN9V9E-v62ZAuGoKvpS3HHRFDZS7UQgtOyMipY1dyiRgvLKX8hwya7os59k2bFK9_nJlMItdeoBzqVaN?></g></svg>