<?plantuml 1.2026.1?><svg xmlns="http://www.w3.org/2000/svg" xmlns:xlink="http://www.w3.org/1999/xlink" contentStyleType="text/css" data-diagram-type="DESCRIPTION" height="1214px" preserveAspectRatio="none" style="width:2419px;height:1214px;background:#FFFFFF;" version="1.1" viewBox="0 0 2419 1214" width="2419px" zoomAndPan="magnify"><title>Option 2: Validate + Monetize - US (RECOMMENDED)</title><defs/><g><g class="title" data-source-line="1"><text fill="#000000" font-family="sans-serif" font-size="14" font-weight="bold" lengthAdjust="spacing" textLength="416.3975" x="994.3013" y="22.9951">Option 2: Validate + Monetize - US (RECOMMENDED)</text></g><!--cluster us_region--><g class="cluster" data-qualified-name="us_region" data-source-line="18" id="ent0005"><rect fill="#FAFAFA" height="663.47" rx="5" ry="5" style="stroke:#DEE2E6;stroke-width:1;" width="1404" x="416" y="445.5769"/><text fill="#000000" font-family="sans-serif" font-size="14" font-weight="bold" lengthAdjust="spacing" textLength="183.6338" x="1026.1831" y="460.572">AWS US-EAST-1 Region</text></g><!--cluster Compute Layer--><g class="cluster" data-qualified-name="us_region.Compute Layer" data-source-line="21" id="ent0007"><path d="M442.5,596.1769 L562.9238,596.1769 A3.75,3.75 0 0 1 565.4238,598.6769 L572.4238,618.4738 L1068.5,618.4738 A2.5,2.5 0 0 1 1071,620.9738 L1071,962.1069 A2.5,2.5 0 0 1 1068.5,964.6069 L442.5,964.6069 A2.5,2.5 0 0 1 440,962.1069 L440,598.6769 A2.5,2.5 0 0 1 442.5,596.1769" fill="#F8F9FA" style="stroke:#DEE2E6;stroke-width:1.5;"/><line style="stroke:#DEE2E6;stroke-width:1.5;" x1="440" x2="572.4238" y1="618.4738" y2="618.4738"/><text fill="#000000" font-family="sans-serif" font-size="14" font-weight="bold" lengthAdjust="spacing" textLength="119.4238" x="444" y="611.172">Compute Layer</text></g><!--cluster Modular Monolith (Single Deployable)--><g class="cluster" data-qualified-name="us_region.Compute Layer.Modular Monolith .Single Deployable." data-source-line="22" id="ent0008"><path d="M466.5,639.1769 L766.6064,639.1769 A3.75,3.75 0 0 1 769.1064,641.6769 L776.1064,661.4738 L776.5,661.4738 A2.5,2.5 0 0 1 779,663.9738 L779,772.8669 A2.5,2.5 0 0 1 776.5,775.3669 L466.5,775.3669 A2.5,2.5 0 0 1 464,772.8669 L464,641.6769 A2.5,2.5 0 0 1 466.5,639.1769" fill="#E8F5E9" style="stroke:#DEE2E6;stroke-width:1.5;"/><line style="stroke:#DEE2E6;stroke-width:1.5;" x1="464" x2="776.1064" y1="661.4738" y2="661.4738"/><text fill="#000000" font-family="sans-serif" font-size="14" font-weight="bold" lengthAdjust="spacing" textLength="299.1064" x="468" y="654.172">Modular Monolith (Single Deployable)</text></g><!--cluster AI Recognition--><g class="cluster" data-qualified-name="us_region.Compute Layer.AI Recognition" data-source-line="25" id="ent0010"><path d="M805.5,668.6169 L921.4736,668.6169 A3.75,3.75 0 0 1 923.9736,671.1169 L930.9736,690.9137 L1044.5,690.9137 A2.5,2.5 0 0 1 1047,693.4137 L1047,938.1069 A2.5,2.5 0 0 1 1044.5,940.6069 L805.5,940.6069 A2.5,2.5 0 0 1 803,938.1069 L803,671.1169 A2.5,2.5 0 0 1 805.5,668.6169" fill="#E3F2FD" style="stroke:#DEE2E6;stroke-width:1.5;"/><line style="stroke:#DEE2E6;stroke-width:1.5;" x1="803" x2="930.9736" y1="690.9137" y2="690.9137"/><text fill="#000000" font-family="sans-serif" font-size="14" font-weight="bold" lengthAdjust="spacing" textLength="114.9736" x="807" y="683.612">AI Recognition</text></g><!--cluster Data Layer--><g class="cluster" data-qualified-name="us_region.Data Layer" data-source-line="31" id="ent0013"><path d="M1097.5,824.3669 L1184.4756,824.3669 A3.75,3.75 0 0 1 1186.9756,826.8669 L1193.9756,846.6637 L1793.5,846.6637 A2.5,2.5 0 0 1 1796,849.1637 L1796,950.7569 A2.5,2.5 0 0 1 1793.5,953.2569 L1097.5,953.2569 A2.5,2.5 0 0 1 1095,950.7569 L1095,826.8669 A2.5,2.5 0 0 1 1097.5,824.3669" fill="#EDE7F6" style="stroke:#DEE2E6;stroke-width:1.5;"/><line style="stroke:#DEE2E6;stroke-width:1.5;" x1="1095" x2="1193.9756" y1="846.6637" y2="846.6637"/><text fill="#000000" font-family="sans-serif" font-size="14" font-weight="bold" lengthAdjust="spacing" textLength="85.9756" x="1099" y="839.362">Data Layer</text></g><!--cluster AI Services--><g class="cluster" data-qualified-name="AI Services" data-source-line="43" id="ent0020"><path d="M1846.5,1013.6069 L1934.9521,1013.6069 A3.75,3.75 0 0 1 1937.4521,1016.1069 L1944.4521,1035.9038 L2409.5,1035.9038 A2.5,2.5 0 0 1 2412,1038.4038 L2412,1098.3969 A2.5,2.5 0 0 1 2409.5,1100.8969 L1846.5,1100.8969 A2.5,2.5 0 0 1 1844,1098.3969 L1844,1016.1069 A2.5,2.5 0 0 1 1846.5,1013.6069" fill="#E8F5E9" style="stroke:#DEE2E6;stroke-width:1.5;"/><line style="stroke:#DEE2E6;stroke-width:1.5;" x1="1844" x2="1944.4521" y1="1035.9038" y2="1035.9038"/><text fill="#000000" font-family="sans-serif" font-size="14" font-weight="bold" lengthAdjust="spacing" textLength="87.4521" x="1848" y="1028.602">AI Services</text></g><!--cluster 3rd Party--><g class="cluster" data-qualified-name="3rd Party" data-source-line="49" id="ent0024"><path d="M8.5,845.1569 L83.4717,845.1569 A3.75,3.75 0 0 1 85.9717,847.6569 L92.9717,867.4537 L389.5,867.4537 A2.5,2.5 0 0 1 392,869.9537 L392,929.9569 A2.5,2.5 0 0 1 389.5,932.4569 L8.5,932.4569 A2.5,2.5 0 0 1 6,929.9569 L6,847.6569 A2.5,2.5 0 0 1 8.5,845.1569" fill="#FFF3E0" style="stroke:#DEE2E6;stroke-width:1.5;"/><line style="stroke:#DEE2E6;stroke-width:1.5;" x1="6" x2="92.9717" y1="867.4537" y2="867.4537"/><text fill="#000000" font-family="sans-serif" font-size="14" font-weight="bold" lengthAdjust="spacing" textLength="73.9717" x="10" y="860.152">3rd Party</text></g><!--entity alb--><g class="entity" data-qualified-name="us_region.alb" data-source-line="19" id="ent0006"><rect fill="#ED7100" height="52.5938" rx="2.5" ry="2.5" style="stroke:#181818;stroke-width:0.5;" width="151.0654" x="603.47" y="480.5769"/><text fill="#000000" font-family="sans-serif" font-size="14" lengthAdjust="spacing" textLength="26.9814" x="665.512" y="503.572">ALB</text><text fill="#000000" font-family="sans-serif" font-size="14" lengthAdjust="spacing" textLength="131.0654" x="613.47" y="519.8689">HTTPS termination</text></g><!--entity cw--><g class="entity" data-qualified-name="us_region.cw" data-source-line="38" id="ent0018"><rect fill="#FF4F8B" height="52.5938" rx="2.5" ry="2.5" style="stroke:#181818;stroke-width:0.5;" width="162.3447" x="679.83" y="1040.4569"/><text fill="#000000" font-family="sans-serif" font-size="14" lengthAdjust="spacing" textLength="84.4717" x="718.7665" y="1063.452">CloudWatch</text><text fill="#000000" font-family="sans-serif" font-size="14" lengthAdjust="spacing" textLength="142.3447" x="689.83" y="1079.7489">Logs, metrics, alerts</text></g><!--entity ecs_mono--><g class="entity" data-qualified-name="us_region.Compute Layer.Modular Monolith .Single Deployable..ecs_mono" data-source-line="23" id="ent0009"><rect fill="#FF9900" height="85.1875" rx="2.5" ry="2.5" style="stroke:#181818;stroke-width:0.5;" width="167.123" x="595.44" y="674.1769"/><text fill="#000000" font-family="sans-serif" font-size="14" lengthAdjust="spacing" textLength="96.8994" x="630.5518" y="697.172">ECS: Monolith</text><text fill="#000000" font-family="sans-serif" font-size="14" lengthAdjust="spacing" textLength="134.8184" x="611.5923" y="713.4689">Users + Partners +</text><text fill="#000000" font-family="sans-serif" font-size="14" lengthAdjust="spacing" textLength="147.123" x="605.44" y="729.7657">Recommendations +</text><text fill="#000000" font-family="sans-serif" font-size="14" lengthAdjust="spacing" textLength="140.7383" x="608.6324" y="746.0626">Payments + Loyalty</text></g><!--entity sqs--><g class="entity" data-qualified-name="us_region.Compute Layer.AI Recognition.sqs" data-source-line="26" id="ent0011"><path d="M841.26,703.6169 L1022.7327,703.6169 C1027.7327,703.6169 1027.7327,716.7653 1027.7327,716.7653 C1027.7327,716.7653 1027.7327,729.9137 1022.7327,729.9137 L841.26,729.9137 C836.26,729.9137 836.26,716.7653 836.26,716.7653 C836.26,716.7653 836.26,703.6169 841.26,703.6169" fill="#FF4F8B" style="stroke:#181818;stroke-width:0.5;"/><path d="M1022.7327,703.6169 C1017.7327,703.6169 1017.7327,716.7653 1017.7327,716.7653 C1017.7327,729.9137 1022.7327,729.9137 1022.7327,729.9137" fill="none" style="stroke:#181818;stroke-width:0.5;"/><text fill="#000000" font-family="sans-serif" font-size="14" lengthAdjust="spacing" textLength="171.4727" x="841.26" y="721.612">SQS: Recognition Queue</text></g><!--entity ar--><g class="entity" data-qualified-name="us_region.Compute Layer.AI Recognition.ar" data-source-line="27" id="ent0012"><rect fill="#FF9900" height="52.5938" rx="2.5" ry="2.5" style="stroke:#181818;stroke-width:0.5;" width="212.9922" x="818.5" y="872.0069"/><text fill="#000000" font-family="sans-serif" font-size="14" lengthAdjust="spacing" textLength="192.9922" x="828.5" y="895.002">Lambda: Photo Recognition</text><text fill="#000000" font-family="sans-serif" font-size="14" lengthAdjust="spacing" textLength="135.9805" x="857.0059" y="911.2989">On-demand scaling</text></g><!--entity db--><g class="entity" data-qualified-name="us_region.Data Layer.db" data-source-line="32" id="ent0014"><path d="M1111.33,869.3669 C1111.33,859.3669 1192.0033,859.3669 1192.0033,859.3669 C1192.0033,859.3669 1272.6767,859.3669 1272.6767,869.3669 L1272.6767,927.2575 C1272.6767,937.2575 1192.0033,937.2575 1192.0033,937.2575 C1192.0033,937.2575 1111.33,937.2575 1111.33,927.2575 L1111.33,869.3669" fill="#3B48CC" style="stroke:#181818;stroke-width:0.5;"/><path d="M1111.33,869.3669 C1111.33,879.3669 1192.0033,879.3669 1192.0033,879.3669 C1192.0033,879.3669 1272.6767,879.3669 1272.6767,869.3669" fill="none" style="stroke:#181818;stroke-width:0.5;"/><text fill="#000000" font-family="sans-serif" font-size="14" lengthAdjust="spacing" textLength="80.7529" x="1151.6269" y="896.362">PostgreSQL</text><text fill="#000000" font-family="sans-serif" font-size="14" lengthAdjust="spacing" textLength="141.3467" x="1121.33" y="912.6589">t4g.medium, 100GB</text><text fill="#000000" font-family="sans-serif" font-size="14" lengthAdjust="spacing" textLength="120.9961" x="1131.5053" y="928.9557">Multi-AZ, PostGIS</text></g><!--entity cache--><g class="entity" data-qualified-name="us_region.Data Layer.cache" data-source-line="33" id="ent0015"><path d="M1453.28,877.5069 C1453.28,867.5069 1532.9997,867.5069 1532.9997,867.5069 C1532.9997,867.5069 1612.7195,867.5069 1612.7195,877.5069 L1612.7195,919.1006 C1612.7195,929.1006 1532.9997,929.1006 1532.9997,929.1006 C1532.9997,929.1006 1453.28,929.1006 1453.28,919.1006 L1453.28,877.5069" fill="#3B48CC" style="stroke:#181818;stroke-width:0.5;"/><path d="M1453.28,877.5069 C1453.28,887.5069 1532.9997,887.5069 1532.9997,887.5069 C1532.9997,887.5069 1612.7195,887.5069 1612.7195,877.5069" fill="none" style="stroke:#181818;stroke-width:0.5;"/><text fill="#000000" font-family="sans-serif" font-size="14" lengthAdjust="spacing" textLength="120.21" x="1472.8947" y="904.502">Redis Cache 5GB</text><text fill="#000000" font-family="sans-serif" font-size="14" lengthAdjust="spacing" textLength="139.4395" x="1463.28" y="920.7989">Sessions &amp; hot data</text></g><!--entity s3p--><g class="entity" data-qualified-name="us_region.Data Layer.s3p" data-source-line="34" id="ent0016"><rect fill="#3F8624" height="52.5938" rx="35" ry="35" style="stroke:#181818;stroke-width:0.5;" width="111.335" x="1307.33" y="872.0069"/><text fill="#000000" font-family="sans-serif" font-size="14" lengthAdjust="spacing" textLength="69.4736" x="1328.2607" y="895.002">S3 Photos</text><text fill="#000000" font-family="sans-serif" font-size="14" lengthAdjust="spacing" textLength="91.335" x="1317.33" y="911.2989">User uploads</text></g><!--entity s3s--><g class="entity" data-qualified-name="us_region.Data Layer.s3s" data-source-line="35" id="ent0017"><rect fill="#3F8624" height="52.5938" rx="35" ry="35" style="stroke:#181818;stroke-width:0.5;" width="132.2871" x="1647.86" y="872.0069"/><text fill="#000000" font-family="sans-serif" font-size="14" lengthAdjust="spacing" textLength="112.2871" x="1657.86" y="895.002">S3 Static Assets</text><text fill="#000000" font-family="sans-serif" font-size="14" lengthAdjust="spacing" textLength="75.3389" x="1676.3341" y="911.2989">CDN origin</text></g><!--entity gv--><g class="entity" data-qualified-name="AI Services.gv" data-source-line="44" id="ent0021"><rect fill="#4285F4" height="36.2969" rx="2.5" ry="2.5" style="stroke:#181818;stroke-width:0.5;" width="142.5068" x="1859.75" y="1048.6069"/><text fill="#000000" font-family="sans-serif" font-size="14" lengthAdjust="spacing" textLength="122.5068" x="1869.75" y="1071.602">Google Vision API</text></g><!--entity openai--><g class="entity" data-qualified-name="AI Services.openai" data-source-line="45" id="ent0022"><rect fill="#00A67E" height="36.2969" rx="2.5" ry="2.5" style="stroke:#181818;stroke-width:0.5;" width="126.9277" x="2037.54" y="1048.6069"/><text fill="#000000" font-family="sans-serif" font-size="14" lengthAdjust="spacing" textLength="106.9277" x="2047.54" y="1071.602">OpenAI GPT-4V</text></g><!--entity gemini--><g class="entity" data-qualified-name="AI Services.gemini" data-source-line="46" id="ent0023"><rect fill="#4285F4" height="36.2969" rx="2.5" ry="2.5" style="stroke:#181818;stroke-width:0.5;" width="196.627" x="2199.69" y="1048.6069"/><text fill="#000000" font-family="sans-serif" font-size="14" lengthAdjust="spacing" textLength="176.627" x="2209.69" y="1071.602">Google Gemini (Fallback)</text></g><!--entity stripe--><g class="entity" data-qualified-name="3rd Party.stripe" data-source-line="50" id="ent0025"><rect fill="#635BFF" height="36.2969" rx="2.5" ry="2.5" style="stroke:#181818;stroke-width:0.5;" width="61.5215" x="22.24" y="880.1569"/><text fill="#000000" font-family="sans-serif" font-size="14" lengthAdjust="spacing" textLength="41.5215" x="32.24" y="903.152">Stripe</text></g><!--entity email--><g class="entity" data-qualified-name="3rd Party.email" data-source-line="51" id="ent0026"><rect fill="#1A82E2" height="36.2969" rx="2.5" ry="2.5" style="stroke:#181818;stroke-width:0.5;" width="84.6406" x="118.68" y="880.1569"/><text fill="#000000" font-family="sans-serif" font-size="14" lengthAdjust="spacing" textLength="64.6406" x="128.68" y="903.152">SendGrid</text></g><!--entity maps--><g class="entity" data-qualified-name="3rd Party.maps" data-source-line="52" id="ent0027"><rect fill="#4285F4" height="36.2969" rx="2.5" ry="2.5" style="stroke:#181818;stroke-width:0.5;" width="137.2568" x="238.37" y="880.1569"/><text fill="#000000" font-family="sans-serif" font-size="14" lengthAdjust="spacing" textLength="117.2568" x="248.37" y="903.152">Google Maps API</text></g><!--entity users--><g class="entity" data-qualified-name="users" data-source-line="14" id="ent0002"><ellipse cx="1170.9955" cy="51.2969" fill="#F1F1F1" rx="8" ry="8" style="stroke:#181818;stroke-width:0.5;"/><path d="M1170.9955,59.2969 L1170.9955,86.2969 M1157.9955,67.2969 L1183.9955,67.2969 M1170.9955,86.2969 L1157.9955,101.2969 M1170.9955,86.2969 L1183.9955,101.2969" fill="none" style="stroke:#181818;stroke-width:0.5;"/><text fill="#000000" font-family="sans-serif" font-size="14" lengthAdjust="spacing" textLength="89.5781" x="1126.2065" y="115.792">Mobile Users</text><text fill="#000000" font-family="sans-serif" font-size="14" lengthAdjust="spacing" textLength="93.8711" x="1124.06" y="132.0889">(iOS/Android)</text></g><!--entity dns--><g class="entity" data-qualified-name="dns" data-source-line="15" id="ent0003"><path d="M1133.423,222.0385 C1137.1833,215.2595 1141.1497,214.2321 1146.7899,220.0424 C1149.9075,214.3196 1155.2095,215.0923 1158.1608,220.2166 C1160.981,212.9003 1167.1007,212.693 1171.2832,218.8941 C1177.1247,212.1159 1181.5789,214.7899 1185.0856,221.3163 C1189.2812,213.3153 1193.6454,213.4605 1199.0239,220.1975 C1202.3393,214.9637 1207.2336,215.2653 1210.049,220.7135 C1216.8694,223.066 1219.2646,229.0067 1212.8635,234.1324 C1217.9609,235.4864 1220.4562,239.0951 1216.4245,243.8087 C1221.8968,249.8736 1220.3638,255.0191 1212.6027,257.3486 C1217.5236,260.5372 1216.5152,265.5867 1211.4745,267.6885 C1208.8847,276.0192 1201.5963,275.3393 1196.9566,269.8405 C1194.5176,277.3586 1189.4847,278.0393 1184.3464,272.4342 C1181.6304,280.568 1177.6294,281.4222 1171.2917,275.8953 C1166.6188,279.6344 1162.3319,278.1725 1160.2278,272.7823 C1155.347,278.4231 1149.2907,277.1342 1146.3764,270.5535 C1140.7942,275.9247 1136.163,275.2086 1133.8716,267.4253 C1129.6818,264.3532 1128.2456,261.0827 1133.2738,257.4578 C1126.5054,254.1221 1126.3016,250.0744 1132.0476,245.4597 C1125.6096,240.6814 1126.2692,236.3692 1133.1076,232.6933 C1127.6628,229.2984 1128.589,225.1291 1133.423,222.0385" fill="#F1F1F1" style="stroke:#181818;stroke-width:0.5;"/><text fill="#000000" font-family="sans-serif" font-size="14" lengthAdjust="spacing" textLength="63.5332" x="1139.23" y="240.392">Route 53</text><text fill="#000000" font-family="sans-serif" font-size="14" lengthAdjust="spacing" textLength="30.1396" x="1155.9268" y="256.6889">DNS</text></g><!--entity cdn--><g class="entity" data-qualified-name="cdn" data-source-line="16" id="ent0004"><path d="M1092.9704,344.4826 C1097.5494,338.5149 1101.6316,338.8626 1105.2238,345.446 C1108.091,340.0544 1112.769,338.5911 1116.5415,344.5428 C1119.2174,338.8432 1124.4569,338.6137 1127.5261,344.1584 C1129.6248,338.9653 1134.4193,339.0149 1137.5738,343.003 C1142.1317,338.5633 1146.8608,337.6708 1149.6969,344.8063 C1152.6108,338.4394 1158.051,338.0502 1161.5677,344.2363 C1163.4421,338.4308 1168.2524,338.101 1171.6797,342.7316 C1175.0535,336.9342 1179.1838,338.1268 1182.4175,342.8742 C1186.4386,337.282 1192.8881,336.781 1195.6233,344.1812 C1198.4525,339.1652 1203.2827,339.5056 1206.1349,344.1561 C1210.1324,338.6846 1214.7769,338.752 1217.7977,345.1184 C1221.2601,339.565 1224.727,340.4155 1228.0751,345.2317 C1231.8119,339.3753 1236.3291,338.6264 1240.8136,344.4138 C1244.28,339.6176 1248.8271,340.8749 1250.6961,346.0042 C1256.5818,347.5072 1258.4518,352.3783 1253.5628,356.7546 C1259.7293,359.321 1259.8097,364.9828 1254.1741,368.1806 C1259.0483,372.4907 1258.5448,377.3517 1253.0297,380.713 C1258.2194,384.8336 1257.3651,389.4307 1251.7812,392.4003 C1248.7892,396.9339 1243.4118,397.2972 1241.0641,391.7176 C1237.793,399.0046 1233.4088,398.7786 1228.3626,393.514 C1224.6206,398.7819 1221.1227,398.5036 1217.2663,393.6392 C1213.8474,398.159 1210.0554,397.7592 1207.0978,393.1267 C1203.2885,398.7995 1199.6188,398.9944 1195.4599,393.4907 C1191.9831,400.17 1187.5674,399.9816 1183.5198,394.0303 C1180.0544,399.183 1175.6771,400.5615 1171.9114,394.3367 C1168.2841,400.5485 1164.2467,399.8817 1160.2853,394.677 C1157.5694,400.0407 1152.1431,401.0988 1149.0642,395.0333 C1145.4926,399.8983 1140.5658,400.5558 1137.8325,394.1946 C1133.6435,398.0316 1130.1617,399.0089 1127.285,392.8148 C1123.9417,399.0606 1118.382,399.3754 1115.11,392.7474 C1111.6679,396.713 1107.299,395.7791 1105.1345,391.2476 C1101.3033,397.7602 1097.3403,396.4662 1093.2952,391.4676 C1086.9268,389.4284 1085.1992,384.6638 1089.2844,379.2054 C1082.2771,377.3031 1081.5583,373.54 1085.7107,368.0596 C1081.4407,363.6244 1083.654,359.1389 1089.0263,357.8285 C1084.336,352.3136 1085.0495,346.2705 1092.9704,344.4826" fill="#F1F1F1" style="stroke:#181818;stroke-width:0.5;"/><text fill="#000000" font-family="sans-serif" font-size="14" lengthAdjust="spacing" textLength="112.2051" x="1114.8962" y="363.982">CloudFront CDN</text><text fill="#000000" font-family="sans-serif" font-size="14" lengthAdjust="spacing" textLength="144.4775" x="1098.76" y="380.2789">Cache static content</text></g><!--entity auth--><g class="entity" data-qualified-name="auth" data-source-line="41" id="ent0019"><rect fill="#DD344C" height="52.5938" rx="2.5" ry="2.5" style="stroke:#181818;stroke-width:0.5;" width="130.9678" x="269.52" y="690.4769"/><text fill="#000000" font-family="sans-serif" font-size="14" lengthAdjust="spacing" textLength="90.8018" x="289.603" y="713.472">AWS Cognito</text><text fill="#000000" font-family="sans-serif" font-size="14" lengthAdjust="spacing" textLength="110.9678" x="279.52" y="729.7689">OAuth 2.0/OIDC</text></g><!--entity slack--><g class="entity" data-qualified-name="slack" data-source-line="55" id="ent0028"><rect fill="#611F69" height="36.2969" rx="2.5" ry="2.5" style="stroke:#181818;stroke-width:0.5;" width="102.2295" x="709.89" y="1172.0469"/><text fill="#000000" font-family="sans-serif" font-size="14" lengthAdjust="spacing" textLength="82.2295" x="719.89" y="1195.042">Slack Alerts</text></g><!--link users to dns--><g class="link" data-entity-1="ent0002" data-entity-2="ent0003" data-link-type="dependency" data-source-line="57" id="lnk29"><path d="M1171,135.8769 C1171,160.4569 1171,184.0969 1171,205.9169" fill="none" id="users-to-dns" style="stroke:#181818;stroke-width:1;"/><polygon fill="#181818" points="1171,211.9169,1175,202.9169,1171,206.9169,1167,202.9169,1171,211.9169" style="stroke:#181818;stroke-width:1;"/><text fill="#000000" font-family="sans-serif" font-size="13" lengthAdjust="spacing" textLength="94.123" x="1172" y="178.4638">HTTPS TLS 1.3</text></g><!--link dns to cdn--><g class="link" data-entity-1="ent0003" data-entity-2="ent0004" data-link-type="dependency" data-source-line="58" id="lnk30"><path d="M1171,275.3769 C1171,293.8069 1171,311.1769 1171,329.6069" fill="none" id="dns-to-cdn" style="stroke:#181818;stroke-width:1;"/><polygon fill="#181818" points="1171,335.6069,1175,326.6069,1171,330.6069,1167,326.6069,1171,335.6069" style="stroke:#181818;stroke-width:1;"/></g><!--link cdn to alb--><g class="link" data-entity-1="ent0004" data-entity-2="ent0006" data-link-type="dependency" data-source-line="59" id="lnk31"><path d="M1083.32,392.8069 C989.95,418.9169 849.4283,458.221 760.7783,483.011" fill="none" id="cdn-to-alb" style="stroke:#181818;stroke-width:1;"/><polygon fill="#181818" points="755,484.6269,764.7447,486.0553,759.8153,483.2803,762.5903,478.3509,755,484.6269" style="stroke:#181818;stroke-width:1;"/></g><!--link alb to ecs_mono--><g class="link" data-entity-1="ent0006" data-entity-2="ent0009" data-link-type="dependency" data-source-line="60" id="lnk32"><path d="M679,533.3669 C679,568.3869 679,625.8169 679,667.8669" fill="none" id="alb-to-ecs_mono" style="stroke:#181818;stroke-width:1;"/><polygon fill="#181818" points="679,673.8669,683,664.8669,679,668.8669,675,664.8669,679,673.8669" style="stroke:#181818;stroke-width:1;"/><text fill="#000000" font-family="sans-serif" font-size="13" lengthAdjust="spacing" textLength="98.9282" x="680" y="576.2438">Route requests</text></g><!--link alb to auth--><g class="link" data-entity-1="ent0006" data-entity-2="ent0019" data-link-type="dependency" data-source-line="61" id="lnk33"><path d="M629.87,533.6669 C612.98,542.7569 594.04,553.1969 577,563.1769 C504.13,605.8369 426.3526,655.8445 378.9326,686.8345" fill="none" id="alb-to-auth" style="stroke:#181818;stroke-width:1;"/><polygon fill="#181818" points="373.91,690.1169,383.6321,688.5417,378.0955,687.3816,379.2556,681.845,373.91,690.1169" style="stroke:#181818;stroke-width:1;"/><text fill="#000000" font-family="sans-serif" font-size="13" lengthAdjust="spacing" textLength="92.7646" x="578" y="576.2438">JWT validation</text></g><!--link ecs_mono to s3p--><g class="link" data-entity-1="ent0009" data-entity-2="ent0016" data-link-type="dependency" data-source-line="63" id="lnk34"><path d="M744.56,759.6969 C762.8,769.3069 783.08,778.2069 803,783.3669 C846.57,794.6369 1163.81,782.8369 1208,791.3669 C1228.99,795.4069 1232.5,802.3069 1253,808.3669 C1269.14,813.1269 1275.44,807.9269 1290,816.3669 C1313.42,829.9269 1329.9477,848.7251 1343.0677,866.9751" fill="none" id="ecs_mono-to-s3p" style="stroke:#181818;stroke-width:1;"/><polygon fill="#181818" points="1346.57,871.8469,1344.5644,862.2044,1343.6514,867.7871,1338.0687,866.8741,1346.57,871.8469" style="stroke:#181818;stroke-width:1;"/><text fill="#000000" font-family="sans-serif" font-size="13" lengthAdjust="spacing" textLength="87.1787" x="1254" y="804.4338">Upload photo</text></g><!--link s3p to sqs--><g class="link" data-entity-1="ent0016" data-entity-2="ent0011" data-link-type="dependency" data-source-line="64" id="lnk35"><path d="M1385.36,871.8469 C1399.64,855.7469 1418.67,834.6169 1436,816.3669 C1439.46,812.7169 1442.08,813.0069 1444,808.3669 C1446.89,801.3869 1448.95,797.0769 1444,791.3669 C1391.26,730.4969 1167.0596,718.8668 1033.9796,717.3168" fill="none" id="s3p-to-sqs" style="stroke:#181818;stroke-width:1;"/><polygon fill="#181818" points="1027.98,717.2469,1036.9328,721.3514,1032.9797,717.3051,1037.026,713.352,1027.98,717.2469" style="stroke:#181818;stroke-width:1;"/><text fill="#000000" font-family="sans-serif" font-size="13" lengthAdjust="spacing" textLength="105.7139" x="1447" y="804.4338">S3 event trigger</text></g><!--link sqs to ar--><g class="link" data-entity-1="ent0011" data-entity-2="ent0012" data-link-type="dependency" data-source-line="65" id="lnk36"><path d="M931.51,730.3969 C930.37,759.6869 927.7535,826.7514 926.2335,865.7814" fill="none" id="sqs-to-ar" style="stroke:#181818;stroke-width:1;"/><polygon fill="#181818" points="926,871.7769,930.3472,862.9394,926.1946,866.7807,922.3533,862.628,926,871.7769" style="stroke:#181818;stroke-width:1;"/><text fill="#000000" font-family="sans-serif" font-size="13" lengthAdjust="spacing" textLength="91.7808" x="930" y="804.4338">Process async</text></g><!--link ar to gv--><g class="link" data-entity-1="ent0012" data-entity-2="ent0021" data-link-type="dependency" data-source-line="66" id="lnk37"><path d="M972.2,924.9469 C1005.49,941.6869 1051.69,962.2969 1095,972.6069 C1274.76,1015.3769 1325.39,989.6669 1510,997.6069 C1544.42,999.0869 1786.71,996.7069 1820,1005.6069 C1852.19,1014.2069 1880.2998,1030.4506 1901.8798,1044.9506" fill="none" id="ar-to-gv" style="stroke:#181818;stroke-width:1;"/><polygon fill="#181818" points="1906.86,1048.2969,1901.6206,1039.9573,1902.7098,1045.5083,1897.1588,1046.5976,1906.86,1048.2969" style="stroke:#181818;stroke-width:1;"/><text fill="#000000" font-family="sans-serif" font-size="13" lengthAdjust="spacing" textLength="127.4609" x="1511" y="993.6738">1. Landmark detect</text></g><!--link ar to openai--><g class="link" data-entity-1="ent0012" data-entity-2="ent0022" data-link-type="dependency" data-source-line="67" id="lnk38"><path d="M970.98,925.0169 C1004.28,942.1469 1051,963.1869 1095,972.6069 C1154.55,985.3469 1582.15,978.1469 1643,980.6069 C1663.97,981.4569 2000.3,998.3569 2020,1005.6069 C2044.82,1014.7369 2064.1564,1029.92 2079.4464,1044.21" fill="none" id="ar-to-openai" style="stroke:#181818;stroke-width:1;"/><polygon fill="#181818" points="2083.83,1048.3069,2079.9859,1039.2392,2080.177,1044.8928,2074.5234,1045.0839,2083.83,1048.3069" style="stroke:#181818;stroke-width:1;"/><text fill="#000000" font-family="sans-serif" font-size="13" lengthAdjust="spacing" textLength="120.98" x="1934" y="993.6738">2. Rich description</text></g><!--link ar to gemini--><g class="link" data-entity-1="ent0012" data-entity-2="ent0023" data-link-type="dependency" data-source-line="68" id="lnk39"><path d="M970.96,925.1069 C1004.26,942.2769 1050.97,963.3269 1095,972.6069 C1147.62,983.6969 2009.53,974.8269 2063,980.6069 C2116.73,986.4169 2131.1,987.4469 2182,1005.6069 C2213.19,1016.7369 2241.363,1031.704 2264.253,1045.114" fill="none" id="ar-to-gemini" style="stroke:#181818;stroke-width:1;"/><polygon fill="#181818" points="2269.43,1048.1469,2263.6864,1040.1462,2265.1158,1045.6194,2259.6425,1047.0488,2269.43,1048.1469" style="stroke:#181818;stroke-width:1;"/><text fill="#000000" font-family="sans-serif" font-size="13" lengthAdjust="spacing" textLength="70.0972" x="2158" y="993.6738">3. Fallback</text></g><!--link ecs_mono to db--><g class="link" data-entity-1="ent0009" data-entity-2="ent0014" data-link-type="dependency" data-source-line="70" id="lnk40"><path d="M744.93,759.6969 C763.08,769.2469 783.23,778.1069 803,783.3669 C855.43,797.2969 995.71,773.6869 1047,791.3669 C1087.38,805.2769 1121.5918,830.6537 1148.8318,854.9437" fill="none" id="ecs_mono-to-db" style="stroke:#181818;stroke-width:1;"/><polygon fill="#181818" points="1153.31,858.9369,1149.2549,849.9616,1149.5782,855.6092,1143.9306,855.9325,1153.31,858.9369" style="stroke:#181818;stroke-width:1;"/><text fill="#000000" font-family="sans-serif" font-size="13" lengthAdjust="spacing" textLength="116.1558" x="1083" y="804.4338">ACID transactions</text></g><!--link ecs_mono to cache--><g class="link" data-entity-1="ent0009" data-entity-2="ent0015" data-link-type="dependency" data-source-line="71" id="lnk41"><path d="M744.55,759.7669 C762.78,769.3769 783.06,778.2569 803,783.3669 C861.45,798.3269 1287.56,776.3469 1346,791.3669 C1361.6,795.3669 1362.68,803.4069 1378,808.3669 C1402.76,816.3669 1412.2,805.8369 1436,816.3669 C1462.68,828.1569 1483.5573,845.3244 1501.5573,863.1544" fill="none" id="ecs_mono-to-cache" style="stroke:#181818;stroke-width:1;"/><polygon fill="#181818" points="1505.82,867.3769,1502.2409,858.2014,1502.2677,863.8582,1496.6109,863.885,1505.82,867.3769" style="stroke:#181818;stroke-width:1;"/><text fill="#000000" font-family="sans-serif" font-size="13" lengthAdjust="spacing" textLength="56.2402" x="1379" y="804.4338">Hot data</text></g><!--link ecs_mono to stripe--><g class="link" data-entity-1="ent0009" data-entity-2="ent0025" data-link-type="dependency" data-source-line="72" id="lnk42"><path d="M594.97,743.7069 C544.25,758.1469 478.02,774.8769 418,783.3669 C316.28,797.7369 288.44,775.1169 187,791.3669 C147.7,797.6569 132.46,791.9869 101,816.3669 C79.82,832.7769 68.2465,855.7817 61.1065,874.2217" fill="none" id="ecs_mono-to-stripe" style="stroke:#181818;stroke-width:1;"/><polygon fill="#181818" points="58.94,879.8169,65.9199,872.8684,60.7454,875.1542,58.4596,869.9797,58.94,879.8169" style="stroke:#181818;stroke-width:1;"/><text fill="#000000" font-family="sans-serif" font-size="13" lengthAdjust="spacing" textLength="129.7651" x="188" y="804.4338">Payments (Phase 2)</text></g><!--link ecs_mono to email--><g class="link" data-entity-1="ent0009" data-entity-2="ent0026" data-link-type="dependency" data-source-line="74" id="lnk43"><path d="M595.01,743.7569 C524.04,764.6469 419.33,792.9569 326,808.3669 C302.91,812.1769 241.49,805.0469 221,816.3669 C195.43,830.4869 180.2887,855.2188 171.0387,874.4688" fill="none" id="ecs_mono-to-email" style="stroke:#181818;stroke-width:1;"/><polygon fill="#181818" points="168.44,879.8769,175.9434,873.4973,170.6056,875.3702,168.7326,870.0324,168.44,879.8769" style="stroke:#181818;stroke-width:1;"/><text fill="#000000" font-family="sans-serif" font-size="13" lengthAdjust="spacing" textLength="81.3643" x="405" y="804.4338">Notifications</text></g><!--link ecs_mono to maps--><g class="link" data-entity-1="ent0009" data-entity-2="ent0027" data-link-type="dependency" data-source-line="75" id="lnk44"><path d="M595.04,756.0869 C574.79,766.5569 553.64,778.5769 535,791.3669 C525.66,797.7669 526.42,803.8969 516,808.3669 C475.02,825.9269 457.74,800.6869 416,816.3669 C379.15,830.2069 348.3022,856.2649 328.3122,875.6049" fill="none" id="ecs_mono-to-maps" style="stroke:#181818;stroke-width:1;"/><polygon fill="#181818" points="324,879.7769,333.2496,876.3937,327.5935,876.3002,327.687,870.6442,324,879.7769" style="stroke:#181818;stroke-width:1;"/><text fill="#000000" font-family="sans-serif" font-size="13" lengthAdjust="spacing" textLength="55.3198" x="536" y="804.4338">POI data</text></g><!--link ecs_mono to cw--><g class="link" data-entity-1="ent0009" data-entity-2="ent0018" data-link-type="dependency" data-source-line="77" id="lnk45"><path d="M676.85,759.6069 C675.52,811.1369 677.58,900.6769 702,972.6069 C710.43,997.4369 723.1447,1017.5633 736.4747,1035.3733" fill="none" id="ecs_mono-to-cw" style="stroke:#181818;stroke-width:1;"/><polygon fill="#181818" points="740.07,1040.1769,737.8795,1030.5747,737.074,1036.1739,731.4748,1035.3684,740.07,1040.1769" style="stroke:#181818;stroke-width:1;"/><text fill="#000000" font-family="sans-serif" font-size="13" lengthAdjust="spacing" textLength="99.7344" x="703" y="902.8738">Structured logs</text></g><!--link ar to cw--><g class="link" data-entity-1="ent0012" data-entity-2="ent0018" data-link-type="dependency" data-source-line="78" id="lnk46"><path d="M899.73,924.9469 C868.92,956.2269 821.3418,1004.5136 790.5018,1035.8036" fill="none" id="ar-to-cw" style="stroke:#181818;stroke-width:1;"/><polygon fill="#181818" points="786.29,1040.0769,795.4565,1036.4749,789.7998,1036.5158,789.7589,1030.8591,786.29,1040.0769" style="stroke:#181818;stroke-width:1;"/><text fill="#000000" font-family="sans-serif" font-size="13" lengthAdjust="spacing" textLength="94.9165" x="844" y="993.6738">Execution logs</text></g><!--link cw to slack--><g class="link" data-entity-1="ent0018" data-entity-2="ent0028" data-link-type="dependency" data-source-line="79" id="lnk47"><path d="M761,1093.5069 C761,1117.0469 761,1145.2069 761,1165.7069" fill="none" id="cw-to-slack" style="stroke:#181818;stroke-width:1;"/><polygon fill="#181818" points="761,1171.7069,765,1162.7069,761,1166.7069,757,1162.7069,761,1171.7069" style="stroke:#181818;stroke-width:1;"/><text fill="#000000" font-family="sans-serif" font-size="13" lengthAdjust="spacing" textLength="98.3887" x="762" y="1138.1138">Error rate &gt;5%</text></g><!--link cdn to s3s--><g class="link" data-entity-1="ent0004" data-entity-2="ent0017" data-link-type="dependency" data-source-line="80" id="lnk48"><path d="M1258.74,369.2369 C1379.64,372.4769 1588.51,385.6769 1641,437.5769 C1762.67,557.9069 1734.063,787.81 1720.173,865.73" fill="none" id="cdn-to-s3s" style="stroke:#181818;stroke-width:1;"/><polygon fill="#181818" points="1719.12,871.6369,1724.6374,863.4785,1719.9975,866.7145,1716.7615,862.0746,1719.12,871.6369" style="stroke:#181818;stroke-width:1;"/><text fill="#000000" font-family="sans-serif" font-size="13" lengthAdjust="spacing" textLength="81.5737" x="1717" y="576.2438">Cache origin</text></g><?plantuml-src RLPjJ-f85FxUNt42sOrcnSkxo8URrBvmsO0WHKqs93T3EzQ9xGpEJFMo6__xdfa2jw0nIZdlvpdFELKpdL6ORJGJ7Df3U20PIuYcy1TC1QUQ_KkX0VSHd2q2RpQT1hT-u9yxZdfXV4CaoM5DufTKYe8ddiY4XFTdfcb57ujyWv6uZlGMKqaQQyBJh6gIq2TIP7f9VsatOodFqHfY_4DbnUhW2Vyv0BkCabC9hQRpKJ7SO4KaBSrkJgghXuFmEdIDHiY4oftK3u9sqCSe3ear2cfJiMQOwLvHgLRyZCsYRovFf639UGs8Wi8ed3WJHGArXIWGiLvdnVtRoAeJVb1wvYEK0blo_DiLzqZyJ45febcCu62JN5kVEE6Eyxl9cliO8V2Dm8sMZHOiQ8eZskN-AUqtxCOrFxRJ0yxeERbPyH_BvJm2X31ddEYzBydMK0_ygrQpwQ3J7ggQXzwcYGdPKbcp0IlQgKYAZ4X32P4n_Gnd4RD5-dIJYIrPPnHXgGU3i1TSxvoFAWgyQ7ZmNd4BAr9iJgJczd755nJjSVA9BTQAvcHhg60i9vWbqrlR0utLpnnZOVlXzJKsOf9z75ViZi44J3ahMwy7dR0T-eVQNWjQe5bqXtLL3E7Eo6qMzQfCWcuukFdSpuJawuGCOVuijAW6MF4PRoGq9pm15UCoyRJ4NNwgzkDe03xHP8y-3YYu2lkxOX4GiYOARUP2wLJIw6wouhgRNkOqOKL-WVnlZd3YKzmXrd3_kG1ZE1hlg8W3xznq1vvt4cs1tWfAElQCVqILij3_2TYMjIo9QKsgGHJkYAqwwfGGg7AcK20TIA9A03iRT0e7_NRtarDKqjzLYchqnSK08LdA-CvJLJmjJXNixK8z4XqZaIOYLHUGKorPZ0yaerANsUFtm_GmG7KvSAqyEow1mt8BP7FxilbjDlQzSb96KlVzJhVhEKwLK16LRoocwfZfbT0Z8SnIF3038xZpiGsOla6zsnxqmkwnzMn3EKOTpPUDxeEr52WX3EhDfjk_2hwCFQAupWpEGf9bvlAMroWjfViq7vMwEpAnQuQhWtY4dQ1vMdM4u6rsdBUFKEztUZTXU6A6gpcIB2bNC2SiWthB7RI3zfU5Jib67I38pPTATTMm6LOAxk_1AIkezrkjf_wruzX32ut6TtDJOGZbMLjE8cXTTXmZCpfpE_7NFkE9SyoPCy-7Ku5RRe-qfBZvIgk3XHtt4Fv-NC9R-Ux3sJdEmT7O62OFuTvo6pQ6xuuHMTMhAGePJTzCEuXVcfgtrcjP5wuz7Wafa3N8BBNbiOCYeq5M3B45N7cUv4I-u4jGu-tVgtTK628tOS7YPrIh68TZgzk7AAS-XCubxFbmKZak_n1SR-nZPOGhVBcP1J-sATSRaTtj_4dl9IMmY_qnFfi_c_lHFZ_9LN9Y2BT2ioSMaozIMHvWgDcup7HIoBk1KiiYreMa2MIutFjUhIxuHUF2dcchGfcjq186jLBYcrkQVrw-z_uuqC4Sa-7kp9Ktvdy0?></g></svg>