<?plantuml 1.2026.1?><svg xmlns="http://www.w3.org/2000/svg" xmlns:xlink="http://www.w3.org/1999/xlink" contentStyleType="text/css" data-diagram-type="SEQUENCE" height="796px" preserveAspectRatio="none" style="width:729px;height:796px;background:#FFFFFF;" version="1.1" viewBox="0 0 729 796" width="729px" zoomAndPan="magnify"><title>AI Recognition &#8212; Fallback Chain</title><defs/><g><text fill="#000000" font-family="sans-serif" font-size="14" font-weight="bold" lengthAdjust="spacing" textLength="253.7363" x="233.5144" y="27.9951">AI Recognition &#8212; Fallback Chain</text><rect fill="none" height="442.2734" style="stroke:#000000;stroke-width:1.5;" width="575.6011" x="10" y="150.7266"/><rect fill="none" height="148.4688" style="stroke:#000000;stroke-width:1.5;" width="555.6011" x="20" y="233.125"/><g class="participant-lifeline" data-entity-uid="part1" data-qualified-name="lambda" id="part1-lifeline"><g><title>Lambda</title><rect fill="#000000" fill-opacity="0.00000" height="613.9375" width="8" x="61.1846" y="104.5938"/><line style="stroke:#181818;stroke-width:0.5;stroke-dasharray:5,5;" x1="65" x2="65" y1="104.5938" y2="718.5313"/></g></g><g class="participant-lifeline" data-entity-uid="part2" data-qualified-name="vision" id="part2-lifeline"><g><title>Google Vision</title><rect fill="#000000" fill-opacity="0.00000" height="613.9375" width="8" x="248.1479" y="104.5938"/><line style="stroke:#181818;stroke-width:0.5;stroke-dasharray:5,5;" x1="251.1938" x2="251.1938" y1="104.5938" y2="718.5313"/></g></g><g class="participant-lifeline" data-entity-uid="part3" data-qualified-name="gpt" id="part3-lifeline"><g><title>OpenAI GPT-4V</title><rect fill="#000000" fill-opacity="0.00000" height="613.9375" width="8" x="373.5659" y="104.5938"/><line style="stroke:#181818;stroke-width:0.5;stroke-dasharray:5,5;" x1="377.1021" x2="377.1021" y1="104.5938" y2="718.5313"/></g></g><g class="participant-lifeline" data-entity-uid="part4" data-qualified-name="gemini" id="part4-lifeline"><g><title>Google Gemini</title><rect fill="#000000" fill-opacity="0.00000" height="613.9375" width="8" x="502.8154" y="104.5938"/><line style="stroke:#181818;stroke-width:0.5;stroke-dasharray:5,5;" x1="506.0298" x2="506.0298" y1="104.5938" y2="718.5313"/></g></g><g class="participant-lifeline" data-entity-uid="part5" data-qualified-name="db" id="part5-lifeline"><g><title>PostgreSQL</title><rect fill="#000000" fill-opacity="0.00000" height="613.9375" width="8" x="614.9775" y="104.5938"/><line style="stroke:#181818;stroke-width:0.5;stroke-dasharray:5,5;" x1="618.6011" x2="618.6011" y1="104.5938" y2="718.5313"/></g></g><g class="participant-lifeline" data-entity-uid="part6" data-qualified-name="cache" id="part6-lifeline"><g><title>Redis</title><rect fill="#000000" fill-opacity="0.00000" height="613.9375" width="8" x="690.5596" y="104.5938"/><line style="stroke:#181818;stroke-width:0.5;stroke-dasharray:5,5;" x1="694.354" x2="694.354" y1="104.5938" y2="718.5313"/></g></g><g class="participant participant-head" data-entity-uid="part1" data-qualified-name="lambda" id="part1-head"><rect fill="#E2E2F0" height="46.5938" rx="2.5" ry="2.5" style="stroke:#181818;stroke-width:0.5;" width="70.3691" x="30" y="57"/><text fill="#000000" font-family="sans-serif" font-size="14" lengthAdjust="spacing" textLength="56.3691" x="37" y="76.9951">Lambda</text><text fill="#000000" font-family="sans-serif" font-size="14" lengthAdjust="spacing" textLength="24.6299" x="52.8696" y="93.292">(AI)</text></g><g class="participant participant-tail" data-entity-uid="part1" data-qualified-name="lambda" id="part1-tail"><rect fill="#E2E2F0" height="46.5938" rx="2.5" ry="2.5" style="stroke:#181818;stroke-width:0.5;" width="70.3691" x="30" y="717.5313"/><text fill="#000000" font-family="sans-serif" font-size="14" lengthAdjust="spacing" textLength="56.3691" x="37" y="737.5264">Lambda</text><text fill="#000000" font-family="sans-serif" font-size="14" lengthAdjust="spacing" textLength="24.6299" x="52.8696" y="753.8232">(AI)</text></g><g class="participant participant-head" data-entity-uid="part2" data-qualified-name="vision" id="part2-head"><rect fill="#E2E2F0" height="30.2969" rx="2.5" ry="2.5" style="stroke:#181818;stroke-width:0.5;" width="109.9082" x="197.1938" y="73.2969"/><text fill="#000000" font-family="sans-serif" font-size="14" lengthAdjust="spacing" textLength="95.9082" x="204.1938" y="93.292">Google Vision</text></g><g class="participant participant-tail" data-entity-uid="part2" data-qualified-name="vision" id="part2-tail"><rect fill="#E2E2F0" height="30.2969" rx="2.5" ry="2.5" style="stroke:#181818;stroke-width:0.5;" width="109.9082" x="197.1938" y="717.5313"/><text fill="#000000" font-family="sans-serif" font-size="14" lengthAdjust="spacing" textLength="95.9082" x="204.1938" y="737.5264">Google Vision</text></g><g class="participant participant-head" data-entity-uid="part3" data-qualified-name="gpt" id="part3-head"><rect fill="#E2E2F0" height="30.2969" rx="2.5" ry="2.5" style="stroke:#181818;stroke-width:0.5;" width="120.9277" x="317.1021" y="73.2969"/><text fill="#000000" font-family="sans-serif" font-size="14" lengthAdjust="spacing" textLength="106.9277" x="324.1021" y="93.292">OpenAI GPT-4V</text></g><g class="participant participant-tail" data-entity-uid="part3" data-qualified-name="gpt" id="part3-tail"><rect fill="#E2E2F0" height="30.2969" rx="2.5" ry="2.5" style="stroke:#181818;stroke-width:0.5;" width="120.9277" x="317.1021" y="717.5313"/><text fill="#000000" font-family="sans-serif" font-size="14" lengthAdjust="spacing" textLength="106.9277" x="324.1021" y="737.5264">OpenAI GPT-4V</text></g><g class="participant participant-head" data-entity-uid="part4" data-qualified-name="gemini" id="part4-head"><rect fill="#E2E2F0" height="30.2969" rx="2.5" ry="2.5" style="stroke:#181818;stroke-width:0.5;" width="117.5713" x="448.0298" y="73.2969"/><text fill="#000000" font-family="sans-serif" font-size="14" lengthAdjust="spacing" textLength="103.5713" x="455.0298" y="93.292">Google Gemini</text></g><g class="participant participant-tail" data-entity-uid="part4" data-qualified-name="gemini" id="part4-tail"><rect fill="#E2E2F0" height="30.2969" rx="2.5" ry="2.5" style="stroke:#181818;stroke-width:0.5;" width="117.5713" x="448.0298" y="717.5313"/><text fill="#000000" font-family="sans-serif" font-size="14" lengthAdjust="spacing" textLength="103.5713" x="455.0298" y="737.5264">Google Gemini</text></g><g class="participant participant-head" data-entity-uid="part5" data-qualified-name="db" id="part5-head"><text fill="#000000" font-family="sans-serif" font-size="14" lengthAdjust="spacing" textLength="80.7529" x="575.6011" y="101.292">PostgreSQL</text><path d="M600.9775,52.2969 C600.9775,42.2969 618.9775,42.2969 618.9775,42.2969 C618.9775,42.2969 636.9775,42.2969 636.9775,52.2969 L636.9775,78.2969 C636.9775,88.2969 618.9775,88.2969 618.9775,88.2969 C618.9775,88.2969 600.9775,88.2969 600.9775,78.2969 L600.9775,52.2969" fill="#E2E2F0" style="stroke:#181818;stroke-width:0.5;"/><path d="M600.9775,52.2969 C600.9775,62.2969 618.9775,62.2969 618.9775,62.2969 C618.9775,62.2969 636.9775,62.2969 636.9775,52.2969" fill="none" style="stroke:#181818;stroke-width:0.5;"/></g><g class="participant participant-tail" data-entity-uid="part5" data-qualified-name="db" id="part5-tail"><text fill="#000000" font-family="sans-serif" font-size="14" lengthAdjust="spacing" textLength="80.7529" x="575.6011" y="730.5264">PostgreSQL</text><path d="M600.9775,743.8281 C600.9775,733.8281 618.9775,733.8281 618.9775,733.8281 C618.9775,733.8281 636.9775,733.8281 636.9775,743.8281 L636.9775,769.8281 C636.9775,779.8281 618.9775,779.8281 618.9775,779.8281 C618.9775,779.8281 600.9775,779.8281 600.9775,769.8281 L600.9775,743.8281" fill="#E2E2F0" style="stroke:#181818;stroke-width:0.5;"/><path d="M600.9775,743.8281 C600.9775,753.8281 618.9775,753.8281 618.9775,753.8281 C618.9775,753.8281 636.9775,753.8281 636.9775,743.8281" fill="none" style="stroke:#181818;stroke-width:0.5;"/></g><g class="participant participant-head" data-entity-uid="part6" data-qualified-name="cache" id="part6-head"><text fill="#000000" font-family="sans-serif" font-size="14" lengthAdjust="spacing" textLength="38.4111" x="672.354" y="101.292">Redis</text><path d="M676.5596,52.2969 C676.5596,42.2969 694.5596,42.2969 694.5596,42.2969 C694.5596,42.2969 712.5596,42.2969 712.5596,52.2969 L712.5596,78.2969 C712.5596,88.2969 694.5596,88.2969 694.5596,88.2969 C694.5596,88.2969 676.5596,88.2969 676.5596,78.2969 L676.5596,52.2969" fill="#E2E2F0" style="stroke:#181818;stroke-width:0.5;"/><path d="M676.5596,52.2969 C676.5596,62.2969 694.5596,62.2969 694.5596,62.2969 C694.5596,62.2969 712.5596,62.2969 712.5596,52.2969" fill="none" style="stroke:#181818;stroke-width:0.5;"/></g><g class="participant participant-tail" data-entity-uid="part6" data-qualified-name="cache" id="part6-tail"><text fill="#000000" font-family="sans-serif" font-size="14" lengthAdjust="spacing" textLength="38.4111" x="672.354" y="730.5264">Redis</text><path d="M676.5596,743.8281 C676.5596,733.8281 694.5596,733.8281 694.5596,733.8281 C694.5596,733.8281 712.5596,733.8281 712.5596,743.8281 L712.5596,769.8281 C712.5596,779.8281 694.5596,779.8281 694.5596,779.8281 C694.5596,779.8281 676.5596,779.8281 676.5596,769.8281 L676.5596,743.8281" fill="#E2E2F0" style="stroke:#181818;stroke-width:0.5;"/><path d="M676.5596,743.8281 C676.5596,753.8281 694.5596,753.8281 694.5596,753.8281 C694.5596,753.8281 712.5596,753.8281 712.5596,743.8281" fill="none" style="stroke:#181818;stroke-width:0.5;"/></g><g class="message" data-entity-1="part1" data-entity-2="part2" id="msg1"><polygon fill="#181818" points="240.1479,131.7266,250.1479,135.7266,240.1479,139.7266,244.1479,135.7266" style="stroke:#181818;stroke-width:1;"/><line style="stroke:#181818;stroke-width:1;" x1="65.1846" x2="246.1479" y1="135.7266" y2="135.7266"/><text fill="#000000" font-family="sans-serif" font-size="13" lengthAdjust="spacing" textLength="162.9634" x="77.1846" y="130.6606">DetectLandmarks(photo)</text></g><path d="M10,150.7266 L74.4429,150.7266 L74.4429,157.8594 L64.4429,167.8594 L10,167.8594 L10,150.7266" fill="#EEEEEE" style="stroke:#000000;stroke-width:1.5;"/><rect fill="none" height="442.2734" style="stroke:#000000;stroke-width:1.5;" width="575.6011" x="10" y="150.7266"/><text fill="#000000" font-family="sans-serif" font-size="13" font-weight="bold" lengthAdjust="spacing" textLength="19.4429" x="25" y="163.7935">alt</text><text fill="#000000" font-family="sans-serif" font-size="11" font-weight="bold" lengthAdjust="spacing" textLength="108.6357" x="89.4429" y="162.937">[Vision succeeds]</text><g class="message" data-entity-1="part2" data-entity-2="part1" id="msg2"><polygon fill="#181818" points="76.1846,184.9922,66.1846,188.9922,76.1846,192.9922,72.1846,188.9922" style="stroke:#181818;stroke-width:1;"/><line style="stroke:#181818;stroke-width:1;stroke-dasharray:2,2;" x1="70.1846" x2="251.1479" y1="188.9922" y2="188.9922"/><text fill="#000000" font-family="sans-serif" font-size="13" lengthAdjust="spacing" textLength="157.5425" x="79.895" y="183.9263">{landmark, confidence}</text></g><g class="message" data-entity-1="part1" data-entity-2="part3" id="msg3"><polygon fill="#181818" points="365.5659,214.125,375.5659,218.125,365.5659,222.125,369.5659,218.125" style="stroke:#181818;stroke-width:1;"/><line style="stroke:#181818;stroke-width:1;" x1="65.1846" x2="371.5659" y1="218.125" y2="218.125"/><text fill="#000000" font-family="sans-serif" font-size="13" lengthAdjust="spacing" textLength="137.1284" x="152.811" y="213.0591">Generate description</text></g><path d="M20,233.125 L84.4429,233.125 L84.4429,240.2578 L74.4429,250.2578 L20,250.2578 L20,233.125" fill="#EEEEEE" style="stroke:#000000;stroke-width:1.5;"/><rect fill="none" height="148.4688" style="stroke:#000000;stroke-width:1.5;" width="555.6011" x="20" y="233.125"/><text fill="#000000" font-family="sans-serif" font-size="13" font-weight="bold" lengthAdjust="spacing" textLength="19.4429" x="35" y="246.1919">alt</text><text fill="#000000" font-family="sans-serif" font-size="11" font-weight="bold" lengthAdjust="spacing" textLength="115.9727" x="99.4429" y="245.3354">[GPT-4V succeeds]</text><g class="message" data-entity-1="part3" data-entity-2="part1" id="msg4"><polygon fill="#181818" points="76.1846,267.3906,66.1846,271.3906,76.1846,275.3906,72.1846,271.3906" style="stroke:#181818;stroke-width:1;"/><line style="stroke:#181818;stroke-width:1;stroke-dasharray:2,2;" x1="70.1846" x2="376.5659" y1="271.3906" y2="271.3906"/><text fill="#000000" font-family="sans-serif" font-size="13" lengthAdjust="spacing" textLength="104.4443" x="169.1531" y="266.3247">Rich description</text></g><line style="stroke:#000000;stroke-width:1;stroke-dasharray:2,2;" x1="20" x2="575.6011" y1="280.3906" y2="280.3906"/><text fill="#000000" font-family="sans-serif" font-size="11" font-weight="bold" lengthAdjust="spacing" textLength="209.4351" x="25" y="290.6011">[GPT-4V fails (timeout/rate limit)]</text><g class="message" data-entity-1="part3" data-entity-2="part1" id="msg5"><polygon fill="#181818" points="76.1846,311.3281,66.1846,315.3281,76.1846,319.3281,72.1846,315.3281" style="stroke:#181818;stroke-width:1;"/><line style="stroke:#181818;stroke-width:1;stroke-dasharray:2,2;" x1="70.1846" x2="376.5659" y1="315.3281" y2="315.3281"/><text fill="#000000" font-family="sans-serif" font-size="13" lengthAdjust="spacing" textLength="62.2705" x="190.24" y="310.2622">429 / 503</text></g><g class="message" data-entity-1="part1" data-entity-2="part4" id="msg6"><polygon fill="#181818" points="494.8154,340.4609,504.8154,344.4609,494.8154,348.4609,498.8154,344.4609" style="stroke:#181818;stroke-width:1;"/><line style="stroke:#181818;stroke-width:1;" x1="65.1846" x2="500.8154" y1="344.4609" y2="344.4609"/><text fill="#000000" font-family="sans-serif" font-size="13" lengthAdjust="spacing" textLength="202.0649" x="184.9675" y="339.395">Generate description (fallback)</text></g><g class="message" data-entity-1="part4" data-entity-2="part1" id="msg7"><polygon fill="#181818" points="76.1846,369.5938,66.1846,373.5938,76.1846,377.5938,72.1846,373.5938" style="stroke:#181818;stroke-width:1;"/><line style="stroke:#181818;stroke-width:1;stroke-dasharray:2,2;" x1="70.1846" x2="505.8154" y1="373.5938" y2="373.5938"/><text fill="#000000" font-family="sans-serif" font-size="13" lengthAdjust="spacing" textLength="74.0391" x="248.9805" y="368.5278">Description</text></g><line style="stroke:#000000;stroke-width:1;stroke-dasharray:2,2;" x1="10" x2="585.6011" y1="389.5938" y2="389.5938"/><text fill="#000000" font-family="sans-serif" font-size="11" font-weight="bold" lengthAdjust="spacing" textLength="209.5049" x="15" y="399.8042">[Vision fails (no landmark found)]</text><g class="message" data-entity-1="part2" data-entity-2="part1" id="msg8"><polygon fill="#181818" points="76.1846,420.5313,66.1846,424.5313,76.1846,428.5313,72.1846,424.5313" style="stroke:#181818;stroke-width:1;"/><line style="stroke:#181818;stroke-width:1;stroke-dasharray:2,2;" x1="70.1846" x2="251.1479" y1="424.5313" y2="424.5313"/><text fill="#000000" font-family="sans-serif" font-size="13" lengthAdjust="spacing" textLength="103.543" x="106.8948" y="419.4653">{landmarks: []}</text></g><g class="message" data-entity-1="part1" data-entity-2="part4" id="msg9"><polygon fill="#181818" points="494.8154,449.6641,504.8154,453.6641,494.8154,457.6641,498.8154,453.6641" style="stroke:#181818;stroke-width:1;"/><line style="stroke:#181818;stroke-width:1;" x1="65.1846" x2="500.8154" y1="453.6641" y2="453.6641"/><text fill="#000000" font-family="sans-serif" font-size="13" lengthAdjust="spacing" textLength="166.6069" x="202.6965" y="448.5981">Describe image generally</text></g><g class="message" data-entity-1="part4" data-entity-2="part1" id="msg10"><polygon fill="#181818" points="76.1846,478.7969,66.1846,482.7969,76.1846,486.7969,72.1846,482.7969" style="stroke:#181818;stroke-width:1;"/><line style="stroke:#181818;stroke-width:1;stroke-dasharray:2,2;" x1="70.1846" x2="505.8154" y1="482.7969" y2="482.7969"/><text fill="#000000" font-family="sans-serif" font-size="13" lengthAdjust="spacing" textLength="127.645" x="222.1775" y="477.731">General description</text></g><line style="stroke:#000000;stroke-width:1;stroke-dasharray:2,2;" x1="10" x2="585.6011" y1="491.7969" y2="491.7969"/><text fill="#000000" font-family="sans-serif" font-size="11" font-weight="bold" lengthAdjust="spacing" textLength="171.5313" x="15" y="502.0073">[Vision fails (service error)]</text><g class="message" data-entity-1="part2" data-entity-2="part1" id="msg11"><polygon fill="#181818" points="76.1846,522.7344,66.1846,526.7344,76.1846,530.7344,72.1846,526.7344" style="stroke:#181818;stroke-width:1;"/><line style="stroke:#181818;stroke-width:1;stroke-dasharray:2,2;" x1="70.1846" x2="251.1479" y1="526.7344" y2="526.7344"/><text fill="#000000" font-family="sans-serif" font-size="13" lengthAdjust="spacing" textLength="157.5552" x="79.8887" y="521.6685">503 Service Unavailable</text></g><g class="message" data-entity-1="part1" data-entity-2="part4" id="msg12"><polygon fill="#181818" points="494.8154,551.8672,504.8154,555.8672,494.8154,559.8672,498.8154,555.8672" style="stroke:#181818;stroke-width:1;"/><line style="stroke:#181818;stroke-width:1;" x1="65.1846" x2="500.8154" y1="555.8672" y2="555.8672"/><text fill="#000000" font-family="sans-serif" font-size="13" lengthAdjust="spacing" textLength="133.4404" x="219.2798" y="550.8013">Full pipeline fallback</text></g><g class="message" data-entity-1="part4" data-entity-2="part1" id="msg13"><polygon fill="#181818" points="76.1846,581,66.1846,585,76.1846,589,72.1846,585" style="stroke:#181818;stroke-width:1;"/><line style="stroke:#181818;stroke-width:1;stroke-dasharray:2,2;" x1="70.1846" x2="505.8154" y1="585" y2="585"/><text fill="#000000" font-family="sans-serif" font-size="13" lengthAdjust="spacing" textLength="74.0391" x="248.9805" y="579.9341">Description</text></g><g class="message" data-entity-1="part1" data-entity-2="part5" id="msg14"><polygon fill="#181818" points="606.9775,617.1328,616.9775,621.1328,606.9775,625.1328,610.9775,621.1328" style="stroke:#181818;stroke-width:1;"/><line style="stroke:#181818;stroke-width:1;" x1="65.1846" x2="612.9775" y1="621.1328" y2="621.1328"/><text fill="#000000" font-family="sans-serif" font-size="13" lengthAdjust="spacing" textLength="75.8418" x="304.1602" y="616.0669">Store result</text></g><g class="message" data-entity-1="part1" data-entity-2="part6" id="msg15"><polygon fill="#181818" points="682.5596,646.2656,692.5596,650.2656,682.5596,654.2656,686.5596,650.2656" style="stroke:#181818;stroke-width:1;"/><line style="stroke:#181818;stroke-width:1;" x1="65.1846" x2="688.5596" y1="650.2656" y2="650.2656"/><text fill="#000000" font-family="sans-serif" font-size="13" lengthAdjust="spacing" textLength="106.7422" x="326.501" y="645.1997">Cache (24h TTL)</text></g><path d="M70,663.2656 L70,703.2656 L291,703.2656 L291,673.2656 L281,663.2656 L70,663.2656" fill="#FEFFDD" style="stroke:#181818;stroke-width:0.5;"/><path d="M281,663.2656 L281,673.2656 L291,673.2656 L281,663.2656" fill="#FEFFDD" style="stroke:#181818;stroke-width:0.5;"/><text fill="#000000" font-family="sans-serif" font-size="13" lengthAdjust="spacing" textLength="200.8462" x="76" y="680.3325">Circuit breaker: after 5 failures</text><text fill="#000000" font-family="sans-serif" font-size="13" lengthAdjust="spacing" textLength="181.7651" x="76" y="695.4653">in 30s, skip provider for 60s</text><?plantuml-src XLJ1QXin4BthAnuvsP2Ga3Y5xg7WEYG4N9ecRYvj3rhjU7UmLjfAMfjI0ls8V66_f5fvtTXbIquIcZTltZoDv5Ti6kbaZLogLUbiQugPrTPXKt4WuV_6FNrloIZwGDxBagQQImD59f3RGpdoZJL-XtfFscwcpjaDWcj9YC114wQtk2TbIyE1hS7lNy-ubbft4Z2h91iX8brWnOqq0KTpMUU5_6f6qzln4QI7JWU7e1jhoyZzo3vo9jGwRGzH7nioiVpDtU9ayfXGPHC6YMwePiDRIDgAGWQPIqyukhC-b8uUFirJlCZtOlTKi4_7IgegzhmLYvDtlQ0CLnH8XRaqHItToe-QoWOx5aBgqEk7RvKYAhn0duMJIB2bol1Jzxd7KDOikUXkvab4y4kns5SMcp3aP20Kv9NZflCxehf2Mmls2w7BEQXppwhw9vLqRBBFNKhM7gF0DTasdAP2cciEuq6soVbRdEBox295zvGcUuV5OhJi9wFdJDW3sgj3VQOG8edidUn56ekTQLXsOpv-nLgVuSkt9p4aT5in9t0TXpmUTxgr_Y46zMtRqWS-3YdqvDQi21JVY_kFkcWU7dhSPoFNCLFccWPLNhTQe-66D1l2paRngeV9mHUw8i_m4AoZxd6tEko5qe1dc7KBHkUJ2el5FCwniV4I7PTLW5tk7YimOwTQ3iWToHMv378PVmzS9WFQo1unR71nveyHlvG6ZRFhEDikNfZ3cpFVIKD7_WS0?></g></svg>