<?plantuml 1.2026.1?><svg xmlns="http://www.w3.org/2000/svg" xmlns:xlink="http://www.w3.org/1999/xlink" contentStyleType="text/css" data-diagram-type="ACTIVITY" height="1129px" preserveAspectRatio="none" style="width:1023px;height:1129px;background:#FFFFFF;" version="1.1" viewBox="0 0 1023 1129" width="1023px" zoomAndPan="magnify"><title>Tourist Photo Recognition &#8212; Decision Flow</title><defs/><g><g class="title" data-source-line="2"><text fill="#000000" font-family="sans-serif" font-size="14" font-weight="bold" lengthAdjust="spacing" textLength="338.29" x="340.8726" y="32.9951">Tourist Photo Recognition &#8212; Decision Flow</text></g><ellipse cx="650.6516" cy="57.2969" fill="#222222" rx="10" ry="10" style="stroke:#222222;stroke-width:1;"/><rect fill="#F1F1F1" height="33.9688" rx="12.5" ry="12.5" style="stroke:#181818;stroke-width:0.5;" width="150.6406" x="575.3313" y="87.2969"/><text fill="#000000" font-family="sans-serif" font-size="12" lengthAdjust="spacing" textLength="130.6406" x="585.3313" y="108.4355">Tourist opens camera</text><rect fill="#F1F1F1" height="33.9688" rx="12.5" ry="12.5" style="stroke:#181818;stroke-width:0.5;" width="171.5234" x="564.8899" y="141.2656"/><text fill="#000000" font-family="sans-serif" font-size="12" lengthAdjust="spacing" textLength="151.5234" x="574.8899" y="162.4043">Takes photo of attraction</text><rect fill="#F1F1F1" height="33.9688" rx="12.5" ry="12.5" style="stroke:#181818;stroke-width:0.5;" width="133.1387" x="584.0823" y="195.2344"/><text fill="#000000" font-family="sans-serif" font-size="12" lengthAdjust="spacing" textLength="113.1387" x="594.0823" y="216.373">App submits photo</text><polygon fill="#F1F1F1" points="608.8618,249.2031,692.4414,249.2031,704.4414,261.2031,692.4414,273.2031,608.8618,273.2031,596.8618,261.2031,608.8618,249.2031" style="stroke:#181818;stroke-width:0.5;"/><text fill="#000000" font-family="sans-serif" font-size="11" lengthAdjust="spacing" textLength="83.5796" x="608.8618" y="265.0112">Authenticated?</text><text fill="#000000" font-family="sans-serif" font-size="11" lengthAdjust="spacing" textLength="19.0083" x="577.8535" y="258.6089">yes</text><text fill="#000000" font-family="sans-serif" font-size="11" lengthAdjust="spacing" textLength="13.7017" x="704.4414" y="258.6089">no</text><rect fill="#F1F1F1" height="33.9688" rx="12.5" ry="12.5" style="stroke:#181818;stroke-width:0.5;" width="135.4004" x="267.6118" y="283.2031"/><text fill="#000000" font-family="sans-serif" font-size="12" lengthAdjust="spacing" textLength="115.4004" x="277.6118" y="304.3418">Upload photo to S3</text><polygon fill="#F1F1F1" points="276.9497,337.1719,393.6743,337.1719,405.6743,349.1719,393.6743,361.1719,276.9497,361.1719,264.9497,349.1719,276.9497,337.1719" style="stroke:#181818;stroke-width:0.5;"/><text fill="#000000" font-family="sans-serif" font-size="11" lengthAdjust="spacing" textLength="116.7246" x="276.9497" y="352.98">Photo hash in cache?</text><text fill="#000000" font-family="sans-serif" font-size="11" lengthAdjust="spacing" textLength="19.0083" x="245.9414" y="346.5776">yes</text><text fill="#000000" font-family="sans-serif" font-size="11" lengthAdjust="spacing" textLength="13.7017" x="405.6743" y="346.5776">no</text><rect fill="#F1F1F1" height="33.9688" rx="12.5" ry="12.5" style="stroke:#181818;stroke-width:0.5;" width="178.0742" x="11" y="371.1719"/><text fill="#000000" font-family="sans-serif" font-size="12" lengthAdjust="spacing" textLength="158.0742" x="21" y="392.3105">Return cached description</text><rect fill="#F1F1F1" height="33.9688" rx="12.5" ry="12.5" style="stroke:#181818;stroke-width:0.5;" width="146.2168" x="26.9287" y="425.1406"/><text fill="#000000" font-family="sans-serif" font-size="12" lengthAdjust="spacing" textLength="126.2168" x="36.9287" y="446.2793">Show result instantly</text><rect fill="#F1F1F1" height="33.9688" rx="12.5" ry="12.5" style="stroke:#181818;stroke-width:0.5;" width="177.4063" x="481.8838" y="371.1719"/><text fill="#000000" font-family="sans-serif" font-size="12" lengthAdjust="spacing" textLength="157.4063" x="491.8838" y="392.3105">Enqueue for AI processing</text><rect fill="#F1F1F1" height="33.9688" rx="12.5" ry="12.5" style="stroke:#181818;stroke-width:0.5;" width="209.1055" x="466.0342" y="425.1406"/><text fill="#000000" font-family="sans-serif" font-size="12" lengthAdjust="spacing" textLength="189.1055" x="476.0342" y="446.2793">Google Vision: detect landmark</text><polygon fill="#F1F1F1" points="522.5693,479.1094,618.6045,479.1094,630.6045,491.1094,618.6045,503.1094,522.5693,503.1094,510.5693,491.1094,522.5693,479.1094" style="stroke:#181818;stroke-width:0.5;"/><text fill="#000000" font-family="sans-serif" font-size="11" lengthAdjust="spacing" textLength="96.0352" x="522.5693" y="494.9175">Landmark found?</text><text fill="#000000" font-family="sans-serif" font-size="11" lengthAdjust="spacing" textLength="19.0083" x="491.561" y="488.5151">yes</text><text fill="#000000" font-family="sans-serif" font-size="11" lengthAdjust="spacing" textLength="121.7358" x="630.6045" y="488.5151">no landmark detected</text><rect fill="#F1F1F1" height="33.9688" rx="12.5" ry="12.5" style="stroke:#181818;stroke-width:0.5;" width="196.7949" x="305.6699" y="513.1094"/><text fill="#000000" font-family="sans-serif" font-size="12" lengthAdjust="spacing" textLength="176.7949" x="315.6699" y="534.248">GPT-4V: generate description</text><polygon fill="#F1F1F1" points="349.6824,567.0781,458.4524,567.0781,470.4524,579.0781,458.4524,591.0781,349.6824,591.0781,337.6824,579.0781,349.6824,567.0781" style="stroke:#181818;stroke-width:0.5;"/><text fill="#000000" font-family="sans-serif" font-size="11" lengthAdjust="spacing" textLength="108.77" x="349.6824" y="582.8862">GPT-4V succeeded?</text><text fill="#000000" font-family="sans-serif" font-size="11" lengthAdjust="spacing" textLength="19.0083" x="318.6741" y="576.4839">yes</text><text fill="#000000" font-family="sans-serif" font-size="11" lengthAdjust="spacing" textLength="128.3047" x="470.4524" y="576.4839">no &#8212; timeout/rate limit</text><rect fill="#F1F1F1" height="33.9688" rx="12.5" ry="12.5" style="stroke:#181818;stroke-width:0.5;" width="131.3984" x="242.0703" y="601.0781"/><text fill="#000000" font-family="sans-serif" font-size="12" lengthAdjust="spacing" textLength="111.3984" x="252.0703" y="622.2168">Cache result (24h)</text><rect fill="#F1F1F1" height="33.9688" rx="12.5" ry="12.5" style="stroke:#181818;stroke-width:0.5;" width="157.3906" x="229.0742" y="655.0469"/><text fill="#000000" font-family="sans-serif" font-size="12" lengthAdjust="spacing" textLength="137.3906" x="239.0742" y="676.1855">Return rich description</text><rect fill="#F1F1F1" height="33.9688" rx="12.5" ry="12.5" style="stroke:#181818;stroke-width:0.5;" width="187.8008" x="406.4648" y="601.0781"/><text fill="#000000" font-family="sans-serif" font-size="12" lengthAdjust="spacing" textLength="167.8008" x="416.4648" y="622.2168">Gemini: fallback description</text><rect fill="#F1F1F1" height="33.9688" rx="12.5" ry="12.5" style="stroke:#181818;stroke-width:0.5;" width="131.3984" x="434.666" y="655.0469"/><text fill="#000000" font-family="sans-serif" font-size="12" lengthAdjust="spacing" textLength="111.3984" x="444.666" y="676.1855">Cache result (24h)</text><rect fill="#F1F1F1" height="33.9688" rx="12.5" ry="12.5" style="stroke:#181818;stroke-width:0.5;" width="131.1055" x="434.8125" y="709.0156"/><text fill="#000000" font-family="sans-serif" font-size="12" lengthAdjust="spacing" textLength="111.1055" x="444.8125" y="730.1543">Return description</text><polygon fill="#F1F1F1" points="404.0674,748.9844,416.0674,760.9844,404.0674,772.9844,392.0674,760.9844,404.0674,748.9844" style="stroke:#181818;stroke-width:0.5;"/><rect fill="#F1F1F1" height="33.9688" rx="12.5" ry="12.5" style="stroke:#181818;stroke-width:0.5;" width="225.6816" x="624.2656" y="513.1094"/><text fill="#000000" font-family="sans-serif" font-size="12" lengthAdjust="spacing" textLength="205.6816" x="634.2656" y="534.248">Gemini: general scene description</text><rect fill="#F1F1F1" height="33.9688" rx="12.5" ry="12.5" style="stroke:#181818;stroke-width:0.5;" width="180.5293" x="646.8418" y="567.0781"/><text fill="#000000" font-family="sans-serif" font-size="12" lengthAdjust="spacing" textLength="160.5293" x="656.8418" y="588.2168">Return general description</text><polygon fill="#F1F1F1" points="570.5869,778.9844,582.5869,790.9844,570.5869,802.9844,558.5869,790.9844,570.5869,778.9844" style="stroke:#181818;stroke-width:0.5;"/><rect fill="#F1F1F1" height="33.9688" rx="12.5" ry="12.5" style="stroke:#181818;stroke-width:0.5;" width="173.8496" x="483.6621" y="822.9844"/><text fill="#000000" font-family="sans-serif" font-size="12" lengthAdjust="spacing" textLength="153.8496" x="493.6621" y="844.123">Show description + audio</text><polygon fill="#F1F1F1" points="335.312,862.9531,347.312,874.9531,335.312,886.9531,323.312,874.9531,335.312,862.9531" style="stroke:#181818;stroke-width:0.5;"/><rect fill="#555555" height="6" rx="2.5" ry="2.5" style="stroke:#555555;stroke-width:1;" width="548.4785" x="61.0728" y="906.9531"/><rect fill="#F1F1F1" height="33.9688" rx="12.5" ry="12.5" style="stroke:#181818;stroke-width:0.5;" width="137.0879" x="75.0728" y="932.9531"/><text fill="#000000" font-family="sans-serif" font-size="12" lengthAdjust="spacing" textLength="117.0879" x="85.0728" y="954.0918">Log analytics event</text><rect fill="#F1F1F1" height="33.9688" rx="12.5" ry="12.5" style="stroke:#181818;stroke-width:0.5;" width="142.6836" x="240.1606" y="932.9531"/><text fill="#000000" font-family="sans-serif" font-size="12" lengthAdjust="spacing" textLength="122.6836" x="250.1606" y="954.0918">Award loyalty points</text><rect fill="#F1F1F1" height="33.9688" rx="12.5" ry="12.5" style="stroke:#181818;stroke-width:0.5;" width="184.707" x="410.8442" y="932.9531"/><text fill="#000000" font-family="sans-serif" font-size="12" lengthAdjust="spacing" textLength="164.707" x="420.8442" y="954.0918">Show nearby partner offers</text><rect fill="#555555" height="6" rx="2.5" ry="2.5" style="stroke:#555555;stroke-width:1;" width="548.4785" x="61.0728" y="986.9219"/><rect fill="#F1F1F1" height="33.9688" rx="12.5" ry="12.5" style="stroke:#181818;stroke-width:0.5;" width="229.3086" x="220.6577" y="1012.9219"/><text fill="#000000" font-family="sans-serif" font-size="12" lengthAdjust="spacing" textLength="209.3086" x="230.6577" y="1034.0605">Tourist explores recommendations</text><rect fill="#F1F1F1" height="33.9688" rx="12.5" ry="12.5" style="stroke:#181818;stroke-width:0.5;" width="152.0879" x="859.9473" y="283.2031"/><text fill="#000000" font-family="sans-serif" font-size="12" lengthAdjust="spacing" textLength="132.0879" x="869.9473" y="304.3418">Prompt login / sign up</text><polygon fill="#F1F1F1" points="650.6516,1052.8906,662.6516,1064.8906,650.6516,1076.8906,638.6516,1064.8906,650.6516,1052.8906" style="stroke:#181818;stroke-width:0.5;"/><ellipse cx="650.6516" cy="1107.8906" fill="none" rx="11" ry="11" style="stroke:#222222;stroke-width:1;"/><ellipse cx="650.6516" cy="1107.8906" fill="#222222" rx="6" ry="6" style="stroke:#222222;stroke-width:1;"/><line style="stroke:#181818;stroke-width:1;" x1="650.6516" x2="650.6516" y1="67.2969" y2="87.2969"/><polygon fill="#181818" points="646.6516,77.2969,650.6516,87.2969,654.6516,77.2969,650.6516,81.2969" style="stroke:#181818;stroke-width:1;"/><line style="stroke:#181818;stroke-width:1;" x1="650.6516" x2="650.6516" y1="121.2656" y2="141.2656"/><polygon fill="#181818" points="646.6516,131.2656,650.6516,141.2656,654.6516,131.2656,650.6516,135.2656" style="stroke:#181818;stroke-width:1;"/><line style="stroke:#181818;stroke-width:1;" x1="650.6516" x2="650.6516" y1="175.2344" y2="195.2344"/><polygon fill="#181818" points="646.6516,185.2344,650.6516,195.2344,654.6516,185.2344,650.6516,189.2344" style="stroke:#181818;stroke-width:1;"/><line style="stroke:#181818;stroke-width:1;" x1="100.0371" x2="100.0371" y1="405.1406" y2="425.1406"/><polygon fill="#181818" points="96.0371,415.1406,100.0371,425.1406,104.0371,415.1406,100.0371,419.1406" style="stroke:#181818;stroke-width:1;"/><line style="stroke:#181818;stroke-width:1;" x1="570.5869" x2="570.5869" y1="405.1406" y2="425.1406"/><polygon fill="#181818" points="566.5869,415.1406,570.5869,425.1406,574.5869,415.1406,570.5869,419.1406" style="stroke:#181818;stroke-width:1;"/><line style="stroke:#181818;stroke-width:1;" x1="307.7695" x2="307.7695" y1="635.0469" y2="655.0469"/><polygon fill="#181818" points="303.7695,645.0469,307.7695,655.0469,311.7695,645.0469,307.7695,649.0469" style="stroke:#181818;stroke-width:1;"/><line style="stroke:#181818;stroke-width:1;" x1="500.3652" x2="500.3652" y1="635.0469" y2="655.0469"/><polygon fill="#181818" points="496.3652,645.0469,500.3652,655.0469,504.3652,645.0469,500.3652,649.0469" style="stroke:#181818;stroke-width:1;"/><line style="stroke:#181818;stroke-width:1;" x1="500.3652" x2="500.3652" y1="689.0156" y2="709.0156"/><polygon fill="#181818" points="496.3652,699.0156,500.3652,709.0156,504.3652,699.0156,500.3652,703.0156" style="stroke:#181818;stroke-width:1;"/><line style="stroke:#181818;stroke-width:1;" x1="337.6824" x2="307.7695" y1="579.0781" y2="579.0781"/><line style="stroke:#181818;stroke-width:1;" x1="307.7695" x2="307.7695" y1="579.0781" y2="601.0781"/><polygon fill="#181818" points="303.7695,591.0781,307.7695,601.0781,311.7695,591.0781,307.7695,595.0781" style="stroke:#181818;stroke-width:1;"/><line style="stroke:#181818;stroke-width:1;" x1="470.4524" x2="500.3652" y1="579.0781" y2="579.0781"/><line style="stroke:#181818;stroke-width:1;" x1="500.3652" x2="500.3652" y1="579.0781" y2="601.0781"/><polygon fill="#181818" points="496.3652,591.0781,500.3652,601.0781,504.3652,591.0781,500.3652,595.0781" style="stroke:#181818;stroke-width:1;"/><line style="stroke:#181818;stroke-width:1;" x1="307.7695" x2="307.7695" y1="689.0156" y2="760.9844"/><line style="stroke:#181818;stroke-width:1;" x1="307.7695" x2="392.0674" y1="760.9844" y2="760.9844"/><polygon fill="#181818" points="382.0674,756.9844,392.0674,760.9844,382.0674,764.9844,386.0674,760.9844" style="stroke:#181818;stroke-width:1;"/><line style="stroke:#181818;stroke-width:1;" x1="500.3652" x2="500.3652" y1="742.9844" y2="760.9844"/><line style="stroke:#181818;stroke-width:1;" x1="500.3652" x2="416.0674" y1="760.9844" y2="760.9844"/><polygon fill="#181818" points="426.0674,756.9844,416.0674,760.9844,426.0674,764.9844,422.0674,760.9844" style="stroke:#181818;stroke-width:1;"/><line style="stroke:#181818;stroke-width:1;" x1="404.0674" x2="404.0674" y1="547.0781" y2="567.0781"/><polygon fill="#181818" points="400.0674,557.0781,404.0674,567.0781,408.0674,557.0781,404.0674,561.0781" style="stroke:#181818;stroke-width:1;"/><line style="stroke:#181818;stroke-width:1;" x1="737.1064" x2="737.1064" y1="547.0781" y2="567.0781"/><polygon fill="#181818" points="733.1064,557.0781,737.1064,567.0781,741.1064,557.0781,737.1064,561.0781" style="stroke:#181818;stroke-width:1;"/><line style="stroke:#181818;stroke-width:1;" x1="510.5693" x2="404.0674" y1="491.1094" y2="491.1094"/><line style="stroke:#181818;stroke-width:1;" x1="404.0674" x2="404.0674" y1="491.1094" y2="513.1094"/><polygon fill="#181818" points="400.0674,503.1094,404.0674,513.1094,408.0674,503.1094,404.0674,507.1094" style="stroke:#181818;stroke-width:1;"/><line style="stroke:#181818;stroke-width:1;" x1="630.6045" x2="737.1064" y1="491.1094" y2="491.1094"/><line style="stroke:#181818;stroke-width:1;" x1="737.1064" x2="737.1064" y1="491.1094" y2="513.1094"/><polygon fill="#181818" points="733.1064,503.1094,737.1064,513.1094,741.1064,503.1094,737.1064,507.1094" style="stroke:#181818;stroke-width:1;"/><line style="stroke:#181818;stroke-width:1;" x1="404.0674" x2="404.0674" y1="772.9844" y2="790.9844"/><line style="stroke:#181818;stroke-width:1;" x1="404.0674" x2="558.5869" y1="790.9844" y2="790.9844"/><polygon fill="#181818" points="548.5869,786.9844,558.5869,790.9844,548.5869,794.9844,552.5869,790.9844" style="stroke:#181818;stroke-width:1;"/><line style="stroke:#181818;stroke-width:1;" x1="737.1064" x2="737.1064" y1="601.0469" y2="790.9844"/><line style="stroke:#181818;stroke-width:1;" x1="737.1064" x2="582.5869" y1="790.9844" y2="790.9844"/><polygon fill="#181818" points="592.5869,786.9844,582.5869,790.9844,592.5869,794.9844,588.5869,790.9844" style="stroke:#181818;stroke-width:1;"/><line style="stroke:#181818;stroke-width:1;" x1="570.5869" x2="570.5869" y1="459.1094" y2="479.1094"/><polygon fill="#181818" points="566.5869,469.1094,570.5869,479.1094,574.5869,469.1094,570.5869,473.1094" style="stroke:#181818;stroke-width:1;"/><line style="stroke:#181818;stroke-width:1;" x1="570.5869" x2="570.5869" y1="802.9844" y2="822.9844"/><polygon fill="#181818" points="566.5869,812.9844,570.5869,822.9844,574.5869,812.9844,570.5869,816.9844" style="stroke:#181818;stroke-width:1;"/><line style="stroke:#181818;stroke-width:1;" x1="264.9497" x2="100.0371" y1="349.1719" y2="349.1719"/><line style="stroke:#181818;stroke-width:1;" x1="100.0371" x2="100.0371" y1="349.1719" y2="371.1719"/><polygon fill="#181818" points="96.0371,361.1719,100.0371,371.1719,104.0371,361.1719,100.0371,365.1719" style="stroke:#181818;stroke-width:1;"/><line style="stroke:#181818;stroke-width:1;" x1="405.6743" x2="570.5869" y1="349.1719" y2="349.1719"/><line style="stroke:#181818;stroke-width:1;" x1="570.5869" x2="570.5869" y1="349.1719" y2="371.1719"/><polygon fill="#181818" points="566.5869,361.1719,570.5869,371.1719,574.5869,361.1719,570.5869,365.1719" style="stroke:#181818;stroke-width:1;"/><line style="stroke:#181818;stroke-width:1;" x1="100.0371" x2="100.0371" y1="459.1094" y2="874.9531"/><line style="stroke:#181818;stroke-width:1;" x1="100.0371" x2="323.312" y1="874.9531" y2="874.9531"/><polygon fill="#181818" points="313.312,870.9531,323.312,874.9531,313.312,878.9531,317.312,874.9531" style="stroke:#181818;stroke-width:1;"/><line style="stroke:#181818;stroke-width:1;" x1="570.5869" x2="570.5869" y1="856.9531" y2="874.9531"/><line style="stroke:#181818;stroke-width:1;" x1="570.5869" x2="347.312" y1="874.9531" y2="874.9531"/><polygon fill="#181818" points="357.312,870.9531,347.312,874.9531,357.312,878.9531,353.312,874.9531" style="stroke:#181818;stroke-width:1;"/><line style="stroke:#181818;stroke-width:1;" x1="335.312" x2="335.312" y1="317.1719" y2="337.1719"/><polygon fill="#181818" points="331.312,327.1719,335.312,337.1719,339.312,327.1719,335.312,331.1719" style="stroke:#181818;stroke-width:1;"/><line style="stroke:#181818;stroke-width:1;" x1="143.6167" x2="143.6167" y1="912.9531" y2="932.9531"/><polygon fill="#181818" points="139.6167,922.9531,143.6167,932.9531,147.6167,922.9531,143.6167,926.9531" style="stroke:#181818;stroke-width:1;"/><line style="stroke:#181818;stroke-width:1;" x1="311.5024" x2="311.5024" y1="912.9531" y2="932.9531"/><polygon fill="#181818" points="307.5024,922.9531,311.5024,932.9531,315.5024,922.9531,311.5024,926.9531" style="stroke:#181818;stroke-width:1;"/><line style="stroke:#181818;stroke-width:1;" x1="503.1978" x2="503.1978" y1="912.9531" y2="932.9531"/><polygon fill="#181818" points="499.1978,922.9531,503.1978,932.9531,507.1978,922.9531,503.1978,926.9531" style="stroke:#181818;stroke-width:1;"/><line style="stroke:#181818;stroke-width:1;" x1="143.6167" x2="143.6167" y1="966.9219" y2="986.9219"/><polygon fill="#181818" points="139.6167,976.9219,143.6167,986.9219,147.6167,976.9219,143.6167,980.9219" style="stroke:#181818;stroke-width:1;"/><line style="stroke:#181818;stroke-width:1;" x1="311.5024" x2="311.5024" y1="966.9219" y2="986.9219"/><polygon fill="#181818" points="307.5024,976.9219,311.5024,986.9219,315.5024,976.9219,311.5024,980.9219" style="stroke:#181818;stroke-width:1;"/><line style="stroke:#181818;stroke-width:1;" x1="503.1978" x2="503.1978" y1="966.9219" y2="986.9219"/><polygon fill="#181818" points="499.1978,976.9219,503.1978,986.9219,507.1978,976.9219,503.1978,980.9219" style="stroke:#181818;stroke-width:1;"/><line style="stroke:#181818;stroke-width:1;" x1="335.312" x2="335.312" y1="886.9531" y2="906.9531"/><polygon fill="#181818" points="331.312,896.9531,335.312,906.9531,339.312,896.9531,335.312,900.9531" style="stroke:#181818;stroke-width:1;"/><line style="stroke:#181818;stroke-width:1;" x1="335.312" x2="335.312" y1="992.9219" y2="1012.9219"/><polygon fill="#181818" points="331.312,1002.9219,335.312,1012.9219,339.312,1002.9219,335.312,1006.9219" style="stroke:#181818;stroke-width:1;"/><line style="stroke:#181818;stroke-width:1;" x1="596.8618" x2="335.312" y1="261.2031" y2="261.2031"/><line style="stroke:#181818;stroke-width:1;" x1="335.312" x2="335.312" y1="261.2031" y2="283.2031"/><polygon fill="#181818" points="331.312,273.2031,335.312,283.2031,339.312,273.2031,335.312,277.2031" style="stroke:#181818;stroke-width:1;"/><line style="stroke:#181818;stroke-width:1;" x1="704.4414" x2="935.9912" y1="261.2031" y2="261.2031"/><line style="stroke:#181818;stroke-width:1;" x1="935.9912" x2="935.9912" y1="261.2031" y2="283.2031"/><polygon fill="#181818" points="931.9912,273.2031,935.9912,283.2031,939.9912,273.2031,935.9912,277.2031" style="stroke:#181818;stroke-width:1;"/><line style="stroke:#181818;stroke-width:1;" x1="335.312" x2="335.312" y1="1046.8906" y2="1064.8906"/><line style="stroke:#181818;stroke-width:1;" x1="335.312" x2="638.6516" y1="1064.8906" y2="1064.8906"/><polygon fill="#181818" points="628.6516,1060.8906,638.6516,1064.8906,628.6516,1068.8906,632.6516,1064.8906" style="stroke:#181818;stroke-width:1;"/><line style="stroke:#181818;stroke-width:1;" x1="935.9912" x2="935.9912" y1="317.1719" y2="1064.8906"/><line style="stroke:#181818;stroke-width:1;" x1="935.9912" x2="662.6516" y1="1064.8906" y2="1064.8906"/><polygon fill="#181818" points="672.6516,1060.8906,662.6516,1064.8906,672.6516,1068.8906,668.6516,1064.8906" style="stroke:#181818;stroke-width:1;"/><line style="stroke:#181818;stroke-width:1;" x1="650.6516" x2="650.6516" y1="229.2031" y2="249.2031"/><polygon fill="#181818" points="646.6516,239.2031,650.6516,249.2031,654.6516,239.2031,650.6516,243.2031" style="stroke:#181818;stroke-width:1;"/><line style="stroke:#181818;stroke-width:1;" x1="650.6516" x2="650.6516" y1="1076.8906" y2="1096.8906"/><polygon fill="#181818" points="646.6516,1086.8906,650.6516,1096.8906,654.6516,1086.8906,650.6516,1090.8906" style="stroke:#181818;stroke-width:1;"/><?plantuml-src ZLF1Rjim3BtxAtXCC0m5jfwImn1qMp6WXw3jUcTasXOYYvf4Byjj7x4lt9UCikKbNN8Ou8CbFZu-Ff5fRtt0Y3tiqEpRo8ElxzXnX4DdXIgnuWYUUOWs2Mmx5eP7CjnwAvOz_Fxv2pwIiIaVFZi-L5KIZ59Lgpc90_a41dkAkCxtkAS4OQJY1b0aeibaERW90TAmwwqKY5xQ1XQRGJhoOWqArH-Ma4-mE59QLW2hhy4nreLJlwVtcWQG4oV97QOEh5SLfgD_qvNWaMI89Ln3JSb46oPDO_ofumD4IeCJfT4ElRXZZf5B10lFXUUJ_pRGGD2eWPil428RIidwTjIZW7lcLWrz6GrRQIKX8-3Grpt6VK5btG_bIgdqIIubPwxjyzlRbnMqvDLQeTUw2ofpJK3rrHYYcgwoATzTxdxkSl7kjbkkJy7YKBIck_JdvCCu469xua5kHb7EwcEULRcdtdgxWWQTopDtZUq_nLpJuMlRJBt_bJIxMzoc-kHWqJ8vw20P_Rb6ErUSWHUGixhJi9mXu0tWK5iUvsN6wOJi9_W3ju0UtL6dEm5zrp5V5m1WYzPFiCq1OmsEZ-Za286jbtGDDrRtX76dADr45Qnhrb1CfVvKEg_DlA7qG_T7hLQx3VUzOZ3hreJgVBvNsyXzq6dbLbVf1f9jFGnXNPMcad3u0m00?></g></svg>