<svg xmlns="http://www.w3.org/2000/svg" xmlns:xlink="http://www.w3.org/1999/xlink" contentStyleType="text/css" data-diagram-type="SEQUENCE" height="2250px" preserveAspectRatio="none" style="width:1878px;height:2250px;background:#FAFAFA;" version="1.1" viewBox="0 0 1878 2250" width="1878px" zoomAndPan="magnify"><defs/><g><rect fill="#FAFAFA" height="2250" style="stroke:none;stroke-width:1;" width="1878" x="0" y="0"/><rect fill="none" height="860.3359" style="stroke:#90A4AE;stroke-width:1.5;" width="1851.8501" x="10" y="1009.1094"/><rect fill="none" height="331.2031" style="stroke:#90A4AE;stroke-width:1.5;" width="1831.8501" x="20" y="1531.2422"/><g><title>Counterparty</title><rect fill="#000000" fill-opacity="0.00000" height="2146.3125" width="8" x="80.8413" y="52.5938"/><line style="stroke:#181818;stroke-width:0.5;stroke-dasharray:5,5;" x1="84" x2="84" y1="52.5938" y2="2198.9063"/></g><g><title>Web App</title><rect fill="#000000" fill-opacity="0.00000" height="2146.3125" width="8" x="297.4419" y="52.5938"/><line style="stroke:#181818;stroke-width:0.5;stroke-dasharray:5,5;" x1="300.8701" x2="300.8701" y1="52.5938" y2="2198.9063"/></g><g><title>API Service</title><rect fill="#000000" fill-opacity="0.00000" height="2146.3125" width="8" x="560.1074" y="52.5938"/><line style="stroke:#181818;stroke-width:0.5;stroke-dasharray:5,5;" x1="563.9375" x2="563.9375" y1="52.5938" y2="2198.9063"/></g><g><title>S3</title><rect fill="#000000" fill-opacity="0.00000" height="2146.3125" width="8" x="823.6616" y="52.5938"/><line style="stroke:#181818;stroke-width:0.5;stroke-dasharray:5,5;" x1="827.5586" x2="827.5586" y1="52.5938" y2="2198.9063"/></g><g><title>Audit</title><rect fill="#000000" fill-opacity="0.00000" height="2146.3125" width="8" x="990.7319" y="52.5938"/><line style="stroke:#181818;stroke-width:0.5;stroke-dasharray:5,5;" x1="994.4541" x2="994.4541" y1="52.5938" y2="2198.9063"/></g><g><title>Step</title><rect fill="#000000" fill-opacity="0.00000" height="2146.3125" width="8" x="1072.8135" y="52.5938"/><line style="stroke:#181818;stroke-width:0.5;stroke-dasharray:5,5;" x1="1076.0098" x2="1076.0098" y1="52.5938" y2="2198.9063"/></g><g><title>Eligibility</title><rect fill="#000000" fill-opacity="0.00000" height="2146.3125" width="8" x="1336.2217" y="52.5938"/><line style="stroke:#181818;stroke-width:0.5;stroke-dasharray:5,5;" x1="1339.356" x2="1339.356" y1="52.5938" y2="2198.9063"/></g><g><title>Reconciliation</title><rect fill="#000000" fill-opacity="0.00000" height="2146.3125" width="8" x="1548.4463" y="52.5938"/><line style="stroke:#181818;stroke-width:0.5;stroke-dasharray:5,5;" x1="1552.3267" x2="1552.3267" y1="52.5938" y2="2198.9063"/></g><g><title>Senior</title><rect fill="#000000" fill-opacity="0.00000" height="2146.3125" width="8" x="1668.2896" y="52.5938"/><line style="stroke:#181818;stroke-width:0.5;stroke-dasharray:5,5;" x1="1671.5659" x2="1671.5659" y1="52.5938" y2="2198.9063"/></g><g><title>SES</title><rect fill="#000000" fill-opacity="0.00000" height="2146.3125" width="8" x="1811.4292" y="52.5938"/><line style="stroke:#181818;stroke-width:0.5;stroke-dasharray:5,5;" x1="1815.0083" x2="1815.0083" y1="52.5938" y2="2198.9063"/></g><g class="participant participant-head" data-participant="CP"><rect fill="#E2E2F0" height="46.5938" rx="2.5" ry="2.5" style="stroke:#181818;stroke-width:0.5;" width="109.6826" x="30" y="5"/><text fill="#000000" font-family="Arial" font-size="14" lengthAdjust="spacing" textLength="92.9414" x="38.3706" y="24.9951">Counterparty</text><text fill="#000000" font-family="Arial" font-size="14" lengthAdjust="spacing" textLength="95.6826" x="37" y="41.292">Administrator</text></g><g class="participant participant-tail" data-participant="CP"><rect fill="#E2E2F0" height="46.5938" rx="2.5" ry="2.5" style="stroke:#181818;stroke-width:0.5;" width="109.6826" x="30" y="2197.9063"/><text fill="#000000" font-family="Arial" font-size="14" lengthAdjust="spacing" textLength="92.9414" x="38.3706" y="2217.9014">Counterparty</text><text fill="#000000" font-family="Arial" font-size="14" lengthAdjust="spacing" textLength="95.6826" x="37" y="2234.1982">Administrator</text></g><g class="participant participant-head" data-participant="WEB"><rect fill="#E2E2F0" height="30.2969" rx="2.5" ry="2.5" style="stroke:#181818;stroke-width:0.5;" width="77.1436" x="262.8701" y="21.2969"/><text fill="#000000" font-family="Arial" font-size="14" lengthAdjust="spacing" textLength="63.1436" x="269.8701" y="41.292">Web App</text></g><g class="participant participant-tail" data-participant="WEB"><rect fill="#E2E2F0" height="30.2969" rx="2.5" ry="2.5" style="stroke:#181818;stroke-width:0.5;" width="77.1436" x="262.8701" y="2197.9063"/><text fill="#000000" font-family="Arial" font-size="14" lengthAdjust="spacing" textLength="63.1436" x="269.8701" y="2217.9014">Web App</text></g><g class="participant participant-head" data-participant="API"><rect fill="#E2E2F0" height="30.2969" rx="2.5" ry="2.5" style="stroke:#181818;stroke-width:0.5;" width="92.3398" x="517.9375" y="21.2969"/><text fill="#000000" font-family="Arial" font-size="14" lengthAdjust="spacing" textLength="78.3398" x="524.9375" y="41.292">API Service</text></g><g class="participant participant-tail" data-participant="API"><rect fill="#E2E2F0" height="30.2969" rx="2.5" ry="2.5" style="stroke:#181818;stroke-width:0.5;" width="92.3398" x="517.9375" y="2197.9063"/><text fill="#000000" font-family="Arial" font-size="14" lengthAdjust="spacing" textLength="78.3398" x="524.9375" y="2217.9014">API Service</text></g><g class="participant participant-head" data-participant="S3"><rect fill="#E2E2F0" height="46.5938" rx="2.5" ry="2.5" style="stroke:#181818;stroke-width:0.5;" width="80.2061" x="787.5586" y="5"/><text fill="#000000" font-family="Arial" font-size="14" lengthAdjust="spacing" textLength="17.7939" x="818.7646" y="24.9951">S3</text><text fill="#000000" font-family="Arial" font-size="14" lengthAdjust="spacing" textLength="66.2061" x="794.5586" y="41.292">File Store</text></g><g class="participant participant-tail" data-participant="S3"><rect fill="#E2E2F0" height="46.5938" rx="2.5" ry="2.5" style="stroke:#181818;stroke-width:0.5;" width="80.2061" x="787.5586" y="2197.9063"/><text fill="#000000" font-family="Arial" font-size="14" lengthAdjust="spacing" textLength="17.7939" x="818.7646" y="2217.9014">S3</text><text fill="#000000" font-family="Arial" font-size="14" lengthAdjust="spacing" textLength="66.2061" x="794.5586" y="2234.1982">File Store</text></g><g class="participant participant-head" data-participant="AUDIT"><rect fill="#E2E2F0" height="46.5938" rx="2.5" ry="2.5" style="stroke:#181818;stroke-width:0.5;" width="62.5557" x="963.4541" y="5"/><text fill="#000000" font-family="Arial" font-size="14" lengthAdjust="spacing" textLength="36.7158" x="976.374" y="24.9951">Audit</text><text fill="#000000" font-family="Arial" font-size="14" lengthAdjust="spacing" textLength="48.5557" x="970.4541" y="41.292">Ledger</text></g><g class="participant participant-tail" data-participant="AUDIT"><rect fill="#E2E2F0" height="46.5938" rx="2.5" ry="2.5" style="stroke:#181818;stroke-width:0.5;" width="62.5557" x="963.4541" y="2197.9063"/><text fill="#000000" font-family="Arial" font-size="14" lengthAdjust="spacing" textLength="36.7158" x="976.374" y="2217.9014">Audit</text><text fill="#000000" font-family="Arial" font-size="14" lengthAdjust="spacing" textLength="48.5557" x="970.4541" y="2234.1982">Ledger</text></g><g class="participant participant-head" data-participant="SF"><rect fill="#E2E2F0" height="46.5938" rx="2.5" ry="2.5" style="stroke:#181818;stroke-width:0.5;" width="81.6074" x="1036.0098" y="5"/><text fill="#000000" font-family="Arial" font-size="14" lengthAdjust="spacing" textLength="31.876" x="1060.8755" y="24.9951">Step</text><text fill="#000000" font-family="Arial" font-size="14" lengthAdjust="spacing" textLength="67.6074" x="1043.0098" y="41.292">Functions</text></g><g class="participant participant-tail" data-participant="SF"><rect fill="#E2E2F0" height="46.5938" rx="2.5" ry="2.5" style="stroke:#181818;stroke-width:0.5;" width="81.6074" x="1036.0098" y="2197.9063"/><text fill="#000000" font-family="Arial" font-size="14" lengthAdjust="spacing" textLength="31.876" x="1060.8755" y="2217.9014">Step</text><text fill="#000000" font-family="Arial" font-size="14" lengthAdjust="spacing" textLength="67.6074" x="1043.0098" y="2234.1982">Functions</text></g><g class="participant participant-head" data-participant="EE"><rect fill="#E2E2F0" height="46.5938" rx="2.5" ry="2.5" style="stroke:#181818;stroke-width:0.5;" width="77.7314" x="1301.356" y="5"/><text fill="#000000" font-family="Arial" font-size="14" lengthAdjust="spacing" textLength="63.7314" x="1308.356" y="24.9951">Eligibility</text><text fill="#000000" font-family="Arial" font-size="14" lengthAdjust="spacing" textLength="47.9814" x="1316.231" y="41.292">Engine</text></g><g class="participant participant-tail" data-participant="EE"><rect fill="#E2E2F0" height="46.5938" rx="2.5" ry="2.5" style="stroke:#181818;stroke-width:0.5;" width="77.7314" x="1301.356" y="2197.9063"/><text fill="#000000" font-family="Arial" font-size="14" lengthAdjust="spacing" textLength="63.7314" x="1308.356" y="2217.9014">Eligibility</text><text fill="#000000" font-family="Arial" font-size="14" lengthAdjust="spacing" textLength="47.9814" x="1316.231" y="2234.1982">Engine</text></g><g class="participant participant-head" data-participant="RM"><rect fill="#E2E2F0" height="46.5938" rx="2.5" ry="2.5" style="stroke:#181818;stroke-width:0.5;" width="112.2393" x="1496.3267" y="5"/><text fill="#000000" font-family="Arial" font-size="14" lengthAdjust="spacing" textLength="98.2393" x="1503.3267" y="24.9951">Reconciliation</text><text fill="#000000" font-family="Arial" font-size="14" lengthAdjust="spacing" textLength="93.4473" x="1505.7227" y="41.292">Manager (L1)</text></g><g class="participant participant-tail" data-participant="RM"><rect fill="#E2E2F0" height="46.5938" rx="2.5" ry="2.5" style="stroke:#181818;stroke-width:0.5;" width="112.2393" x="1496.3267" y="2197.9063"/><text fill="#000000" font-family="Arial" font-size="14" lengthAdjust="spacing" textLength="98.2393" x="1503.3267" y="2217.9014">Reconciliation</text><text fill="#000000" font-family="Arial" font-size="14" lengthAdjust="spacing" textLength="93.4473" x="1505.7227" y="2234.1982">Manager (L1)</text></g><g class="participant participant-head" data-participant="SM"><rect fill="#E2E2F0" height="46.5938" rx="2.5" ry="2.5" style="stroke:#181818;stroke-width:0.5;" width="107.4473" x="1618.5659" y="5"/><text fill="#000000" font-family="Arial" font-size="14" lengthAdjust="spacing" textLength="44.584" x="1649.9976" y="24.9951">Senior</text><text fill="#000000" font-family="Arial" font-size="14" lengthAdjust="spacing" textLength="93.4473" x="1625.5659" y="41.292">Manager (L2)</text></g><g class="participant participant-tail" data-participant="SM"><rect fill="#E2E2F0" height="46.5938" rx="2.5" ry="2.5" style="stroke:#181818;stroke-width:0.5;" width="107.4473" x="1618.5659" y="2197.9063"/><text fill="#000000" font-family="Arial" font-size="14" lengthAdjust="spacing" textLength="44.584" x="1649.9976" y="2217.9014">Senior</text><text fill="#000000" font-family="Arial" font-size="14" lengthAdjust="spacing" textLength="93.4473" x="1625.5659" y="2234.1982">Manager (L2)</text></g><g class="participant participant-head" data-participant="SES"><rect fill="#E2E2F0" height="46.5938" rx="2.5" ry="2.5" style="stroke:#181818;stroke-width:0.5;" width="52.8418" x="1789.0083" y="5"/><text fill="#000000" font-family="Arial" font-size="14" lengthAdjust="spacing" textLength="26.6191" x="1802.1196" y="24.9951">SES</text><text fill="#000000" font-family="Arial" font-size="14" lengthAdjust="spacing" textLength="38.8418" x="1796.0083" y="41.292">Email</text></g><g class="participant participant-tail" data-participant="SES"><rect fill="#E2E2F0" height="46.5938" rx="2.5" ry="2.5" style="stroke:#181818;stroke-width:0.5;" width="52.8418" x="1789.0083" y="2197.9063"/><text fill="#000000" font-family="Arial" font-size="14" lengthAdjust="spacing" textLength="26.6191" x="1802.1196" y="2217.9014">SES</text><text fill="#000000" font-family="Arial" font-size="14" lengthAdjust="spacing" textLength="38.8418" x="1796.0083" y="2234.1982">Email</text></g><rect fill="#EEEEEE" height="3" style="stroke:#EEEEEE;stroke-width:1;" width="1871.8501" x="0" y="83.1602"/><line style="stroke:#000000;stroke-width:1;" x1="0" x2="1871.8501" y1="83.1602" y2="83.1602"/><line style="stroke:#000000;stroke-width:1;" x1="0" x2="1871.8501" y1="86.1602" y2="86.1602"/><rect fill="#EEEEEE" height="23.1328" style="stroke:#000000;stroke-width:2;" width="243.8232" x="814.0134" y="72.5938"/><text fill="#000000" font-family="Arial" font-size="13" font-weight="bold" lengthAdjust="spacing" textLength="225.2974" x="820.0134" y="88.6606">Phase 1: Multi-File Submission</text><g class="message" data-participant-1="CP" data-participant-2="WEB"><polygon fill="#181818" points="289.4419,122.8594,299.4419,126.8594,289.4419,130.8594,293.4419,126.8594" style="stroke:#181818;stroke-width:1;"/><line style="stroke:#181818;stroke-width:1;" x1="84.8413" x2="295.4419" y1="126.8594" y2="126.8594"/><text fill="#000000" font-family="Arial" font-size="13" lengthAdjust="spacing" textLength="154.7368" x="91.8413" y="121.7935">Upload people table file</text></g><g class="message" data-participant-1="WEB" data-participant-2="API"><polygon fill="#181818" points="552.1074,167.125,562.1074,171.125,552.1074,175.125,556.1074,171.125" style="stroke:#181818;stroke-width:1;"/><line style="stroke:#181818;stroke-width:1;" x1="301.4419" x2="558.1074" y1="171.125" y2="171.125"/><text fill="#000000" font-family="Arial" font-size="13" lengthAdjust="spacing" textLength="146.8848" x="308.4419" y="150.9263">POST /cycles/{id}/files</text><text fill="#000000" font-family="Arial" font-size="13" lengthAdjust="spacing" textLength="173.6655" x="308.4419" y="166.0591">(file_type=PEOPLE_TABLE)</text></g><g class="message" data-participant-1="API" data-participant-2="S3"><polygon fill="#181818" points="815.6616,196.2578,825.6616,200.2578,815.6616,204.2578,819.6616,200.2578" style="stroke:#181818;stroke-width:1;"/><line style="stroke:#181818;stroke-width:1;" x1="564.1074" x2="821.6616" y1="200.2578" y2="200.2578"/><text fill="#000000" font-family="Arial" font-size="13" lengthAdjust="spacing" textLength="239.5542" x="571.1074" y="195.1919">Store file; record SHA-256 checksum</text></g><g class="message" data-participant-1="API" data-participant-2="AUDIT"><polygon fill="#181818" points="982.7319,240.5234,992.7319,244.5234,982.7319,248.5234,986.7319,244.5234" style="stroke:#181818;stroke-width:1;"/><line style="stroke:#181818;stroke-width:1;" x1="564.1074" x2="988.7319" y1="244.5234" y2="244.5234"/><text fill="#000000" font-family="Arial" font-size="13" lengthAdjust="spacing" textLength="197.5137" x="571.1074" y="224.3247">INSERT FILE_UPLOADED event</text><text fill="#000000" font-family="Arial" font-size="13" lengthAdjust="spacing" textLength="306.395" x="571.1074" y="239.4575">(file_type, sha256, previous_hash, event_hash)</text></g><g class="message" data-participant-1="API" data-participant-2="WEB"><line style="stroke:#181818;stroke-width:1;" x1="302.4419" x2="312.4419" y1="273.6563" y2="269.6563"/><line style="stroke:#181818;stroke-width:1;" x1="302.4419" x2="312.4419" y1="273.6563" y2="277.6563"/><line style="stroke:#181818;stroke-width:1;stroke-dasharray:2,2;" x1="301.4419" x2="563.1074" y1="273.6563" y2="273.6563"/><text fill="#000000" font-family="Arial" font-size="13" lengthAdjust="spacing" textLength="190.9692" x="318.4419" y="268.5903">202 Accepted &#8212; file received</text></g><g class="message" data-participant-1="CP" data-participant-2="WEB"><polygon fill="#181818" points="289.4419,298.7891,299.4419,302.7891,289.4419,306.7891,293.4419,302.7891" style="stroke:#181818;stroke-width:1;"/><line style="stroke:#181818;stroke-width:1;" x1="84.8413" x2="295.4419" y1="302.7891" y2="302.7891"/><text fill="#000000" font-family="Arial" font-size="13" lengthAdjust="spacing" textLength="192.6006" x="91.8413" y="297.7231">Upload money movement file</text></g><g class="message" data-participant-1="WEB" data-participant-2="API"><polygon fill="#181818" points="552.1074,343.0547,562.1074,347.0547,552.1074,351.0547,556.1074,347.0547" style="stroke:#181818;stroke-width:1;"/><line style="stroke:#181818;stroke-width:1;" x1="301.4419" x2="558.1074" y1="347.0547" y2="347.0547"/><text fill="#000000" font-family="Arial" font-size="13" lengthAdjust="spacing" textLength="146.8848" x="308.4419" y="326.856">POST /cycles/{id}/files</text><text fill="#000000" font-family="Arial" font-size="13" lengthAdjust="spacing" textLength="205.8545" x="308.4419" y="341.9888">(file_type=MONEY_MOVEMENT)</text></g><g class="message" data-participant-1="API" data-participant-2="S3"><polygon fill="#181818" points="815.6616,372.1875,825.6616,376.1875,815.6616,380.1875,819.6616,376.1875" style="stroke:#181818;stroke-width:1;"/><line style="stroke:#181818;stroke-width:1;" x1="564.1074" x2="821.6616" y1="376.1875" y2="376.1875"/><text fill="#000000" font-family="Arial" font-size="13" lengthAdjust="spacing" textLength="239.5542" x="571.1074" y="371.1216">Store file; record SHA-256 checksum</text></g><g class="message" data-participant-1="API" data-participant-2="AUDIT"><polygon fill="#181818" points="982.7319,401.3203,992.7319,405.3203,982.7319,409.3203,986.7319,405.3203" style="stroke:#181818;stroke-width:1;"/><line style="stroke:#181818;stroke-width:1;" x1="564.1074" x2="988.7319" y1="405.3203" y2="405.3203"/><text fill="#000000" font-family="Arial" font-size="13" lengthAdjust="spacing" textLength="197.5137" x="571.1074" y="400.2544">INSERT FILE_UPLOADED event</text></g><path d="M450,418.3203 L450,458.3203 L676,458.3203 L676,428.3203 L666,418.3203 L450,418.3203" fill="#FEFFDD" style="stroke:#181818;stroke-width:0.5;"/><path d="M666,418.3203 L666,428.3203 L676,428.3203 L666,418.3203" fill="#FEFFDD" style="stroke:#181818;stroke-width:0.5;"/><text fill="#000000" font-family="Arial" font-size="13" lengthAdjust="spacing" textLength="185.6245" x="456" y="435.3872">Check cycle_readiness view:</text><text fill="#000000" font-family="Arial" font-size="13" lengthAdjust="spacing" textLength="205.3149" x="456" y="450.52">all required file types received?</text><g class="message" data-participant-1="API" data-participant-2="AUDIT"><polygon fill="#181818" points="982.7319,480.7188,992.7319,484.7188,982.7319,488.7188,986.7319,484.7188" style="stroke:#181818;stroke-width:1;"/><line style="stroke:#181818;stroke-width:1;" x1="564.1074" x2="988.7319" y1="484.7188" y2="484.7188"/><text fill="#000000" font-family="Arial" font-size="13" lengthAdjust="spacing" textLength="251.8369" x="571.1074" y="479.6528">INSERT CYCLE_FILES_COMPLETE event</text></g><g class="message" data-participant-1="API" data-participant-2="SF"><polygon fill="#181818" points="1064.8135,509.8516,1074.8135,513.8516,1064.8135,517.8516,1068.8135,513.8516" style="stroke:#181818;stroke-width:1;"/><line style="stroke:#181818;stroke-width:1;" x1="564.1074" x2="1070.8135" y1="513.8516" y2="513.8516"/><text fill="#000000" font-family="Arial" font-size="13" lengthAdjust="spacing" textLength="267.1157" x="571.1074" y="508.7856">StartExecution &#8212; reconciliation workflow</text></g><g class="message" data-participant-1="API" data-participant-2="WEB"><line style="stroke:#181818;stroke-width:1;" x1="302.4419" x2="312.4419" y1="542.9844" y2="538.9844"/><line style="stroke:#181818;stroke-width:1;" x1="302.4419" x2="312.4419" y1="542.9844" y2="546.9844"/><line style="stroke:#181818;stroke-width:1;stroke-dasharray:2,2;" x1="301.4419" x2="563.1074" y1="542.9844" y2="542.9844"/><text fill="#000000" font-family="Arial" font-size="13" lengthAdjust="spacing" textLength="238.6655" x="318.4419" y="537.9185">All files received &#8212; cycle in progress</text></g><rect fill="#EEEEEE" height="3" style="stroke:#EEEEEE;stroke-width:1;" width="1871.8501" x="0" y="571.5508"/><line style="stroke:#000000;stroke-width:1;" x1="0" x2="1871.8501" y1="571.5508" y2="571.5508"/><line style="stroke:#000000;stroke-width:1;" x1="0" x2="1871.8501" y1="574.5508" y2="574.5508"/><rect fill="#EEEEEE" height="23.1328" style="stroke:#000000;stroke-width:2;" width="241.189" x="815.3306" y="560.9844"/><text fill="#000000" font-family="Arial" font-size="13" font-weight="bold" lengthAdjust="spacing" textLength="222.6631" x="821.3306" y="577.0513">Phase 2: Eligibility Calculation</text><g class="message" data-participant-1="SF" data-participant-2="EE"><polygon fill="#181818" points="1328.2217,626.3828,1338.2217,630.3828,1328.2217,634.3828,1332.2217,630.3828" style="stroke:#181818;stroke-width:1;"/><line style="stroke:#181818;stroke-width:1;" x1="1076.8135" x2="1334.2217" y1="630.3828" y2="630.3828"/><text fill="#000000" font-family="Arial" font-size="13" lengthAdjust="spacing" textLength="215.1665" x="1083.8135" y="610.1841">InvokeTask &#8212; compute eligibility</text><text fill="#000000" font-family="Arial" font-size="13" lengthAdjust="spacing" textLength="213.1035" x="1083.8135" y="625.3169">(contract_id, cycle_files s3_keys)</text></g><g class="message" data-participant-1="EE" data-participant-2="S3"><polygon fill="#181818" points="838.6616,655.5156,828.6616,659.5156,838.6616,663.5156,834.6616,659.5156" style="stroke:#181818;stroke-width:1;"/><line style="stroke:#181818;stroke-width:1;" x1="832.6616" x2="1339.2217" y1="659.5156" y2="659.5156"/><text fill="#000000" font-family="Arial" font-size="13" lengthAdjust="spacing" textLength="160.8242" x="844.6616" y="654.4497">Fetch all typed data files</text></g><g class="message" data-participant-1="EE" data-participant-2="API"><polygon fill="#181818" points="575.1074,684.6484,565.1074,688.6484,575.1074,692.6484,571.1074,688.6484" style="stroke:#181818;stroke-width:1;"/><line style="stroke:#181818;stroke-width:1;" x1="569.1074" x2="1339.2217" y1="688.6484" y2="688.6484"/><text fill="#000000" font-family="Arial" font-size="13" lengthAdjust="spacing" textLength="164.6392" x="581.1074" y="683.5825">GET /contracts/{id}/rules</text></g><g class="message" data-participant-1="EE" data-participant-2="EE"><line style="stroke:#181818;stroke-width:1;" x1="1340.2217" x2="1382.2217" y1="732.9141" y2="732.9141"/><line style="stroke:#181818;stroke-width:1;" x1="1382.2217" x2="1382.2217" y1="732.9141" y2="745.9141"/><line style="stroke:#181818;stroke-width:1;" x1="1341.2217" x2="1382.2217" y1="745.9141" y2="745.9141"/><polygon fill="#181818" points="1351.2217,741.9141,1341.2217,745.9141,1351.2217,749.9141,1347.2217,745.9141" style="stroke:#181818;stroke-width:1;"/><text fill="#000000" font-family="Arial" font-size="13" lengthAdjust="spacing" textLength="198.2246" x="1347.2217" y="712.7153">Evaluate expression tree rules</text><text fill="#000000" font-family="Arial" font-size="13" lengthAdjust="spacing" textLength="196.7837" x="1347.2217" y="727.8481">against each individual record</text></g><g class="message" data-participant-1="EE" data-participant-2="SF"><line style="stroke:#181818;stroke-width:1;" x1="1077.8135" x2="1087.8135" y1="775.0469" y2="771.0469"/><line style="stroke:#181818;stroke-width:1;" x1="1077.8135" x2="1087.8135" y1="775.0469" y2="779.0469"/><line style="stroke:#181818;stroke-width:1;stroke-dasharray:2,2;" x1="1076.8135" x2="1339.2217" y1="775.0469" y2="775.0469"/><text fill="#000000" font-family="Arial" font-size="13" lengthAdjust="spacing" textLength="239.4082" x="1093.8135" y="769.981">TaskSuccess &#8212; eligibility_result_json</text></g><g class="message" data-participant-1="SF" data-participant-2="API"><polygon fill="#181818" points="575.1074,800.1797,565.1074,804.1797,575.1074,808.1797,571.1074,804.1797" style="stroke:#181818;stroke-width:1;"/><line style="stroke:#181818;stroke-width:1;" x1="569.1074" x2="1075.8135" y1="804.1797" y2="804.1797"/><text fill="#000000" font-family="Arial" font-size="13" lengthAdjust="spacing" textLength="221.0317" x="581.1074" y="799.1138">POST /cycles/{id}/eligibility-result</text></g><g class="message" data-participant-1="API" data-participant-2="AUDIT"><polygon fill="#181818" points="982.7319,844.4453,992.7319,848.4453,982.7319,852.4453,986.7319,848.4453" style="stroke:#181818;stroke-width:1;"/><line style="stroke:#181818;stroke-width:1;" x1="564.1074" x2="988.7319" y1="848.4453" y2="848.4453"/><text fill="#000000" font-family="Arial" font-size="13" lengthAdjust="spacing" textLength="245.7432" x="571.1074" y="828.2466">INSERT ELIGIBILITY_COMPUTED event</text><text fill="#000000" font-family="Arial" font-size="13" lengthAdjust="spacing" textLength="406.6245" x="571.1074" y="843.3794">(result_summary, engine_version, previous_hash, event_hash)</text></g><g class="message" data-participant-1="SF" data-participant-2="SES"><polygon fill="#181818" points="1803.4292,888.7109,1813.4292,892.7109,1803.4292,896.7109,1807.4292,892.7109" style="stroke:#181818;stroke-width:1;"/><line style="stroke:#181818;stroke-width:1;" x1="1076.8135" x2="1809.4292" y1="892.7109" y2="892.7109"/><text fill="#000000" font-family="Arial" font-size="13" lengthAdjust="spacing" textLength="215.3315" x="1083.8135" y="872.5122">Send "Proposal ready for review"</text><text fill="#000000" font-family="Arial" font-size="13" lengthAdjust="spacing" textLength="169.5205" x="1083.8135" y="887.645">to Reconciliation Manager</text></g><rect fill="#EEEEEE" height="3" style="stroke:#EEEEEE;stroke-width:1;" width="1871.8501" x="0" y="921.2773"/><line style="stroke:#000000;stroke-width:1;" x1="0" x2="1871.8501" y1="921.2773" y2="921.2773"/><line style="stroke:#000000;stroke-width:1;" x1="0" x2="1871.8501" y1="924.2773" y2="924.2773"/><rect fill="#EEEEEE" height="23.1328" style="stroke:#000000;stroke-width:2;" width="300.2983" x="785.7759" y="910.7109"/><text fill="#000000" font-family="Arial" font-size="13" font-weight="bold" lengthAdjust="spacing" textLength="281.7725" x="791.7759" y="926.7778">Phase 3: Multi-Level Reinsurer Review</text><g class="message" data-participant-1="SES" data-participant-2="RM"><line style="stroke:#181818;stroke-width:1;" x1="1553.4463" x2="1563.4463" y1="964.9766" y2="960.9766"/><line style="stroke:#181818;stroke-width:1;" x1="1553.4463" x2="1563.4463" y1="964.9766" y2="968.9766"/><line style="stroke:#181818;stroke-width:1;stroke-dasharray:2,2;" x1="1552.4463" x2="1814.4292" y1="964.9766" y2="964.9766"/><text fill="#000000" font-family="Arial" font-size="13" lengthAdjust="spacing" textLength="238.9829" x="1569.4463" y="959.9106">Email &#8212; "Cycle {id} proposal ready"</text></g><g class="message" data-participant-1="RM" data-participant-2="WEB"><polygon fill="#181818" points="312.4419,990.1094,302.4419,994.1094,312.4419,998.1094,308.4419,994.1094" style="stroke:#181818;stroke-width:1;"/><line style="stroke:#181818;stroke-width:1;" x1="306.4419" x2="1551.4463" y1="994.1094" y2="994.1094"/><text fill="#000000" font-family="Arial" font-size="13" lengthAdjust="spacing" textLength="251.0435" x="318.4419" y="989.0435">Open proposal; review eligibility result</text></g><path d="M10,1009.1094 L74.4429,1009.1094 L74.4429,1016.2422 L64.4429,1026.2422 L10,1026.2422 L10,1009.1094" fill="#EEEEEE" style="stroke:#90A4AE;stroke-width:1.5;"/><rect fill="none" height="860.3359" style="stroke:#90A4AE;stroke-width:1.5;" width="1851.8501" x="10" y="1009.1094"/><text fill="#000000" font-family="Arial" font-size="13" font-weight="bold" lengthAdjust="spacing" textLength="19.4429" x="25" y="1022.1763">alt</text><text fill="#000000" font-family="Arial" font-size="11" font-weight="bold" lengthAdjust="spacing" textLength="223.5557" x="89.4429" y="1021.3198">[L1 approves (amount &#8804; threshold)]</text><g class="message" data-participant-1="RM" data-participant-2="API"><polygon fill="#181818" points="575.1074,1058.5078,565.1074,1062.5078,575.1074,1066.5078,571.1074,1062.5078" style="stroke:#181818;stroke-width:1;"/><line style="stroke:#181818;stroke-width:1;" x1="569.1074" x2="1551.4463" y1="1062.5078" y2="1062.5078"/><text fill="#000000" font-family="Arial" font-size="13" lengthAdjust="spacing" textLength="173.7734" x="581.1074" y="1042.3091">POST /cycles/{id}/approve</text><text fill="#000000" font-family="Arial" font-size="13" lengthAdjust="spacing" textLength="147.1641" x="581.1074" y="1057.4419">(step_token, level=L1)</text></g><g class="message" data-participant-1="API" data-participant-2="AUDIT"><polygon fill="#181818" points="982.7319,1087.6406,992.7319,1091.6406,982.7319,1095.6406,986.7319,1091.6406" style="stroke:#181818;stroke-width:1;"/><line style="stroke:#181818;stroke-width:1;" x1="564.1074" x2="988.7319" y1="1091.6406" y2="1091.6406"/><text fill="#000000" font-family="Arial" font-size="13" lengthAdjust="spacing" textLength="266.6079" x="571.1074" y="1086.5747">INSERT REINSURER_APPROVED_L1 event</text></g><g class="message" data-participant-1="API" data-participant-2="SF"><polygon fill="#181818" points="1064.8135,1116.7734,1074.8135,1120.7734,1064.8135,1124.7734,1068.8135,1120.7734" style="stroke:#181818;stroke-width:1;"/><line style="stroke:#181818;stroke-width:1;" x1="564.1074" x2="1070.8135" y1="1120.7734" y2="1120.7734"/><text fill="#000000" font-family="Arial" font-size="13" lengthAdjust="spacing" textLength="207.981" x="571.1074" y="1115.7075">SendTaskSuccess &#8212; step_token</text></g><line style="stroke:#90A4AE;stroke-width:1;stroke-dasharray:2,2;" x1="10" x2="1861.8501" y1="1129.7734" y2="1129.7734"/><text fill="#000000" font-family="Arial" font-size="11" font-weight="bold" lengthAdjust="spacing" textLength="313.8276" x="15" y="1139.9839">[L1 approves (amount &gt; threshold &#8212; L2 required)]</text><g class="message" data-participant-1="RM" data-participant-2="API"><polygon fill="#181818" points="575.1074,1175.8438,565.1074,1179.8438,575.1074,1183.8438,571.1074,1179.8438" style="stroke:#181818;stroke-width:1;"/><line style="stroke:#181818;stroke-width:1;" x1="569.1074" x2="1551.4463" y1="1179.8438" y2="1179.8438"/><text fill="#000000" font-family="Arial" font-size="13" lengthAdjust="spacing" textLength="173.7734" x="581.1074" y="1159.645">POST /cycles/{id}/approve</text><text fill="#000000" font-family="Arial" font-size="13" lengthAdjust="spacing" textLength="147.1641" x="581.1074" y="1174.7778">(step_token, level=L1)</text></g><g class="message" data-participant-1="API" data-participant-2="AUDIT"><polygon fill="#181818" points="982.7319,1204.9766,992.7319,1208.9766,982.7319,1212.9766,986.7319,1208.9766" style="stroke:#181818;stroke-width:1;"/><line style="stroke:#181818;stroke-width:1;" x1="564.1074" x2="988.7319" y1="1208.9766" y2="1208.9766"/><text fill="#000000" font-family="Arial" font-size="13" lengthAdjust="spacing" textLength="266.6079" x="571.1074" y="1203.9106">INSERT REINSURER_APPROVED_L1 event</text></g><g class="message" data-participant-1="API" data-participant-2="SF"><polygon fill="#181818" points="1064.8135,1234.1094,1074.8135,1238.1094,1064.8135,1242.1094,1068.8135,1238.1094" style="stroke:#181818;stroke-width:1;"/><line style="stroke:#181818;stroke-width:1;" x1="564.1074" x2="1070.8135" y1="1238.1094" y2="1238.1094"/><text fill="#000000" font-family="Arial" font-size="13" lengthAdjust="spacing" textLength="232.667" x="571.1074" y="1233.0435">SendTaskSuccess &#8212; escalate_to_L2</text></g><g class="message" data-participant-1="SF" data-participant-2="SES"><polygon fill="#181818" points="1803.4292,1263.2422,1813.4292,1267.2422,1803.4292,1271.2422,1807.4292,1267.2422" style="stroke:#181818;stroke-width:1;"/><line style="stroke:#181818;stroke-width:1;" x1="1076.8135" x2="1809.4292" y1="1267.2422" y2="1267.2422"/><text fill="#000000" font-family="Arial" font-size="13" lengthAdjust="spacing" textLength="145.3042" x="1083.8135" y="1262.1763">Notify Senior Manager</text></g><g class="message" data-participant-1="SM" data-participant-2="API"><polygon fill="#181818" points="575.1074,1307.5078,565.1074,1311.5078,575.1074,1315.5078,571.1074,1311.5078" style="stroke:#181818;stroke-width:1;"/><line style="stroke:#181818;stroke-width:1;" x1="569.1074" x2="1671.2896" y1="1311.5078" y2="1311.5078"/><text fill="#000000" font-family="Arial" font-size="13" lengthAdjust="spacing" textLength="173.7734" x="581.1074" y="1291.3091">POST /cycles/{id}/approve</text><text fill="#000000" font-family="Arial" font-size="13" lengthAdjust="spacing" textLength="147.1641" x="581.1074" y="1306.4419">(step_token, level=L2)</text></g><g class="message" data-participant-1="API" data-participant-2="AUDIT"><polygon fill="#181818" points="982.7319,1336.6406,992.7319,1340.6406,982.7319,1344.6406,986.7319,1340.6406" style="stroke:#181818;stroke-width:1;"/><line style="stroke:#181818;stroke-width:1;" x1="564.1074" x2="988.7319" y1="1340.6406" y2="1340.6406"/><text fill="#000000" font-family="Arial" font-size="13" lengthAdjust="spacing" textLength="266.6079" x="571.1074" y="1335.5747">INSERT REINSURER_APPROVED_L2 event</text></g><g class="message" data-participant-1="API" data-participant-2="SF"><polygon fill="#181818" points="1064.8135,1365.7734,1074.8135,1369.7734,1064.8135,1373.7734,1068.8135,1369.7734" style="stroke:#181818;stroke-width:1;"/><line style="stroke:#181818;stroke-width:1;" x1="564.1074" x2="1070.8135" y1="1369.7734" y2="1369.7734"/><text fill="#000000" font-family="Arial" font-size="13" lengthAdjust="spacing" textLength="207.981" x="571.1074" y="1364.7075">SendTaskSuccess &#8212; step_token</text></g><line style="stroke:#90A4AE;stroke-width:1;stroke-dasharray:2,2;" x1="10" x2="1861.8501" y1="1378.7734" y2="1378.7734"/><text fill="#000000" font-family="Arial" font-size="11" font-weight="bold" lengthAdjust="spacing" textLength="203.0542" x="15" y="1388.9839">[Reinsurer requests adjustment]</text><g class="message" data-participant-1="RM" data-participant-2="API"><polygon fill="#181818" points="575.1074,1424.8438,565.1074,1428.8438,575.1074,1432.8438,571.1074,1428.8438" style="stroke:#181818;stroke-width:1;"/><line style="stroke:#181818;stroke-width:1;" x1="569.1074" x2="1551.4463" y1="1428.8438" y2="1428.8438"/><text fill="#000000" font-family="Arial" font-size="13" lengthAdjust="spacing" textLength="160.2529" x="581.1074" y="1408.645">POST /cycles/{id}/adjust</text><text fill="#000000" font-family="Arial" font-size="13" lengthAdjust="spacing" textLength="119.8691" x="581.1074" y="1423.7778">(adjustment_note)</text></g><g class="message" data-participant-1="API" data-participant-2="AUDIT"><polygon fill="#181818" points="982.7319,1453.9766,992.7319,1457.9766,982.7319,1461.9766,986.7319,1457.9766" style="stroke:#181818;stroke-width:1;"/><line style="stroke:#181818;stroke-width:1;" x1="564.1074" x2="988.7319" y1="1457.9766" y2="1457.9766"/><text fill="#000000" font-family="Arial" font-size="13" lengthAdjust="spacing" textLength="263.9546" x="571.1074" y="1452.9106">INSERT ADJUSTMENT_REQUESTED event</text></g><g class="message" data-participant-1="API" data-participant-2="SF"><polygon fill="#181818" points="1064.8135,1483.1094,1074.8135,1487.1094,1064.8135,1491.1094,1068.8135,1487.1094" style="stroke:#181818;stroke-width:1;"/><line style="stroke:#181818;stroke-width:1;" x1="564.1074" x2="1070.8135" y1="1487.1094" y2="1487.1094"/><text fill="#000000" font-family="Arial" font-size="13" lengthAdjust="spacing" textLength="278.4463" x="571.1074" y="1482.0435">SendTaskSuccess &#8212; step_token (adjusted)</text></g><g class="message" data-participant-1="SF" data-participant-2="SES"><polygon fill="#181818" points="1803.4292,1512.2422,1813.4292,1516.2422,1803.4292,1520.2422,1807.4292,1516.2422" style="stroke:#181818;stroke-width:1;"/><line style="stroke:#181818;stroke-width:1;" x1="1076.8135" x2="1809.4292" y1="1516.2422" y2="1516.2422"/><text fill="#000000" font-family="Arial" font-size="13" lengthAdjust="spacing" textLength="221.895" x="1083.8135" y="1511.1763">Notify counterparty of adjustment</text></g><path d="M20,1531.2422 L84.4429,1531.2422 L84.4429,1538.375 L74.4429,1548.375 L20,1548.375 L20,1531.2422" fill="#EEEEEE" style="stroke:#90A4AE;stroke-width:1.5;"/><rect fill="none" height="331.2031" style="stroke:#90A4AE;stroke-width:1.5;" width="1831.8501" x="20" y="1531.2422"/><text fill="#000000" font-family="Arial" font-size="13" font-weight="bold" lengthAdjust="spacing" textLength="19.4429" x="35" y="1544.3091">alt</text><text fill="#000000" font-family="Arial" font-size="11" font-weight="bold" lengthAdjust="spacing" textLength="218.6196" x="99.4429" y="1543.4526">[Counterparty accepts adjustment]</text><g class="message" data-participant-1="CP" data-participant-2="API"><polygon fill="#181818" points="552.1074,1565.5078,562.1074,1569.5078,552.1074,1573.5078,556.1074,1569.5078" style="stroke:#181818;stroke-width:1;"/><line style="stroke:#181818;stroke-width:1;" x1="84.8413" x2="558.1074" y1="1569.5078" y2="1569.5078"/><text fill="#000000" font-family="Arial" font-size="13" lengthAdjust="spacing" textLength="242.5503" x="91.8413" y="1564.4419">POST /cycles/{id}/accept-adjustment</text></g><g class="message" data-participant-1="API" data-participant-2="AUDIT"><polygon fill="#181818" points="982.7319,1594.6406,992.7319,1598.6406,982.7319,1602.6406,986.7319,1598.6406" style="stroke:#181818;stroke-width:1;"/><line style="stroke:#181818;stroke-width:1;" x1="564.1074" x2="988.7319" y1="1598.6406" y2="1598.6406"/><text fill="#000000" font-family="Arial" font-size="13" lengthAdjust="spacing" textLength="253.5952" x="571.1074" y="1593.5747">INSERT ADJUSTMENT_ACCEPTED event</text></g><line style="stroke:#90A4AE;stroke-width:1;stroke-dasharray:2,2;" x1="20" x2="1851.8501" y1="1607.6406" y2="1607.6406"/><text fill="#000000" font-family="Arial" font-size="11" font-weight="bold" lengthAdjust="spacing" textLength="218.915" x="25" y="1617.8511">[Counterparty submits revised file]</text><g class="message" data-participant-1="CP" data-participant-2="API"><polygon fill="#181818" points="552.1074,1653.7109,562.1074,1657.7109,552.1074,1661.7109,556.1074,1657.7109" style="stroke:#181818;stroke-width:1;"/><line style="stroke:#181818;stroke-width:1;" x1="84.8413" x2="558.1074" y1="1657.7109" y2="1657.7109"/><text fill="#000000" font-family="Arial" font-size="13" lengthAdjust="spacing" textLength="146.8848" x="91.8413" y="1637.5122">POST /cycles/{id}/files</text><text fill="#000000" font-family="Arial" font-size="13" lengthAdjust="spacing" textLength="267.1729" x="91.8413" y="1652.645">(file_type=PEOPLE_TABLE, revised=true)</text></g><g class="message" data-participant-1="API" data-participant-2="AUDIT"><polygon fill="#181818" points="982.7319,1682.8438,992.7319,1686.8438,982.7319,1690.8438,986.7319,1686.8438" style="stroke:#181818;stroke-width:1;"/><line style="stroke:#181818;stroke-width:1;" x1="564.1074" x2="988.7319" y1="1686.8438" y2="1686.8438"/><text fill="#000000" font-family="Arial" font-size="13" lengthAdjust="spacing" textLength="182.0063" x="571.1074" y="1681.7778">INSERT FILE_REVISED event</text></g><path d="M964,1699.8438 L964,1739.8438 L1188,1739.8438 L1188,1709.8438 L1178,1699.8438 L964,1699.8438" fill="#FEFFDD" style="stroke:#181818;stroke-width:0.5;"/><path d="M1178,1699.8438 L1178,1709.8438 L1188,1709.8438 L1178,1699.8438" fill="#FEFFDD" style="stroke:#181818;stroke-width:0.5;"/><text fill="#000000" font-family="Arial" font-size="13" lengthAdjust="spacing" textLength="203.4424" x="970" y="1716.9106">Re-trigger eligibility calculation</text><text fill="#000000" font-family="Arial" font-size="13" lengthAdjust="spacing" textLength="133.7007" x="970" y="1732.0435">with updated file set</text><line style="stroke:#90A4AE;stroke-width:1;stroke-dasharray:2,2;" x1="20" x2="1851.8501" y1="1746.1094" y2="1746.1094"/><text fill="#000000" font-family="Arial" font-size="11" font-weight="bold" lengthAdjust="spacing" textLength="256.0669" x="25" y="1756.3198">[Counterparty submits counter-proposal]</text><g class="message" data-participant-1="CP" data-participant-2="API"><polygon fill="#181818" points="552.1074,1777.0469,562.1074,1781.0469,552.1074,1785.0469,556.1074,1781.0469" style="stroke:#181818;stroke-width:1;"/><line style="stroke:#181818;stroke-width:1;" x1="84.8413" x2="558.1074" y1="1781.0469" y2="1781.0469"/><text fill="#000000" font-family="Arial" font-size="13" lengthAdjust="spacing" textLength="231.1309" x="91.8413" y="1775.981">POST /cycles/{id}/counter-proposal</text></g><g class="message" data-participant-1="API" data-participant-2="AUDIT"><polygon fill="#181818" points="982.7319,1806.1797,992.7319,1810.1797,982.7319,1814.1797,986.7319,1810.1797" style="stroke:#181818;stroke-width:1;"/><line style="stroke:#181818;stroke-width:1;" x1="564.1074" x2="988.7319" y1="1810.1797" y2="1810.1797"/><text fill="#000000" font-family="Arial" font-size="13" lengthAdjust="spacing" textLength="314.4312" x="571.1074" y="1805.1138">INSERT COUNTER_PROPOSAL_SUBMITTED event</text></g><g class="message" data-participant-1="SF" data-participant-2="SES"><polygon fill="#181818" points="1803.4292,1850.4453,1813.4292,1854.4453,1803.4292,1858.4453,1807.4292,1854.4453" style="stroke:#181818;stroke-width:1;"/><line style="stroke:#181818;stroke-width:1;" x1="1076.8135" x2="1809.4292" y1="1854.4453" y2="1854.4453"/><text fill="#000000" font-family="Arial" font-size="13" lengthAdjust="spacing" textLength="195.127" x="1083.8135" y="1834.2466">Notify Reconciliation Manager</text><text fill="#000000" font-family="Arial" font-size="13" lengthAdjust="spacing" textLength="127.48" x="1083.8135" y="1849.3794">of counter-proposal</text></g><rect fill="#EEEEEE" height="3" style="stroke:#EEEEEE;stroke-width:1;" width="1871.8501" x="0" y="1897.0117"/><line style="stroke:#000000;stroke-width:1;" x1="0" x2="1871.8501" y1="1897.0117" y2="1897.0117"/><line style="stroke:#000000;stroke-width:1;" x1="0" x2="1871.8501" y1="1900.0117" y2="1900.0117"/><rect fill="#EEEEEE" height="23.1328" style="stroke:#000000;stroke-width:2;" width="249.9233" x="810.9634" y="1886.4453"/><text fill="#000000" font-family="Arial" font-size="13" font-weight="bold" lengthAdjust="spacing" textLength="231.3975" x="816.9634" y="1902.5122">Phase 4: Counter-Sign and Seal</text><g class="message" data-participant-1="SF" data-participant-2="SES"><polygon fill="#181818" points="1803.4292,1951.8438,1813.4292,1955.8438,1803.4292,1959.8438,1807.4292,1955.8438" style="stroke:#181818;stroke-width:1;"/><line style="stroke:#181818;stroke-width:1;" x1="1076.8135" x2="1809.4292" y1="1955.8438" y2="1955.8438"/><text fill="#000000" font-family="Arial" font-size="13" lengthAdjust="spacing" textLength="247.0063" x="1083.8135" y="1935.645">Send "Please counter-sign cycle {id}"</text><text fill="#000000" font-family="Arial" font-size="13" lengthAdjust="spacing" textLength="196.4663" x="1083.8135" y="1950.7778">to Counterparty Administrator</text></g><g class="message" data-participant-1="SES" data-participant-2="CP"><line style="stroke:#181818;stroke-width:1;" x1="85.8413" x2="95.8413" y1="1984.9766" y2="1980.9766"/><line style="stroke:#181818;stroke-width:1;" x1="85.8413" x2="95.8413" y1="1984.9766" y2="1988.9766"/><line style="stroke:#181818;stroke-width:1;stroke-dasharray:2,2;" x1="84.8413" x2="1814.4292" y1="1984.9766" y2="1984.9766"/><text fill="#000000" font-family="Arial" font-size="13" lengthAdjust="spacing" textLength="192.7529" x="101.8413" y="1979.9106">Email &#8212; counter-sign request</text></g><g class="message" data-participant-1="CP" data-participant-2="WEB"><polygon fill="#181818" points="289.4419,2010.1094,299.4419,2014.1094,289.4419,2018.1094,293.4419,2014.1094" style="stroke:#181818;stroke-width:1;"/><line style="stroke:#181818;stroke-width:1;" x1="84.8413" x2="295.4419" y1="2014.1094" y2="2014.1094"/><text fill="#000000" font-family="Arial" font-size="13" lengthAdjust="spacing" textLength="188.4683" x="91.8413" y="2009.0435">Open portal; review and sign</text></g><g class="message" data-participant-1="CP" data-participant-2="API"><polygon fill="#181818" points="552.1074,2039.2422,562.1074,2043.2422,552.1074,2047.2422,556.1074,2043.2422" style="stroke:#181818;stroke-width:1;"/><line style="stroke:#181818;stroke-width:1;" x1="84.8413" x2="558.1074" y1="2043.2422" y2="2043.2422"/><text fill="#000000" font-family="Arial" font-size="13" lengthAdjust="spacing" textLength="201.8999" x="91.8413" y="2038.1763">POST /cycles/{id}/counter-sign</text></g><g class="message" data-participant-1="API" data-participant-2="AUDIT"><polygon fill="#181818" points="982.7319,2083.5078,992.7319,2087.5078,982.7319,2091.5078,986.7319,2087.5078" style="stroke:#181818;stroke-width:1;"/><line style="stroke:#181818;stroke-width:1;" x1="564.1074" x2="988.7319" y1="2087.5078" y2="2087.5078"/><text fill="#000000" font-family="Arial" font-size="13" lengthAdjust="spacing" textLength="190.4487" x="571.1074" y="2067.3091">INSERT CYCLE_SIGNED event</text><text fill="#000000" font-family="Arial" font-size="13" lengthAdjust="spacing" textLength="277.4624" x="571.1074" y="2082.4419">(is_final=true, previous_hash, event_hash)</text></g><path d="M889,2100.5078 L889,2125.5078 L1264,2125.5078 L1264,2110.5078 L1254,2100.5078 L889,2100.5078" fill="#FEFFDD" style="stroke:#181818;stroke-width:0.5;"/><path d="M1254,2100.5078 L1254,2110.5078 L1264,2110.5078 L1254,2100.5078" fill="#FEFFDD" style="stroke:#181818;stroke-width:0.5;"/><text fill="#000000" font-family="Arial" font-size="13" lengthAdjust="spacing" textLength="354.3706" x="895" y="2117.5747">Workflow complete &#8212; execution status = SUCCEEDED</text><g class="message" data-participant-1="API" data-participant-2="AUDIT"><polygon fill="#181818" points="982.7319,2147.7734,992.7319,2151.7734,982.7319,2155.7734,986.7319,2151.7734" style="stroke:#181818;stroke-width:1;"/><line style="stroke:#181818;stroke-width:1;" x1="564.1074" x2="988.7319" y1="2151.7734" y2="2151.7734"/><text fill="#000000" font-family="Arial" font-size="13" lengthAdjust="spacing" textLength="257.2261" x="571.1074" y="2146.7075">INSERT WORKFLOW_COMPLETED event</text></g><g class="message" data-participant-1="API" data-participant-2="WEB"><line style="stroke:#181818;stroke-width:1;" x1="302.4419" x2="312.4419" y1="2180.9063" y2="2176.9063"/><line style="stroke:#181818;stroke-width:1;" x1="302.4419" x2="312.4419" y1="2180.9063" y2="2184.9063"/><line style="stroke:#181818;stroke-width:1;stroke-dasharray:2,2;" x1="301.4419" x2="563.1074" y1="2180.9063" y2="2180.9063"/><text fill="#000000" font-family="Arial" font-size="13" lengthAdjust="spacing" textLength="164.0019" x="318.4419" y="2175.8403">Cycle status = SIGNED &#9989;</text></g><!--SRC=[pLVBRjj65DtpAoxSZGrOI2At1Qf0AMXvvAhLgoGL8u00OaoEf8ce6MPcA4Se2dJJHVTTTjalovVqpf2IA4LscW052iEIRDxdkUS-f9TSv5JH5MZshc0YORvIyY7Qv0oaCWlfwPt4FKsMSoKBaNPa9XLyDQFsfoQHiXajCjELmWpfYe6lECrgpxS-Rj5AVYrLobHbwhld_jS-yJoKCppXEHK6pZheop1b_xUP2ZzTSS6rKTH8TGPKGsTyA7_7xi7FS_ViZbmVFlJ7FGYPMlE4EG7y-r0Wl9gABiyOX6Y_b0clZcmKAJTJqMVfd9KX-9ERNdHanx0SBHKYCLmANHhg7igGZC_vFS-uJOo8EHUbGq8EvGAMI96W7BMsfc901KNNSDv_SU4KWi6HSoQuL7N1PYaO7WkI43slAC_AnoJql7ORnWkg6RnemG3ho1ib7iNzYckD0K2xxNcTCJHUMNnRCCapILF8cSnHpj1xV9sXYeTFhH1Yt8BnA8pWMR99CgQV_SBJNvzP4JqLv_OzDaYrzfYCndqIH_vrdrnujbIe7Lwrobeucoz18HWgXV07lz7yvbj85YnPwcAr5NUbQ45l698WWcuFxKt6_P5_Gsw0hPamTO-Ne1SKhLn2hjYQoqB7cFdYifHqdwiu6g-gP9lFc-0d2SiDI-73Rt-wg6nGZAzPUWgNbHHiWwzhjaAZNuRCO3GaR-B1w3KPa67qds7ZUK8QRFarSiR5rh4MmCKMAqPJPAZMiERieJKLDClGuxk2AuJ2mM1ZrJimlZ_jj_EcWuwjzp3kZ0POyOXKxhTfTMrQo5FodYM5vRn3MXsq0Jn8jPnbyk6eG3v6vG3SnU6KNGx01LPQpXLcKIDwimMrLeGEpP8YAvrOgeTT6nGXc85OooMBg5wMDkKgBn0lLk_ZSmmIfrDYOfvULj2LyUYhUCas-i8ZP5kyBZF90YoG5heKKcfe6NqbvAfmIon1AhCLHrIn5xAXaJND2cg3UP_Rz6pmHZ6aPk78HEUK2ss0KNJ8HShNF2reLb766R8GMkXjVc617CTIspHhwI49D8w4-AsMeiBb4GxNb1gbqcasa7xljdVTw_UYDuuDawZMg9KtfF2AgWssfPkHCTBJvlTarvR1uK13AZ6HmjbOoLngbp5DDp33VMErsSFPL1W9XpCMgibP8ydLTXhsqKs6yWXdeR1H0cUbP0e9InY30LR4ZbK7u5d7aS_YOkbN2-FC2mQxUJ7AcTWzVrb5LqSVAY1fPg3_0cYEmciarZbTsHq97_xu6ym2XHOoIoyyWDBu8nMgr15cZRigDiXiX3IpsRLniQ3woO8513zC0XB4_dWSu4IwYJ6MidztAgw34VPZAkqzUIn3K4zbyMgVWzFfDtTJvd-P4zC9nMc1arh6_IRArwWtb8RFDb3kunsfKEIBasX-LXBDBotCdjuMUwQD1fg-BRHPbUQUheAJnFZtAh5TB8-6xj_yE0aZkzhYWFmy8U5k27nEv53vAtdoSHMIsY49SdQOaEsf-gK9r2tvexG1olt-ME9Eft6aygcK_Kw7ZEiPkmeS1AFjyMMqcmcwshQV3kVf2-joQwrjLE5gyqYexb08oEjUM8iHO7ygsD84h64KdzjhipwnalqkdOe7RXPGvBZajWU3Pa_dMvMiiPsAdyxvfCRfEsGq6KROBTWhQCRln-7aUj2BeeCaFsRHwKKn5KYe4xwHi9xztU-HhrlRL1iXdmkWk9n2XWjXVshKjrR6hDBMihOQoMwRbAlh0Bc3xqVxXTGPrnVIWRcgmUkNQxc9y9jVRG_PEAsyzw_WTv9Fd7zXxtPOM_HSuus41wMZufDx_P1rTzKDw4wnZE4ZDv5tPwCsr1GQsX1EiCa87hgdWxeR1Jzr-wExtK5wKxz8TxTbkSVtHiiaFlpr-py0]--></g></svg>