<?plantuml 1.2026.1?><svg xmlns="http://www.w3.org/2000/svg" xmlns:xlink="http://www.w3.org/1999/xlink" contentStyleType="text/css" data-diagram-type="DESCRIPTION" height="1214px" preserveAspectRatio="none" style="width:2591px;height:1214px;background:#FFFFFF;" version="1.1" viewBox="0 0 2591 1214" width="2591px" zoomAndPan="magnify"><title>Option 2: Validate + Monetize - US (RECOMMENDED)</title><defs/><g><g class="title" data-source-line="1"><text fill="#000000" font-family="sans-serif" font-size="14" font-weight="bold" lengthAdjust="spacing" textLength="416.3975" x="1080.3013" y="22.9951">Option 2: Validate + Monetize - US (RECOMMENDED)</text></g><!--cluster us_region--><g class="cluster" data-qualified-name="us_region" data-source-line="18" id="ent0005"><rect fill="#FAFAFA" height="663.47" rx="5" ry="5" style="stroke:#DEE2E6;stroke-width:1;" width="1696" x="296" y="445.5769"/><text fill="#000000" font-family="sans-serif" font-size="14" font-weight="bold" lengthAdjust="spacing" textLength="183.6338" x="1052.1831" y="460.572">AWS US-EAST-1 Region</text></g><!--cluster Compute Layer--><g class="cluster" data-qualified-name="us_region.Compute Layer" data-source-line="21" id="ent0007"><path d="M445.5,596.1769 L565.9238,596.1769 A3.75,3.75 0 0 1 568.4238,598.6769 L575.4238,618.4738 L1071.5,618.4738 A2.5,2.5 0 0 1 1074,620.9738 L1074,962.1069 A2.5,2.5 0 0 1 1071.5,964.6069 L445.5,964.6069 A2.5,2.5 0 0 1 443,962.1069 L443,598.6769 A2.5,2.5 0 0 1 445.5,596.1769" fill="#F8F9FA" style="stroke:#DEE2E6;stroke-width:1.5;"/><line style="stroke:#DEE2E6;stroke-width:1.5;" x1="443" x2="575.4238" y1="618.4738" y2="618.4738"/><text fill="#000000" font-family="sans-serif" font-size="14" font-weight="bold" lengthAdjust="spacing" textLength="119.4238" x="447" y="611.172">Compute Layer</text></g><!--cluster Modular Monolith (Single Deployable)--><g class="cluster" data-qualified-name="us_region.Compute Layer.Modular Monolith .Single Deployable." data-source-line="22" id="ent0008"><path d="M737.5,639.1769 L1037.6064,639.1769 A3.75,3.75 0 0 1 1040.1064,641.6769 L1047.1064,661.4738 L1047.5,661.4738 A2.5,2.5 0 0 1 1050,663.9738 L1050,772.8669 A2.5,2.5 0 0 1 1047.5,775.3669 L737.5,775.3669 A2.5,2.5 0 0 1 735,772.8669 L735,641.6769 A2.5,2.5 0 0 1 737.5,639.1769" fill="#E8F5E9" style="stroke:#DEE2E6;stroke-width:1.5;"/><line style="stroke:#DEE2E6;stroke-width:1.5;" x1="735" x2="1047.1064" y1="661.4738" y2="661.4738"/><text fill="#000000" font-family="sans-serif" font-size="14" font-weight="bold" lengthAdjust="spacing" textLength="299.1064" x="739" y="654.172">Modular Monolith (Single Deployable)</text></g><!--cluster AI Recognition--><g class="cluster" data-qualified-name="us_region.Compute Layer.AI Recognition" data-source-line="25" id="ent0010"><path d="M469.5,668.6169 L585.4736,668.6169 A3.75,3.75 0 0 1 587.9736,671.1169 L594.9736,690.9137 L708.5,690.9137 A2.5,2.5 0 0 1 711,693.4137 L711,938.1069 A2.5,2.5 0 0 1 708.5,940.6069 L469.5,940.6069 A2.5,2.5 0 0 1 467,938.1069 L467,671.1169 A2.5,2.5 0 0 1 469.5,668.6169" fill="#E3F2FD" style="stroke:#DEE2E6;stroke-width:1.5;"/><line style="stroke:#DEE2E6;stroke-width:1.5;" x1="467" x2="594.9736" y1="690.9137" y2="690.9137"/><text fill="#000000" font-family="sans-serif" font-size="14" font-weight="bold" lengthAdjust="spacing" textLength="114.9736" x="471" y="683.612">AI Recognition</text></g><!--cluster Data Layer--><g class="cluster" data-qualified-name="us_region.Data Layer" data-source-line="31" id="ent0013"><path d="M1269.5,824.3669 L1356.4756,824.3669 A3.75,3.75 0 0 1 1358.9756,826.8669 L1365.9756,846.6637 L1965.5,846.6637 A2.5,2.5 0 0 1 1968,849.1637 L1968,950.7569 A2.5,2.5 0 0 1 1965.5,953.2569 L1269.5,953.2569 A2.5,2.5 0 0 1 1267,950.7569 L1267,826.8669 A2.5,2.5 0 0 1 1269.5,824.3669" fill="#EDE7F6" style="stroke:#DEE2E6;stroke-width:1.5;"/><line style="stroke:#DEE2E6;stroke-width:1.5;" x1="1267" x2="1365.9756" y1="846.6637" y2="846.6637"/><text fill="#000000" font-family="sans-serif" font-size="14" font-weight="bold" lengthAdjust="spacing" textLength="85.9756" x="1271" y="839.362">Data Layer</text></g><!--cluster AI Services--><g class="cluster" data-qualified-name="AI Services" data-source-line="44" id="ent0021"><path d="M2018.5,1013.6069 L2106.9521,1013.6069 A3.75,3.75 0 0 1 2109.4521,1016.1069 L2116.4521,1035.9038 L2581.5,1035.9038 A2.5,2.5 0 0 1 2584,1038.4038 L2584,1098.3969 A2.5,2.5 0 0 1 2581.5,1100.8969 L2018.5,1100.8969 A2.5,2.5 0 0 1 2016,1098.3969 L2016,1016.1069 A2.5,2.5 0 0 1 2018.5,1013.6069" fill="#E8F5E9" style="stroke:#DEE2E6;stroke-width:1.5;"/><line style="stroke:#DEE2E6;stroke-width:1.5;" x1="2016" x2="2116.4521" y1="1035.9038" y2="1035.9038"/><text fill="#000000" font-family="sans-serif" font-size="14" font-weight="bold" lengthAdjust="spacing" textLength="87.4521" x="2020" y="1028.602">AI Services</text></g><!--cluster 3rd Party--><g class="cluster" data-qualified-name="3rd Party" data-source-line="50" id="ent0025"><path d="M8.5,845.1569 L83.4717,845.1569 A3.75,3.75 0 0 1 85.9717,847.6569 L92.9717,867.4537 L269.5,867.4537 A2.5,2.5 0 0 1 272,869.9537 L272,929.9569 A2.5,2.5 0 0 1 269.5,932.4569 L8.5,932.4569 A2.5,2.5 0 0 1 6,929.9569 L6,847.6569 A2.5,2.5 0 0 1 8.5,845.1569" fill="#FFF3E0" style="stroke:#DEE2E6;stroke-width:1.5;"/><line style="stroke:#DEE2E6;stroke-width:1.5;" x1="6" x2="92.9717" y1="867.4537" y2="867.4537"/><text fill="#000000" font-family="sans-serif" font-size="14" font-weight="bold" lengthAdjust="spacing" textLength="73.9717" x="10" y="860.152">3rd Party</text></g><!--entity alb--><g class="entity" data-qualified-name="us_region.alb" data-source-line="19" id="ent0006"><rect fill="#ED7100" height="52.5938" rx="2.5" ry="2.5" style="stroke:#181818;stroke-width:0.5;" width="151.0654" x="874.47" y="480.5769"/><text fill="#000000" font-family="sans-serif" font-size="14" lengthAdjust="spacing" textLength="26.9814" x="936.512" y="503.572">ALB</text><text fill="#000000" font-family="sans-serif" font-size="14" lengthAdjust="spacing" textLength="131.0654" x="884.47" y="519.8689">HTTPS termination</text></g><!--entity cw--><g class="entity" data-qualified-name="us_region.cw" data-source-line="38" id="ent0018"><rect fill="#FF4F8B" height="52.5938" rx="2.5" ry="2.5" style="stroke:#181818;stroke-width:0.5;" width="162.3447" x="341.83" y="1040.4569"/><text fill="#000000" font-family="sans-serif" font-size="14" lengthAdjust="spacing" textLength="84.4717" x="380.7665" y="1063.452">CloudWatch</text><text fill="#000000" font-family="sans-serif" font-size="14" lengthAdjust="spacing" textLength="142.3447" x="351.83" y="1079.7489">Logs, metrics, alerts</text></g><!--entity email--><g class="entity" data-qualified-name="us_region.email" data-source-line="39" id="ent0019"><rect fill="#FF4F8B" height="52.5938" rx="2.5" ry="2.5" style="stroke:#181818;stroke-width:0.5;" width="157.6758" x="1090.16" y="872.0069"/><text fill="#000000" font-family="sans-serif" font-size="14" lengthAdjust="spacing" textLength="26.6191" x="1155.6883" y="895.002">SES</text><text fill="#000000" font-family="sans-serif" font-size="14" lengthAdjust="spacing" textLength="137.6758" x="1100.16" y="911.2989">Transactional email</text></g><!--entity ecs_mono--><g class="entity" data-qualified-name="us_region.Compute Layer.Modular Monolith .Single Deployable..ecs_mono" data-source-line="23" id="ent0009"><rect fill="#FF9900" height="85.1875" rx="2.5" ry="2.5" style="stroke:#181818;stroke-width:0.5;" width="167.123" x="866.44" y="674.1769"/><text fill="#000000" font-family="sans-serif" font-size="14" lengthAdjust="spacing" textLength="96.8994" x="901.5518" y="697.172">ECS: Monolith</text><text fill="#000000" font-family="sans-serif" font-size="14" lengthAdjust="spacing" textLength="134.8184" x="882.5923" y="713.4689">Users + Partners +</text><text fill="#000000" font-family="sans-serif" font-size="14" lengthAdjust="spacing" textLength="147.123" x="876.44" y="729.7657">Recommendations +</text><text fill="#000000" font-family="sans-serif" font-size="14" lengthAdjust="spacing" textLength="140.7383" x="879.6324" y="746.0626">Payments + Loyalty</text></g><!--entity sqs--><g class="entity" data-qualified-name="us_region.Compute Layer.AI Recognition.sqs" data-source-line="26" id="ent0011"><path d="M505.26,703.6169 L686.7327,703.6169 C691.7327,703.6169 691.7327,716.7653 691.7327,716.7653 C691.7327,716.7653 691.7327,729.9137 686.7327,729.9137 L505.26,729.9137 C500.26,729.9137 500.26,716.7653 500.26,716.7653 C500.26,716.7653 500.26,703.6169 505.26,703.6169" fill="#FF4F8B" style="stroke:#181818;stroke-width:0.5;"/><path d="M686.7327,703.6169 C681.7327,703.6169 681.7327,716.7653 681.7327,716.7653 C681.7327,729.9137 686.7327,729.9137 686.7327,729.9137" fill="none" style="stroke:#181818;stroke-width:0.5;"/><text fill="#000000" font-family="sans-serif" font-size="14" lengthAdjust="spacing" textLength="171.4727" x="505.26" y="721.612">SQS: Recognition Queue</text></g><!--entity ar--><g class="entity" data-qualified-name="us_region.Compute Layer.AI Recognition.ar" data-source-line="27" id="ent0012"><rect fill="#FF9900" height="52.5938" rx="2.5" ry="2.5" style="stroke:#181818;stroke-width:0.5;" width="212.9922" x="482.5" y="872.0069"/><text fill="#000000" font-family="sans-serif" font-size="14" lengthAdjust="spacing" textLength="192.9922" x="492.5" y="895.002">Lambda: Photo Recognition</text><text fill="#000000" font-family="sans-serif" font-size="14" lengthAdjust="spacing" textLength="135.9805" x="521.0059" y="911.2989">On-demand scaling</text></g><!--entity db--><g class="entity" data-qualified-name="us_region.Data Layer.db" data-source-line="32" id="ent0014"><path d="M1623.33,869.3669 C1623.33,859.3669 1704.0033,859.3669 1704.0033,859.3669 C1704.0033,859.3669 1784.6767,859.3669 1784.6767,869.3669 L1784.6767,927.2575 C1784.6767,937.2575 1704.0033,937.2575 1704.0033,937.2575 C1704.0033,937.2575 1623.33,937.2575 1623.33,927.2575 L1623.33,869.3669" fill="#3B48CC" style="stroke:#181818;stroke-width:0.5;"/><path d="M1623.33,869.3669 C1623.33,879.3669 1704.0033,879.3669 1704.0033,879.3669 C1704.0033,879.3669 1784.6767,879.3669 1784.6767,869.3669" fill="none" style="stroke:#181818;stroke-width:0.5;"/><text fill="#000000" font-family="sans-serif" font-size="14" lengthAdjust="spacing" textLength="80.7529" x="1663.6269" y="896.362">PostgreSQL</text><text fill="#000000" font-family="sans-serif" font-size="14" lengthAdjust="spacing" textLength="141.3467" x="1633.33" y="912.6589">t4g.medium, 100GB</text><text fill="#000000" font-family="sans-serif" font-size="14" lengthAdjust="spacing" textLength="120.9961" x="1643.5053" y="928.9557">Multi-AZ, PostGIS</text></g><!--entity cache--><g class="entity" data-qualified-name="us_region.Data Layer.cache" data-source-line="33" id="ent0015"><path d="M1429.28,877.5069 C1429.28,867.5069 1508.9997,867.5069 1508.9997,867.5069 C1508.9997,867.5069 1588.7195,867.5069 1588.7195,877.5069 L1588.7195,919.1006 C1588.7195,929.1006 1508.9997,929.1006 1508.9997,929.1006 C1508.9997,929.1006 1429.28,929.1006 1429.28,919.1006 L1429.28,877.5069" fill="#3B48CC" style="stroke:#181818;stroke-width:0.5;"/><path d="M1429.28,877.5069 C1429.28,887.5069 1508.9997,887.5069 1508.9997,887.5069 C1508.9997,887.5069 1588.7195,887.5069 1588.7195,877.5069" fill="none" style="stroke:#181818;stroke-width:0.5;"/><text fill="#000000" font-family="sans-serif" font-size="14" lengthAdjust="spacing" textLength="120.21" x="1448.8947" y="904.502">Redis Cache 5GB</text><text fill="#000000" font-family="sans-serif" font-size="14" lengthAdjust="spacing" textLength="139.4395" x="1439.28" y="920.7989">Sessions &amp; hot data</text></g><!--entity s3p--><g class="entity" data-qualified-name="us_region.Data Layer.s3p" data-source-line="34" id="ent0016"><rect fill="#3F8624" height="52.5938" rx="35" ry="35" style="stroke:#181818;stroke-width:0.5;" width="111.335" x="1283.33" y="872.0069"/><text fill="#000000" font-family="sans-serif" font-size="14" lengthAdjust="spacing" textLength="69.4736" x="1304.2607" y="895.002">S3 Photos</text><text fill="#000000" font-family="sans-serif" font-size="14" lengthAdjust="spacing" textLength="91.335" x="1293.33" y="911.2989">User uploads</text></g><!--entity s3s--><g class="entity" data-qualified-name="us_region.Data Layer.s3s" data-source-line="35" id="ent0017"><rect fill="#3F8624" height="52.5938" rx="35" ry="35" style="stroke:#181818;stroke-width:0.5;" width="132.2871" x="1819.86" y="872.0069"/><text fill="#000000" font-family="sans-serif" font-size="14" lengthAdjust="spacing" textLength="112.2871" x="1829.86" y="895.002">S3 Static Assets</text><text fill="#000000" font-family="sans-serif" font-size="14" lengthAdjust="spacing" textLength="75.3389" x="1848.3341" y="911.2989">CDN origin</text></g><!--entity gv--><g class="entity" data-qualified-name="AI Services.gv" data-source-line="45" id="ent0022"><rect fill="#4285F4" height="36.2969" rx="2.5" ry="2.5" style="stroke:#181818;stroke-width:0.5;" width="142.5068" x="2425.75" y="1048.6069"/><text fill="#000000" font-family="sans-serif" font-size="14" lengthAdjust="spacing" textLength="122.5068" x="2435.75" y="1071.602">Google Vision API</text></g><!--entity openai--><g class="entity" data-qualified-name="AI Services.openai" data-source-line="46" id="ent0023"><rect fill="#00A67E" height="36.2969" rx="2.5" ry="2.5" style="stroke:#181818;stroke-width:0.5;" width="126.9277" x="2031.54" y="1048.6069"/><text fill="#000000" font-family="sans-serif" font-size="14" lengthAdjust="spacing" textLength="106.9277" x="2041.54" y="1071.602">OpenAI GPT-4V</text></g><!--entity gemini--><g class="entity" data-qualified-name="AI Services.gemini" data-source-line="47" id="ent0024"><rect fill="#4285F4" height="36.2969" rx="2.5" ry="2.5" style="stroke:#181818;stroke-width:0.5;" width="196.627" x="2193.69" y="1048.6069"/><text fill="#000000" font-family="sans-serif" font-size="14" lengthAdjust="spacing" textLength="176.627" x="2203.69" y="1071.602">Google Gemini (Fallback)</text></g><!--entity stripe--><g class="entity" data-qualified-name="3rd Party.stripe" data-source-line="51" id="ent0026"><rect fill="#635BFF" height="36.2969" rx="2.5" ry="2.5" style="stroke:#181818;stroke-width:0.5;" width="61.5215" x="22.24" y="880.1569"/><text fill="#000000" font-family="sans-serif" font-size="14" lengthAdjust="spacing" textLength="41.5215" x="32.24" y="903.152">Stripe</text></g><!--entity maps--><g class="entity" data-qualified-name="3rd Party.maps" data-source-line="52" id="ent0027"><rect fill="#4285F4" height="36.2969" rx="2.5" ry="2.5" style="stroke:#181818;stroke-width:0.5;" width="137.2568" x="118.37" y="880.1569"/><text fill="#000000" font-family="sans-serif" font-size="14" lengthAdjust="spacing" textLength="117.2568" x="128.37" y="903.152">Google Maps API</text></g><!--entity users--><g class="entity" data-qualified-name="users" data-source-line="14" id="ent0002"><ellipse cx="1416.9955" cy="51.2969" fill="#F1F1F1" rx="8" ry="8" style="stroke:#181818;stroke-width:0.5;"/><path d="M1416.9955,59.2969 L1416.9955,86.2969 M1403.9955,67.2969 L1429.9955,67.2969 M1416.9955,86.2969 L1403.9955,101.2969 M1416.9955,86.2969 L1429.9955,101.2969" fill="none" style="stroke:#181818;stroke-width:0.5;"/><text fill="#000000" font-family="sans-serif" font-size="14" lengthAdjust="spacing" textLength="89.5781" x="1372.2065" y="115.792">Mobile Users</text><text fill="#000000" font-family="sans-serif" font-size="14" lengthAdjust="spacing" textLength="93.8711" x="1370.06" y="132.0889">(iOS/Android)</text></g><!--entity dns--><g class="entity" data-qualified-name="dns" data-source-line="15" id="ent0003"><path d="M1379.423,222.0385 C1383.1833,215.2595 1387.1497,214.2321 1392.7899,220.0424 C1395.9075,214.3196 1401.2095,215.0923 1404.1608,220.2166 C1406.981,212.9003 1413.1007,212.693 1417.2832,218.8941 C1423.1247,212.1159 1427.5789,214.7899 1431.0856,221.3163 C1435.2812,213.3153 1439.6454,213.4605 1445.0239,220.1975 C1448.3393,214.9637 1453.2336,215.2653 1456.049,220.7135 C1462.8694,223.066 1465.2646,229.0067 1458.8635,234.1324 C1463.9609,235.4864 1466.4562,239.0951 1462.4245,243.8087 C1467.8968,249.8736 1466.3638,255.0191 1458.6027,257.3486 C1463.5236,260.5372 1462.5152,265.5867 1457.4745,267.6885 C1454.8847,276.0192 1447.5963,275.3393 1442.9566,269.8405 C1440.5176,277.3586 1435.4847,278.0393 1430.3464,272.4342 C1427.6304,280.568 1423.6294,281.4222 1417.2917,275.8953 C1412.6188,279.6344 1408.3319,278.1725 1406.2278,272.7823 C1401.347,278.4231 1395.2907,277.1342 1392.3764,270.5535 C1386.7942,275.9247 1382.163,275.2086 1379.8716,267.4253 C1375.6818,264.3532 1374.2456,261.0827 1379.2738,257.4578 C1372.5054,254.1221 1372.3016,250.0744 1378.0476,245.4597 C1371.6096,240.6814 1372.2692,236.3692 1379.1076,232.6933 C1373.6628,229.2984 1374.589,225.1291 1379.423,222.0385" fill="#F1F1F1" style="stroke:#181818;stroke-width:0.5;"/><text fill="#000000" font-family="sans-serif" font-size="14" lengthAdjust="spacing" textLength="63.5332" x="1385.23" y="240.392">Route 53</text><text fill="#000000" font-family="sans-serif" font-size="14" lengthAdjust="spacing" textLength="30.1396" x="1401.9268" y="256.6889">DNS</text></g><!--entity cdn--><g class="entity" data-qualified-name="cdn" data-source-line="16" id="ent0004"><path d="M1338.9704,344.4826 C1343.5494,338.5149 1347.6316,338.8626 1351.2238,345.446 C1354.091,340.0544 1358.769,338.5911 1362.5415,344.5428 C1365.2174,338.8432 1370.4569,338.6137 1373.5261,344.1584 C1375.6248,338.9653 1380.4193,339.0149 1383.5738,343.003 C1388.1317,338.5633 1392.8608,337.6708 1395.6969,344.8063 C1398.6108,338.4394 1404.051,338.0502 1407.5677,344.2363 C1409.4421,338.4308 1414.2524,338.101 1417.6797,342.7316 C1421.0535,336.9342 1425.1838,338.1268 1428.4175,342.8742 C1432.4386,337.282 1438.8881,336.781 1441.6233,344.1812 C1444.4525,339.1652 1449.2827,339.5056 1452.1349,344.1561 C1456.1324,338.6846 1460.7769,338.752 1463.7977,345.1184 C1467.2601,339.565 1470.727,340.4155 1474.0751,345.2317 C1477.8119,339.3753 1482.3291,338.6264 1486.8136,344.4138 C1490.28,339.6176 1494.8271,340.8749 1496.6961,346.0042 C1502.5818,347.5072 1504.4518,352.3783 1499.5628,356.7546 C1505.7293,359.321 1505.8097,364.9828 1500.1741,368.1806 C1505.0483,372.4907 1504.5448,377.3517 1499.0297,380.713 C1504.2194,384.8336 1503.3651,389.4307 1497.7812,392.4003 C1494.7892,396.9339 1489.4118,397.2972 1487.0641,391.7176 C1483.793,399.0046 1479.4088,398.7786 1474.3626,393.514 C1470.6206,398.7819 1467.1227,398.5036 1463.2663,393.6392 C1459.8474,398.159 1456.0554,397.7592 1453.0978,393.1267 C1449.2885,398.7995 1445.6188,398.9944 1441.4599,393.4907 C1437.9831,400.17 1433.5674,399.9816 1429.5198,394.0303 C1426.0544,399.183 1421.6771,400.5615 1417.9114,394.3367 C1414.2841,400.5485 1410.2467,399.8817 1406.2853,394.677 C1403.5694,400.0407 1398.1431,401.0988 1395.0642,395.0333 C1391.4926,399.8983 1386.5658,400.5558 1383.8325,394.1946 C1379.6435,398.0316 1376.1617,399.0089 1373.285,392.8148 C1369.9417,399.0606 1364.382,399.3754 1361.11,392.7474 C1357.6679,396.713 1353.299,395.7791 1351.1345,391.2476 C1347.3033,397.7602 1343.3403,396.4662 1339.2952,391.4676 C1332.9268,389.4284 1331.1992,384.6638 1335.2844,379.2054 C1328.2771,377.3031 1327.5583,373.54 1331.7107,368.0596 C1327.4407,363.6244 1329.654,359.1389 1335.0263,357.8285 C1330.336,352.3136 1331.0495,346.2705 1338.9704,344.4826" fill="#F1F1F1" style="stroke:#181818;stroke-width:0.5;"/><text fill="#000000" font-family="sans-serif" font-size="14" lengthAdjust="spacing" textLength="112.2051" x="1360.8962" y="363.982">CloudFront CDN</text><text fill="#000000" font-family="sans-serif" font-size="14" lengthAdjust="spacing" textLength="144.4775" x="1344.76" y="380.2789">Cache static content</text></g><!--entity auth--><g class="entity" data-qualified-name="auth" data-source-line="42" id="ent0020"><rect fill="#DD344C" height="52.5938" rx="2.5" ry="2.5" style="stroke:#181818;stroke-width:0.5;" width="130.9678" x="149.52" y="690.4769"/><text fill="#000000" font-family="sans-serif" font-size="14" lengthAdjust="spacing" textLength="90.8018" x="169.603" y="713.472">AWS Cognito</text><text fill="#000000" font-family="sans-serif" font-size="14" lengthAdjust="spacing" textLength="110.9678" x="159.52" y="729.7689">OAuth 2.0/OIDC</text></g><!--entity slack--><g class="entity" data-qualified-name="slack" data-source-line="55" id="ent0028"><rect fill="#611F69" height="36.2969" rx="2.5" ry="2.5" style="stroke:#181818;stroke-width:0.5;" width="102.2295" x="371.89" y="1172.0469"/><text fill="#000000" font-family="sans-serif" font-size="14" lengthAdjust="spacing" textLength="82.2295" x="381.89" y="1195.042">Slack Alerts</text></g><!--link users to dns--><g class="link" data-entity-1="ent0002" data-entity-2="ent0003" data-link-type="dependency" data-source-line="57" id="lnk29"><path d="M1417,135.8769 C1417,160.4569 1417,184.0969 1417,205.9169" fill="none" id="users-to-dns" style="stroke:#181818;stroke-width:1;"/><polygon fill="#181818" points="1417,211.9169,1421,202.9169,1417,206.9169,1413,202.9169,1417,211.9169" style="stroke:#181818;stroke-width:1;"/><text fill="#000000" font-family="sans-serif" font-size="13" lengthAdjust="spacing" textLength="94.123" x="1418" y="178.4638">HTTPS TLS 1.3</text></g><!--link dns to cdn--><g class="link" data-entity-1="ent0003" data-entity-2="ent0004" data-link-type="dependency" data-source-line="58" id="lnk30"><path d="M1417,275.3769 C1417,293.8069 1417,311.1769 1417,329.6069" fill="none" id="dns-to-cdn" style="stroke:#181818;stroke-width:1;"/><polygon fill="#181818" points="1417,335.6069,1421,326.6069,1417,330.6069,1413,326.6069,1417,335.6069" style="stroke:#181818;stroke-width:1;"/></g><!--link cdn to alb--><g class="link" data-entity-1="ent0004" data-entity-2="ent0006" data-link-type="dependency" data-source-line="59" id="lnk31"><path d="M1329.43,394.0869 C1242.02,419.8369 1114.7954,457.321 1031.7154,481.801" fill="none" id="cdn-to-alb" style="stroke:#181818;stroke-width:1;"/><polygon fill="#181818" points="1025.96,483.4969,1035.7236,484.79,1030.7561,482.0837,1033.4625,477.1162,1025.96,483.4969" style="stroke:#181818;stroke-width:1;"/></g><!--link alb to ecs_mono--><g class="link" data-entity-1="ent0006" data-entity-2="ent0009" data-link-type="dependency" data-source-line="60" id="lnk32"><path d="M950,533.3669 C950,568.3869 950,625.8169 950,667.8669" fill="none" id="alb-to-ecs_mono" style="stroke:#181818;stroke-width:1;"/><polygon fill="#181818" points="950,673.8669,954,664.8669,950,668.8669,946,664.8669,950,673.8669" style="stroke:#181818;stroke-width:1;"/><text fill="#000000" font-family="sans-serif" font-size="13" lengthAdjust="spacing" textLength="98.9282" x="951" y="576.2438">Route requests</text></g><!--link alb to auth--><g class="link" data-entity-1="ent0006" data-entity-2="ent0020" data-link-type="dependency" data-source-line="61" id="lnk33"><path d="M874.26,513.3169 C777.7,521.8669 606.54,542.4369 467,588.1769 C388.71,613.8369 309.79,657.6717 261.25,686.9017" fill="none" id="alb-to-auth" style="stroke:#181818;stroke-width:1;"/><polygon fill="#181818" points="256.11,689.9969,265.8835,688.7807,260.3933,687.4175,261.7565,681.9274,256.11,689.9969" style="stroke:#181818;stroke-width:1;"/><text fill="#000000" font-family="sans-serif" font-size="13" lengthAdjust="spacing" textLength="92.7646" x="544" y="576.2438">JWT validation</text></g><!--link ecs_mono to s3p--><g class="link" data-entity-1="ent0009" data-entity-2="ent0016" data-link-type="dependency" data-source-line="63" id="lnk34"><path d="M1034,727.5869 C1104.75,739.2469 1205.83,764.1569 1279,816.3669 C1299.08,830.6869 1312.2069,848.61 1322.6769,866.48" fill="none" id="ecs_mono-to-s3p" style="stroke:#181818;stroke-width:1;"/><polygon fill="#181818" points="1325.71,871.6569,1324.6116,861.8695,1323.1824,867.3428,1317.7091,865.9136,1325.71,871.6569" style="stroke:#181818;stroke-width:1;"/><text fill="#000000" font-family="sans-serif" font-size="13" lengthAdjust="spacing" textLength="87.1787" x="1264" y="804.4338">Upload photo</text></g><!--link s3p to sqs--><g class="link" data-entity-1="ent0016" data-entity-2="ent0011" data-link-type="dependency" data-source-line="64" id="lnk35"><path d="M1327.88,871.7669 C1318.05,852.6969 1301.73,828.0069 1279,816.3669 C1250.32,801.6669 724.67,827.8469 699,808.3669 C692.73,803.5969 698.49,797.8369 694,791.3669 C675.08,764.0869 648.0614,745.665 625.7514,733.135" fill="none" id="s3p-to-sqs" style="stroke:#181818;stroke-width:1;"/><polygon fill="#181818" points="620.52,730.1969,626.4083,738.0916,624.8795,732.6453,630.3258,731.1165,620.52,730.1969" style="stroke:#181818;stroke-width:1;"/><text fill="#000000" font-family="sans-serif" font-size="13" lengthAdjust="spacing" textLength="105.7139" x="700" y="804.4338">S3 event trigger</text></g><!--link sqs to ar--><g class="link" data-entity-1="ent0011" data-entity-2="ent0012" data-link-type="dependency" data-source-line="65" id="lnk36"><path d="M595.51,730.3969 C594.37,759.6869 591.7535,826.7514 590.2335,865.7814" fill="none" id="sqs-to-ar" style="stroke:#181818;stroke-width:1;"/><polygon fill="#181818" points="590,871.7769,594.3472,862.9394,590.1946,866.7807,586.3533,862.628,590,871.7769" style="stroke:#181818;stroke-width:1;"/><text fill="#000000" font-family="sans-serif" font-size="13" lengthAdjust="spacing" textLength="91.7808" x="594" y="804.4338">Process async</text></g><!--link ar to gv--><g class="link" data-entity-1="ent0012" data-entity-2="ent0022" data-link-type="dependency" data-source-line="66" id="lnk37"><path d="M617.36,925.0369 C638.26,942.1769 668.27,963.2169 699,972.6069 C739.41,984.9469 2177.85,977.7069 2220,980.6069 C2304.09,986.3969 2329.21,975.6569 2408,1005.6069 C2433.97,1015.4769 2455.2097,1030.4454 2472.3197,1044.3954" fill="none" id="ar-to-gv" style="stroke:#181818;stroke-width:1;"/><polygon fill="#181818" points="2476.97,1048.1869,2472.5222,1039.3995,2473.0948,1045.0274,2467.467,1045.5999,2476.97,1048.1869" style="stroke:#181818;stroke-width:1;"/><text fill="#000000" font-family="sans-serif" font-size="13" lengthAdjust="spacing" textLength="127.4609" x="2382" y="993.6738">1. Landmark detect</text></g><!--link ar to openai--><g class="link" data-entity-1="ent0012" data-entity-2="ent0023" data-link-type="dependency" data-source-line="67" id="lnk38"><path d="M617.43,924.8169 C638.36,941.8469 668.39,962.8569 699,972.6069 C745.23,987.3269 1523.49,996.4469 1572,997.6069 C1595.33,998.1569 1969.53,999.2969 1992,1005.6069 C2022.3,1014.1169 2048.0851,1030.1876 2067.9751,1044.7176" fill="none" id="ar-to-openai" style="stroke:#181818;stroke-width:1;"/><polygon fill="#181818" points="2072.82,1048.2569,2067.9121,1039.718,2068.7826,1045.3075,2063.1931,1046.1779,2072.82,1048.2569" style="stroke:#181818;stroke-width:1;"/><text fill="#000000" font-family="sans-serif" font-size="13" lengthAdjust="spacing" textLength="120.98" x="1573" y="993.6738">2. Rich description</text></g><!--link ar to gemini--><g class="link" data-entity-1="ent0012" data-entity-2="ent0024" data-link-type="dependency" data-source-line="68" id="lnk39"><path d="M617.37,925.0069 C638.27,942.1369 668.29,963.1769 699,972.6069 C725.53,980.7469 1670.26,979.7669 1698,980.6069 C1910.64,987.0169 1970.71,949.8269 2176,1005.6069 C2209.06,1014.5869 2238.3977,1030.692 2261.0777,1045.022" fill="none" id="ar-to-gemini" style="stroke:#181818;stroke-width:1;"/><polygon fill="#181818" points="2266.15,1048.2269,2260.6781,1040.038,2261.923,1045.5561,2256.4049,1046.8011,2266.15,1048.2269" style="stroke:#181818;stroke-width:1;"/><text fill="#000000" font-family="sans-serif" font-size="13" lengthAdjust="spacing" textLength="70.0972" x="2141" y="993.6738">3. Fallback</text></g><!--link ecs_mono to db--><g class="link" data-entity-1="ent0009" data-entity-2="ent0014" data-link-type="dependency" data-source-line="70" id="lnk40"><path d="M1033.97,724.5369 C1187.19,737.8469 1505.62,770.1869 1606,816.3669 C1628.45,826.6869 1645.5828,839.4381 1662.7328,855.0481" fill="none" id="ecs_mono-to-db" style="stroke:#181818;stroke-width:1;"/><polygon fill="#181818" points="1667.17,859.0869,1663.2067,850.0706,1663.4723,855.7213,1657.8217,855.9869,1667.17,859.0869" style="stroke:#181818;stroke-width:1;"/><text fill="#000000" font-family="sans-serif" font-size="13" lengthAdjust="spacing" textLength="116.1558" x="1578" y="804.4338">ACID transactions</text></g><!--link ecs_mono to cache--><g class="link" data-entity-1="ent0009" data-entity-2="ent0015" data-link-type="dependency" data-source-line="71" id="lnk41"><path d="M1033.68,726.0769 C1117.69,735.9669 1250.08,755.8069 1360,791.3669 C1406.36,806.3569 1446.2647,837.4152 1474.3347,863.1152" fill="none" id="ecs_mono-to-cache" style="stroke:#181818;stroke-width:1;"/><polygon fill="#181818" points="1478.76,867.1669,1474.8231,858.1391,1475.0722,863.7905,1469.4208,864.0395,1478.76,867.1669" style="stroke:#181818;stroke-width:1;"/><text fill="#000000" font-family="sans-serif" font-size="13" lengthAdjust="spacing" textLength="56.2402" x="1397" y="804.4338">Hot data</text></g><!--link ecs_mono to stripe--><g class="link" data-entity-1="ent0009" data-entity-2="ent0026" data-link-type="dependency" data-source-line="72" id="lnk42"><path d="M866.21,746.4069 C820.86,760.4669 763.51,775.9469 711,783.3669 C693.81,785.7869 99.92,780.9869 86,791.3669 C58.36,811.9769 53.3829,849.5686 52.8029,873.9186" fill="none" id="ecs_mono-to-stripe" style="stroke:#181818;stroke-width:1;"/><polygon fill="#181818" points="52.66,879.9169,56.8732,871.0147,52.7791,874.9183,48.8754,870.8242,52.66,879.9169" style="stroke:#181818;stroke-width:1;"/><text fill="#000000" font-family="sans-serif" font-size="13" lengthAdjust="spacing" textLength="129.7651" x="87" y="804.4338">Payments (Phase 2)</text></g><!--link ecs_mono to email--><g class="link" data-entity-1="ent0009" data-entity-2="ent0019" data-link-type="dependency" data-source-line="74" id="lnk43"><path d="M1001.07,759.6369 C1043.41,794.3469 1097.5997,838.7732 1133.2097,867.9632" fill="none" id="ecs_mono-to-email" style="stroke:#181818;stroke-width:1;"/><polygon fill="#181818" points="1137.85,871.7669,1133.4254,862.9678,1133.9831,868.5971,1128.3538,869.1549,1137.85,871.7669" style="stroke:#181818;stroke-width:1;"/><text fill="#000000" font-family="sans-serif" font-size="13" lengthAdjust="spacing" textLength="81.3643" x="1060" y="804.4338">Notifications</text></g><!--link ecs_mono to maps--><g class="link" data-entity-1="ent0009" data-entity-2="ent0027" data-link-type="dependency" data-source-line="75" id="lnk44"><path d="M866.2,746.3169 C820.84,760.3569 763.49,775.8369 711,783.3669 C685.04,787.0869 261.14,777.3069 239,791.3669 C223,801.5169 205.0052,846.6826 195.1252,874.0826" fill="none" id="ecs_mono-to-maps" style="stroke:#181818;stroke-width:1;"/><polygon fill="#181818" points="193.09,879.7269,199.9057,872.6173,194.786,875.0233,192.38,869.9036,193.09,879.7269" style="stroke:#181818;stroke-width:1;"/><text fill="#000000" font-family="sans-serif" font-size="13" lengthAdjust="spacing" textLength="55.3198" x="240" y="804.4338">POI data</text></g><!--link ecs_mono to cw--><g class="link" data-entity-1="ent0009" data-entity-2="ent0018" data-link-type="dependency" data-source-line="77" id="lnk45"><path d="M866.15,745.9869 C820.78,759.9269 763.43,775.4169 711,783.3669 C603.72,799.6069 574.48,776.4669 467,791.3669 C421.19,797.7069 394.5,779.9469 366,816.3669 C323.2,871.0469 347.17,905.7669 366,972.6069 C373.04,997.6069 385.2909,1017.7113 398.4909,1035.4713" fill="none" id="ecs_mono-to-cw" style="stroke:#181818;stroke-width:1;"/><polygon fill="#181818" points="402.07,1040.2869,399.9117,1030.6774,399.0874,1036.2739,393.4909,1035.4496,402.07,1040.2869" style="stroke:#181818;stroke-width:1;"/><text fill="#000000" font-family="sans-serif" font-size="13" lengthAdjust="spacing" textLength="99.7344" x="367" y="902.8738">Structured logs</text></g><!--link ar to cw--><g class="link" data-entity-1="ent0012" data-entity-2="ent0018" data-link-type="dependency" data-source-line="78" id="lnk46"><path d="M563.43,924.9469 C532.23,956.2269 484.0472,1004.5388 452.8372,1035.8288" fill="none" id="ar-to-cw" style="stroke:#181818;stroke-width:1;"/><polygon fill="#181818" points="448.6,1040.0769,457.7879,1036.5296,452.131,1036.5368,452.1238,1030.88,448.6,1040.0769" style="stroke:#181818;stroke-width:1;"/><text fill="#000000" font-family="sans-serif" font-size="13" lengthAdjust="spacing" textLength="94.9165" x="507" y="993.6738">Execution logs</text></g><!--link cw to slack--><g class="link" data-entity-1="ent0018" data-entity-2="ent0028" data-link-type="dependency" data-source-line="79" id="lnk47"><path d="M423,1093.5069 C423,1117.0469 423,1145.2069 423,1165.7069" fill="none" id="cw-to-slack" style="stroke:#181818;stroke-width:1;"/><polygon fill="#181818" points="423,1171.7069,427,1162.7069,423,1166.7069,419,1162.7069,423,1171.7069" style="stroke:#181818;stroke-width:1;"/><text fill="#000000" font-family="sans-serif" font-size="13" lengthAdjust="spacing" textLength="98.3887" x="424" y="1138.1138">Error rate &gt;5%</text></g><!--link cdn to s3s--><g class="link" data-entity-1="ent0004" data-entity-2="ent0017" data-link-type="dependency" data-source-line="80" id="lnk48"><path d="M1504.45,371.0369 C1612.21,376.3669 1786.42,391.9869 1830,437.5769 C1947.51,560.5069 1910.3598,788.245 1893.4398,865.745" fill="none" id="cdn-to-s3s" style="stroke:#181818;stroke-width:1;"/><polygon fill="#181818" points="1892.16,871.6069,1897.9876,863.6672,1893.2265,866.7219,1890.1717,861.9608,1892.16,871.6069" style="stroke:#181818;stroke-width:1;"/><text fill="#000000" font-family="sans-serif" font-size="13" lengthAdjust="spacing" textLength="81.5737" x="1901" y="576.2438">Cache origin</text></g><?plantuml-src RLPjJ-f85FxUNt42sOrcnSkxo8URrBvusO0WHKqs93T3EvQ9PGPdfdhPZVzzpqoXjw0nIZdlvpddF5KpdL6ORZKJ7Df3U2GPIuYcy1TC1AUQ_KkX0GyHdCq3RpgP17T-u9yxZdfXV4iasS2An2-f53bFF9492Uzhfcb57ulD5YDn7UaTff8qreIdMTKaeSyap_I2_j9knbA-GMk8yG-L5QlI4_vp0FOP9QSIMatdesAunOf8MfZTd5HN3mVXTUWQZP09bNkf7mJje8zH719h5DGcOiKmquEYKYtv6Pj6troUIC6IyneG1RbHE74cyWHgSv4ZOhtEaljtaLKdl5HwvYEK0blo_BibzqYyfg0qqIn6SB19hgrFd737-TrapNsA4FX6u4QBHWlcDCKHxNF_bFORTkEQ7zjfYJDwZc-M_CTYCOi08TmmJlJ1bsGhg0V-LQlPTD3f05NDGs_Jn9ZigApPW1NjH2HvHgHP2P4nlOQpYDaYVRhDn8wiCegmr8D1s0kkzyv75GLUD2ozbzp2YYis8r9p-xZaSuhsEFd45cj5Cx8pgs0invWbqplR0utLpmt6mlR3wsjin2JxEAxO7O49c79Mj5uFEc4xzClQNdEQerbqZtLL3E7Uo6qMzQfCWcuukFdSpvXiLWaPmcmjjAW6MF8fRoHqGtW2AiPZucc1k_nKxSVH07oYoG5z751m5VRtnI8WP4KKsio4qgcaqVruoNKtlTpGXEMR2zp_vYrEV88tn1hkFnTW36z7-rN4WNTkkWFFEuasHsy5nJhsZ7z4bRBG_mdObhKi5jEQL8Cel15RTTGf8535J277TI29AW3iRD4f7FJRtKzEKR7-hb9KeoyU1WZ9KiRtdghYQN6gO6yFwede61TfB59r0Hkg9OlnWMHKwY9x_5wPNiKx2g8bNqZ25LuwTaiom6cnhDWiyrJwOUBgKU4vUdRC0eVivdW5xSlcj-d8zue96qdTzplThkSurKMCg7nZCLN75r89VIk4EQP7Pk07TpQo0TCtg7VRWrxOFRQURYd7gBUpHQFxQ2q5IWY3UhFfzg-2BsFVKgG11cSXoJB3s0MBfONqaEQZKdT79lOyyUGGZx0JD4-hZX3qxVvMx2FK-vtUJHX-MS24R5NPsiPygMIjHism0d1_3r9PGRtVQZtthnt74Yyq6jyDny8G2ffRZ2DeNNOS8pCwmwNuQv-HyXn3U-Qvf0wyUalQaY8JAArA2pl68Vpzj82tubs8Ct6Sqj7OcCqUmeFTTTYQ_NUCoAfUJL6uuVJDj8EufAbvYxqMTI4D86b8WTk06wDsF7PGP3GuxI6sW1J0amsHB_XIrFWkEAZt8nxYpi6SnMjKgnX1jzKTGXJJ74Bd4WvpFgaSoM08hZVoiRBo1DInJN7kYEoU0qvwBqQDNHp8-MosDdpIFZ_9LHpJ4Ew4Piyi9b-aidk0eQQZ8jD98Uy6IYtpMEUI9f3XiHzwjRhW5urpIzjMXJ9ReLqOr4g9Rt9f_fdvtlkZN0T3BiCzxHMSypy0?></g></svg>