<?plantuml 1.2026.1?><svg xmlns="http://www.w3.org/2000/svg" xmlns:xlink="http://www.w3.org/1999/xlink" contentStyleType="text/css" data-diagram-type="DESCRIPTION" height="1181px" preserveAspectRatio="none" style="width:2753px;height:1181px;background:#FFFFFF;" version="1.1" viewBox="0 0 2753 1181" width="2753px" zoomAndPan="magnify"><title>Option 1: MVP Architecture (US Only)</title><defs/><g><g class="title" data-source-line="1"><text fill="#000000" font-family="sans-serif" font-size="14" font-weight="bold" lengthAdjust="spacing" textLength="296.126" x="1221.437" y="22.9951">Option 1: MVP Architecture (US Only)</text></g><!--cluster us--><g class="cluster" data-qualified-name="us" data-source-line="18" id="ent0005"><rect fill="#FAFAFA" height="630.87" rx="5" ry="5" style="stroke:#DEE2E6;stroke-width:1;" width="1954" x="200" y="445.5769"/><text fill="#000000" font-family="sans-serif" font-size="14" font-weight="bold" lengthAdjust="spacing" textLength="183.6338" x="1085.1831" y="460.572">AWS US-EAST-1 Region</text></g><!--cluster Compute Layer--><g class="cluster" data-qualified-name="us.Compute Layer" data-source-line="21" id="ent0007"><path d="M349.5,596.1669 L469.9238,596.1669 A3.75,3.75 0 0 1 472.4238,598.6669 L479.4238,618.4638 L1235.5,618.4638 A2.5,2.5 0 0 1 1238,620.9638 L1238,929.5069 A2.5,2.5 0 0 1 1235.5,932.0069 L349.5,932.0069 A2.5,2.5 0 0 1 347,929.5069 L347,598.6669 A2.5,2.5 0 0 1 349.5,596.1669" fill="#F8F9FA" style="stroke:#DEE2E6;stroke-width:1.5;"/><line style="stroke:#DEE2E6;stroke-width:1.5;" x1="347" x2="479.4238" y1="618.4638" y2="618.4638"/><text fill="#000000" font-family="sans-serif" font-size="14" font-weight="bold" lengthAdjust="spacing" textLength="119.4238" x="351" y="611.162">Compute Layer</text></g><!--cluster Modular Monolith--><g class="cluster" data-qualified-name="us.Compute Layer.Modular Monolith" data-source-line="22" id="ent0008"><path d="M641.5,639.1669 L781.4541,639.1669 A3.75,3.75 0 0 1 783.9541,641.6669 L790.9541,661.4638 L1211.5,661.4638 A2.5,2.5 0 0 1 1214,663.9638 L1214,740.2669 A2.5,2.5 0 0 1 1211.5,742.7669 L641.5,742.7669 A2.5,2.5 0 0 1 639,740.2669 L639,641.6669 A2.5,2.5 0 0 1 641.5,639.1669" fill="#E8F5E9" style="stroke:#DEE2E6;stroke-width:1.5;"/><line style="stroke:#DEE2E6;stroke-width:1.5;" x1="639" x2="790.9541" y1="661.4638" y2="661.4638"/><text fill="#000000" font-family="sans-serif" font-size="14" font-weight="bold" lengthAdjust="spacing" textLength="138.9541" x="643" y="654.162">Modular Monolith</text></g><!--cluster AR Microservice--><g class="cluster" data-qualified-name="us.Compute Layer.AR Microservice" data-source-line="27" id="ent0012"><path d="M373.5,652.3169 L500.9922,652.3169 A3.75,3.75 0 0 1 503.4922,654.8169 L510.4922,674.6138 L612.5,674.6138 A2.5,2.5 0 0 1 615,677.1138 L615,905.5069 A2.5,2.5 0 0 1 612.5,908.0069 L373.5,908.0069 A2.5,2.5 0 0 1 371,905.5069 L371,654.8169 A2.5,2.5 0 0 1 373.5,652.3169" fill="#E3F2FD" style="stroke:#DEE2E6;stroke-width:1.5;"/><line style="stroke:#DEE2E6;stroke-width:1.5;" x1="371" x2="510.4922" y1="674.6138" y2="674.6138"/><text fill="#000000" font-family="sans-serif" font-size="14" font-weight="bold" lengthAdjust="spacing" textLength="126.4922" x="375" y="667.312">AR Microservice</text></g><!--cluster Data Layer--><g class="cluster" data-qualified-name="us.Data Layer" data-source-line="33" id="ent0015"><path d="M1264.5,791.7669 L1351.4756,791.7669 A3.75,3.75 0 0 1 1353.9756,794.2669 L1360.9756,814.0638 L1958.5,814.0638 A2.5,2.5 0 0 1 1961,816.5638 L1961,918.1569 A2.5,2.5 0 0 1 1958.5,920.6569 L1264.5,920.6569 A2.5,2.5 0 0 1 1262,918.1569 L1262,794.2669 A2.5,2.5 0 0 1 1264.5,791.7669" fill="#EDE7F6" style="stroke:#DEE2E6;stroke-width:1.5;"/><line style="stroke:#DEE2E6;stroke-width:1.5;" x1="1262" x2="1360.9756" y1="814.0638" y2="814.0638"/><text fill="#000000" font-family="sans-serif" font-size="14" font-weight="bold" lengthAdjust="spacing" textLength="85.9756" x="1266" y="806.762">Data Layer</text></g><!--cluster AI Services--><g class="cluster" data-qualified-name="AI Services" data-source-line="46" id="ent0023"><path d="M2180.5,981.0069 L2268.9521,981.0069 A3.75,3.75 0 0 1 2271.4521,983.5069 L2278.4521,1003.3038 L2743.5,1003.3038 A2.5,2.5 0 0 1 2746,1005.8038 L2746,1065.7969 A2.5,2.5 0 0 1 2743.5,1068.2969 L2180.5,1068.2969 A2.5,2.5 0 0 1 2178,1065.7969 L2178,983.5069 A2.5,2.5 0 0 1 2180.5,981.0069" fill="#E8F5E9" style="stroke:#DEE2E6;stroke-width:1.5;"/><line style="stroke:#DEE2E6;stroke-width:1.5;" x1="2178" x2="2278.4521" y1="1003.3038" y2="1003.3038"/><text fill="#000000" font-family="sans-serif" font-size="14" font-weight="bold" lengthAdjust="spacing" textLength="87.4521" x="2182" y="996.002">AI Services</text></g><!--cluster 3rd Party--><g class="cluster" data-qualified-name="3rd Party" data-source-line="52" id="ent0027"><path d="M8.5,812.5569 L83.4717,812.5569 A3.75,3.75 0 0 1 85.9717,815.0569 L92.9717,834.8538 L173.5,834.8538 A2.5,2.5 0 0 1 176,837.3538 L176,897.3569 A2.5,2.5 0 0 1 173.5,899.8569 L8.5,899.8569 A2.5,2.5 0 0 1 6,897.3569 L6,815.0569 A2.5,2.5 0 0 1 8.5,812.5569" fill="#FFF3E0" style="stroke:#DEE2E6;stroke-width:1.5;"/><line style="stroke:#DEE2E6;stroke-width:1.5;" x1="6" x2="92.9717" y1="834.8538" y2="834.8538"/><text fill="#000000" font-family="sans-serif" font-size="14" font-weight="bold" lengthAdjust="spacing" textLength="73.9717" x="10" y="827.552">3rd Party</text></g><!--entity alb--><g class="entity" data-qualified-name="us.alb" data-source-line="19" id="ent0006"><rect fill="#ED7100" height="52.5938" rx="2.5" ry="2.5" style="stroke:#181818;stroke-width:0.5;" width="151.0654" x="646.47" y="480.5769"/><text fill="#000000" font-family="sans-serif" font-size="14" lengthAdjust="spacing" textLength="100.0781" x="671.9637" y="503.572">Application LB</text><text fill="#000000" font-family="sans-serif" font-size="14" lengthAdjust="spacing" textLength="131.0654" x="656.47" y="519.8689">HTTPS termination</text></g><!--entity cw--><g class="entity" data-qualified-name="us.cw" data-source-line="40" id="ent0020"><rect fill="#FF4F8B" height="52.5938" rx="2.5" ry="2.5" style="stroke:#181818;stroke-width:0.5;" width="162.3447" x="245.83" y="1007.8569"/><text fill="#000000" font-family="sans-serif" font-size="14" lengthAdjust="spacing" textLength="84.4717" x="284.7665" y="1030.852">CloudWatch</text><text fill="#000000" font-family="sans-serif" font-size="14" lengthAdjust="spacing" textLength="142.3447" x="255.83" y="1047.1489">Logs, metrics, alerts</text></g><!--entity email--><g class="entity" data-qualified-name="us.email" data-source-line="41" id="ent0021"><rect fill="#FF4F8B" height="52.5938" rx="2.5" ry="2.5" style="stroke:#181818;stroke-width:0.5;" width="157.6758" x="1980.16" y="839.4069"/><text fill="#000000" font-family="sans-serif" font-size="14" lengthAdjust="spacing" textLength="26.6191" x="2045.6883" y="862.402">SES</text><text fill="#000000" font-family="sans-serif" font-size="14" lengthAdjust="spacing" textLength="137.6758" x="1990.16" y="878.6989">Transactional email</text></g><!--entity ecs1--><g class="entity" data-qualified-name="us.Compute Layer.Modular Monolith.ecs1" data-source-line="23" id="ent0009"><rect fill="#FF9900" height="52.5938" rx="2.5" ry="2.5" style="stroke:#181818;stroke-width:0.5;" width="133.1279" x="655.44" y="674.1669"/><text fill="#000000" font-family="sans-serif" font-size="14" lengthAdjust="spacing" textLength="113.1279" x="665.44" y="697.162">ECS: User Mgmt</text><text fill="#000000" font-family="sans-serif" font-size="14" lengthAdjust="spacing" textLength="104.4531" x="669.7774" y="713.4589">Auth &amp; profiles</text></g><!--entity ecs2--><g class="entity" data-qualified-name="us.Compute Layer.Modular Monolith.ecs2" data-source-line="24" id="ent0010"><rect fill="#FF9900" height="52.5938" rx="2.5" ry="2.5" style="stroke:#181818;stroke-width:0.5;" width="152.7266" x="1045.64" y="674.1669"/><text fill="#000000" font-family="sans-serif" font-size="14" lengthAdjust="spacing" textLength="132.7266" x="1055.64" y="697.162">ECS: Partner Mgmt</text><text fill="#000000" font-family="sans-serif" font-size="14" lengthAdjust="spacing" textLength="118.0088" x="1062.9989" y="713.4589">Business profiles</text></g><!--entity ecs3--><g class="entity" data-qualified-name="us.Compute Layer.Modular Monolith.ecs3" data-source-line="25" id="ent0011"><rect fill="#FF9900" height="52.5938" rx="2.5" ry="2.5" style="stroke:#181818;stroke-width:0.5;" width="187.6172" x="823.19" y="674.1669"/><text fill="#000000" font-family="sans-serif" font-size="14" lengthAdjust="spacing" textLength="167.6172" x="833.19" y="697.162">ECS: Recommendations</text><text fill="#000000" font-family="sans-serif" font-size="14" lengthAdjust="spacing" textLength="84.4033" x="874.7969" y="713.4589">Geo queries</text></g><!--entity sqs--><g class="entity" data-qualified-name="us.Compute Layer.AR Microservice.sqs" data-source-line="28" id="ent0013"><path d="M409.26,687.3169 L590.7327,687.3169 C595.7327,687.3169 595.7327,700.4653 595.7327,700.4653 C595.7327,700.4653 595.7327,713.6138 590.7327,713.6138 L409.26,713.6138 C404.26,713.6138 404.26,700.4653 404.26,700.4653 C404.26,700.4653 404.26,687.3169 409.26,687.3169" fill="#FF4F8B" style="stroke:#181818;stroke-width:0.5;"/><path d="M590.7327,687.3169 C585.7327,687.3169 585.7327,700.4653 585.7327,700.4653 C585.7327,713.6138 590.7327,713.6138 590.7327,713.6138" fill="none" style="stroke:#181818;stroke-width:0.5;"/><text fill="#000000" font-family="sans-serif" font-size="14" lengthAdjust="spacing" textLength="171.4727" x="409.26" y="705.312">SQS: Recognition Queue</text></g><!--entity ar--><g class="entity" data-qualified-name="us.Compute Layer.AR Microservice.ar" data-source-line="29" id="ent0014"><rect fill="#FF9900" height="52.5938" rx="2.5" ry="2.5" style="stroke:#181818;stroke-width:0.5;" width="212.9922" x="386.5" y="839.4069"/><text fill="#000000" font-family="sans-serif" font-size="14" lengthAdjust="spacing" textLength="192.9922" x="396.5" y="862.402">Lambda: Photo Recognition</text><text fill="#000000" font-family="sans-serif" font-size="14" lengthAdjust="spacing" textLength="135.9805" x="425.0059" y="878.6989">On-demand scaling</text></g><!--entity db--><g class="entity" data-qualified-name="us.Data Layer.db" data-source-line="34" id="ent0016"><path d="M1424.23,836.7669 C1424.23,826.7669 1504.0044,826.7669 1504.0044,826.7669 C1504.0044,826.7669 1583.7788,826.7669 1583.7788,836.7669 L1583.7788,894.6575 C1583.7788,904.6575 1504.0044,904.6575 1504.0044,904.6575 C1504.0044,904.6575 1424.23,904.6575 1424.23,894.6575 L1424.23,836.7669" fill="#3B48CC" style="stroke:#181818;stroke-width:0.5;"/><path d="M1424.23,836.7669 C1424.23,846.7669 1504.0044,846.7669 1504.0044,846.7669 C1504.0044,846.7669 1583.7788,846.7669 1583.7788,836.7669" fill="none" style="stroke:#181818;stroke-width:0.5;"/><text fill="#000000" font-family="sans-serif" font-size="14" lengthAdjust="spacing" textLength="139.5488" x="1434.23" y="863.762">PostgreSQL Primary</text><text fill="#000000" font-family="sans-serif" font-size="14" lengthAdjust="spacing" textLength="119.5332" x="1444.2378" y="880.0589">t4g.large, 100GB</text><text fill="#000000" font-family="sans-serif" font-size="14" lengthAdjust="spacing" textLength="53.6553" x="1477.1768" y="896.3557">PostGIS</text></g><!--entity cache--><g class="entity" data-qualified-name="us.Data Layer.cache" data-source-line="35" id="ent0017"><path d="M1618.28,844.9069 C1618.28,834.9069 1697.9997,834.9069 1697.9997,834.9069 C1697.9997,834.9069 1777.7195,834.9069 1777.7195,844.9069 L1777.7195,886.5006 C1777.7195,896.5006 1697.9997,896.5006 1697.9997,896.5006 C1697.9997,896.5006 1618.28,896.5006 1618.28,886.5006 L1618.28,844.9069" fill="#3B48CC" style="stroke:#181818;stroke-width:0.5;"/><path d="M1618.28,844.9069 C1618.28,854.9069 1697.9997,854.9069 1697.9997,854.9069 C1697.9997,854.9069 1777.7195,854.9069 1777.7195,844.9069" fill="none" style="stroke:#181818;stroke-width:0.5;"/><text fill="#000000" font-family="sans-serif" font-size="14" lengthAdjust="spacing" textLength="120.21" x="1637.8947" y="871.902">Redis Cache 5GB</text><text fill="#000000" font-family="sans-serif" font-size="14" lengthAdjust="spacing" textLength="139.4395" x="1628.28" y="888.1989">Sessions &amp; hot data</text></g><!--entity s3p--><g class="entity" data-qualified-name="us.Data Layer.s3p" data-source-line="36" id="ent0018"><rect fill="#3F8624" height="52.5938" rx="35" ry="35" style="stroke:#181818;stroke-width:0.5;" width="111.335" x="1278.33" y="839.4069"/><text fill="#000000" font-family="sans-serif" font-size="14" lengthAdjust="spacing" textLength="69.4736" x="1299.2607" y="862.402">S3 Photos</text><text fill="#000000" font-family="sans-serif" font-size="14" lengthAdjust="spacing" textLength="91.335" x="1288.33" y="878.6989">User uploads</text></g><!--entity s3s--><g class="entity" data-qualified-name="us.Data Layer.s3s" data-source-line="37" id="ent0019"><rect fill="#3F8624" height="52.5938" rx="35" ry="35" style="stroke:#181818;stroke-width:0.5;" width="132.2871" x="1812.86" y="839.4069"/><text fill="#000000" font-family="sans-serif" font-size="14" lengthAdjust="spacing" textLength="112.2871" x="1822.86" y="862.402">S3 Static Assets</text><text fill="#000000" font-family="sans-serif" font-size="14" lengthAdjust="spacing" textLength="75.3389" x="1841.3341" y="878.6989">CDN origin</text></g><!--entity gv--><g class="entity" data-qualified-name="AI Services.gv" data-source-line="47" id="ent0024"><rect fill="#4285F4" height="36.2969" rx="2.5" ry="2.5" style="stroke:#181818;stroke-width:0.5;" width="142.5068" x="2193.75" y="1016.0069"/><text fill="#000000" font-family="sans-serif" font-size="14" lengthAdjust="spacing" textLength="122.5068" x="2203.75" y="1039.002">Google Vision API</text></g><!--entity openai--><g class="entity" data-qualified-name="AI Services.openai" data-source-line="48" id="ent0025"><rect fill="#00A67E" height="36.2969" rx="2.5" ry="2.5" style="stroke:#181818;stroke-width:0.5;" width="126.9277" x="2371.54" y="1016.0069"/><text fill="#000000" font-family="sans-serif" font-size="14" lengthAdjust="spacing" textLength="106.9277" x="2381.54" y="1039.002">OpenAI GPT-4V</text></g><!--entity gemini--><g class="entity" data-qualified-name="AI Services.gemini" data-source-line="49" id="ent0026"><rect fill="#4285F4" height="36.2969" rx="2.5" ry="2.5" style="stroke:#181818;stroke-width:0.5;" width="196.627" x="2533.69" y="1016.0069"/><text fill="#000000" font-family="sans-serif" font-size="14" lengthAdjust="spacing" textLength="176.627" x="2543.69" y="1039.002">Google Gemini (Fallback)</text></g><!--entity maps--><g class="entity" data-qualified-name="3rd Party.maps" data-source-line="53" id="ent0028"><rect fill="#4285F4" height="36.2969" rx="2.5" ry="2.5" style="stroke:#181818;stroke-width:0.5;" width="137.2568" x="22.37" y="847.5569"/><text fill="#000000" font-family="sans-serif" font-size="14" lengthAdjust="spacing" textLength="117.2568" x="32.37" y="870.552">Google Maps API</text></g><!--entity users--><g class="entity" data-qualified-name="users" data-source-line="14" id="ent0002"><ellipse cx="1299.9955" cy="51.2969" fill="#F1F1F1" rx="8" ry="8" style="stroke:#181818;stroke-width:0.5;"/><path d="M1299.9955,59.2969 L1299.9955,86.2969 M1286.9955,67.2969 L1312.9955,67.2969 M1299.9955,86.2969 L1286.9955,101.2969 M1299.9955,86.2969 L1312.9955,101.2969" fill="none" style="stroke:#181818;stroke-width:0.5;"/><text fill="#000000" font-family="sans-serif" font-size="14" lengthAdjust="spacing" textLength="89.5781" x="1255.2065" y="115.792">Mobile Users</text><text fill="#000000" font-family="sans-serif" font-size="14" lengthAdjust="spacing" textLength="93.8711" x="1253.06" y="132.0889">(iOS/Android)</text></g><!--entity dns--><g class="entity" data-qualified-name="dns" data-source-line="15" id="ent0003"><path d="M1262.423,222.0285 C1266.1833,215.2495 1270.1497,214.2221 1275.7899,220.0324 C1278.9075,214.3096 1284.2095,215.0823 1287.1608,220.2066 C1289.981,212.8903 1296.1007,212.683 1300.2832,218.8841 C1306.1247,212.1059 1310.5789,214.7799 1314.0856,221.3063 C1318.2812,213.3053 1322.6454,213.4505 1328.0239,220.1875 C1331.3393,214.9537 1336.2336,215.2553 1339.049,220.7035 C1345.8694,223.056 1348.2646,228.9967 1341.8635,234.1224 C1346.9609,235.4764 1349.4562,239.0851 1345.4245,243.7987 C1350.8968,249.8636 1349.3638,255.0091 1341.6027,257.3386 C1346.5236,260.5272 1345.5152,265.5767 1340.4745,267.6785 C1337.8847,276.0092 1330.5963,275.3293 1325.9566,269.8305 C1323.5176,277.3486 1318.4847,278.0293 1313.3464,272.4242 C1310.6304,280.558 1306.6294,281.4122 1300.2917,275.8853 C1295.6188,279.6244 1291.3319,278.1625 1289.2278,272.7723 C1284.347,278.4131 1278.2907,277.1242 1275.3764,270.5435 C1269.7942,275.9147 1265.163,275.1986 1262.8716,267.4153 C1258.6818,264.3432 1257.2456,261.0727 1262.2738,257.4478 C1255.5054,254.1121 1255.3016,250.0644 1261.0476,245.4497 C1254.6096,240.6714 1255.2692,236.3592 1262.1076,232.6833 C1256.6628,229.2884 1257.589,225.1191 1262.423,222.0285" fill="#F1F1F1" style="stroke:#181818;stroke-width:0.5;"/><text fill="#000000" font-family="sans-serif" font-size="14" lengthAdjust="spacing" textLength="63.5332" x="1268.23" y="240.382">Route 53</text><text fill="#000000" font-family="sans-serif" font-size="14" lengthAdjust="spacing" textLength="30.1396" x="1284.9268" y="256.6789">DNS</text></g><!--entity cdn--><g class="entity" data-qualified-name="cdn" data-source-line="16" id="ent0004"><path d="M1221.9704,344.4726 C1226.5494,338.5049 1230.6316,338.8526 1234.2238,345.436 C1237.091,340.0444 1241.769,338.5811 1245.5415,344.5328 C1248.2174,338.8332 1253.4569,338.6037 1256.5261,344.1484 C1258.6248,338.9553 1263.4193,339.0049 1266.5738,342.993 C1271.1317,338.5533 1275.8608,337.6608 1278.6969,344.7963 C1281.6108,338.4294 1287.051,338.0402 1290.5677,344.2263 C1292.4421,338.4208 1297.2524,338.091 1300.6797,342.7216 C1304.0535,336.9242 1308.1838,338.1168 1311.4175,342.8642 C1315.4386,337.272 1321.8881,336.771 1324.6233,344.1712 C1327.4525,339.1552 1332.2827,339.4956 1335.1349,344.1461 C1339.1324,338.6746 1343.7769,338.742 1346.7977,345.1084 C1350.2601,339.555 1353.727,340.4055 1357.0751,345.2217 C1360.8119,339.3653 1365.3291,338.6164 1369.8136,344.4038 C1373.28,339.6076 1377.8271,340.8649 1379.6961,345.9942 C1385.5818,347.4972 1387.4518,352.3683 1382.5628,356.7446 C1388.7293,359.311 1388.8097,364.9728 1383.1741,368.1706 C1388.0483,372.4807 1387.5448,377.3417 1382.0297,380.703 C1387.2194,384.8236 1386.3651,389.4207 1380.7812,392.3903 C1377.7892,396.9239 1372.4118,397.2872 1370.0641,391.7076 C1366.793,398.9946 1362.4088,398.7686 1357.3626,393.504 C1353.6206,398.7719 1350.1227,398.4936 1346.2663,393.6292 C1342.8474,398.149 1339.0554,397.7492 1336.0978,393.1167 C1332.2885,398.7895 1328.6188,398.9844 1324.4599,393.4807 C1320.9831,400.16 1316.5674,399.9716 1312.5198,394.0203 C1309.0544,399.173 1304.6771,400.5515 1300.9114,394.3267 C1297.2841,400.5385 1293.2467,399.8717 1289.2853,394.667 C1286.5694,400.0307 1281.1431,401.0888 1278.0642,395.0233 C1274.4926,399.8883 1269.5658,400.5458 1266.8325,394.1846 C1262.6435,398.0216 1259.1617,398.9989 1256.285,392.8048 C1252.9417,399.0506 1247.382,399.3654 1244.11,392.7374 C1240.6679,396.703 1236.299,395.7691 1234.1345,391.2376 C1230.3033,397.7502 1226.3403,396.4562 1222.2952,391.4576 C1215.9268,389.4184 1214.1992,384.6538 1218.2844,379.1954 C1211.2771,377.2931 1210.5583,373.53 1214.7107,368.0496 C1210.4407,363.6144 1212.654,359.1289 1218.0263,357.8185 C1213.336,352.3036 1214.0495,346.2605 1221.9704,344.4726" fill="#F1F1F1" style="stroke:#181818;stroke-width:0.5;"/><text fill="#000000" font-family="sans-serif" font-size="14" lengthAdjust="spacing" textLength="112.2051" x="1243.8962" y="363.972">CloudFront CDN</text><text fill="#000000" font-family="sans-serif" font-size="14" lengthAdjust="spacing" textLength="144.4775" x="1227.76" y="380.2689">Cache static content</text></g><!--entity auth--><g class="entity" data-qualified-name="auth" data-source-line="44" id="ent0022"><rect fill="#DD344C" height="52.5938" rx="2.5" ry="2.5" style="stroke:#181818;stroke-width:0.5;" width="130.9678" x="53.52" y="674.1669"/><text fill="#000000" font-family="sans-serif" font-size="14" lengthAdjust="spacing" textLength="90.8018" x="73.603" y="697.162">AWS Cognito</text><text fill="#000000" font-family="sans-serif" font-size="14" lengthAdjust="spacing" textLength="110.9678" x="63.52" y="713.4589">OAuth 2.0/OIDC</text></g><!--entity slack--><g class="entity" data-qualified-name="slack" data-source-line="56" id="ent0029"><rect fill="#611F69" height="36.2969" rx="2.5" ry="2.5" style="stroke:#181818;stroke-width:0.5;" width="102.2295" x="275.89" y="1139.4469"/><text fill="#000000" font-family="sans-serif" font-size="14" lengthAdjust="spacing" textLength="82.2295" x="285.89" y="1162.442">Slack Alerts</text></g><!--link users to dns--><g class="link" data-entity-1="ent0002" data-entity-2="ent0003" data-link-type="dependency" data-source-line="58" id="lnk30"><path d="M1300,135.8769 C1300,160.4569 1300,184.0969 1300,205.9069" fill="none" id="users-to-dns" style="stroke:#181818;stroke-width:1;"/><polygon fill="#181818" points="1300,211.9069,1304,202.9069,1300,206.9069,1296,202.9069,1300,211.9069" style="stroke:#181818;stroke-width:1;"/><text fill="#000000" font-family="sans-serif" font-size="13" lengthAdjust="spacing" textLength="94.123" x="1301" y="178.4538">HTTPS TLS 1.3</text></g><!--link dns to cdn--><g class="link" data-entity-1="ent0003" data-entity-2="ent0004" data-link-type="dependency" data-source-line="59" id="lnk31"><path d="M1300,275.3669 C1300,293.7969 1300,311.1769 1300,329.6069" fill="none" id="dns-to-cdn" style="stroke:#181818;stroke-width:1;"/><polygon fill="#181818" points="1300,335.6069,1304,326.6069,1300,330.6069,1296,326.6069,1300,335.6069" style="stroke:#181818;stroke-width:1;"/></g><!--link cdn to alb--><g class="link" data-entity-1="ent0004" data-entity-2="ent0006" data-link-type="dependency" data-source-line="60" id="lnk32"><path d="M1212.53,389.0969 C1099.55,415.9969 910.5768,460.9771 803.6068,486.4471" fill="none" id="cdn-to-alb" style="stroke:#181818;stroke-width:1;"/><polygon fill="#181818" points="797.77,487.8369,807.4518,489.6434,802.634,486.6787,805.5987,481.861,797.77,487.8369" style="stroke:#181818;stroke-width:1;"/></g><!--link alb to ecs1--><g class="link" data-entity-1="ent0006" data-entity-2="ent0009" data-link-type="dependency" data-source-line="61" id="lnk33"><path d="M722,533.3169 C722,569.9569 722,631.2169 722,667.9169" fill="none" id="alb-to-ecs1" style="stroke:#181818;stroke-width:1;"/><polygon fill="#181818" points="722,673.9169,726,664.9169,722,668.9169,718,664.9169,722,673.9169" style="stroke:#181818;stroke-width:1;"/><text fill="#000000" font-family="sans-serif" font-size="13" lengthAdjust="spacing" textLength="98.9282" x="723" y="576.2338">Route requests</text></g><!--link alb to auth--><g class="link" data-entity-1="ent0006" data-entity-2="ent0022" data-link-type="dependency" data-source-line="62" id="lnk34"><path d="M646.23,520.8669 C574.35,534.2069 463.85,557.3569 371,588.1669 C299.05,612.0469 224.9813,646.3633 174.8913,671.0633" fill="none" id="alb-to-auth" style="stroke:#181818;stroke-width:1;"/><polygon fill="#181818" points="169.51,673.7169,179.351,673.324,173.9944,671.5056,175.8129,666.149,169.51,673.7169" style="stroke:#181818;stroke-width:1;"/><text fill="#000000" font-family="sans-serif" font-size="13" lengthAdjust="spacing" textLength="92.7646" x="447" y="576.2338">JWT validation</text></g><!--link ecs1 to s3p--><g class="link" data-entity-1="ent0009" data-entity-2="ent0018" data-link-type="dependency" data-source-line="64" id="lnk35"><path d="M751.61,727.0469 C772.24,743.4969 801.15,763.9469 830,775.7669 C984.17,838.8869 1176.8793,856.9231 1272.1793,862.2331" fill="none" id="ecs1-to-s3p" style="stroke:#181818;stroke-width:1;"/><polygon fill="#181818" points="1278.17,862.5669,1269.4065,858.0724,1273.1777,862.2887,1268.9614,866.06,1278.17,862.5669" style="stroke:#181818;stroke-width:1;"/><text fill="#000000" font-family="sans-serif" font-size="13" lengthAdjust="spacing" textLength="87.1787" x="831" y="771.8338">Upload photo</text></g><!--link s3p to sqs--><g class="link" data-entity-1="ent0018" data-entity-2="ent0013" data-link-type="dependency" data-source-line="65" id="lnk36"><path d="M1278.21,861.7869 C1164.5,854.8069 898.47,833.2469 683,775.7669 C624.52,760.1569 565.0904,733.3713 530.4704,716.6113" fill="none" id="s3p-to-sqs" style="stroke:#181818;stroke-width:1;"/><polygon fill="#181818" points="525.07,713.9969,531.4277,721.5188,529.5704,716.1756,534.9136,714.3182,525.07,713.9969" style="stroke:#181818;stroke-width:1;"/><text fill="#000000" font-family="sans-serif" font-size="13" lengthAdjust="spacing" textLength="105.7139" x="684" y="771.8338">S3 event trigger</text></g><!--link sqs to ar--><g class="link" data-entity-1="ent0013" data-entity-2="ent0014" data-link-type="dependency" data-source-line="66" id="lnk37"><path d="M499.46,714.0069 C498.32,740.6569 495.8879,797.4124 494.3579,832.9724" fill="none" id="sqs-to-ar" style="stroke:#181818;stroke-width:1;"/><polygon fill="#181818" points="494.1,838.9669,498.4832,830.1471,494.3149,833.9715,490.4906,829.8032,494.1,838.9669" style="stroke:#181818;stroke-width:1;"/><text fill="#000000" font-family="sans-serif" font-size="13" lengthAdjust="spacing" textLength="91.7808" x="498" y="771.8338">Process async</text></g><!--link ar to gv--><g class="link" data-entity-1="ent0014" data-entity-2="ent0024" data-link-type="dependency" data-source-line="67" id="lnk38"><path d="M599.92,877.6669 C748.39,892.7069 1025.45,920.1369 1262,940.0069 C1414.75,952.8369 1452.85,958.3269 1606,965.0069 C1636.42,966.3269 2124.54,965.3069 2154,973.0069 C2186.23,981.4269 2214.3459,997.7016 2235.9159,1012.2516" fill="none" id="ar-to-gv" style="stroke:#181818;stroke-width:1;"/><polygon fill="#181818" points="2240.89,1015.6069,2235.6657,1007.2578,2236.7449,1012.8108,2231.1919,1013.89,2240.89,1015.6069" style="stroke:#181818;stroke-width:1;"/><text fill="#000000" font-family="sans-serif" font-size="13" lengthAdjust="spacing" textLength="127.4609" x="1607" y="961.0738">1. Landmark detect</text></g><!--link ar to openai--><g class="link" data-entity-1="ent0014" data-entity-2="ent0025" data-link-type="dependency" data-source-line="68" id="lnk39"><path d="M599.79,879.5469 C748.11,896.7769 1024.99,926.7469 1262,940.0069 C1473.7,951.8469 1527.06,941.9169 1739,948.0069 C1756.09,948.4969 2337.88,967.3069 2354,973.0069 C2378.94,981.8169 2398.2774,997.0376 2413.5174,1011.4276" fill="none" id="ar-to-openai" style="stroke:#181818;stroke-width:1;"/><polygon fill="#181818" points="2417.88,1015.5469,2414.0823,1006.4596,2414.2445,1012.1142,2408.59,1012.2764,2417.88,1015.5469" style="stroke:#181818;stroke-width:1;"/><text fill="#000000" font-family="sans-serif" font-size="13" lengthAdjust="spacing" textLength="120.98" x="2202" y="961.0738">2. Rich description</text></g><!--link ar to gemini--><g class="link" data-entity-1="ent0014" data-entity-2="ent0026" data-link-type="dependency" data-source-line="69" id="lnk40"><path d="M599.77,879.8669 C748.07,897.4569 1024.93,927.8469 1262,940.0069 C1499.25,952.1769 2094.03,931.1769 2331,948.0069 C2413.76,953.8869 2436.89,947.9869 2516,973.0069 C2548.23,983.1969 2577.113,998.7802 2599.913,1012.6402" fill="none" id="ar-to-gemini" style="stroke:#181818;stroke-width:1;"/><polygon fill="#181818" points="2605.04,1015.7569,2599.4273,1007.6638,2600.7675,1013.1596,2595.2717,1014.4999,2605.04,1015.7569" style="stroke:#181818;stroke-width:1;"/><text fill="#000000" font-family="sans-serif" font-size="13" lengthAdjust="spacing" textLength="70.0972" x="2486" y="961.0738">3. Fallback</text></g><!--link ecs1 to db--><g class="link" data-entity-1="ent0009" data-entity-2="ent0016" data-link-type="dependency" data-source-line="71" id="lnk41"><path d="M757.49,727.2169 C771.86,736.2869 789.04,745.5269 806,750.7669 C830.9,758.4469 897.06,756.3069 923,758.7669 C985.4,764.6769 1000.48,771.2469 1063,775.7669 C1082.07,777.1369 1389.1,777.0369 1407,783.7669 C1430.82,792.7069 1448.6422,806.0112 1465.7422,822.4312" fill="none" id="ecs1-to-db" style="stroke:#181818;stroke-width:1;"/><polygon fill="#181818" points="1470.07,826.5869,1466.3488,817.4681,1466.4635,823.1238,1460.8078,823.2385,1470.07,826.5869" style="stroke:#181818;stroke-width:1;"/><text fill="#000000" font-family="sans-serif" font-size="13" lengthAdjust="spacing" textLength="116.1558" x="1064" y="771.8338">ACID transactions</text></g><!--link ecs1 to cache--><g class="link" data-entity-1="ent0009" data-entity-2="ent0017" data-link-type="dependency" data-source-line="72" id="lnk42"><path d="M756.53,727.1769 C771.04,736.4769 788.58,745.8869 806,750.7669 C865.18,767.3069 1298.93,745.7869 1359,758.7669 C1377.48,762.7569 1379.57,771.5369 1398,775.7669 C1442.01,785.8469 1558.87,767.5469 1601,783.7669 C1628.63,794.3969 1649.9103,812.0319 1667.8103,830.3819" fill="none" id="ecs1-to-cache" style="stroke:#181818;stroke-width:1;"/><polygon fill="#181818" points="1672,834.6769,1668.5788,825.4413,1668.5086,831.0977,1662.8522,831.0275,1672,834.6769" style="stroke:#181818;stroke-width:1;"/><text fill="#000000" font-family="sans-serif" font-size="13" lengthAdjust="spacing" textLength="56.2402" x="1399" y="771.8338">Hot data</text></g><!--link ecs2 to db--><g class="link" data-entity-1="ent0010" data-entity-2="ent0016" data-link-type="dependency" data-source-line="73" id="lnk43"><path d="M1147.71,727.1669 C1166.75,744.3669 1194.26,765.6369 1223,775.7669 C1261.6,789.3669 1368.83,768.9869 1407,783.7669 C1430.52,792.8669 1448.1467,805.9874 1465.1967,822.2374" fill="none" id="ecs2-to-db" style="stroke:#181818;stroke-width:1;"/><polygon fill="#181818" points="1469.54,826.3769,1465.7847,817.2721,1465.9206,822.9273,1460.2654,823.0631,1469.54,826.3769" style="stroke:#181818;stroke-width:1;"/><text fill="#000000" font-family="sans-serif" font-size="13" lengthAdjust="spacing" textLength="130.5078" x="1224" y="771.8338">PostGIS geo queries</text></g><!--link ecs2 to cache--><g class="link" data-entity-1="ent0010" data-entity-2="ent0017" data-link-type="dependency" data-source-line="74" id="lnk44"><path d="M1198.56,713.3769 C1267.98,724.3869 1373.04,741.6069 1464,758.7669 C1500.15,765.5769 1508.77,769.3769 1545,775.7669 C1569.76,780.1269 1578.03,773.5369 1601,783.7669 C1627.45,795.5369 1648.1378,812.474 1666.1178,830.204" fill="none" id="ecs2-to-cache" style="stroke:#181818;stroke-width:1;"/><polygon fill="#181818" points="1670.39,834.4169,1666.7902,825.2495,1666.8298,830.9062,1661.1731,830.9458,1670.39,834.4169" style="stroke:#181818;stroke-width:1;"/><text fill="#000000" font-family="sans-serif" font-size="13" lengthAdjust="spacing" textLength="142.1494" x="1546" y="771.8338">Cache popular results</text></g><!--link ecs3 to email--><g class="link" data-entity-1="ent0011" data-entity-2="ent0021" data-link-type="dependency" data-source-line="75" id="lnk45"><path d="M963.63,727.2369 C982.95,736.5469 1005.96,745.9469 1028,750.7669 C1064.31,758.6869 1659.88,756.7869 1697,758.7669 C1814.69,765.0269 1852.1,738.6969 1961,783.7669 C1990.57,795.9969 2013.8949,816.0474 2032.1949,834.8474" fill="none" id="ecs3-to-email" style="stroke:#181818;stroke-width:1;"/><polygon fill="#181818" points="2036.38,839.1469,2032.9687,829.9077,2032.8924,835.564,2027.2361,835.4878,2036.38,839.1469" style="stroke:#181818;stroke-width:1;"/><text fill="#000000" font-family="sans-serif" font-size="13" lengthAdjust="spacing" textLength="81.3643" x="1937" y="771.8338">Notifications</text></g><!--link ecs3 to maps--><g class="link" data-entity-1="ent0011" data-entity-2="ent0028" data-link-type="dependency" data-source-line="76" id="lnk46"><path d="M870.36,727.1869 C851.04,736.4969 828.03,745.9069 806,750.7669 C752.61,762.5369 368.31,752.4269 314,758.7669 C262.48,764.7669 247.21,762.2669 200,783.7669 C164.82,799.7869 134.4268,824.4687 113.9268,843.0387" fill="none" id="ecs3-to-maps" style="stroke:#181818;stroke-width:1;"/><polygon fill="#181818" points="109.48,847.0669,118.8356,843.9892,113.1857,843.7101,113.4648,838.0601,109.48,847.0669" style="stroke:#181818;stroke-width:1;"/><text fill="#000000" font-family="sans-serif" font-size="13" lengthAdjust="spacing" textLength="55.3198" x="315" y="771.8338">POI data</text></g><!--link ecs1 to cw--><g class="link" data-entity-1="ent0009" data-entity-2="ent0020" data-link-type="dependency" data-source-line="78" id="lnk47"><path d="M676.83,727.1369 C658.28,736.3769 636.2,745.7469 615,750.7669 C540.05,768.4869 317.47,723.1169 270,783.7669 C227.2,838.4469 251.17,873.1669 270,940.0069 C277.04,965.0069 289.2909,985.1113 302.4909,1002.8713" fill="none" id="ecs1-to-cw" style="stroke:#181818;stroke-width:1;"/><polygon fill="#181818" points="306.07,1007.6869,303.9117,998.0774,303.0874,1003.6739,297.4909,1002.8496,306.07,1007.6869" style="stroke:#181818;stroke-width:1;"/><text fill="#000000" font-family="sans-serif" font-size="13" lengthAdjust="spacing" textLength="99.7344" x="271" y="870.2738">Structured logs</text></g><!--link ar to cw--><g class="link" data-entity-1="ent0014" data-entity-2="ent0020" data-link-type="dependency" data-source-line="79" id="lnk48"><path d="M467.43,892.3469 C436.23,923.6269 388.0472,971.9388 356.8372,1003.2288" fill="none" id="ar-to-cw" style="stroke:#181818;stroke-width:1;"/><polygon fill="#181818" points="352.6,1007.4769,361.7879,1003.9296,356.131,1003.9368,356.1238,998.28,352.6,1007.4769" style="stroke:#181818;stroke-width:1;"/><text fill="#000000" font-family="sans-serif" font-size="13" lengthAdjust="spacing" textLength="94.9165" x="411" y="961.0738">Execution logs</text></g><!--link cw to slack--><g class="link" data-entity-1="ent0020" data-entity-2="ent0029" data-link-type="dependency" data-source-line="80" id="lnk49"><path d="M327,1060.9069 C327,1084.4469 327,1112.6069 327,1133.1069" fill="none" id="cw-to-slack" style="stroke:#181818;stroke-width:1;"/><polygon fill="#181818" points="327,1139.1069,331,1130.1069,327,1134.1069,323,1130.1069,327,1139.1069" style="stroke:#181818;stroke-width:1;"/><text fill="#000000" font-family="sans-serif" font-size="13" lengthAdjust="spacing" textLength="98.3887" x="328" y="1105.5138">Error rate &gt;5%</text></g><!--link cdn to s3s--><g class="link" data-entity-1="ent0004" data-entity-2="ent0019" data-link-type="dependency" data-source-line="81" id="lnk50"><path d="M1387.47,373.2769 C1534.63,382.5569 1818.82,404.5569 1850,437.5769 C1957.02,550.9369 1909.7949,759.5096 1888.6349,833.2496" fill="none" id="cdn-to-s3s" style="stroke:#181818;stroke-width:1;"/><polygon fill="#181818" points="1886.98,839.0169,1893.3072,831.4693,1888.3591,834.2108,1885.6176,829.2627,1886.98,839.0169" style="stroke:#181818;stroke-width:1;"/><text fill="#000000" font-family="sans-serif" font-size="13" lengthAdjust="spacing" textLength="81.5737" x="1913" y="576.2338">Cache origin</text></g><?plantuml-src XLRVR-8u47xFNp42tMbNMhf0AAKyh9I6XEC4XHBQll3Y9cwm6kpKTjf5f_xlDtP22DizdH0GvfTdvflvZ6Owex3CDHCSUcDOFAp0a_6EQHhhGbBuSX_1acU7huwZNXZFYIHxU2BnIof5mHDVP4B2kx5lw6EnpmMdN4VwWE4bnY8ypPec2NqcHQOtzAVsCfRoFLf3Z1zKDgngJ_Z70QXEb9nAw7MTZuPXZXcHj3Ix-IMxTZWAhqFFQ8HCgAoaao3e1qECuf1Oew2r44yCJxfNLAej_yAMqNUF9rAmv6iBY8B2A9mu4qK2hRKeD8LBTyidjv5L9xnM-kOhb09ByYUtM-wJU4T1QQ9PZCt18hcsFd727UTKPCjxZE0-wWHUjEdqO4rJXAKw6ylmpCkMM3SONV8yOp6n0CvljlolpMOL0RPnpxYLMd-IFK4xc5prkbq7_O_jQlaOo1Go9mSgMpPsGxiGIP4H2Gl1HSRqheKnHk5bS5qPdYKI-D7ODWyMwLvlkLVe7Vm9kHJFs5Pbqw2nwc4XuVKrvl7x22iYDQ-3t1IASQhKfp3z_mcpfYZ1eKfi3n3FAHNmMb39JZ7SinWVvxLxQrYmM0eiw8t5r9JkXlrmKfUEmGgqY-wgqrBEB0XtHcwFKAy6jN0GZcu-Ppad-wU4OBqxeKKpm9OlUIUXUy8JK37964zB2EMdT3_Ei9mGJOv08jR1LJYiaiKca2UYq6Obb4ubZUxci99iJ-HXo_KWlK2KK_eDjwexnHaoLjDPDTOuEExDOEJxluHQquGfA4VxqdX5Y9FfDOAEDLdBSiYjIJE8mdspAKTkMJ_YOoUdo3D1aX8WvURe58w6_S4dfwXS9Kyfgj4Nbmo4P2dZbQTgUDecDHflb_EHw7YtvNEHgc-mfrgo61z8HgKkJu_V6z0rlACWslAD95mXQs2r90E4YcNbJ9cdsWyFRkufhhPlCHQ8i5sE_aNt-t8syKjuZQGzcRY3WUyufp6SGLHEe3hVlaRegH26FHwOQJzugvaDcBv1Uz0VNOQ3S-jbJZb6dQusdS63jHGe8GpQtQutl0f-6tjAaKuOV0b9bXdsBnanBQN7OpuQURioiQjyQ9b-X6xG_O-i5oHNTSvxywCHhjdu34E3Tq98MK5xsEiz3wyTnx8pT3e_317364eUtCmZw5suZf4PdI5SVDjdv4J7yA9vjiI4UsnPNLBSRQLLhRNOZE7lnmsyuKAMdE8uridepQWYzzdXXTmCj6D4LlLgai6HfM-c31oqD3LNt6kP3ourKe0KiU4ueWuyTb1aD0ZV65F7XUO9xkaBtfZcJZwgAyp6E4ImPl4ErIgMp5xaTOWIdZ6u5t04hf4rRlOOF7ysmQpgULOdVRctsCbgcHrBkxLdHH9uIasi9ukZRqaFkSZjFIAfmZlVchbbs-t2ZE5MQFPStM8DjHq7F6avAnDevFPkkgfbOV-b993X8X_BjhhW9uqBoyTMXJABXfqPr4g9Dxua2FQFop_gYJ34SSovv9D_0G00?></g></svg>