<?plantuml 1.2026.1?><svg xmlns="http://www.w3.org/2000/svg" xmlns:xlink="http://www.w3.org/1999/xlink" contentStyleType="text/css" data-diagram-type="DESCRIPTION" height="581px" preserveAspectRatio="none" style="width:1152px;height:581px;background:#FFFFFF;" version="1.1" viewBox="0 0 1152 581" width="1152px" zoomAndPan="magnify"><title>Scaling Stage: 100k MAU &#8212; Maximum Monolith (~$8,500/mo)</title><defs/><g><g class="title" data-source-line="5"><text fill="#000000" font-family="sans-serif" font-size="14" font-weight="bold" lengthAdjust="spacing" textLength="485.1533" x="326.6233" y="22.9951">Scaling Stage: 100k MAU &#8212; Maximum Monolith (~$8,500/mo)</text></g><!--cluster ECS Fargate (6-8 tasks, auto-scaling)--><g class="cluster" data-qualified-name="ECS Fargate .6-8 tasks. auto-scaling." data-source-line="9" id="ent0003"><path d="M508.9,143.8869 L803.6129,143.8869 A3.75,3.75 0 0 1 806.1129,146.3869 L813.1129,166.1838 L1142.9,166.1838 A2.5,2.5 0 0 1 1145.4,168.6838 L1145.4,244.9869 A2.5,2.5 0 0 1 1142.9,247.4869 L508.9,247.4869 A2.5,2.5 0 0 1 506.4,244.9869 L506.4,146.3869 A2.5,2.5 0 0 1 508.9,143.8869" fill="#E8F5E9" style="stroke:#000000;stroke-width:1.5;"/><line style="stroke:#000000;stroke-width:1.5;" x1="506.4" x2="813.1129" y1="166.1838" y2="166.1838"/><text fill="#000000" font-family="sans-serif" font-size="14" font-weight="bold" lengthAdjust="spacing" textLength="293.7129" x="510.4" y="158.882">ECS Fargate (6-8 tasks, auto-scaling)</text></g><!--cluster Data--><g class="cluster" data-qualified-name="Data" data-source-line="18" id="ent0010"><path d="M467.9,296.4869 L506.108,296.4869 A3.75,3.75 0 0 1 508.608,298.9869 L515.608,318.7838 L1062.9,318.7838 A2.5,2.5 0 0 1 1065.4,321.2838 L1065.4,422.8769 A2.5,2.5 0 0 1 1062.9,425.3769 L467.9,425.3769 A2.5,2.5 0 0 1 465.4,422.8769 L465.4,298.9869 A2.5,2.5 0 0 1 467.9,296.4869" fill="#EDE7F6" style="stroke:#000000;stroke-width:1.5;"/><line style="stroke:#000000;stroke-width:1.5;" x1="465.4" x2="515.608" y1="318.7838" y2="318.7838"/><text fill="#000000" font-family="sans-serif" font-size="14" font-weight="bold" lengthAdjust="spacing" textLength="37.208" x="469.4" y="311.482">Data</text></g><!--entity t1--><g class="entity" data-qualified-name="ECS Fargate .6-8 tasks. auto-scaling..t1" data-source-line="10" id="ent0004"><rect fill="#FF9900" height="52.5938" rx="2.5" ry="2.5" style="stroke:#181818;stroke-width:0.5;" width="119.292" x="522.75" y="178.8869"/><text fill="#000000" font-family="sans-serif" font-size="14" lengthAdjust="spacing" textLength="45.8896" x="559.4512" y="201.882">Task 1</text><text fill="#000000" font-family="sans-serif" font-size="14" lengthAdjust="spacing" textLength="99.292" x="532.75" y="218.1789">(2 vCPU, 4GB)</text></g><!--entity t2--><g class="entity" data-qualified-name="ECS Fargate .6-8 tasks. auto-scaling..t2" data-source-line="11" id="ent0005"><rect fill="#FF9900" height="36.2969" rx="2.5" ry="2.5" style="stroke:#181818;stroke-width:0.5;" width="65.8896" x="677.45" y="187.0369"/><text fill="#000000" font-family="sans-serif" font-size="14" lengthAdjust="spacing" textLength="45.8896" x="687.45" y="210.032">Task 2</text></g><!--entity t3--><g class="entity" data-qualified-name="ECS Fargate .6-8 tasks. auto-scaling..t3" data-source-line="12" id="ent0006"><rect fill="#FF9900" height="36.2969" rx="2.5" ry="2.5" style="stroke:#181818;stroke-width:0.5;" width="65.8896" x="778.45" y="187.0369"/><text fill="#000000" font-family="sans-serif" font-size="14" lengthAdjust="spacing" textLength="45.8896" x="788.45" y="210.032">Task 3</text></g><!--entity t4--><g class="entity" data-qualified-name="ECS Fargate .6-8 tasks. auto-scaling..t4" data-source-line="13" id="ent0007"><rect fill="#FF9900" height="36.2969" rx="2.5" ry="2.5" style="stroke:#181818;stroke-width:0.5;" width="65.8896" x="879.45" y="187.0369"/><text fill="#000000" font-family="sans-serif" font-size="14" lengthAdjust="spacing" textLength="45.8896" x="889.45" y="210.032">Task 4</text></g><!--entity dots--><g class="entity" data-qualified-name="ECS Fargate .6-8 tasks. auto-scaling..dots" data-source-line="14" id="ent0008"><rect fill="#CCCCCC" height="36.2969" rx="2.5" ry="2.5" style="stroke:#181818;stroke-width:0.5;" width="33.3506" x="980.72" y="187.0369"/><text fill="#000000" font-family="sans-serif" font-size="14" lengthAdjust="spacing" textLength="13.3506" x="990.72" y="210.032">...</text></g><!--entity tn--><g class="entity" data-qualified-name="ECS Fargate .6-8 tasks. auto-scaling..tn" data-source-line="15" id="ent0009"><rect fill="#FF9900" height="36.2969" rx="2.5" ry="2.5" style="stroke:#181818;stroke-width:0.5;" width="79.8486" x="1049.47" y="187.0369"/><text fill="#000000" font-family="sans-serif" font-size="14" lengthAdjust="spacing" textLength="59.8486" x="1059.47" y="210.032">Task 6-8</text></g><!--entity db--><g class="entity" data-qualified-name="Data.db" data-source-line="19" id="ent0011"><path d="M641.02,341.4869 C641.02,331.4869 691.3965,331.4869 691.3965,331.4869 C691.3965,331.4869 741.7729,331.4869 741.7729,341.4869 L741.7729,399.3775 C741.7729,409.3775 691.3965,409.3775 691.3965,409.3775 C691.3965,409.3775 641.02,409.3775 641.02,399.3775 L641.02,341.4869" fill="#3B48CC" style="stroke:#181818;stroke-width:0.5;"/><path d="M641.02,341.4869 C641.02,351.4869 691.3965,351.4869 691.3965,351.4869 C691.3965,351.4869 741.7729,351.4869 741.7729,341.4869" fill="none" style="stroke:#181818;stroke-width:0.5;"/><text fill="#000000" font-family="sans-serif" font-size="14" lengthAdjust="spacing" textLength="80.7529" x="651.02" y="368.482">PostgreSQL</text><text fill="#000000" font-family="sans-serif" font-size="14" lengthAdjust="spacing" textLength="72.0098" x="655.3916" y="384.7789">r6g.xlarge</text><text fill="#000000" font-family="sans-serif" font-size="14" lengthAdjust="spacing" textLength="54.3457" x="664.2236" y="401.0757">Primary</text></g><!--entity r1--><g class="entity" data-qualified-name="Data.r1" data-source-line="20" id="ent0012"><path d="M480.95,357.7769 C480.95,347.7769 543.3987,347.7769 543.3987,347.7769 C543.3987,347.7769 605.8475,347.7769 605.8475,357.7769 L605.8475,383.0738 C605.8475,393.0738 543.3987,393.0738 543.3987,393.0738 C543.3987,393.0738 480.95,393.0738 480.95,383.0738 L480.95,357.7769" fill="#3B48CC" style="stroke:#181818;stroke-width:0.5;"/><path d="M480.95,357.7769 C480.95,367.7769 543.3987,367.7769 543.3987,367.7769 C543.3987,367.7769 605.8475,367.7769 605.8475,357.7769" fill="none" style="stroke:#181818;stroke-width:0.5;"/><text fill="#000000" font-family="sans-serif" font-size="14" lengthAdjust="spacing" textLength="104.8975" x="490.95" y="384.772">Read Replica 1</text></g><!--entity r2--><g class="entity" data-qualified-name="Data.r2" data-source-line="21" id="ent0013"><path d="M924.95,357.7769 C924.95,347.7769 987.3987,347.7769 987.3987,347.7769 C987.3987,347.7769 1049.8475,347.7769 1049.8475,357.7769 L1049.8475,383.0738 C1049.8475,393.0738 987.3987,393.0738 987.3987,393.0738 C987.3987,393.0738 924.95,393.0738 924.95,383.0738 L924.95,357.7769" fill="#3B48CC" style="stroke:#181818;stroke-width:0.5;"/><path d="M924.95,357.7769 C924.95,367.7769 987.3987,367.7769 987.3987,367.7769 C987.3987,367.7769 1049.8475,367.7769 1049.8475,357.7769" fill="none" style="stroke:#181818;stroke-width:0.5;"/><text fill="#000000" font-family="sans-serif" font-size="14" lengthAdjust="spacing" textLength="104.8975" x="934.95" y="384.772">Read Replica 2</text></g><!--entity cache--><g class="entity" data-qualified-name="Data.cache" data-source-line="22" id="ent0014"><path d="M776.47,341.4869 C776.47,331.4869 833.3919,331.4869 833.3919,331.4869 C833.3919,331.4869 890.3138,331.4869 890.3138,341.4869 L890.3138,399.3775 C890.3138,409.3775 833.3919,409.3775 833.3919,409.3775 C833.3919,409.3775 776.47,409.3775 776.47,399.3775 L776.47,341.4869" fill="#3B48CC" style="stroke:#181818;stroke-width:0.5;"/><path d="M776.47,341.4869 C776.47,351.4869 833.3919,351.4869 833.3919,351.4869 C833.3919,351.4869 890.3138,351.4869 890.3138,341.4869" fill="none" style="stroke:#181818;stroke-width:0.5;"/><text fill="#000000" font-family="sans-serif" font-size="14" lengthAdjust="spacing" textLength="92.5518" x="787.116" y="368.482">Redis Cluster</text><text fill="#000000" font-family="sans-serif" font-size="14" lengthAdjust="spacing" textLength="29.3604" x="818.7117" y="384.7789">5GB</text><text fill="#000000" font-family="sans-serif" font-size="14" lengthAdjust="spacing" textLength="93.8438" x="786.47" y="401.0757">Cluster mode</text></g><!--entity alb--><g class="entity" data-qualified-name="alb" data-source-line="7" id="ent0002"><rect fill="#ED7100" height="52.5938" rx="2.5" ry="2.5" style="stroke:#181818;stroke-width:0.5;" width="112.9004" x="804.95" y="44.2969"/><text fill="#000000" font-family="sans-serif" font-size="14" lengthAdjust="spacing" textLength="26.9814" x="847.9095" y="67.292">ALB</text><text fill="#000000" font-family="sans-serif" font-size="14" lengthAdjust="spacing" textLength="92.9004" x="814.95" y="83.5889">(round-robin)</text></g><!--entity sqs--><g class="entity" data-qualified-name="sqs" data-source-line="25" id="ent0015"><path d="M11,357.2769 L49.793,357.2769 C54.793,357.2769 54.793,370.4253 54.793,370.4253 C54.793,370.4253 54.793,383.5738 49.793,383.5738 L11,383.5738 C6,383.5738 6,370.4253 6,370.4253 C6,370.4253 6,357.2769 11,357.2769" fill="#FF4F8B" style="stroke:#181818;stroke-width:0.5;"/><path d="M49.793,357.2769 C44.793,357.2769 44.793,370.4253 44.793,370.4253 C44.793,383.5738 49.793,383.5738 49.793,383.5738" fill="none" style="stroke:#181818;stroke-width:0.5;"/><text fill="#000000" font-family="sans-serif" font-size="14" lengthAdjust="spacing" textLength="28.793" x="11" y="375.272">SQS</text></g><!--entity lambda--><g class="entity" data-qualified-name="lambda" data-source-line="26" id="ent0016"><rect fill="#FF9900" height="68.8906" rx="2.5" ry="2.5" style="stroke:#181818;stroke-width:0.5;" width="175.8662" x="19.46" y="496.7569"/><text fill="#000000" font-family="sans-serif" font-size="14" lengthAdjust="spacing" textLength="85.4492" x="64.6685" y="519.752">Lambda (AI)</text><text fill="#000000" font-family="sans-serif" font-size="14" lengthAdjust="spacing" textLength="128.5361" x="43.125" y="536.0489">+ cheaper models</text><text fill="#000000" font-family="sans-serif" font-size="14" lengthAdjust="spacing" textLength="155.8662" x="29.46" y="552.3457">for top 500 landmarks</text></g><!--entity edge--><g class="entity" data-qualified-name="edge" data-source-line="27" id="ent0017"><rect fill="#FF9900" height="52.5938" rx="2.5" ry="2.5" style="stroke:#181818;stroke-width:0.5;" width="125.6016" x="89.6" y="344.1269"/><text fill="#000000" font-family="sans-serif" font-size="14" lengthAdjust="spacing" textLength="105.6016" x="99.6" y="367.122">Lambda@Edge</text><text fill="#000000" font-family="sans-serif" font-size="14" lengthAdjust="spacing" textLength="98.9365" x="102.9325" y="383.4189">Photo resizing</text></g><g class="entity" data-qualified-name="GMN31" data-source-line="46" id="ent0032"><path d="M250.5,335.1569 L250.5,405.6881 L446.2891,405.6881 L446.2891,345.1569 L436.2891,335.1569 L250.5,335.1569" fill="#FEFFDD" style="stroke:#181818;stroke-width:0.5;"/><path d="M436.2891,335.1569 L436.2891,345.1569 L446.2891,345.1569 L436.2891,335.1569" fill="#FEFFDD" style="stroke:#181818;stroke-width:1;"/><text fill="#000000" font-family="sans-serif" font-size="13" lengthAdjust="spacing" textLength="156.0063" x="265.8914" y="352.2238">ECS auto-scaling policy:</text><text fill="#000000" font-family="sans-serif" font-size="13" lengthAdjust="spacing" textLength="149.6079" x="269.0906" y="367.3566">CPU &gt; 70% &#8594; add task</text><text fill="#000000" font-family="sans-serif" font-size="13" lengthAdjust="spacing" textLength="174.7891" x="256.5" y="382.4894">CPU &lt; 30% &#8594; remove task</text><text fill="#000000" font-family="sans-serif" font-size="13" lengthAdjust="spacing" textLength="168.3145" x="259.7373" y="397.6222">Min: 4 tasks, Max: 8 tasks</text></g><g class="entity" data-qualified-name="GMN34" data-source-line="53" id="ent0035"><path d="M895.54,495.9369 L895.54,566.4681 A0,0 0 0 0 895.54,566.4681 L1079.2495,566.4681 A0,0 0 0 0 1079.2495,566.4681 L1079.2495,505.9369 L1069.2495,495.9369 L991.4,495.9369 L987.4,393.5069 L983.4,495.9369 L895.54,495.9369 A0,0 0 0 0 895.54,495.9369" fill="#FEFFDD" style="stroke:#181818;stroke-width:0.5;"/><path d="M1069.2495,495.9369 L1069.2495,505.9369 L1079.2495,505.9369 L1069.2495,495.9369" fill="#FEFFDD" style="stroke:#181818;stroke-width:0.5;"/><text fill="#000000" font-family="sans-serif" font-size="13" lengthAdjust="spacing" textLength="162.7095" x="901.54" y="513.0038">2 read replicas separate:</text><text fill="#000000" font-family="sans-serif" font-size="13" lengthAdjust="spacing" textLength="161.5796" x="902.1049" y="528.1366">- Search &amp; browse traffic</text><text fill="#000000" font-family="sans-serif" font-size="13" lengthAdjust="spacing" textLength="146.3516" x="909.719" y="543.2694">- Analytics &amp; reporting</text><text fill="#000000" font-family="sans-serif" font-size="13" lengthAdjust="spacing" textLength="161.3701" x="902.2097" y="558.4022">PgBouncer on each task.</text></g><g class="entity" data-qualified-name="GMN37" data-source-line="60" id="ent0038"><path d="M230.26,488.3769 L230.26,527.2069 L195.5,531.2069 L230.26,535.2069 L230.26,574.0409 A0,0 0 0 0 230.26,574.0409 L488.5354,574.0409 A0,0 0 0 0 488.5354,574.0409 L488.5354,498.3769 L478.5354,488.3769 L230.26,488.3769 A0,0 0 0 0 230.26,488.3769" fill="#FEFFDD" style="stroke:#181818;stroke-width:0.5;"/><path d="M478.5354,488.3769 L478.5354,498.3769 L488.5354,498.3769 L478.5354,488.3769" fill="#FEFFDD" style="stroke:#181818;stroke-width:0.5;"/><text fill="#000000" font-family="sans-serif" font-size="13" lengthAdjust="spacing" textLength="133.2246" x="288.2854" y="505.4438">AI cost optimization:</text><text fill="#000000" font-family="sans-serif" font-size="13" lengthAdjust="spacing" textLength="237.2754" x="236.26" y="520.5766">- GPT-4o-mini for top 500 landmarks</text><text fill="#000000" font-family="sans-serif" font-size="13" lengthAdjust="spacing" textLength="180.1465" x="264.8245" y="535.7094">- GPT-4V for unknowns only</text><text fill="#000000" font-family="sans-serif" font-size="13" lengthAdjust="spacing" textLength="158.793" x="275.5012" y="550.8422">- Perceptual hash dedup</text><text fill="#000000" font-family="sans-serif" font-size="13" lengthAdjust="spacing" textLength="187.7446" x="261.0254" y="565.975">- Result cache hit rate ~70%</text></g><!--link alb to t1--><g class="link" data-entity-1="ent0002" data-entity-2="ent0004" data-link-type="dependency" data-source-line="29" id="lnk18"><path d="M804.7,83.1569 C762.98,93.1869 705.85,110.1969 660.4,135.8869 C640.34,147.2269 625.1194,160.0913 610.6294,174.3313" fill="none" id="alb-to-t1" style="stroke:#181818;stroke-width:1;"/><polygon fill="#181818" points="606.35,178.5369,615.5728,175.0815,609.9162,175.0322,609.9654,169.3756,606.35,178.5369" style="stroke:#181818;stroke-width:1;"/></g><!--link alb to t2--><g class="link" data-entity-1="ent0002" data-entity-2="ent0005" data-link-type="dependency" data-source-line="30" id="lnk19"><path d="M813.85,97.3469 C796.36,108.0269 777.02,121.3169 761.4,135.8869 C745.16,151.0269 733.6771,166.815 724.2771,181.485" fill="none" id="alb-to-t2" style="stroke:#181818;stroke-width:1;"/><polygon fill="#181818" points="721.04,186.5369,729.2635,181.1171,723.7375,182.327,722.5277,176.801,721.04,186.5369" style="stroke:#181818;stroke-width:1;"/></g><!--link alb to t3--><g class="link" data-entity-1="ent0002" data-entity-2="ent0006" data-link-type="dependency" data-source-line="31" id="lnk20"><path d="M851.76,97.1569 C841.82,123.4969 828.7267,158.2226 820.0967,181.1126" fill="none" id="alb-to-t3" style="stroke:#181818;stroke-width:1;"/><polygon fill="#181818" points="817.98,186.7269,824.8978,179.7166,819.7439,182.0483,817.4122,176.8944,817.98,186.7269" style="stroke:#181818;stroke-width:1;"/></g><!--link alb to t4--><g class="link" data-entity-1="ent0002" data-entity-2="ent0007" data-link-type="dependency" data-source-line="32" id="lnk21"><path d="M871.23,97.1569 C881.36,123.4969 894.7269,158.2365 903.5269,181.1265" fill="none" id="alb-to-t4" style="stroke:#181818;stroke-width:1;"/><polygon fill="#181818" points="905.68,186.7269,906.184,176.8909,903.8858,182.0599,898.7168,179.7617,905.68,186.7269" style="stroke:#181818;stroke-width:1;"/></g><!--link alb to dots--><g class="link" data-entity-1="ent0002" data-entity-2="ent0008" data-link-type="dependency" data-source-line="33" id="lnk22"><path d="M913.13,97.3069 C930.3,107.6069 948.54,120.6769 962.4,135.8869 C975.94,150.7669 983.5303,166.249 989.2403,181.049" fill="none" id="alb-to-dots" style="stroke:#181818;stroke-width:1;"/><polygon fill="#181818" points="991.4,186.6469,991.8923,176.8103,989.6002,181.982,984.4286,179.6899,991.4,186.6469" style="stroke:#181818;stroke-width:1;"/></g><!--link alb to tn--><g class="link" data-entity-1="ent0002" data-entity-2="ent0009" data-link-type="dependency" data-source-line="34" id="lnk23"><path d="M918.06,85.2269 C952.89,95.4169 997.23,111.7969 1031.4,135.8869 C1050.85,149.6069 1064.3777,166.3679 1074.8377,181.6279" fill="none" id="alb-to-tn" style="stroke:#181818;stroke-width:1;"/><polygon fill="#181818" points="1078.23,186.5769,1076.4409,176.8919,1075.4031,182.4527,1069.8422,181.4149,1078.23,186.5769" style="stroke:#181818;stroke-width:1;"/></g><!--link t1 to db--><g class="link" data-entity-1="ent0004" data-entity-2="ent0011" data-link-type="dependency" data-source-line="36" id="lnk24"><path d="M594.9,231.8869 C602.33,246.4769 612.25,264.8869 622.4,280.4869 C633.59,297.6869 643.4764,311.04 655.6464,326.35" fill="none" id="t1-to-db" style="stroke:#181818;stroke-width:1;"/><polygon fill="#181818" points="659.38,331.0469,656.9109,321.5125,656.2687,327.1328,650.6484,326.4906,659.38,331.0469" style="stroke:#181818;stroke-width:1;"/><text fill="#000000" font-family="sans-serif" font-size="13" lengthAdjust="spacing" textLength="41.6787" x="623.4" y="276.5538">Writes</text></g><!--link t1 to r1--><g class="link" data-entity-1="ent0004" data-entity-2="ent0012" data-link-type="dependency" data-source-line="37" id="lnk25"><path d="M558.22,231.8769 C551.05,241.1369 544.12,252.1169 540.4,263.4869 C531.3,291.2869 533.6198,319.5177 537.4698,341.3877" fill="none" id="t1-to-r1" style="stroke:#181818;stroke-width:1;"/><polygon fill="#181818" points="538.51,347.2969,540.8891,337.7397,537.6431,342.3726,533.0102,339.1267,538.51,347.2969" style="stroke:#181818;stroke-width:1;"/><text fill="#000000" font-family="sans-serif" font-size="13" lengthAdjust="spacing" textLength="40.022" x="541.4" y="276.5538">Reads</text></g><!--link t2 to r2--><g class="link" data-entity-1="ent0005" data-entity-2="ent0013" data-link-type="dependency" data-source-line="38" id="lnk26"><path d="M724.21,223.7569 C733.59,234.4969 746.88,247.6369 761.4,255.4869 C819.93,287.1069 849.23,256.1969 907.4,288.4869 C933.65,303.0569 953.2207,324.1508 967.8107,342.7008" fill="none" id="t2-to-r2" style="stroke:#181818;stroke-width:1;"/><polygon fill="#181818" points="971.52,347.4169,969.1001,337.8699,968.4289,343.4868,962.812,342.8156,971.52,347.4169" style="stroke:#181818;stroke-width:1;"/><text fill="#000000" font-family="sans-serif" font-size="13" lengthAdjust="spacing" textLength="40.022" x="888.4" y="276.5538">Reads</text></g><!--link t1 to cache--><g class="link" data-entity-1="ent0004" data-entity-2="ent0014" data-link-type="dependency" data-source-line="39" id="lnk27"><path d="M621.11,231.9669 C633.47,239.8469 647.34,248.3069 660.4,255.4869 C683.23,268.0169 688.57,272.6269 713.4,280.4869 C733.18,286.7469 741.2,278.5069 759.4,288.4869 C778.1,298.7269 790.8239,310.8442 803.4739,326.4642" fill="none" id="t1-to-cache" style="stroke:#181818;stroke-width:1;"/><polygon fill="#181818" points="807.25,331.1269,804.6943,321.6154,804.1032,327.2413,798.4773,326.6502,807.25,331.1269" style="stroke:#181818;stroke-width:1;"/></g><!--link t1 to sqs--><g class="link" data-entity-1="ent0004" data-entity-2="ent0015" data-link-type="dependency" data-source-line="40" id="lnk28"><path d="M522.31,209.1969 C403.4,216.2069 143.44,237.1069 72.4,288.4869 C49.18,305.2769 39.282,332.9753 34.612,351.1653" fill="none" id="t1-to-sqs" style="stroke:#181818;stroke-width:1;"/><polygon fill="#181818" points="33.12,356.9769,39.2324,349.2543,34.3633,352.1339,31.4837,347.2649,33.12,356.9769" style="stroke:#181818;stroke-width:1;"/></g><!--link sqs to lambda--><g class="link" data-entity-1="ent0015" data-entity-2="ent0016" data-link-type="dependency" data-source-line="41" id="lnk29"><path d="M36.44,383.8869 C48.07,407.8669 71.3019,455.7682 88.3819,490.9882" fill="none" id="sqs-to-lambda" style="stroke:#181818;stroke-width:1;"/><polygon fill="#181818" points="91,496.3869,90.672,486.5435,88.8183,491.888,83.4738,490.0343,91,496.3869" style="stroke:#181818;stroke-width:1;"/></g><!--link edge to lambda--><g class="link" data-entity-1="ent0017" data-entity-2="ent0016" data-link-type="dependency" data-source-line="43" id="lnk30"><path d="M145.17,396.9369 C137.51,423.9369 127.036,460.9042 118.596,490.6842" fill="none" id="edge-to-lambda" style="stroke:#181818;stroke-width:1;"/><polygon fill="#181818" points="116.96,496.4569,123.2625,488.8886,118.3234,491.6463,115.5656,486.7072,116.96,496.4569" style="stroke:#181818;stroke-width:1;"/><text fill="#000000" font-family="sans-serif" font-size="13" lengthAdjust="spacing" textLength="114.9434" x="131.4" y="454.4438">Optimized photos</text></g><!--link tn to GMN31--><g class="link" data-entity-1="ent0009" data-entity-2="ent0032" data-link-type="association" data-source-line="46" id="lnk33"><path d="M1074.47,223.3769 C1063.71,234.5469 1048.16,248.3069 1031.4,255.4869 C933.21,297.4969 898.98,273.6169 792.4,280.4869 C756.13,282.8169 499.95,277.2269 465.4,288.4869 C436.16,298.0069 407.68,317.4069 386.15,334.8369" fill="none" id="tn-GMN31" style="stroke:#181818;stroke-width:1;stroke-dasharray:7,7;"/></g><?plantuml-src XLJ1Rjf04BtxAqQXhOWQKp1EGb0L5GX4aO9AugIzS5dRYrcntdLsrqb8rQYdVa3LByoNTBm6Z9eqvO2MUMzcPnxpLY-Oo8WYAOGaMYHAvY8UI2uLtCsPeOxUu95CCoceC85PSWgAHeQ8X6zJOZeZEJTNzDxqE4j4Yco8y8ignp7CO5eG4Sv40e4X2Ur2gzbSmBXt3Ky_ViEOtBCqJs4iXUJCpA7--AQpjzziVaZbhkDiReITtdb_AkgsMLV9a8dT7I0Q20-XDZmvnAgEa-4yU0Vi30S1Z8XAYA5GFt0xO8XUw3qWkP6kBll1_DgmCzeV7i4t1wfPOUSAoT32spou7Kokzy0_xPUtcHRKHgEZ8xpiUOPNKhnNAEsIqdw5ufSK_sLAez6mU2oDXjh0VbueWYENPSIcpFSjUKw88SNq9yF3qO6TFiP8I3HY4wbDecXmSJuLwY1ft7FKaKx5HB6Kg6LvEshUxliTUtULUab939SquomYqB9CrVe_izHDUVzWnap3WESQDsegzazn2rQ_89KnjRaHYUPqauwJtkGqn-JW8h2ulj653lweqtUsf3edQHWJgFVETgVYFM0DagtASZqLCtI4aHdWDW8d8iRn5zhMusNYMjfd9JyDOolPN1g9hj7i0VVDPb84DdbEiRokUunhLHszwjYkZlxcMFppLLoWoLfbF8GkV5LeOBqEeVXTAAJ6Y5T6l2fISgnqwn-earDeLPpB6Ht7Tbm5CFzpPbZA7cWCMJ6WTXmXqMUXD4Qc86T5Lm251RVj1XaQF5fs4K9FmJ4SDj_2qyzVGEBOsdC5V8Js2b0qbRTqZOsPw8A_DZA-6rrOsTgX8eQYXMUDA0yJFIo4swRARSDbeCNBPMZHYGi19IgQmpi8bRp3XJEAp6OiibXF4BuqBD88OxfK1kT0P9BqyHcAS5Ma08e2sZuQV_UXM38tHHihAG5wP-XKZR5IGMAO56KRfvChrvTkoWI35_UkOdsnX5miXBmJ6blWImjEg8fePdB2OKxq75_cECyiSaarFj4hb-0J3yNuy8X_mARbFm00?></g></svg>