<?plantuml 1.2026.1?><svg xmlns="http://www.w3.org/2000/svg" xmlns:xlink="http://www.w3.org/1999/xlink" contentStyleType="text/css" data-diagram-type="DESCRIPTION" height="581px" preserveAspectRatio="none" style="width:883px;height:581px;background:#FFFFFF;" version="1.1" viewBox="0 0 883 581" width="883px" zoomAndPan="magnify"><title>Scaling Stage: 25k MAU &#8212; Optimized (~$3,500/mo)</title><defs/><g><g class="title" data-source-line="5"><text fill="#000000" font-family="sans-serif" font-size="14" font-weight="bold" lengthAdjust="spacing" textLength="405.2617" x="232.2714" y="22.9951">Scaling Stage: 25k MAU &#8212; Optimized (~$3,500/mo)</text></g><!--cluster ECS Fargate (3 tasks)--><g class="cluster" data-qualified-name="ECS Fargate .3 tasks." data-source-line="9" id="ent0003"><path d="M209.51,143.8869 L381.2786,143.8869 A3.75,3.75 0 0 1 383.7786,146.3869 L390.7786,166.1837 L664.51,166.1837 A2.5,2.5 0 0 1 667.01,168.6837 L667.01,244.9869 A2.5,2.5 0 0 1 664.51,247.4869 L209.51,247.4869 A2.5,2.5 0 0 1 207.01,244.9869 L207.01,146.3869 A2.5,2.5 0 0 1 209.51,143.8869" fill="#E8F5E9" style="stroke:#000000;stroke-width:1.5;"/><line style="stroke:#000000;stroke-width:1.5;" x1="207.01" x2="390.7786" y1="166.1837" y2="166.1837"/><text fill="#000000" font-family="sans-serif" font-size="14" font-weight="bold" lengthAdjust="spacing" textLength="170.7686" x="211.01" y="158.882">ECS Fargate (3 tasks)</text></g><!--cluster Data--><g class="cluster" data-qualified-name="Data" data-source-line="15" id="ent0007"><path d="M162.51,296.4869 L200.718,296.4869 A3.75,3.75 0 0 1 203.218,298.9869 L210.218,318.7837 L613.51,318.7837 A2.5,2.5 0 0 1 616.01,321.2837 L616.01,439.1769 A2.5,2.5 0 0 1 613.51,441.6769 L162.51,441.6769 A2.5,2.5 0 0 1 160.01,439.1769 L160.01,298.9869 A2.5,2.5 0 0 1 162.51,296.4869" fill="#EDE7F6" style="stroke:#000000;stroke-width:1.5;"/><line style="stroke:#000000;stroke-width:1.5;" x1="160.01" x2="210.218" y1="318.7837" y2="318.7837"/><text fill="#000000" font-family="sans-serif" font-size="14" font-weight="bold" lengthAdjust="spacing" textLength="37.208" x="164.01" y="311.482">Data</text></g><!--entity t1--><g class="entity" data-qualified-name="ECS Fargate .3 tasks..t1" data-source-line="10" id="ent0004"><rect fill="#FF9900" height="52.5938" rx="2.5" ry="2.5" style="stroke:#181818;stroke-width:0.5;" width="119.292" x="223.37" y="178.8869"/><text fill="#000000" font-family="sans-serif" font-size="14" lengthAdjust="spacing" textLength="45.8896" x="260.0712" y="201.882">Task 1</text><text fill="#000000" font-family="sans-serif" font-size="14" lengthAdjust="spacing" textLength="99.292" x="233.37" y="218.1789">(1 vCPU, 2GB)</text></g><!--entity t2--><g class="entity" data-qualified-name="ECS Fargate .3 tasks..t2" data-source-line="11" id="ent0005"><rect fill="#FF9900" height="52.5938" rx="2.5" ry="2.5" style="stroke:#181818;stroke-width:0.5;" width="119.292" x="377.37" y="178.8869"/><text fill="#000000" font-family="sans-serif" font-size="14" lengthAdjust="spacing" textLength="45.8896" x="414.0712" y="201.882">Task 2</text><text fill="#000000" font-family="sans-serif" font-size="14" lengthAdjust="spacing" textLength="99.292" x="387.37" y="218.1789">(1 vCPU, 2GB)</text></g><!--entity t3--><g class="entity" data-qualified-name="ECS Fargate .3 tasks..t3" data-source-line="12" id="ent0006"><rect fill="#FF9900" height="52.5938" rx="2.5" ry="2.5" style="stroke:#181818;stroke-width:0.5;" width="119.292" x="531.37" y="178.8869"/><text fill="#000000" font-family="sans-serif" font-size="14" lengthAdjust="spacing" textLength="45.8896" x="568.0712" y="201.882">Task 3</text><text fill="#000000" font-family="sans-serif" font-size="14" lengthAdjust="spacing" textLength="99.292" x="541.37" y="218.1789">(1 vCPU, 2GB)</text></g><!--entity db--><g class="entity" data-qualified-name="Data.db" data-source-line="16" id="ent0008"><path d="M499.64,349.6369 C499.64,339.6369 550.0165,339.6369 550.0165,339.6369 C550.0165,339.6369 600.3929,339.6369 600.3929,349.6369 L600.3929,407.5275 C600.3929,417.5275 550.0165,417.5275 550.0165,417.5275 C550.0165,417.5275 499.64,417.5275 499.64,407.5275 L499.64,349.6369" fill="#3B48CC" style="stroke:#181818;stroke-width:0.5;"/><path d="M499.64,349.6369 C499.64,359.6369 550.0165,359.6369 550.0165,359.6369 C550.0165,359.6369 600.3929,359.6369 600.3929,349.6369" fill="none" style="stroke:#181818;stroke-width:0.5;"/><text fill="#000000" font-family="sans-serif" font-size="14" lengthAdjust="spacing" textLength="80.7529" x="509.64" y="376.632">PostgreSQL</text><text fill="#000000" font-family="sans-serif" font-size="14" lengthAdjust="spacing" textLength="63.458" x="518.2875" y="392.9289">t4g.large</text><text fill="#000000" font-family="sans-serif" font-size="14" lengthAdjust="spacing" textLength="54.3457" x="522.8436" y="409.2257">Primary</text></g><!--entity replica--><g class="entity" data-qualified-name="Data.replica" data-source-line="17" id="ent0009"><path d="M353.24,357.7869 C353.24,347.7869 409.01,347.7869 409.01,347.7869 C409.01,347.7869 464.78,347.7869 464.78,357.7869 L464.78,399.3806 C464.78,409.3806 409.01,409.3806 409.01,409.3806 C409.01,409.3806 353.24,409.3806 353.24,399.3806 L353.24,357.7869" fill="#3B48CC" style="stroke:#181818;stroke-width:0.5;"/><path d="M353.24,357.7869 C353.24,367.7869 409.01,367.7869 409.01,367.7869 C409.01,367.7869 464.78,367.7869 464.78,357.7869" fill="none" style="stroke:#181818;stroke-width:0.5;"/><text fill="#000000" font-family="sans-serif" font-size="14" lengthAdjust="spacing" textLength="80.7529" x="368.6336" y="384.782">PostgreSQL</text><text fill="#000000" font-family="sans-serif" font-size="14" lengthAdjust="spacing" textLength="91.54" x="363.24" y="401.0789">Read Replica</text></g><!--entity cache--><g class="entity" data-qualified-name="Data.cache" data-source-line="18" id="ent0010"><path d="M175.86,341.4869 C175.86,331.4869 247.0075,331.4869 247.0075,331.4869 C247.0075,331.4869 318.1549,331.4869 318.1549,341.4869 L318.1549,415.6744 C318.1549,425.6744 247.0075,425.6744 247.0075,425.6744 C247.0075,425.6744 175.86,425.6744 175.86,415.6744 L175.86,341.4869" fill="#3B48CC" style="stroke:#181818;stroke-width:0.5;"/><path d="M175.86,341.4869 C175.86,351.4869 247.0075,351.4869 247.0075,351.4869 C247.0075,351.4869 318.1549,351.4869 318.1549,341.4869" fill="none" style="stroke:#181818;stroke-width:0.5;"/><text fill="#000000" font-family="sans-serif" font-size="14" lengthAdjust="spacing" textLength="38.4111" x="227.8019" y="368.482">Redis</text><text fill="#000000" font-family="sans-serif" font-size="14" lengthAdjust="spacing" textLength="122.2949" x="185.86" y="384.7789">cache.t3.medium</text><text fill="#000000" font-family="sans-serif" font-size="14" lengthAdjust="spacing" textLength="29.3604" x="232.3273" y="401.0757">3GB</text><text fill="#000000" font-family="sans-serif" font-size="14" lengthAdjust="spacing" textLength="120.1621" x="186.9264" y="417.3726">+ AI result cache</text></g><!--entity alb--><g class="entity" data-qualified-name="alb" data-source-line="7" id="ent0002"><rect fill="#ED7100" height="52.5938" rx="2.5" ry="2.5" style="stroke:#181818;stroke-width:0.5;" width="112.9004" x="380.56" y="44.2969"/><text fill="#000000" font-family="sans-serif" font-size="14" lengthAdjust="spacing" textLength="26.9814" x="423.5195" y="67.292">ALB</text><text fill="#000000" font-family="sans-serif" font-size="14" lengthAdjust="spacing" textLength="92.9004" x="390.56" y="83.5889">(round-robin)</text></g><!--entity sqs--><g class="entity" data-qualified-name="sqs" data-source-line="21" id="ent0011"><path d="M58.62,365.4269 L97.413,365.4269 C102.413,365.4269 102.413,378.5753 102.413,378.5753 C102.413,378.5753 102.413,391.7238 97.413,391.7238 L58.62,391.7238 C53.62,391.7238 53.62,378.5753 53.62,378.5753 C53.62,378.5753 53.62,365.4269 58.62,365.4269" fill="#FF4F8B" style="stroke:#181818;stroke-width:0.5;"/><path d="M97.413,365.4269 C92.413,365.4269 92.413,378.5753 92.413,378.5753 C92.413,391.7238 97.413,391.7238 97.413,391.7238" fill="none" style="stroke:#181818;stroke-width:0.5;"/><text fill="#000000" font-family="sans-serif" font-size="14" lengthAdjust="spacing" textLength="28.793" x="58.62" y="383.422">SQS</text></g><!--entity lambda--><g class="entity" data-qualified-name="lambda" data-source-line="22" id="ent0012"><rect fill="#FF9900" height="68.8906" rx="2.5" ry="2.5" style="stroke:#181818;stroke-width:0.5;" width="106.0234" x="7" y="497.0569"/><text fill="#000000" font-family="sans-serif" font-size="14" lengthAdjust="spacing" textLength="85.4492" x="17.2871" y="520.052">Lambda (AI)</text><text fill="#000000" font-family="sans-serif" font-size="14" lengthAdjust="spacing" textLength="86.0234" x="17" y="536.3489">+ geo-fence</text><text fill="#000000" font-family="sans-serif" font-size="14" lengthAdjust="spacing" textLength="70.6768" x="24.6733" y="552.6457">+ caching</text></g><g class="entity" data-qualified-name="GMN27" data-source-line="40" id="ent0028"><path d="M148.08,488.6769 L148.08,574.3409 A0,0 0 0 0 148.08,574.3409 L363.9404,574.3409 A0,0 0 0 0 363.9404,574.3409 L363.9404,498.6769 L353.9404,488.6769 L257.49,488.6769 L249.79,426.0969 L249.49,488.6769 L148.08,488.6769 A0,0 0 0 0 148.08,488.6769" fill="#FEFFDD" style="stroke:#181818;stroke-width:0.5;"/><path d="M353.9404,488.6769 L353.9404,498.6769 L363.9404,498.6769 L353.9404,488.6769" fill="#FEFFDD" style="stroke:#181818;stroke-width:0.5;"/><text fill="#000000" font-family="sans-serif" font-size="13" lengthAdjust="spacing" textLength="156.6855" x="173.1674" y="505.7438">AI result caching active:</text><text fill="#000000" font-family="sans-serif" font-size="13" lengthAdjust="spacing" textLength="194.8604" x="154.08" y="520.8766">landmark_hash &#8594; description.</text><text fill="#000000" font-family="sans-serif" font-size="13" lengthAdjust="spacing" textLength="176.3125" x="163.3539" y="536.0094">Saves 40-60% of API costs.</text><text fill="#000000" font-family="sans-serif" font-size="13" lengthAdjust="spacing" textLength="161.77" x="170.6252" y="551.1422">Geo-fence shortcuts skip</text><text fill="#000000" font-family="sans-serif" font-size="13" lengthAdjust="spacing" textLength="169.457" x="166.7817" y="566.275">Vision API for known POIs.</text></g><g class="entity" data-qualified-name="GMN30" data-source-line="48" id="ent0031"><path d="M727.22,350.8769 L727.22,406.2753 L876.8045,406.2753 L876.8045,360.8769 L866.8045,350.8769 L727.22,350.8769" fill="#FEFFDD" style="stroke:#181818;stroke-width:0.5;"/><path d="M866.8045,350.8769 L866.8045,360.8769 L876.8045,360.8769 L866.8045,350.8769" fill="#FEFFDD" style="stroke:#181818;stroke-width:1;"/><text fill="#000000" font-family="sans-serif" font-size="13" lengthAdjust="spacing" textLength="128.5845" x="733.22" y="367.9438">3 tasks behind ALB.</text><text fill="#000000" font-family="sans-serif" font-size="13" lengthAdjust="spacing" textLength="126.6167" x="734.2039" y="383.0766">Each handles ~400</text><text fill="#000000" font-family="sans-serif" font-size="13" lengthAdjust="spacing" textLength="114.1436" x="740.4405" y="398.2094">concurrent users.</text></g><!--link alb to t1--><g class="link" data-entity-1="ent0002" data-entity-2="ent0004" data-link-type="dependency" data-source-line="24" id="lnk13"><path d="M405.74,97.3469 C391.68,109.0169 374.93,123.0569 360.01,135.8869 C343.76,149.8769 330.2927,161.7575 315.8327,174.6875" fill="none" id="alb-to-t1" style="stroke:#181818;stroke-width:1;"/><polygon fill="#181818" points="311.36,178.6869,320.7353,175.6695,315.0872,175.354,315.4027,169.706,311.36,178.6869" style="stroke:#181818;stroke-width:1;"/></g><!--link alb to t2--><g class="link" data-entity-1="ent0002" data-entity-2="ent0005" data-link-type="dependency" data-source-line="25" id="lnk14"><path d="M437.01,97.1569 C437.01,120.6369 437.01,149.2469 437.01,172.6969" fill="none" id="alb-to-t2" style="stroke:#181818;stroke-width:1;"/><polygon fill="#181818" points="437.01,178.6969,441.01,169.6969,437.01,173.6969,433.01,169.6969,437.01,178.6969" style="stroke:#181818;stroke-width:1;"/></g><!--link alb to t3--><g class="link" data-entity-1="ent0002" data-entity-2="ent0006" data-link-type="dependency" data-source-line="26" id="lnk15"><path d="M468.29,97.3469 C482.35,109.0169 499.1,123.0569 514.01,135.8869 C530.26,149.8769 543.726,161.759 558.196,174.689" fill="none" id="alb-to-t3" style="stroke:#181818;stroke-width:1;"/><polygon fill="#181818" points="562.67,178.6869,558.6242,169.7074,558.9416,175.3553,553.2937,175.6728,562.67,178.6869" style="stroke:#181818;stroke-width:1;"/></g><!--link t1 to db--><g class="link" data-entity-1="ent0004" data-entity-2="ent0008" data-link-type="dependency" data-source-line="27" id="lnk16"><path d="M315.32,231.7769 C328.45,240.8269 344.24,250.0869 360.01,255.4869 C397.59,268.3369 411.97,249.1569 449.01,263.4869 C466.17,270.1169 468.98,275.4969 482.01,288.4869 C497.45,303.8669 508.8717,317.9867 520.8017,334.4667" fill="none" id="t1-to-db" style="stroke:#181818;stroke-width:1;"/><polygon fill="#181818" points="524.32,339.3269,522.2826,329.691,521.3881,335.2767,515.8024,334.3821,524.32,339.3269" style="stroke:#181818;stroke-width:1;"/><text fill="#000000" font-family="sans-serif" font-size="13" lengthAdjust="spacing" textLength="41.6787" x="475.01" y="276.5538">Writes</text></g><!--link t2 to db--><g class="link" data-entity-1="ent0005" data-entity-2="ent0008" data-link-type="dependency" data-source-line="28" id="lnk17"><path d="M474.71,231.9269 C487,239.8869 500.87,248.4169 514.01,255.4869 C521.72,259.6369 526.68,256.5369 532.01,263.4869 C548.43,284.8869 552.5151,309.2871 552.7351,333.3371" fill="none" id="t2-to-db" style="stroke:#181818;stroke-width:1;"/><polygon fill="#181818" points="552.79,339.3369,556.7075,330.3007,552.7443,334.3371,548.7078,330.3738,552.79,339.3369" style="stroke:#181818;stroke-width:1;"/><text fill="#000000" font-family="sans-serif" font-size="13" lengthAdjust="spacing" textLength="41.6787" x="542.01" y="276.5538">Writes</text></g><!--link t3 to db--><g class="link" data-entity-1="ent0006" data-entity-2="ent0008" data-link-type="dependency" data-source-line="29" id="lnk18"><path d="M651.07,223.0669 C682.23,235.2769 711.12,254.2669 697.01,280.4869 C676.73,318.1969 640.1259,341.2223 606.1759,356.5923" fill="none" id="t3-to-db" style="stroke:#181818;stroke-width:1;"/><polygon fill="#181818" points="600.71,359.0669,610.5586,358.999,605.265,357.0047,607.2592,351.7111,600.71,359.0669" style="stroke:#181818;stroke-width:1;"/><text fill="#000000" font-family="sans-serif" font-size="13" lengthAdjust="spacing" textLength="41.6787" x="701.01" y="276.5538">Writes</text></g><!--link t1 to replica--><g class="link" data-entity-1="ent0004" data-entity-2="ent0009" data-link-type="dependency" data-source-line="30" id="lnk19"><path d="M301.88,231.8469 C324.6,262.7569 359.1664,309.7724 383.2764,342.5724" fill="none" id="t1-to-replica" style="stroke:#181818;stroke-width:1;"/><polygon fill="#181818" points="386.83,347.4069,384.7225,337.7861,383.8687,343.3782,378.2766,342.5243,386.83,347.4069" style="stroke:#181818;stroke-width:1;"/><text fill="#000000" font-family="sans-serif" font-size="13" lengthAdjust="spacing" textLength="40.022" x="335.01" y="276.5538">Reads</text></g><!--link t2 to replica--><g class="link" data-entity-1="ent0005" data-entity-2="ent0009" data-link-type="dependency" data-source-line="31" id="lnk20"><path d="M417.75,231.9469 C411.81,241.3669 406.04,252.4469 403.01,263.4869 C395.4,291.2169 397.3339,318.2218 401.3039,341.5618" fill="none" id="t2-to-replica" style="stroke:#181818;stroke-width:1;"/><polygon fill="#181818" points="402.31,347.4769,404.7442,337.9336,401.4716,342.5477,396.8575,339.2751,402.31,347.4769" style="stroke:#181818;stroke-width:1;"/><text fill="#000000" font-family="sans-serif" font-size="13" lengthAdjust="spacing" textLength="40.022" x="404.01" y="276.5538">Reads</text></g><!--link t3 to replica--><g class="link" data-entity-1="ent0006" data-entity-2="ent0009" data-link-type="dependency" data-source-line="32" id="lnk21"><path d="M599.42,231.7469 C602.94,247.7669 603.87,267.7369 592.01,280.4869 C575.32,298.4369 503.77,277.1969 482.01,288.4869 C456.98,301.4669 440.5168,322.0621 427.9568,342.5421" fill="none" id="t3-to-replica" style="stroke:#181818;stroke-width:1;"/><polygon fill="#181818" points="424.82,347.6569,432.935,342.0759,427.434,343.3946,426.1153,337.8936,424.82,347.6569" style="stroke:#181818;stroke-width:1;"/><text fill="#000000" font-family="sans-serif" font-size="13" lengthAdjust="spacing" textLength="40.022" x="601.01" y="276.5538">Reads</text></g><!--link t1 to cache--><g class="link" data-entity-1="ent0004" data-entity-2="ent0010" data-link-type="dependency" data-source-line="33" id="lnk22"><path d="M234.35,231.7869 C222.99,240.2569 212.37,250.8269 206.01,263.4869 C195.24,284.9269 199.4104,304.5796 210.4404,325.6796" fill="none" id="t1-to-cache" style="stroke:#181818;stroke-width:1;"/><polygon fill="#181818" points="213.22,330.9969,212.5954,321.1678,210.9037,326.5658,205.5057,324.874,213.22,330.9969" style="stroke:#181818;stroke-width:1;"/></g><!--link t2 to cache--><g class="link" data-entity-1="ent0005" data-entity-2="ent0010" data-link-type="dependency" data-source-line="34" id="lnk23"><path d="M402.88,231.9669 C390.02,240.5869 374.89,249.5269 360.01,255.4869 C342.78,262.3869 334.33,252.9969 319.01,263.4869 C294.95,279.9569 279.9261,302.0218 268.1061,325.8518" fill="none" id="t2-to-cache" style="stroke:#181818;stroke-width:1;"/><polygon fill="#181818" points="265.44,331.2269,273.0226,324.9416,267.6618,326.7476,265.8558,321.3868,265.44,331.2269" style="stroke:#181818;stroke-width:1;"/></g><!--link t3 to cache--><g class="link" data-entity-1="ent0006" data-entity-2="ent0010" data-link-type="dependency" data-source-line="35" id="lnk24"><path d="M557.84,231.9769 C544.84,240.8269 529.38,249.8969 514.01,255.4869 C487.9,264.9869 478.94,256.6469 452.01,263.4869 C431.69,268.6369 428.38,275.5069 408.01,280.4869 C376.74,288.1269 365.03,274.5269 336.01,288.4869 C315.52,298.3369 301.0367,310.4669 286.2567,326.6469" fill="none" id="t3-to-cache" style="stroke:#181818;stroke-width:1;"/><polygon fill="#181818" points="282.21,331.0769,291.2333,327.1297,285.5822,327.3852,285.3267,321.7342,282.21,331.0769" style="stroke:#181818;stroke-width:1;"/></g><!--link t1 to sqs--><g class="link" data-entity-1="ent0004" data-entity-2="ent0011" data-link-type="dependency" data-source-line="36" id="lnk25"><path d="M241.33,231.7369 C225.96,241.4069 208.52,252.6969 193.01,263.4869 C177.91,273.9869 173.63,276.1069 160.01,288.4869 C132.16,313.7869 107.018,342.6633 92.098,360.5133" fill="none" id="t1-to-sqs" style="stroke:#181818;stroke-width:1;"/><polygon fill="#181818" points="88.25,365.1169,97.091,360.7768,91.4566,361.2805,90.9529,355.6462,88.25,365.1169" style="stroke:#181818;stroke-width:1;"/></g><!--link sqs to lambda--><g class="link" data-entity-1="ent0011" data-entity-2="ent0012" data-link-type="dependency" data-source-line="37" id="lnk26"><path d="M76.51,392.1869 C73.8,414.9269 68.7112,457.5692 64.7612,490.6592" fill="none" id="sqs-to-lambda" style="stroke:#181818;stroke-width:1;"/><polygon fill="#181818" points="64.05,496.6169,69.0886,488.1544,64.6426,491.6521,61.145,487.2062,64.05,496.6169" style="stroke:#181818;stroke-width:1;"/></g><!--link t3 to GMN30--><g class="link" data-entity-1="ent0006" data-entity-2="ent0031" data-link-type="association" data-source-line="48" id="lnk32"><path d="M651.01,215.7769 C683.93,223.7169 723.52,238.0169 751.01,263.4869 C776.16,286.7769 789.69,324.7769 796.37,350.4669" fill="none" id="t3-GMN30" style="stroke:#181818;stroke-width:1;stroke-dasharray:7,7;"/></g><?plantuml-src VLJDRXen4BxxAKRGIg062Ypvur09220agX0sQIz8bTTh5cjtRM9xITAgKKzzWAfFc2VfU1S8AhGND9wPxzkPRsOmiP0hgcaA0MLnf5KcmxvAb8Q7fR2Sc5sSgNIb99VMjqy91ysPfJ9AzbD2lg1POc_ve-qc8f8fPWF37wu9iS8Yp6Sq4J82tzA8Tw1r6iF7xXsy_FWDroihKl6LXr1vVkETd3OQxrDL9MJt9IXr9xsvhEH5rhGAXAoMW1gWIG3bmTLviz4WP8Lz83UK1dqVXbH7r7AeU62fYGtcbmSNmzF19NmZyDeJb6un34raRyAwFxqxWTQeLx3R9fI7myjB93z4j8uYMlz1U4SHtWxnVQ-5Asgfg_XgS3uyooiEqHDGWx6fCZRItB-PpALjH_K4M-LpETKYfVefPmrH5g_NlkZt_ucSSHh2ZAyImMYEqOLz53ZZeJ1poIXRyhhrwYc-itGklH6EvHrqnuWsk02GP-HqkRKZmzxkCvuXbN_Zvt5pRrpdxU55Z-mfDQ5f45AeTCTLnnnnLLjmoRXxE4fSeHoU57bRxOZRX5hj0yxirMozcXx1OJeBbUd0PuqRRWXEwy3b7ReAu5QU3ZZbTk03jtVSNP3aecoXcuUt_oZIK1lYz75sqIWXKk4s1yfQbO9QRFBXB-dTWL5cnPftC9PG6U9An5-Mr2pXvUSll5F3jC1pKxAE2JvTSmFjHksiyTQHTgTZt5fZZGkEjjA3MIfjMMPnQB5OOUYJCCYGfo_m3oEMwa72z7gCE2v3SAKU58mZ0DWS8mGSImq1hzfzQO2LmnABJR2Qv_RcU2JBj7OxaHckzvZ_0000?></g></svg>