<?plantuml 1.2026.1?><svg xmlns="http://www.w3.org/2000/svg" xmlns:xlink="http://www.w3.org/1999/xlink" contentStyleType="text/css" data-diagram-type="DESCRIPTION" height="464px" preserveAspectRatio="none" style="width:603px;height:464px;background:#FFFFFF;" version="1.1" viewBox="0 0 603 464" width="603px" zoomAndPan="magnify"><title>Scaling Stage: 1k MAU &#8212; Launch (~$785/mo)</title><defs/><g><g class="title" data-source-line="5"><text fill="#000000" font-family="sans-serif" font-size="14" font-weight="bold" lengthAdjust="spacing" textLength="356.5625" x="116.3087" y="22.9951">Scaling Stage: 1k MAU &#8212; Launch (~$785/mo)</text></g><!--cluster ECS Fargate--><g class="cluster" data-qualified-name="ECS Fargate" data-source-line="9" id="ent0003"><path d="M204.68,105.5969 L302.0462,105.5969 A3.75,3.75 0 0 1 304.5462,108.0969 L311.5462,127.8938 L363.68,127.8938 A2.5,2.5 0 0 1 366.18,130.3938 L366.18,206.6969 A2.5,2.5 0 0 1 363.68,209.1969 L204.68,209.1969 A2.5,2.5 0 0 1 202.18,206.6969 L202.18,108.0969 A2.5,2.5 0 0 1 204.68,105.5969" fill="#E8F5E9" style="stroke:#000000;stroke-width:1.5;"/><line style="stroke:#000000;stroke-width:1.5;" x1="202.18" x2="311.5462" y1="127.8938" y2="127.8938"/><text fill="#000000" font-family="sans-serif" font-size="14" font-weight="bold" lengthAdjust="spacing" textLength="96.3662" x="206.18" y="120.592">ECS Fargate</text></g><!--cluster Data--><g class="cluster" data-qualified-name="Data" data-source-line="13" id="ent0005"><path d="M301.68,233.1969 L339.888,233.1969 A3.75,3.75 0 0 1 342.388,235.6969 L349.388,255.4938 L593.68,255.4938 A2.5,2.5 0 0 1 596.18,257.9938 L596.18,359.5869 A2.5,2.5 0 0 1 593.68,362.0869 L301.68,362.0869 A2.5,2.5 0 0 1 299.18,359.5869 L299.18,235.6969 A2.5,2.5 0 0 1 301.68,233.1969" fill="#EDE7F6" style="stroke:#000000;stroke-width:1.5;"/><line style="stroke:#000000;stroke-width:1.5;" x1="299.18" x2="349.388" y1="255.4938" y2="255.4938"/><text fill="#000000" font-family="sans-serif" font-size="14" font-weight="bold" lengthAdjust="spacing" textLength="37.208" x="303.18" y="248.192">Data</text></g><!--entity t1--><g class="entity" data-qualified-name="ECS Fargate.t1" data-source-line="10" id="ent0004"><rect fill="#FF9900" height="52.5938" rx="2.5" ry="2.5" style="stroke:#181818;stroke-width:0.5;" width="132.6494" x="217.86" y="140.5969"/><text fill="#000000" font-family="sans-serif" font-size="14" lengthAdjust="spacing" textLength="45.8896" x="261.2399" y="163.592">Task 1</text><text fill="#000000" font-family="sans-serif" font-size="14" lengthAdjust="spacing" textLength="112.6494" x="227.86" y="179.8889">(0.5 vCPU, 1GB)</text></g><!--entity db--><g class="entity" data-qualified-name="Data.db" data-source-line="14" id="ent0006"><path d="M474.55,278.1969 C474.55,268.1969 527.1857,268.1969 527.1857,268.1969 C527.1857,268.1969 579.8215,268.1969 579.8215,278.1969 L579.8215,336.0875 C579.8215,346.0875 527.1857,346.0875 527.1857,346.0875 C527.1857,346.0875 474.55,346.0875 474.55,336.0875 L474.55,278.1969" fill="#3B48CC" style="stroke:#181818;stroke-width:0.5;"/><path d="M474.55,278.1969 C474.55,288.1969 527.1857,288.1969 527.1857,288.1969 C527.1857,288.1969 579.8215,288.1969 579.8215,278.1969" fill="none" style="stroke:#181818;stroke-width:0.5;"/><text fill="#000000" font-family="sans-serif" font-size="14" lengthAdjust="spacing" textLength="80.7529" x="486.8093" y="305.192">PostgreSQL</text><text fill="#000000" font-family="sans-serif" font-size="14" lengthAdjust="spacing" textLength="85.2715" x="484.55" y="321.4889">t4g.medium</text><text fill="#000000" font-family="sans-serif" font-size="14" lengthAdjust="spacing" textLength="58.4404" x="497.9655" y="337.7857">Multi-AZ</text></g><!--entity cache--><g class="entity" data-qualified-name="Data.cache" data-source-line="15" id="ent0007"><path d="M315.03,278.1969 C315.03,268.1969 377.1814,268.1969 377.1814,268.1969 C377.1814,268.1969 439.3327,268.1969 439.3327,278.1969 L439.3327,336.0875 C439.3327,346.0875 377.1814,346.0875 377.1814,346.0875 C377.1814,346.0875 315.03,346.0875 315.03,336.0875 L315.03,278.1969" fill="#3B48CC" style="stroke:#181818;stroke-width:0.5;"/><path d="M315.03,278.1969 C315.03,288.1969 377.1814,288.1969 377.1814,288.1969 C377.1814,288.1969 439.3327,288.1969 439.3327,278.1969" fill="none" style="stroke:#181818;stroke-width:0.5;"/><text fill="#000000" font-family="sans-serif" font-size="14" lengthAdjust="spacing" textLength="38.4111" x="357.9758" y="305.192">Redis</text><text fill="#000000" font-family="sans-serif" font-size="14" lengthAdjust="spacing" textLength="104.3027" x="325.03" y="321.4889">cache.t3.micro</text><text fill="#000000" font-family="sans-serif" font-size="14" lengthAdjust="spacing" textLength="42.7178" x="355.8225" y="337.7857">0.5GB</text></g><!--entity alb--><g class="entity" data-qualified-name="alb" data-source-line="7" id="ent0002"><rect fill="#ED7100" height="36.2969" rx="2.5" ry="2.5" style="stroke:#181818;stroke-width:0.5;" width="46.9814" x="260.69" y="44.2969"/><text fill="#000000" font-family="sans-serif" font-size="14" lengthAdjust="spacing" textLength="26.9814" x="270.69" y="67.292">ALB</text></g><!--entity sqs--><g class="entity" data-qualified-name="sqs" data-source-line="18" id="ent0008"><path d="M25.79,293.9869 L64.583,293.9869 C69.583,293.9869 69.583,307.1353 69.583,307.1353 C69.583,307.1353 69.583,320.2838 64.583,320.2838 L25.79,320.2838 C20.79,320.2838 20.79,307.1353 20.79,307.1353 C20.79,307.1353 20.79,293.9869 25.79,293.9869" fill="#FF4F8B" style="stroke:#181818;stroke-width:0.5;"/><path d="M64.583,293.9869 C59.583,293.9869 59.583,307.1353 59.583,307.1353 C59.583,320.2838 64.583,320.2838 64.583,320.2838" fill="none" style="stroke:#181818;stroke-width:0.5;"/><text fill="#000000" font-family="sans-serif" font-size="14" lengthAdjust="spacing" textLength="28.793" x="25.79" y="311.982">SQS</text></g><!--entity lambda--><g class="entity" data-qualified-name="lambda" data-source-line="19" id="ent0009"><rect fill="#FF9900" height="52.5938" rx="2.5" ry="2.5" style="stroke:#181818;stroke-width:0.5;" width="76.3691" x="7" y="406.0869"/><text fill="#000000" font-family="sans-serif" font-size="14" lengthAdjust="spacing" textLength="56.3691" x="17" y="429.082">Lambda</text><text fill="#000000" font-family="sans-serif" font-size="14" lengthAdjust="spacing" textLength="24.6299" x="32.8696" y="445.3789">(AI)</text></g><g class="entity" data-qualified-name="GMN15" data-source-line="28" id="ent0016"><path d="M104.69,279.4369 L104.69,334.8353 A0,0 0 0 0 104.69,334.8353 L279.6714,334.8353 A0,0 0 0 0 279.6714,334.8353 L279.6714,289.4369 L269.6714,279.4369 L214.12,279.4369 L267.1,193.5769 L206.12,279.4369 L104.69,279.4369 A0,0 0 0 0 104.69,279.4369" fill="#FEFFDD" style="stroke:#181818;stroke-width:0.5;"/><path d="M269.6714,279.4369 L269.6714,289.4369 L279.6714,289.4369 L269.6714,279.4369" fill="#FEFFDD" style="stroke:#181818;stroke-width:0.5;"/><text fill="#000000" font-family="sans-serif" font-size="13" lengthAdjust="spacing" textLength="126.6738" x="124.3438" y="296.5038">Single task handles</text><text fill="#000000" font-family="sans-serif" font-size="13" lengthAdjust="spacing" textLength="61.7754" x="156.793" y="311.6366">all traffic.</text><text fill="#000000" font-family="sans-serif" font-size="13" lengthAdjust="spacing" textLength="153.9814" x="110.69" y="326.7694">~100 concurrent users.</text></g><!--link alb to t1--><g class="link" data-entity-1="ent0002" data-entity-2="ent0004" data-link-type="dependency" data-source-line="21" id="lnk10"><path d="M284.18,80.8269 C284.18,97.1569 284.18,115.7869 284.18,134.3469" fill="none" id="alb-to-t1" style="stroke:#181818;stroke-width:1;"/><polygon fill="#181818" points="284.18,140.3469,288.18,131.3469,284.18,135.3469,280.18,131.3469,284.18,140.3469" style="stroke:#181818;stroke-width:1;"/></g><!--link t1 to db--><g class="link" data-entity-1="ent0004" data-entity-2="ent0006" data-link-type="dependency" data-source-line="22" id="lnk11"><path d="M350.79,181.0469 C384.62,189.8569 425.22,203.8469 457.18,225.1969 C474.03,236.4369 485.502,248.0777 497.392,263.1377" fill="none" id="t1-to-db" style="stroke:#181818;stroke-width:1;"/><polygon fill="#181818" points="501.11,267.8469,498.6725,258.3044,498.0117,263.9225,492.3936,263.2617,501.11,267.8469" style="stroke:#181818;stroke-width:1;"/></g><!--link t1 to cache--><g class="link" data-entity-1="ent0004" data-entity-2="ent0007" data-link-type="dependency" data-source-line="23" id="lnk12"><path d="M301.46,193.5769 C315.48,214.4269 332.1314,239.1582 348.0514,262.8282" fill="none" id="t1-to-cache" style="stroke:#181818;stroke-width:1;"/><polygon fill="#181818" points="351.4,267.8069,349.6963,258.1065,348.6095,263.658,343.058,262.5712,351.4,267.8069" style="stroke:#181818;stroke-width:1;"/></g><!--link t1 to sqs--><g class="link" data-entity-1="ent0004" data-entity-2="ent0008" data-link-type="dependency" data-source-line="24" id="lnk13"><path d="M217.74,173.8869 C176.31,180.6169 124.07,194.8969 87.18,225.1969 C65.16,243.2769 54.9828,270.1761 49.9128,287.9861" fill="none" id="t1-to-sqs" style="stroke:#181818;stroke-width:1;"/><polygon fill="#181818" points="48.27,293.7569,54.5813,286.196,49.639,288.9479,46.887,284.0056,48.27,293.7569" style="stroke:#181818;stroke-width:1;"/></g><!--link sqs to lambda--><g class="link" data-entity-1="ent0008" data-entity-2="ent0009" data-link-type="dependency" data-source-line="25" id="lnk14"><path d="M45.18,320.4069 C45.18,340.2569 45.18,373.8169 45.18,399.9469" fill="none" id="sqs-to-lambda" style="stroke:#181818;stroke-width:1;"/><polygon fill="#181818" points="45.18,405.9469,49.18,396.9469,45.18,400.9469,41.18,396.9469,45.18,405.9469" style="stroke:#181818;stroke-width:1;"/></g><?plantuml-src LL71Rjim3BthAmXtXnPOl1XDbcI70OuJ5mDIe9tRo-0BBIkE4LbA9NfRCQpOH-mBzoMZ73JBBWB5Hpw-H_fzQmxei8CAvRvnjZTrPhLry6tNaXB-X4lR7QnHXWfwrWgSaeIcqUSbjTfYh-b1VQTKjutfk1eaFye9GIrnMo5HjwQ1Wh1H7o3Pmstw27z-_OODzaRkuFBbpMm-VTVPAo5ECo1ADyi8q0Fg2YxMgrao7WjnOCbC0z4wAo17ro2fYE5vFbqlu8U0Vw8XUa2_XwGqb-Du2b-pkyUtaDmihmPMIk0YpnSB9lrvHhj2mi2tMi_ozmDVpPaAFMDtrbFZL76_AGrDchXJTTjtfRdb1RIZzCl0MxFOw-LadcN_zNxcMbyQYNAdOhgEkrOwMneMTdDqEI2dLfRqrAkU6ulxOi3zam-29_byASuiRh2hQcIBwQUZBpqaJjv4sDvez97z2hOSehfwZOQPhnyU8CAG41z9X32M55IMo7PWju43e6Y7yr3OxGvDhPNdB6eDv72xRMNCtnS-5b_2oDwveBFtolbOA5D3uFmB?></g></svg>