<?plantuml 1.2026.1?><svg xmlns="http://www.w3.org/2000/svg" xmlns:xlink="http://www.w3.org/1999/xlink" contentStyleType="text/css" data-diagram-type="DESCRIPTION" height="549px" preserveAspectRatio="none" style="width:556px;height:549px;background:#FFFFFF;" version="1.1" viewBox="0 0 556 549" width="556px" zoomAndPan="magnify"><title>Scaling Stage: 10k MAU &#8212; First Scale (~$1,800/mo)</title><defs/><g><g class="title" data-source-line="5"><text fill="#000000" font-family="sans-serif" font-size="14" font-weight="bold" lengthAdjust="spacing" textLength="408.085" x="67.3175" y="22.9951">Scaling Stage: 10k MAU &#8212; First Scale (~$1,800/mo)</text></g><!--cluster ECS Fargate (2 tasks)--><g class="cluster" data-qualified-name="ECS Fargate .2 tasks." data-source-line="9" id="ent0003"><path d="M66.22,143.8869 L237.9886,143.8869 A3.75,3.75 0 0 1 240.4886,146.3869 L247.4886,166.1838 L393.22,166.1838 A2.5,2.5 0 0 1 395.72,168.6838 L395.72,244.9869 A2.5,2.5 0 0 1 393.22,247.4869 L66.22,247.4869 A2.5,2.5 0 0 1 63.72,244.9869 L63.72,146.3869 A2.5,2.5 0 0 1 66.22,143.8869" fill="#E8F5E9" style="stroke:#000000;stroke-width:1.5;"/><line style="stroke:#000000;stroke-width:1.5;" x1="63.72" x2="247.4886" y1="166.1838" y2="166.1838"/><text fill="#000000" font-family="sans-serif" font-size="14" font-weight="bold" lengthAdjust="spacing" textLength="170.7686" x="67.72" y="158.882">ECS Fargate (2 tasks)</text></g><!--cluster Data--><g class="cluster" data-qualified-name="Data" data-source-line="14" id="ent0006"><path d="M111.22,296.4869 L149.428,296.4869 A3.75,3.75 0 0 1 151.928,298.9869 L158.928,318.7838 L547.22,318.7838 A2.5,2.5 0 0 1 549.72,321.2838 L549.72,422.8769 A2.5,2.5 0 0 1 547.22,425.3769 L111.22,425.3769 A2.5,2.5 0 0 1 108.72,422.8769 L108.72,298.9869 A2.5,2.5 0 0 1 111.22,296.4869" fill="#EDE7F6" style="stroke:#000000;stroke-width:1.5;"/><line style="stroke:#000000;stroke-width:1.5;" x1="108.72" x2="158.928" y1="318.7838" y2="318.7838"/><text fill="#000000" font-family="sans-serif" font-size="14" font-weight="bold" lengthAdjust="spacing" textLength="37.208" x="112.72" y="311.482">Data</text></g><!--entity t1--><g class="entity" data-qualified-name="ECS Fargate .2 tasks..t1" data-source-line="10" id="ent0004"><rect fill="#FF9900" height="52.5938" rx="2.5" ry="2.5" style="stroke:#181818;stroke-width:0.5;" width="132.6494" x="79.4" y="178.8869"/><text fill="#000000" font-family="sans-serif" font-size="14" lengthAdjust="spacing" textLength="45.8896" x="122.7799" y="201.882">Task 1</text><text fill="#000000" font-family="sans-serif" font-size="14" lengthAdjust="spacing" textLength="112.6494" x="89.4" y="218.1789">(0.5 vCPU, 1GB)</text></g><!--entity t2--><g class="entity" data-qualified-name="ECS Fargate .2 tasks..t2" data-source-line="11" id="ent0005"><rect fill="#FF9900" height="52.5938" rx="2.5" ry="2.5" style="stroke:#181818;stroke-width:0.5;" width="132.6494" x="247.4" y="178.8869"/><text fill="#000000" font-family="sans-serif" font-size="14" lengthAdjust="spacing" textLength="45.8896" x="290.7799" y="201.882">Task 2</text><text fill="#000000" font-family="sans-serif" font-size="14" lengthAdjust="spacing" textLength="112.6494" x="257.4" y="218.1789">(0.5 vCPU, 1GB)</text></g><!--entity db--><g class="entity" data-qualified-name="Data.db" data-source-line="15" id="ent0007"><path d="M428.09,341.4869 C428.09,331.4869 480.7257,331.4869 480.7257,331.4869 C480.7257,331.4869 533.3615,331.4869 533.3615,341.4869 L533.3615,399.3775 C533.3615,409.3775 480.7257,409.3775 480.7257,409.3775 C480.7257,409.3775 428.09,409.3775 428.09,399.3775 L428.09,341.4869" fill="#3B48CC" style="stroke:#181818;stroke-width:0.5;"/><path d="M428.09,341.4869 C428.09,351.4869 480.7257,351.4869 480.7257,351.4869 C480.7257,351.4869 533.3615,351.4869 533.3615,341.4869" fill="none" style="stroke:#181818;stroke-width:0.5;"/><text fill="#000000" font-family="sans-serif" font-size="14" lengthAdjust="spacing" textLength="80.7529" x="440.3493" y="368.482">PostgreSQL</text><text fill="#000000" font-family="sans-serif" font-size="14" lengthAdjust="spacing" textLength="85.2715" x="438.09" y="384.7789">t4g.medium</text><text fill="#000000" font-family="sans-serif" font-size="14" lengthAdjust="spacing" textLength="54.3457" x="453.5529" y="401.0757">Primary</text></g><!--entity replica--><g class="entity" data-qualified-name="Data.replica" data-source-line="16" id="ent0008"><path d="M281.95,349.6369 C281.95,339.6369 337.72,339.6369 337.72,339.6369 C337.72,339.6369 393.49,339.6369 393.49,349.6369 L393.49,391.2306 C393.49,401.2306 337.72,401.2306 337.72,401.2306 C337.72,401.2306 281.95,401.2306 281.95,391.2306 L281.95,349.6369" fill="#3B48CC" style="stroke:#181818;stroke-width:0.5;"/><path d="M281.95,349.6369 C281.95,359.6369 337.72,359.6369 337.72,359.6369 C337.72,359.6369 393.49,359.6369 393.49,349.6369" fill="none" style="stroke:#181818;stroke-width:0.5;"/><text fill="#000000" font-family="sans-serif" font-size="14" lengthAdjust="spacing" textLength="80.7529" x="297.3436" y="376.632">PostgreSQL</text><text fill="#000000" font-family="sans-serif" font-size="14" lengthAdjust="spacing" textLength="91.54" x="291.95" y="392.9289">Read Replica</text></g><!--entity cache--><g class="entity" data-qualified-name="Data.cache" data-source-line="17" id="ent0009"><path d="M124.7,341.4869 C124.7,331.4869 185.7234,331.4869 185.7234,331.4869 C185.7234,331.4869 246.7469,331.4869 246.7469,341.4869 L246.7469,399.3775 C246.7469,409.3775 185.7234,409.3775 185.7234,409.3775 C185.7234,409.3775 124.7,409.3775 124.7,399.3775 L124.7,341.4869" fill="#3B48CC" style="stroke:#181818;stroke-width:0.5;"/><path d="M124.7,341.4869 C124.7,351.4869 185.7234,351.4869 185.7234,351.4869 C185.7234,351.4869 246.7469,351.4869 246.7469,341.4869" fill="none" style="stroke:#181818;stroke-width:0.5;"/><text fill="#000000" font-family="sans-serif" font-size="14" lengthAdjust="spacing" textLength="38.4111" x="166.5179" y="368.482">Redis</text><text fill="#000000" font-family="sans-serif" font-size="14" lengthAdjust="spacing" textLength="102.0469" x="134.7" y="384.7789">cache.t3.small</text><text fill="#000000" font-family="sans-serif" font-size="14" lengthAdjust="spacing" textLength="29.3604" x="171.0433" y="401.0757">1GB</text></g><!--entity alb--><g class="entity" data-qualified-name="alb" data-source-line="7" id="ent0002"><rect fill="#ED7100" height="52.5938" rx="2.5" ry="2.5" style="stroke:#181818;stroke-width:0.5;" width="112.9004" x="172.27" y="44.2969"/><text fill="#000000" font-family="sans-serif" font-size="14" lengthAdjust="spacing" textLength="26.9814" x="215.2295" y="67.292">ALB</text><text fill="#000000" font-family="sans-serif" font-size="14" lengthAdjust="spacing" textLength="92.9004" x="182.27" y="83.5889">(round-robin)</text></g><!--entity sqs--><g class="entity" data-qualified-name="sqs" data-source-line="20" id="ent0010"><path d="M40.33,357.2869 L79.123,357.2869 C84.123,357.2869 84.123,370.4353 84.123,370.4353 C84.123,370.4353 84.123,383.5838 79.123,383.5838 L40.33,383.5838 C35.33,383.5838 35.33,370.4353 35.33,370.4353 C35.33,370.4353 35.33,357.2869 40.33,357.2869" fill="#FF4F8B" style="stroke:#181818;stroke-width:0.5;"/><path d="M79.123,357.2869 C74.123,357.2869 74.123,370.4353 74.123,370.4353 C74.123,383.5838 79.123,383.5838 79.123,383.5838" fill="none" style="stroke:#181818;stroke-width:0.5;"/><text fill="#000000" font-family="sans-serif" font-size="14" lengthAdjust="spacing" textLength="28.793" x="40.33" y="375.282">SQS</text></g><!--entity lambda--><g class="entity" data-qualified-name="lambda" data-source-line="21" id="ent0011"><rect fill="#FF9900" height="36.2969" rx="2.5" ry="2.5" style="stroke:#181818;stroke-width:0.5;" width="105.4492" x="7" y="489.4969"/><text fill="#000000" font-family="sans-serif" font-size="14" lengthAdjust="spacing" textLength="85.4492" x="17" y="512.492">Lambda (AI)</text></g><g class="entity" data-qualified-name="GMN23" data-source-line="36" id="ent0024"><path d="M244.57,472.3769 L244.57,542.9081 A0,0 0 0 0 244.57,542.9081 L430.8757,542.9081 A0,0 0 0 0 430.8757,542.9081 L430.8757,482.3769 L420.8757,472.3769 L341.72,472.3769 L337.72,401.4369 L333.72,472.3769 L244.57,472.3769 A0,0 0 0 0 244.57,472.3769" fill="#FEFFDD" style="stroke:#181818;stroke-width:0.5;"/><path d="M420.8757,472.3769 L420.8757,482.3769 L430.8757,482.3769 L420.8757,472.3769" fill="#FEFFDD" style="stroke:#181818;stroke-width:0.5;"/><text fill="#000000" font-family="sans-serif" font-size="13" lengthAdjust="spacing" textLength="137.1094" x="264.6681" y="489.4438">Read replica offloads</text><text fill="#000000" font-family="sans-serif" font-size="13" lengthAdjust="spacing" textLength="165.3057" x="250.57" y="504.5766">search &amp; browse queries.</text><text fill="#000000" font-family="sans-serif" font-size="13" lengthAdjust="spacing" textLength="143.165" x="261.6403" y="519.7094">PgBouncer sidecar for</text><text fill="#000000" font-family="sans-serif" font-size="13" lengthAdjust="spacing" textLength="127.7656" x="269.34" y="534.8422">connection pooling.</text></g><!--link alb to t1--><g class="link" data-entity-1="ent0002" data-entity-2="ent0004" data-link-type="dependency" data-source-line="23" id="lnk12"><path d="M212.72,97.1569 C198.02,120.6369 179.5437,150.1612 164.8637,173.6112" fill="none" id="alb-to-t1" style="stroke:#181818;stroke-width:1;"/><polygon fill="#181818" points="161.68,178.6969,169.846,173.1908,164.3331,174.4588,163.0651,168.9459,161.68,178.6969" style="stroke:#181818;stroke-width:1;"/></g><!--link alb to t2--><g class="link" data-entity-1="ent0002" data-entity-2="ent0005" data-link-type="dependency" data-source-line="24" id="lnk13"><path d="M245.11,97.1569 C260.17,120.6369 279.1108,150.1964 294.1508,173.6464" fill="none" id="alb-to-t2" style="stroke:#181818;stroke-width:1;"/><polygon fill="#181818" points="297.39,178.6969,295.8982,168.9617,294.6907,174.4881,289.1642,173.2806,297.39,178.6969" style="stroke:#181818;stroke-width:1;"/></g><!--link t1 to db--><g class="link" data-entity-1="ent0004" data-entity-2="ent0007" data-link-type="dependency" data-source-line="25" id="lnk14"><path d="M182.71,231.9469 C196.85,240.6769 213.48,249.6869 229.72,255.4869 C251.33,263.2069 258.96,256.2269 280.72,263.4869 C296,268.5769 297.27,275.9569 312.72,280.4869 C333.69,286.6269 391.24,278.5969 410.72,288.4869 C429.61,298.0669 441.986,310.3475 453.866,326.3675" fill="none" id="t1-to-db" style="stroke:#181818;stroke-width:1;"/><polygon fill="#181818" points="457.44,331.1869,455.292,321.5751,454.4617,327.1707,448.8661,326.3404,457.44,331.1869" style="stroke:#181818;stroke-width:1;"/><text fill="#000000" font-family="sans-serif" font-size="13" lengthAdjust="spacing" textLength="41.6787" x="313.72" y="276.5538">Writes</text></g><!--link t2 to db--><g class="link" data-entity-1="ent0005" data-entity-2="ent0007" data-link-type="dependency" data-source-line="26" id="lnk15"><path d="M372.37,231.9669 C387.91,240.5469 403.91,251.1269 416.72,263.4869 C436.6,282.6569 449.9214,303.9281 460.9814,325.6881" fill="none" id="t2-to-db" style="stroke:#181818;stroke-width:1;"/><polygon fill="#181818" points="463.7,331.0369,463.1879,321.2013,461.4345,326.5796,456.0562,324.8262,463.7,331.0369" style="stroke:#181818;stroke-width:1;"/><text fill="#000000" font-family="sans-serif" font-size="13" lengthAdjust="spacing" textLength="41.6787" x="430.72" y="276.5538">Writes</text></g><!--link t1 to replica--><g class="link" data-entity-1="ent0004" data-entity-2="ent0008" data-link-type="dependency" data-source-line="27" id="lnk16"><path d="M170.41,231.9169 C187.17,248.0069 210.6,267.9869 234.72,280.4869 C246.98,286.8369 252.95,281.2869 264.72,288.4869 C285.71,301.3169 300.5777,317.2112 313.6977,334.4612" fill="none" id="t1-to-replica" style="stroke:#181818;stroke-width:1;"/><polygon fill="#181818" points="317.33,339.2369,315.0654,329.6519,314.3031,335.2572,308.6979,334.4949,317.33,339.2369" style="stroke:#181818;stroke-width:1;"/><text fill="#000000" font-family="sans-serif" font-size="13" lengthAdjust="spacing" textLength="40.022" x="235.72" y="276.5538">Reads</text></g><!--link t2 to replica--><g class="link" data-entity-1="ent0005" data-entity-2="ent0008" data-link-type="dependency" data-source-line="28" id="lnk17"><path d="M342.95,231.7369 C351.3,240.8269 359.32,251.7369 363.72,263.4869 C373.03,288.3069 366.8671,312.2021 357.1171,333.7121" fill="none" id="t2-to-replica" style="stroke:#181818;stroke-width:1;"/><polygon fill="#181818" points="354.64,339.1769,361.9988,332.631,356.7042,334.6229,354.7124,329.3283,354.64,339.1769" style="stroke:#181818;stroke-width:1;"/><text fill="#000000" font-family="sans-serif" font-size="13" lengthAdjust="spacing" textLength="40.022" x="367.72" y="276.5538">Reads</text></g><!--link t1 to cache--><g class="link" data-entity-1="ent0004" data-entity-2="ent0009" data-link-type="dependency" data-source-line="29" id="lnk18"><path d="M146.98,231.8869 C148.06,246.3069 150.06,264.5569 153.72,280.4869 C157.63,297.4369 161.6614,309.9871 167.5314,325.4571" fill="none" id="t1-to-cache" style="stroke:#181818;stroke-width:1;"/><polygon fill="#181818" points="169.66,331.0669,170.207,321.2332,167.8862,326.3921,162.7273,324.0713,169.66,331.0669" style="stroke:#181818;stroke-width:1;"/></g><!--link t2 to cache--><g class="link" data-entity-1="ent0005" data-entity-2="ent0009" data-link-type="dependency" data-source-line="30" id="lnk19"><path d="M293.72,231.6969 C272.84,258.3269 243.552,295.6851 219.522,326.3351" fill="none" id="t2-to-cache" style="stroke:#181818;stroke-width:1;"/><polygon fill="#181818" points="215.82,331.0569,224.5208,326.4421,218.905,327.122,218.2251,321.5062,215.82,331.0569" style="stroke:#181818;stroke-width:1;"/></g><!--link t1 to sqs--><g class="link" data-entity-1="ent0004" data-entity-2="ent0010" data-link-type="dependency" data-source-line="31" id="lnk20"><path d="M132.29,231.6969 C113.58,267.2069 83.1955,324.8679 69.1255,351.5879" fill="none" id="t1-to-sqs" style="stroke:#181818;stroke-width:1;"/><polygon fill="#181818" points="66.33,356.8969,74.0626,350.7971,68.6596,352.4728,66.984,347.0698,66.33,356.8969" style="stroke:#181818;stroke-width:1;"/></g><!--link t2 to sqs--><g class="link" data-entity-1="ent0005" data-entity-2="ent0010" data-link-type="dependency" data-source-line="32" id="lnk21"><path d="M275.12,231.7869 C261.23,240.1969 245.17,249.0369 229.72,255.4869 C216.87,260.8569 119.84,280.0769 108.72,288.4869 C85.14,306.3169 72.5695,333.4588 65.9595,351.3488" fill="none" id="t2-to-sqs" style="stroke:#181818;stroke-width:1;"/><polygon fill="#181818" points="63.88,356.9769,70.7513,349.921,65.6129,352.2868,63.2471,347.1484,63.88,356.9769" style="stroke:#181818;stroke-width:1;"/></g><!--link sqs to lambda--><g class="link" data-entity-1="ent0010" data-entity-2="ent0011" data-link-type="dependency" data-source-line="33" id="lnk22"><path d="M59.72,383.9069 C59.72,408.0969 59.72,455.4169 59.72,483.1369" fill="none" id="sqs-to-lambda" style="stroke:#181818;stroke-width:1;"/><polygon fill="#181818" points="59.72,489.1369,63.72,480.1369,59.72,484.1369,55.72,480.1369,59.72,489.1369" style="stroke:#181818;stroke-width:1;"/></g><?plantuml-src TLFRRjf047tVhnX1LH4fk3OX3V1GYPkhIbGYE55VU1dRYrcntYMxIzEeQfMFo1VsIpfUrmI9viKQpvmpC-TuR7T2xT5W2IbckyBeWygdMce3ZrlXEBF7UgRBlLPSkSGzIGw6PmvL8KyXET_WGRex_iEDfIXKIMZ8wC4DOquueYKPIg4AI1mMV0HHk8Elutluy_m2iJ3MUG27pkztqUKW33-K-eAnuoneZHUJjUhuDRj6fq9Tj00je4oXFP_TH678s9wKK7TepQS9n6WATDIn1mxjpXA-FH_4r_CX_6JmgWfQTrI6YBg7mJLydoxlBo7wFAdxkmZQSJmSKljpJkyDJk_8-NMor0mTLZlCvZVnHxz3JfaKBTMMshh2yEHsiLQkNmGbpyMXNAkb4IMQ9zys9wLNa_vWEdsJkkAOmuhlfSZGSqmT_vUueXbshJBCjZnmLu4jKSgr8XcUwlD78WbvEF03qPBRnDVjWwrazkF1X9qOiy0opH4wuo-r6R9-RmnXrGVhTZ-HiQzXZv7DLKGIH_3DqFrPHYwUfMfK8se4bTuZyYnTexsE1lFlfQwGWYPVXPMWAgutPanfkfvKEwTBq9kcFLdeNMwcwSr6wceSWELeiYsyXzJeHtAO33E2su1Aos92bvjn0rRaF4C36styHIb5DowqWhtMrGyICAvog6R_1G00?></g></svg>