<?plantuml 1.2026.1?><svg xmlns="http://www.w3.org/2000/svg" xmlns:xlink="http://www.w3.org/1999/xlink" contentStyleType="text/css" data-diagram-type="WBS" height="1341px" preserveAspectRatio="none" style="width:926px;height:1341px;background:#FFFFFF;" version="1.1" viewBox="0 0 926 1341" width="926px" zoomAndPan="magnify"><title>TourLens &#8212; Work Breakdown Structure</title><defs/><g><g class="title" data-source-line="1"><text fill="#000000" font-family="sans-serif" font-size="14" font-weight="bold" lengthAdjust="spacing" textLength="310.8984" x="286.751" y="32.9951">TourLens &#8212; Work Breakdown Structure</text></g><line style="stroke:#181818;stroke-width:1.5;" x1="67.4434" x2="67.4434" y1="101.2656" y2="121.2656"/><rect fill="#F1F1F1" height="33.9688" style="stroke:#181818;stroke-width:1.5;" width="114.8867" x="10" y="121.2656"/><text fill="#000000" font-family="sans-serif" font-size="12" lengthAdjust="spacing" textLength="94.8867" x="20" y="142.4043">POC (2 months)</text><line style="stroke:#181818;stroke-width:1.5;" x1="67.4434" x2="77.4434" y1="187.2188" y2="187.2188"/><rect fill="#F1F1F1" height="33.9688" style="stroke:#181818;stroke-width:1.5;" width="71.7383" x="77.4434" y="170.2344"/><text fill="#000000" font-family="sans-serif" font-size="12" lengthAdjust="spacing" textLength="51.7383" x="87.4434" y="191.373">Backend</text><line style="stroke:#181818;stroke-width:1.5;" x1="113.3125" x2="123.3125" y1="236.1875" y2="236.1875"/><rect fill="#F1F1F1" height="33.9688" style="stroke:#181818;stroke-width:1.5;" width="158.7617" x="123.3125" y="219.2031"/><text fill="#000000" font-family="sans-serif" font-size="12" lengthAdjust="spacing" textLength="138.7617" x="133.3125" y="240.3418">ECS + Terraform setup</text><line style="stroke:#181818;stroke-width:1.5;" x1="113.3125" x2="123.3125" y1="285.1563" y2="285.1563"/><rect fill="#F1F1F1" height="33.9688" style="stroke:#181818;stroke-width:1.5;" width="203.5859" x="123.3125" y="268.1719"/><text fill="#000000" font-family="sans-serif" font-size="12" lengthAdjust="spacing" textLength="183.5859" x="133.3125" y="289.3105">PostgreSQL + PostGIS schema</text><line style="stroke:#181818;stroke-width:1.5;" x1="113.3125" x2="123.3125" y1="334.125" y2="334.125"/><rect fill="#F1F1F1" height="33.9688" style="stroke:#181818;stroke-width:1.5;" width="118.0684" x="123.3125" y="317.1406"/><text fill="#000000" font-family="sans-serif" font-size="12" lengthAdjust="spacing" textLength="98.0684" x="133.3125" y="338.2793">User API (CRUD)</text><line style="stroke:#181818;stroke-width:1.5;" x1="113.3125" x2="123.3125" y1="383.0938" y2="383.0938"/><rect fill="#F1F1F1" height="33.9688" style="stroke:#181818;stroke-width:1.5;" width="134.8672" x="123.3125" y="366.1094"/><text fill="#000000" font-family="sans-serif" font-size="12" lengthAdjust="spacing" textLength="114.8672" x="133.3125" y="387.248">Partner API (CRUD)</text><line style="stroke:#181818;stroke-width:1.5;" x1="113.3125" x2="123.3125" y1="432.0625" y2="432.0625"/><rect fill="#F1F1F1" height="33.9688" style="stroke:#181818;stroke-width:1.5;" width="150.3359" x="123.3125" y="415.0781"/><text fill="#000000" font-family="sans-serif" font-size="12" lengthAdjust="spacing" textLength="130.3359" x="133.3125" y="436.2168">Photo upload pipeline</text><line style="stroke:#181818;stroke-width:1.5;" x1="113.3125" x2="113.3125" y1="204.2031" y2="432.0625"/><line style="stroke:#181818;stroke-width:1.5;" x1="67.4434" x2="77.4434" y1="481.0313" y2="481.0313"/><rect fill="#F1F1F1" height="33.9688" style="stroke:#181818;stroke-width:1.5;" width="82.7891" x="77.4434" y="464.0469"/><text fill="#000000" font-family="sans-serif" font-size="12" lengthAdjust="spacing" textLength="62.7891" x="87.4434" y="485.1855">AI Pipeline</text><line style="stroke:#181818;stroke-width:1.5;" x1="118.8379" x2="128.8379" y1="530" y2="530"/><rect fill="#F1F1F1" height="33.9688" style="stroke:#181818;stroke-width:1.5;" width="180.4121" x="128.8379" y="513.0156"/><text fill="#000000" font-family="sans-serif" font-size="12" lengthAdjust="spacing" textLength="160.4121" x="138.8379" y="534.1543">Lambda + SQS integration</text><line style="stroke:#181818;stroke-width:1.5;" x1="118.8379" x2="128.8379" y1="578.9688" y2="578.9688"/><rect fill="#F1F1F1" height="33.9688" style="stroke:#181818;stroke-width:1.5;" width="171.9395" x="128.8379" y="561.9844"/><text fill="#000000" font-family="sans-serif" font-size="12" lengthAdjust="spacing" textLength="151.9395" x="138.8379" y="583.123">Google Vision integration</text><line style="stroke:#181818;stroke-width:1.5;" x1="118.8379" x2="128.8379" y1="627.9375" y2="627.9375"/><rect fill="#F1F1F1" height="33.9688" style="stroke:#181818;stroke-width:1.5;" width="181.3848" x="128.8379" y="610.9531"/><text fill="#000000" font-family="sans-serif" font-size="12" lengthAdjust="spacing" textLength="161.3848" x="138.8379" y="632.0918">OpenAI GPT-4V integration</text><line style="stroke:#181818;stroke-width:1.5;" x1="118.8379" x2="128.8379" y1="676.9063" y2="676.9063"/><rect fill="#F1F1F1" height="33.9688" style="stroke:#181818;stroke-width:1.5;" width="113.2227" x="128.8379" y="659.9219"/><text fill="#000000" font-family="sans-serif" font-size="12" lengthAdjust="spacing" textLength="93.2227" x="138.8379" y="681.0605">Gemini fallback</text><line style="stroke:#181818;stroke-width:1.5;" x1="118.8379" x2="128.8379" y1="725.875" y2="725.875"/><rect fill="#F1F1F1" height="33.9688" style="stroke:#181818;stroke-width:1.5;" width="154.2441" x="128.8379" y="708.8906"/><text fill="#000000" font-family="sans-serif" font-size="12" lengthAdjust="spacing" textLength="134.2441" x="138.8379" y="730.0293">Result caching (Redis)</text><line style="stroke:#181818;stroke-width:1.5;" x1="118.8379" x2="118.8379" y1="498.0156" y2="725.875"/><line style="stroke:#181818;stroke-width:1.5;" x1="67.4434" x2="77.4434" y1="774.8438" y2="774.8438"/><rect fill="#F1F1F1" height="33.9688" style="stroke:#181818;stroke-width:1.5;" width="40.3965" x="77.4434" y="757.8594"/><text fill="#000000" font-family="sans-serif" font-size="12" lengthAdjust="spacing" textLength="20.3965" x="87.4434" y="778.998">iOS</text><line style="stroke:#181818;stroke-width:1.5;" x1="97.6416" x2="107.6416" y1="823.8125" y2="823.8125"/><rect fill="#F1F1F1" height="33.9688" style="stroke:#181818;stroke-width:1.5;" width="115.877" x="107.6416" y="806.8281"/><text fill="#000000" font-family="sans-serif" font-size="12" lengthAdjust="spacing" textLength="95.877" x="117.6416" y="827.9668">Camera module</text><line style="stroke:#181818;stroke-width:1.5;" x1="97.6416" x2="107.6416" y1="872.7813" y2="872.7813"/><rect fill="#F1F1F1" height="33.9688" style="stroke:#181818;stroke-width:1.5;" width="125.3281" x="107.6416" y="855.7969"/><text fill="#000000" font-family="sans-serif" font-size="12" lengthAdjust="spacing" textLength="105.3281" x="117.6416" y="876.9355">Photo submission</text><line style="stroke:#181818;stroke-width:1.5;" x1="97.6416" x2="107.6416" y1="921.75" y2="921.75"/><rect fill="#F1F1F1" height="33.9688" style="stroke:#181818;stroke-width:1.5;" width="104.041" x="107.6416" y="904.7656"/><text fill="#000000" font-family="sans-serif" font-size="12" lengthAdjust="spacing" textLength="84.041" x="117.6416" y="925.9043">Result display</text><line style="stroke:#181818;stroke-width:1.5;" x1="97.6416" x2="97.6416" y1="791.8281" y2="921.75"/><line style="stroke:#181818;stroke-width:1.5;" x1="67.4434" x2="77.4434" y1="970.7188" y2="970.7188"/><rect fill="#F1F1F1" height="33.9688" style="stroke:#181818;stroke-width:1.5;" width="66.6582" x="77.4434" y="953.7344"/><text fill="#000000" font-family="sans-serif" font-size="12" lengthAdjust="spacing" textLength="46.6582" x="87.4434" y="974.873">Android</text><line style="stroke:#181818;stroke-width:1.5;" x1="110.7725" x2="120.7725" y1="1019.6875" y2="1019.6875"/><rect fill="#F1F1F1" height="33.9688" style="stroke:#181818;stroke-width:1.5;" width="115.877" x="120.7725" y="1002.7031"/><text fill="#000000" font-family="sans-serif" font-size="12" lengthAdjust="spacing" textLength="95.877" x="130.7725" y="1023.8418">Camera module</text><line style="stroke:#181818;stroke-width:1.5;" x1="110.7725" x2="120.7725" y1="1068.6563" y2="1068.6563"/><rect fill="#F1F1F1" height="33.9688" style="stroke:#181818;stroke-width:1.5;" width="125.3281" x="120.7725" y="1051.6719"/><text fill="#000000" font-family="sans-serif" font-size="12" lengthAdjust="spacing" textLength="105.3281" x="130.7725" y="1072.8105">Photo submission</text><line style="stroke:#181818;stroke-width:1.5;" x1="110.7725" x2="120.7725" y1="1117.625" y2="1117.625"/><rect fill="#F1F1F1" height="33.9688" style="stroke:#181818;stroke-width:1.5;" width="104.041" x="120.7725" y="1100.6406"/><text fill="#000000" font-family="sans-serif" font-size="12" lengthAdjust="spacing" textLength="84.041" x="130.7725" y="1121.7793">Result display</text><line style="stroke:#181818;stroke-width:1.5;" x1="110.7725" x2="110.7725" y1="987.7031" y2="1117.625"/><line style="stroke:#181818;stroke-width:1.5;" x1="67.4434" x2="77.4434" y1="1166.5938" y2="1166.5938"/><rect fill="#F1F1F1" height="33.9688" style="stroke:#181818;stroke-width:1.5;" width="67.0391" x="77.4434" y="1149.6094"/><text fill="#000000" font-family="sans-serif" font-size="12" lengthAdjust="spacing" textLength="47.0391" x="87.4434" y="1170.748">DevOps</text><line style="stroke:#181818;stroke-width:1.5;" x1="110.9629" x2="120.9629" y1="1215.5625" y2="1215.5625"/><rect fill="#F1F1F1" height="33.9688" style="stroke:#181818;stroke-width:1.5;" width="156.2012" x="120.9629" y="1198.5781"/><text fill="#000000" font-family="sans-serif" font-size="12" lengthAdjust="spacing" textLength="136.2012" x="130.9629" y="1219.7168">CI/CD (GitHub Actions)</text><line style="stroke:#181818;stroke-width:1.5;" x1="110.9629" x2="120.9629" y1="1264.5313" y2="1264.5313"/><rect fill="#F1F1F1" height="33.9688" style="stroke:#181818;stroke-width:1.5;" width="135.1602" x="120.9629" y="1247.5469"/><text fill="#000000" font-family="sans-serif" font-size="12" lengthAdjust="spacing" textLength="115.1602" x="130.9629" y="1268.6855">Terraform modules</text><line style="stroke:#181818;stroke-width:1.5;" x1="110.9629" x2="120.9629" y1="1313.5" y2="1313.5"/><rect fill="#F1F1F1" height="33.9688" style="stroke:#181818;stroke-width:1.5;" width="166.1621" x="120.9629" y="1296.5156"/><text fill="#000000" font-family="sans-serif" font-size="12" lengthAdjust="spacing" textLength="146.1621" x="130.9629" y="1317.6543">CloudWatch dashboards</text><line style="stroke:#181818;stroke-width:1.5;" x1="110.9629" x2="110.9629" y1="1183.5781" y2="1313.5"/><line style="stroke:#181818;stroke-width:1.5;" x1="67.4434" x2="67.4434" y1="155.2344" y2="1166.5938"/><line style="stroke:#181818;stroke-width:1.5;" x1="404.7109" x2="404.7109" y1="101.2656" y2="121.2656"/><rect fill="#F1F1F1" height="33.9688" style="stroke:#181818;stroke-width:1.5;" width="115.625" x="346.8984" y="121.2656"/><text fill="#000000" font-family="sans-serif" font-size="12" lengthAdjust="spacing" textLength="95.625" x="356.8984" y="142.4043">MVP (2 months)</text><line style="stroke:#181818;stroke-width:1.5;" x1="404.7109" x2="414.7109" y1="187.2188" y2="187.2188"/><rect fill="#F1F1F1" height="33.9688" style="stroke:#181818;stroke-width:1.5;" width="71.7383" x="414.7109" y="170.2344"/><text fill="#000000" font-family="sans-serif" font-size="12" lengthAdjust="spacing" textLength="51.7383" x="424.7109" y="191.373">Backend</text><line style="stroke:#181818;stroke-width:1.5;" x1="450.5801" x2="460.5801" y1="236.1875" y2="236.1875"/><rect fill="#F1F1F1" height="33.9688" style="stroke:#181818;stroke-width:1.5;" width="140.8789" x="460.5801" y="219.2031"/><text fill="#000000" font-family="sans-serif" font-size="12" lengthAdjust="spacing" textLength="120.8789" x="470.5801" y="240.3418">Partner offers CRUD</text><line style="stroke:#181818;stroke-width:1.5;" x1="450.5801" x2="460.5801" y1="285.1563" y2="285.1563"/><rect fill="#F1F1F1" height="33.9688" style="stroke:#181818;stroke-width:1.5;" width="127.6074" x="460.5801" y="268.1719"/><text fill="#000000" font-family="sans-serif" font-size="12" lengthAdjust="spacing" textLength="107.6074" x="470.5801" y="289.3105">Attraction catalog</text><line style="stroke:#181818;stroke-width:1.5;" x1="450.5801" x2="460.5801" y1="334.125" y2="334.125"/><rect fill="#F1F1F1" height="33.9688" style="stroke:#181818;stroke-width:1.5;" width="146.5684" x="460.5801" y="317.1406"/><text fill="#000000" font-family="sans-serif" font-size="12" lengthAdjust="spacing" textLength="126.5684" x="470.5801" y="338.2793">Nearby POI (PostGIS)</text><line style="stroke:#181818;stroke-width:1.5;" x1="450.5801" x2="460.5801" y1="383.0938" y2="383.0938"/><rect fill="#F1F1F1" height="33.9688" style="stroke:#181818;stroke-width:1.5;" width="126.248" x="460.5801" y="366.1094"/><text fill="#000000" font-family="sans-serif" font-size="12" lengthAdjust="spacing" textLength="106.248" x="470.5801" y="387.248">Push notifications</text><line style="stroke:#181818;stroke-width:1.5;" x1="450.5801" x2="450.5801" y1="204.2031" y2="383.0938"/><line style="stroke:#181818;stroke-width:1.5;" x1="404.7109" x2="414.7109" y1="432.0625" y2="432.0625"/><rect fill="#F1F1F1" height="33.9688" style="stroke:#181818;stroke-width:1.5;" width="161.0762" x="414.7109" y="415.0781"/><text fill="#000000" font-family="sans-serif" font-size="12" lengthAdjust="spacing" textLength="141.0762" x="424.7109" y="436.2168">Mobile (both platforms)</text><line style="stroke:#181818;stroke-width:1.5;" x1="495.249" x2="505.249" y1="481.0313" y2="481.0313"/><rect fill="#F1F1F1" height="33.9688" style="stroke:#181818;stroke-width:1.5;" width="118.4609" x="505.249" y="464.0469"/><text fill="#000000" font-family="sans-serif" font-size="12" lengthAdjust="spacing" textLength="98.4609" x="515.249" y="485.1855">Partner offers UI</text><line style="stroke:#181818;stroke-width:1.5;" x1="495.249" x2="505.249" y1="530" y2="530"/><rect fill="#F1F1F1" height="33.9688" style="stroke:#181818;stroke-width:1.5;" width="123.2832" x="505.249" y="513.0156"/><text fill="#000000" font-family="sans-serif" font-size="12" lengthAdjust="spacing" textLength="103.2832" x="515.249" y="534.1543">Attraction details</text><line style="stroke:#181818;stroke-width:1.5;" x1="495.249" x2="505.249" y1="578.9688" y2="578.9688"/><rect fill="#F1F1F1" height="33.9688" style="stroke:#181818;stroke-width:1.5;" width="90.9219" x="505.249" y="561.9844"/><text fill="#000000" font-family="sans-serif" font-size="12" lengthAdjust="spacing" textLength="70.9219" x="515.249" y="583.123">Visit history</text><line style="stroke:#181818;stroke-width:1.5;" x1="495.249" x2="505.249" y1="627.9375" y2="627.9375"/><rect fill="#F1F1F1" height="33.9688" style="stroke:#181818;stroke-width:1.5;" width="129.7461" x="505.249" y="610.9531"/><text fill="#000000" font-family="sans-serif" font-size="12" lengthAdjust="spacing" textLength="109.7461" x="515.249" y="632.0918">Offline data cache</text><line style="stroke:#181818;stroke-width:1.5;" x1="495.249" x2="495.249" y1="449.0469" y2="627.9375"/><line style="stroke:#181818;stroke-width:1.5;" x1="404.7109" x2="414.7109" y1="676.9063" y2="676.9063"/><rect fill="#F1F1F1" height="33.9688" style="stroke:#181818;stroke-width:1.5;" width="37.6543" x="414.7109" y="659.9219"/><text fill="#000000" font-family="sans-serif" font-size="12" lengthAdjust="spacing" textLength="17.6543" x="424.7109" y="681.0605">QA</text><line style="stroke:#181818;stroke-width:1.5;" x1="433.5381" x2="443.5381" y1="725.875" y2="725.875"/><rect fill="#F1F1F1" height="33.9688" style="stroke:#181818;stroke-width:1.5;" width="119.2344" x="443.5381" y="708.8906"/><text fill="#000000" font-family="sans-serif" font-size="12" lengthAdjust="spacing" textLength="99.2344" x="453.5381" y="730.0293">Integration tests</text><line style="stroke:#181818;stroke-width:1.5;" x1="433.5381" x2="443.5381" y1="774.8438" y2="774.8438"/><rect fill="#F1F1F1" height="33.9688" style="stroke:#181818;stroke-width:1.5;" width="94.4141" x="443.5381" y="757.8594"/><text fill="#000000" font-family="sans-serif" font-size="12" lengthAdjust="spacing" textLength="74.4141" x="453.5381" y="778.998">Load testing</text><line style="stroke:#181818;stroke-width:1.5;" x1="433.5381" x2="443.5381" y1="823.8125" y2="823.8125"/><rect fill="#F1F1F1" height="33.9688" style="stroke:#181818;stroke-width:1.5;" width="110.6035" x="443.5381" y="806.8281"/><text fill="#000000" font-family="sans-serif" font-size="12" lengthAdjust="spacing" textLength="90.6035" x="453.5381" y="827.9668">App Store prep</text><line style="stroke:#181818;stroke-width:1.5;" x1="433.5381" x2="433.5381" y1="693.8906" y2="823.8125"/><line style="stroke:#181818;stroke-width:1.5;" x1="404.7109" x2="404.7109" y1="155.2344" y2="676.9063"/><line style="stroke:#181818;stroke-width:1.5;" x1="710.4961" x2="710.4961" y1="101.2656" y2="121.2656"/><rect fill="#F1F1F1" height="33.9688" style="stroke:#181818;stroke-width:1.5;" width="111.002" x="654.9951" y="121.2656"/><text fill="#000000" font-family="sans-serif" font-size="12" lengthAdjust="spacing" textLength="91.002" x="664.9951" y="142.4043">Full (4 months)</text><line style="stroke:#181818;stroke-width:1.5;" x1="710.4961" x2="720.4961" y1="187.2188" y2="187.2188"/><rect fill="#F1F1F1" height="33.9688" style="stroke:#181818;stroke-width:1.5;" width="71.7383" x="720.4961" y="170.2344"/><text fill="#000000" font-family="sans-serif" font-size="12" lengthAdjust="spacing" textLength="51.7383" x="730.4961" y="191.373">Backend</text><line style="stroke:#181818;stroke-width:1.5;" x1="756.3652" x2="766.3652" y1="236.1875" y2="236.1875"/><rect fill="#F1F1F1" height="33.9688" style="stroke:#181818;stroke-width:1.5;" width="119.1113" x="766.3652" y="219.2031"/><text fill="#000000" font-family="sans-serif" font-size="12" lengthAdjust="spacing" textLength="99.1113" x="776.3652" y="240.3418">Stripe payments</text><line style="stroke:#181818;stroke-width:1.5;" x1="756.3652" x2="766.3652" y1="285.1563" y2="285.1563"/><rect fill="#F1F1F1" height="33.9688" style="stroke:#181818;stroke-width:1.5;" width="149.0352" x="766.3652" y="268.1719"/><text fill="#000000" font-family="sans-serif" font-size="12" lengthAdjust="spacing" textLength="129.0352" x="776.3652" y="289.3105">Loyalty points engine</text><line style="stroke:#181818;stroke-width:1.5;" x1="756.3652" x2="766.3652" y1="334.125" y2="334.125"/><rect fill="#F1F1F1" height="33.9688" style="stroke:#181818;stroke-width:1.5;" width="132.3301" x="766.3652" y="317.1406"/><text fill="#000000" font-family="sans-serif" font-size="12" lengthAdjust="spacing" textLength="112.3301" x="776.3652" y="338.2793">Multi-language API</text><line style="stroke:#181818;stroke-width:1.5;" x1="756.3652" x2="756.3652" y1="204.2031" y2="334.125"/><line style="stroke:#181818;stroke-width:1.5;" x1="710.4961" x2="720.4961" y1="383.0938" y2="383.0938"/><rect fill="#F1F1F1" height="33.9688" style="stroke:#181818;stroke-width:1.5;" width="40.3965" x="720.4961" y="366.1094"/><text fill="#000000" font-family="sans-serif" font-size="12" lengthAdjust="spacing" textLength="20.3965" x="730.4961" y="387.248">iOS</text><line style="stroke:#181818;stroke-width:1.5;" x1="740.6943" x2="750.6943" y1="432.0625" y2="432.0625"/><rect fill="#F1F1F1" height="33.9688" style="stroke:#181818;stroke-width:1.5;" width="95.4629" x="750.6943" y="415.0781"/><text fill="#000000" font-family="sans-serif" font-size="12" lengthAdjust="spacing" textLength="75.4629" x="760.6943" y="436.2168">Payments UI</text><line style="stroke:#181818;stroke-width:1.5;" x1="740.6943" x2="750.6943" y1="481.0313" y2="481.0313"/><rect fill="#F1F1F1" height="33.9688" style="stroke:#181818;stroke-width:1.5;" width="131.1289" x="750.6943" y="464.0469"/><text fill="#000000" font-family="sans-serif" font-size="12" lengthAdjust="spacing" textLength="111.1289" x="760.6943" y="485.1855">Loyalty dashboard</text><line style="stroke:#181818;stroke-width:1.5;" x1="740.6943" x2="750.6943" y1="530" y2="530"/><rect fill="#F1F1F1" height="33.9688" style="stroke:#181818;stroke-width:1.5;" width="97.3965" x="750.6943" y="513.0156"/><text fill="#000000" font-family="sans-serif" font-size="12" lengthAdjust="spacing" textLength="77.3965" x="760.6943" y="534.1543">Offline mode</text><line style="stroke:#181818;stroke-width:1.5;" x1="740.6943" x2="740.6943" y1="400.0781" y2="530"/><line style="stroke:#181818;stroke-width:1.5;" x1="710.4961" x2="720.4961" y1="578.9688" y2="578.9688"/><rect fill="#F1F1F1" height="33.9688" style="stroke:#181818;stroke-width:1.5;" width="66.6582" x="720.4961" y="561.9844"/><text fill="#000000" font-family="sans-serif" font-size="12" lengthAdjust="spacing" textLength="46.6582" x="730.4961" y="583.123">Android</text><line style="stroke:#181818;stroke-width:1.5;" x1="753.8252" x2="763.8252" y1="627.9375" y2="627.9375"/><rect fill="#F1F1F1" height="33.9688" style="stroke:#181818;stroke-width:1.5;" width="95.4629" x="763.8252" y="610.9531"/><text fill="#000000" font-family="sans-serif" font-size="12" lengthAdjust="spacing" textLength="75.4629" x="773.8252" y="632.0918">Payments UI</text><line style="stroke:#181818;stroke-width:1.5;" x1="753.8252" x2="763.8252" y1="676.9063" y2="676.9063"/><rect fill="#F1F1F1" height="33.9688" style="stroke:#181818;stroke-width:1.5;" width="131.1289" x="763.8252" y="659.9219"/><text fill="#000000" font-family="sans-serif" font-size="12" lengthAdjust="spacing" textLength="111.1289" x="773.8252" y="681.0605">Loyalty dashboard</text><line style="stroke:#181818;stroke-width:1.5;" x1="753.8252" x2="763.8252" y1="725.875" y2="725.875"/><rect fill="#F1F1F1" height="33.9688" style="stroke:#181818;stroke-width:1.5;" width="97.3965" x="763.8252" y="708.8906"/><text fill="#000000" font-family="sans-serif" font-size="12" lengthAdjust="spacing" textLength="77.3965" x="773.8252" y="730.0293">Offline mode</text><line style="stroke:#181818;stroke-width:1.5;" x1="753.8252" x2="753.8252" y1="595.9531" y2="725.875"/><line style="stroke:#181818;stroke-width:1.5;" x1="710.4961" x2="720.4961" y1="774.8438" y2="774.8438"/><rect fill="#F1F1F1" height="33.9688" style="stroke:#181818;stroke-width:1.5;" width="67.0391" x="720.4961" y="757.8594"/><text fill="#000000" font-family="sans-serif" font-size="12" lengthAdjust="spacing" textLength="47.0391" x="730.4961" y="778.998">DevOps</text><line style="stroke:#181818;stroke-width:1.5;" x1="754.0156" x2="764.0156" y1="823.8125" y2="823.8125"/><rect fill="#F1F1F1" height="33.9688" style="stroke:#181818;stroke-width:1.5;" width="132.5938" x="764.0156" y="806.8281"/><text fill="#000000" font-family="sans-serif" font-size="12" lengthAdjust="spacing" textLength="112.5938" x="774.0156" y="827.9668">US prod hardening</text><line style="stroke:#181818;stroke-width:1.5;" x1="754.0156" x2="764.0156" y1="872.7813" y2="872.7813"/><rect fill="#F1F1F1" height="33.9688" style="stroke:#181818;stroke-width:1.5;" width="121.9473" x="764.0156" y="855.7969"/><text fill="#000000" font-family="sans-serif" font-size="12" lengthAdjust="spacing" textLength="101.9473" x="774.0156" y="876.9355">Monitoring alerts</text><line style="stroke:#181818;stroke-width:1.5;" x1="754.0156" x2="754.0156" y1="791.8281" y2="872.7813"/><line style="stroke:#181818;stroke-width:1.5;" x1="710.4961" x2="710.4961" y1="155.2344" y2="774.8438"/><line style="stroke:#181818;stroke-width:1.5;" x1="67.4434" x2="710.4961" y1="101.2656" y2="101.2656"/><rect fill="#F1F1F1" height="33.9688" style="stroke:#181818;stroke-width:1.5;" width="200.7324" x="288.6035" y="47.2969"/><text fill="#000000" font-family="sans-serif" font-size="12" lengthAdjust="spacing" textLength="180.7324" x="298.6035" y="68.4355">Option 2: Validate + Monetize</text><line style="stroke:#181818;stroke-width:1.5;" x1="388.9697" x2="388.9697" y1="81.2656" y2="101.2656"/><?plantuml-src fPJ1Rjim38RlUGeUampjrg3OOQUcoPO5I1UtRj8pRT6sK5ao97f5Tjf3x0dt9ALY9stHReVjPeaIgV_dHry4HiyFMHYmPaDmwrg_8XlWzyzVSEVyFLnwmdlb7YoaxDkSMq-3mHZM3MjdOV89jcYqGYPu1rVE4kiVD1YF8LdFO3Y1sbckmaXsnd29-JrP5R_7y7cMoerRyXuBvsi8n6tJXH8NkFIKNg_aH5mibYc4lA8QkmERG1wcoHA6ivlDVDJV4Y7shVtAiOEsCGuLDBeXeotjtpDTGl9iFOOLrfb2APfUfw0jK-anokoY2-TAiMYhGrJ-Ahnko4h6HN9xShvzupRLsceeq9XCVEWsRoYqXY77lDAsXE4DATsRfTTfTsQ6DNaK8rLhwBcaq6Qr3k5OeKyc6Hg3kqwXLTvfzV-9vlHztOG-p_BzR0x3XUQlRGRJF6eClTbF_UpA7AuOrwexvBm2XQ7A77eLGt2rJVvAoQ6fhYZ81uXjxG9JPe_xqk8Uet5bj_-Dq6SxeKyWwD4vSD262gnZNUXytvVzsuJPJ4jNXvdZ2aGlnzU7qPlbDyjNnHKnQjFBZ6WmL3gmyxkUYgA8V8bindsVE_Ikfrru-OG9C0Nk4wqYgt4jLFGbcqO6q7c2nbES4_ZI6WF3ypzx9_CgT4E3kvhiK-OT6jv1uuJG06JB8_rNqdHzOj2MBPOKv-WbY4cVw6Z38TUnfIyb2m7qci9_pl8SmKqgDZW5bHmdUpH9_ZzQF8gZX8QyQBuGD-BVRN1sElam-NXwzWW0?></g></svg>