<?plantuml 1.2026.1?><svg xmlns="http://www.w3.org/2000/svg" xmlns:xlink="http://www.w3.org/1999/xlink" contentStyleType="text/css" data-diagram-type="MINDMAP" height="1635px" preserveAspectRatio="none" style="width:799px;height:1635px;background:#FFFFFF;" version="1.1" viewBox="0 0 799 1635" width="799px" zoomAndPan="magnify"><title>TourLens &#8212; Option 2 Features</title><defs/><g><g class="title" data-source-line="1"><text fill="#000000" font-family="sans-serif" font-size="14" font-weight="bold" lengthAdjust="spacing" textLength="238.8887" x="278.5957" y="32.9951">TourLens &#8212; Option 2 Features</text></g><rect fill="#F1F1F1" height="36.2969" rx="12.5" ry="12.5" style="stroke:#181818;stroke-width:1.5;" width="84.3262" x="10" y="817.3047"/><text fill="#000000" font-family="sans-serif" font-size="14" lengthAdjust="spacing" textLength="64.3262" x="20" y="840.2998">TourLens</text><rect fill="#F1F1F1" height="36.2969" rx="12.5" ry="12.5" style="stroke:#181818;stroke-width:1.5;" width="164.293" x="144.3262" y="423.2266"/><text fill="#000000" font-family="sans-serif" font-size="14" lengthAdjust="spacing" textLength="144.293" x="154.3262" y="446.2217">Phase 1: POC + MVP</text><rect fill="#F1F1F1" height="36.2969" rx="12.5" ry="12.5" style="stroke:#181818;stroke-width:1.5;" width="121.2266" x="358.6191" y="169.8906"/><text fill="#000000" font-family="sans-serif" font-size="14" lengthAdjust="spacing" textLength="101.2266" x="368.6191" y="192.8857">AI Recognition</text><rect fill="#F1F1F1" height="36.2969" rx="12.5" ry="12.5" style="stroke:#181818;stroke-width:1.5;" width="234.6963" x="529.8457" y="57.2969"/><text fill="#000000" font-family="sans-serif" font-size="14" lengthAdjust="spacing" textLength="214.6963" x="539.8457" y="80.292">Photo capture (native camera)</text><path d="M479.8457,188.0391 L489.8457,188.0391 C504.8457,188.0391 504.8457,75.4453 519.8457,75.4453 L529.8457,75.4453" fill="none" style="stroke:#181818;stroke-width:1;"/><rect fill="#F1F1F1" height="36.2969" rx="12.5" ry="12.5" style="stroke:#181818;stroke-width:1.5;" width="257.2344" x="529.8457" y="113.5938"/><text fill="#000000" font-family="sans-serif" font-size="14" lengthAdjust="spacing" textLength="237.2344" x="539.8457" y="136.5889">Google Vision landmark detection</text><path d="M479.8457,188.0391 L489.8457,188.0391 C504.8457,188.0391 504.8457,131.7422 519.8457,131.7422 L529.8457,131.7422" fill="none" style="stroke:#181818;stroke-width:1;"/><rect fill="#F1F1F1" height="36.2969" rx="12.5" ry="12.5" style="stroke:#181818;stroke-width:1.5;" width="216.5127" x="529.8457" y="169.8906"/><text fill="#000000" font-family="sans-serif" font-size="14" lengthAdjust="spacing" textLength="196.5127" x="539.8457" y="192.8857">OpenAI GPT-4V descriptions</text><path d="M479.8457,188.0391 L489.8457,188.0391 C504.8457,188.0391 504.8457,188.0391 519.8457,188.0391 L529.8457,188.0391" fill="none" style="stroke:#181818;stroke-width:1;"/><rect fill="#F1F1F1" height="36.2969" rx="12.5" ry="12.5" style="stroke:#181818;stroke-width:1.5;" width="128.7598" x="529.8457" y="226.1875"/><text fill="#000000" font-family="sans-serif" font-size="14" lengthAdjust="spacing" textLength="108.7598" x="539.8457" y="249.1826">Gemini fallback</text><path d="M479.8457,188.0391 L489.8457,188.0391 C504.8457,188.0391 504.8457,244.3359 519.8457,244.3359 L529.8457,244.3359" fill="none" style="stroke:#181818;stroke-width:1;"/><rect fill="#F1F1F1" height="36.2969" rx="12.5" ry="12.5" style="stroke:#181818;stroke-width:1.5;" width="168.5176" x="529.8457" y="282.4844"/><text fill="#000000" font-family="sans-serif" font-size="14" lengthAdjust="spacing" textLength="148.5176" x="539.8457" y="305.4795">Audio playback (TTS)</text><path d="M479.8457,188.0391 L489.8457,188.0391 C504.8457,188.0391 504.8457,300.6328 519.8457,300.6328 L529.8457,300.6328" fill="none" style="stroke:#181818;stroke-width:1;"/><path d="M308.6191,441.375 L318.6191,441.375 C333.6191,441.375 333.6191,188.0391 348.6191,188.0391 L358.6191,188.0391" fill="none" style="stroke:#181818;stroke-width:1;"/><rect fill="#F1F1F1" height="36.2969" rx="12.5" ry="12.5" style="stroke:#181818;stroke-width:1.5;" width="148.584" x="358.6191" y="395.0781"/><text fill="#000000" font-family="sans-serif" font-size="14" lengthAdjust="spacing" textLength="128.584" x="368.6191" y="418.0732">User Management</text><rect fill="#F1F1F1" height="36.2969" rx="12.5" ry="12.5" style="stroke:#181818;stroke-width:1.5;" width="224.8389" x="557.2031" y="338.7813"/><text fill="#000000" font-family="sans-serif" font-size="14" lengthAdjust="spacing" textLength="204.8389" x="567.2031" y="361.7764">Cognito auth (email + social)</text><path d="M507.2031,413.2266 L517.2031,413.2266 C532.2031,413.2266 532.2031,356.9297 547.2031,356.9297 L557.2031,356.9297" fill="none" style="stroke:#181818;stroke-width:1;"/><rect fill="#F1F1F1" height="36.2969" rx="12.5" ry="12.5" style="stroke:#181818;stroke-width:1.5;" width="108.1836" x="557.2031" y="395.0781"/><text fill="#000000" font-family="sans-serif" font-size="14" lengthAdjust="spacing" textLength="88.1836" x="567.2031" y="418.0732">User profiles</text><path d="M507.2031,413.2266 L517.2031,413.2266 C532.2031,413.2266 532.2031,413.2266 547.2031,413.2266 L557.2031,413.2266" fill="none" style="stroke:#181818;stroke-width:1;"/><rect fill="#F1F1F1" height="36.2969" rx="12.5" ry="12.5" style="stroke:#181818;stroke-width:1.5;" width="156.1855" x="557.2031" y="451.375"/><text fill="#000000" font-family="sans-serif" font-size="14" lengthAdjust="spacing" textLength="136.1855" x="567.2031" y="474.3701">Preference settings</text><path d="M507.2031,413.2266 L517.2031,413.2266 C532.2031,413.2266 532.2031,469.5234 547.2031,469.5234 L557.2031,469.5234" fill="none" style="stroke:#181818;stroke-width:1;"/><path d="M308.6191,441.375 L318.6191,441.375 C333.6191,441.375 333.6191,413.2266 348.6191,413.2266 L358.6191,413.2266" fill="none" style="stroke:#181818;stroke-width:1;"/><rect fill="#F1F1F1" height="36.2969" rx="12.5" ry="12.5" style="stroke:#181818;stroke-width:1.5;" width="96.6992" x="358.6191" y="563.9688"/><text fill="#000000" font-family="sans-serif" font-size="14" lengthAdjust="spacing" textLength="76.6992" x="368.6191" y="586.9639">Attractions</text><rect fill="#F1F1F1" height="36.2969" rx="12.5" ry="12.5" style="stroke:#181818;stroke-width:1.5;" width="145.542" x="505.3184" y="507.6719"/><text fill="#000000" font-family="sans-serif" font-size="14" lengthAdjust="spacing" textLength="125.542" x="515.3184" y="530.667">Attraction catalog</text><path d="M455.3184,582.1172 L465.3184,582.1172 C480.3184,582.1172 480.3184,525.8203 495.3184,525.8203 L505.3184,525.8203" fill="none" style="stroke:#181818;stroke-width:1;"/><rect fill="#F1F1F1" height="36.2969" rx="12.5" ry="12.5" style="stroke:#181818;stroke-width:1.5;" width="178.3613" x="505.3184" y="563.9688"/><text fill="#000000" font-family="sans-serif" font-size="14" lengthAdjust="spacing" textLength="158.3613" x="515.3184" y="586.9639">PostGIS nearby search</text><path d="M455.3184,582.1172 L465.3184,582.1172 C480.3184,582.1172 480.3184,582.1172 495.3184,582.1172 L505.3184,582.1172" fill="none" style="stroke:#181818;stroke-width:1;"/><rect fill="#F1F1F1" height="36.2969" rx="12.5" ry="12.5" style="stroke:#181818;stroke-width:1.5;" width="102.7422" x="505.3184" y="620.2656"/><text fill="#000000" font-family="sans-serif" font-size="14" lengthAdjust="spacing" textLength="82.7422" x="515.3184" y="643.2607">Visit history</text><path d="M455.3184,582.1172 L465.3184,582.1172 C480.3184,582.1172 480.3184,638.4141 495.3184,638.4141 L505.3184,638.4141" fill="none" style="stroke:#181818;stroke-width:1;"/><path d="M308.6191,441.375 L318.6191,441.375 C333.6191,441.375 333.6191,582.1172 348.6191,582.1172 L358.6191,582.1172" fill="none" style="stroke:#181818;stroke-width:1;"/><rect fill="#F1F1F1" height="36.2969" rx="12.5" ry="12.5" style="stroke:#181818;stroke-width:1.5;" width="116.6807" x="358.6191" y="732.8594"/><text fill="#000000" font-family="sans-serif" font-size="14" lengthAdjust="spacing" textLength="96.6807" x="368.6191" y="755.8545">Partner Portal</text><rect fill="#F1F1F1" height="36.2969" rx="12.5" ry="12.5" style="stroke:#181818;stroke-width:1.5;" width="223.5264" x="525.2998" y="676.5625"/><text fill="#000000" font-family="sans-serif" font-size="14" lengthAdjust="spacing" textLength="203.5264" x="535.2998" y="699.5576">Partner onboarding (manual)</text><path d="M475.2998,751.0078 L485.2998,751.0078 C500.2998,751.0078 500.2998,694.7109 515.2998,694.7109 L525.2998,694.7109" fill="none" style="stroke:#181818;stroke-width:1;"/><rect fill="#F1F1F1" height="36.2969" rx="12.5" ry="12.5" style="stroke:#181818;stroke-width:1.5;" width="153.4785" x="525.2998" y="732.8594"/><text fill="#000000" font-family="sans-serif" font-size="14" lengthAdjust="spacing" textLength="133.4785" x="535.2998" y="755.8545">Offer management</text><path d="M475.2998,751.0078 L485.2998,751.0078 C500.2998,751.0078 500.2998,751.0078 515.2998,751.0078 L525.2998,751.0078" fill="none" style="stroke:#181818;stroke-width:1;"/><rect fill="#F1F1F1" height="36.2969" rx="12.5" ry="12.5" style="stroke:#181818;stroke-width:1.5;" width="124.0908" x="525.2998" y="789.1563"/><text fill="#000000" font-family="sans-serif" font-size="14" lengthAdjust="spacing" textLength="104.0908" x="535.2998" y="812.1514">Basic analytics</text><path d="M475.2998,751.0078 L485.2998,751.0078 C500.2998,751.0078 500.2998,807.3047 515.2998,807.3047 L525.2998,807.3047" fill="none" style="stroke:#181818;stroke-width:1;"/><path d="M308.6191,441.375 L318.6191,441.375 C333.6191,441.375 333.6191,751.0078 348.6191,751.0078 L358.6191,751.0078" fill="none" style="stroke:#181818;stroke-width:1;"/><path d="M94.3262,835.4531 L104.3262,835.4531 C119.3262,835.4531 119.3262,441.375 134.3262,441.375 L144.3262,441.375" fill="none" style="stroke:#181818;stroke-width:1;"/><rect fill="#F1F1F1" height="36.2969" rx="12.5" ry="12.5" style="stroke:#181818;stroke-width:1.5;" width="174.752" x="144.3262" y="1126.9375"/><text fill="#000000" font-family="sans-serif" font-size="14" lengthAdjust="spacing" textLength="154.752" x="154.3262" y="1149.9326">Phase 2: Full Features</text><rect fill="#F1F1F1" height="36.2969" rx="12.5" ry="12.5" style="stroke:#181818;stroke-width:1.5;" width="146.1094" x="369.0781" y="901.75"/><text fill="#000000" font-family="sans-serif" font-size="14" lengthAdjust="spacing" textLength="126.1094" x="379.0781" y="924.7451">Payments (Stripe)</text><rect fill="#F1F1F1" height="36.2969" rx="12.5" ry="12.5" style="stroke:#181818;stroke-width:1.5;" width="138.665" x="565.1875" y="845.4531"/><text fill="#000000" font-family="sans-serif" font-size="14" lengthAdjust="spacing" textLength="118.665" x="575.1875" y="868.4482">Ticket purchases</text><path d="M515.1875,919.8984 L525.1875,919.8984 C540.1875,919.8984 540.1875,863.6016 555.1875,863.6016 L565.1875,863.6016" fill="none" style="stroke:#181818;stroke-width:1;"/><rect fill="#F1F1F1" height="36.2969" rx="12.5" ry="12.5" style="stroke:#181818;stroke-width:1.5;" width="119.2646" x="565.1875" y="901.75"/><text fill="#000000" font-family="sans-serif" font-size="14" lengthAdjust="spacing" textLength="99.2646" x="575.1875" y="924.7451">Tour bookings</text><path d="M515.1875,919.8984 L525.1875,919.8984 C540.1875,919.8984 540.1875,919.8984 555.1875,919.8984 L565.1875,919.8984" fill="none" style="stroke:#181818;stroke-width:1;"/><rect fill="#F1F1F1" height="36.2969" rx="12.5" ry="12.5" style="stroke:#181818;stroke-width:1.5;" width="135.1035" x="565.1875" y="958.0469"/><text fill="#000000" font-family="sans-serif" font-size="14" lengthAdjust="spacing" textLength="115.1035" x="575.1875" y="981.042">Refund handling</text><path d="M515.1875,919.8984 L525.1875,919.8984 C540.1875,919.8984 540.1875,976.1953 555.1875,976.1953 L565.1875,976.1953" fill="none" style="stroke:#181818;stroke-width:1;"/><path d="M319.0781,1145.0859 L329.0781,1145.0859 C344.0781,1145.0859 344.0781,919.8984 359.0781,919.8984 L369.0781,919.8984" fill="none" style="stroke:#181818;stroke-width:1;"/><rect fill="#F1F1F1" height="36.2969" rx="12.5" ry="12.5" style="stroke:#181818;stroke-width:1.5;" width="134.9668" x="369.0781" y="1070.6406"/><text fill="#000000" font-family="sans-serif" font-size="14" lengthAdjust="spacing" textLength="114.9668" x="379.0781" y="1093.6357">Loyalty Program</text><rect fill="#F1F1F1" height="36.2969" rx="12.5" ry="12.5" style="stroke:#181818;stroke-width:1.5;" width="120.4746" x="554.0449" y="1014.3438"/><text fill="#000000" font-family="sans-serif" font-size="14" lengthAdjust="spacing" textLength="100.4746" x="564.0449" y="1037.3389">Points earning</text><path d="M504.0449,1088.7891 L514.0449,1088.7891 C529.0449,1088.7891 529.0449,1032.4922 544.0449,1032.4922 L554.0449,1032.4922" fill="none" style="stroke:#181818;stroke-width:1;"/><rect fill="#F1F1F1" height="36.2969" rx="12.5" ry="12.5" style="stroke:#181818;stroke-width:1.5;" width="148.2148" x="554.0449" y="1070.6406"/><text fill="#000000" font-family="sans-serif" font-size="14" lengthAdjust="spacing" textLength="128.2148" x="564.0449" y="1093.6357">Points redemption</text><path d="M504.0449,1088.7891 L514.0449,1088.7891 C529.0449,1088.7891 529.0449,1088.7891 544.0449,1088.7891 L554.0449,1088.7891" fill="none" style="stroke:#181818;stroke-width:1;"/><rect fill="#F1F1F1" height="36.2969" rx="12.5" ry="12.5" style="stroke:#181818;stroke-width:1.5;" width="159.3711" x="554.0449" y="1126.9375"/><text fill="#000000" font-family="sans-serif" font-size="14" lengthAdjust="spacing" textLength="139.3711" x="564.0449" y="1149.9326">QR-based discounts</text><path d="M504.0449,1088.7891 L514.0449,1088.7891 C529.0449,1088.7891 529.0449,1145.0859 544.0449,1145.0859 L554.0449,1145.0859" fill="none" style="stroke:#181818;stroke-width:1;"/><path d="M319.0781,1145.0859 L329.0781,1145.0859 C344.0781,1145.0859 344.0781,1088.7891 359.0781,1088.7891 L369.0781,1088.7891" fill="none" style="stroke:#181818;stroke-width:1;"/><rect fill="#F1F1F1" height="36.2969" rx="12.5" ry="12.5" style="stroke:#181818;stroke-width:1.5;" width="124.4531" x="369.0781" y="1239.5313"/><text fill="#000000" font-family="sans-serif" font-size="14" lengthAdjust="spacing" textLength="104.4531" x="379.0781" y="1262.5264">Multi-language</text><rect fill="#F1F1F1" height="36.2969" rx="12.5" ry="12.5" style="stroke:#181818;stroke-width:1.5;" width="70.5518" x="543.5313" y="1183.2344"/><text fill="#000000" font-family="sans-serif" font-size="14" lengthAdjust="spacing" textLength="50.5518" x="553.5313" y="1206.2295">English</text><path d="M493.5313,1257.6797 L503.5313,1257.6797 C518.5313,1257.6797 518.5313,1201.3828 533.5313,1201.3828 L543.5313,1201.3828" fill="none" style="stroke:#181818;stroke-width:1;"/><rect fill="#F1F1F1" height="36.2969" rx="12.5" ry="12.5" style="stroke:#181818;stroke-width:1.5;" width="75.9316" x="543.5313" y="1239.5313"/><text fill="#000000" font-family="sans-serif" font-size="14" lengthAdjust="spacing" textLength="55.9316" x="553.5313" y="1262.5264">Chinese</text><path d="M493.5313,1257.6797 L503.5313,1257.6797 C518.5313,1257.6797 518.5313,1257.6797 533.5313,1257.6797 L543.5313,1257.6797" fill="none" style="stroke:#181818;stroke-width:1;"/><rect fill="#F1F1F1" height="36.2969" rx="12.5" ry="12.5" style="stroke:#181818;stroke-width:1.5;" width="75.2822" x="543.5313" y="1295.8281"/><text fill="#000000" font-family="sans-serif" font-size="14" lengthAdjust="spacing" textLength="55.2822" x="553.5313" y="1318.8232">Spanish</text><path d="M493.5313,1257.6797 L503.5313,1257.6797 C518.5313,1257.6797 518.5313,1313.9766 533.5313,1313.9766 L543.5313,1313.9766" fill="none" style="stroke:#181818;stroke-width:1;"/><path d="M319.0781,1145.0859 L329.0781,1145.0859 C344.0781,1145.0859 344.0781,1257.6797 359.0781,1257.6797 L369.0781,1257.6797" fill="none" style="stroke:#181818;stroke-width:1;"/><rect fill="#F1F1F1" height="36.2969" rx="12.5" ry="12.5" style="stroke:#181818;stroke-width:1.5;" width="108.7373" x="369.0781" y="1380.2734"/><text fill="#000000" font-family="sans-serif" font-size="14" lengthAdjust="spacing" textLength="88.7373" x="379.0781" y="1403.2686">Offline Mode</text><rect fill="#F1F1F1" height="36.2969" rx="12.5" ry="12.5" style="stroke:#181818;stroke-width:1.5;" width="130.4756" x="527.8154" y="1352.125"/><text fill="#000000" font-family="sans-serif" font-size="14" lengthAdjust="spacing" textLength="110.4756" x="537.8154" y="1375.1201">Cached content</text><path d="M477.8154,1398.4219 L487.8154,1398.4219 C502.8154,1398.4219 502.8154,1370.2734 517.8154,1370.2734 L527.8154,1370.2734" fill="none" style="stroke:#181818;stroke-width:1;"/><rect fill="#F1F1F1" height="36.2969" rx="12.5" ry="12.5" style="stroke:#181818;stroke-width:1.5;" width="222.8428" x="527.8154" y="1408.4219"/><text fill="#000000" font-family="sans-serif" font-size="14" lengthAdjust="spacing" textLength="202.8428" x="537.8154" y="1431.417">Previously visited attractions</text><path d="M477.8154,1398.4219 L487.8154,1398.4219 C502.8154,1398.4219 502.8154,1426.5703 517.8154,1426.5703 L527.8154,1426.5703" fill="none" style="stroke:#181818;stroke-width:1;"/><path d="M319.0781,1145.0859 L329.0781,1145.0859 C344.0781,1145.0859 344.0781,1398.4219 359.0781,1398.4219 L369.0781,1398.4219" fill="none" style="stroke:#181818;stroke-width:1;"/><path d="M94.3262,835.4531 L104.3262,835.4531 C119.3262,835.4531 119.3262,1145.0859 134.3262,1145.0859 L144.3262,1145.0859" fill="none" style="stroke:#181818;stroke-width:1;"/><rect fill="#F1F1F1" height="36.2969" rx="12.5" ry="12.5" style="stroke:#181818;stroke-width:1.5;" width="180.2344" x="144.3262" y="1521.0156"/><text fill="#000000" font-family="sans-serif" font-size="14" lengthAdjust="spacing" textLength="160.2344" x="154.3262" y="1544.0107">Deferred (250k+ MAU)</text><rect fill="#F1F1F1" height="36.2969" rx="12.5" ry="12.5" style="stroke:#181818;stroke-width:1.5;" width="112.9961" x="374.5605" y="1464.7188"/><text fill="#000000" font-family="sans-serif" font-size="14" lengthAdjust="spacing" textLength="92.9961" x="384.5605" y="1487.7139">China Region</text><path d="M324.5605,1539.1641 L334.5605,1539.1641 C349.5605,1539.1641 349.5605,1482.8672 364.5605,1482.8672 L374.5605,1482.8672" fill="none" style="stroke:#181818;stroke-width:1;"/><rect fill="#F1F1F1" height="36.2969" rx="12.5" ry="12.5" style="stroke:#181818;stroke-width:1.5;" width="237.9229" x="374.5605" y="1521.0156"/><text fill="#000000" font-family="sans-serif" font-size="14" lengthAdjust="spacing" textLength="217.9229" x="384.5605" y="1544.0107">Custom ML Model (SageMaker)</text><path d="M324.5605,1539.1641 L334.5605,1539.1641 C349.5605,1539.1641 349.5605,1539.1641 364.5605,1539.1641 L374.5605,1539.1641" fill="none" style="stroke:#181818;stroke-width:1;"/><rect fill="#F1F1F1" height="36.2969" rx="12.5" ry="12.5" style="stroke:#181818;stroke-width:1.5;" width="115.2588" x="374.5605" y="1577.3125"/><text fill="#000000" font-family="sans-serif" font-size="14" lengthAdjust="spacing" textLength="95.2588" x="384.5605" y="1600.3076">On-device ML</text><path d="M324.5605,1539.1641 L334.5605,1539.1641 C349.5605,1539.1641 349.5605,1595.4609 364.5605,1595.4609 L374.5605,1595.4609" fill="none" style="stroke:#181818;stroke-width:1;"/><path d="M94.3262,835.4531 L104.3262,835.4531 C119.3262,835.4531 119.3262,1539.1641 134.3262,1539.1641 L144.3262,1539.1641" fill="none" style="stroke:#181818;stroke-width:1;"/><?plantuml-src NLFBRjim4BpxA_Rekd0G6sqFESLr6oE01Qkna_kQMak4AQx0Hm3T-X7zmdv9bn9Z9pro7pEpiyjx7z25LjkgnMuIT3041uvkIzR3tzz_ODS5pHQMy40OeYC_cSmk5PFP3Ce6FS7Y3ihT6Zv3yL9AT0QhHtWYnRNLgJ-5KYa71eLT0eAfnQ1VITujEVmqbcoOQv7medrYDPXqkJDK54XTWNOTMI7Ob8VvbnT9UkNqeDDd59A9D9pGc2EgynXSnKepT0Rx58FfuR0VIE7PauC2BTRKaWrZzNgGpe0nD32b5hMHwJmhZIPh7VewnoTjA1ENZaxao2e2Jo5eM_lHZH0SgdSAhm6PFw3XEWEm3vl7FLX2T-m519rgnbJo942ZVM3N3wYbhCwAXfATG6I076DxP7ILA81fYpPULEzEeX3Q_yRzZbuhaA3fWrRl5hkyWuTep7Nz8qcVMZrCzq6SfmnzqEfC0ReecgKtZvgE1OxCvpStPd8PfsWhQ6IzHg83vfPxDA4N2xbssBxPeHEDk61ptINcgAAskzx4hwVvKKWhgBHN7ALaW2sY2NekXrH76NWi_MbhetssTTreIpvdzXtQd4b6YJY2WgkSNQDgX42n3HVZPEElcgCtFRoc1KaUFomRVgIJ4BKmNNwzFSiFMJsFTvUOKRoeymomZhBR5ehjm6d4NP5Su9dSsB2pyqhOvBYAxUIUv6_aVpjPt2nlbzzk5ly0?></g></svg>