<?xml version="1.0" encoding="UTF-8" standalone="no"?>
<!DOCTYPE svg PUBLIC "-//W3C//DTD SVG 1.1//EN"
 "http://www.w3.org/Graphics/SVG/1.1/DTD/svg11.dtd">
<!-- Generated by graphviz version 9.0.0 (20230911.1827)
 -->
<!-- Pages: 1 -->
<svg width="1140pt" height="843pt"
 viewBox="0.00 0.00 1140.25 842.75" xmlns="http://www.w3.org/2000/svg" xmlns:xlink="http://www.w3.org/1999/xlink">
<g id="graph0" class="graph" transform="scale(1 1) rotate(0) translate(4 838.75)">
<polygon fill="white" stroke="none" points="-4,4 -4,-838.75 1136.25,-838.75 1136.25,4 -4,4"/>
<text text-anchor="start" x="8" y="-811.75" font-family="Times,serif" font-size="20.00">TourLens — Data Model</text>
<!-- User -->
<g id="node1" class="node">
<title>User</title>
<polygon fill="none" stroke="black" points="428.75,-454.38 428.75,-483.88 706.5,-483.88 706.5,-454.38 428.75,-454.38"/>
<text text-anchor="start" x="547" y="-464.68" font-family="Helvetica,sans-Serif" font-weight="bold" font-size="16.00">User</text>
<polygon fill="none" stroke="black" points="428.75,-427.12 428.75,-454.38 706.5,-454.38 706.5,-427.12 428.75,-427.12"/>
<text text-anchor="start" x="433.75" y="-437.07" font-family="Helvetica,sans-Serif" text-decoration="underline" font-size="14.00">id</text>
<text text-anchor="start" x="446.5" y="-437.07" font-family="Helvetica,sans-Serif" font-size="14.00"> [bigint, PK]</text>
<polygon fill="none" stroke="black" points="428.75,-399.88 428.75,-427.12 706.5,-427.12 706.5,-399.88 428.75,-399.88"/>
<text text-anchor="start" x="433.75" y="-409.82" font-family="Helvetica,sans-Serif" font-size="14.00">cognito_sub</text>
<text text-anchor="start" x="517" y="-409.82" font-family="Helvetica,sans-Serif" font-size="14.00"> [varchar(255), unique]</text>
<polygon fill="none" stroke="black" points="428.75,-372.62 428.75,-399.88 706.5,-399.88 706.5,-372.62 428.75,-372.62"/>
<text text-anchor="start" x="433.75" y="-382.57" font-family="Helvetica,sans-Serif" font-size="14.00">email</text>
<text text-anchor="start" x="471.25" y="-382.57" font-family="Helvetica,sans-Serif" font-size="14.00"> [varchar(255), unique]</text>
<polygon fill="none" stroke="black" points="428.75,-345.38 428.75,-372.62 706.5,-372.62 706.5,-345.38 428.75,-345.38"/>
<text text-anchor="start" x="433.75" y="-355.32" font-family="Helvetica,sans-Serif" font-size="14.00">display_name</text>
<text text-anchor="start" x="529" y="-355.32" font-family="Helvetica,sans-Serif" font-size="14.00"> [varchar(255)]</text>
<polygon fill="none" stroke="black" points="428.75,-318.12 428.75,-345.38 706.5,-345.38 706.5,-318.12 428.75,-318.12"/>
<text text-anchor="start" x="433.75" y="-328.07" font-family="Helvetica,sans-Serif" font-size="14.00">preferred_language</text>
<text text-anchor="start" x="568.75" y="-328.07" font-family="Helvetica,sans-Serif" font-size="14.00"> [enum(en, zh, es)]</text>
<polygon fill="none" stroke="black" points="428.75,-290.88 428.75,-318.12 706.5,-318.12 706.5,-290.88 428.75,-290.88"/>
<text text-anchor="start" x="433.75" y="-300.82" font-family="Helvetica,sans-Serif" font-size="14.00">loyalty_points</text>
<text text-anchor="start" x="529" y="-300.82" font-family="Helvetica,sans-Serif" font-size="14.00"> [integer, default 0]</text>
<polygon fill="none" stroke="black" points="428.75,-263.62 428.75,-290.88 706.5,-290.88 706.5,-263.62 428.75,-263.62"/>
<text text-anchor="start" x="433.75" y="-273.57" font-family="Helvetica,sans-Serif" font-size="14.00">created_at</text>
<text text-anchor="start" x="505.75" y="-273.57" font-family="Helvetica,sans-Serif" font-size="14.00"> [timestamp]</text>
</g>
<!-- PhotoRecognition -->
<g id="node4" class="node">
<title>PhotoRecognition</title>
<polygon fill="none" stroke="black" points="796.62,-769.25 796.62,-798.75 1123.12,-798.75 1123.12,-769.25 796.62,-769.25"/>
<text text-anchor="start" x="880" y="-779.55" font-family="Helvetica,sans-Serif" font-weight="bold" font-size="16.00">PhotoRecognition</text>
<polygon fill="none" stroke="black" points="796.62,-742 796.62,-769.25 1123.12,-769.25 1123.12,-742 796.62,-742"/>
<text text-anchor="start" x="801.62" y="-751.95" font-family="Helvetica,sans-Serif" text-decoration="underline" font-size="14.00">id</text>
<text text-anchor="start" x="814.38" y="-751.95" font-family="Helvetica,sans-Serif" font-size="14.00"> [bigint, PK]</text>
<polygon fill="none" stroke="black" points="796.62,-714.75 796.62,-742 1123.12,-742 1123.12,-714.75 796.62,-714.75"/>
<text text-anchor="start" x="801.62" y="-724.7" font-family="Helvetica,sans-Serif" font-style="italic" font-size="14.00">user_id</text>
<text text-anchor="start" x="851.88" y="-724.7" font-family="Helvetica,sans-Serif" font-size="14.00"> [bigint, FK]</text>
<polygon fill="none" stroke="black" points="796.62,-687.5 796.62,-714.75 1123.12,-714.75 1123.12,-687.5 796.62,-687.5"/>
<text text-anchor="start" x="801.62" y="-697.45" font-family="Helvetica,sans-Serif" font-style="italic" font-size="14.00">attraction_id</text>
<text text-anchor="start" x="887.88" y="-697.45" font-family="Helvetica,sans-Serif" font-size="14.00"> [bigint, FK, nullable]</text>
<polygon fill="none" stroke="black" points="796.62,-660.25 796.62,-687.5 1123.12,-687.5 1123.12,-660.25 796.62,-660.25"/>
<text text-anchor="start" x="801.62" y="-670.2" font-family="Helvetica,sans-Serif" font-size="14.00">photo_s3_key</text>
<text text-anchor="start" x="895.38" y="-670.2" font-family="Helvetica,sans-Serif" font-size="14.00"> [varchar(512)]</text>
<polygon fill="none" stroke="black" points="796.62,-633 796.62,-660.25 1123.12,-660.25 1123.12,-633 796.62,-633"/>
<text text-anchor="start" x="801.62" y="-642.95" font-family="Helvetica,sans-Serif" font-size="14.00">ai_provider</text>
<text text-anchor="start" x="878.12" y="-642.95" font-family="Helvetica,sans-Serif" font-size="14.00"> [enum(vision, openai, gemini)]</text>
<polygon fill="none" stroke="black" points="796.62,-605.75 796.62,-633 1123.12,-633 1123.12,-605.75 796.62,-605.75"/>
<text text-anchor="start" x="801.62" y="-615.7" font-family="Helvetica,sans-Serif" font-size="14.00">confidence_score</text>
<text text-anchor="start" x="920.88" y="-615.7" font-family="Helvetica,sans-Serif" font-size="14.00"> [decimal(5,4)]</text>
<polygon fill="none" stroke="black" points="796.62,-578.5 796.62,-605.75 1123.12,-605.75 1123.12,-578.5 796.62,-578.5"/>
<text text-anchor="start" x="801.62" y="-588.45" font-family="Helvetica,sans-Serif" font-size="14.00">description_text</text>
<text text-anchor="start" x="912.62" y="-588.45" font-family="Helvetica,sans-Serif" font-size="14.00"> [text]</text>
<polygon fill="none" stroke="black" points="796.62,-551.25 796.62,-578.5 1123.12,-578.5 1123.12,-551.25 796.62,-551.25"/>
<text text-anchor="start" x="801.62" y="-561.2" font-family="Helvetica,sans-Serif" font-size="14.00">description_audio_url</text>
<text text-anchor="start" x="949.38" y="-561.2" font-family="Helvetica,sans-Serif" font-size="14.00"> [varchar(512), nullable]</text>
<polygon fill="none" stroke="black" points="796.62,-524 796.62,-551.25 1123.12,-551.25 1123.12,-524 796.62,-524"/>
<text text-anchor="start" x="801.62" y="-533.95" font-family="Helvetica,sans-Serif" font-size="14.00">processing_time_ms</text>
<text text-anchor="start" x="941.88" y="-533.95" font-family="Helvetica,sans-Serif" font-size="14.00"> [integer]</text>
<polygon fill="none" stroke="black" points="796.62,-496.75 796.62,-524 1123.12,-524 1123.12,-496.75 796.62,-496.75"/>
<text text-anchor="start" x="801.62" y="-506.7" font-family="Helvetica,sans-Serif" font-size="14.00">created_at</text>
<text text-anchor="start" x="873.62" y="-506.7" font-family="Helvetica,sans-Serif" font-size="14.00"> [timestamp]</text>
</g>
<!-- User&#45;&#45;PhotoRecognition -->
<g id="edge1" class="edge">
<title>User&#45;&#45;PhotoRecognition</title>
<path fill="none" stroke="#7f7f7f" stroke-dasharray="5,2" d="M714.49,-476.17C738.74,-493.19 764.08,-510.98 788.86,-528.38"/>
<text text-anchor="start" x="758.86" y="-515.08" font-family="Times,serif" font-size="14.00">0..N</text>
<text text-anchor="start" x="714.49" y="-462.87" font-family="Times,serif" font-size="14.00">1</text>
</g>
<!-- Transaction -->
<g id="node6" class="node">
<title>Transaction</title>
<polygon fill="none" stroke="black" points="795.5,-222 795.5,-251.5 1124.25,-251.5 1124.25,-222 795.5,-222"/>
<text text-anchor="start" x="907.75" y="-232.3" font-family="Helvetica,sans-Serif" font-weight="bold" font-size="16.00">Transaction</text>
<polygon fill="none" stroke="black" points="795.5,-194.75 795.5,-222 1124.25,-222 1124.25,-194.75 795.5,-194.75"/>
<text text-anchor="start" x="800.5" y="-204.7" font-family="Helvetica,sans-Serif" text-decoration="underline" font-size="14.00">id</text>
<text text-anchor="start" x="813.25" y="-204.7" font-family="Helvetica,sans-Serif" font-size="14.00"> [bigint, PK]</text>
<polygon fill="none" stroke="black" points="795.5,-167.5 795.5,-194.75 1124.25,-194.75 1124.25,-167.5 795.5,-167.5"/>
<text text-anchor="start" x="800.5" y="-177.45" font-family="Helvetica,sans-Serif" font-style="italic" font-size="14.00">user_id</text>
<text text-anchor="start" x="850.75" y="-177.45" font-family="Helvetica,sans-Serif" font-size="14.00"> [bigint, FK]</text>
<polygon fill="none" stroke="black" points="795.5,-140.25 795.5,-167.5 1124.25,-167.5 1124.25,-140.25 795.5,-140.25"/>
<text text-anchor="start" x="800.5" y="-150.2" font-family="Helvetica,sans-Serif" font-style="italic" font-size="14.00">offer_id</text>
<text text-anchor="start" x="852.25" y="-150.2" font-family="Helvetica,sans-Serif" font-size="14.00"> [bigint, FK, nullable]</text>
<polygon fill="none" stroke="black" points="795.5,-113 795.5,-140.25 1124.25,-140.25 1124.25,-113 795.5,-113"/>
<text text-anchor="start" x="800.5" y="-122.95" font-family="Helvetica,sans-Serif" font-size="14.00">stripe_payment_id</text>
<text text-anchor="start" x="928" y="-122.95" font-family="Helvetica,sans-Serif" font-size="14.00"> [varchar(255)]</text>
<polygon fill="none" stroke="black" points="795.5,-85.75 795.5,-113 1124.25,-113 1124.25,-85.75 795.5,-85.75"/>
<text text-anchor="start" x="800.5" y="-95.7" font-family="Helvetica,sans-Serif" font-size="14.00">amount_cents</text>
<text text-anchor="start" x="898" y="-95.7" font-family="Helvetica,sans-Serif" font-size="14.00"> [integer]</text>
<polygon fill="none" stroke="black" points="795.5,-58.5 795.5,-85.75 1124.25,-85.75 1124.25,-58.5 795.5,-58.5"/>
<text text-anchor="start" x="800.5" y="-68.45" font-family="Helvetica,sans-Serif" font-size="14.00">currency</text>
<text text-anchor="start" x="860.5" y="-68.45" font-family="Helvetica,sans-Serif" font-size="14.00"> [varchar(3)]</text>
<polygon fill="none" stroke="black" points="795.5,-31.25 795.5,-58.5 1124.25,-58.5 1124.25,-31.25 795.5,-31.25"/>
<text text-anchor="start" x="800.5" y="-41.2" font-family="Helvetica,sans-Serif" font-size="14.00">status</text>
<text text-anchor="start" x="843.25" y="-41.2" font-family="Helvetica,sans-Serif" font-size="14.00"> [enum(pending, completed, refunded)]</text>
<polygon fill="none" stroke="black" points="795.5,-4 795.5,-31.25 1124.25,-31.25 1124.25,-4 795.5,-4"/>
<text text-anchor="start" x="800.5" y="-13.95" font-family="Helvetica,sans-Serif" font-size="14.00">created_at</text>
<text text-anchor="start" x="872.5" y="-13.95" font-family="Helvetica,sans-Serif" font-size="14.00"> [timestamp]</text>
</g>
<!-- User&#45;&#45;Transaction -->
<g id="edge4" class="edge">
<title>User&#45;&#45;Transaction</title>
<path fill="none" stroke="#7f7f7f" stroke-dasharray="5,2" d="M714.49,-281.8C738.31,-266.79 763.17,-251.12 787.53,-235.76"/>
<text text-anchor="start" x="757.53" y="-222.46" font-family="Times,serif" font-size="14.00">0..N</text>
<text text-anchor="start" x="714.49" y="-268.5" font-family="Times,serif" font-size="14.00">1</text>
</g>
<!-- LoyaltyEvent -->
<g id="node7" class="node">
<title>LoyaltyEvent</title>
<polygon fill="none" stroke="black" points="812,-440.75 812,-470.25 1107.75,-470.25 1107.75,-440.75 812,-440.75"/>
<text text-anchor="start" x="901.38" y="-451.05" font-family="Helvetica,sans-Serif" font-weight="bold" font-size="16.00">LoyaltyEvent</text>
<polygon fill="none" stroke="black" points="812,-413.5 812,-440.75 1107.75,-440.75 1107.75,-413.5 812,-413.5"/>
<text text-anchor="start" x="817" y="-423.45" font-family="Helvetica,sans-Serif" text-decoration="underline" font-size="14.00">id</text>
<text text-anchor="start" x="829.75" y="-423.45" font-family="Helvetica,sans-Serif" font-size="14.00"> [bigint, PK]</text>
<polygon fill="none" stroke="black" points="812,-386.25 812,-413.5 1107.75,-413.5 1107.75,-386.25 812,-386.25"/>
<text text-anchor="start" x="817" y="-396.2" font-family="Helvetica,sans-Serif" font-style="italic" font-size="14.00">user_id</text>
<text text-anchor="start" x="867.25" y="-396.2" font-family="Helvetica,sans-Serif" font-size="14.00"> [bigint, FK]</text>
<polygon fill="none" stroke="black" points="812,-359 812,-386.25 1107.75,-386.25 1107.75,-359 812,-359"/>
<text text-anchor="start" x="817" y="-368.95" font-family="Helvetica,sans-Serif" font-size="14.00">event_type</text>
<text text-anchor="start" x="893.5" y="-368.95" font-family="Helvetica,sans-Serif" font-size="14.00"> [enum(earn, redeem, expire)]</text>
<polygon fill="none" stroke="black" points="812,-331.75 812,-359 1107.75,-359 1107.75,-331.75 812,-331.75"/>
<text text-anchor="start" x="817" y="-341.7" font-family="Helvetica,sans-Serif" font-size="14.00">points</text>
<text text-anchor="start" x="859.75" y="-341.7" font-family="Helvetica,sans-Serif" font-size="14.00"> [integer]</text>
<polygon fill="none" stroke="black" points="812,-304.5 812,-331.75 1107.75,-331.75 1107.75,-304.5 812,-304.5"/>
<text text-anchor="start" x="817" y="-314.45" font-family="Helvetica,sans-Serif" font-size="14.00">source</text>
<text text-anchor="start" x="862.75" y="-314.45" font-family="Helvetica,sans-Serif" font-size="14.00"> [varchar(100)]</text>
<polygon fill="none" stroke="black" points="812,-277.25 812,-304.5 1107.75,-304.5 1107.75,-277.25 812,-277.25"/>
<text text-anchor="start" x="817" y="-287.2" font-family="Helvetica,sans-Serif" font-size="14.00">created_at</text>
<text text-anchor="start" x="889" y="-287.2" font-family="Helvetica,sans-Serif" font-size="14.00"> [timestamp]</text>
</g>
<!-- User&#45;&#45;LoyaltyEvent -->
<g id="edge6" class="edge">
<title>User&#45;&#45;LoyaltyEvent</title>
<path fill="none" stroke="#7f7f7f" stroke-dasharray="5,2" d="M714.49,-373.75C743.72,-373.75 774.53,-373.75 804.04,-373.75"/>
<text text-anchor="start" x="774.04" y="-360.45" font-family="Times,serif" font-size="14.00">0..N</text>
<text text-anchor="start" x="714.49" y="-360.45" font-family="Times,serif" font-size="14.00">1</text>
</g>
<!-- Partner -->
<g id="node2" class="node">
<title>Partner</title>
<polygon fill="none" stroke="black" points="8,-222 8,-251.5 339.75,-251.5 339.75,-222 8,-222"/>
<text text-anchor="start" x="140.12" y="-232.3" font-family="Helvetica,sans-Serif" font-weight="bold" font-size="16.00">Partner</text>
<polygon fill="none" stroke="black" points="8,-194.75 8,-222 339.75,-222 339.75,-194.75 8,-194.75"/>
<text text-anchor="start" x="13" y="-204.7" font-family="Helvetica,sans-Serif" text-decoration="underline" font-size="14.00">id</text>
<text text-anchor="start" x="25.75" y="-204.7" font-family="Helvetica,sans-Serif" font-size="14.00"> [bigint, PK]</text>
<polygon fill="none" stroke="black" points="8,-167.5 8,-194.75 339.75,-194.75 339.75,-167.5 8,-167.5"/>
<text text-anchor="start" x="13" y="-177.45" font-family="Helvetica,sans-Serif" font-size="14.00">business_name</text>
<text text-anchor="start" x="120.25" y="-177.45" font-family="Helvetica,sans-Serif" font-size="14.00"> [varchar(255)]</text>
<polygon fill="none" stroke="black" points="8,-140.25 8,-167.5 339.75,-167.5 339.75,-140.25 8,-140.25"/>
<text text-anchor="start" x="13" y="-150.2" font-family="Helvetica,sans-Serif" font-size="14.00">category</text>
<text text-anchor="start" x="73.75" y="-150.2" font-family="Helvetica,sans-Serif" font-size="14.00"> [enum(restaurant, hotel, shop, tour)]</text>
<polygon fill="none" stroke="black" points="8,-113 8,-140.25 339.75,-140.25 339.75,-113 8,-113"/>
<text text-anchor="start" x="13" y="-122.95" font-family="Helvetica,sans-Serif" font-size="14.00">location</text>
<text text-anchor="start" x="67" y="-122.95" font-family="Helvetica,sans-Serif" font-size="14.00"> [geography(Point, 4326)]</text>
<polygon fill="none" stroke="black" points="8,-85.75 8,-113 339.75,-113 339.75,-85.75 8,-85.75"/>
<text text-anchor="start" x="13" y="-95.7" font-family="Helvetica,sans-Serif" font-size="14.00">contact_email</text>
<text text-anchor="start" x="108.25" y="-95.7" font-family="Helvetica,sans-Serif" font-size="14.00"> [varchar(255)]</text>
<polygon fill="none" stroke="black" points="8,-58.5 8,-85.75 339.75,-85.75 339.75,-58.5 8,-58.5"/>
<text text-anchor="start" x="13" y="-68.45" font-family="Helvetica,sans-Serif" font-size="14.00">commission_rate</text>
<text text-anchor="start" x="130" y="-68.45" font-family="Helvetica,sans-Serif" font-size="14.00"> [decimal(5,2)]</text>
<polygon fill="none" stroke="black" points="8,-31.25 8,-58.5 339.75,-58.5 339.75,-31.25 8,-31.25"/>
<text text-anchor="start" x="13" y="-41.2" font-family="Helvetica,sans-Serif" font-size="14.00">is_active</text>
<text text-anchor="start" x="72.25" y="-41.2" font-family="Helvetica,sans-Serif" font-size="14.00"> [boolean]</text>
<polygon fill="none" stroke="black" points="8,-4 8,-31.25 339.75,-31.25 339.75,-4 8,-4"/>
<text text-anchor="start" x="13" y="-13.95" font-family="Helvetica,sans-Serif" font-size="14.00">created_at</text>
<text text-anchor="start" x="85" y="-13.95" font-family="Helvetica,sans-Serif" font-size="14.00"> [timestamp]</text>
</g>
<!-- Offer -->
<g id="node5" class="node">
<title>Offer</title>
<polygon fill="none" stroke="black" points="452.38,-208.38 452.38,-237.88 682.88,-237.88 682.88,-208.38 452.38,-208.38"/>
<text text-anchor="start" x="545.12" y="-218.68" font-family="Helvetica,sans-Serif" font-weight="bold" font-size="16.00">Offer</text>
<polygon fill="none" stroke="black" points="452.38,-181.12 452.38,-208.38 682.88,-208.38 682.88,-181.12 452.38,-181.12"/>
<text text-anchor="start" x="457.38" y="-191.07" font-family="Helvetica,sans-Serif" text-decoration="underline" font-size="14.00">id</text>
<text text-anchor="start" x="470.12" y="-191.07" font-family="Helvetica,sans-Serif" font-size="14.00"> [bigint, PK]</text>
<polygon fill="none" stroke="black" points="452.38,-153.88 452.38,-181.12 682.88,-181.12 682.88,-153.88 452.38,-153.88"/>
<text text-anchor="start" x="457.38" y="-163.82" font-family="Helvetica,sans-Serif" font-style="italic" font-size="14.00">partner_id</text>
<text text-anchor="start" x="528.62" y="-163.82" font-family="Helvetica,sans-Serif" font-size="14.00"> [bigint, FK]</text>
<polygon fill="none" stroke="black" points="452.38,-126.62 452.38,-153.88 682.88,-153.88 682.88,-126.62 452.38,-126.62"/>
<text text-anchor="start" x="457.38" y="-136.57" font-family="Helvetica,sans-Serif" font-size="14.00">title</text>
<text text-anchor="start" x="483.62" y="-136.57" font-family="Helvetica,sans-Serif" font-size="14.00"> [varchar(255)]</text>
<polygon fill="none" stroke="black" points="452.38,-99.38 452.38,-126.62 682.88,-126.62 682.88,-99.38 452.38,-99.38"/>
<text text-anchor="start" x="457.38" y="-109.33" font-family="Helvetica,sans-Serif" font-size="14.00">discount_percent</text>
<text text-anchor="start" x="575.88" y="-109.33" font-family="Helvetica,sans-Serif" font-size="14.00"> [decimal(5,2)]</text>
<polygon fill="none" stroke="black" points="452.38,-72.12 452.38,-99.38 682.88,-99.38 682.88,-72.12 452.38,-72.12"/>
<text text-anchor="start" x="457.38" y="-82.08" font-family="Helvetica,sans-Serif" font-size="14.00">valid_from</text>
<text text-anchor="start" x="529.38" y="-82.08" font-family="Helvetica,sans-Serif" font-size="14.00"> [timestamp]</text>
<polygon fill="none" stroke="black" points="452.38,-44.88 452.38,-72.12 682.88,-72.12 682.88,-44.88 452.38,-44.88"/>
<text text-anchor="start" x="457.38" y="-54.83" font-family="Helvetica,sans-Serif" font-size="14.00">valid_until</text>
<text text-anchor="start" x="527.88" y="-54.83" font-family="Helvetica,sans-Serif" font-size="14.00"> [timestamp]</text>
<polygon fill="none" stroke="black" points="452.38,-17.62 452.38,-44.88 682.88,-44.88 682.88,-17.62 452.38,-17.62"/>
<text text-anchor="start" x="457.38" y="-27.57" font-family="Helvetica,sans-Serif" font-size="14.00">is_active</text>
<text text-anchor="start" x="516.62" y="-27.57" font-family="Helvetica,sans-Serif" font-size="14.00"> [boolean]</text>
</g>
<!-- Partner&#45;&#45;Offer -->
<g id="edge3" class="edge">
<title>Partner&#45;&#45;Offer</title>
<path fill="none" stroke="#7f7f7f" stroke-dasharray="5,2" d="M347.56,-127.75C380.27,-127.75 413.87,-127.75 444.61,-127.75"/>
<text text-anchor="start" x="414.61" y="-114.45" font-family="Times,serif" font-size="14.00">0..N</text>
<text text-anchor="start" x="347.56" y="-114.45" font-family="Times,serif" font-size="14.00">1</text>
</g>
<!-- Attraction -->
<g id="node3" class="node">
<title>Attraction</title>
<polygon fill="none" stroke="black" points="445.62,-742 445.62,-771.5 689.62,-771.5 689.62,-742 445.62,-742"/>
<text text-anchor="start" x="521.88" y="-752.3" font-family="Helvetica,sans-Serif" font-weight="bold" font-size="16.00">Attraction</text>
<polygon fill="none" stroke="black" points="445.62,-714.75 445.62,-742 689.62,-742 689.62,-714.75 445.62,-714.75"/>
<text text-anchor="start" x="450.62" y="-724.7" font-family="Helvetica,sans-Serif" text-decoration="underline" font-size="14.00">id</text>
<text text-anchor="start" x="463.38" y="-724.7" font-family="Helvetica,sans-Serif" font-size="14.00"> [bigint, PK]</text>
<polygon fill="none" stroke="black" points="445.62,-687.5 445.62,-714.75 689.62,-714.75 689.62,-687.5 445.62,-687.5"/>
<text text-anchor="start" x="450.62" y="-697.45" font-family="Helvetica,sans-Serif" font-size="14.00">name</text>
<text text-anchor="start" x="489.62" y="-697.45" font-family="Helvetica,sans-Serif" font-size="14.00"> [varchar(255)]</text>
<polygon fill="none" stroke="black" points="445.62,-660.25 445.62,-687.5 689.62,-687.5 689.62,-660.25 445.62,-660.25"/>
<text text-anchor="start" x="450.62" y="-670.2" font-family="Helvetica,sans-Serif" font-size="14.00">description</text>
<text text-anchor="start" x="527.88" y="-670.2" font-family="Helvetica,sans-Serif" font-size="14.00"> [text]</text>
<polygon fill="none" stroke="black" points="445.62,-633 445.62,-660.25 689.62,-660.25 689.62,-633 445.62,-633"/>
<text text-anchor="start" x="450.62" y="-642.95" font-family="Helvetica,sans-Serif" font-size="14.00">location</text>
<text text-anchor="start" x="504.62" y="-642.95" font-family="Helvetica,sans-Serif" font-size="14.00"> [geography(Point, 4326)]</text>
<polygon fill="none" stroke="black" points="445.62,-605.75 445.62,-633 689.62,-633 689.62,-605.75 445.62,-605.75"/>
<text text-anchor="start" x="450.62" y="-615.7" font-family="Helvetica,sans-Serif" font-size="14.00">category</text>
<text text-anchor="start" x="511.38" y="-615.7" font-family="Helvetica,sans-Serif" font-size="14.00"> [varchar(100)]</text>
<polygon fill="none" stroke="black" points="445.62,-578.5 445.62,-605.75 689.62,-605.75 689.62,-578.5 445.62,-578.5"/>
<text text-anchor="start" x="450.62" y="-588.45" font-family="Helvetica,sans-Serif" font-size="14.00">metadata</text>
<text text-anchor="start" x="516.62" y="-588.45" font-family="Helvetica,sans-Serif" font-size="14.00"> [jsonb]</text>
<polygon fill="none" stroke="black" points="445.62,-551.25 445.62,-578.5 689.62,-578.5 689.62,-551.25 445.62,-551.25"/>
<text text-anchor="start" x="450.62" y="-561.2" font-family="Helvetica,sans-Serif" font-size="14.00">photo_url</text>
<text text-anchor="start" x="515.88" y="-561.2" font-family="Helvetica,sans-Serif" font-size="14.00"> [varchar(512)]</text>
<polygon fill="none" stroke="black" points="445.62,-524 445.62,-551.25 689.62,-551.25 689.62,-524 445.62,-524"/>
<text text-anchor="start" x="450.62" y="-533.95" font-family="Helvetica,sans-Serif" font-size="14.00">created_at</text>
<text text-anchor="start" x="522.62" y="-533.95" font-family="Helvetica,sans-Serif" font-size="14.00"> [timestamp]</text>
</g>
<!-- Attraction&#45;&#45;PhotoRecognition -->
<g id="edge2" class="edge">
<title>Attraction&#45;&#45;PhotoRecognition</title>
<path fill="none" stroke="#7f7f7f" stroke-dasharray="5,2" d="M697.49,-647.75C726.68,-647.75 758.12,-647.75 788.73,-647.75"/>
<text text-anchor="start" x="758.73" y="-634.45" font-family="Times,serif" font-size="14.00">0..N</text>
<text text-anchor="start" x="697.49" y="-634.45" font-family="Times,serif" font-size="14.00">1</text>
</g>
<!-- Offer&#45;&#45;Transaction -->
<g id="edge5" class="edge">
<title>Offer&#45;&#45;Transaction</title>
<path fill="none" stroke="#7f7f7f" stroke-dasharray="5,2" d="M690.76,-127.75C721.51,-127.75 755.07,-127.75 787.73,-127.75"/>
<text text-anchor="start" x="757.73" y="-114.45" font-family="Times,serif" font-size="14.00">0..N</text>
<text text-anchor="start" x="690.76" y="-114.45" font-family="Times,serif" font-size="14.00">1</text>
</g>
</g>
</svg>
