<svg xmlns="http://www.w3.org/2000/svg" xmlns:xlink="http://www.w3.org/1999/xlink" contentStyleType="text/css" data-diagram-type="GANTT" height="866px" preserveAspectRatio="none" style="width:1288px;height:866px;background:#FFFFFF;" version="1.1" viewBox="0 0 1288 866" width="1288px" zoomAndPan="magnify"><title>Option 3: All Features Day 1 &#8212; 10 months, 8 to 10 devs, US+China+EU</title><defs/><g><g class="title" data-source-line="1"><text fill="#000000" font-family="sans-serif" font-size="14" font-weight="bold" lengthAdjust="spacing" textLength="558.0586" x="300.4707" y="22.9951">Option 3: All Features Day 1 &#8212; 10 months, 8 to 10 devs, US+China+EU</text></g><text fill="#000000" font-family="sans-serif" font-size="10" lengthAdjust="spacing" textLength="12.7246" x="9" y="62.5791">10</text><text fill="#000000" font-family="sans-serif" font-size="10" lengthAdjust="spacing" textLength="12.7246" x="37" y="62.5791">11</text><text fill="#000000" font-family="sans-serif" font-size="10" lengthAdjust="spacing" textLength="12.7246" x="65" y="62.5791">12</text><text fill="#000000" font-family="sans-serif" font-size="10" lengthAdjust="spacing" textLength="12.7246" x="93" y="62.5791">13</text><text fill="#000000" font-family="sans-serif" font-size="10" lengthAdjust="spacing" textLength="12.7246" x="121" y="62.5791">14</text><text fill="#000000" font-family="sans-serif" font-size="10" lengthAdjust="spacing" textLength="12.7246" x="149" y="62.5791">15</text><text fill="#000000" font-family="sans-serif" font-size="10" lengthAdjust="spacing" textLength="12.7246" x="177" y="62.5791">16</text><text fill="#000000" font-family="sans-serif" font-size="10" lengthAdjust="spacing" textLength="12.7246" x="205" y="62.5791">17</text><text fill="#000000" font-family="sans-serif" font-size="10" lengthAdjust="spacing" textLength="12.7246" x="233" y="62.5791">18</text><text fill="#000000" font-family="sans-serif" font-size="10" lengthAdjust="spacing" textLength="12.7246" x="261" y="62.5791">19</text><text fill="#000000" font-family="sans-serif" font-size="10" lengthAdjust="spacing" textLength="12.7246" x="289" y="62.5791">20</text><text fill="#000000" font-family="sans-serif" font-size="10" lengthAdjust="spacing" textLength="12.7246" x="317" y="62.5791">21</text><text fill="#000000" font-family="sans-serif" font-size="10" lengthAdjust="spacing" textLength="12.7246" x="345" y="62.5791">22</text><text fill="#000000" font-family="sans-serif" font-size="10" lengthAdjust="spacing" textLength="12.7246" x="373" y="62.5791">23</text><text fill="#000000" font-family="sans-serif" font-size="10" lengthAdjust="spacing" textLength="12.7246" x="401" y="62.5791">24</text><text fill="#000000" font-family="sans-serif" font-size="10" lengthAdjust="spacing" textLength="12.7246" x="429" y="62.5791">25</text><text fill="#000000" font-family="sans-serif" font-size="10" lengthAdjust="spacing" textLength="12.7246" x="457" y="62.5791">26</text><text fill="#000000" font-family="sans-serif" font-size="10" lengthAdjust="spacing" textLength="12.7246" x="485" y="62.5791">27</text><text fill="#000000" font-family="sans-serif" font-size="10" lengthAdjust="spacing" textLength="12.7246" x="513" y="62.5791">28</text><text fill="#000000" font-family="sans-serif" font-size="10" lengthAdjust="spacing" textLength="12.7246" x="541" y="62.5791">29</text><text fill="#000000" font-family="sans-serif" font-size="10" lengthAdjust="spacing" textLength="12.7246" x="569" y="62.5791">30</text><text fill="#000000" font-family="sans-serif" font-size="10" lengthAdjust="spacing" textLength="12.7246" x="597" y="62.5791">31</text><text fill="#000000" font-family="sans-serif" font-size="10" lengthAdjust="spacing" textLength="12.7246" x="625" y="62.5791">32</text><text fill="#000000" font-family="sans-serif" font-size="10" lengthAdjust="spacing" textLength="12.7246" x="653" y="62.5791">33</text><text fill="#000000" font-family="sans-serif" font-size="10" lengthAdjust="spacing" textLength="12.7246" x="681" y="62.5791">34</text><text fill="#000000" font-family="sans-serif" font-size="10" lengthAdjust="spacing" textLength="12.7246" x="709" y="62.5791">35</text><text fill="#000000" font-family="sans-serif" font-size="10" lengthAdjust="spacing" textLength="12.7246" x="737" y="62.5791">36</text><text fill="#000000" font-family="sans-serif" font-size="10" lengthAdjust="spacing" textLength="12.7246" x="765" y="62.5791">37</text><text fill="#000000" font-family="sans-serif" font-size="10" lengthAdjust="spacing" textLength="12.7246" x="793" y="62.5791">38</text><text fill="#000000" font-family="sans-serif" font-size="10" lengthAdjust="spacing" textLength="12.7246" x="821" y="62.5791">39</text><text fill="#000000" font-family="sans-serif" font-size="10" lengthAdjust="spacing" textLength="12.7246" x="849" y="62.5791">40</text><text fill="#000000" font-family="sans-serif" font-size="10" lengthAdjust="spacing" textLength="12.7246" x="877" y="62.5791">41</text><text fill="#000000" font-family="sans-serif" font-size="10" lengthAdjust="spacing" textLength="12.7246" x="905" y="62.5791">42</text><text fill="#000000" font-family="sans-serif" font-size="10" lengthAdjust="spacing" textLength="12.7246" x="933" y="62.5791">43</text><text fill="#000000" font-family="sans-serif" font-size="10" lengthAdjust="spacing" textLength="12.7246" x="961" y="62.5791">44</text><text fill="#000000" font-family="sans-serif" font-size="10" lengthAdjust="spacing" textLength="12.7246" x="989" y="62.5791">45</text><text fill="#000000" font-family="sans-serif" font-size="10" lengthAdjust="spacing" textLength="12.7246" x="1017" y="62.5791">46</text><text fill="#000000" font-family="sans-serif" font-size="10" lengthAdjust="spacing" textLength="12.7246" x="1045" y="62.5791">47</text><text fill="#000000" font-family="sans-serif" font-size="10" lengthAdjust="spacing" textLength="12.7246" x="1073" y="62.5791">48</text><text fill="#000000" font-family="sans-serif" font-size="10" lengthAdjust="spacing" textLength="12.7246" x="1101" y="62.5791">49</text><text fill="#000000" font-family="sans-serif" font-size="10" lengthAdjust="spacing" textLength="12.7246" x="1129" y="62.5791">50</text><text fill="#000000" font-family="sans-serif" font-size="10" lengthAdjust="spacing" textLength="12.7246" x="1157" y="62.5791">51</text><line style="stroke:#C0C0C0;stroke-width:1;" x1="4" x2="4" y1="53.2969" y2="744.4609"/><line style="stroke:#C0C0C0;stroke-width:1;" x1="32" x2="32" y1="53.2969" y2="744.4609"/><line style="stroke:#C0C0C0;stroke-width:1;" x1="60" x2="60" y1="53.2969" y2="744.4609"/><line style="stroke:#C0C0C0;stroke-width:1;" x1="88" x2="88" y1="53.2969" y2="744.4609"/><line style="stroke:#C0C0C0;stroke-width:1;" x1="116" x2="116" y1="53.2969" y2="744.4609"/><line style="stroke:#C0C0C0;stroke-width:1;" x1="144" x2="144" y1="53.2969" y2="744.4609"/><line style="stroke:#C0C0C0;stroke-width:1;" x1="172" x2="172" y1="53.2969" y2="744.4609"/><line style="stroke:#C0C0C0;stroke-width:1;" x1="200" x2="200" y1="53.2969" y2="744.4609"/><line style="stroke:#C0C0C0;stroke-width:1;" x1="228" x2="228" y1="53.2969" y2="744.4609"/><line style="stroke:#C0C0C0;stroke-width:1;" x1="256" x2="256" y1="53.2969" y2="744.4609"/><line style="stroke:#C0C0C0;stroke-width:1;" x1="284" x2="284" y1="53.2969" y2="744.4609"/><line style="stroke:#C0C0C0;stroke-width:1;" x1="312" x2="312" y1="53.2969" y2="744.4609"/><line style="stroke:#C0C0C0;stroke-width:1;" x1="340" x2="340" y1="53.2969" y2="744.4609"/><line style="stroke:#C0C0C0;stroke-width:1;" x1="368" x2="368" y1="53.2969" y2="744.4609"/><line style="stroke:#C0C0C0;stroke-width:1;" x1="396" x2="396" y1="53.2969" y2="744.4609"/><line style="stroke:#C0C0C0;stroke-width:1;" x1="424" x2="424" y1="53.2969" y2="744.4609"/><line style="stroke:#C0C0C0;stroke-width:1;" x1="452" x2="452" y1="53.2969" y2="744.4609"/><line style="stroke:#C0C0C0;stroke-width:1;" x1="480" x2="480" y1="53.2969" y2="744.4609"/><line style="stroke:#C0C0C0;stroke-width:1;" x1="508" x2="508" y1="53.2969" y2="744.4609"/><line style="stroke:#C0C0C0;stroke-width:1;" x1="536" x2="536" y1="53.2969" y2="744.4609"/><line style="stroke:#C0C0C0;stroke-width:1;" x1="564" x2="564" y1="53.2969" y2="744.4609"/><line style="stroke:#C0C0C0;stroke-width:1;" x1="592" x2="592" y1="53.2969" y2="744.4609"/><line style="stroke:#C0C0C0;stroke-width:1;" x1="620" x2="620" y1="53.2969" y2="744.4609"/><line style="stroke:#C0C0C0;stroke-width:1;" x1="648" x2="648" y1="53.2969" y2="744.4609"/><line style="stroke:#C0C0C0;stroke-width:1;" x1="676" x2="676" y1="53.2969" y2="744.4609"/><line style="stroke:#C0C0C0;stroke-width:1;" x1="704" x2="704" y1="53.2969" y2="744.4609"/><line style="stroke:#C0C0C0;stroke-width:1;" x1="732" x2="732" y1="53.2969" y2="744.4609"/><line style="stroke:#C0C0C0;stroke-width:1;" x1="760" x2="760" y1="53.2969" y2="744.4609"/><line style="stroke:#C0C0C0;stroke-width:1;" x1="788" x2="788" y1="53.2969" y2="744.4609"/><line style="stroke:#C0C0C0;stroke-width:1;" x1="816" x2="816" y1="53.2969" y2="744.4609"/><line style="stroke:#C0C0C0;stroke-width:1;" x1="844" x2="844" y1="53.2969" y2="744.4609"/><line style="stroke:#C0C0C0;stroke-width:1;" x1="872" x2="872" y1="53.2969" y2="744.4609"/><line style="stroke:#C0C0C0;stroke-width:1;" x1="900" x2="900" y1="53.2969" y2="744.4609"/><line style="stroke:#C0C0C0;stroke-width:1;" x1="928" x2="928" y1="53.2969" y2="744.4609"/><line style="stroke:#C0C0C0;stroke-width:1;" x1="956" x2="956" y1="53.2969" y2="744.4609"/><line style="stroke:#C0C0C0;stroke-width:1;" x1="984" x2="984" y1="53.2969" y2="744.4609"/><line style="stroke:#C0C0C0;stroke-width:1;" x1="1012" x2="1012" y1="53.2969" y2="744.4609"/><line style="stroke:#C0C0C0;stroke-width:1;" x1="1040" x2="1040" y1="53.2969" y2="744.4609"/><line style="stroke:#C0C0C0;stroke-width:1;" x1="1068" x2="1068" y1="53.2969" y2="744.4609"/><line style="stroke:#C0C0C0;stroke-width:1;" x1="1096" x2="1096" y1="53.2969" y2="744.4609"/><line style="stroke:#C0C0C0;stroke-width:1;" x1="1124" x2="1124" y1="53.2969" y2="744.4609"/><line style="stroke:#C0C0C0;stroke-width:1;" x1="1152" x2="1152" y1="53.2969" y2="744.4609"/><line style="stroke:#C0C0C0;stroke-width:1;" x1="1160" x2="1160" y1="53.2969" y2="744.4609"/><line style="stroke:#C0C0C0;stroke-width:1;" x1="0" x2="0" y1="37.2969" y2="53.2969"/><line style="stroke:#C0C0C0;stroke-width:1;" x1="124" x2="124" y1="37.2969" y2="53.2969"/><text fill="#000000" font-family="sans-serif" font-size="12" font-weight="bold" lengthAdjust="spacing" textLength="63.5332" x="30.2334" y="48.4355">Mar 2026</text><line style="stroke:#C0C0C0;stroke-width:1;" x1="244" x2="244" y1="37.2969" y2="53.2969"/><text fill="#000000" font-family="sans-serif" font-size="12" font-weight="bold" lengthAdjust="spacing" textLength="61.3711" x="153.3145" y="48.4355">Apr 2026</text><line style="stroke:#C0C0C0;stroke-width:1;" x1="368" x2="368" y1="37.2969" y2="53.2969"/><text fill="#000000" font-family="sans-serif" font-size="12" font-weight="bold" lengthAdjust="spacing" textLength="65.4375" x="273.2813" y="48.4355">May 2026</text><line style="stroke:#C0C0C0;stroke-width:1;" x1="488" x2="488" y1="37.2969" y2="53.2969"/><text fill="#000000" font-family="sans-serif" font-size="12" font-weight="bold" lengthAdjust="spacing" textLength="59.127" x="398.4365" y="48.4355">Jun 2026</text><line style="stroke:#C0C0C0;stroke-width:1;" x1="612" x2="612" y1="37.2969" y2="53.2969"/><text fill="#000000" font-family="sans-serif" font-size="12" font-weight="bold" lengthAdjust="spacing" textLength="54.6973" x="522.6514" y="48.4355">Jul 2026</text><line style="stroke:#C0C0C0;stroke-width:1;" x1="736" x2="736" y1="37.2969" y2="53.2969"/><text fill="#000000" font-family="sans-serif" font-size="12" font-weight="bold" lengthAdjust="spacing" textLength="63.9961" x="642.002" y="48.4355">Aug 2026</text><line style="stroke:#C0C0C0;stroke-width:1;" x1="856" x2="856" y1="37.2969" y2="53.2969"/><text fill="#000000" font-family="sans-serif" font-size="12" font-weight="bold" lengthAdjust="spacing" textLength="62.9473" x="764.5264" y="48.4355">Sep 2026</text><line style="stroke:#C0C0C0;stroke-width:1;" x1="980" x2="980" y1="37.2969" y2="53.2969"/><text fill="#000000" font-family="sans-serif" font-size="12" font-weight="bold" lengthAdjust="spacing" textLength="60.627" x="887.6865" y="48.4355">Oct 2026</text><line style="stroke:#C0C0C0;stroke-width:1;" x1="1100" x2="1100" y1="37.2969" y2="53.2969"/><text fill="#000000" font-family="sans-serif" font-size="12" font-weight="bold" lengthAdjust="spacing" textLength="63.6855" x="1008.1572" y="48.4355">Nov 2026</text><line style="stroke:#C0C0C0;stroke-width:1;" x1="1160" x2="1160" y1="37.2969" y2="53.2969"/><text fill="#000000" font-family="sans-serif" font-size="12" font-weight="bold" lengthAdjust="spacing" textLength="25.2129" x="1117.3936" y="48.4355">Dec</text><line style="stroke:#C0C0C0;stroke-width:1;" x1="0" x2="1160" y1="37.2969" y2="37.2969"/><line style="stroke:#C0C0C0;stroke-width:1;" x1="0" x2="1160" y1="53.2969" y2="53.2969"/><line style="stroke:#C0C0C0;stroke-width:1;" x1="0" x2="1160" y1="64.2969" y2="64.2969"/><rect fill="#F0F0F0" height="22.8047" style="stroke:none;stroke-width:1;" width="1160" x="0" y="69.2969"/><line style="stroke:#181818;stroke-width:1;" x1="0" x2="5" y1="80.6992" y2="80.6992"/><line style="stroke:#181818;stroke-width:1;" x1="154.5732" x2="1159" y1="80.6992" y2="80.6992"/><rect fill="#BBDEFB" height="11.6406" style="stroke:none;stroke-width:1;" width="96" x="2" y="99.1016"/><rect fill="none" height="11.6406" style="stroke:#1976D2;stroke-width:1;" width="96" x="2" y="99.1016"/><rect fill="#BBDEFB" height="11.6406" style="stroke:none;stroke-width:1;" width="124" x="2" y="114.7422"/><rect fill="none" height="11.6406" style="stroke:#1976D2;stroke-width:1;" width="124" x="2" y="114.7422"/><rect fill="#BBDEFB" height="11.6406" style="stroke:none;stroke-width:1;" width="124" x="78" y="130.3828"/><rect fill="none" height="11.6406" style="stroke:#1976D2;stroke-width:1;" width="124" x="78" y="130.3828"/><rect fill="#BBDEFB" height="11.6406" style="stroke:none;stroke-width:1;" width="164" x="58" y="146.0234"/><rect fill="none" height="11.6406" style="stroke:#1976D2;stroke-width:1;" width="164" x="58" y="146.0234"/><rect fill="#BBDEFB" height="11.6406" style="stroke:none;stroke-width:1;" width="140" x="182" y="161.6641"/><rect fill="none" height="11.6406" style="stroke:#1976D2;stroke-width:1;" width="140" x="182" y="161.6641"/><rect fill="#C8E6C9" height="11.6406" style="stroke:none;stroke-width:1;" width="156" x="370" y="177.3047"/><rect fill="none" height="11.6406" style="stroke:#388E3C;stroke-width:1;" width="156" x="370" y="177.3047"/><rect fill="#C8E6C9" height="11.6406" style="stroke:none;stroke-width:1;" width="140" x="426" y="192.9453"/><rect fill="none" height="11.6406" style="stroke:#388E3C;stroke-width:1;" width="140" x="426" y="192.9453"/><rect fill="#FFE0B2" height="11.6406" style="stroke:none;stroke-width:1;" width="124" x="490" y="208.5859"/><rect fill="none" height="11.6406" style="stroke:#E65100;stroke-width:1;" width="124" x="490" y="208.5859"/><rect fill="#FFE0B2" height="11.6406" style="stroke:none;stroke-width:1;" width="104" x="546" y="224.2266"/><rect fill="none" height="11.6406" style="stroke:#E65100;stroke-width:1;" width="104" x="546" y="224.2266"/><rect fill="#F0F0F0" height="22.8047" style="stroke:none;stroke-width:1;" width="1160" x="0" y="242.8672"/><line style="stroke:#181818;stroke-width:1;" x1="0" x2="5" y1="254.2695" y2="254.2695"/><line style="stroke:#181818;stroke-width:1;" x1="110.7988" x2="1159" y1="254.2695" y2="254.2695"/><rect fill="#BBDEFB" height="11.6406" style="stroke:none;stroke-width:1;" width="108" x="2" y="272.6719"/><rect fill="none" height="11.6406" style="stroke:#1976D2;stroke-width:1;" width="108" x="2" y="272.6719"/><rect fill="#BBDEFB" height="11.6406" style="stroke:none;stroke-width:1;" width="124" x="78" y="288.3125"/><rect fill="none" height="11.6406" style="stroke:#1976D2;stroke-width:1;" width="124" x="78" y="288.3125"/><rect fill="#BBDEFB" height="11.6406" style="stroke:none;stroke-width:1;" width="120" x="162" y="303.9531"/><rect fill="none" height="11.6406" style="stroke:#1976D2;stroke-width:1;" width="120" x="162" y="303.9531"/><rect fill="#C8E6C9" height="11.6406" style="stroke:none;stroke-width:1;" width="96" x="246" y="319.5938"/><rect fill="none" height="11.6406" style="stroke:#388E3C;stroke-width:1;" width="96" x="246" y="319.5938"/><rect fill="#C8E6C9" height="11.6406" style="stroke:none;stroke-width:1;" width="120" x="370" y="335.2344"/><rect fill="none" height="11.6406" style="stroke:#388E3C;stroke-width:1;" width="120" x="370" y="335.2344"/><rect fill="#C8E6C9" height="11.6406" style="stroke:none;stroke-width:1;" width="120" x="446" y="350.875"/><rect fill="none" height="11.6406" style="stroke:#388E3C;stroke-width:1;" width="120" x="446" y="350.875"/><rect fill="#FFE0B2" height="11.6406" style="stroke:none;stroke-width:1;" width="140" x="490" y="366.5156"/><rect fill="none" height="11.6406" style="stroke:#E65100;stroke-width:1;" width="140" x="490" y="366.5156"/><rect fill="#FFE0B2" height="11.6406" style="stroke:none;stroke-width:1;" width="124" x="566" y="382.1563"/><rect fill="none" height="11.6406" style="stroke:#E65100;stroke-width:1;" width="124" x="566" y="382.1563"/><rect fill="#FFE0B2" height="11.6406" style="stroke:none;stroke-width:1;" width="176" x="738" y="397.7969"/><rect fill="none" height="11.6406" style="stroke:#E65100;stroke-width:1;" width="176" x="738" y="397.7969"/><rect fill="#F0F0F0" height="22.8047" style="stroke:none;stroke-width:1;" width="1160" x="0" y="416.4375"/><line style="stroke:#181818;stroke-width:1;" x1="0" x2="5" y1="427.8398" y2="427.8398"/><line style="stroke:#181818;stroke-width:1;" x1="116.9541" x2="1159" y1="427.8398" y2="427.8398"/><rect fill="#BBDEFB" height="11.6406" style="stroke:none;stroke-width:1;" width="124" x="2" y="446.2422"/><rect fill="none" height="11.6406" style="stroke:#1976D2;stroke-width:1;" width="124" x="2" y="446.2422"/><rect fill="#BBDEFB" height="11.6406" style="stroke:none;stroke-width:1;" width="96" x="126" y="461.8828"/><rect fill="none" height="11.6406" style="stroke:#1976D2;stroke-width:1;" width="96" x="126" y="461.8828"/><rect fill="#C8E6C9" height="11.6406" style="stroke:none;stroke-width:1;" width="120" x="182" y="477.5234"/><rect fill="none" height="11.6406" style="stroke:#388E3C;stroke-width:1;" width="120" x="182" y="477.5234"/><rect fill="#FFE0B2" height="11.6406" style="stroke:none;stroke-width:1;" width="120" x="738" y="493.1641"/><rect fill="none" height="11.6406" style="stroke:#E65100;stroke-width:1;" width="120" x="738" y="493.1641"/><rect fill="#FFE0B2" height="11.6406" style="stroke:none;stroke-width:1;" width="120" x="794" y="508.8047"/><rect fill="none" height="11.6406" style="stroke:#E65100;stroke-width:1;" width="120" x="794" y="508.8047"/><rect fill="#F0F0F0" height="22.8047" style="stroke:none;stroke-width:1;" width="1160" x="0" y="527.4453"/><line style="stroke:#181818;stroke-width:1;" x1="0" x2="5" y1="538.8477" y2="538.8477"/><line style="stroke:#181818;stroke-width:1;" x1="148.5254" x2="1159" y1="538.8477" y2="538.8477"/><rect fill="#FFE0B2" height="11.6406" style="stroke:none;stroke-width:1;" width="120" x="370" y="557.25"/><rect fill="none" height="11.6406" style="stroke:#E65100;stroke-width:1;" width="120" x="370" y="557.25"/><rect fill="#FFE0B2" height="11.6406" style="stroke:none;stroke-width:1;" width="120" x="466" y="572.8906"/><rect fill="none" height="11.6406" style="stroke:#E65100;stroke-width:1;" width="120" x="466" y="572.8906"/><rect fill="#FFE0B2" height="11.6406" style="stroke:none;stroke-width:1;" width="124" x="546" y="588.5313"/><rect fill="none" height="11.6406" style="stroke:#E65100;stroke-width:1;" width="124" x="546" y="588.5313"/><rect fill="#FFE0B2" height="11.6406" style="stroke:none;stroke-width:1;" width="124" x="614" y="604.1719"/><rect fill="none" height="11.6406" style="stroke:#E65100;stroke-width:1;" width="124" x="614" y="604.1719"/><rect fill="#F0F0F0" height="22.8047" style="stroke:none;stroke-width:1;" width="1160" x="0" y="622.8125"/><line style="stroke:#181818;stroke-width:1;" x1="0" x2="5" y1="634.2148" y2="634.2148"/><line style="stroke:#181818;stroke-width:1;" x1="84.7813" x2="1159" y1="634.2148" y2="634.2148"/><rect fill="#BBDEFB" height="11.6406" style="stroke:none;stroke-width:1;" width="72" x="282" y="652.6172"/><rect fill="none" height="11.6406" style="stroke:#1976D2;stroke-width:1;" width="72" x="282" y="652.6172"/><rect fill="#FFE0B2" height="11.6406" style="stroke:none;stroke-width:1;" width="124" x="914" y="668.2578"/><rect fill="none" height="11.6406" style="stroke:#E65100;stroke-width:1;" width="124" x="914" y="668.2578"/><rect fill="#FFE0B2" height="11.6406" style="stroke:none;stroke-width:1;" width="120" x="1038" y="683.8984"/><rect fill="none" height="11.6406" style="stroke:#E65100;stroke-width:1;" width="120" x="1038" y="683.8984"/><polygon fill="#FF4500" points="354,699.5391,359,704.5391,354,709.5391,349,704.5391" style="stroke:#FF4500;stroke-width:1;"/><polygon fill="#FF4500" points="614,715.1797,619,720.1797,614,725.1797,609,720.1797" style="stroke:#FF4500;stroke-width:1;"/><polygon fill="#FF4500" points="1158,730.8203,1163,735.8203,1158,740.8203,1153,735.8203" style="stroke:#FF4500;stroke-width:1;"/><text fill="#000000" font-family="sans-serif" font-size="11" font-weight="bold" lengthAdjust="spacing" textLength="139.5732" x="10" y="84.5073">Backend Core (3 devs)</text><text fill="#000000" font-family="sans-serif" font-size="10" lengthAdjust="spacing" textLength="162.9736" x="102" y="108.3838">Microservices Scaffold + API GW</text><text fill="#000000" font-family="sans-serif" font-size="10" lengthAdjust="spacing" textLength="174.0723" x="130" y="124.0244">User Service + Auth - Cognito MFA</text><text fill="#000000" font-family="sans-serif" font-size="10" lengthAdjust="spacing" textLength="142.71" x="206" y="139.665">Partner Service + Admin API</text><text fill="#000000" font-family="sans-serif" font-size="10" lengthAdjust="spacing" textLength="148.8281" x="62" y="155.3057">Photo Recognition - Multi-LLM</text><text fill="#000000" font-family="sans-serif" font-size="10" lengthAdjust="spacing" textLength="164.3408" x="326" y="170.9463">Recommendation + OpenSearch</text><text fill="#000000" font-family="sans-serif" font-size="10" lengthAdjust="spacing" textLength="167.1338" x="530" y="186.5869">Stripe Payment Service - PCI-DSS</text><text fill="#000000" font-family="sans-serif" font-size="10" lengthAdjust="spacing" textLength="107.3779" x="430" y="202.2275">Loyalty Points Engine</text><text fill="#000000" font-family="sans-serif" font-size="10" lengthAdjust="spacing" textLength="126.1475" x="618" y="217.8682">Kinesis Analytics Pipeline</text><text fill="#000000" font-family="sans-serif" font-size="10" lengthAdjust="spacing" textLength="138.5693" x="654" y="233.5088">EventBridge + Notifications</text><text fill="#000000" font-family="sans-serif" font-size="11" font-weight="bold" lengthAdjust="spacing" textLength="95.7988" x="10" y="258.0776">Mobile (3 devs)</text><text fill="#000000" font-family="sans-serif" font-size="10" lengthAdjust="spacing" textLength="184.5361" x="114" y="281.9541">Native iOS/Android + Design System</text><text fill="#000000" font-family="sans-serif" font-size="10" lengthAdjust="spacing" textLength="160.708" x="206" y="297.5947">Camera + Upload + Description</text><text fill="#000000" font-family="sans-serif" font-size="10" lengthAdjust="spacing" textLength="171.123" x="286" y="313.2354">Partner Venues + Map Integration</text><text fill="#000000" font-family="sans-serif" font-size="10" lengthAdjust="spacing" textLength="133.4521" x="346" y="328.876">QR Code + Discount Flows</text><text fill="#000000" font-family="sans-serif" font-size="10" lengthAdjust="spacing" textLength="132.1094" x="494" y="344.5166">Payment + Checkout Flow</text><text fill="#000000" font-family="sans-serif" font-size="10" lengthAdjust="spacing" textLength="144.2725" x="570" y="360.1572">Loyalty Dashboard + History</text><text fill="#000000" font-family="sans-serif" font-size="10" lengthAdjust="spacing" textLength="127.1631" x="494" y="375.7979">Offline Mode + Local LLM</text><text fill="#000000" font-family="sans-serif" font-size="10" lengthAdjust="spacing" textLength="150.5127" x="694" y="391.4385">Multi-language + Translations</text><text fill="#000000" font-family="sans-serif" font-size="10" lengthAdjust="spacing" textLength="117.3389" x="742" y="407.0791">Partner Portal Web App</text><text fill="#000000" font-family="sans-serif" font-size="11" font-weight="bold" lengthAdjust="spacing" textLength="101.9541" x="10" y="431.6479">DevOps (2 devs)</text><text fill="#000000" font-family="sans-serif" font-size="10" lengthAdjust="spacing" textLength="159.8047" x="130" y="455.5244">IaC Terraform + CI/CD Pipelines</text><text fill="#000000" font-family="sans-serif" font-size="10" lengthAdjust="spacing" textLength="110.5469" x="226" y="471.165">US Region Full Deploy</text><text fill="#000000" font-family="sans-serif" font-size="10" lengthAdjust="spacing" textLength="168.1494" x="306" y="486.8057">Observability Stack - CW + X-Ray</text><text fill="#000000" font-family="sans-serif" font-size="10" lengthAdjust="spacing" textLength="143.7598" x="862" y="502.4463">Security Audit + Pen Testing</text><text fill="#000000" font-family="sans-serif" font-size="10" lengthAdjust="spacing" textLength="172.3877" x="918" y="518.0869">Performance Testing - Load/Stress</text><text fill="#000000" font-family="sans-serif" font-size="11" font-weight="bold" lengthAdjust="spacing" textLength="133.5254" x="10" y="542.6558">Multi-Region (2 devs)</text><text fill="#000000" font-family="sans-serif" font-size="10" lengthAdjust="spacing" textLength="158.6279" x="494" y="566.5322">China Region Infra - CN-North-1</text><text fill="#000000" font-family="sans-serif" font-size="10" lengthAdjust="spacing" textLength="162.8564" x="590" y="582.1729">Alibaba CDN + GFW Compliance</text><text fill="#000000" font-family="sans-serif" font-size="10" lengthAdjust="spacing" textLength="147.998" x="674" y="597.8135">EU Region Prep - GDPR Setup</text><text fill="#000000" font-family="sans-serif" font-size="10" lengthAdjust="spacing" textLength="154.2725" x="742" y="613.4541">Cross-Region Replication + DR</text><text fill="#000000" font-family="sans-serif" font-size="11" font-weight="bold" lengthAdjust="spacing" textLength="69.7813" x="10" y="638.0229">Integration</text><text fill="#000000" font-family="sans-serif" font-size="10" lengthAdjust="spacing" textLength="112.1875" x="358" y="661.8994">POC Integration Sprint</text><text fill="#000000" font-family="sans-serif" font-size="10" lengthAdjust="spacing" textLength="146.0303" x="1042" y="677.54">Full Integration + Regression</text><text fill="#000000" font-family="sans-serif" font-size="10" lengthAdjust="spacing" textLength="124.3701" x="1162" y="693.1807">Staged Rollout + Launch</text><text fill="#000000" font-family="sans-serif" font-size="10" font-weight="bold" lengthAdjust="spacing" textLength="59.0234" x="362" y="708.8213">POC Demo</text><text fill="#000000" font-family="sans-serif" font-size="10" font-weight="bold" lengthAdjust="spacing" textLength="95.3418" x="622" y="724.4619">MVP - US Launch</text><text fill="#000000" font-family="sans-serif" font-size="10" font-weight="bold" lengthAdjust="spacing" textLength="115.415" x="1166" y="740.1025">Full Release - Global</text><line style="stroke:#C0C0C0;stroke-width:1;" x1="0" x2="1160" y1="744.4609" y2="744.4609"/><line style="stroke:#C0C0C0;stroke-width:1;" x1="0" x2="0" y1="744.4609" y2="760.4609"/><line style="stroke:#C0C0C0;stroke-width:1;" x1="124" x2="124" y1="744.4609" y2="760.4609"/><text fill="#000000" font-family="sans-serif" font-size="12" font-weight="bold" lengthAdjust="spacing" textLength="63.5332" x="30.2334" y="755.5996">Mar 2026</text><line style="stroke:#C0C0C0;stroke-width:1;" x1="244" x2="244" y1="744.4609" y2="760.4609"/><text fill="#000000" font-family="sans-serif" font-size="12" font-weight="bold" lengthAdjust="spacing" textLength="61.3711" x="153.3145" y="755.5996">Apr 2026</text><line style="stroke:#C0C0C0;stroke-width:1;" x1="368" x2="368" y1="744.4609" y2="760.4609"/><text fill="#000000" font-family="sans-serif" font-size="12" font-weight="bold" lengthAdjust="spacing" textLength="65.4375" x="273.2813" y="755.5996">May 2026</text><line style="stroke:#C0C0C0;stroke-width:1;" x1="488" x2="488" y1="744.4609" y2="760.4609"/><text fill="#000000" font-family="sans-serif" font-size="12" font-weight="bold" lengthAdjust="spacing" textLength="59.127" x="398.4365" y="755.5996">Jun 2026</text><line style="stroke:#C0C0C0;stroke-width:1;" x1="612" x2="612" y1="744.4609" y2="760.4609"/><text fill="#000000" font-family="sans-serif" font-size="12" font-weight="bold" lengthAdjust="spacing" textLength="54.6973" x="522.6514" y="755.5996">Jul 2026</text><line style="stroke:#C0C0C0;stroke-width:1;" x1="736" x2="736" y1="744.4609" y2="760.4609"/><text fill="#000000" font-family="sans-serif" font-size="12" font-weight="bold" lengthAdjust="spacing" textLength="63.9961" x="642.002" y="755.5996">Aug 2026</text><line style="stroke:#C0C0C0;stroke-width:1;" x1="856" x2="856" y1="744.4609" y2="760.4609"/><text fill="#000000" font-family="sans-serif" font-size="12" font-weight="bold" lengthAdjust="spacing" textLength="62.9473" x="764.5264" y="755.5996">Sep 2026</text><line style="stroke:#C0C0C0;stroke-width:1;" x1="980" x2="980" y1="744.4609" y2="760.4609"/><text fill="#000000" font-family="sans-serif" font-size="12" font-weight="bold" lengthAdjust="spacing" textLength="60.627" x="887.6865" y="755.5996">Oct 2026</text><line style="stroke:#C0C0C0;stroke-width:1;" x1="1100" x2="1100" y1="744.4609" y2="760.4609"/><text fill="#000000" font-family="sans-serif" font-size="12" font-weight="bold" lengthAdjust="spacing" textLength="63.6855" x="1008.1572" y="755.5996">Nov 2026</text><line style="stroke:#C0C0C0;stroke-width:1;" x1="1160" x2="1160" y1="744.4609" y2="760.4609"/><text fill="#000000" font-family="sans-serif" font-size="12" font-weight="bold" lengthAdjust="spacing" textLength="25.2129" x="1117.3936" y="755.5996">Dec</text><line style="stroke:#C0C0C0;stroke-width:1;" x1="0" x2="1160" y1="760.4609" y2="760.4609"/><g class="legend" data-source-line="98"><rect fill="#DDDDDD" height="79.1875" rx="7.5" ry="7.5" style="stroke:#000000;stroke-width:1;" width="95.251" x="1051.749" y="772.4609"/><rect fill="#BBDEFB" height="16.2969" style="stroke:none;stroke-width:1;" width="85.251" x="1056.749" y="779.4609"/><text fill="#000000" font-family="sans-serif" font-size="14" lengthAdjust="spacing" textLength="75.4893" x="1061.1992" y="792.4561">POC Phase</text><rect fill="#C8E6C9" height="16.2969" style="stroke:none;stroke-width:1;" width="85.251" x="1056.749" y="795.7578"/><text fill="#000000" font-family="sans-serif" font-size="14" lengthAdjust="spacing" textLength="76.3506" x="1061.1992" y="808.7529">MVP Phase</text><rect fill="#FFE0B2" height="16.2969" style="stroke:none;stroke-width:1;" width="85.251" x="1056.749" y="812.0547"/><text fill="#000000" font-family="sans-serif" font-size="14" lengthAdjust="spacing" textLength="70.957" x="1061.1992" y="825.0498">Full Phase</text><rect fill="#FF4500" height="16.2969" style="stroke:none;stroke-width:1;" width="85.251" x="1056.749" y="828.3516"/><text fill="#000000" font-family="sans-serif" font-size="14" lengthAdjust="spacing" textLength="67.3066" x="1061.1992" y="841.3467">Milestone</text><line style="stroke:#000000;stroke-width:1;" x1="1056.749" x2="1142" y1="779.4609" y2="779.4609"/><line style="stroke:#000000;stroke-width:1;" x1="1056.749" x2="1142" y1="795.7578" y2="795.7578"/><line style="stroke:#000000;stroke-width:1;" x1="1056.749" x2="1142" y1="812.0547" y2="812.0547"/><line style="stroke:#000000;stroke-width:1;" x1="1056.749" x2="1142" y1="828.3516" y2="828.3516"/><line style="stroke:#000000;stroke-width:1;" x1="1056.749" x2="1142" y1="844.6484" y2="844.6484"/><line style="stroke:#000000;stroke-width:1;" x1="1056.749" x2="1056.749" y1="779.4609" y2="844.6484"/><line style="stroke:#000000;stroke-width:1;" x1="1142" x2="1142" y1="779.4609" y2="844.6484"/></g><!--SRC=[ZLZTRk8u5BxFKnofDwtO30ajBKMZQcW2J6UXP4bfLnhDXGa6l0qnSXn6xCv8-n3xXFiaU-n0jn30KTMgSNo-y__vE9zIIOISaKHAIp8PKnWi9UC9N3QX5SVGeKHcWgRWapMuyE_V_u3hm88dSfx-0WsGN3rFw0gVHc75cxE4LDeZQobO8jE88E1tIb_ZDQxmFsWaGIjCeURKhctdqdPSo_gOodLCxonjXi_8J905_6K1I9A-wdy0EgWoP7zIL8VFF_5tmMAQIfxGWpispmeOnZoUwALx4hrs1S-IYSTZBc0WI3AZGvg_xR645jULgfGkYI0It-ohSikgEkiuwaS3_hG-LZSkMxQjjz9a0XuN5CulTJGlmBQjhtqM2PvIiM8HfY2Co7IA-521Ll00tPTlnM02GI04-t-jLY-1mrA8b9bq0Yo1i_jxlzsvhvwvjpVNVitwEa9P27Dv9PN9ETXexonXM03zJgk49LSgrMMG3BO4g2VP1PaiS2EwKh2YvXIjg3a639F-EKTBXpJIDgjMiQ6VnPBPlLw_O85RFs11tOXYi479BHO8IhHe1PkM9Y4b8fhlMN1rm8AwZi5938F-K0gsf12GDGB8jp3Q47WFjX-6UqPS7oY76nlRj0JGdYLUettjtLRFBXkDzgLdVUtnDOdb6WAk-0RQoGoRkA2-68CR7OCZqWQTl-Ac5FUq4XAl9OjI2D29kAZuve3V3Tq6fo3sj7SwRUU-LZrhNzTT1srkhp1Izu9DPgfk7xbaKnRf7AO5zKM_6phi9p5EwrU4rUTZvDvTgdf4yHK5DWYhhMGYE5FqugEJimJ2TIhfeXnRDSf16GhK8mig28gDbZ4d6_a8QqtvM9ec32WbYUgP9XcoRWNwP0aFYQHul1qm0plLANQgwvG1CbZosn0PTg9IxRCqmZD9GYVct_VhfNuW8tNDLiS13AsoRUmAU7CQlV8i5op53wfFZigNf0MVfFCn9qBbxZF3QK6i2xgBsTybXuCO1ls3wLGrCtQAZbgFuoG4nVFX247KJm4Ow24_H6ASNpAYk_i9PvaqFa8GHTyRsdS3Yi66RS46N4Wq-uMEeRLSxYc_BVhkEiXOnyNDnEJJrM2Pmddj7J4z40-Ug11aoiL25T93rVFVw3OjFRaOSKmpL8Z7_KmTjPqC1skV8gUi2nnmIBlgm2FI1fs3iHhw2B8rmq8E9GwQQjfwGVD_juTaNMfOK2an0naQ8gHH9fHiAvimrSy1JJ2SgMJ9h5HXg1IS1Z4L9HKgSoJ1-M8ZWoxqaDUhE8NGD2sOKGZ6jZxDI2NEKDrXcvpk5Ao-Gssp_P1CyGJ2K3_QZzWESzijpPr674F0MZ4Rap41pt_4K7SxBtW6B9OnKtuNIVJGX5KtWPX6dT7M_43G9LhVzOCX3eaoMvORTUe638D-3ozDwJP7GsovpP2api7XdWMD0tcupVDm6iLSAk-EUbqWmS3RMGlrPRjmc1yQ9zHuTKpSm2MQTzxBLLHWLRaNPXdT9_kzu-fq650C2K7YcU6h8OzZDGhWkKYoPF_EepNjQwzfxKVb3KdGCVFfWd-3ELdYFMateltd00iBANeBjxif7_crvqCQKvAg2qutvcCIxstDpRHYEbFV0mIRpQK5yEFZ9XbteEm8vWhXH_uYvzaxK2RilCXTkCkFYvqtRnytKEhj4yeFIsdC5LkVy4_-ISWAS0QGetuFLbIe587x0IsjVt2TywUCujLX1SuLk3VDcjEykeNHawSygLzOvzsW1odF19Ba1AScmSQPIlY5zOMia9PmXcGBseIk82H-xcyNy0wsOe8dQkgplZptcn1cOvGcai9pt_Bfb21nugw8Jv1tcwYnOpUitcPIQKA2_bgU6b75Ed_w3m00]--></g></svg>