<svg xmlns="http://www.w3.org/2000/svg" xmlns:xlink="http://www.w3.org/1999/xlink" contentStyleType="text/css" data-diagram-type="GANTT" height="625px" preserveAspectRatio="none" style="width:1130px;height:625px;background:#FFFFFF;" version="1.1" viewBox="0 0 1130 625" width="1130px" zoomAndPan="magnify"><title>Option 1: MVP Timeline &#8212; 4 months, 4 devs, US only</title><defs/><g><g class="title" data-source-line="1"><text fill="#000000" font-family="sans-serif" font-size="14" font-weight="bold" lengthAdjust="spacing" textLength="414.8184" x="260.0908" y="22.9951">Option 1: MVP Timeline &#8212; 4 months, 4 devs, US only</text></g><text fill="#000000" font-family="sans-serif" font-size="10" lengthAdjust="spacing" textLength="12.7246" x="13" y="62.5791">10</text><text fill="#000000" font-family="sans-serif" font-size="10" lengthAdjust="spacing" textLength="12.7246" x="69" y="62.5791">11</text><text fill="#000000" font-family="sans-serif" font-size="10" lengthAdjust="spacing" textLength="12.7246" x="125" y="62.5791">12</text><text fill="#000000" font-family="sans-serif" font-size="10" lengthAdjust="spacing" textLength="12.7246" x="181" y="62.5791">13</text><text fill="#000000" font-family="sans-serif" font-size="10" lengthAdjust="spacing" textLength="12.7246" x="237" y="62.5791">14</text><text fill="#000000" font-family="sans-serif" font-size="10" lengthAdjust="spacing" textLength="12.7246" x="293" y="62.5791">15</text><text fill="#000000" font-family="sans-serif" font-size="10" lengthAdjust="spacing" textLength="12.7246" x="349" y="62.5791">16</text><text fill="#000000" font-family="sans-serif" font-size="10" lengthAdjust="spacing" textLength="12.7246" x="405" y="62.5791">17</text><text fill="#000000" font-family="sans-serif" font-size="10" lengthAdjust="spacing" textLength="12.7246" x="461" y="62.5791">18</text><text fill="#000000" font-family="sans-serif" font-size="10" lengthAdjust="spacing" textLength="12.7246" x="517" y="62.5791">19</text><text fill="#000000" font-family="sans-serif" font-size="10" lengthAdjust="spacing" textLength="12.7246" x="573" y="62.5791">20</text><text fill="#000000" font-family="sans-serif" font-size="10" lengthAdjust="spacing" textLength="12.7246" x="629" y="62.5791">21</text><text fill="#000000" font-family="sans-serif" font-size="10" lengthAdjust="spacing" textLength="12.7246" x="685" y="62.5791">22</text><text fill="#000000" font-family="sans-serif" font-size="10" lengthAdjust="spacing" textLength="12.7246" x="741" y="62.5791">23</text><text fill="#000000" font-family="sans-serif" font-size="10" lengthAdjust="spacing" textLength="12.7246" x="797" y="62.5791">24</text><text fill="#000000" font-family="sans-serif" font-size="10" lengthAdjust="spacing" textLength="12.7246" x="853" y="62.5791">25</text><text fill="#000000" font-family="sans-serif" font-size="10" lengthAdjust="spacing" textLength="12.7246" x="909" y="62.5791">26</text><line style="stroke:#C0C0C0;stroke-width:1;" x1="8" x2="8" y1="53.2969" y2="519.4609"/><line style="stroke:#C0C0C0;stroke-width:1;" x1="64" x2="64" y1="53.2969" y2="519.4609"/><line style="stroke:#C0C0C0;stroke-width:1;" x1="120" x2="120" y1="53.2969" y2="519.4609"/><line style="stroke:#C0C0C0;stroke-width:1;" x1="176" x2="176" y1="53.2969" y2="519.4609"/><line style="stroke:#C0C0C0;stroke-width:1;" x1="232" x2="232" y1="53.2969" y2="519.4609"/><line style="stroke:#C0C0C0;stroke-width:1;" x1="288" x2="288" y1="53.2969" y2="519.4609"/><line style="stroke:#C0C0C0;stroke-width:1;" x1="344" x2="344" y1="53.2969" y2="519.4609"/><line style="stroke:#C0C0C0;stroke-width:1;" x1="400" x2="400" y1="53.2969" y2="519.4609"/><line style="stroke:#C0C0C0;stroke-width:1;" x1="456" x2="456" y1="53.2969" y2="519.4609"/><line style="stroke:#C0C0C0;stroke-width:1;" x1="512" x2="512" y1="53.2969" y2="519.4609"/><line style="stroke:#C0C0C0;stroke-width:1;" x1="568" x2="568" y1="53.2969" y2="519.4609"/><line style="stroke:#C0C0C0;stroke-width:1;" x1="624" x2="624" y1="53.2969" y2="519.4609"/><line style="stroke:#C0C0C0;stroke-width:1;" x1="680" x2="680" y1="53.2969" y2="519.4609"/><line style="stroke:#C0C0C0;stroke-width:1;" x1="736" x2="736" y1="53.2969" y2="519.4609"/><line style="stroke:#C0C0C0;stroke-width:1;" x1="792" x2="792" y1="53.2969" y2="519.4609"/><line style="stroke:#C0C0C0;stroke-width:1;" x1="848" x2="848" y1="53.2969" y2="519.4609"/><line style="stroke:#C0C0C0;stroke-width:1;" x1="904" x2="904" y1="53.2969" y2="519.4609"/><line style="stroke:#C0C0C0;stroke-width:1;" x1="936" x2="936" y1="53.2969" y2="519.4609"/><line style="stroke:#C0C0C0;stroke-width:1;" x1="0" x2="0" y1="37.2969" y2="53.2969"/><line style="stroke:#C0C0C0;stroke-width:1;" x1="248" x2="248" y1="37.2969" y2="53.2969"/><text fill="#000000" font-family="sans-serif" font-size="12" font-weight="bold" lengthAdjust="spacing" textLength="63.5332" x="92.2334" y="48.4355">Mar 2026</text><line style="stroke:#C0C0C0;stroke-width:1;" x1="488" x2="488" y1="37.2969" y2="53.2969"/><text fill="#000000" font-family="sans-serif" font-size="12" font-weight="bold" lengthAdjust="spacing" textLength="61.3711" x="337.3145" y="48.4355">Apr 2026</text><line style="stroke:#C0C0C0;stroke-width:1;" x1="736" x2="736" y1="37.2969" y2="53.2969"/><text fill="#000000" font-family="sans-serif" font-size="12" font-weight="bold" lengthAdjust="spacing" textLength="65.4375" x="579.2813" y="48.4355">May 2026</text><line style="stroke:#C0C0C0;stroke-width:1;" x1="936" x2="936" y1="37.2969" y2="53.2969"/><text fill="#000000" font-family="sans-serif" font-size="12" font-weight="bold" lengthAdjust="spacing" textLength="59.127" x="806.4365" y="48.4355">Jun 2026</text><line style="stroke:#C0C0C0;stroke-width:1;" x1="0" x2="936" y1="37.2969" y2="37.2969"/><line style="stroke:#C0C0C0;stroke-width:1;" x1="0" x2="936" y1="53.2969" y2="53.2969"/><line style="stroke:#C0C0C0;stroke-width:1;" x1="0" x2="936" y1="64.2969" y2="64.2969"/><rect fill="#F0F0F0" height="23.9688" style="stroke:none;stroke-width:1;" width="936" x="0" y="69.2969"/><line style="stroke:#181818;stroke-width:1;" x1="0" x2="5" y1="81.2813" y2="81.2813"/><line style="stroke:#181818;stroke-width:1;" x1="131.9766" x2="935" y1="81.2813" y2="81.2813"/><rect fill="#BBDEFB" height="12.8047" style="stroke:none;stroke-width:1;" width="116" x="2" y="100.2656"/><rect fill="none" height="12.8047" style="stroke:#1976D2;stroke-width:1;" width="116" x="2" y="100.2656"/><rect fill="#BBDEFB" height="12.8047" style="stroke:none;stroke-width:1;" width="196" x="2" y="117.0703"/><rect fill="none" height="12.8047" style="stroke:#1976D2;stroke-width:1;" width="196" x="2" y="117.0703"/><rect fill="#BBDEFB" height="12.8047" style="stroke:none;stroke-width:1;" width="140" x="114" y="133.875"/><rect fill="none" height="12.8047" style="stroke:#1976D2;stroke-width:1;" width="140" x="114" y="133.875"/><rect fill="#BBDEFB" height="12.8047" style="stroke:none;stroke-width:1;" width="212" x="154" y="150.6797"/><rect fill="none" height="12.8047" style="stroke:#1976D2;stroke-width:1;" width="212" x="154" y="150.6797"/><rect fill="#C8E6C9" height="12.8047" style="stroke:none;stroke-width:1;" width="204" x="442" y="167.4844"/><rect fill="none" height="12.8047" style="stroke:#388E3C;stroke-width:1;" width="204" x="442" y="167.4844"/><rect fill="#C8E6C9" height="12.8047" style="stroke:none;stroke-width:1;" width="196" x="490" y="184.2891"/><rect fill="none" height="12.8047" style="stroke:#388E3C;stroke-width:1;" width="196" x="490" y="184.2891"/><rect fill="#C8E6C9" height="12.8047" style="stroke:none;stroke-width:1;" width="132" x="642" y="201.0938"/><rect fill="none" height="12.8047" style="stroke:#388E3C;stroke-width:1;" width="132" x="642" y="201.0938"/><rect fill="#F0F0F0" height="23.9688" style="stroke:none;stroke-width:1;" width="936" x="0" y="220.8984"/><line style="stroke:#181818;stroke-width:1;" x1="0" x2="5" y1="232.8828" y2="232.8828"/><line style="stroke:#181818;stroke-width:1;" x1="119.5078" x2="935" y1="232.8828" y2="232.8828"/><rect fill="#BBDEFB" height="12.8047" style="stroke:none;stroke-width:1;" width="156" x="2" y="251.8672"/><rect fill="none" height="12.8047" style="stroke:#1976D2;stroke-width:1;" width="156" x="2" y="251.8672"/><rect fill="#BBDEFB" height="12.8047" style="stroke:none;stroke-width:1;" width="172" x="114" y="268.6719"/><rect fill="none" height="12.8047" style="stroke:#1976D2;stroke-width:1;" width="172" x="114" y="268.6719"/><rect fill="#BBDEFB" height="12.8047" style="stroke:none;stroke-width:1;" width="172" x="194" y="285.4766"/><rect fill="none" height="12.8047" style="stroke:#1976D2;stroke-width:1;" width="172" x="194" y="285.4766"/><rect fill="#C8E6C9" height="12.8047" style="stroke:none;stroke-width:1;" width="204" x="442" y="302.2813"/><rect fill="none" height="12.8047" style="stroke:#388E3C;stroke-width:1;" width="204" x="442" y="302.2813"/><rect fill="#C8E6C9" height="12.8047" style="stroke:none;stroke-width:1;" width="164" x="562" y="319.0859"/><rect fill="none" height="12.8047" style="stroke:#388E3C;stroke-width:1;" width="164" x="562" y="319.0859"/><rect fill="#C8E6C9" height="12.8047" style="stroke:none;stroke-width:1;" width="140" x="602" y="335.8906"/><rect fill="none" height="12.8047" style="stroke:#388E3C;stroke-width:1;" width="140" x="602" y="335.8906"/><rect fill="#F0F0F0" height="23.9688" style="stroke:none;stroke-width:1;" width="936" x="0" y="355.6953"/><line style="stroke:#181818;stroke-width:1;" x1="0" x2="5" y1="367.6797" y2="367.6797"/><line style="stroke:#181818;stroke-width:1;" x1="128.4316" x2="935" y1="367.6797" y2="367.6797"/><rect fill="#BBDEFB" height="12.8047" style="stroke:none;stroke-width:1;" width="196" x="2" y="386.6641"/><rect fill="none" height="12.8047" style="stroke:#1976D2;stroke-width:1;" width="196" x="2" y="386.6641"/><rect fill="#C8E6C9" height="12.8047" style="stroke:none;stroke-width:1;" width="172" x="602" y="403.4688"/><rect fill="none" height="12.8047" style="stroke:#388E3C;stroke-width:1;" width="172" x="602" y="403.4688"/><rect fill="#F0F0F0" height="23.9688" style="stroke:none;stroke-width:1;" width="936" x="0" y="423.2734"/><line style="stroke:#181818;stroke-width:1;" x1="0" x2="5" y1="435.2578" y2="435.2578"/><line style="stroke:#181818;stroke-width:1;" x1="91.125" x2="935" y1="435.2578" y2="435.2578"/><rect fill="#BBDEFB" height="12.8047" style="stroke:none;stroke-width:1;" width="124" x="322" y="454.2422"/><rect fill="none" height="12.8047" style="stroke:#1976D2;stroke-width:1;" width="124" x="322" y="454.2422"/><rect fill="#C8E6C9" height="12.8047" style="stroke:none;stroke-width:1;" width="196" x="738" y="471.0469"/><rect fill="none" height="12.8047" style="stroke:#388E3C;stroke-width:1;" width="196" x="738" y="471.0469"/><polygon fill="#FF4500" points="444,487.8516,449,492.8516,444,497.8516,439,492.8516" style="stroke:#FF4500;stroke-width:1;"/><polygon fill="#FF4500" points="932,504.6563,937,509.6563,932,514.6563,927,509.6563" style="stroke:#FF4500;stroke-width:1;"/><text fill="#000000" font-family="sans-serif" font-size="12" font-weight="bold" lengthAdjust="spacing" textLength="116.9766" x="10" y="85.4355">Backend (2 devs)</text><text fill="#000000" font-family="sans-serif" font-size="11" lengthAdjust="spacing" textLength="157.6201" x="122" y="110.4761">DB Schema + PostGIS Setup</text><text fill="#000000" font-family="sans-serif" font-size="11" lengthAdjust="spacing" textLength="121.1396" x="6" y="127.2808">Core API - Auth, Users</text><text fill="#000000" font-family="sans-serif" font-size="11" lengthAdjust="spacing" textLength="167.7178" x="258" y="144.0854">Photo Upload + S3 Integration</text><text fill="#000000" font-family="sans-serif" font-size="11" lengthAdjust="spacing" textLength="127.3218" x="158" y="160.8901">AI Recognition Lambda</text><text fill="#000000" font-family="sans-serif" font-size="11" lengthAdjust="spacing" textLength="177.4878" x="446" y="177.6948">Partner API - CRUD, Geo queries</text><text fill="#000000" font-family="sans-serif" font-size="11" lengthAdjust="spacing" textLength="138.3486" x="494" y="194.4995">Recommendation Engine</text><text fill="#000000" font-family="sans-serif" font-size="11" lengthAdjust="spacing" textLength="102.0508" x="646" y="211.3042">Redis Cache Layer</text><text fill="#000000" font-family="sans-serif" font-size="12" font-weight="bold" lengthAdjust="spacing" textLength="104.5078" x="10" y="237.0371">Mobile (2 devs)</text><text fill="#000000" font-family="sans-serif" font-size="11" lengthAdjust="spacing" textLength="172.3047" x="162" y="262.0776">Native iOS/Android Shell + Nav</text><text fill="#000000" font-family="sans-serif" font-size="11" lengthAdjust="spacing" textLength="147.5869" x="118" y="278.8823">Camera + Photo Upload UI</text><text fill="#000000" font-family="sans-serif" font-size="11" lengthAdjust="spacing" textLength="162.2339" x="198" y="295.687">Attraction Description Screen</text><text fill="#000000" font-family="sans-serif" font-size="11" lengthAdjust="spacing" textLength="161.772" x="446" y="312.4917">Partner Venues List + Details</text><text fill="#000000" font-family="sans-serif" font-size="11" lengthAdjust="spacing" textLength="164.6079" x="730" y="329.2964">QR Code Discount Generation</text><text fill="#000000" font-family="sans-serif" font-size="11" lengthAdjust="spacing" textLength="120.4736" x="606" y="346.1011">Audio Playback + TTS</text><text fill="#000000" font-family="sans-serif" font-size="12" font-weight="bold" lengthAdjust="spacing" textLength="113.4316" x="10" y="371.834">DevOps (shared)</text><text fill="#000000" font-family="sans-serif" font-size="11" lengthAdjust="spacing" textLength="141.3296" x="6" y="396.8745">CI/CD + Monitoring Setup</text><text fill="#000000" font-family="sans-serif" font-size="11" lengthAdjust="spacing" textLength="183.5947" x="778" y="413.6792">CloudWatch Alerts + Dashboards</text><text fill="#000000" font-family="sans-serif" font-size="12" font-weight="bold" lengthAdjust="spacing" textLength="76.125" x="10" y="439.4121">Integration</text><text fill="#000000" font-family="sans-serif" font-size="11" lengthAdjust="spacing" textLength="143.8325" x="450" y="464.4526">POC Integration + Testing</text><text fill="#000000" font-family="sans-serif" font-size="11" lengthAdjust="spacing" textLength="190.6631" x="938" y="481.2573">MVP Integration + QA + App Store</text><text fill="#000000" font-family="sans-serif" font-size="11" font-weight="bold" lengthAdjust="spacing" textLength="64.9258" x="452" y="498.062">POC Demo</text><text fill="#000000" font-family="sans-serif" font-size="11" font-weight="bold" lengthAdjust="spacing" textLength="75.7969" x="940" y="514.8667">MVP Launch</text><line style="stroke:#C0C0C0;stroke-width:1;" x1="0" x2="936" y1="519.4609" y2="519.4609"/><line style="stroke:#C0C0C0;stroke-width:1;" x1="0" x2="0" y1="519.4609" y2="535.4609"/><line style="stroke:#C0C0C0;stroke-width:1;" x1="248" x2="248" y1="519.4609" y2="535.4609"/><text fill="#000000" font-family="sans-serif" font-size="12" font-weight="bold" lengthAdjust="spacing" textLength="63.5332" x="92.2334" y="530.5996">Mar 2026</text><line style="stroke:#C0C0C0;stroke-width:1;" x1="488" x2="488" y1="519.4609" y2="535.4609"/><text fill="#000000" font-family="sans-serif" font-size="12" font-weight="bold" lengthAdjust="spacing" textLength="61.3711" x="337.3145" y="530.5996">Apr 2026</text><line style="stroke:#C0C0C0;stroke-width:1;" x1="736" x2="736" y1="519.4609" y2="535.4609"/><text fill="#000000" font-family="sans-serif" font-size="12" font-weight="bold" lengthAdjust="spacing" textLength="65.4375" x="579.2813" y="530.5996">May 2026</text><line style="stroke:#C0C0C0;stroke-width:1;" x1="936" x2="936" y1="519.4609" y2="535.4609"/><text fill="#000000" font-family="sans-serif" font-size="12" font-weight="bold" lengthAdjust="spacing" textLength="59.127" x="806.4365" y="530.5996">Jun 2026</text><line style="stroke:#C0C0C0;stroke-width:1;" x1="0" x2="936" y1="535.4609" y2="535.4609"/><g class="legend" data-source-line="69"><rect fill="#DDDDDD" height="62.8906" rx="7.5" ry="7.5" style="stroke:#000000;stroke-width:1;" width="95.251" x="827.749" y="547.4609"/><rect fill="#BBDEFB" height="16.2969" style="stroke:none;stroke-width:1;" width="85.251" x="832.749" y="554.4609"/><text fill="#000000" font-family="sans-serif" font-size="14" lengthAdjust="spacing" textLength="75.4893" x="837.1992" y="567.4561">POC Phase</text><rect fill="#C8E6C9" height="16.2969" style="stroke:none;stroke-width:1;" width="85.251" x="832.749" y="570.7578"/><text fill="#000000" font-family="sans-serif" font-size="14" lengthAdjust="spacing" textLength="76.3506" x="837.1992" y="583.7529">MVP Phase</text><rect fill="#FF4500" height="16.2969" style="stroke:none;stroke-width:1;" width="85.251" x="832.749" y="587.0547"/><text fill="#000000" font-family="sans-serif" font-size="14" lengthAdjust="spacing" textLength="67.3066" x="837.1992" y="600.0498">Milestone</text><line style="stroke:#000000;stroke-width:1;" x1="832.749" x2="918" y1="554.4609" y2="554.4609"/><line style="stroke:#000000;stroke-width:1;" x1="832.749" x2="918" y1="570.7578" y2="570.7578"/><line style="stroke:#000000;stroke-width:1;" x1="832.749" x2="918" y1="587.0547" y2="587.0547"/><line style="stroke:#000000;stroke-width:1;" x1="832.749" x2="918" y1="603.3516" y2="603.3516"/><line style="stroke:#000000;stroke-width:1;" x1="832.749" x2="832.749" y1="554.4609" y2="603.3516"/><line style="stroke:#000000;stroke-width:1;" x1="918" x2="918" y1="554.4609" y2="603.3516"/></g><!--SRC=[bLPHSzeu47xNhzYPl2HpfTWafWcJoPJOIOOE91G3zv3fWx3ti2wsH2MP6thfJ7z4V-7zabkRNAzWYEamW2rfls_rQNUrxutbsiwvj9PPOLE4XuKLIeBRWS5q26EHOIeamZ_VliCPP4hQnBoXfnYNz3y9GSbqnHPQI6iYJlP_8JwbA_YYL0Ojcb1_OcIXf37GSbhjXdFQS5p6BerTfNZ5Il90yBdc6VpD02mtJ-K3m2tnXU8BWklI-rVwPY95OnLvj6l5oti133ELnkNGDO-UxhJAPUohL6buq5pESOJhsJxjhZfUK1bSSCqjpMnJjGwbEhfrYay9-9LTDb-sp1gDSYdA68vRfPOdq6Ymn-0QmYZ1ZCDlC5J6tlL22D7cYqzL1O6JDI7yF-Pwho880r7X5SOW91nTNmStjzVD8_VYNJjeiKUVPg0xx443khbDw70DQdCGSSlRRrx3EaoKLJ1Pf8h7v79u2ZrfaMAXYC8AkUjjavyLiLI7KkD3jmSZZDHSYZBq-poRnRp2tNAgt8NYUwphzatO4lMBOlve4ho1ErJmEKSjS5lsCv9uczqZZmx0sVB3Fxzf-nVDezFpyvjJdpqMhcSPmPPImOsSKpviiNix3jqh3tsFTIrdJ2jyJd5ASgrGL_YgMXV3EorVvoeoRQ1cL3Gs4-sU75uYY8UmsPMnLYA6CC4qfU2vvyl3WjwfXwbBEPwXBZFrv_YTz0wBU-yrWBgGjrRpg3oq04sanRhgXv56hAPToziJ-g-Z79W2KvGv6Yh4nj9E0hHSfB-U07jGQaBnumXy5IC4maHKjYtb3e7jAZvUmtMg7fmwDHWr_Dqy5Wg6AL_Dw3uWnyVZi4hixSW6TvznVK84k7nO63Ws2QTLwuJmUqq_88Y1eZgcw3gV_yB5KzR_lG1rIP2gFFwTsoY1Ree55HqVDybCSHsRmyJmwc7gPVdfoYWb6Jxu6sEaBxKUjB5ARBexheP2arSGQaGfUgzDouzT-kak5X2IkjiLkhtZMDgb2_L0DSAKcmWmKvyWuOi5oiqj5lXzdiiesPul-LcAywBBqMAUM6g3dYzVjde51UumuGRXUJsnPhug-ywDYH-D6StzQF-UMO6xXcVlwMVTn39A1sadWpuigVqeEzctv8_trdMEnpd2lLg2SmRkkqxBwPnTm6Ji5_vw9-puRjW7et8T8T0jOxMOvOLa9-m3Nt8OKMPJCzo1EyrvEXtyDq2Ntb9e9UaMjEp3TD21C9-HDRS8qm4By0-UfvPMHIgca-yGustZdFLfIpcV4vxCqvJvHU7Gg_NRlm00]--></g></svg>