<svg xmlns="http://www.w3.org/2000/svg" xmlns:xlink="http://www.w3.org/1999/xlink" contentStyleType="text/css" data-diagram-type="GANTT" height="868px" preserveAspectRatio="none" style="width:1553px;height:868px;background:#FFFFFF;" version="1.1" viewBox="0 0 1553 868" width="1553px" zoomAndPan="magnify"><title>Option 4: Klook/Viator Scale &#8212; 12 months migration, 15 devs, Global</title><defs/><g><g class="title" data-source-line="1"><text fill="#000000" font-family="sans-serif" font-size="14" font-weight="bold" lengthAdjust="spacing" textLength="543.5596" x="431.7202" y="22.9951">Option 4: Klook/Viator Scale &#8212; 12 months migration, 15 devs, Global</text></g><text fill="#000000" font-family="sans-serif" font-size="10" lengthAdjust="spacing" textLength="12.7246" x="9" y="62.5791">10</text><text fill="#000000" font-family="sans-serif" font-size="10" lengthAdjust="spacing" textLength="12.7246" x="37" y="62.5791">11</text><text fill="#000000" font-family="sans-serif" font-size="10" lengthAdjust="spacing" textLength="12.7246" x="65" y="62.5791">12</text><text fill="#000000" font-family="sans-serif" font-size="10" lengthAdjust="spacing" textLength="12.7246" x="93" y="62.5791">13</text><text fill="#000000" font-family="sans-serif" font-size="10" lengthAdjust="spacing" textLength="12.7246" x="121" y="62.5791">14</text><text fill="#000000" font-family="sans-serif" font-size="10" lengthAdjust="spacing" textLength="12.7246" x="149" y="62.5791">15</text><text fill="#000000" font-family="sans-serif" font-size="10" lengthAdjust="spacing" textLength="12.7246" x="177" y="62.5791">16</text><text fill="#000000" font-family="sans-serif" font-size="10" lengthAdjust="spacing" textLength="12.7246" x="205" y="62.5791">17</text><text fill="#000000" font-family="sans-serif" font-size="10" lengthAdjust="spacing" textLength="12.7246" x="233" y="62.5791">18</text><text fill="#000000" font-family="sans-serif" font-size="10" lengthAdjust="spacing" textLength="12.7246" x="261" y="62.5791">19</text><text fill="#000000" font-family="sans-serif" font-size="10" lengthAdjust="spacing" textLength="12.7246" x="289" y="62.5791">20</text><text fill="#000000" font-family="sans-serif" font-size="10" lengthAdjust="spacing" textLength="12.7246" x="317" y="62.5791">21</text><text fill="#000000" font-family="sans-serif" font-size="10" lengthAdjust="spacing" textLength="12.7246" x="345" y="62.5791">22</text><text fill="#000000" font-family="sans-serif" font-size="10" lengthAdjust="spacing" textLength="12.7246" x="373" y="62.5791">23</text><text fill="#000000" font-family="sans-serif" font-size="10" lengthAdjust="spacing" textLength="12.7246" x="401" y="62.5791">24</text><text fill="#000000" font-family="sans-serif" font-size="10" lengthAdjust="spacing" textLength="12.7246" x="429" y="62.5791">25</text><text fill="#000000" font-family="sans-serif" font-size="10" lengthAdjust="spacing" textLength="12.7246" x="457" y="62.5791">26</text><text fill="#000000" font-family="sans-serif" font-size="10" lengthAdjust="spacing" textLength="12.7246" x="485" y="62.5791">27</text><text fill="#000000" font-family="sans-serif" font-size="10" lengthAdjust="spacing" textLength="12.7246" x="513" y="62.5791">28</text><text fill="#000000" font-family="sans-serif" font-size="10" lengthAdjust="spacing" textLength="12.7246" x="541" y="62.5791">29</text><text fill="#000000" font-family="sans-serif" font-size="10" lengthAdjust="spacing" textLength="12.7246" x="569" y="62.5791">30</text><text fill="#000000" font-family="sans-serif" font-size="10" lengthAdjust="spacing" textLength="12.7246" x="597" y="62.5791">31</text><text fill="#000000" font-family="sans-serif" font-size="10" lengthAdjust="spacing" textLength="12.7246" x="625" y="62.5791">32</text><text fill="#000000" font-family="sans-serif" font-size="10" lengthAdjust="spacing" textLength="12.7246" x="653" y="62.5791">33</text><text fill="#000000" font-family="sans-serif" font-size="10" lengthAdjust="spacing" textLength="12.7246" x="681" y="62.5791">34</text><text fill="#000000" font-family="sans-serif" font-size="10" lengthAdjust="spacing" textLength="12.7246" x="709" y="62.5791">35</text><text fill="#000000" font-family="sans-serif" font-size="10" lengthAdjust="spacing" textLength="12.7246" x="737" y="62.5791">36</text><text fill="#000000" font-family="sans-serif" font-size="10" lengthAdjust="spacing" textLength="12.7246" x="765" y="62.5791">37</text><text fill="#000000" font-family="sans-serif" font-size="10" lengthAdjust="spacing" textLength="12.7246" x="793" y="62.5791">38</text><text fill="#000000" font-family="sans-serif" font-size="10" lengthAdjust="spacing" textLength="12.7246" x="821" y="62.5791">39</text><text fill="#000000" font-family="sans-serif" font-size="10" lengthAdjust="spacing" textLength="12.7246" x="849" y="62.5791">40</text><text fill="#000000" font-family="sans-serif" font-size="10" lengthAdjust="spacing" textLength="12.7246" x="877" y="62.5791">41</text><text fill="#000000" font-family="sans-serif" font-size="10" lengthAdjust="spacing" textLength="12.7246" x="905" y="62.5791">42</text><text fill="#000000" font-family="sans-serif" font-size="10" lengthAdjust="spacing" textLength="12.7246" x="933" y="62.5791">43</text><text fill="#000000" font-family="sans-serif" font-size="10" lengthAdjust="spacing" textLength="12.7246" x="961" y="62.5791">44</text><text fill="#000000" font-family="sans-serif" font-size="10" lengthAdjust="spacing" textLength="12.7246" x="989" y="62.5791">45</text><text fill="#000000" font-family="sans-serif" font-size="10" lengthAdjust="spacing" textLength="12.7246" x="1017" y="62.5791">46</text><text fill="#000000" font-family="sans-serif" font-size="10" lengthAdjust="spacing" textLength="12.7246" x="1045" y="62.5791">47</text><text fill="#000000" font-family="sans-serif" font-size="10" lengthAdjust="spacing" textLength="12.7246" x="1073" y="62.5791">48</text><text fill="#000000" font-family="sans-serif" font-size="10" lengthAdjust="spacing" textLength="12.7246" x="1101" y="62.5791">49</text><text fill="#000000" font-family="sans-serif" font-size="10" lengthAdjust="spacing" textLength="12.7246" x="1129" y="62.5791">50</text><text fill="#000000" font-family="sans-serif" font-size="10" lengthAdjust="spacing" textLength="12.7246" x="1157" y="62.5791">51</text><text fill="#000000" font-family="sans-serif" font-size="10" lengthAdjust="spacing" textLength="12.7246" x="1185" y="62.5791">52</text><text fill="#000000" font-family="sans-serif" font-size="10" lengthAdjust="spacing" textLength="12.7246" x="1213" y="62.5791">53</text><text fill="#000000" font-family="sans-serif" font-size="10" lengthAdjust="spacing" textLength="6.3623" x="1241" y="62.5791">1</text><text fill="#000000" font-family="sans-serif" font-size="10" lengthAdjust="spacing" textLength="6.3623" x="1269" y="62.5791">2</text><text fill="#000000" font-family="sans-serif" font-size="10" lengthAdjust="spacing" textLength="6.3623" x="1297" y="62.5791">3</text><text fill="#000000" font-family="sans-serif" font-size="10" lengthAdjust="spacing" textLength="6.3623" x="1325" y="62.5791">4</text><text fill="#000000" font-family="sans-serif" font-size="10" lengthAdjust="spacing" textLength="6.3623" x="1353" y="62.5791">5</text><text fill="#000000" font-family="sans-serif" font-size="10" lengthAdjust="spacing" textLength="6.3623" x="1381" y="62.5791">6</text><line style="stroke:#C0C0C0;stroke-width:1;" x1="4" x2="4" y1="53.2969" y2="745.9844"/><line style="stroke:#C0C0C0;stroke-width:1;" x1="32" x2="32" y1="53.2969" y2="745.9844"/><line style="stroke:#C0C0C0;stroke-width:1;" x1="60" x2="60" y1="53.2969" y2="745.9844"/><line style="stroke:#C0C0C0;stroke-width:1;" x1="88" x2="88" y1="53.2969" y2="745.9844"/><line style="stroke:#C0C0C0;stroke-width:1;" x1="116" x2="116" y1="53.2969" y2="745.9844"/><line style="stroke:#C0C0C0;stroke-width:1;" x1="144" x2="144" y1="53.2969" y2="745.9844"/><line style="stroke:#C0C0C0;stroke-width:1;" x1="172" x2="172" y1="53.2969" y2="745.9844"/><line style="stroke:#C0C0C0;stroke-width:1;" x1="200" x2="200" y1="53.2969" y2="745.9844"/><line style="stroke:#C0C0C0;stroke-width:1;" x1="228" x2="228" y1="53.2969" y2="745.9844"/><line style="stroke:#C0C0C0;stroke-width:1;" x1="256" x2="256" y1="53.2969" y2="745.9844"/><line style="stroke:#C0C0C0;stroke-width:1;" x1="284" x2="284" y1="53.2969" y2="745.9844"/><line style="stroke:#C0C0C0;stroke-width:1;" x1="312" x2="312" y1="53.2969" y2="745.9844"/><line style="stroke:#C0C0C0;stroke-width:1;" x1="340" x2="340" y1="53.2969" y2="745.9844"/><line style="stroke:#C0C0C0;stroke-width:1;" x1="368" x2="368" y1="53.2969" y2="745.9844"/><line style="stroke:#C0C0C0;stroke-width:1;" x1="396" x2="396" y1="53.2969" y2="745.9844"/><line style="stroke:#C0C0C0;stroke-width:1;" x1="424" x2="424" y1="53.2969" y2="745.9844"/><line style="stroke:#C0C0C0;stroke-width:1;" x1="452" x2="452" y1="53.2969" y2="745.9844"/><line style="stroke:#C0C0C0;stroke-width:1;" x1="480" x2="480" y1="53.2969" y2="745.9844"/><line style="stroke:#C0C0C0;stroke-width:1;" x1="508" x2="508" y1="53.2969" y2="745.9844"/><line style="stroke:#C0C0C0;stroke-width:1;" x1="536" x2="536" y1="53.2969" y2="745.9844"/><line style="stroke:#C0C0C0;stroke-width:1;" x1="564" x2="564" y1="53.2969" y2="745.9844"/><line style="stroke:#C0C0C0;stroke-width:1;" x1="592" x2="592" y1="53.2969" y2="745.9844"/><line style="stroke:#C0C0C0;stroke-width:1;" x1="620" x2="620" y1="53.2969" y2="745.9844"/><line style="stroke:#C0C0C0;stroke-width:1;" x1="648" x2="648" y1="53.2969" y2="745.9844"/><line style="stroke:#C0C0C0;stroke-width:1;" x1="676" x2="676" y1="53.2969" y2="745.9844"/><line style="stroke:#C0C0C0;stroke-width:1;" x1="704" x2="704" y1="53.2969" y2="745.9844"/><line style="stroke:#C0C0C0;stroke-width:1;" x1="732" x2="732" y1="53.2969" y2="745.9844"/><line style="stroke:#C0C0C0;stroke-width:1;" x1="760" x2="760" y1="53.2969" y2="745.9844"/><line style="stroke:#C0C0C0;stroke-width:1;" x1="788" x2="788" y1="53.2969" y2="745.9844"/><line style="stroke:#C0C0C0;stroke-width:1;" x1="816" x2="816" y1="53.2969" y2="745.9844"/><line style="stroke:#C0C0C0;stroke-width:1;" x1="844" x2="844" y1="53.2969" y2="745.9844"/><line style="stroke:#C0C0C0;stroke-width:1;" x1="872" x2="872" y1="53.2969" y2="745.9844"/><line style="stroke:#C0C0C0;stroke-width:1;" x1="900" x2="900" y1="53.2969" y2="745.9844"/><line style="stroke:#C0C0C0;stroke-width:1;" x1="928" x2="928" y1="53.2969" y2="745.9844"/><line style="stroke:#C0C0C0;stroke-width:1;" x1="956" x2="956" y1="53.2969" y2="745.9844"/><line style="stroke:#C0C0C0;stroke-width:1;" x1="984" x2="984" y1="53.2969" y2="745.9844"/><line style="stroke:#C0C0C0;stroke-width:1;" x1="1012" x2="1012" y1="53.2969" y2="745.9844"/><line style="stroke:#C0C0C0;stroke-width:1;" x1="1040" x2="1040" y1="53.2969" y2="745.9844"/><line style="stroke:#C0C0C0;stroke-width:1;" x1="1068" x2="1068" y1="53.2969" y2="745.9844"/><line style="stroke:#C0C0C0;stroke-width:1;" x1="1096" x2="1096" y1="53.2969" y2="745.9844"/><line style="stroke:#C0C0C0;stroke-width:1;" x1="1124" x2="1124" y1="53.2969" y2="745.9844"/><line style="stroke:#C0C0C0;stroke-width:1;" x1="1152" x2="1152" y1="53.2969" y2="745.9844"/><line style="stroke:#C0C0C0;stroke-width:1;" x1="1180" x2="1180" y1="53.2969" y2="745.9844"/><line style="stroke:#C0C0C0;stroke-width:1;" x1="1208" x2="1208" y1="53.2969" y2="745.9844"/><line style="stroke:#C0C0C0;stroke-width:1;" x1="1236" x2="1236" y1="53.2969" y2="745.9844"/><line style="stroke:#C0C0C0;stroke-width:1;" x1="1264" x2="1264" y1="53.2969" y2="745.9844"/><line style="stroke:#C0C0C0;stroke-width:1;" x1="1292" x2="1292" y1="53.2969" y2="745.9844"/><line style="stroke:#C0C0C0;stroke-width:1;" x1="1320" x2="1320" y1="53.2969" y2="745.9844"/><line style="stroke:#C0C0C0;stroke-width:1;" x1="1348" x2="1348" y1="53.2969" y2="745.9844"/><line style="stroke:#C0C0C0;stroke-width:1;" x1="1376" x2="1376" y1="53.2969" y2="745.9844"/><line style="stroke:#C0C0C0;stroke-width:1;" x1="1404" x2="1404" y1="53.2969" y2="745.9844"/><line style="stroke:#C0C0C0;stroke-width:1;" x1="1408" x2="1408" y1="53.2969" y2="745.9844"/><line style="stroke:#C0C0C0;stroke-width:1;" x1="0" x2="0" y1="37.2969" y2="53.2969"/><line style="stroke:#C0C0C0;stroke-width:1;" x1="124" x2="124" y1="37.2969" y2="53.2969"/><text fill="#000000" font-family="sans-serif" font-size="12" font-weight="bold" lengthAdjust="spacing" textLength="63.5332" x="30.2334" y="48.4355">Mar 2026</text><line style="stroke:#C0C0C0;stroke-width:1;" x1="244" x2="244" y1="37.2969" y2="53.2969"/><text fill="#000000" font-family="sans-serif" font-size="12" font-weight="bold" lengthAdjust="spacing" textLength="61.3711" x="153.3145" y="48.4355">Apr 2026</text><line style="stroke:#C0C0C0;stroke-width:1;" x1="368" x2="368" y1="37.2969" y2="53.2969"/><text fill="#000000" font-family="sans-serif" font-size="12" font-weight="bold" lengthAdjust="spacing" textLength="65.4375" x="273.2813" y="48.4355">May 2026</text><line style="stroke:#C0C0C0;stroke-width:1;" x1="488" x2="488" y1="37.2969" y2="53.2969"/><text fill="#000000" font-family="sans-serif" font-size="12" font-weight="bold" lengthAdjust="spacing" textLength="59.127" x="398.4365" y="48.4355">Jun 2026</text><line style="stroke:#C0C0C0;stroke-width:1;" x1="612" x2="612" y1="37.2969" y2="53.2969"/><text fill="#000000" font-family="sans-serif" font-size="12" font-weight="bold" lengthAdjust="spacing" textLength="54.6973" x="522.6514" y="48.4355">Jul 2026</text><line style="stroke:#C0C0C0;stroke-width:1;" x1="736" x2="736" y1="37.2969" y2="53.2969"/><text fill="#000000" font-family="sans-serif" font-size="12" font-weight="bold" lengthAdjust="spacing" textLength="63.9961" x="642.002" y="48.4355">Aug 2026</text><line style="stroke:#C0C0C0;stroke-width:1;" x1="856" x2="856" y1="37.2969" y2="53.2969"/><text fill="#000000" font-family="sans-serif" font-size="12" font-weight="bold" lengthAdjust="spacing" textLength="62.9473" x="764.5264" y="48.4355">Sep 2026</text><line style="stroke:#C0C0C0;stroke-width:1;" x1="980" x2="980" y1="37.2969" y2="53.2969"/><text fill="#000000" font-family="sans-serif" font-size="12" font-weight="bold" lengthAdjust="spacing" textLength="60.627" x="887.6865" y="48.4355">Oct 2026</text><line style="stroke:#C0C0C0;stroke-width:1;" x1="1100" x2="1100" y1="37.2969" y2="53.2969"/><text fill="#000000" font-family="sans-serif" font-size="12" font-weight="bold" lengthAdjust="spacing" textLength="63.6855" x="1008.1572" y="48.4355">Nov 2026</text><line style="stroke:#C0C0C0;stroke-width:1;" x1="1224" x2="1224" y1="37.2969" y2="53.2969"/><text fill="#000000" font-family="sans-serif" font-size="12" font-weight="bold" lengthAdjust="spacing" textLength="62.7891" x="1130.6055" y="48.4355">Dec 2026</text><line style="stroke:#C0C0C0;stroke-width:1;" x1="1348" x2="1348" y1="37.2969" y2="53.2969"/><text fill="#000000" font-family="sans-serif" font-size="12" font-weight="bold" lengthAdjust="spacing" textLength="58.6816" x="1256.6592" y="48.4355">Jan 2027</text><line style="stroke:#C0C0C0;stroke-width:1;" x1="1408" x2="1408" y1="37.2969" y2="53.2969"/><text fill="#000000" font-family="sans-serif" font-size="12" font-weight="bold" lengthAdjust="spacing" textLength="24.9258" x="1365.5371" y="48.4355">Feb</text><line style="stroke:#C0C0C0;stroke-width:1;" x1="0" x2="1408" y1="37.2969" y2="37.2969"/><line style="stroke:#C0C0C0;stroke-width:1;" x1="0" x2="1408" y1="53.2969" y2="53.2969"/><line style="stroke:#C0C0C0;stroke-width:1;" x1="0" x2="1408" y1="64.2969" y2="64.2969"/><rect fill="#F0F0F0" height="22.8047" style="stroke:none;stroke-width:1;" width="1408" x="0" y="69.2969"/><line style="stroke:#181818;stroke-width:1;" x1="0" x2="5" y1="80.6992" y2="80.6992"/><line style="stroke:#181818;stroke-width:1;" x1="123.1631" x2="1407" y1="80.6992" y2="80.6992"/><rect fill="#BBDEFB" height="11.6406" style="stroke:none;stroke-width:1;" width="180" x="2" y="99.1016"/><rect fill="none" height="11.6406" style="stroke:#1976D2;stroke-width:1;" width="180" x="2" y="99.1016"/><rect fill="#BBDEFB" height="11.6406" style="stroke:none;stroke-width:1;" width="144" x="58" y="114.7422"/><rect fill="none" height="11.6406" style="stroke:#1976D2;stroke-width:1;" width="144" x="58" y="114.7422"/><rect fill="#BBDEFB" height="11.6406" style="stroke:none;stroke-width:1;" width="120" x="126" y="130.3828"/><rect fill="none" height="11.6406" style="stroke:#1976D2;stroke-width:1;" width="120" x="126" y="130.3828"/><rect fill="#C8E6C9" height="11.6406" style="stroke:none;stroke-width:1;" width="188" x="182" y="146.0234"/><rect fill="none" height="11.6406" style="stroke:#388E3C;stroke-width:1;" width="188" x="182" y="146.0234"/><rect fill="#FFE0B2" height="11.6406" style="stroke:none;stroke-width:1;" width="120" x="982" y="161.6641"/><rect fill="none" height="11.6406" style="stroke:#E65100;stroke-width:1;" width="120" x="982" y="161.6641"/><rect fill="#FFE0B2" height="11.6406" style="stroke:none;stroke-width:1;" width="120" x="1038" y="177.3047"/><rect fill="none" height="11.6406" style="stroke:#E65100;stroke-width:1;" width="120" x="1038" y="177.3047"/><rect fill="#FFE0B2" height="11.6406" style="stroke:none;stroke-width:1;" width="180" x="1102" y="192.9453"/><rect fill="none" height="11.6406" style="stroke:#E65100;stroke-width:1;" width="180" x="1102" y="192.9453"/><rect fill="#FFE0B2" height="11.6406" style="stroke:none;stroke-width:1;" width="164" x="1158" y="208.5859"/><rect fill="none" height="11.6406" style="stroke:#E65100;stroke-width:1;" width="164" x="1158" y="208.5859"/><rect fill="#F0F0F0" height="22.8047" style="stroke:none;stroke-width:1;" width="1408" x="0" y="227.2266"/><line style="stroke:#181818;stroke-width:1;" x1="0" x2="5" y1="238.6289" y2="238.6289"/><line style="stroke:#181818;stroke-width:1;" x1="154.541" x2="1407" y1="238.6289" y2="238.6289"/><rect fill="#BBDEFB" height="11.6406" style="stroke:none;stroke-width:1;" width="180" x="2" y="257.0313"/><rect fill="none" height="11.6406" style="stroke:#1976D2;stroke-width:1;" width="180" x="2" y="257.0313"/><rect fill="#BBDEFB" height="11.6406" style="stroke:none;stroke-width:1;" width="164" x="78" y="272.6719"/><rect fill="none" height="11.6406" style="stroke:#1976D2;stroke-width:1;" width="164" x="78" y="272.6719"/><rect fill="#C8E6C9" height="11.6406" style="stroke:none;stroke-width:1;" width="176" x="126" y="288.3125"/><rect fill="none" height="11.6406" style="stroke:#388E3C;stroke-width:1;" width="176" x="126" y="288.3125"/><rect fill="#C8E6C9" height="11.6406" style="stroke:none;stroke-width:1;" width="168" x="202" y="303.9531"/><rect fill="none" height="11.6406" style="stroke:#388E3C;stroke-width:1;" width="168" x="202" y="303.9531"/><rect fill="#C8E6C9" height="11.6406" style="stroke:none;stroke-width:1;" width="144" x="302" y="319.5938"/><rect fill="none" height="11.6406" style="stroke:#388E3C;stroke-width:1;" width="144" x="302" y="319.5938"/><rect fill="#F0F0F0" height="22.8047" style="stroke:none;stroke-width:1;" width="1408" x="0" y="338.2344"/><line style="stroke:#181818;stroke-width:1;" x1="0" x2="5" y1="349.6367" y2="349.6367"/><line style="stroke:#181818;stroke-width:1;" x1="98.6548" x2="1407" y1="349.6367" y2="349.6367"/><rect fill="#BBDEFB" height="11.6406" style="stroke:none;stroke-width:1;" width="244" x="58" y="368.0391"/><rect fill="none" height="11.6406" style="stroke:#1976D2;stroke-width:1;" width="244" x="58" y="368.0391"/><rect fill="#C8E6C9" height="11.6406" style="stroke:none;stroke-width:1;" width="120" x="126" y="383.6797"/><rect fill="none" height="11.6406" style="stroke:#388E3C;stroke-width:1;" width="120" x="126" y="383.6797"/><rect fill="#C8E6C9" height="11.6406" style="stroke:none;stroke-width:1;" width="140" x="182" y="399.3203"/><rect fill="none" height="11.6406" style="stroke:#388E3C;stroke-width:1;" width="140" x="182" y="399.3203"/><rect fill="#FFE0B2" height="11.6406" style="stroke:none;stroke-width:1;" width="164" x="302" y="414.9609"/><rect fill="none" height="11.6406" style="stroke:#E65100;stroke-width:1;" width="164" x="302" y="414.9609"/><rect fill="#FFE0B2" height="11.6406" style="stroke:none;stroke-width:1;" width="120" x="370" y="430.6016"/><rect fill="none" height="11.6406" style="stroke:#E65100;stroke-width:1;" width="120" x="370" y="430.6016"/><rect fill="#F0F0F0" height="22.8047" style="stroke:none;stroke-width:1;" width="1408" x="0" y="449.2422"/><line style="stroke:#181818;stroke-width:1;" x1="0" x2="5" y1="460.6445" y2="460.6445"/><line style="stroke:#181818;stroke-width:1;" x1="142.2305" x2="1407" y1="460.6445" y2="460.6445"/><rect fill="#FFE0B2" height="11.6406" style="stroke:none;stroke-width:1;" width="124" x="490" y="479.0469"/><rect fill="none" height="11.6406" style="stroke:#E65100;stroke-width:1;" width="124" x="490" y="479.0469"/><rect fill="#FFE0B2" height="11.6406" style="stroke:none;stroke-width:1;" width="164" x="546" y="494.6875"/><rect fill="none" height="11.6406" style="stroke:#E65100;stroke-width:1;" width="164" x="546" y="494.6875"/><rect fill="#FFE0B2" height="11.6406" style="stroke:none;stroke-width:1;" width="164" x="670" y="510.3281"/><rect fill="none" height="11.6406" style="stroke:#E65100;stroke-width:1;" width="164" x="670" y="510.3281"/><rect fill="#FFE0B2" height="11.6406" style="stroke:none;stroke-width:1;" width="140" x="794" y="525.9688"/><rect fill="none" height="11.6406" style="stroke:#E65100;stroke-width:1;" width="140" x="794" y="525.9688"/><rect fill="#FFE0B2" height="11.6406" style="stroke:none;stroke-width:1;" width="124" x="858" y="541.6094"/><rect fill="none" height="11.6406" style="stroke:#E65100;stroke-width:1;" width="124" x="858" y="541.6094"/><rect fill="#F0F0F0" height="22.8047" style="stroke:none;stroke-width:1;" width="1408" x="0" y="560.25"/><line style="stroke:#181818;stroke-width:1;" x1="0" x2="5" y1="571.6523" y2="571.6523"/><line style="stroke:#181818;stroke-width:1;" x1="103.999" x2="1407" y1="571.6523" y2="571.6523"/><rect fill="#FFE0B2" height="11.6406" style="stroke:none;stroke-width:1;" width="200" x="490" y="590.0547"/><rect fill="none" height="11.6406" style="stroke:#E65100;stroke-width:1;" width="200" x="490" y="590.0547"/><rect fill="#FFE0B2" height="11.6406" style="stroke:none;stroke-width:1;" width="188" x="670" y="605.6953"/><rect fill="none" height="11.6406" style="stroke:#E65100;stroke-width:1;" width="188" x="670" y="605.6953"/><rect fill="#FFE0B2" height="11.6406" style="stroke:none;stroke-width:1;" width="188" x="794" y="621.3359"/><rect fill="none" height="11.6406" style="stroke:#E65100;stroke-width:1;" width="188" x="794" y="621.3359"/><rect fill="#F0F0F0" height="22.8047" style="stroke:none;stroke-width:1;" width="1408" x="0" y="639.9766"/><line style="stroke:#181818;stroke-width:1;" x1="0" x2="5" y1="651.3789" y2="651.3789"/><line style="stroke:#181818;stroke-width:1;" x1="84.7813" x2="1407" y1="651.3789" y2="651.3789"/><rect fill="#C8E6C9" height="11.6406" style="stroke:none;stroke-width:1;" width="100" x="426" y="669.7813"/><rect fill="none" height="11.6406" style="stroke:#388E3C;stroke-width:1;" width="100" x="426" y="669.7813"/><rect fill="#FFE0B2" height="11.6406" style="stroke:none;stroke-width:1;" width="124" x="1282" y="685.4219"/><rect fill="none" height="11.6406" style="stroke:#E65100;stroke-width:1;" width="124" x="1282" y="685.4219"/><polygon fill="#FF4500" points="526,701.0625,531,706.0625,526,711.0625,521,706.0625" style="stroke:#FF4500;stroke-width:1;"/><polygon fill="#FF4500" points="982,716.7031,987,721.7031,982,726.7031,977,721.7031" style="stroke:#FF4500;stroke-width:1;"/><polygon fill="#FF4500" points="1406,732.3438,1411,737.3438,1406,742.3438,1401,737.3438" style="stroke:#FF4500;stroke-width:1;"/><text fill="#000000" font-family="sans-serif" font-size="11" font-weight="bold" lengthAdjust="spacing" textLength="108.1631" x="10" y="84.5073">Platform (3 devs)</text><text fill="#000000" font-family="sans-serif" font-size="10" lengthAdjust="spacing" textLength="155.4004" x="6" y="108.3838">EKS Cluster Setup + Istio Mesh</text><text fill="#000000" font-family="sans-serif" font-size="10" lengthAdjust="spacing" textLength="163.623" x="206" y="124.0244">CI/CD Migration - GitOps/ArgoCD</text><text fill="#000000" font-family="sans-serif" font-size="10" lengthAdjust="spacing" textLength="195.1172" x="250" y="139.665">Observability - DataDog + Prometheus</text><text fill="#000000" font-family="sans-serif" font-size="10" lengthAdjust="spacing" textLength="136.792" x="186" y="155.3057">Aurora Global DB Migration</text><text fill="#000000" font-family="sans-serif" font-size="10" lengthAdjust="spacing" textLength="124.4873" x="1106" y="170.9463">Load Testing - 10k+ QPS</text><text fill="#000000" font-family="sans-serif" font-size="10" lengthAdjust="spacing" textLength="141.7236" x="1162" y="186.5869">DR Automation - RTO 15min</text><text fill="#000000" font-family="sans-serif" font-size="10" lengthAdjust="spacing" textLength="169.9023" x="1106" y="202.2275">Security Hardening + Compliance</text><text fill="#000000" font-family="sans-serif" font-size="10" lengthAdjust="spacing" textLength="159.4775" x="1326" y="217.8682">Chaos Engineering + Resilience</text><text fill="#000000" font-family="sans-serif" font-size="11" font-weight="bold" lengthAdjust="spacing" textLength="139.541" x="10" y="242.437">Microservices (4 devs)</text><text fill="#000000" font-family="sans-serif" font-size="10" lengthAdjust="spacing" textLength="150.4395" x="6" y="266.3135">Monolith to User Service - K8s</text><text fill="#000000" font-family="sans-serif" font-size="10" lengthAdjust="spacing" textLength="164.4385" x="246" y="281.9541">Monolith to Partner Service - K8s</text><text fill="#000000" font-family="sans-serif" font-size="10" lengthAdjust="spacing" textLength="171.875" x="306" y="297.5947">Monolith to Payment Service - K8s</text><text fill="#000000" font-family="sans-serif" font-size="10" lengthAdjust="spacing" textLength="175.8301" x="374" y="313.2354">Monolith to Recommendation - K8s</text><text fill="#000000" font-family="sans-serif" font-size="10" lengthAdjust="spacing" textLength="172.2266" x="450" y="328.876">Event Mesh - Kafka + EventBridge</text><text fill="#000000" font-family="sans-serif" font-size="11" font-weight="bold" lengthAdjust="spacing" textLength="83.6548" x="10" y="353.4448">Data (3 devs)</text><text fill="#000000" font-family="sans-serif" font-size="10" lengthAdjust="spacing" textLength="155.6396" x="62" y="377.3213">PostgreSQL to Aurora Sharding</text><text fill="#000000" font-family="sans-serif" font-size="10" lengthAdjust="spacing" textLength="161.9824" x="250" y="392.9619">Redis to Redis Cluster - 100GB+</text><text fill="#000000" font-family="sans-serif" font-size="10" lengthAdjust="spacing" textLength="151.6943" x="326" y="408.6025">OpenSearch Cluster - Sharded</text><text fill="#000000" font-family="sans-serif" font-size="10" lengthAdjust="spacing" textLength="169.0088" x="470" y="424.2432">Kinesis + Kafka Analytics Pipeline</text><text fill="#000000" font-family="sans-serif" font-size="10" lengthAdjust="spacing" textLength="127.8857" x="494" y="439.8838">Redshift Data Warehouse</text><text fill="#000000" font-family="sans-serif" font-size="11" font-weight="bold" lengthAdjust="spacing" textLength="127.2305" x="10" y="464.4526">Global Infra (3 devs)</text><text fill="#000000" font-family="sans-serif" font-size="10" lengthAdjust="spacing" textLength="159.6143" x="618" y="488.3291">US-West-2 Active-Active Deploy</text><text fill="#000000" font-family="sans-serif" font-size="10" lengthAdjust="spacing" textLength="169.1943" x="714" y="503.9697">China Region - AWS CN + Alibaba</text><text fill="#000000" font-family="sans-serif" font-size="10" lengthAdjust="spacing" textLength="183.0273" x="838" y="519.6104">EU Region - GDPR + Data Residency</text><text fill="#000000" font-family="sans-serif" font-size="10" lengthAdjust="spacing" textLength="102.749" x="798" y="535.251">APAC Region Deploy</text><text fill="#000000" font-family="sans-serif" font-size="10" lengthAdjust="spacing" textLength="127.6904" x="986" y="550.8916">Global Aurora Replication</text><text fill="#000000" font-family="sans-serif" font-size="11" font-weight="bold" lengthAdjust="spacing" textLength="88.999" x="10" y="575.4604">ML/AI (3 devs)</text><text fill="#000000" font-family="sans-serif" font-size="10" lengthAdjust="spacing" textLength="158.3203" x="494" y="599.3369">ML Pipeline - SageMaker + GPU</text><text fill="#000000" font-family="sans-serif" font-size="10" lengthAdjust="spacing" textLength="158.1543" x="674" y="614.9775">Custom Model Training Pipeline</text><text fill="#000000" font-family="sans-serif" font-size="10" lengthAdjust="spacing" textLength="157.085" x="798" y="630.6182">Real-time Recommendation ML</text><text fill="#000000" font-family="sans-serif" font-size="11" font-weight="bold" lengthAdjust="spacing" textLength="69.7813" x="10" y="655.187">Integration</text><text fill="#000000" font-family="sans-serif" font-size="10" lengthAdjust="spacing" textLength="133.5059" x="530" y="679.0635">Migration Validation Sprint</text><text fill="#000000" font-family="sans-serif" font-size="10" lengthAdjust="spacing" textLength="141.5625" x="1410" y="694.7041">Full Scale Launch Readiness</text><text fill="#000000" font-family="sans-serif" font-size="10" font-weight="bold" lengthAdjust="spacing" textLength="111.4551" x="534" y="710.3447">Migration Complete</text><text fill="#000000" font-family="sans-serif" font-size="10" font-weight="bold" lengthAdjust="spacing" textLength="98.4961" x="990" y="725.9854">Multi-Region Live</text><text fill="#000000" font-family="sans-serif" font-size="10" font-weight="bold" lengthAdjust="spacing" textLength="113.0322" x="1414" y="741.626">Scale-Ready Launch</text><line style="stroke:#C0C0C0;stroke-width:1;" x1="0" x2="1408" y1="745.9844" y2="745.9844"/><line style="stroke:#C0C0C0;stroke-width:1;" x1="0" x2="0" y1="745.9844" y2="761.9844"/><line style="stroke:#C0C0C0;stroke-width:1;" x1="124" x2="124" y1="745.9844" y2="761.9844"/><text fill="#000000" font-family="sans-serif" font-size="12" font-weight="bold" lengthAdjust="spacing" textLength="63.5332" x="30.2334" y="757.123">Mar 2026</text><line style="stroke:#C0C0C0;stroke-width:1;" x1="244" x2="244" y1="745.9844" y2="761.9844"/><text fill="#000000" font-family="sans-serif" font-size="12" font-weight="bold" lengthAdjust="spacing" textLength="61.3711" x="153.3145" y="757.123">Apr 2026</text><line style="stroke:#C0C0C0;stroke-width:1;" x1="368" x2="368" y1="745.9844" y2="761.9844"/><text fill="#000000" font-family="sans-serif" font-size="12" font-weight="bold" lengthAdjust="spacing" textLength="65.4375" x="273.2813" y="757.123">May 2026</text><line style="stroke:#C0C0C0;stroke-width:1;" x1="488" x2="488" y1="745.9844" y2="761.9844"/><text fill="#000000" font-family="sans-serif" font-size="12" font-weight="bold" lengthAdjust="spacing" textLength="59.127" x="398.4365" y="757.123">Jun 2026</text><line style="stroke:#C0C0C0;stroke-width:1;" x1="612" x2="612" y1="745.9844" y2="761.9844"/><text fill="#000000" font-family="sans-serif" font-size="12" font-weight="bold" lengthAdjust="spacing" textLength="54.6973" x="522.6514" y="757.123">Jul 2026</text><line style="stroke:#C0C0C0;stroke-width:1;" x1="736" x2="736" y1="745.9844" y2="761.9844"/><text fill="#000000" font-family="sans-serif" font-size="12" font-weight="bold" lengthAdjust="spacing" textLength="63.9961" x="642.002" y="757.123">Aug 2026</text><line style="stroke:#C0C0C0;stroke-width:1;" x1="856" x2="856" y1="745.9844" y2="761.9844"/><text fill="#000000" font-family="sans-serif" font-size="12" font-weight="bold" lengthAdjust="spacing" textLength="62.9473" x="764.5264" y="757.123">Sep 2026</text><line style="stroke:#C0C0C0;stroke-width:1;" x1="980" x2="980" y1="745.9844" y2="761.9844"/><text fill="#000000" font-family="sans-serif" font-size="12" font-weight="bold" lengthAdjust="spacing" textLength="60.627" x="887.6865" y="757.123">Oct 2026</text><line style="stroke:#C0C0C0;stroke-width:1;" x1="1100" x2="1100" y1="745.9844" y2="761.9844"/><text fill="#000000" font-family="sans-serif" font-size="12" font-weight="bold" lengthAdjust="spacing" textLength="63.6855" x="1008.1572" y="757.123">Nov 2026</text><line style="stroke:#C0C0C0;stroke-width:1;" x1="1224" x2="1224" y1="745.9844" y2="761.9844"/><text fill="#000000" font-family="sans-serif" font-size="12" font-weight="bold" lengthAdjust="spacing" textLength="62.7891" x="1130.6055" y="757.123">Dec 2026</text><line style="stroke:#C0C0C0;stroke-width:1;" x1="1348" x2="1348" y1="745.9844" y2="761.9844"/><text fill="#000000" font-family="sans-serif" font-size="12" font-weight="bold" lengthAdjust="spacing" textLength="58.6816" x="1256.6592" y="757.123">Jan 2027</text><line style="stroke:#C0C0C0;stroke-width:1;" x1="1408" x2="1408" y1="745.9844" y2="761.9844"/><text fill="#000000" font-family="sans-serif" font-size="12" font-weight="bold" lengthAdjust="spacing" textLength="24.9258" x="1365.5371" y="757.123">Feb</text><line style="stroke:#C0C0C0;stroke-width:1;" x1="0" x2="1408" y1="761.9844" y2="761.9844"/><g class="legend" data-source-line="96"><rect fill="#DDDDDD" height="79.1875" rx="7.5" ry="7.5" style="stroke:#000000;stroke-width:1;" width="151.4766" x="1243.5234" y="773.9844"/><rect fill="#BBDEFB" height="16.2969" style="stroke:none;stroke-width:1;" width="141.4766" x="1248.5234" y="780.9844"/><text fill="#000000" font-family="sans-serif" font-size="14" lengthAdjust="spacing" textLength="132.5762" x="1252.9736" y="793.9795">Architecture Phase</text><rect fill="#C8E6C9" height="16.2969" style="stroke:none;stroke-width:1;" width="141.4766" x="1248.5234" y="797.2813"/><text fill="#000000" font-family="sans-serif" font-size="14" lengthAdjust="spacing" textLength="112.2598" x="1252.9736" y="810.2764">Migration Phase</text><rect fill="#FFE0B2" height="16.2969" style="stroke:none;stroke-width:1;" width="141.4766" x="1248.5234" y="813.5781"/><text fill="#000000" font-family="sans-serif" font-size="14" lengthAdjust="spacing" textLength="83.918" x="1252.9736" y="826.5732">Scale Phase</text><rect fill="#FF4500" height="16.2969" style="stroke:none;stroke-width:1;" width="141.4766" x="1248.5234" y="829.875"/><text fill="#000000" font-family="sans-serif" font-size="14" lengthAdjust="spacing" textLength="67.3066" x="1252.9736" y="842.8701">Milestone</text><line style="stroke:#000000;stroke-width:1;" x1="1248.5234" x2="1390" y1="780.9844" y2="780.9844"/><line style="stroke:#000000;stroke-width:1;" x1="1248.5234" x2="1390" y1="797.2813" y2="797.2813"/><line style="stroke:#000000;stroke-width:1;" x1="1248.5234" x2="1390" y1="813.5781" y2="813.5781"/><line style="stroke:#000000;stroke-width:1;" x1="1248.5234" x2="1390" y1="829.875" y2="829.875"/><line style="stroke:#000000;stroke-width:1;" x1="1248.5234" x2="1390" y1="846.1719" y2="846.1719"/><line style="stroke:#000000;stroke-width:1;" x1="1248.5234" x2="1248.5234" y1="780.9844" y2="846.1719"/><line style="stroke:#000000;stroke-width:1;" x1="1390" x2="1390" y1="780.9844" y2="846.1719"/></g><!--SRC=[bLZTRXev5BwVfpXIRbAbKsP8I0YgelBVDD1GIDABQY_Cu82NmKQsXnMxhRGFiK-uJxB7dY4DCnJFAYA0n_xET_wF-Q0qaNfEkDQUPZgcSB_MJ72uQC1TBCIoyiI85X8c4S67__xz3uHLM0ck5mfMR2w9sVqMmXhCw4QzXNuifYJsrf9nhUoPFoXTnbjS4R_JI8CLgA0QL2_zuDmFGizxh_GsfZUUfT5X155Ny9S7e8bQsWy0FHGvONzI20Fy_WDVAnPJfGMd1tTatmqmJ4Kyiqij4YtxKYHyrXOnAdKl2P_JCKsV3XYdnNKZIj4raTOCUL5XML4dlS3yMS0VtljAfhBd-p2AYNuMSWMdvzQ8Ry3tlM_TkmcquqHfYiQdEbd36Tmgj3OCgLhyLhGZ43u3ocUxjGi_hBbXc8B84AGpO1nEMgrEjzUgd8JNLvUTglUjVLjfTs2uSpJuq6VwVgqgJJaNxKw11iP1WKOrA87Zu74_LLHko9J5J6_nT8TeqX5pL6OanOhg1KrKZip50PlKJBoL17CmQYPII9B5EtHQFvKhy2WQvTBoE0QHazwkTo_RrvMJytgzUzxslWq4cS43nZ_ZSzGW39Pdy6KqsHSTXaKJX5Kh-fVdSt9xlMxGgbPEkfUrC40_TiRGJBHOxRmuVhZ7t5ynNf1SK1ebcu0yWk2GFQ5H8et7FX8vezmmFuEsMArZHdX4SmogUTslSC4oSE8uUBGNH2ZeyZdM2ohJusEgC9he8HevGrWQrPeRvZWBKpY6B9B2X3ABg8BJYrVLOoYumEXUW1Rmg6pkssreyBkwAbqzN32E77bzV8G2kPD8DIWIEGzA8VqlBjiLvVeebyFb8s-KNo0vilSrmfX6OeKOirr27A9ID4jQGTn03YRTZM5lMe4vG9wN1AFGBhOacyrpqMmDK6HY2hmRw3WJ4y-c3kytmP5GUYxfvCl0Q9ZLoya2ynRpfKJpIHtcG7443eu1kCCQs7pODLDJD8D-wwnqrt7YE5nrlwPyGecC5g_EMYteh4JBgLat7GTnCBZ3IgLmprdcu2OdyLQpIC68hMcCJyk5IwqSbACCendLWZthD6o-4aaN8b5v2fS7_76ryyVXy-x2ctNiM_uiSm7xEF6_ObVrgz2CDDjGFts33bt7OflZTdM0MzroSy4uEnJZ1EDidXQ2vbUS0J-ZhPincv8fAT0eUgcUjIW7ZeD7z_7duNvdDCQZrjYcpM7dZV86gHzWScsPb41oS6cEckqTna5lN1yOMGARD8UEEgHb4PBLcZ4UOj61uH0552Uqq8R04OGIay6WqhpTZypXu2MrJCgJEHsI9QR_6VH7ZwK2qvZ2WUAAIwmuOWL3CQCnF4Z2xF3rY-9HF-WFOneNZBDmaDZNR4NpBNCuA14IOLOyZc2u_NFBDNsv2Xddl5oCdaZCCgY9lKGNwbanHJ210mU6exBtaZZEhlW3ad3i3gZWpDJelLaa6w7pysmws1_5S9Za5NaxY5EDRboGDNQhd999h9cVvU80Is9kM-OUIyCtyhSPcRrzEyvUJEUe1qWsNsYycdz_dtN_6sXYYsIQHZgH54OBeYXyJtUajhjvTPdTUvogTfDPOk_HoyyAvl3knulldc6G4l4-uB_qnnXl5EFx8-RRXafbf8Jla7djNHYSFYGKFeiD11SGNZMgGUFY6XuVsaQpsXllj3yQW1A9n74K1mqjsJGnDDzudyW6Aqd2JTmse2y9YP-6kmMyYMoO5DoCizwdfs439iaKJnDDuMdeTUWpGTlZhaYOiQc14dj-tHkWIWcMWGPmzB_N5eWcj-ct_m00]--></g></svg>