<?plantuml 1.2026.1?><svg xmlns="http://www.w3.org/2000/svg" xmlns:xlink="http://www.w3.org/1999/xlink" contentStyleType="text/css" data-diagram-type="ACTIVITY" height="570px" preserveAspectRatio="none" style="width:812px;height:570px;background:#FFFFFF;" version="1.1" viewBox="0 0 812 570" width="812px" zoomAndPan="magnify"><title>[Process Name] &#8212; Decision Flow</title><defs/><g><g class="title" data-source-line="2"><text fill="#000000" font-family="sans-serif" font-size="14" font-weight="bold" lengthAdjust="spacing" textLength="256.6279" x="276.3103" y="32.9951">[Process Name] &#8212; Decision Flow</text></g><ellipse cx="545.4214" cy="57.2969" fill="#222222" rx="10" ry="10" style="stroke:#222222;stroke-width:1;"/><rect fill="#F1F1F1" height="33.9688" rx="12.5" ry="12.5" style="stroke:#181818;stroke-width:0.5;" width="148.3145" x="471.2642" y="87.2969"/><text fill="#000000" font-family="sans-serif" font-size="12" lengthAdjust="spacing" textLength="128.3145" x="481.2642" y="108.4355">User submits request</text><polygon fill="#F1F1F1" points="503.6316,141.2656,587.2112,141.2656,599.2112,153.2656,587.2112,165.2656,503.6316,165.2656,491.6316,153.2656,503.6316,141.2656" style="stroke:#181818;stroke-width:0.5;"/><text fill="#000000" font-family="sans-serif" font-size="11" lengthAdjust="spacing" textLength="83.5796" x="503.6316" y="157.0737">Authenticated?</text><text fill="#000000" font-family="sans-serif" font-size="11" lengthAdjust="spacing" textLength="19.0083" x="472.6233" y="150.6714">yes</text><text fill="#000000" font-family="sans-serif" font-size="11" lengthAdjust="spacing" textLength="13.7017" x="599.2112" y="150.6714">no</text><rect fill="#F1F1F1" height="33.9688" rx="12.5" ry="12.5" style="stroke:#181818;stroke-width:0.5;" width="103.9707" x="323.5273" y="175.2656"/><text fill="#000000" font-family="sans-serif" font-size="12" lengthAdjust="spacing" textLength="83.9707" x="333.5273" y="196.4043">Validate input</text><polygon fill="#F1F1F1" points="343.4312,229.2344,407.5942,229.2344,419.5942,241.2344,407.5942,253.2344,343.4312,253.2344,331.4312,241.2344,343.4312,229.2344" style="stroke:#181818;stroke-width:0.5;"/><text fill="#000000" font-family="sans-serif" font-size="11" lengthAdjust="spacing" textLength="64.1631" x="343.4312" y="245.0425">Input valid?</text><text fill="#000000" font-family="sans-serif" font-size="11" lengthAdjust="spacing" textLength="19.0083" x="312.4229" y="238.6401">yes</text><text fill="#000000" font-family="sans-serif" font-size="11" lengthAdjust="spacing" textLength="13.7017" x="419.5942" y="238.6401">no</text><rect fill="#F1F1F1" height="33.9688" rx="12.5" ry="12.5" style="stroke:#181818;stroke-width:0.5;" width="115.6895" x="165.9131" y="263.2344"/><text fill="#000000" font-family="sans-serif" font-size="12" lengthAdjust="spacing" textLength="95.6895" x="175.9131" y="284.373">Process request</text><rect fill="#555555" height="6" rx="2.5" ry="2.5" style="stroke:#555555;stroke-width:1;" width="431.6904" x="11" y="317.2031"/><rect fill="#F1F1F1" height="33.9688" rx="12.5" ry="12.5" style="stroke:#181818;stroke-width:0.5;" width="122.9082" x="23" y="343.2031"/><text fill="#000000" font-family="sans-serif" font-size="12" lengthAdjust="spacing" textLength="102.9082" x="33" y="364.3418">Update database</text><rect fill="#F1F1F1" height="33.9688" rx="12.5" ry="12.5" style="stroke:#181818;stroke-width:0.5;" width="121.5195" x="155.9082" y="343.2031"/><text fill="#000000" font-family="sans-serif" font-size="12" lengthAdjust="spacing" textLength="101.5195" x="165.9082" y="364.3418">Send notification</text><rect fill="#F1F1F1" height="33.9688" rx="12.5" ry="12.5" style="stroke:#181818;stroke-width:0.5;" width="137.0879" x="291.6025" y="343.2031"/><text fill="#000000" font-family="sans-serif" font-size="12" lengthAdjust="spacing" textLength="117.0879" x="301.6025" y="364.3418">Log analytics event</text><rect fill="#555555" height="6" rx="2.5" ry="2.5" style="stroke:#555555;stroke-width:1;" width="431.6904" x="11" y="397.1719"/><rect fill="#F1F1F1" height="33.9688" rx="12.5" ry="12.5" style="stroke:#181818;stroke-width:0.5;" width="111.3242" x="168.0957" y="423.1719"/><text fill="#000000" font-family="sans-serif" font-size="12" lengthAdjust="spacing" textLength="91.3242" x="178.0957" y="444.3105">Return success</text><rect fill="#F1F1F1" height="33.9688" rx="12.5" ry="12.5" style="stroke:#181818;stroke-width:0.5;" width="156.8047" x="452.6904" y="263.2344"/><text fill="#000000" font-family="sans-serif" font-size="12" lengthAdjust="spacing" textLength="136.8047" x="462.6904" y="284.373">Return validation error</text><polygon fill="#F1F1F1" points="375.5127,463.1406,387.5127,475.1406,375.5127,487.1406,363.5127,475.1406,375.5127,463.1406" style="stroke:#181818;stroke-width:0.5;"/><rect fill="#F1F1F1" height="33.9688" rx="12.5" ry="12.5" style="stroke:#181818;stroke-width:0.5;" width="171.6699" x="629.5786" y="175.2656"/><text fill="#000000" font-family="sans-serif" font-size="12" lengthAdjust="spacing" textLength="151.6699" x="639.5786" y="196.4043">Return 401 Unauthorized</text><polygon fill="#F1F1F1" points="545.4214,493.1406,557.4214,505.1406,545.4214,517.1406,533.4214,505.1406,545.4214,493.1406" style="stroke:#181818;stroke-width:0.5;"/><ellipse cx="545.4214" cy="548.1406" fill="none" rx="11" ry="11" style="stroke:#222222;stroke-width:1;"/><ellipse cx="545.4214" cy="548.1406" fill="#222222" rx="6" ry="6" style="stroke:#222222;stroke-width:1;"/><line style="stroke:#181818;stroke-width:1;" x1="545.4214" x2="545.4214" y1="67.2969" y2="87.2969"/><polygon fill="#181818" points="541.4214,77.2969,545.4214,87.2969,549.4214,77.2969,545.4214,81.2969" style="stroke:#181818;stroke-width:1;"/><line style="stroke:#181818;stroke-width:1;" x1="84.4541" x2="84.4541" y1="323.2031" y2="343.2031"/><polygon fill="#181818" points="80.4541,333.2031,84.4541,343.2031,88.4541,333.2031,84.4541,337.2031" style="stroke:#181818;stroke-width:1;"/><line style="stroke:#181818;stroke-width:1;" x1="216.668" x2="216.668" y1="323.2031" y2="343.2031"/><polygon fill="#181818" points="212.668,333.2031,216.668,343.2031,220.668,333.2031,216.668,337.2031" style="stroke:#181818;stroke-width:1;"/><line style="stroke:#181818;stroke-width:1;" x1="360.1465" x2="360.1465" y1="323.2031" y2="343.2031"/><polygon fill="#181818" points="356.1465,333.2031,360.1465,343.2031,364.1465,333.2031,360.1465,337.2031" style="stroke:#181818;stroke-width:1;"/><line style="stroke:#181818;stroke-width:1;" x1="84.4541" x2="84.4541" y1="377.1719" y2="397.1719"/><polygon fill="#181818" points="80.4541,387.1719,84.4541,397.1719,88.4541,387.1719,84.4541,391.1719" style="stroke:#181818;stroke-width:1;"/><line style="stroke:#181818;stroke-width:1;" x1="216.668" x2="216.668" y1="377.1719" y2="397.1719"/><polygon fill="#181818" points="212.668,387.1719,216.668,397.1719,220.668,387.1719,216.668,391.1719" style="stroke:#181818;stroke-width:1;"/><line style="stroke:#181818;stroke-width:1;" x1="360.1465" x2="360.1465" y1="377.1719" y2="397.1719"/><polygon fill="#181818" points="356.1465,387.1719,360.1465,397.1719,364.1465,387.1719,360.1465,391.1719" style="stroke:#181818;stroke-width:1;"/><line style="stroke:#181818;stroke-width:1;" x1="223.7578" x2="223.7578" y1="297.2031" y2="317.2031"/><polygon fill="#181818" points="219.7578,307.2031,223.7578,317.2031,227.7578,307.2031,223.7578,311.2031" style="stroke:#181818;stroke-width:1;"/><line style="stroke:#181818;stroke-width:1;" x1="223.7578" x2="223.7578" y1="403.1719" y2="423.1719"/><polygon fill="#181818" points="219.7578,413.1719,223.7578,423.1719,227.7578,413.1719,223.7578,417.1719" style="stroke:#181818;stroke-width:1;"/><line style="stroke:#181818;stroke-width:1;" x1="331.4312" x2="223.7578" y1="241.2344" y2="241.2344"/><line style="stroke:#181818;stroke-width:1;" x1="223.7578" x2="223.7578" y1="241.2344" y2="263.2344"/><polygon fill="#181818" points="219.7578,253.2344,223.7578,263.2344,227.7578,253.2344,223.7578,257.2344" style="stroke:#181818;stroke-width:1;"/><line style="stroke:#181818;stroke-width:1;" x1="419.5942" x2="531.0928" y1="241.2344" y2="241.2344"/><line style="stroke:#181818;stroke-width:1;" x1="531.0928" x2="531.0928" y1="241.2344" y2="263.2344"/><polygon fill="#181818" points="527.0928,253.2344,531.0928,263.2344,535.0928,253.2344,531.0928,257.2344" style="stroke:#181818;stroke-width:1;"/><line style="stroke:#181818;stroke-width:1;" x1="223.7578" x2="223.7578" y1="457.1406" y2="475.1406"/><line style="stroke:#181818;stroke-width:1;" x1="223.7578" x2="363.5127" y1="475.1406" y2="475.1406"/><polygon fill="#181818" points="353.5127,471.1406,363.5127,475.1406,353.5127,479.1406,357.5127,475.1406" style="stroke:#181818;stroke-width:1;"/><line style="stroke:#181818;stroke-width:1;" x1="531.0928" x2="531.0928" y1="297.2031" y2="475.1406"/><line style="stroke:#181818;stroke-width:1;" x1="531.0928" x2="387.5127" y1="475.1406" y2="475.1406"/><polygon fill="#181818" points="397.5127,471.1406,387.5127,475.1406,397.5127,479.1406,393.5127,475.1406" style="stroke:#181818;stroke-width:1;"/><line style="stroke:#181818;stroke-width:1;" x1="375.5127" x2="375.5127" y1="209.2344" y2="229.2344"/><polygon fill="#181818" points="371.5127,219.2344,375.5127,229.2344,379.5127,219.2344,375.5127,223.2344" style="stroke:#181818;stroke-width:1;"/><line style="stroke:#181818;stroke-width:1;" x1="491.6316" x2="375.5127" y1="153.2656" y2="153.2656"/><line style="stroke:#181818;stroke-width:1;" x1="375.5127" x2="375.5127" y1="153.2656" y2="175.2656"/><polygon fill="#181818" points="371.5127,165.2656,375.5127,175.2656,379.5127,165.2656,375.5127,169.2656" style="stroke:#181818;stroke-width:1;"/><line style="stroke:#181818;stroke-width:1;" x1="599.2112" x2="715.4136" y1="153.2656" y2="153.2656"/><line style="stroke:#181818;stroke-width:1;" x1="715.4136" x2="715.4136" y1="153.2656" y2="175.2656"/><polygon fill="#181818" points="711.4136,165.2656,715.4136,175.2656,719.4136,165.2656,715.4136,169.2656" style="stroke:#181818;stroke-width:1;"/><line style="stroke:#181818;stroke-width:1;" x1="375.5127" x2="375.5127" y1="487.1406" y2="505.1406"/><line style="stroke:#181818;stroke-width:1;" x1="375.5127" x2="533.4214" y1="505.1406" y2="505.1406"/><polygon fill="#181818" points="523.4214,501.1406,533.4214,505.1406,523.4214,509.1406,527.4214,505.1406" style="stroke:#181818;stroke-width:1;"/><line style="stroke:#181818;stroke-width:1;" x1="715.4136" x2="715.4136" y1="209.2344" y2="505.1406"/><line style="stroke:#181818;stroke-width:1;" x1="715.4136" x2="557.4214" y1="505.1406" y2="505.1406"/><polygon fill="#181818" points="567.4214,501.1406,557.4214,505.1406,567.4214,509.1406,563.4214,505.1406" style="stroke:#181818;stroke-width:1;"/><line style="stroke:#181818;stroke-width:1;" x1="545.4214" x2="545.4214" y1="121.2656" y2="141.2656"/><polygon fill="#181818" points="541.4214,131.2656,545.4214,141.2656,549.4214,131.2656,545.4214,135.2656" style="stroke:#181818;stroke-width:1;"/><line style="stroke:#181818;stroke-width:1;" x1="545.4214" x2="545.4214" y1="517.1406" y2="537.1406"/><polygon fill="#181818" points="541.4214,527.1406,545.4214,537.1406,549.4214,527.1406,545.4214,531.1406" style="stroke:#181818;stroke-width:1;"/><?plantuml-src TP1DJWCn38NtEOMNdHr8hDe5GY0af0eXKDaW5kx4qrep4mzsqggiE0Gdv2GaCof_4fieYRzdFpzhEGoesCCQwtQZaeA_b4uKzbkEv2B7Zk3fJgKcCxZ5dfxXu-qThgXcOmbmtSdUEOkeqRdvoaZ1qhhdQA3qaiZYmZbkO7QHufP2v1eZ-VCAoWjc1xBA0SmViMEVAv3zf281AAARye9TAVwLPD7HrlUWyjs8jkCb4wjXR9eFNAFHuWi0t2278_P0mKEGo4snbzVw3rpA1Z1WTyXx6D0kBpIXfS4uU79sJp5fo4dKnM11g3E2MP3g5x2RrYv1agheI0RFZVl97-cparDO1Sn1Yl8h-OMRs1o_39y0?></g></svg>