<svg xmlns="http://www.w3.org/2000/svg" xmlns:xlink="http://www.w3.org/1999/xlink" contentStyleType="text/css" data-diagram-type="GANTT" height="490px" preserveAspectRatio="none" style="width:908px;height:490px;background:#FFFFFF;" version="1.1" viewBox="0 0 908 490" width="908px" zoomAndPan="magnify"><title>[Project Name] &#8212; [N] months, [N] devs</title><defs/><g><g class="title" data-source-line="1"><text fill="#000000" font-family="sans-serif" font-size="14" font-weight="bold" lengthAdjust="spacing" textLength="307.8428" x="273.5786" y="22.9951">[Project Name] &#8212; [N] months, [N] devs</text></g><text fill="#000000" font-family="sans-serif" font-size="10" lengthAdjust="spacing" textLength="12.7246" x="13" y="62.5791">10</text><text fill="#000000" font-family="sans-serif" font-size="10" lengthAdjust="spacing" textLength="12.7246" x="69" y="62.5791">11</text><text fill="#000000" font-family="sans-serif" font-size="10" lengthAdjust="spacing" textLength="12.7246" x="125" y="62.5791">12</text><text fill="#000000" font-family="sans-serif" font-size="10" lengthAdjust="spacing" textLength="12.7246" x="181" y="62.5791">13</text><text fill="#000000" font-family="sans-serif" font-size="10" lengthAdjust="spacing" textLength="12.7246" x="237" y="62.5791">14</text><text fill="#000000" font-family="sans-serif" font-size="10" lengthAdjust="spacing" textLength="12.7246" x="293" y="62.5791">15</text><text fill="#000000" font-family="sans-serif" font-size="10" lengthAdjust="spacing" textLength="12.7246" x="349" y="62.5791">16</text><text fill="#000000" font-family="sans-serif" font-size="10" lengthAdjust="spacing" textLength="12.7246" x="405" y="62.5791">17</text><text fill="#000000" font-family="sans-serif" font-size="10" lengthAdjust="spacing" textLength="12.7246" x="461" y="62.5791">18</text><text fill="#000000" font-family="sans-serif" font-size="10" lengthAdjust="spacing" textLength="12.7246" x="517" y="62.5791">19</text><text fill="#000000" font-family="sans-serif" font-size="10" lengthAdjust="spacing" textLength="12.7246" x="573" y="62.5791">20</text><text fill="#000000" font-family="sans-serif" font-size="10" lengthAdjust="spacing" textLength="12.7246" x="629" y="62.5791">21</text><text fill="#000000" font-family="sans-serif" font-size="10" lengthAdjust="spacing" textLength="12.7246" x="685" y="62.5791">22</text><text fill="#000000" font-family="sans-serif" font-size="10" lengthAdjust="spacing" textLength="12.7246" x="741" y="62.5791">23</text><text fill="#000000" font-family="sans-serif" font-size="10" lengthAdjust="spacing" textLength="12.7246" x="797" y="62.5791">24</text><line style="stroke:#C0C0C0;stroke-width:1;" x1="8" x2="8" y1="53.2969" y2="368.2188"/><line style="stroke:#C0C0C0;stroke-width:1;" x1="64" x2="64" y1="53.2969" y2="368.2188"/><line style="stroke:#C0C0C0;stroke-width:1;" x1="120" x2="120" y1="53.2969" y2="368.2188"/><line style="stroke:#C0C0C0;stroke-width:1;" x1="176" x2="176" y1="53.2969" y2="368.2188"/><line style="stroke:#C0C0C0;stroke-width:1;" x1="232" x2="232" y1="53.2969" y2="368.2188"/><line style="stroke:#C0C0C0;stroke-width:1;" x1="288" x2="288" y1="53.2969" y2="368.2188"/><line style="stroke:#C0C0C0;stroke-width:1;" x1="344" x2="344" y1="53.2969" y2="368.2188"/><line style="stroke:#C0C0C0;stroke-width:1;" x1="400" x2="400" y1="53.2969" y2="368.2188"/><line style="stroke:#C0C0C0;stroke-width:1;" x1="456" x2="456" y1="53.2969" y2="368.2188"/><line style="stroke:#C0C0C0;stroke-width:1;" x1="512" x2="512" y1="53.2969" y2="368.2188"/><line style="stroke:#C0C0C0;stroke-width:1;" x1="568" x2="568" y1="53.2969" y2="368.2188"/><line style="stroke:#C0C0C0;stroke-width:1;" x1="624" x2="624" y1="53.2969" y2="368.2188"/><line style="stroke:#C0C0C0;stroke-width:1;" x1="680" x2="680" y1="53.2969" y2="368.2188"/><line style="stroke:#C0C0C0;stroke-width:1;" x1="736" x2="736" y1="53.2969" y2="368.2188"/><line style="stroke:#C0C0C0;stroke-width:1;" x1="792" x2="792" y1="53.2969" y2="368.2188"/><line style="stroke:#C0C0C0;stroke-width:1;" x1="848" x2="848" y1="53.2969" y2="368.2188"/><line style="stroke:#C0C0C0;stroke-width:1;" x1="856" x2="856" y1="53.2969" y2="368.2188"/><line style="stroke:#C0C0C0;stroke-width:1;" x1="0" x2="0" y1="37.2969" y2="53.2969"/><line style="stroke:#C0C0C0;stroke-width:1;" x1="248" x2="248" y1="37.2969" y2="53.2969"/><text fill="#000000" font-family="sans-serif" font-size="12" font-weight="bold" lengthAdjust="spacing" textLength="63.5332" x="92.2334" y="48.4355">Mar 2026</text><line style="stroke:#C0C0C0;stroke-width:1;" x1="488" x2="488" y1="37.2969" y2="53.2969"/><text fill="#000000" font-family="sans-serif" font-size="12" font-weight="bold" lengthAdjust="spacing" textLength="61.3711" x="337.3145" y="48.4355">Apr 2026</text><line style="stroke:#C0C0C0;stroke-width:1;" x1="736" x2="736" y1="37.2969" y2="53.2969"/><text fill="#000000" font-family="sans-serif" font-size="12" font-weight="bold" lengthAdjust="spacing" textLength="65.4375" x="579.2813" y="48.4355">May 2026</text><line style="stroke:#C0C0C0;stroke-width:1;" x1="856" x2="856" y1="37.2969" y2="53.2969"/><text fill="#000000" font-family="sans-serif" font-size="12" font-weight="bold" lengthAdjust="spacing" textLength="59.127" x="766.4365" y="48.4355">Jun 2026</text><line style="stroke:#C0C0C0;stroke-width:1;" x1="0" x2="856" y1="37.2969" y2="37.2969"/><line style="stroke:#C0C0C0;stroke-width:1;" x1="0" x2="856" y1="53.2969" y2="53.2969"/><line style="stroke:#C0C0C0;stroke-width:1;" x1="0" x2="856" y1="64.2969" y2="64.2969"/><rect fill="#F0F0F0" height="23.9688" style="stroke:none;stroke-width:1;" width="856" x="0" y="69.2969"/><line style="stroke:#181818;stroke-width:1;" x1="0" x2="5" y1="81.2813" y2="81.2813"/><line style="stroke:#181818;stroke-width:1;" x1="154.0723" x2="855" y1="81.2813" y2="81.2813"/><rect fill="#BBDEFB" height="12.8047" style="stroke:none;stroke-width:1;" width="116" x="2" y="100.2656"/><rect fill="none" height="12.8047" style="stroke:#1976D2;stroke-width:1;" width="116" x="2" y="100.2656"/><rect fill="#BBDEFB" height="12.8047" style="stroke:none;stroke-width:1;" width="180" x="74" y="117.0703"/><rect fill="none" height="12.8047" style="stroke:#1976D2;stroke-width:1;" width="180" x="74" y="117.0703"/><rect fill="#F0F0F0" height="23.9688" style="stroke:none;stroke-width:1;" width="856" x="0" y="136.875"/><line style="stroke:#181818;stroke-width:1;" x1="0" x2="5" y1="148.8594" y2="148.8594"/><line style="stroke:#181818;stroke-width:1;" x1="108.3281" x2="855" y1="148.8594" y2="148.8594"/><rect fill="#C8E6C9" height="12.8047" style="stroke:none;stroke-width:1;" width="244" x="250" y="167.8438"/><rect fill="none" height="12.8047" style="stroke:#388E3C;stroke-width:1;" width="244" x="250" y="167.8438"/><rect fill="#C8E6C9" height="12.8047" style="stroke:none;stroke-width:1;" width="356" x="250" y="184.6484"/><rect fill="none" height="12.8047" style="stroke:#388E3C;stroke-width:1;" width="356" x="250" y="184.6484"/><rect fill="#C8E6C9" height="12.8047" style="stroke:none;stroke-width:1;" width="196" x="490" y="201.4531"/><rect fill="none" height="12.8047" style="stroke:#388E3C;stroke-width:1;" width="196" x="490" y="201.4531"/><rect fill="#F0F0F0" height="23.9688" style="stroke:none;stroke-width:1;" width="856" x="0" y="221.2578"/><line style="stroke:#181818;stroke-width:1;" x1="0" x2="5" y1="233.2422" y2="233.2422"/><line style="stroke:#181818;stroke-width:1;" x1="125.707" x2="855" y1="233.2422" y2="233.2422"/><rect fill="#FFE0B2" height="12.8047" style="stroke:none;stroke-width:1;" width="132" x="682" y="252.2266"/><rect fill="none" height="12.8047" style="stroke:#E65100;stroke-width:1;" width="132" x="682" y="252.2266"/><rect fill="#FFE0B2" height="12.8047" style="stroke:none;stroke-width:1;" width="84" x="770" y="269.0313"/><rect fill="none" height="12.8047" style="stroke:#E65100;stroke-width:1;" width="84" x="770" y="269.0313"/><rect fill="#F0F0F0" height="23.9688" style="stroke:none;stroke-width:1;" width="856" x="0" y="288.8359"/><line style="stroke:#181818;stroke-width:1;" x1="0" x2="5" y1="300.8203" y2="300.8203"/><line style="stroke:#181818;stroke-width:1;" x1="88.2539" x2="855" y1="300.8203" y2="300.8203"/><polygon fill="#FF4500" points="196,319.8047,201,324.8047,196,329.8047,191,324.8047" style="stroke:#FF4500;stroke-width:1;"/><polygon fill="#FF4500" points="684,336.6094,689,341.6094,684,346.6094,679,341.6094" style="stroke:#FF4500;stroke-width:1;"/><polygon fill="#FF4500" points="852,353.4141,857,358.4141,852,363.4141,847,358.4141" style="stroke:#FF4500;stroke-width:1;"/><text fill="#000000" font-family="sans-serif" font-size="12" font-weight="bold" lengthAdjust="spacing" textLength="139.0723" x="10" y="85.4355">Phase 1: Foundation</text><text fill="#000000" font-family="sans-serif" font-size="11" lengthAdjust="spacing" textLength="121.8647" x="122" y="110.4761">Infrastructure &amp; CI/CD</text><text fill="#000000" font-family="sans-serif" font-size="11" lengthAdjust="spacing" textLength="87.9517" x="78" y="127.2808">Auth &amp; Core API</text><text fill="#000000" font-family="sans-serif" font-size="12" font-weight="bold" lengthAdjust="spacing" textLength="93.3281" x="10" y="153.0137">Phase 2: Core</text><text fill="#000000" font-family="sans-serif" font-size="11" lengthAdjust="spacing" textLength="97.3081" x="254" y="178.0542">Backend Services</text><text fill="#000000" font-family="sans-serif" font-size="11" lengthAdjust="spacing" textLength="96.3682" x="254" y="194.8589">Frontend / Mobile</text><text fill="#000000" font-family="sans-serif" font-size="11" lengthAdjust="spacing" textLength="116.7246" x="494" y="211.6636">Integration &amp; Testing</text><text fill="#000000" font-family="sans-serif" font-size="12" font-weight="bold" lengthAdjust="spacing" textLength="110.707" x="10" y="237.3965">Phase 3: Launch</text><text fill="#000000" font-family="sans-serif" font-size="11" lengthAdjust="spacing" textLength="66.2578" x="686" y="262.437">UAT &amp; Fixes</text><text fill="#000000" font-family="sans-serif" font-size="11" lengthAdjust="spacing" textLength="70.0874" x="774" y="279.2417">Go-Live Prep</text><text fill="#000000" font-family="sans-serif" font-size="12" font-weight="bold" lengthAdjust="spacing" textLength="73.2539" x="10" y="304.9746">Milestones</text><text fill="#000000" font-family="sans-serif" font-size="11" font-weight="bold" lengthAdjust="spacing" textLength="64.9258" x="204" y="330.0151">POC Demo</text><text fill="#000000" font-family="sans-serif" font-size="11" font-weight="bold" lengthAdjust="spacing" textLength="69.749" x="692" y="346.8198">MVP Ready</text><text fill="#000000" font-family="sans-serif" font-size="11" font-weight="bold" lengthAdjust="spacing" textLength="46.562" x="860" y="363.6245">Go-Live</text><line style="stroke:#C0C0C0;stroke-width:1;" x1="0" x2="856" y1="368.2188" y2="368.2188"/><line style="stroke:#C0C0C0;stroke-width:1;" x1="0" x2="0" y1="368.2188" y2="384.2188"/><line style="stroke:#C0C0C0;stroke-width:1;" x1="248" x2="248" y1="368.2188" y2="384.2188"/><text fill="#000000" font-family="sans-serif" font-size="12" font-weight="bold" lengthAdjust="spacing" textLength="63.5332" x="92.2334" y="379.3574">Mar 2026</text><line style="stroke:#C0C0C0;stroke-width:1;" x1="488" x2="488" y1="368.2188" y2="384.2188"/><text fill="#000000" font-family="sans-serif" font-size="12" font-weight="bold" lengthAdjust="spacing" textLength="61.3711" x="337.3145" y="379.3574">Apr 2026</text><line style="stroke:#C0C0C0;stroke-width:1;" x1="736" x2="736" y1="368.2188" y2="384.2188"/><text fill="#000000" font-family="sans-serif" font-size="12" font-weight="bold" lengthAdjust="spacing" textLength="65.4375" x="579.2813" y="379.3574">May 2026</text><line style="stroke:#C0C0C0;stroke-width:1;" x1="856" x2="856" y1="368.2188" y2="384.2188"/><text fill="#000000" font-family="sans-serif" font-size="12" font-weight="bold" lengthAdjust="spacing" textLength="59.127" x="766.4365" y="379.3574">Jun 2026</text><line style="stroke:#C0C0C0;stroke-width:1;" x1="0" x2="856" y1="384.2188" y2="384.2188"/><g class="legend" data-source-line="49"><rect fill="#DDDDDD" height="79.1875" rx="7.5" ry="7.5" style="stroke:#000000;stroke-width:1;" width="97.5479" x="745.4521" y="396.2188"/><rect fill="#BBDEFB" height="16.2969" style="stroke:none;stroke-width:1;" width="87.5479" x="750.4521" y="403.2188"/><text fill="#000000" font-family="sans-serif" font-size="14" lengthAdjust="spacing" textLength="78.6475" x="754.9023" y="416.2139">Foundation</text><rect fill="#C8E6C9" height="16.2969" style="stroke:none;stroke-width:1;" width="87.5479" x="750.4521" y="419.5156"/><text fill="#000000" font-family="sans-serif" font-size="14" lengthAdjust="spacing" textLength="72.3037" x="754.9023" y="432.5107">Core Build</text><rect fill="#FFE0B2" height="16.2969" style="stroke:none;stroke-width:1;" width="87.5479" x="750.4521" y="435.8125"/><text fill="#000000" font-family="sans-serif" font-size="14" lengthAdjust="spacing" textLength="50.6953" x="754.9023" y="448.8076">Launch</text><rect fill="#FF4500" height="16.2969" style="stroke:none;stroke-width:1;" width="87.5479" x="750.4521" y="452.1094"/><text fill="#000000" font-family="sans-serif" font-size="14" lengthAdjust="spacing" textLength="67.3066" x="754.9023" y="465.1045">Milestone</text><line style="stroke:#000000;stroke-width:1;" x1="750.4521" x2="838" y1="403.2188" y2="403.2188"/><line style="stroke:#000000;stroke-width:1;" x1="750.4521" x2="838" y1="419.5156" y2="419.5156"/><line style="stroke:#000000;stroke-width:1;" x1="750.4521" x2="838" y1="435.8125" y2="435.8125"/><line style="stroke:#000000;stroke-width:1;" x1="750.4521" x2="838" y1="452.1094" y2="452.1094"/><line style="stroke:#000000;stroke-width:1;" x1="750.4521" x2="838" y1="468.4063" y2="468.4063"/><line style="stroke:#000000;stroke-width:1;" x1="750.4521" x2="750.4521" y1="403.2188" y2="468.4063"/><line style="stroke:#000000;stroke-width:1;" x1="838" x2="838" y1="403.2188" y2="468.4063"/></g><!--SRC=[ZPJTRjem5CVl_HH7GgfQQIb9Q2YDAjGI2AA25hMK6yI5ILpmcZZ8STZeMcaFiIVSa-muWJ45sbK8I7pE__nyFkohL56fvbGeHHHN4OF9K2PVMQ3WbiPi2hz__eB9xHJYHAX5-YL_3jag9Kl9XKe3Yf9lZ3r7QtX9aXXiD1JwF78AjcdN3RDcc1OXbwbQHwn9SbwRqxcaCVmW08gcp_a3W8-W1_x2mBBm_Gs_COzOgXB13dfitdLWc2LHc2-rQF3SbKacGY-94WbtaeevksU5jSy5sr_Ng9GjgQGABMMK_LbKnJVr9m_uHYwhcvI9OS1mGLCCvM8OTAUA9m8CWqnwuadILCaiK9baS0HUh-grf_iL12f2O2BShLdE-tAUGg2tn4BW0YgjLhlZjweLw-AythR9v3fJ2-sC3d0zxEtXBBECEzDDtDTzpDabRhk5IAUiguQHuO795GzOMgAV7KZMoUdxmXBUQtJgtaMrKciqEZMFJ7o9FTEAAWoI6OxIfr2whWUK_s7rq1zdEc_i4OnmQhcObtZEGPxjlAl-cBahRys5Fir4iCWB_7WzmY0-_xvNMmqhRw2EtIvfIbZVxvWjkrhfr1tBHDzkOlJvYi5GicK9e1a704vPz3519pROdlmqpsbuvq6RnSaK5dIvP68tgxfyW_4GxXaDrsLpKTqDkspCDqOYDjUDbdo-K7XoNoytKzpyzwY-5fQY0SrYbbiPZyAjfSYWkMt3PlNl7TFSvOCspIkmv0f_YYkO32FyVnpqOSLagg7MAUxJERNCur76u3PPWNa6rhbhc-xP1JoEF9s7SqAEkyC-f4ac0mOXnzk0ppAzwnDoGrSKxZEXUCnSw4fAe_5Wkm0TiU8uvp4JYjoC1ouyP3DKKyLWF21jzaIpIA5Na8GuZIuIVQD1-fXIHkSOJsHHH3miafBhukqF]--></g></svg>