<?plantuml 1.2026.1?><svg xmlns="http://www.w3.org/2000/svg" xmlns:xlink="http://www.w3.org/1999/xlink" contentStyleType="text/css" data-diagram-type="STATE" height="1058px" preserveAspectRatio="none" style="width:573px;height:1058px;background:#FFFFFF;" version="1.1" viewBox="0 0 573 1058" width="573px" zoomAndPan="magnify"><title>[Entity] State Machine</title><defs/><g><g class="title" data-source-line="2"><text fill="#000000" font-family="sans-serif" font-size="14" font-weight="bold" lengthAdjust="spacing" textLength="177.7002" x="190.9749" y="22.9951">[Entity] State Machine</text></g><ellipse cx="201" cy="53.2969" fill="#222222" rx="10" ry="10" style="stroke:#222222;stroke-width:1;"/><g><rect fill="#F1F1F1" height="50" rx="12.5" ry="12.5" style="stroke:#181818;stroke-width:0.5;" width="55.5332" x="173.23" y="124.2969"/><line style="stroke:#181818;stroke-width:0.5;" x1="173.23" x2="228.7632" y1="150.5938" y2="150.5938"/><text fill="#000000" font-family="sans-serif" font-size="14" lengthAdjust="spacing" textLength="35.5332" x="183.23" y="142.292">Draft</text></g><g><rect fill="#F1F1F1" height="50" rx="12.5" ry="12.5" style="stroke:#181818;stroke-width:0.5;" width="92.6523" x="154.67" y="251.2969"/><line style="stroke:#181818;stroke-width:0.5;" x1="154.67" x2="247.3223" y1="277.5938" y2="277.5938"/><text fill="#000000" font-family="sans-serif" font-size="14" lengthAdjust="spacing" textLength="72.6523" x="164.67" y="269.292">Submitted</text></g><g><rect fill="#F1F1F1" height="50" rx="12.5" ry="12.5" style="stroke:#181818;stroke-width:0.5;" width="88.8174" x="127.59" y="919.2969"/><line style="stroke:#181818;stroke-width:0.5;" x1="127.59" x2="216.4074" y1="945.5938" y2="945.5938"/><text fill="#000000" font-family="sans-serif" font-size="14" lengthAdjust="spacing" textLength="68.8174" x="137.59" y="937.292">Cancelled</text></g><g><rect fill="#F1F1F1" height="50" rx="12.5" ry="12.5" style="stroke:#181818;stroke-width:0.5;" width="112.9551" x="259.52" y="378.2969"/><line style="stroke:#181818;stroke-width:0.5;" x1="259.52" x2="372.4751" y1="404.5938" y2="404.5938"/><text fill="#000000" font-family="sans-serif" font-size="14" lengthAdjust="spacing" textLength="92.9551" x="269.52" y="396.292">UnderReview</text></g><g><rect fill="#F1F1F1" height="50" rx="12.5" ry="12.5" style="stroke:#181818;stroke-width:0.5;" width="87.457" x="249.27" y="505.2969"/><line style="stroke:#181818;stroke-width:0.5;" x1="249.27" x2="336.727" y1="531.5938" y2="531.5938"/><text fill="#000000" font-family="sans-serif" font-size="14" lengthAdjust="spacing" textLength="67.457" x="259.27" y="523.292">Approved</text></g><g><rect fill="#F1F1F1" height="50" rx="12.5" ry="12.5" style="stroke:#181818;stroke-width:0.5;" width="81.5303" x="422.23" y="505.2969"/><line style="stroke:#181818;stroke-width:0.5;" x1="422.23" x2="503.7603" y1="531.5938" y2="531.5938"/><text fill="#000000" font-family="sans-serif" font-size="14" lengthAdjust="spacing" textLength="61.5303" x="432.23" y="523.292">Rejected</text></g><g><rect fill="#F1F1F1" height="50" rx="12.5" ry="12.5" style="stroke:#181818;stroke-width:0.5;" width="63.5518" x="294.22" y="632.2969"/><line style="stroke:#181818;stroke-width:0.5;" x1="294.22" x2="357.7718" y1="658.5938" y2="658.5938"/><text fill="#000000" font-family="sans-serif" font-size="14" lengthAdjust="spacing" textLength="43.5518" x="304.22" y="650.292">Active</text></g><g><rect fill="#F1F1F1" height="50" rx="12.5" ry="12.5" style="stroke:#181818;stroke-width:0.5;" width="97.8135" x="196.09" y="759.2969"/><line style="stroke:#181818;stroke-width:0.5;" x1="196.09" x2="293.9035" y1="785.5938" y2="785.5938"/><text fill="#000000" font-family="sans-serif" font-size="14" lengthAdjust="spacing" textLength="77.8135" x="206.09" y="777.292">Suspended</text></g><g><rect fill="#F1F1F1" height="50" rx="12.5" ry="12.5" style="stroke:#181818;stroke-width:0.5;" width="96.3574" x="360.82" y="839.2969"/><line style="stroke:#181818;stroke-width:0.5;" x1="360.82" x2="457.1774" y1="865.5938" y2="865.5938"/><text fill="#000000" font-family="sans-serif" font-size="14" lengthAdjust="spacing" textLength="76.3574" x="370.82" y="857.292">Completed</text></g><ellipse cx="246" cy="1041.2969" fill="none" rx="11" ry="11" style="stroke:#222222;stroke-width:1;"/><ellipse cx="246" cy="1041.2969" fill="#222222" rx="6" ry="6" style="stroke:#222222;stroke-width:1;"/><!--link *start* to Draft--><g class="link" data-entity-1="ent0002" data-entity-2="ent0003" data-link-type="dependency" data-source-line="4" id="lnk4"><path d="M201,63.6569 C201,77.5869 201,98.2469 201,117.9469" fill="none" id="*start*-to-Draft" style="stroke:#181818;stroke-width:1;"/><polygon fill="#181818" points="201,123.9469,205,114.9469,201,118.9469,197,114.9469,201,123.9469" style="stroke:#181818;stroke-width:1;"/></g><!--link Draft to Submitted--><g class="link" data-entity-1="ent0003" data-entity-2="ent0005" data-link-type="dependency" data-source-line="6" id="lnk6"><path d="M201,174.6969 C201,196.7169 201,222.9569 201,244.9569" fill="none" id="Draft-to-Submitted" style="stroke:#181818;stroke-width:1;"/><polygon fill="#181818" points="201,250.9569,205,241.9569,201,245.9569,197,241.9569,201,250.9569" style="stroke:#181818;stroke-width:1;"/><text fill="#000000" font-family="sans-serif" font-size="13" lengthAdjust="spacing" textLength="85.1729" x="202" y="217.3638">User submits</text></g><!--link Draft to Cancelled--><g class="link" data-entity-1="ent0003" data-entity-2="ent0007" data-link-type="dependency" data-source-line="7" id="lnk8"><path d="M173.06,154.8469 C119.14,165.3969 6,196.8869 6,275.2969 C6,275.2969 6,275.2969 6,785.2969 C6,852.5369 72.9652,897.1902 122.1452,921.5902" fill="none" id="Draft-to-Cancelled" style="stroke:#181818;stroke-width:1;"/><polygon fill="#181818" points="127.52,924.2569,121.2355,916.6737,123.041,922.0347,117.68,923.8401,127.52,924.2569" style="stroke:#181818;stroke-width:1;"/><text fill="#000000" font-family="sans-serif" font-size="13" lengthAdjust="spacing" textLength="82.6465" x="7" y="534.8638">User cancels</text></g><!--link Submitted to UnderReview--><g class="link" data-entity-1="ent0005" data-entity-2="ent0009" data-link-type="dependency" data-source-line="9" id="lnk10"><path d="M193.38,301.4869 C190.27,316.1469 189.2,334.5969 198,348.2969 C211.69,369.6269 230.4613,380.6997 253.5613,388.5797" fill="none" id="Submitted-to-UnderReview" style="stroke:#181818;stroke-width:1;"/><polygon fill="#181818" points="259.24,390.5169,252.0134,383.8254,254.5078,388.9026,249.4305,391.3969,259.24,390.5169" style="stroke:#181818;stroke-width:1;"/><text fill="#000000" font-family="sans-serif" font-size="13" lengthAdjust="spacing" textLength="137.2427" x="199" y="344.3638">Auto-assign reviewer</text></g><!--link UnderReview to Submitted--><g class="link" data-entity-1="ent0009" data-entity-2="ent0005" data-link-type="dependency" data-source-line="14" id="lnk16"><path d="M335.19,377.8069 C344.01,363.3969 350.61,345.3069 341,331.2969 C320.22,301.0069 285.7626,288.7836 253.6926,282.9336" fill="none" id="UnderReview-to-Submitted" style="stroke:#181818;stroke-width:1;"/><polygon fill="#181818" points="247.79,281.8569,255.9261,287.407,252.7088,282.7541,257.3617,279.5369,247.79,281.8569" style="stroke:#181818;stroke-width:1;"/><text fill="#000000" font-family="sans-serif" font-size="13" lengthAdjust="spacing" textLength="112.1377" x="346" y="344.3638">Request changes</text></g><!--link Submitted to Cancelled--><g class="link" data-entity-1="ent0005" data-entity-2="ent0007" data-link-type="dependency" data-source-line="10" id="lnk11"><path d="M182.01,301.6069 C165.09,325.7369 143,364.4969 143,402.2969 C143,402.2969 143,402.2969 143,785.2969 C143,833.2669 154.4791,882.3172 163.0691,913.1372" fill="none" id="Submitted-to-Cancelled" style="stroke:#181818;stroke-width:1;"/><polygon fill="#181818" points="164.68,918.9169,166.1168,909.1734,163.3376,914.1005,158.4105,911.3212,164.68,918.9169" style="stroke:#181818;stroke-width:1;"/><text fill="#000000" font-family="sans-serif" font-size="13" lengthAdjust="spacing" textLength="100.312" x="144" y="598.3638">User withdraws</text></g><!--link UnderReview to Approved--><g class="link" data-entity-1="ent0009" data-entity-2="ent0012" data-link-type="dependency" data-source-line="12" id="lnk13"><path d="M288.86,428.7469 C281.26,437.2669 274,447.4369 270,458.2969 C264.36,473.6169 267.1102,485.7138 274.1402,499.4738" fill="none" id="UnderReview-to-Approved" style="stroke:#181818;stroke-width:1;"/><polygon fill="#181818" points="276.87,504.8169,276.3374,494.9824,274.5952,500.3643,269.2133,498.6221,276.87,504.8169" style="stroke:#181818;stroke-width:1;"/><text fill="#000000" font-family="sans-serif" font-size="13" lengthAdjust="spacing" textLength="124.6743" x="271" y="471.3638">Reviewer approves</text></g><!--link UnderReview to Rejected--><g class="link" data-entity-1="ent0009" data-entity-2="ent0014" data-link-type="dependency" data-source-line="13" id="lnk15"><path d="M359.04,428.7969 C372.7,437.3869 387.49,447.5869 400,458.2969 C416.4,472.3369 428.7155,485.9491 440.5455,500.4391" fill="none" id="UnderReview-to-Rejected" style="stroke:#181818;stroke-width:1;"/><polygon fill="#181818" points="444.34,505.0869,441.7467,495.5856,441.1779,501.2138,435.5497,500.645,444.34,505.0869" style="stroke:#181818;stroke-width:1;"/><text fill="#000000" font-family="sans-serif" font-size="13" lengthAdjust="spacing" textLength="108.4116" x="418" y="471.3638">Reviewer rejects</text></g><!--link Approved to Active--><g class="link" data-entity-1="ent0012" data-entity-2="ent0017" data-link-type="dependency" data-source-line="16" id="lnk18"><path d="M299.44,555.6969 C305.26,577.7169 312.238,604.1558 318.048,626.1558" fill="none" id="Approved-to-Active" style="stroke:#181818;stroke-width:1;"/><polygon fill="#181818" points="319.58,631.9569,321.1494,622.2339,318.3033,627.1226,313.4146,624.2766,319.58,631.9569" style="stroke:#181818;stroke-width:1;"/><text fill="#000000" font-family="sans-serif" font-size="13" lengthAdjust="spacing" textLength="111.96" x="312" y="598.3638">System activates</text></g><!--link Rejected to Draft--><g class="link" data-entity-1="ent0014" data-entity-2="ent0003" data-link-type="dependency" data-source-line="17" id="lnk19"><path d="M503.98,508.3669 C516.24,499.8869 528.22,488.8569 535,475.2969 C566.65,411.9969 513.23,384.8869 467,331.2969 C396.76,249.8769 287.1551,191.1716 234.4251,165.7616" fill="none" id="Rejected-to-Draft" style="stroke:#181818;stroke-width:1;"/><polygon fill="#181818" points="229.02,163.1569,235.3913,170.6673,233.5243,165.3274,238.8642,163.4605,229.02,163.1569" style="stroke:#181818;stroke-width:1;"/><text fill="#000000" font-family="sans-serif" font-size="13" lengthAdjust="spacing" textLength="79.9551" x="483" y="344.3638">User revises</text></g><!--link Active to Suspended--><g class="link" data-entity-1="ent0017" data-entity-2="ent0020" data-link-type="dependency" data-source-line="19" id="lnk21"><path d="M293.93,661.9169 C263.44,667.2469 219.2,680.3369 198,712.2969 C187.7,727.8169 194.6372,741.0649 208.6872,754.7849" fill="none" id="Active-to-Suspended" style="stroke:#181818;stroke-width:1;"/><polygon fill="#181818" points="212.98,758.9769,209.3355,749.8271,209.4027,755.4836,203.7462,755.5508,212.98,758.9769" style="stroke:#181818;stroke-width:1;"/><text fill="#000000" font-family="sans-serif" font-size="13" lengthAdjust="spacing" textLength="97.7285" x="199" y="725.3638">Policy violation</text></g><!--link Suspended to Active--><g class="link" data-entity-1="ent0020" data-entity-2="ent0017" data-link-type="dependency" data-source-line="22" id="lnk24"><path d="M275.36,758.8969 C284.56,750.3069 294.06,740.0869 301,729.2969 C310.18,715.0069 314.8854,702.6983 318.8654,688.3583" fill="none" id="Suspended-to-Active" style="stroke:#181818;stroke-width:1;"/><polygon fill="#181818" points="320.47,682.5769,314.2088,690.1793,319.1328,687.3948,321.9174,692.3188,320.47,682.5769" style="stroke:#181818;stroke-width:1;"/><text fill="#000000" font-family="sans-serif" font-size="13" lengthAdjust="spacing" textLength="93.374" x="310" y="725.3638">Issue resolved</text></g><!--link Active to Completed--><g class="link" data-entity-1="ent0017" data-entity-2="ent0022" data-link-type="dependency" data-source-line="20" id="lnk23"><path d="M358.19,669.3169 C377.54,677.7969 400.57,691.6269 412,712.2969 C434.08,752.2269 426.283,801.8334 418.043,833.2334" fill="none" id="Active-to-Completed" style="stroke:#181818;stroke-width:1;"/><polygon fill="#181818" points="416.52,839.0369,422.6734,831.3469,417.7891,834.2006,414.9354,829.3163,416.52,839.0369" style="stroke:#181818;stroke-width:1;"/><text fill="#000000" font-family="sans-serif" font-size="13" lengthAdjust="spacing" textLength="76.5718" x="419" y="725.3638">Natural end</text></g><!--link Suspended to Cancelled--><g class="link" data-entity-1="ent0020" data-entity-2="ent0007" data-link-type="dependency" data-source-line="23" id="lnk25"><path d="M233.75,809.6369 C220.04,839.3269 199.4962,883.78 185.7762,913.48" fill="none" id="Suspended-to-Cancelled" style="stroke:#181818;stroke-width:1;"/><polygon fill="#181818" points="183.26,918.9269,190.6656,912.434,185.3568,914.3878,183.403,909.0791,183.26,918.9269" style="stroke:#181818;stroke-width:1;"/><text fill="#000000" font-family="sans-serif" font-size="13" lengthAdjust="spacing" textLength="66.5806" x="220" y="868.8638">Escalation</text></g><!--link Completed to *end*--><g class="link" data-entity-1="ent0022" data-entity-2="ent0026" data-link-type="dependency" data-source-line="25" id="lnk27"><path d="M386.34,889.6269 C348.9,929.8269 280.0801,1003.717 257.1601,1028.317" fill="none" id="Completed-to-*end*" style="stroke:#181818;stroke-width:1;"/><polygon fill="#181818" points="253.07,1032.7069,262.1317,1028.8488,256.4784,1029.0486,256.2785,1023.3953,253.07,1032.7069" style="stroke:#181818;stroke-width:1;"/></g><!--link Cancelled to *end*--><g class="link" data-entity-1="ent0007" data-entity-2="ent0026" data-link-type="dependency" data-source-line="26" id="lnk28"><path d="M191.06,969.7569 C206.99,990.2169 225.0821,1013.4441 235.8121,1027.2141" fill="none" id="Cancelled-to-*end*" style="stroke:#181818;stroke-width:1;"/><polygon fill="#181818" points="239.5,1031.9469,237.1233,1022.3891,236.4267,1028.0029,230.8129,1027.3063,239.5,1031.9469" style="stroke:#181818;stroke-width:1;"/></g><?plantuml-src PPB1Ri8m44Jl_eezL-87UgY4A8SUMbL1d127nTaI5yTElPj4_7rj9oG1Jd56RsV6A_F5k0O3rd12VJa7txfouwqFq5T6I8aHIt3OkdYu7c4dA0IVg2lZIAd3on5MgpTu3_WZIkLF5dRjgJOYLC8hx9a2S1PuWMpGQR9sHdGMMAbvE75xLr8eg3FKHtBTYbyXipax25cay33mPDmRgSg0VRHUcYLstJJ1TnajHZV0GUCdkA1Vqd8FXwmziyi55FJN4Wle2jqv-gefDLVGOZgAsExAGZLW-ezRPZNbJIk-tIZTdBFJC3maSaEnHKhyzjReAtJ6MnJZtPBR-BgnD3JxGca3MeXpQUqtWxjQ7ymjnKJsDbP-e9QxthB6CKxD8OcApqJDvAZy0m00?></g></svg>