<svg xmlns="http://www.w3.org/2000/svg" xmlns:xlink="http://www.w3.org/1999/xlink" contentStyleType="text/css" data-diagram-type="WBS" height="753px" preserveAspectRatio="none" style="width:723px;height:753px;background:#FFFFFF;" version="1.1" viewBox="0 0 723 753" width="723px" zoomAndPan="magnify"><title>[Project Name] &#8212; WBS</title><defs/><g><g class="title" data-source-line="1"><text fill="#000000" font-family="sans-serif" font-size="14" font-weight="bold" lengthAdjust="spacing" textLength="178.9307" x="251.0903" y="32.9951">[Project Name] &#8212; WBS</text></g><line style="stroke:#181818;stroke-width:1.5;" x1="81.2744" x2="81.2744" y1="101.2656" y2="121.2656"/><rect fill="#F1F1F1" height="33.9688" style="stroke:#181818;stroke-width:1.5;" width="142.5488" x="10" y="121.2656"/><text fill="#000000" font-family="sans-serif" font-size="12" lengthAdjust="spacing" textLength="122.5488" x="20" y="142.4043">Phase 1: Foundation</text><line style="stroke:#181818;stroke-width:1.5;" x1="81.2744" x2="91.2744" y1="187.2188" y2="187.2188"/><rect fill="#F1F1F1" height="33.9688" style="stroke:#181818;stroke-width:1.5;" width="141.1191" x="91.2744" y="170.2344"/><text fill="#000000" font-family="sans-serif" font-size="12" lengthAdjust="spacing" textLength="121.1191" x="101.2744" y="191.373">Infrastructure Setup</text><line style="stroke:#181818;stroke-width:1.5;" x1="81.2744" x2="91.2744" y1="236.1875" y2="236.1875"/><rect fill="#F1F1F1" height="33.9688" style="stroke:#181818;stroke-width:1.5;" width="104.6211" x="91.2744" y="219.2031"/><text fill="#000000" font-family="sans-serif" font-size="12" lengthAdjust="spacing" textLength="84.6211" x="101.2744" y="240.3418">CI/CD Pipeline</text><line style="stroke:#181818;stroke-width:1.5;" x1="81.2744" x2="91.2744" y1="285.1563" y2="285.1563"/><rect fill="#F1F1F1" height="33.9688" style="stroke:#181818;stroke-width:1.5;" width="118.0625" x="91.2744" y="268.1719"/><text fill="#000000" font-family="sans-serif" font-size="12" lengthAdjust="spacing" textLength="98.0625" x="101.2744" y="289.3105">Auth Integration</text><line style="stroke:#181818;stroke-width:1.5;" x1="81.2744" x2="81.2744" y1="155.2344" y2="285.1563"/><line style="stroke:#181818;stroke-width:1.5;" x1="303.9805" x2="303.9805" y1="101.2656" y2="121.2656"/><rect fill="#F1F1F1" height="33.9688" style="stroke:#181818;stroke-width:1.5;" width="103.1738" x="252.3936" y="121.2656"/><text fill="#000000" font-family="sans-serif" font-size="12" lengthAdjust="spacing" textLength="83.1738" x="262.3936" y="142.4043">Phase 2: Core</text><line style="stroke:#181818;stroke-width:1.5;" x1="303.9805" x2="313.9805" y1="187.2188" y2="187.2188"/><rect fill="#F1F1F1" height="33.9688" style="stroke:#181818;stroke-width:1.5;" width="76.373" x="313.9805" y="170.2344"/><text fill="#000000" font-family="sans-serif" font-size="12" lengthAdjust="spacing" textLength="56.373" x="323.9805" y="191.373">Service A</text><line style="stroke:#181818;stroke-width:1.5;" x1="352.167" x2="362.167" y1="236.1875" y2="236.1875"/><rect fill="#F1F1F1" height="33.9688" style="stroke:#181818;stroke-width:1.5;" width="84.2305" x="362.167" y="219.2031"/><text fill="#000000" font-family="sans-serif" font-size="12" lengthAdjust="spacing" textLength="64.2305" x="372.167" y="240.3418">API Design</text><line style="stroke:#181818;stroke-width:1.5;" x1="352.167" x2="362.167" y1="285.1563" y2="285.1563"/><rect fill="#F1F1F1" height="33.9688" style="stroke:#181818;stroke-width:1.5;" width="115.2852" x="362.167" y="268.1719"/><text fill="#000000" font-family="sans-serif" font-size="12" lengthAdjust="spacing" textLength="95.2852" x="372.167" y="289.3105">Implementation</text><line style="stroke:#181818;stroke-width:1.5;" x1="352.167" x2="362.167" y1="334.125" y2="334.125"/><rect fill="#F1F1F1" height="33.9688" style="stroke:#181818;stroke-width:1.5;" width="64.2266" x="362.167" y="317.1406"/><text fill="#000000" font-family="sans-serif" font-size="12" lengthAdjust="spacing" textLength="44.2266" x="372.167" y="338.2793">Testing</text><line style="stroke:#181818;stroke-width:1.5;" x1="352.167" x2="352.167" y1="204.2031" y2="334.125"/><line style="stroke:#181818;stroke-width:1.5;" x1="303.9805" x2="313.9805" y1="383.0938" y2="383.0938"/><rect fill="#F1F1F1" height="33.9688" style="stroke:#181818;stroke-width:1.5;" width="76.3965" x="313.9805" y="366.1094"/><text fill="#000000" font-family="sans-serif" font-size="12" lengthAdjust="spacing" textLength="56.3965" x="323.9805" y="387.248">Service B</text><line style="stroke:#181818;stroke-width:1.5;" x1="352.1787" x2="362.1787" y1="432.0625" y2="432.0625"/><rect fill="#F1F1F1" height="33.9688" style="stroke:#181818;stroke-width:1.5;" width="84.2305" x="362.1787" y="415.0781"/><text fill="#000000" font-family="sans-serif" font-size="12" lengthAdjust="spacing" textLength="64.2305" x="372.1787" y="436.2168">API Design</text><line style="stroke:#181818;stroke-width:1.5;" x1="352.1787" x2="362.1787" y1="481.0313" y2="481.0313"/><rect fill="#F1F1F1" height="33.9688" style="stroke:#181818;stroke-width:1.5;" width="115.2852" x="362.1787" y="464.0469"/><text fill="#000000" font-family="sans-serif" font-size="12" lengthAdjust="spacing" textLength="95.2852" x="372.1787" y="485.1855">Implementation</text><line style="stroke:#181818;stroke-width:1.5;" x1="352.1787" x2="362.1787" y1="530" y2="530"/><rect fill="#F1F1F1" height="33.9688" style="stroke:#181818;stroke-width:1.5;" width="64.2266" x="362.1787" y="513.0156"/><text fill="#000000" font-family="sans-serif" font-size="12" lengthAdjust="spacing" textLength="44.2266" x="372.1787" y="534.1543">Testing</text><line style="stroke:#181818;stroke-width:1.5;" x1="352.1787" x2="352.1787" y1="400.0781" y2="530"/><line style="stroke:#181818;stroke-width:1.5;" x1="303.9805" x2="313.9805" y1="578.9688" y2="578.9688"/><rect fill="#F1F1F1" height="33.9688" style="stroke:#181818;stroke-width:1.5;" width="86.6211" x="313.9805" y="561.9844"/><text fill="#000000" font-family="sans-serif" font-size="12" lengthAdjust="spacing" textLength="66.6211" x="323.9805" y="583.123">Mobile App</text><line style="stroke:#181818;stroke-width:1.5;" x1="357.291" x2="367.291" y1="627.9375" y2="627.9375"/><rect fill="#F1F1F1" height="33.9688" style="stroke:#181818;stroke-width:1.5;" width="65.4102" x="367.291" y="610.9531"/><text fill="#000000" font-family="sans-serif" font-size="12" lengthAdjust="spacing" textLength="45.4102" x="377.291" y="632.0918">UI Shell</text><line style="stroke:#181818;stroke-width:1.5;" x1="357.291" x2="367.291" y1="676.9063" y2="676.9063"/><rect fill="#F1F1F1" height="33.9688" style="stroke:#181818;stroke-width:1.5;" width="99.623" x="367.291" y="659.9219"/><text fill="#000000" font-family="sans-serif" font-size="12" lengthAdjust="spacing" textLength="79.623" x="377.291" y="681.0605">Core Screens</text><line style="stroke:#181818;stroke-width:1.5;" x1="357.291" x2="367.291" y1="725.875" y2="725.875"/><rect fill="#F1F1F1" height="33.9688" style="stroke:#181818;stroke-width:1.5;" width="110.8027" x="367.291" y="708.8906"/><text fill="#000000" font-family="sans-serif" font-size="12" lengthAdjust="spacing" textLength="90.8027" x="377.291" y="730.0293">Offline Support</text><line style="stroke:#181818;stroke-width:1.5;" x1="357.291" x2="357.291" y1="595.9531" y2="725.875"/><line style="stroke:#181818;stroke-width:1.5;" x1="303.9805" x2="303.9805" y1="155.2344" y2="578.9688"/><line style="stroke:#181818;stroke-width:1.5;" x1="557.3887" x2="557.3887" y1="101.2656" y2="121.2656"/><rect fill="#F1F1F1" height="33.9688" style="stroke:#181818;stroke-width:1.5;" width="118.5898" x="498.0938" y="121.2656"/><text fill="#000000" font-family="sans-serif" font-size="12" lengthAdjust="spacing" textLength="98.5898" x="508.0938" y="142.4043">Phase 3: Launch</text><line style="stroke:#181818;stroke-width:1.5;" x1="557.3887" x2="567.3887" y1="187.2188" y2="187.2188"/><rect fill="#F1F1F1" height="33.9688" style="stroke:#181818;stroke-width:1.5;" width="144.7227" x="567.3887" y="170.2344"/><text fill="#000000" font-family="sans-serif" font-size="12" lengthAdjust="spacing" textLength="124.7227" x="577.3887" y="191.373">Performance Testing</text><line style="stroke:#181818;stroke-width:1.5;" x1="557.3887" x2="567.3887" y1="236.1875" y2="236.1875"/><rect fill="#F1F1F1" height="33.9688" style="stroke:#181818;stroke-width:1.5;" width="104.5625" x="567.3887" y="219.2031"/><text fill="#000000" font-family="sans-serif" font-size="12" lengthAdjust="spacing" textLength="84.5625" x="577.3887" y="240.3418">Security Audit</text><line style="stroke:#181818;stroke-width:1.5;" x1="557.3887" x2="567.3887" y1="285.1563" y2="285.1563"/><rect fill="#F1F1F1" height="33.9688" style="stroke:#181818;stroke-width:1.5;" width="108.1074" x="567.3887" y="268.1719"/><text fill="#000000" font-family="sans-serif" font-size="12" lengthAdjust="spacing" textLength="88.1074" x="577.3887" y="289.3105">Staged Rollout</text><line style="stroke:#181818;stroke-width:1.5;" x1="557.3887" x2="557.3887" y1="155.2344" y2="285.1563"/><line style="stroke:#181818;stroke-width:1.5;" x1="81.2744" x2="557.3887" y1="101.2656" y2="101.2656"/><rect fill="#F1F1F1" height="33.9688" style="stroke:#181818;stroke-width:1.5;" width="115.1563" x="261.7534" y="47.2969"/><text fill="#000000" font-family="sans-serif" font-size="12" lengthAdjust="spacing" textLength="95.1563" x="271.7534" y="68.4355">Project Delivery</text><line style="stroke:#181818;stroke-width:1.5;" x1="319.3315" x2="319.3315" y1="81.2656" y2="101.2656"/><!--SRC=[dL91Rjim4Bpp5NjC33IntHHjU8eZDu42An4Yspa4FT3IIcP1aGAvLE5R7z4NvYLTMNMBN7lSsPtbp2nl0YbFFtP1a2Q3y9fxznrBWaVLuZTu-_aBNcuB8IPmQYpHw1xzGKmOswk0C9DmvwAj56bd6Pv0Qckl0lbOKlG81LBiZeqalKoMaEkEbrWyGej8UoOGDlwquC_UkOJ4-N6gGD_h4c4nL4pAKnOIT6F7EcqxWorQ-gjX0ciCf6tpZdxxV_JCxJI7i-YwiRT9eTYZCMCrY8IYz8WsZCXJNG_-e8XTvppzi_HHmaf5M-wFQtFqjVEjigpilTeoUaq7pgRID4Aa6gpWsHdZ8eaRjDLmD94RPMcJhO1F4bWxp2xcq_cdYzdqR1qH7bqFqokOVPRpgRowXiqwWQ5_BixkynK45ps_NMc-bTx5mVovU52zWkTeIRSeuTuhPRRP2O2ljjVUsI4iyR3D97lSCLiHmZOJIwnLDCHJfQlOZkGNxpvy4IjbcyWE9DZ8iINyNSWVnket]--></g></svg>